<?xml version="1.0" encoding="utf-8" standalone="no"?>
<!DOCTYPE svg PUBLIC "-//W3C//DTD SVG 1.1//EN"
  "http://www.w3.org/Graphics/SVG/1.1/DTD/svg11.dtd">
<!-- Created with matplotlib (https://matplotlib.org/) -->
<svg height="388.844525pt" version="1.1" viewBox="0 0 1000.240625 388.844525" width="1000.240625pt" xmlns="http://www.w3.org/2000/svg" xmlns:xlink="http://www.w3.org/1999/xlink">
 <defs>
  <style type="text/css">
*{stroke-linecap:butt;stroke-linejoin:round;}
  </style>
 </defs>
 <g id="figure_1">
  <g id="axes_1">
   <g id="patch_1">
    <path d="M 45.690625 353.2239 
L 985.405625 353.2239 
L 985.405625 35.2559 
L 45.690625 35.2559 
z
" style="fill:#ffffff;"/>
   </g>
   <g id="matplotlib.axis_1">
    <g id="xtick_1">
     <g id="text_1">
      <!-- 0 -->
      <defs>
       <path d="M 31.78125 66.40625 
Q 24.171875 66.40625 20.328125 58.90625 
Q 16.5 51.421875 16.5 36.375 
Q 16.5 21.390625 20.328125 13.890625 
Q 24.171875 6.390625 31.78125 6.390625 
Q 39.453125 6.390625 43.28125 13.890625 
Q 47.125 21.390625 47.125 36.375 
Q 47.125 51.421875 43.28125 58.90625 
Q 39.453125 66.40625 31.78125 66.40625 
z
M 31.78125 74.21875 
Q 44.046875 74.21875 50.515625 64.515625 
Q 56.984375 54.828125 56.984375 36.375 
Q 56.984375 17.96875 50.515625 8.265625 
Q 44.046875 -1.421875 31.78125 -1.421875 
Q 19.53125 -1.421875 13.0625 8.265625 
Q 6.59375 17.96875 6.59375 36.375 
Q 6.59375 54.828125 13.0625 64.515625 
Q 19.53125 74.21875 31.78125 74.21875 
z
" id="DejaVuSans-48"/>
      </defs>
      <g transform="translate(43.145625 366.30265)scale(0.08 -0.08)">
       <use xlink:href="#DejaVuSans-48"/>
      </g>
     </g>
    </g>
    <g id="xtick_2">
     <g id="text_2">
      <!-- 20 -->
      <defs>
       <path d="M 19.1875 8.296875 
L 53.609375 8.296875 
L 53.609375 0 
L 7.328125 0 
L 7.328125 8.296875 
Q 12.9375 14.109375 22.625 23.890625 
Q 32.328125 33.6875 34.8125 36.53125 
Q 39.546875 41.84375 41.421875 45.53125 
Q 43.3125 49.21875 43.3125 52.78125 
Q 43.3125 58.59375 39.234375 62.25 
Q 35.15625 65.921875 28.609375 65.921875 
Q 23.96875 65.921875 18.8125 64.3125 
Q 13.671875 62.703125 7.8125 59.421875 
L 7.8125 69.390625 
Q 13.765625 71.78125 18.9375 73 
Q 24.125 74.21875 28.421875 74.21875 
Q 39.75 74.21875 46.484375 68.546875 
Q 53.21875 62.890625 53.21875 53.421875 
Q 53.21875 48.921875 51.53125 44.890625 
Q 49.859375 40.875 45.40625 35.40625 
Q 44.1875 33.984375 37.640625 27.21875 
Q 31.109375 20.453125 19.1875 8.296875 
z
" id="DejaVuSans-50"/>
      </defs>
      <g transform="translate(228.543625 366.30265)scale(0.08 -0.08)">
       <use xlink:href="#DejaVuSans-50"/>
       <use x="63.623047" xlink:href="#DejaVuSans-48"/>
      </g>
     </g>
    </g>
    <g id="xtick_3">
     <g id="text_3">
      <!-- 40 -->
      <defs>
       <path d="M 37.796875 64.3125 
L 12.890625 25.390625 
L 37.796875 25.390625 
z
M 35.203125 72.90625 
L 47.609375 72.90625 
L 47.609375 25.390625 
L 58.015625 25.390625 
L 58.015625 17.1875 
L 47.609375 17.1875 
L 47.609375 0 
L 37.796875 0 
L 37.796875 17.1875 
L 4.890625 17.1875 
L 4.890625 26.703125 
z
" id="DejaVuSans-52"/>
      </defs>
      <g transform="translate(416.486625 366.30265)scale(0.08 -0.08)">
       <use xlink:href="#DejaVuSans-52"/>
       <use x="63.623047" xlink:href="#DejaVuSans-48"/>
      </g>
     </g>
    </g>
    <g id="xtick_4">
     <g id="text_4">
      <!-- 60 -->
      <defs>
       <path d="M 33.015625 40.375 
Q 26.375 40.375 22.484375 35.828125 
Q 18.609375 31.296875 18.609375 23.390625 
Q 18.609375 15.53125 22.484375 10.953125 
Q 26.375 6.390625 33.015625 6.390625 
Q 39.65625 6.390625 43.53125 10.953125 
Q 47.40625 15.53125 47.40625 23.390625 
Q 47.40625 31.296875 43.53125 35.828125 
Q 39.65625 40.375 33.015625 40.375 
z
M 52.59375 71.296875 
L 52.59375 62.3125 
Q 48.875 64.0625 45.09375 64.984375 
Q 41.3125 65.921875 37.59375 65.921875 
Q 27.828125 65.921875 22.671875 59.328125 
Q 17.53125 52.734375 16.796875 39.40625 
Q 19.671875 43.65625 24.015625 45.921875 
Q 28.375 48.1875 33.59375 48.1875 
Q 44.578125 48.1875 50.953125 41.515625 
Q 57.328125 34.859375 57.328125 23.390625 
Q 57.328125 12.15625 50.6875 5.359375 
Q 44.046875 -1.421875 33.015625 -1.421875 
Q 20.359375 -1.421875 13.671875 8.265625 
Q 6.984375 17.96875 6.984375 36.375 
Q 6.984375 53.65625 15.1875 63.9375 
Q 23.390625 74.21875 37.203125 74.21875 
Q 40.921875 74.21875 44.703125 73.484375 
Q 48.484375 72.75 52.59375 71.296875 
z
" id="DejaVuSans-54"/>
      </defs>
      <g transform="translate(604.429625 366.30265)scale(0.08 -0.08)">
       <use xlink:href="#DejaVuSans-54"/>
       <use x="63.623047" xlink:href="#DejaVuSans-48"/>
      </g>
     </g>
    </g>
    <g id="xtick_5">
     <g id="text_5">
      <!-- 80 -->
      <defs>
       <path d="M 31.78125 34.625 
Q 24.75 34.625 20.71875 30.859375 
Q 16.703125 27.09375 16.703125 20.515625 
Q 16.703125 13.921875 20.71875 10.15625 
Q 24.75 6.390625 31.78125 6.390625 
Q 38.8125 6.390625 42.859375 10.171875 
Q 46.921875 13.96875 46.921875 20.515625 
Q 46.921875 27.09375 42.890625 30.859375 
Q 38.875 34.625 31.78125 34.625 
z
M 21.921875 38.8125 
Q 15.578125 40.375 12.03125 44.71875 
Q 8.5 49.078125 8.5 55.328125 
Q 8.5 64.0625 14.71875 69.140625 
Q 20.953125 74.21875 31.78125 74.21875 
Q 42.671875 74.21875 48.875 69.140625 
Q 55.078125 64.0625 55.078125 55.328125 
Q 55.078125 49.078125 51.53125 44.71875 
Q 48 40.375 41.703125 38.8125 
Q 48.828125 37.15625 52.796875 32.3125 
Q 56.78125 27.484375 56.78125 20.515625 
Q 56.78125 9.90625 50.3125 4.234375 
Q 43.84375 -1.421875 31.78125 -1.421875 
Q 19.734375 -1.421875 13.25 4.234375 
Q 6.78125 9.90625 6.78125 20.515625 
Q 6.78125 27.484375 10.78125 32.3125 
Q 14.796875 37.15625 21.921875 38.8125 
z
M 18.3125 54.390625 
Q 18.3125 48.734375 21.84375 45.5625 
Q 25.390625 42.390625 31.78125 42.390625 
Q 38.140625 42.390625 41.71875 45.5625 
Q 45.3125 48.734375 45.3125 54.390625 
Q 45.3125 60.0625 41.71875 63.234375 
Q 38.140625 66.40625 31.78125 66.40625 
Q 25.390625 66.40625 21.84375 63.234375 
Q 18.3125 60.0625 18.3125 54.390625 
z
" id="DejaVuSans-56"/>
      </defs>
      <g transform="translate(792.372625 366.30265)scale(0.08 -0.08)">
       <use xlink:href="#DejaVuSans-56"/>
       <use x="63.623047" xlink:href="#DejaVuSans-48"/>
      </g>
     </g>
    </g>
    <g id="xtick_6">
     <g id="text_6">
      <!-- 100 -->
      <defs>
       <path d="M 12.40625 8.296875 
L 28.515625 8.296875 
L 28.515625 63.921875 
L 10.984375 60.40625 
L 10.984375 69.390625 
L 28.421875 72.90625 
L 38.28125 72.90625 
L 38.28125 8.296875 
L 54.390625 8.296875 
L 54.390625 0 
L 12.40625 0 
z
" id="DejaVuSans-49"/>
      </defs>
      <g transform="translate(977.770625 366.30265)scale(0.08 -0.08)">
       <use xlink:href="#DejaVuSans-49"/>
       <use x="63.623047" xlink:href="#DejaVuSans-48"/>
       <use x="127.246094" xlink:href="#DejaVuSans-48"/>
      </g>
     </g>
    </g>
    <g id="text_7">
     <!-- % GC -->
     <defs>
      <path d="M 72.703125 32.078125 
Q 68.453125 32.078125 66.03125 28.46875 
Q 63.625 24.859375 63.625 18.40625 
Q 63.625 12.0625 66.03125 8.421875 
Q 68.453125 4.78125 72.703125 4.78125 
Q 76.859375 4.78125 79.265625 8.421875 
Q 81.6875 12.0625 81.6875 18.40625 
Q 81.6875 24.8125 79.265625 28.4375 
Q 76.859375 32.078125 72.703125 32.078125 
z
M 72.703125 38.28125 
Q 80.421875 38.28125 84.953125 32.90625 
Q 89.5 27.546875 89.5 18.40625 
Q 89.5 9.28125 84.9375 3.921875 
Q 80.375 -1.421875 72.703125 -1.421875 
Q 64.890625 -1.421875 60.34375 3.921875 
Q 55.8125 9.28125 55.8125 18.40625 
Q 55.8125 27.59375 60.375 32.9375 
Q 64.9375 38.28125 72.703125 38.28125 
z
M 22.3125 68.015625 
Q 18.109375 68.015625 15.6875 64.375 
Q 13.28125 60.75 13.28125 54.390625 
Q 13.28125 47.953125 15.671875 44.328125 
Q 18.0625 40.71875 22.3125 40.71875 
Q 26.5625 40.71875 28.96875 44.328125 
Q 31.390625 47.953125 31.390625 54.390625 
Q 31.390625 60.6875 28.953125 64.34375 
Q 26.515625 68.015625 22.3125 68.015625 
z
M 66.40625 74.21875 
L 74.21875 74.21875 
L 28.609375 -1.421875 
L 20.796875 -1.421875 
z
M 22.3125 74.21875 
Q 30.03125 74.21875 34.609375 68.875 
Q 39.203125 63.53125 39.203125 54.390625 
Q 39.203125 45.171875 34.640625 39.84375 
Q 30.078125 34.515625 22.3125 34.515625 
Q 14.546875 34.515625 10.03125 39.859375 
Q 5.515625 45.21875 5.515625 54.390625 
Q 5.515625 63.484375 10.046875 68.84375 
Q 14.59375 74.21875 22.3125 74.21875 
z
" id="DejaVuSans-37"/>
      <path id="DejaVuSans-32"/>
      <path d="M 59.515625 10.40625 
L 59.515625 29.984375 
L 43.40625 29.984375 
L 43.40625 38.09375 
L 69.28125 38.09375 
L 69.28125 6.78125 
Q 63.578125 2.734375 56.6875 0.65625 
Q 49.8125 -1.421875 42 -1.421875 
Q 24.90625 -1.421875 15.25 8.5625 
Q 5.609375 18.5625 5.609375 36.375 
Q 5.609375 54.25 15.25 64.234375 
Q 24.90625 74.21875 42 74.21875 
Q 49.125 74.21875 55.546875 72.453125 
Q 61.96875 70.703125 67.390625 67.28125 
L 67.390625 56.78125 
Q 61.921875 61.421875 55.765625 63.765625 
Q 49.609375 66.109375 42.828125 66.109375 
Q 29.4375 66.109375 22.71875 58.640625 
Q 16.015625 51.171875 16.015625 36.375 
Q 16.015625 21.625 22.71875 14.15625 
Q 29.4375 6.6875 42.828125 6.6875 
Q 48.046875 6.6875 52.140625 7.59375 
Q 56.25 8.5 59.515625 10.40625 
z
" id="DejaVuSans-71"/>
      <path d="M 64.40625 67.28125 
L 64.40625 56.890625 
Q 59.421875 61.53125 53.78125 63.8125 
Q 48.140625 66.109375 41.796875 66.109375 
Q 29.296875 66.109375 22.65625 58.46875 
Q 16.015625 50.828125 16.015625 36.375 
Q 16.015625 21.96875 22.65625 14.328125 
Q 29.296875 6.6875 41.796875 6.6875 
Q 48.140625 6.6875 53.78125 8.984375 
Q 59.421875 11.28125 64.40625 15.921875 
L 64.40625 5.609375 
Q 59.234375 2.09375 53.4375 0.328125 
Q 47.65625 -1.421875 41.21875 -1.421875 
Q 24.65625 -1.421875 15.125 8.703125 
Q 5.609375 18.84375 5.609375 36.375 
Q 5.609375 53.953125 15.125 64.078125 
Q 24.65625 74.21875 41.21875 74.21875 
Q 47.75 74.21875 53.53125 72.484375 
Q 59.328125 70.75 64.40625 67.28125 
z
" id="DejaVuSans-67"/>
     </defs>
     <g transform="translate(501.842656 379.564837)scale(0.1 -0.1)">
      <use xlink:href="#DejaVuSans-37"/>
      <use x="95.019531" xlink:href="#DejaVuSans-32"/>
      <use x="126.806641" xlink:href="#DejaVuSans-71"/>
      <use x="204.296875" xlink:href="#DejaVuSans-67"/>
     </g>
    </g>
   </g>
   <g id="matplotlib.axis_2">
    <g id="ytick_1">
     <g id="line2d_1">
      <path clip-path="url(#pf479a8bb1e)" d="M 45.690625 353.2239 
L 985.405625 353.2239 
" style="fill:none;stroke:#dedede;stroke-linecap:square;"/>
     </g>
     <g id="text_8">
      <!-- 0.0 -->
      <defs>
       <path d="M 10.6875 12.40625 
L 21 12.40625 
L 21 0 
L 10.6875 0 
z
" id="DejaVuSans-46"/>
      </defs>
      <g transform="translate(25.968125 356.263275)scale(0.08 -0.08)">
       <use xlink:href="#DejaVuSans-48"/>
       <use x="63.623047" xlink:href="#DejaVuSans-46"/>
       <use x="95.410156" xlink:href="#DejaVuSans-48"/>
      </g>
     </g>
    </g>
    <g id="ytick_2">
     <g id="line2d_2">
      <path clip-path="url(#pf479a8bb1e)" d="M 45.690625 314.400659 
L 985.405625 314.400659 
" style="fill:none;stroke:#dedede;stroke-linecap:square;"/>
     </g>
     <g id="text_9">
      <!-- 2.5 -->
      <defs>
       <path d="M 10.796875 72.90625 
L 49.515625 72.90625 
L 49.515625 64.59375 
L 19.828125 64.59375 
L 19.828125 46.734375 
Q 21.96875 47.46875 24.109375 47.828125 
Q 26.265625 48.1875 28.421875 48.1875 
Q 40.625 48.1875 47.75 41.5 
Q 54.890625 34.8125 54.890625 23.390625 
Q 54.890625 11.625 47.5625 5.09375 
Q 40.234375 -1.421875 26.90625 -1.421875 
Q 22.3125 -1.421875 17.546875 -0.640625 
Q 12.796875 0.140625 7.71875 1.703125 
L 7.71875 11.625 
Q 12.109375 9.234375 16.796875 8.0625 
Q 21.484375 6.890625 26.703125 6.890625 
Q 35.15625 6.890625 40.078125 11.328125 
Q 45.015625 15.765625 45.015625 23.390625 
Q 45.015625 31 40.078125 35.4375 
Q 35.15625 39.890625 26.703125 39.890625 
Q 22.75 39.890625 18.8125 39.015625 
Q 14.890625 38.140625 10.796875 36.28125 
z
" id="DejaVuSans-53"/>
      </defs>
      <g transform="translate(25.968125 317.440034)scale(0.08 -0.08)">
       <use xlink:href="#DejaVuSans-50"/>
       <use x="63.623047" xlink:href="#DejaVuSans-46"/>
       <use x="95.410156" xlink:href="#DejaVuSans-53"/>
      </g>
     </g>
    </g>
    <g id="ytick_3">
     <g id="line2d_3">
      <path clip-path="url(#pf479a8bb1e)" d="M 45.690625 275.577418 
L 985.405625 275.577418 
" style="fill:none;stroke:#dedede;stroke-linecap:square;"/>
     </g>
     <g id="text_10">
      <!-- 5.0 -->
      <g transform="translate(25.968125 278.616793)scale(0.08 -0.08)">
       <use xlink:href="#DejaVuSans-53"/>
       <use x="63.623047" xlink:href="#DejaVuSans-46"/>
       <use x="95.410156" xlink:href="#DejaVuSans-48"/>
      </g>
     </g>
    </g>
    <g id="ytick_4">
     <g id="line2d_4">
      <path clip-path="url(#pf479a8bb1e)" d="M 45.690625 236.754178 
L 985.405625 236.754178 
" style="fill:none;stroke:#dedede;stroke-linecap:square;"/>
     </g>
     <g id="text_11">
      <!-- 7.5 -->
      <defs>
       <path d="M 8.203125 72.90625 
L 55.078125 72.90625 
L 55.078125 68.703125 
L 28.609375 0 
L 18.3125 0 
L 43.21875 64.59375 
L 8.203125 64.59375 
z
" id="DejaVuSans-55"/>
      </defs>
      <g transform="translate(25.968125 239.793553)scale(0.08 -0.08)">
       <use xlink:href="#DejaVuSans-55"/>
       <use x="63.623047" xlink:href="#DejaVuSans-46"/>
       <use x="95.410156" xlink:href="#DejaVuSans-53"/>
      </g>
     </g>
    </g>
    <g id="ytick_5">
     <g id="line2d_5">
      <path clip-path="url(#pf479a8bb1e)" d="M 45.690625 197.930937 
L 985.405625 197.930937 
" style="fill:none;stroke:#dedede;stroke-linecap:square;"/>
     </g>
     <g id="text_12">
      <!-- 10.0 -->
      <g transform="translate(20.878125 200.970312)scale(0.08 -0.08)">
       <use xlink:href="#DejaVuSans-49"/>
       <use x="63.623047" xlink:href="#DejaVuSans-48"/>
       <use x="127.246094" xlink:href="#DejaVuSans-46"/>
       <use x="159.033203" xlink:href="#DejaVuSans-48"/>
      </g>
     </g>
    </g>
    <g id="ytick_6">
     <g id="line2d_6">
      <path clip-path="url(#pf479a8bb1e)" d="M 45.690625 159.107696 
L 985.405625 159.107696 
" style="fill:none;stroke:#dedede;stroke-linecap:square;"/>
     </g>
     <g id="text_13">
      <!-- 12.5 -->
      <g transform="translate(20.878125 162.147071)scale(0.08 -0.08)">
       <use xlink:href="#DejaVuSans-49"/>
       <use x="63.623047" xlink:href="#DejaVuSans-50"/>
       <use x="127.246094" xlink:href="#DejaVuSans-46"/>
       <use x="159.033203" xlink:href="#DejaVuSans-53"/>
      </g>
     </g>
    </g>
    <g id="ytick_7">
     <g id="line2d_7">
      <path clip-path="url(#pf479a8bb1e)" d="M 45.690625 120.284455 
L 985.405625 120.284455 
" style="fill:none;stroke:#dedede;stroke-linecap:square;"/>
     </g>
     <g id="text_14">
      <!-- 15.0 -->
      <g transform="translate(20.878125 123.32383)scale(0.08 -0.08)">
       <use xlink:href="#DejaVuSans-49"/>
       <use x="63.623047" xlink:href="#DejaVuSans-53"/>
       <use x="127.246094" xlink:href="#DejaVuSans-46"/>
       <use x="159.033203" xlink:href="#DejaVuSans-48"/>
      </g>
     </g>
    </g>
    <g id="ytick_8">
     <g id="line2d_8">
      <path clip-path="url(#pf479a8bb1e)" d="M 45.690625 81.461214 
L 985.405625 81.461214 
" style="fill:none;stroke:#dedede;stroke-linecap:square;"/>
     </g>
     <g id="text_15">
      <!-- 17.5 -->
      <g transform="translate(20.878125 84.500589)scale(0.08 -0.08)">
       <use xlink:href="#DejaVuSans-49"/>
       <use x="63.623047" xlink:href="#DejaVuSans-55"/>
       <use x="127.246094" xlink:href="#DejaVuSans-46"/>
       <use x="159.033203" xlink:href="#DejaVuSans-53"/>
      </g>
     </g>
    </g>
    <g id="ytick_9">
     <g id="line2d_9">
      <path clip-path="url(#pf479a8bb1e)" d="M 45.690625 42.637974 
L 985.405625 42.637974 
" style="fill:none;stroke:#dedede;stroke-linecap:square;"/>
     </g>
     <g id="text_16">
      <!-- 20.0 -->
      <g transform="translate(20.878125 45.677349)scale(0.08 -0.08)">
       <use xlink:href="#DejaVuSans-50"/>
       <use x="63.623047" xlink:href="#DejaVuSans-48"/>
       <use x="127.246094" xlink:href="#DejaVuSans-46"/>
       <use x="159.033203" xlink:href="#DejaVuSans-48"/>
      </g>
     </g>
    </g>
    <g id="text_17">
     <!-- Percentage -->
     <defs>
      <path d="M 19.671875 64.796875 
L 19.671875 37.40625 
L 32.078125 37.40625 
Q 38.96875 37.40625 42.71875 40.96875 
Q 46.484375 44.53125 46.484375 51.125 
Q 46.484375 57.671875 42.71875 61.234375 
Q 38.96875 64.796875 32.078125 64.796875 
z
M 9.8125 72.90625 
L 32.078125 72.90625 
Q 44.34375 72.90625 50.609375 67.359375 
Q 56.890625 61.8125 56.890625 51.125 
Q 56.890625 40.328125 50.609375 34.8125 
Q 44.34375 29.296875 32.078125 29.296875 
L 19.671875 29.296875 
L 19.671875 0 
L 9.8125 0 
z
" id="DejaVuSans-80"/>
      <path d="M 56.203125 29.59375 
L 56.203125 25.203125 
L 14.890625 25.203125 
Q 15.484375 15.921875 20.484375 11.0625 
Q 25.484375 6.203125 34.421875 6.203125 
Q 39.59375 6.203125 44.453125 7.46875 
Q 49.3125 8.734375 54.109375 11.28125 
L 54.109375 2.78125 
Q 49.265625 0.734375 44.1875 -0.34375 
Q 39.109375 -1.421875 33.890625 -1.421875 
Q 20.796875 -1.421875 13.15625 6.1875 
Q 5.515625 13.8125 5.515625 26.8125 
Q 5.515625 40.234375 12.765625 48.109375 
Q 20.015625 56 32.328125 56 
Q 43.359375 56 49.78125 48.890625 
Q 56.203125 41.796875 56.203125 29.59375 
z
M 47.21875 32.234375 
Q 47.125 39.59375 43.09375 43.984375 
Q 39.0625 48.390625 32.421875 48.390625 
Q 24.90625 48.390625 20.390625 44.140625 
Q 15.875 39.890625 15.1875 32.171875 
z
" id="DejaVuSans-101"/>
      <path d="M 41.109375 46.296875 
Q 39.59375 47.171875 37.8125 47.578125 
Q 36.03125 48 33.890625 48 
Q 26.265625 48 22.1875 43.046875 
Q 18.109375 38.09375 18.109375 28.8125 
L 18.109375 0 
L 9.078125 0 
L 9.078125 54.6875 
L 18.109375 54.6875 
L 18.109375 46.1875 
Q 20.953125 51.171875 25.484375 53.578125 
Q 30.03125 56 36.53125 56 
Q 37.453125 56 38.578125 55.875 
Q 39.703125 55.765625 41.0625 55.515625 
z
" id="DejaVuSans-114"/>
      <path d="M 48.78125 52.59375 
L 48.78125 44.1875 
Q 44.96875 46.296875 41.140625 47.34375 
Q 37.3125 48.390625 33.40625 48.390625 
Q 24.65625 48.390625 19.8125 42.84375 
Q 14.984375 37.3125 14.984375 27.296875 
Q 14.984375 17.28125 19.8125 11.734375 
Q 24.65625 6.203125 33.40625 6.203125 
Q 37.3125 6.203125 41.140625 7.25 
Q 44.96875 8.296875 48.78125 10.40625 
L 48.78125 2.09375 
Q 45.015625 0.34375 40.984375 -0.53125 
Q 36.96875 -1.421875 32.421875 -1.421875 
Q 20.0625 -1.421875 12.78125 6.34375 
Q 5.515625 14.109375 5.515625 27.296875 
Q 5.515625 40.671875 12.859375 48.328125 
Q 20.21875 56 33.015625 56 
Q 37.15625 56 41.109375 55.140625 
Q 45.0625 54.296875 48.78125 52.59375 
z
" id="DejaVuSans-99"/>
      <path d="M 54.890625 33.015625 
L 54.890625 0 
L 45.90625 0 
L 45.90625 32.71875 
Q 45.90625 40.484375 42.875 44.328125 
Q 39.84375 48.1875 33.796875 48.1875 
Q 26.515625 48.1875 22.3125 43.546875 
Q 18.109375 38.921875 18.109375 30.90625 
L 18.109375 0 
L 9.078125 0 
L 9.078125 54.6875 
L 18.109375 54.6875 
L 18.109375 46.1875 
Q 21.34375 51.125 25.703125 53.5625 
Q 30.078125 56 35.796875 56 
Q 45.21875 56 50.046875 50.171875 
Q 54.890625 44.34375 54.890625 33.015625 
z
" id="DejaVuSans-110"/>
      <path d="M 18.3125 70.21875 
L 18.3125 54.6875 
L 36.8125 54.6875 
L 36.8125 47.703125 
L 18.3125 47.703125 
L 18.3125 18.015625 
Q 18.3125 11.328125 20.140625 9.421875 
Q 21.96875 7.515625 27.59375 7.515625 
L 36.8125 7.515625 
L 36.8125 0 
L 27.59375 0 
Q 17.1875 0 13.234375 3.875 
Q 9.28125 7.765625 9.28125 18.015625 
L 9.28125 47.703125 
L 2.6875 47.703125 
L 2.6875 54.6875 
L 9.28125 54.6875 
L 9.28125 70.21875 
z
" id="DejaVuSans-116"/>
      <path d="M 34.28125 27.484375 
Q 23.390625 27.484375 19.1875 25 
Q 14.984375 22.515625 14.984375 16.5 
Q 14.984375 11.71875 18.140625 8.90625 
Q 21.296875 6.109375 26.703125 6.109375 
Q 34.1875 6.109375 38.703125 11.40625 
Q 43.21875 16.703125 43.21875 25.484375 
L 43.21875 27.484375 
z
M 52.203125 31.203125 
L 52.203125 0 
L 43.21875 0 
L 43.21875 8.296875 
Q 40.140625 3.328125 35.546875 0.953125 
Q 30.953125 -1.421875 24.3125 -1.421875 
Q 15.921875 -1.421875 10.953125 3.296875 
Q 6 8.015625 6 15.921875 
Q 6 25.140625 12.171875 29.828125 
Q 18.359375 34.515625 30.609375 34.515625 
L 43.21875 34.515625 
L 43.21875 35.40625 
Q 43.21875 41.609375 39.140625 45 
Q 35.0625 48.390625 27.6875 48.390625 
Q 23 48.390625 18.546875 47.265625 
Q 14.109375 46.140625 10.015625 43.890625 
L 10.015625 52.203125 
Q 14.9375 54.109375 19.578125 55.046875 
Q 24.21875 56 28.609375 56 
Q 40.484375 56 46.34375 49.84375 
Q 52.203125 43.703125 52.203125 31.203125 
z
" id="DejaVuSans-97"/>
      <path d="M 45.40625 27.984375 
Q 45.40625 37.75 41.375 43.109375 
Q 37.359375 48.484375 30.078125 48.484375 
Q 22.859375 48.484375 18.828125 43.109375 
Q 14.796875 37.75 14.796875 27.984375 
Q 14.796875 18.265625 18.828125 12.890625 
Q 22.859375 7.515625 30.078125 7.515625 
Q 37.359375 7.515625 41.375 12.890625 
Q 45.40625 18.265625 45.40625 27.984375 
z
M 54.390625 6.78125 
Q 54.390625 -7.171875 48.1875 -13.984375 
Q 42 -20.796875 29.203125 -20.796875 
Q 24.46875 -20.796875 20.265625 -20.09375 
Q 16.0625 -19.390625 12.109375 -17.921875 
L 12.109375 -9.1875 
Q 16.0625 -11.328125 19.921875 -12.34375 
Q 23.78125 -13.375 27.78125 -13.375 
Q 36.625 -13.375 41.015625 -8.765625 
Q 45.40625 -4.15625 45.40625 5.171875 
L 45.40625 9.625 
Q 42.625 4.78125 38.28125 2.390625 
Q 33.9375 0 27.875 0 
Q 17.828125 0 11.671875 7.65625 
Q 5.515625 15.328125 5.515625 27.984375 
Q 5.515625 40.671875 11.671875 48.328125 
Q 17.828125 56 27.875 56 
Q 33.9375 56 38.28125 53.609375 
Q 42.625 51.21875 45.40625 46.390625 
L 45.40625 54.6875 
L 54.390625 54.6875 
z
" id="DejaVuSans-103"/>
     </defs>
     <g transform="translate(14.798438 222.362556)rotate(-90)scale(0.1 -0.1)">
      <use xlink:href="#DejaVuSans-80"/>
      <use x="56.677734" xlink:href="#DejaVuSans-101"/>
      <use x="118.201172" xlink:href="#DejaVuSans-114"/>
      <use x="157.064453" xlink:href="#DejaVuSans-99"/>
      <use x="212.044922" xlink:href="#DejaVuSans-101"/>
      <use x="273.568359" xlink:href="#DejaVuSans-110"/>
      <use x="336.947266" xlink:href="#DejaVuSans-116"/>
      <use x="376.15625" xlink:href="#DejaVuSans-97"/>
      <use x="437.435547" xlink:href="#DejaVuSans-103"/>
      <use x="500.912109" xlink:href="#DejaVuSans-101"/>
     </g>
    </g>
   </g>
   <g id="line2d_10">
    <path clip-path="url(#pf479a8bb1e)" d="M 45.690625 353.2239 
L 55.087775 353.2239 
L 64.484925 353.2239 
L 73.882075 353.2239 
L 83.279225 353.2239 
L 92.676375 353.2239 
L 102.073525 353.2239 
L 111.470675 353.2239 
L 120.867825 353.2239 
L 130.264975 353.2239 
L 139.662125 353.2239 
L 149.059275 353.2239 
L 158.456425 353.2239 
L 167.853575 353.2239 
L 177.250725 353.2239 
L 186.647875 353.2239 
L 196.045025 353.2239 
L 205.442175 353.2239 
L 214.839325 353.2239 
L 224.236475 353.2239 
L 233.633625 353.2239 
L 243.030775 353.2239 
L 252.427925 353.2239 
L 261.825075 353.2239 
L 271.222225 353.2239 
L 280.619375 353.2239 
L 290.016525 352.159156 
L 299.413675 353.2239 
L 308.810825 351.094411 
L 318.207975 352.159156 
L 327.605125 351.094411 
L 337.002275 351.094411 
L 346.399425 346.835434 
L 355.796575 345.77069 
L 365.193725 353.2239 
L 374.590875 352.159156 
L 383.988025 352.159156 
L 393.385175 351.094411 
L 402.782325 349.231109 
L 412.179475 351.094411 
L 421.576625 345.238317 
L 430.973775 318.885895 
L 440.370925 269.375283 
L 449.768075 268.84291 
L 459.165225 305.310404 
L 468.562375 270.972399 
L 477.959525 295.993891 
L 487.356675 290.137797 
L 496.753825 290.137797 
L 506.150975 253.93649 
L 515.548125 248.346582 
L 524.945275 310.101754 
L 534.342425 304.511846 
L 543.739575 256.065978 
L 553.136725 212.677646 
L 562.533875 192.181317 
L 571.931025 215.073321 
L 581.328175 269.109096 
L 590.725325 317.022592 
L 600.122475 337.252735 
L 609.519625 344.705945 
L 618.916775 348.964923 
L 628.313925 347.900178 
L 637.711075 349.497295 
L 647.108225 350.295853 
L 656.505375 351.094411 
L 665.902525 353.2239 
L 675.299675 353.2239 
L 684.696825 353.2239 
L 694.093975 353.2239 
L 703.491125 353.2239 
L 712.888275 353.2239 
L 722.285425 353.2239 
L 731.682575 353.2239 
L 741.079725 353.2239 
L 750.476875 353.2239 
L 759.874025 353.2239 
L 769.271175 353.2239 
L 778.668325 353.2239 
L 788.065475 353.2239 
L 797.462625 353.2239 
L 806.859775 353.2239 
L 816.256925 353.2239 
L 825.654075 353.2239 
L 835.051225 353.2239 
L 844.448375 353.2239 
L 853.845525 353.2239 
L 863.242675 353.2239 
L 872.639825 353.2239 
L 882.036975 353.2239 
L 891.434125 353.2239 
L 900.831275 353.2239 
L 910.228425 353.2239 
L 919.625575 353.2239 
L 929.022725 353.2239 
L 938.419875 353.2239 
L 947.817025 353.2239 
L 957.214175 353.2239 
L 966.611325 353.2239 
L 976.008475 353.2239 
L 985.405625 353.2239 
" style="fill:none;stroke:#d9534f;stroke-linecap:square;"/>
   </g>
   <g id="line2d_11">
    <path clip-path="url(#pf479a8bb1e)" d="M 45.690625 353.2239 
L 55.087775 353.2239 
L 64.484925 353.2239 
L 73.882075 353.2239 
L 83.279225 353.2239 
L 92.676375 353.2239 
L 102.073525 353.2239 
L 111.470675 353.2239 
L 120.867825 353.2239 
L 130.264975 353.2239 
L 139.662125 353.2239 
L 149.059275 353.2239 
L 158.456425 353.2239 
L 167.853575 353.2239 
L 177.250725 353.2239 
L 186.647875 353.2239 
L 196.045025 353.2239 
L 205.442175 353.2239 
L 214.839325 353.2239 
L 224.236475 353.2239 
L 233.633625 353.2239 
L 243.030775 353.2239 
L 252.427925 353.2239 
L 261.825075 353.2239 
L 271.222225 353.2239 
L 280.619375 352.222979 
L 290.016525 353.2239 
L 299.413675 353.2239 
L 308.810825 353.2239 
L 318.207975 353.2239 
L 327.605125 353.2239 
L 337.002275 353.2239 
L 346.399425 353.2239 
L 355.796575 353.2239 
L 365.193725 353.2239 
L 374.590875 353.2239 
L 383.988025 352.222979 
L 393.385175 352.222979 
L 402.782325 353.2239 
L 412.179475 352.473209 
L 421.576625 351.472287 
L 430.973775 349.970905 
L 440.370925 209.841902 
L 449.768075 203.836373 
L 459.165225 327.700403 
L 468.562375 320.944183 
L 477.959525 313.937733 
L 487.356675 332.20455 
L 496.753825 327.199942 
L 506.150975 315.439115 
L 515.548125 302.927597 
L 524.945275 324.447408 
L 534.342425 290.165849 
L 543.739575 257.385671 
L 553.136725 135.023024 
L 562.533875 164.049746 
L 571.931025 144.031317 
L 581.328175 202.585222 
L 590.725325 324.197178 
L 600.122475 339.211 
L 609.519625 341.463073 
L 618.916775 348.219293 
L 628.313925 350.221136 
L 637.711075 351.722518 
L 647.108225 353.2239 
L 656.505375 353.2239 
L 665.902525 353.2239 
L 675.299675 353.2239 
L 684.696825 353.2239 
L 694.093975 353.2239 
L 703.491125 353.2239 
L 712.888275 353.2239 
L 722.285425 353.2239 
L 731.682575 353.2239 
L 741.079725 353.2239 
L 750.476875 353.2239 
L 759.874025 353.2239 
L 769.271175 353.2239 
L 778.668325 353.2239 
L 788.065475 353.2239 
L 797.462625 353.2239 
L 806.859775 353.2239 
L 816.256925 353.2239 
L 825.654075 353.2239 
L 835.051225 353.2239 
L 844.448375 353.2239 
L 853.845525 353.2239 
L 863.242675 353.2239 
L 872.639825 353.2239 
L 882.036975 353.2239 
L 891.434125 353.2239 
L 900.831275 353.2239 
L 910.228425 353.2239 
L 919.625575 353.2239 
L 929.022725 353.2239 
L 938.419875 353.2239 
L 947.817025 353.2239 
L 957.214175 353.2239 
L 966.611325 353.2239 
L 976.008475 353.2239 
L 985.405625 353.2239 
" style="fill:none;stroke:#d9534f;stroke-linecap:square;"/>
   </g>
   <g id="line2d_12">
    <path clip-path="url(#pf479a8bb1e)" d="M 45.690625 353.2239 
L 55.087775 353.2239 
L 64.484925 353.2239 
L 73.882075 353.2239 
L 83.279225 353.2239 
L 92.676375 353.2239 
L 102.073525 353.2239 
L 111.470675 353.2239 
L 120.867825 353.2239 
L 130.264975 353.2239 
L 139.662125 353.2239 
L 149.059275 353.2239 
L 158.456425 353.2239 
L 167.853575 353.2239 
L 177.250725 353.2239 
L 186.647875 353.2239 
L 196.045025 353.2239 
L 205.442175 353.2239 
L 214.839325 353.2239 
L 224.236475 353.2239 
L 233.633625 353.2239 
L 243.030775 353.2239 
L 252.427925 353.2239 
L 261.825075 353.2239 
L 271.222225 353.2239 
L 280.619375 353.2239 
L 290.016525 353.2239 
L 299.413675 353.2239 
L 308.810825 353.2239 
L 318.207975 349.063338 
L 327.605125 345.942917 
L 337.002275 350.103479 
L 346.399425 344.902777 
L 355.796575 343.862636 
L 365.193725 353.2239 
L 374.590875 352.18376 
L 383.988025 351.663689 
L 393.385175 350.623549 
L 402.782325 352.18376 
L 412.179475 350.103479 
L 421.576625 347.503128 
L 430.973775 329.820741 
L 440.370925 253.110386 
L 449.768075 291.595581 
L 459.165225 323.319863 
L 468.562375 297.316353 
L 477.959525 305.897511 
L 487.356675 296.536248 
L 496.753825 292.375686 
L 506.150975 265.072 
L 515.548125 282.234317 
L 524.945275 309.538003 
L 534.342425 288.99523 
L 543.739575 228.147016 
L 553.136725 159.237714 
L 562.533875 150.656555 
L 571.931025 209.944559 
L 581.328175 288.99523 
L 590.725325 319.939407 
L 600.122475 335.541513 
L 609.519625 338.661934 
L 618.916775 348.023198 
L 628.313925 353.2239 
L 637.711075 352.443795 
L 647.108225 353.2239 
L 656.505375 352.18376 
L 665.902525 352.18376 
L 675.299675 353.2239 
L 684.696825 353.2239 
L 694.093975 353.2239 
L 703.491125 353.2239 
L 712.888275 353.2239 
L 722.285425 353.2239 
L 731.682575 353.2239 
L 741.079725 353.2239 
L 750.476875 353.2239 
L 759.874025 353.2239 
L 769.271175 353.2239 
L 778.668325 353.2239 
L 788.065475 353.2239 
L 797.462625 353.2239 
L 806.859775 353.2239 
L 816.256925 353.2239 
L 825.654075 353.2239 
L 835.051225 353.2239 
L 844.448375 353.2239 
L 853.845525 353.2239 
L 863.242675 353.2239 
L 872.639825 353.2239 
L 882.036975 353.2239 
L 891.434125 353.2239 
L 900.831275 353.2239 
L 910.228425 353.2239 
L 919.625575 353.2239 
L 929.022725 353.2239 
L 938.419875 353.2239 
L 947.817025 353.2239 
L 957.214175 353.2239 
L 966.611325 353.2239 
L 976.008475 353.2239 
L 985.405625 353.2239 
" style="fill:none;stroke:#d9534f;stroke-linecap:square;"/>
   </g>
   <g id="line2d_13">
    <path clip-path="url(#pf479a8bb1e)" d="M 45.690625 353.2239 
L 55.087775 353.2239 
L 64.484925 353.2239 
L 73.882075 353.2239 
L 83.279225 353.2239 
L 92.676375 353.2239 
L 102.073525 353.2239 
L 111.470675 353.2239 
L 120.867825 353.2239 
L 130.264975 353.2239 
L 139.662125 353.2239 
L 149.059275 353.2239 
L 158.456425 353.2239 
L 167.853575 353.2239 
L 177.250725 353.2239 
L 186.647875 353.2239 
L 196.045025 353.2239 
L 205.442175 353.2239 
L 214.839325 353.2239 
L 224.236475 353.2239 
L 233.633625 353.2239 
L 243.030775 353.2239 
L 252.427925 353.2239 
L 261.825075 353.2239 
L 271.222225 353.2239 
L 280.619375 353.2239 
L 290.016525 353.2239 
L 299.413675 353.2239 
L 308.810825 353.2239 
L 318.207975 353.2239 
L 327.605125 353.2239 
L 337.002275 353.2239 
L 346.399425 352.189992 
L 355.796575 351.156084 
L 365.193725 353.2239 
L 374.590875 353.2239 
L 383.988025 351.673038 
L 393.385175 351.673038 
L 402.782325 353.2239 
L 412.179475 352.189992 
L 421.576625 352.189992 
L 430.973775 347.795884 
L 440.370925 286.795319 
L 449.768075 278.524056 
L 459.165225 326.342295 
L 468.562375 317.812555 
L 477.959525 315.227785 
L 487.356675 324.532956 
L 496.753825 314.969309 
L 506.150975 321.431233 
L 515.548125 322.723618 
L 524.945275 330.477927 
L 534.342425 273.612993 
L 543.739575 214.938721 
L 553.136725 91.903684 
L 562.533875 151.611864 
L 571.931025 136.103246 
L 581.328175 184.696916 
L 590.725325 303.596322 
L 600.122475 331.511835 
L 609.519625 347.27893 
L 618.916775 352.189992 
L 628.313925 352.189992 
L 637.711075 353.2239 
L 647.108225 353.2239 
L 656.505375 353.2239 
L 665.902525 353.2239 
L 675.299675 353.2239 
L 684.696825 353.2239 
L 694.093975 353.2239 
L 703.491125 353.2239 
L 712.888275 353.2239 
L 722.285425 353.2239 
L 731.682575 353.2239 
L 741.079725 353.2239 
L 750.476875 353.2239 
L 759.874025 353.2239 
L 769.271175 353.2239 
L 778.668325 353.2239 
L 788.065475 353.2239 
L 797.462625 353.2239 
L 806.859775 353.2239 
L 816.256925 353.2239 
L 825.654075 353.2239 
L 835.051225 353.2239 
L 844.448375 353.2239 
L 853.845525 353.2239 
L 863.242675 353.2239 
L 872.639825 353.2239 
L 882.036975 353.2239 
L 891.434125 353.2239 
L 900.831275 353.2239 
L 910.228425 353.2239 
L 919.625575 353.2239 
L 929.022725 353.2239 
L 938.419875 353.2239 
L 947.817025 353.2239 
L 957.214175 353.2239 
L 966.611325 353.2239 
L 976.008475 353.2239 
L 985.405625 353.2239 
" style="fill:none;stroke:#d9534f;stroke-linecap:square;"/>
   </g>
   <g id="line2d_14">
    <path clip-path="url(#pf479a8bb1e)" d="M 45.690625 353.2239 
L 55.087775 353.2239 
L 64.484925 353.2239 
L 73.882075 353.2239 
L 83.279225 353.2239 
L 92.676375 353.2239 
L 102.073525 353.2239 
L 111.470675 353.2239 
L 120.867825 353.2239 
L 130.264975 353.2239 
L 139.662125 353.2239 
L 149.059275 353.2239 
L 158.456425 353.2239 
L 167.853575 353.2239 
L 177.250725 353.2239 
L 186.647875 353.2239 
L 196.045025 353.2239 
L 205.442175 353.2239 
L 214.839325 353.2239 
L 224.236475 353.2239 
L 233.633625 353.2239 
L 243.030775 353.2239 
L 252.427925 353.2239 
L 261.825075 349.347633 
L 271.222225 350.316699 
L 280.619375 352.254833 
L 290.016525 353.2239 
L 299.413675 353.2239 
L 308.810825 351.285766 
L 318.207975 352.254833 
L 327.605125 350.316699 
L 337.002275 348.378566 
L 346.399425 351.285766 
L 355.796575 352.254833 
L 365.193725 351.285766 
L 374.590875 350.316699 
L 383.988025 347.409499 
L 393.385175 349.347633 
L 402.782325 350.316699 
L 412.179475 344.502298 
L 421.576625 346.440432 
L 430.973775 308.162291 
L 440.370925 274.971752 
L 449.768075 308.162291 
L 459.165225 329.966296 
L 468.562375 309.373625 
L 477.959525 298.471623 
L 487.356675 283.93562 
L 496.753825 245.899746 
L 506.150975 197.204137 
L 515.548125 178.065066 
L 524.945275 166.193997 
L 534.342425 203.987605 
L 543.739575 291.203621 
L 553.136725 272.791351 
L 562.533875 277.636685 
L 571.931025 305.739624 
L 581.328175 313.007626 
L 590.725325 328.997229 
L 600.122475 338.687897 
L 609.519625 347.409499 
L 618.916775 347.409499 
L 628.313925 348.378566 
L 637.711075 351.7703 
L 647.108225 352.254833 
L 656.505375 352.254833 
L 665.902525 353.2239 
L 675.299675 353.2239 
L 684.696825 353.2239 
L 694.093975 353.2239 
L 703.491125 353.2239 
L 712.888275 353.2239 
L 722.285425 353.2239 
L 731.682575 353.2239 
L 741.079725 353.2239 
L 750.476875 353.2239 
L 759.874025 353.2239 
L 769.271175 353.2239 
L 778.668325 353.2239 
L 788.065475 353.2239 
L 797.462625 353.2239 
L 806.859775 353.2239 
L 816.256925 353.2239 
L 825.654075 353.2239 
L 835.051225 353.2239 
L 844.448375 353.2239 
L 853.845525 353.2239 
L 863.242675 353.2239 
L 872.639825 353.2239 
L 882.036975 353.2239 
L 891.434125 353.2239 
L 900.831275 353.2239 
L 910.228425 353.2239 
L 919.625575 353.2239 
L 929.022725 353.2239 
L 938.419875 353.2239 
L 947.817025 353.2239 
L 957.214175 353.2239 
L 966.611325 353.2239 
L 976.008475 353.2239 
L 985.405625 353.2239 
" style="fill:none;stroke:#d9534f;stroke-linecap:square;"/>
   </g>
   <g id="line2d_15">
    <path clip-path="url(#pf479a8bb1e)" d="M 45.690625 353.2239 
L 55.087775 353.2239 
L 64.484925 353.2239 
L 73.882075 353.2239 
L 83.279225 353.2239 
L 92.676375 353.2239 
L 102.073525 353.2239 
L 111.470675 353.2239 
L 120.867825 353.2239 
L 130.264975 353.2239 
L 139.662125 353.2239 
L 149.059275 353.2239 
L 158.456425 353.2239 
L 167.853575 353.2239 
L 177.250725 353.2239 
L 186.647875 353.2239 
L 196.045025 353.2239 
L 205.442175 353.2239 
L 214.839325 353.2239 
L 224.236475 353.2239 
L 233.633625 353.2239 
L 243.030775 353.2239 
L 252.427925 353.2239 
L 261.825075 353.2239 
L 271.222225 353.2239 
L 280.619375 353.2239 
L 290.016525 353.2239 
L 299.413675 353.2239 
L 308.810825 353.2239 
L 318.207975 353.2239 
L 327.605125 352.160432 
L 337.002275 351.096963 
L 346.399425 353.2239 
L 355.796575 353.2239 
L 365.193725 353.2239 
L 374.590875 353.2239 
L 383.988025 353.2239 
L 393.385175 352.160432 
L 402.782325 353.2239 
L 412.179475 352.160432 
L 421.576625 351.36283 
L 430.973775 345.779622 
L 440.370925 272.13444 
L 449.768075 255.384813 
L 459.165225 317.331844 
L 468.562375 309.089964 
L 477.959525 283.832591 
L 487.356675 289.149933 
L 496.753825 305.633692 
L 506.150975 306.69716 
L 515.548125 270.805104 
L 524.945275 276.388313 
L 534.342425 273.995509 
L 543.739575 241.825592 
L 553.136725 139.466765 
L 562.533875 166.053474 
L 571.931025 213.111947 
L 581.328175 252.460276 
L 590.725325 320.788116 
L 600.122475 335.410805 
L 609.519625 347.906558 
L 618.916775 351.096963 
L 628.313925 351.628698 
L 637.711075 352.426299 
L 647.108225 353.2239 
L 656.505375 353.2239 
L 665.902525 353.2239 
L 675.299675 353.2239 
L 684.696825 353.2239 
L 694.093975 353.2239 
L 703.491125 353.2239 
L 712.888275 353.2239 
L 722.285425 353.2239 
L 731.682575 353.2239 
L 741.079725 353.2239 
L 750.476875 353.2239 
L 759.874025 353.2239 
L 769.271175 353.2239 
L 778.668325 353.2239 
L 788.065475 353.2239 
L 797.462625 353.2239 
L 806.859775 353.2239 
L 816.256925 353.2239 
L 825.654075 353.2239 
L 835.051225 353.2239 
L 844.448375 353.2239 
L 853.845525 353.2239 
L 863.242675 353.2239 
L 872.639825 353.2239 
L 882.036975 353.2239 
L 891.434125 353.2239 
L 900.831275 353.2239 
L 910.228425 353.2239 
L 919.625575 353.2239 
L 929.022725 353.2239 
L 938.419875 353.2239 
L 947.817025 353.2239 
L 957.214175 353.2239 
L 966.611325 353.2239 
L 976.008475 353.2239 
L 985.405625 353.2239 
" style="fill:none;stroke:#d9534f;stroke-linecap:square;"/>
   </g>
   <g id="line2d_16">
    <path clip-path="url(#pf479a8bb1e)" d="M 45.690625 353.2239 
L 55.087775 353.2239 
L 64.484925 353.2239 
L 73.882075 353.2239 
L 83.279225 353.2239 
L 92.676375 353.2239 
L 102.073525 353.2239 
L 111.470675 353.2239 
L 120.867825 353.2239 
L 130.264975 353.2239 
L 139.662125 353.2239 
L 149.059275 353.2239 
L 158.456425 353.2239 
L 167.853575 353.2239 
L 177.250725 353.2239 
L 186.647875 353.2239 
L 196.045025 353.2239 
L 205.442175 353.2239 
L 214.839325 353.2239 
L 224.236475 353.2239 
L 233.633625 353.2239 
L 243.030775 353.2239 
L 252.427925 353.2239 
L 261.825075 350.161929 
L 271.222225 351.182586 
L 280.619375 353.2239 
L 290.016525 352.203243 
L 299.413675 353.2239 
L 308.810825 352.203243 
L 318.207975 352.203243 
L 327.605125 349.141272 
L 337.002275 350.161929 
L 346.399425 353.2239 
L 355.796575 353.2239 
L 365.193725 352.203243 
L 374.590875 352.203243 
L 383.988025 351.182586 
L 393.385175 352.203243 
L 402.782325 353.2239 
L 412.179475 350.417093 
L 421.576625 350.672257 
L 430.973775 312.907948 
L 440.370925 281.77791 
L 449.768075 303.211707 
L 459.165225 312.142456 
L 468.562375 298.873915 
L 477.959525 301.680721 
L 487.356675 265.702562 
L 496.753825 223.090132 
L 506.150975 179.712209 
L 515.548125 209.056098 
L 524.945275 180.222538 
L 534.342425 215.945533 
L 543.739575 281.267581 
L 553.136725 279.736596 
L 562.533875 270.805847 
L 571.931025 300.149736 
L 581.328175 311.376963 
L 590.725325 330.769446 
L 600.122475 344.037987 
L 609.519625 345.058644 
L 618.916775 348.120615 
L 628.313925 349.141272 
L 637.711075 352.203243 
L 647.108225 353.2239 
L 656.505375 353.2239 
L 665.902525 353.2239 
L 675.299675 353.2239 
L 684.696825 353.2239 
L 694.093975 353.2239 
L 703.491125 353.2239 
L 712.888275 353.2239 
L 722.285425 353.2239 
L 731.682575 353.2239 
L 741.079725 353.2239 
L 750.476875 353.2239 
L 759.874025 353.2239 
L 769.271175 353.2239 
L 778.668325 353.2239 
L 788.065475 353.2239 
L 797.462625 353.2239 
L 806.859775 353.2239 
L 816.256925 353.2239 
L 825.654075 353.2239 
L 835.051225 353.2239 
L 844.448375 353.2239 
L 853.845525 353.2239 
L 863.242675 353.2239 
L 872.639825 353.2239 
L 882.036975 353.2239 
L 891.434125 353.2239 
L 900.831275 353.2239 
L 910.228425 353.2239 
L 919.625575 353.2239 
L 929.022725 353.2239 
L 938.419875 353.2239 
L 947.817025 353.2239 
L 957.214175 353.2239 
L 966.611325 353.2239 
L 976.008475 353.2239 
L 985.405625 353.2239 
" style="fill:none;stroke:#d9534f;stroke-linecap:square;"/>
   </g>
   <g id="line2d_17">
    <path clip-path="url(#pf479a8bb1e)" d="M 45.690625 353.2239 
L 55.087775 353.2239 
L 64.484925 353.2239 
L 73.882075 353.2239 
L 83.279225 353.2239 
L 92.676375 353.2239 
L 102.073525 353.2239 
L 111.470675 353.2239 
L 120.867825 353.2239 
L 130.264975 353.2239 
L 139.662125 353.2239 
L 149.059275 353.2239 
L 158.456425 353.2239 
L 167.853575 353.2239 
L 177.250725 353.2239 
L 186.647875 353.2239 
L 196.045025 353.2239 
L 205.442175 353.2239 
L 214.839325 353.2239 
L 224.236475 353.2239 
L 233.633625 353.2239 
L 243.030775 353.2239 
L 252.427925 353.2239 
L 261.825075 353.2239 
L 271.222225 353.2239 
L 280.619375 353.2239 
L 290.016525 353.2239 
L 299.413675 353.2239 
L 308.810825 352.210734 
L 318.207975 352.210734 
L 327.605125 353.2239 
L 337.002275 353.2239 
L 346.399425 352.210734 
L 355.796575 352.210734 
L 365.193725 353.2239 
L 374.590875 353.2239 
L 383.988025 353.2239 
L 393.385175 353.2239 
L 402.782325 353.2239 
L 412.179475 352.464026 
L 421.576625 352.464026 
L 430.973775 349.171237 
L 440.370925 258.492913 
L 449.768075 240.00264 
L 459.165225 315.990063 
L 468.562375 314.470314 
L 477.959525 294.713584 
L 487.356675 286.354968 
L 496.753825 294.207002 
L 506.150975 309.657778 
L 515.548125 292.433962 
L 524.945275 295.72675 
L 534.342425 281.28914 
L 543.739575 241.269097 
L 553.136725 117.409598 
L 562.533875 164.5218 
L 571.931025 219.739327 
L 581.328175 253.933667 
L 590.725325 321.815765 
L 600.122475 338.026415 
L 609.519625 349.171237 
L 618.916775 341.572495 
L 628.313925 345.625158 
L 637.711075 351.197569 
L 647.108225 353.2239 
L 656.505375 353.2239 
L 665.902525 353.2239 
L 675.299675 353.2239 
L 684.696825 353.2239 
L 694.093975 353.2239 
L 703.491125 353.2239 
L 712.888275 353.2239 
L 722.285425 353.2239 
L 731.682575 353.2239 
L 741.079725 353.2239 
L 750.476875 353.2239 
L 759.874025 353.2239 
L 769.271175 353.2239 
L 778.668325 353.2239 
L 788.065475 353.2239 
L 797.462625 353.2239 
L 806.859775 353.2239 
L 816.256925 353.2239 
L 825.654075 353.2239 
L 835.051225 353.2239 
L 844.448375 353.2239 
L 853.845525 353.2239 
L 863.242675 353.2239 
L 872.639825 353.2239 
L 882.036975 353.2239 
L 891.434125 353.2239 
L 900.831275 353.2239 
L 910.228425 353.2239 
L 919.625575 353.2239 
L 929.022725 353.2239 
L 938.419875 353.2239 
L 947.817025 353.2239 
L 957.214175 353.2239 
L 966.611325 353.2239 
L 976.008475 353.2239 
L 985.405625 353.2239 
" style="fill:none;stroke:#d9534f;stroke-linecap:square;"/>
   </g>
   <g id="line2d_18">
    <path clip-path="url(#pf479a8bb1e)" d="M 45.690625 353.2239 
L 55.087775 353.2239 
L 64.484925 353.2239 
L 73.882075 353.2239 
L 83.279225 353.2239 
L 92.676375 353.2239 
L 102.073525 353.2239 
L 111.470675 353.2239 
L 120.867825 353.2239 
L 130.264975 353.2239 
L 139.662125 353.2239 
L 149.059275 353.2239 
L 158.456425 353.2239 
L 167.853575 353.2239 
L 177.250725 353.2239 
L 186.647875 353.2239 
L 196.045025 353.2239 
L 205.442175 353.2239 
L 214.839325 353.2239 
L 224.236475 353.2239 
L 233.633625 353.2239 
L 243.030775 353.2239 
L 252.427925 353.2239 
L 261.825075 353.2239 
L 271.222225 353.2239 
L 280.619375 353.2239 
L 290.016525 351.168401 
L 299.413675 351.168401 
L 308.810825 350.140651 
L 318.207975 352.19615 
L 327.605125 352.19615 
L 337.002275 353.2239 
L 346.399425 352.19615 
L 355.796575 352.19615 
L 365.193725 353.2239 
L 374.590875 353.2239 
L 383.988025 351.168401 
L 393.385175 351.168401 
L 402.782325 352.19615 
L 412.179475 346.543528 
L 421.576625 345.258841 
L 430.973775 280.767554 
L 440.370925 246.081005 
L 449.768075 306.718231 
L 459.165225 307.232106 
L 468.562375 305.433544 
L 477.959525 313.398603 
L 487.356675 304.662732 
L 496.753825 292.072799 
L 506.150975 283.336928 
L 515.548125 267.406809 
L 524.945275 263.552748 
L 534.342425 291.815862 
L 543.739575 278.712055 
L 553.136725 189.29784 
L 562.533875 194.179651 
L 571.931025 230.150886 
L 581.328175 252.50444 
L 590.725325 308.002918 
L 600.122475 308.002918 
L 609.519625 332.668908 
L 618.916775 348.085152 
L 628.313925 353.2239 
L 637.711075 350.397589 
L 647.108225 351.168401 
L 656.505375 351.425338 
L 665.902525 353.2239 
L 675.299675 353.2239 
L 684.696825 353.2239 
L 694.093975 353.2239 
L 703.491125 353.2239 
L 712.888275 353.2239 
L 722.285425 352.453088 
L 731.682575 352.453088 
L 741.079725 353.2239 
L 750.476875 353.2239 
L 759.874025 353.2239 
L 769.271175 353.2239 
L 778.668325 353.2239 
L 788.065475 353.2239 
L 797.462625 353.2239 
L 806.859775 353.2239 
L 816.256925 353.2239 
L 825.654075 353.2239 
L 835.051225 353.2239 
L 844.448375 353.2239 
L 853.845525 353.2239 
L 863.242675 353.2239 
L 872.639825 353.2239 
L 882.036975 353.2239 
L 891.434125 353.2239 
L 900.831275 353.2239 
L 910.228425 353.2239 
L 919.625575 353.2239 
L 929.022725 353.2239 
L 938.419875 353.2239 
L 947.817025 353.2239 
L 957.214175 353.2239 
L 966.611325 353.2239 
L 976.008475 353.2239 
L 985.405625 353.2239 
" style="fill:none;stroke:#d9534f;stroke-linecap:square;"/>
   </g>
   <g id="line2d_19">
    <path clip-path="url(#pf479a8bb1e)" d="M 45.690625 353.2239 
L 55.087775 353.2239 
L 64.484925 353.2239 
L 73.882075 353.2239 
L 83.279225 353.2239 
L 92.676375 353.2239 
L 102.073525 353.2239 
L 111.470675 353.2239 
L 120.867825 353.2239 
L 130.264975 353.2239 
L 139.662125 353.2239 
L 149.059275 353.2239 
L 158.456425 353.2239 
L 167.853575 353.2239 
L 177.250725 353.2239 
L 186.647875 353.2239 
L 196.045025 353.2239 
L 205.442175 353.2239 
L 214.839325 353.2239 
L 224.236475 353.2239 
L 233.633625 353.2239 
L 243.030775 353.2239 
L 252.427925 353.2239 
L 261.825075 353.2239 
L 271.222225 353.2239 
L 280.619375 353.2239 
L 290.016525 353.2239 
L 299.413675 353.2239 
L 308.810825 353.2239 
L 318.207975 353.2239 
L 327.605125 353.2239 
L 337.002275 352.146038 
L 346.399425 351.068176 
L 355.796575 352.146038 
L 365.193725 353.2239 
L 374.590875 351.068176 
L 383.988025 350.25978 
L 393.385175 353.2239 
L 402.782325 351.068176 
L 412.179475 351.068176 
L 421.576625 351.068176 
L 430.973775 346.756728 
L 440.370925 207.712534 
L 449.768075 196.933914 
L 459.165225 324.660558 
L 468.562375 305.259042 
L 477.959525 311.99568 
L 487.356675 301.21706 
L 496.753825 307.145301 
L 506.150975 306.067439 
L 515.548125 318.193386 
L 524.945275 315.498731 
L 534.342425 293.941492 
L 543.739575 284.240734 
L 553.136725 108.549233 
L 562.533875 143.040816 
L 571.931025 200.1675 
L 581.328175 268.072804 
L 590.725325 311.726214 
L 600.122475 333.283454 
L 609.519625 349.990314 
L 618.916775 351.068176 
L 628.313925 352.146038 
L 637.711075 351.607107 
L 647.108225 353.2239 
L 656.505375 352.146038 
L 665.902525 352.146038 
L 675.299675 353.2239 
L 684.696825 353.2239 
L 694.093975 353.2239 
L 703.491125 353.2239 
L 712.888275 353.2239 
L 722.285425 353.2239 
L 731.682575 353.2239 
L 741.079725 353.2239 
L 750.476875 353.2239 
L 759.874025 353.2239 
L 769.271175 353.2239 
L 778.668325 353.2239 
L 788.065475 353.2239 
L 797.462625 353.2239 
L 806.859775 353.2239 
L 816.256925 353.2239 
L 825.654075 353.2239 
L 835.051225 353.2239 
L 844.448375 353.2239 
L 853.845525 353.2239 
L 863.242675 353.2239 
L 872.639825 353.2239 
L 882.036975 353.2239 
L 891.434125 353.2239 
L 900.831275 353.2239 
L 910.228425 353.2239 
L 919.625575 353.2239 
L 929.022725 353.2239 
L 938.419875 353.2239 
L 947.817025 353.2239 
L 957.214175 353.2239 
L 966.611325 353.2239 
L 976.008475 353.2239 
L 985.405625 353.2239 
" style="fill:none;stroke:#d9534f;stroke-linecap:square;"/>
   </g>
   <g id="line2d_20">
    <path clip-path="url(#pf479a8bb1e)" d="M 45.690625 353.2239 
L 55.087775 353.2239 
L 64.484925 353.2239 
L 73.882075 353.2239 
L 83.279225 353.2239 
L 92.676375 353.2239 
L 102.073525 353.2239 
L 111.470675 353.2239 
L 120.867825 353.2239 
L 130.264975 353.2239 
L 139.662125 353.2239 
L 149.059275 353.2239 
L 158.456425 353.2239 
L 167.853575 353.2239 
L 177.250725 353.2239 
L 186.647875 353.2239 
L 196.045025 353.2239 
L 205.442175 353.2239 
L 214.839325 353.2239 
L 224.236475 353.2239 
L 233.633625 353.2239 
L 243.030775 353.2239 
L 252.427925 349.31039 
L 261.825075 349.31039 
L 271.222225 353.2239 
L 280.619375 353.2239 
L 290.016525 348.332013 
L 299.413675 353.2239 
L 308.810825 353.2239 
L 318.207975 348.332013 
L 327.605125 347.353635 
L 337.002275 351.267145 
L 346.399425 351.267145 
L 355.796575 351.267145 
L 365.193725 349.799579 
L 374.590875 349.31039 
L 383.988025 343.440125 
L 393.385175 343.440125 
L 402.782325 348.332013 
L 412.179475 346.864446 
L 421.576625 343.440125 
L 430.973775 271.529382 
L 440.370925 245.11319 
L 449.768075 302.592866 
L 459.165225 240.221303 
L 468.562375 186.899731 
L 477.959525 264.925334 
L 487.356675 311.153669 
L 496.753825 302.837461 
L 506.150975 263.213173 
L 515.548125 263.457768 
L 524.945275 280.090184 
L 534.342425 299.413139 
L 543.739575 281.068562 
L 553.136725 242.178058 
L 562.533875 253.184804 
L 571.931025 285.715855 
L 581.328175 301.859083 
L 590.725325 328.764463 
L 600.122475 336.836077 
L 609.519625 345.39688 
L 618.916775 350.288768 
L 628.313925 346.375258 
L 637.711075 347.842824 
L 647.108225 352.245523 
L 656.505375 353.2239 
L 665.902525 353.2239 
L 675.299675 353.2239 
L 684.696825 353.2239 
L 694.093975 353.2239 
L 703.491125 353.2239 
L 712.888275 353.2239 
L 722.285425 353.2239 
L 731.682575 353.2239 
L 741.079725 352.490117 
L 750.476875 352.490117 
L 759.874025 353.2239 
L 769.271175 353.2239 
L 778.668325 353.2239 
L 788.065475 353.2239 
L 797.462625 353.2239 
L 806.859775 353.2239 
L 816.256925 353.2239 
L 825.654075 353.2239 
L 835.051225 353.2239 
L 844.448375 353.2239 
L 853.845525 353.2239 
L 863.242675 353.2239 
L 872.639825 353.2239 
L 882.036975 353.2239 
L 891.434125 353.2239 
L 900.831275 353.2239 
L 910.228425 353.2239 
L 919.625575 353.2239 
L 929.022725 353.2239 
L 938.419875 353.2239 
L 947.817025 353.2239 
L 957.214175 353.2239 
L 966.611325 353.2239 
L 976.008475 353.2239 
L 985.405625 353.2239 
" style="fill:none;stroke:#d9534f;stroke-linecap:square;"/>
   </g>
   <g id="line2d_21">
    <path clip-path="url(#pf479a8bb1e)" d="M 45.690625 353.2239 
L 55.087775 353.2239 
L 64.484925 353.2239 
L 73.882075 353.2239 
L 83.279225 353.2239 
L 92.676375 353.2239 
L 102.073525 353.2239 
L 111.470675 353.2239 
L 120.867825 353.2239 
L 130.264975 353.2239 
L 139.662125 353.2239 
L 149.059275 353.2239 
L 158.456425 353.2239 
L 167.853575 353.2239 
L 177.250725 353.2239 
L 186.647875 353.2239 
L 196.045025 353.2239 
L 205.442175 353.2239 
L 214.839325 353.2239 
L 224.236475 353.2239 
L 233.633625 353.2239 
L 243.030775 353.2239 
L 252.427925 353.2239 
L 261.825075 353.2239 
L 271.222225 353.2239 
L 280.619375 353.2239 
L 290.016525 353.2239 
L 299.413675 353.2239 
L 308.810825 353.2239 
L 318.207975 353.2239 
L 327.605125 353.2239 
L 337.002275 353.2239 
L 346.399425 350.054117 
L 355.796575 352.167306 
L 365.193725 353.2239 
L 374.590875 353.2239 
L 383.988025 353.2239 
L 393.385175 353.2239 
L 402.782325 353.2239 
L 412.179475 353.2239 
L 421.576625 351.37486 
L 430.973775 341.601362 
L 440.370925 202.1309 
L 449.768075 199.225265 
L 459.165225 330.242972 
L 468.562375 298.545139 
L 477.959525 301.714923 
L 487.356675 280.583034 
L 496.753825 300.922477 
L 506.150975 301.186625 
L 515.548125 309.639381 
L 524.945275 315.714798 
L 534.342425 283.488669 
L 543.739575 281.639629 
L 553.136725 134.508857 
L 562.533875 173.866999 
L 571.931025 215.866627 
L 581.328175 246.772013 
L 590.725325 311.488421 
L 600.122475 341.601362 
L 609.519625 352.167306 
L 618.916775 352.167306 
L 628.313925 353.2239 
L 637.711075 351.110711 
L 647.108225 351.110711 
L 656.505375 353.2239 
L 665.902525 353.2239 
L 675.299675 353.2239 
L 684.696825 353.2239 
L 694.093975 353.2239 
L 703.491125 353.2239 
L 712.888275 353.2239 
L 722.285425 353.2239 
L 731.682575 353.2239 
L 741.079725 353.2239 
L 750.476875 353.2239 
L 759.874025 353.2239 
L 769.271175 353.2239 
L 778.668325 353.2239 
L 788.065475 353.2239 
L 797.462625 353.2239 
L 806.859775 353.2239 
L 816.256925 353.2239 
L 825.654075 353.2239 
L 835.051225 353.2239 
L 844.448375 353.2239 
L 853.845525 353.2239 
L 863.242675 353.2239 
L 872.639825 353.2239 
L 882.036975 353.2239 
L 891.434125 353.2239 
L 900.831275 353.2239 
L 910.228425 353.2239 
L 919.625575 353.2239 
L 929.022725 353.2239 
L 938.419875 353.2239 
L 947.817025 353.2239 
L 957.214175 353.2239 
L 966.611325 353.2239 
L 976.008475 353.2239 
L 985.405625 353.2239 
" style="fill:none;stroke:#d9534f;stroke-linecap:square;"/>
   </g>
   <g id="line2d_22">
    <path clip-path="url(#pf479a8bb1e)" d="M 45.690625 353.2239 
L 55.087775 353.2239 
L 64.484925 353.2239 
L 73.882075 353.2239 
L 83.279225 353.2239 
L 92.676375 353.2239 
L 102.073525 353.2239 
L 111.470675 353.2239 
L 120.867825 353.2239 
L 130.264975 353.2239 
L 139.662125 353.2239 
L 149.059275 353.2239 
L 158.456425 353.2239 
L 167.853575 353.2239 
L 177.250725 353.2239 
L 186.647875 353.2239 
L 196.045025 353.2239 
L 205.442175 353.2239 
L 214.839325 352.222656 
L 224.236475 352.222656 
L 233.633625 353.2239 
L 243.030775 352.222656 
L 252.427925 348.217679 
L 261.825075 347.216435 
L 271.222225 353.2239 
L 280.619375 353.2239 
L 290.016525 351.221412 
L 299.413675 353.2239 
L 308.810825 353.2239 
L 318.207975 351.221412 
L 327.605125 351.221412 
L 337.002275 353.2239 
L 346.399425 352.222656 
L 355.796575 351.221412 
L 365.193725 350.220168 
L 374.590875 351.221412 
L 383.988025 338.455549 
L 393.385175 337.203994 
L 402.782325 353.2239 
L 412.179475 348.217679 
L 421.576625 348.718301 
L 430.973775 325.439376 
L 440.370925 293.149253 
L 449.768075 312.423202 
L 459.165225 206.791947 
L 468.562375 133.951437 
L 477.959525 264.864106 
L 487.356675 303.912627 
L 496.753825 302.661072 
L 506.150975 267.367217 
L 515.548125 271.372193 
L 524.945275 277.129347 
L 534.342425 308.167915 
L 543.739575 298.405784 
L 553.136725 249.094511 
L 562.533875 237.079582 
L 571.931025 248.093267 
L 581.328175 285.1393 
L 590.725325 333.199018 
L 600.122475 332.197773 
L 609.519625 343.211459 
L 618.916775 352.222656 
L 628.313925 351.221412 
L 637.711075 347.466746 
L 647.108225 350.220168 
L 656.505375 352.222656 
L 665.902525 353.2239 
L 675.299675 353.2239 
L 684.696825 353.2239 
L 694.093975 353.2239 
L 703.491125 353.2239 
L 712.888275 353.2239 
L 722.285425 353.2239 
L 731.682575 353.2239 
L 741.079725 352.222656 
L 750.476875 353.2239 
L 759.874025 353.2239 
L 769.271175 353.2239 
L 778.668325 353.2239 
L 788.065475 353.2239 
L 797.462625 353.2239 
L 806.859775 353.2239 
L 816.256925 353.2239 
L 825.654075 353.2239 
L 835.051225 353.2239 
L 844.448375 353.2239 
L 853.845525 353.2239 
L 863.242675 353.2239 
L 872.639825 353.2239 
L 882.036975 353.2239 
L 891.434125 353.2239 
L 900.831275 353.2239 
L 910.228425 353.2239 
L 919.625575 353.2239 
L 929.022725 353.2239 
L 938.419875 353.2239 
L 947.817025 353.2239 
L 957.214175 353.2239 
L 966.611325 353.2239 
L 976.008475 353.2239 
L 985.405625 353.2239 
" style="fill:none;stroke:#d9534f;stroke-linecap:square;"/>
   </g>
   <g id="line2d_23">
    <path clip-path="url(#pf479a8bb1e)" d="M 45.690625 353.2239 
L 55.087775 353.2239 
L 64.484925 353.2239 
L 73.882075 353.2239 
L 83.279225 353.2239 
L 92.676375 353.2239 
L 102.073525 353.2239 
L 111.470675 353.2239 
L 120.867825 353.2239 
L 130.264975 353.2239 
L 139.662125 353.2239 
L 149.059275 353.2239 
L 158.456425 353.2239 
L 167.853575 353.2239 
L 177.250725 353.2239 
L 186.647875 353.2239 
L 196.045025 353.2239 
L 205.442175 353.2239 
L 214.839325 353.2239 
L 224.236475 353.2239 
L 233.633625 353.2239 
L 243.030775 353.2239 
L 252.427925 353.2239 
L 261.825075 353.2239 
L 271.222225 353.2239 
L 280.619375 353.2239 
L 290.016525 353.2239 
L 299.413675 353.2239 
L 308.810825 353.2239 
L 318.207975 353.2239 
L 327.605125 353.2239 
L 337.002275 353.2239 
L 346.399425 353.2239 
L 355.796575 353.2239 
L 365.193725 353.2239 
L 374.590875 350.030214 
L 383.988025 351.094776 
L 393.385175 352.159338 
L 402.782325 352.159338 
L 412.179475 351.360917 
L 421.576625 351.627057 
L 430.973775 348.167231 
L 440.370925 218.024542 
L 449.768075 218.024542 
L 459.165225 334.594067 
L 468.562375 298.132823 
L 477.959525 316.496515 
L 487.356675 296.53598 
L 496.753825 303.189492 
L 506.150975 295.737559 
L 515.548125 305.850897 
L 524.945275 315.165813 
L 534.342425 289.350188 
L 543.739575 276.575445 
L 553.136725 141.642228 
L 562.533875 139.246964 
L 571.931025 213.766295 
L 581.328175 228.670161 
L 590.725325 298.931244 
L 600.122475 337.255472 
L 609.519625 351.094776 
L 618.916775 353.2239 
L 628.313925 352.159338 
L 637.711075 352.159338 
L 647.108225 353.2239 
L 656.505375 353.2239 
L 665.902525 353.2239 
L 675.299675 353.2239 
L 684.696825 353.2239 
L 694.093975 353.2239 
L 703.491125 353.2239 
L 712.888275 353.2239 
L 722.285425 353.2239 
L 731.682575 352.425479 
L 741.079725 353.2239 
L 750.476875 353.2239 
L 759.874025 353.2239 
L 769.271175 353.2239 
L 778.668325 353.2239 
L 788.065475 353.2239 
L 797.462625 353.2239 
L 806.859775 353.2239 
L 816.256925 353.2239 
L 825.654075 353.2239 
L 835.051225 353.2239 
L 844.448375 353.2239 
L 853.845525 353.2239 
L 863.242675 353.2239 
L 872.639825 353.2239 
L 882.036975 353.2239 
L 891.434125 353.2239 
L 900.831275 353.2239 
L 910.228425 353.2239 
L 919.625575 353.2239 
L 929.022725 353.2239 
L 938.419875 353.2239 
L 947.817025 353.2239 
L 957.214175 353.2239 
L 966.611325 353.2239 
L 976.008475 353.2239 
L 985.405625 352.159338 
" style="fill:none;stroke:#d9534f;stroke-linecap:square;"/>
   </g>
   <g id="line2d_24">
    <path clip-path="url(#pf479a8bb1e)" d="M 45.690625 353.2239 
L 55.087775 353.2239 
L 64.484925 353.2239 
L 73.882075 353.2239 
L 83.279225 353.2239 
L 92.676375 353.2239 
L 102.073525 353.2239 
L 111.470675 353.2239 
L 120.867825 353.2239 
L 130.264975 353.2239 
L 139.662125 353.2239 
L 149.059275 353.2239 
L 158.456425 353.2239 
L 167.853575 353.2239 
L 177.250725 353.2239 
L 186.647875 353.2239 
L 196.045025 353.2239 
L 205.442175 353.2239 
L 214.839325 353.2239 
L 224.236475 353.2239 
L 233.633625 353.2239 
L 243.030775 353.2239 
L 252.427925 351.181579 
L 261.825075 350.160419 
L 271.222225 353.2239 
L 280.619375 351.181579 
L 290.016525 348.118098 
L 299.413675 351.181579 
L 308.810825 352.20274 
L 318.207975 353.2239 
L 327.605125 352.20274 
L 337.002275 351.181579 
L 346.399425 353.2239 
L 355.796575 352.20274 
L 365.193725 353.2239 
L 374.590875 351.181579 
L 383.988025 349.139259 
L 393.385175 350.160419 
L 402.782325 351.181579 
L 412.179475 351.181579 
L 421.576625 348.373388 
L 430.973775 288.635507 
L 440.370925 244.980901 
L 449.768075 306.505813 
L 459.165225 297.31537 
L 468.562375 276.636872 
L 477.959525 291.443698 
L 487.356675 304.463492 
L 496.753825 296.549499 
L 506.150975 271.02049 
L 515.548125 236.811618 
L 524.945275 258.511276 
L 534.342425 310.590455 
L 543.739575 288.890797 
L 553.136725 216.38841 
L 562.533875 186.77476 
L 571.931025 228.642335 
L 581.328175 265.914688 
L 590.725325 310.335164 
L 600.122475 336.885334 
L 609.519625 345.054617 
L 618.916775 348.118098 
L 628.313925 350.160419 
L 637.711075 350.926289 
L 647.108225 353.2239 
L 656.505375 353.2239 
L 665.902525 353.2239 
L 675.299675 353.2239 
L 684.696825 351.436869 
L 694.093975 352.20274 
L 703.491125 353.2239 
L 712.888275 353.2239 
L 722.285425 353.2239 
L 731.682575 353.2239 
L 741.079725 353.2239 
L 750.476875 353.2239 
L 759.874025 353.2239 
L 769.271175 353.2239 
L 778.668325 353.2239 
L 788.065475 353.2239 
L 797.462625 353.2239 
L 806.859775 353.2239 
L 816.256925 353.2239 
L 825.654075 353.2239 
L 835.051225 353.2239 
L 844.448375 353.2239 
L 853.845525 353.2239 
L 863.242675 353.2239 
L 872.639825 353.2239 
L 882.036975 353.2239 
L 891.434125 353.2239 
L 900.831275 353.2239 
L 910.228425 353.2239 
L 919.625575 353.2239 
L 929.022725 353.2239 
L 938.419875 353.2239 
L 947.817025 353.2239 
L 957.214175 353.2239 
L 966.611325 353.2239 
L 976.008475 353.2239 
L 985.405625 353.2239 
" style="fill:none;stroke:#d9534f;stroke-linecap:square;"/>
   </g>
   <g id="line2d_25">
    <path clip-path="url(#pf479a8bb1e)" d="M 45.690625 353.2239 
L 55.087775 353.2239 
L 64.484925 353.2239 
L 73.882075 353.2239 
L 83.279225 353.2239 
L 92.676375 353.2239 
L 102.073525 353.2239 
L 111.470675 353.2239 
L 120.867825 353.2239 
L 130.264975 353.2239 
L 139.662125 353.2239 
L 149.059275 353.2239 
L 158.456425 353.2239 
L 167.853575 353.2239 
L 177.250725 353.2239 
L 186.647875 353.2239 
L 196.045025 353.2239 
L 205.442175 353.2239 
L 214.839325 353.2239 
L 224.236475 353.2239 
L 233.633625 353.2239 
L 243.030775 353.2239 
L 252.427925 353.2239 
L 261.825075 353.2239 
L 271.222225 353.2239 
L 280.619375 353.2239 
L 290.016525 353.2239 
L 299.413675 353.2239 
L 308.810825 353.2239 
L 318.207975 353.2239 
L 327.605125 352.146225 
L 337.002275 353.2239 
L 346.399425 353.2239 
L 355.796575 353.2239 
L 365.193725 353.2239 
L 374.590875 352.146225 
L 383.988025 352.146225 
L 393.385175 353.2239 
L 402.782325 353.2239 
L 412.179475 353.2239 
L 421.576625 352.146225 
L 430.973775 348.9132 
L 440.370925 249.497684 
L 449.768075 239.798609 
L 459.165225 327.359701 
L 468.562375 325.47377 
L 477.959525 330.323307 
L 487.356675 324.934932 
L 496.753825 307.422714 
L 506.150975 301.495501 
L 515.548125 317.930045 
L 524.945275 320.893651 
L 534.342425 290.718752 
L 543.739575 279.942002 
L 553.136725 109.938775 
L 562.533875 50.397233 
L 571.931025 160.32008 
L 581.328175 236.835003 
L 590.725325 315.505276 
L 600.122475 340.2918 
L 609.519625 347.835525 
L 618.916775 348.9132 
L 628.313925 352.146225 
L 637.711075 353.2239 
L 647.108225 353.2239 
L 656.505375 352.146225 
L 665.902525 353.2239 
L 675.299675 353.2239 
L 684.696825 351.337969 
L 694.093975 353.2239 
L 703.491125 353.2239 
L 712.888275 353.2239 
L 722.285425 353.2239 
L 731.682575 353.2239 
L 741.079725 353.2239 
L 750.476875 353.2239 
L 759.874025 353.2239 
L 769.271175 353.2239 
L 778.668325 353.2239 
L 788.065475 353.2239 
L 797.462625 353.2239 
L 806.859775 353.2239 
L 816.256925 353.2239 
L 825.654075 352.415644 
L 835.051225 352.415644 
L 844.448375 353.2239 
L 853.845525 353.2239 
L 863.242675 353.2239 
L 872.639825 353.2239 
L 882.036975 353.2239 
L 891.434125 353.2239 
L 900.831275 353.2239 
L 910.228425 353.2239 
L 919.625575 353.2239 
L 929.022725 353.2239 
L 938.419875 353.2239 
L 947.817025 353.2239 
L 957.214175 353.2239 
L 966.611325 353.2239 
L 976.008475 353.2239 
L 985.405625 353.2239 
" style="fill:none;stroke:#d9534f;stroke-linecap:square;"/>
   </g>
   <g id="line2d_26">
    <path clip-path="url(#pf479a8bb1e)" d="M 45.690625 353.2239 
L 985.405625 353.2239 
" style="fill:none;stroke:#dedede;stroke-linecap:square;stroke-width:2;"/>
   </g>
   <g id="text_18">
    <!-- FastQC: Per Sequence GC Content -->
    <defs>
     <path d="M 9.8125 72.90625 
L 51.703125 72.90625 
L 51.703125 64.59375 
L 19.671875 64.59375 
L 19.671875 43.109375 
L 48.578125 43.109375 
L 48.578125 34.8125 
L 19.671875 34.8125 
L 19.671875 0 
L 9.8125 0 
z
" id="DejaVuSans-70"/>
     <path d="M 44.28125 53.078125 
L 44.28125 44.578125 
Q 40.484375 46.53125 36.375 47.5 
Q 32.28125 48.484375 27.875 48.484375 
Q 21.1875 48.484375 17.84375 46.4375 
Q 14.5 44.390625 14.5 40.28125 
Q 14.5 37.15625 16.890625 35.375 
Q 19.28125 33.59375 26.515625 31.984375 
L 29.59375 31.296875 
Q 39.15625 29.25 43.1875 25.515625 
Q 47.21875 21.78125 47.21875 15.09375 
Q 47.21875 7.46875 41.1875 3.015625 
Q 35.15625 -1.421875 24.609375 -1.421875 
Q 20.21875 -1.421875 15.453125 -0.5625 
Q 10.6875 0.296875 5.421875 2 
L 5.421875 11.28125 
Q 10.40625 8.6875 15.234375 7.390625 
Q 20.0625 6.109375 24.8125 6.109375 
Q 31.15625 6.109375 34.5625 8.28125 
Q 37.984375 10.453125 37.984375 14.40625 
Q 37.984375 18.0625 35.515625 20.015625 
Q 33.0625 21.96875 24.703125 23.78125 
L 21.578125 24.515625 
Q 13.234375 26.265625 9.515625 29.90625 
Q 5.8125 33.546875 5.8125 39.890625 
Q 5.8125 47.609375 11.28125 51.796875 
Q 16.75 56 26.8125 56 
Q 31.78125 56 36.171875 55.265625 
Q 40.578125 54.546875 44.28125 53.078125 
z
" id="DejaVuSans-115"/>
     <path d="M 39.40625 66.21875 
Q 28.65625 66.21875 22.328125 58.203125 
Q 16.015625 50.203125 16.015625 36.375 
Q 16.015625 22.609375 22.328125 14.59375 
Q 28.65625 6.59375 39.40625 6.59375 
Q 50.140625 6.59375 56.421875 14.59375 
Q 62.703125 22.609375 62.703125 36.375 
Q 62.703125 50.203125 56.421875 58.203125 
Q 50.140625 66.21875 39.40625 66.21875 
z
M 53.21875 1.3125 
L 66.21875 -12.890625 
L 54.296875 -12.890625 
L 43.5 -1.21875 
Q 41.890625 -1.3125 41.03125 -1.359375 
Q 40.1875 -1.421875 39.40625 -1.421875 
Q 24.03125 -1.421875 14.8125 8.859375 
Q 5.609375 19.140625 5.609375 36.375 
Q 5.609375 53.65625 14.8125 63.9375 
Q 24.03125 74.21875 39.40625 74.21875 
Q 54.734375 74.21875 63.90625 63.9375 
Q 73.09375 53.65625 73.09375 36.375 
Q 73.09375 23.6875 67.984375 14.640625 
Q 62.890625 5.609375 53.21875 1.3125 
z
" id="DejaVuSans-81"/>
     <path d="M 11.71875 12.40625 
L 22.015625 12.40625 
L 22.015625 0 
L 11.71875 0 
z
M 11.71875 51.703125 
L 22.015625 51.703125 
L 22.015625 39.3125 
L 11.71875 39.3125 
z
" id="DejaVuSans-58"/>
     <path d="M 53.515625 70.515625 
L 53.515625 60.890625 
Q 47.90625 63.578125 42.921875 64.890625 
Q 37.9375 66.21875 33.296875 66.21875 
Q 25.25 66.21875 20.875 63.09375 
Q 16.5 59.96875 16.5 54.203125 
Q 16.5 49.359375 19.40625 46.890625 
Q 22.3125 44.4375 30.421875 42.921875 
L 36.375 41.703125 
Q 47.40625 39.59375 52.65625 34.296875 
Q 57.90625 29 57.90625 20.125 
Q 57.90625 9.515625 50.796875 4.046875 
Q 43.703125 -1.421875 29.984375 -1.421875 
Q 24.8125 -1.421875 18.96875 -0.25 
Q 13.140625 0.921875 6.890625 3.21875 
L 6.890625 13.375 
Q 12.890625 10.015625 18.65625 8.296875 
Q 24.421875 6.59375 29.984375 6.59375 
Q 38.421875 6.59375 43.015625 9.90625 
Q 47.609375 13.234375 47.609375 19.390625 
Q 47.609375 24.75 44.3125 27.78125 
Q 41.015625 30.8125 33.5 32.328125 
L 27.484375 33.5 
Q 16.453125 35.6875 11.515625 40.375 
Q 6.59375 45.0625 6.59375 53.421875 
Q 6.59375 63.09375 13.40625 68.65625 
Q 20.21875 74.21875 32.171875 74.21875 
Q 37.3125 74.21875 42.625 73.28125 
Q 47.953125 72.359375 53.515625 70.515625 
z
" id="DejaVuSans-83"/>
     <path d="M 14.796875 27.296875 
Q 14.796875 17.390625 18.875 11.75 
Q 22.953125 6.109375 30.078125 6.109375 
Q 37.203125 6.109375 41.296875 11.75 
Q 45.40625 17.390625 45.40625 27.296875 
Q 45.40625 37.203125 41.296875 42.84375 
Q 37.203125 48.484375 30.078125 48.484375 
Q 22.953125 48.484375 18.875 42.84375 
Q 14.796875 37.203125 14.796875 27.296875 
z
M 45.40625 8.203125 
Q 42.578125 3.328125 38.25 0.953125 
Q 33.9375 -1.421875 27.875 -1.421875 
Q 17.96875 -1.421875 11.734375 6.484375 
Q 5.515625 14.40625 5.515625 27.296875 
Q 5.515625 40.1875 11.734375 48.09375 
Q 17.96875 56 27.875 56 
Q 33.9375 56 38.25 53.625 
Q 42.578125 51.265625 45.40625 46.390625 
L 45.40625 54.6875 
L 54.390625 54.6875 
L 54.390625 -20.796875 
L 45.40625 -20.796875 
z
" id="DejaVuSans-113"/>
     <path d="M 8.5 21.578125 
L 8.5 54.6875 
L 17.484375 54.6875 
L 17.484375 21.921875 
Q 17.484375 14.15625 20.5 10.265625 
Q 23.53125 6.390625 29.59375 6.390625 
Q 36.859375 6.390625 41.078125 11.03125 
Q 45.3125 15.671875 45.3125 23.6875 
L 45.3125 54.6875 
L 54.296875 54.6875 
L 54.296875 0 
L 45.3125 0 
L 45.3125 8.40625 
Q 42.046875 3.421875 37.71875 1 
Q 33.40625 -1.421875 27.6875 -1.421875 
Q 18.265625 -1.421875 13.375 4.4375 
Q 8.5 10.296875 8.5 21.578125 
z
M 31.109375 56 
z
" id="DejaVuSans-117"/>
     <path d="M 30.609375 48.390625 
Q 23.390625 48.390625 19.1875 42.75 
Q 14.984375 37.109375 14.984375 27.296875 
Q 14.984375 17.484375 19.15625 11.84375 
Q 23.34375 6.203125 30.609375 6.203125 
Q 37.796875 6.203125 41.984375 11.859375 
Q 46.1875 17.53125 46.1875 27.296875 
Q 46.1875 37.015625 41.984375 42.703125 
Q 37.796875 48.390625 30.609375 48.390625 
z
M 30.609375 56 
Q 42.328125 56 49.015625 48.375 
Q 55.71875 40.765625 55.71875 27.296875 
Q 55.71875 13.875 49.015625 6.21875 
Q 42.328125 -1.421875 30.609375 -1.421875 
Q 18.84375 -1.421875 12.171875 6.21875 
Q 5.515625 13.875 5.515625 27.296875 
Q 5.515625 40.765625 12.171875 48.375 
Q 18.84375 56 30.609375 56 
z
" id="DejaVuSans-111"/>
    </defs>
    <g transform="translate(378.911875 19.3575)scale(0.16 -0.16)">
     <use xlink:href="#DejaVuSans-70"/>
     <use x="48.394531" xlink:href="#DejaVuSans-97"/>
     <use x="109.673828" xlink:href="#DejaVuSans-115"/>
     <use x="161.773438" xlink:href="#DejaVuSans-116"/>
     <use x="200.982422" xlink:href="#DejaVuSans-81"/>
     <use x="279.693359" xlink:href="#DejaVuSans-67"/>
     <use x="349.517578" xlink:href="#DejaVuSans-58"/>
     <use x="383.208984" xlink:href="#DejaVuSans-32"/>
     <use x="414.996094" xlink:href="#DejaVuSans-80"/>
     <use x="471.673828" xlink:href="#DejaVuSans-101"/>
     <use x="533.197266" xlink:href="#DejaVuSans-114"/>
     <use x="574.310547" xlink:href="#DejaVuSans-32"/>
     <use x="606.097656" xlink:href="#DejaVuSans-83"/>
     <use x="669.574219" xlink:href="#DejaVuSans-101"/>
     <use x="731.097656" xlink:href="#DejaVuSans-113"/>
     <use x="794.574219" xlink:href="#DejaVuSans-117"/>
     <use x="857.953125" xlink:href="#DejaVuSans-101"/>
     <use x="919.476562" xlink:href="#DejaVuSans-110"/>
     <use x="982.855469" xlink:href="#DejaVuSans-99"/>
     <use x="1037.835938" xlink:href="#DejaVuSans-101"/>
     <use x="1099.359375" xlink:href="#DejaVuSans-32"/>
     <use x="1131.146484" xlink:href="#DejaVuSans-71"/>
     <use x="1208.636719" xlink:href="#DejaVuSans-67"/>
     <use x="1278.460938" xlink:href="#DejaVuSans-32"/>
     <use x="1310.248047" xlink:href="#DejaVuSans-67"/>
     <use x="1380.072266" xlink:href="#DejaVuSans-111"/>
     <use x="1441.253906" xlink:href="#DejaVuSans-110"/>
     <use x="1504.632812" xlink:href="#DejaVuSans-116"/>
     <use x="1543.841797" xlink:href="#DejaVuSans-101"/>
     <use x="1605.365234" xlink:href="#DejaVuSans-110"/>
     <use x="1668.744141" xlink:href="#DejaVuSans-116"/>
    </g>
   </g>
  </g>
 </g>
 <defs>
  <clipPath id="pf479a8bb1e">
   <rect height="317.968" width="939.715" x="45.690625" y="35.2559"/>
  </clipPath>
 </defs>
</svg>
