<?xml version="1.0" encoding="utf-8" standalone="no"?>
<!DOCTYPE svg PUBLIC "-//W3C//DTD SVG 1.1//EN"
  "http://www.w3.org/Graphics/SVG/1.1/DTD/svg11.dtd">
<!-- Created with matplotlib (https://matplotlib.org/) -->
<svg height="388.844525pt" version="1.1" viewBox="0 0 1000.318125 388.844525" width="1000.318125pt" xmlns="http://www.w3.org/2000/svg" xmlns:xlink="http://www.w3.org/1999/xlink">
 <defs>
  <style type="text/css">
*{stroke-linecap:butt;stroke-linejoin:round;}
  </style>
 </defs>
 <g id="figure_1">
  <g id="axes_1">
   <g id="patch_1">
    <path d="M 38.058125 353.2239 
L 993.118125 353.2239 
L 993.118125 35.2559 
L 38.058125 35.2559 
z
" style="fill:#ffffff;"/>
   </g>
   <g id="patch_2">
    <path clip-path="url(#p5188b499d2)" d="M 38.058125 124.865405 
L 952.610107 124.865405 
L 952.610107 -462.342155 
L 38.058125 -462.342155 
z
" style="fill:#c3e6c3;"/>
   </g>
   <g id="patch_3">
    <path clip-path="url(#p5188b499d2)" d="M 38.058125 190.110689 
L 952.610107 190.110689 
L 952.610107 124.865405 
L 38.058125 124.865405 
z
" style="fill:#e6dcc3;"/>
   </g>
   <g id="patch_4">
    <path clip-path="url(#p5188b499d2)" d="M 38.058125 353.2239 
L 952.610107 353.2239 
L 952.610107 190.110689 
L 38.058125 190.110689 
z
" style="fill:#e6c3c3;"/>
   </g>
   <g id="matplotlib.axis_1">
    <g id="xtick_1">
     <g id="text_1">
      <!-- 0 -->
      <defs>
       <path d="M 31.78125 66.40625 
Q 24.171875 66.40625 20.328125 58.90625 
Q 16.5 51.421875 16.5 36.375 
Q 16.5 21.390625 20.328125 13.890625 
Q 24.171875 6.390625 31.78125 6.390625 
Q 39.453125 6.390625 43.28125 13.890625 
Q 47.125 21.390625 47.125 36.375 
Q 47.125 51.421875 43.28125 58.90625 
Q 39.453125 66.40625 31.78125 66.40625 
z
M 31.78125 74.21875 
Q 44.046875 74.21875 50.515625 64.515625 
Q 56.984375 54.828125 56.984375 36.375 
Q 56.984375 17.96875 50.515625 8.265625 
Q 44.046875 -1.421875 31.78125 -1.421875 
Q 19.53125 -1.421875 13.0625 8.265625 
Q 6.59375 17.96875 6.59375 36.375 
Q 6.59375 54.828125 13.0625 64.515625 
Q 19.53125 74.21875 31.78125 74.21875 
z
" id="DejaVuSans-48"/>
      </defs>
      <g transform="translate(76.021143 366.30265)scale(0.08 -0.08)">
       <use xlink:href="#DejaVuSans-48"/>
      </g>
     </g>
    </g>
    <g id="xtick_2">
     <g id="text_2">
      <!-- 50 -->
      <defs>
       <path d="M 10.796875 72.90625 
L 49.515625 72.90625 
L 49.515625 64.59375 
L 19.828125 64.59375 
L 19.828125 46.734375 
Q 21.96875 47.46875 24.109375 47.828125 
Q 26.265625 48.1875 28.421875 48.1875 
Q 40.625 48.1875 47.75 41.5 
Q 54.890625 34.8125 54.890625 23.390625 
Q 54.890625 11.625 47.5625 5.09375 
Q 40.234375 -1.421875 26.90625 -1.421875 
Q 22.3125 -1.421875 17.546875 -0.640625 
Q 12.796875 0.140625 7.71875 1.703125 
L 7.71875 11.625 
Q 12.109375 9.234375 16.796875 8.0625 
Q 21.484375 6.890625 26.703125 6.890625 
Q 35.15625 6.890625 40.078125 11.328125 
Q 45.015625 15.765625 45.015625 23.390625 
Q 45.015625 31 40.078125 35.4375 
Q 35.15625 39.890625 26.703125 39.890625 
Q 22.75 39.890625 18.8125 39.015625 
Q 14.890625 38.140625 10.796875 36.28125 
z
" id="DejaVuSans-53"/>
      </defs>
      <g transform="translate(218.66617 366.30265)scale(0.08 -0.08)">
       <use xlink:href="#DejaVuSans-53"/>
       <use x="63.623047" xlink:href="#DejaVuSans-48"/>
      </g>
     </g>
    </g>
    <g id="xtick_3">
     <g id="text_3">
      <!-- 100 -->
      <defs>
       <path d="M 12.40625 8.296875 
L 28.515625 8.296875 
L 28.515625 63.921875 
L 10.984375 60.40625 
L 10.984375 69.390625 
L 28.421875 72.90625 
L 38.28125 72.90625 
L 38.28125 8.296875 
L 54.390625 8.296875 
L 54.390625 0 
L 12.40625 0 
z
" id="DejaVuSans-49"/>
      </defs>
      <g transform="translate(361.311197 366.30265)scale(0.08 -0.08)">
       <use xlink:href="#DejaVuSans-49"/>
       <use x="63.623047" xlink:href="#DejaVuSans-48"/>
       <use x="127.246094" xlink:href="#DejaVuSans-48"/>
      </g>
     </g>
    </g>
    <g id="xtick_4">
     <g id="text_4">
      <!-- 150 -->
      <g transform="translate(506.501225 366.30265)scale(0.08 -0.08)">
       <use xlink:href="#DejaVuSans-49"/>
       <use x="63.623047" xlink:href="#DejaVuSans-53"/>
       <use x="127.246094" xlink:href="#DejaVuSans-48"/>
      </g>
     </g>
    </g>
    <g id="xtick_5">
     <g id="text_5">
      <!-- 200 -->
      <defs>
       <path d="M 19.1875 8.296875 
L 53.609375 8.296875 
L 53.609375 0 
L 7.328125 0 
L 7.328125 8.296875 
Q 12.9375 14.109375 22.625 23.890625 
Q 32.328125 33.6875 34.8125 36.53125 
Q 39.546875 41.84375 41.421875 45.53125 
Q 43.3125 49.21875 43.3125 52.78125 
Q 43.3125 58.59375 39.234375 62.25 
Q 35.15625 65.921875 28.609375 65.921875 
Q 23.96875 65.921875 18.8125 64.3125 
Q 13.671875 62.703125 7.8125 59.421875 
L 7.8125 69.390625 
Q 13.765625 71.78125 18.9375 73 
Q 24.125 74.21875 28.421875 74.21875 
Q 39.75 74.21875 46.484375 68.546875 
Q 53.21875 62.890625 53.21875 53.421875 
Q 53.21875 48.921875 51.53125 44.890625 
Q 49.859375 40.875 45.40625 35.40625 
Q 44.1875 33.984375 37.640625 27.21875 
Q 31.109375 20.453125 19.1875 8.296875 
z
" id="DejaVuSans-50"/>
      </defs>
      <g transform="translate(651.691252 366.30265)scale(0.08 -0.08)">
       <use xlink:href="#DejaVuSans-50"/>
       <use x="63.623047" xlink:href="#DejaVuSans-48"/>
       <use x="127.246094" xlink:href="#DejaVuSans-48"/>
      </g>
     </g>
    </g>
    <g id="xtick_6">
     <g id="text_6">
      <!-- 250 -->
      <g transform="translate(796.881279 366.30265)scale(0.08 -0.08)">
       <use xlink:href="#DejaVuSans-50"/>
       <use x="63.623047" xlink:href="#DejaVuSans-53"/>
       <use x="127.246094" xlink:href="#DejaVuSans-48"/>
      </g>
     </g>
    </g>
    <g id="xtick_7">
     <g id="text_7">
      <!-- 300 -->
      <defs>
       <path d="M 40.578125 39.3125 
Q 47.65625 37.796875 51.625 33 
Q 55.609375 28.21875 55.609375 21.1875 
Q 55.609375 10.40625 48.1875 4.484375 
Q 40.765625 -1.421875 27.09375 -1.421875 
Q 22.515625 -1.421875 17.65625 -0.515625 
Q 12.796875 0.390625 7.625 2.203125 
L 7.625 11.71875 
Q 11.71875 9.328125 16.59375 8.109375 
Q 21.484375 6.890625 26.8125 6.890625 
Q 36.078125 6.890625 40.9375 10.546875 
Q 45.796875 14.203125 45.796875 21.1875 
Q 45.796875 27.640625 41.28125 31.265625 
Q 36.765625 34.90625 28.71875 34.90625 
L 20.21875 34.90625 
L 20.21875 43.015625 
L 29.109375 43.015625 
Q 36.375 43.015625 40.234375 45.921875 
Q 44.09375 48.828125 44.09375 54.296875 
Q 44.09375 59.90625 40.109375 62.90625 
Q 36.140625 65.921875 28.71875 65.921875 
Q 24.65625 65.921875 20.015625 65.03125 
Q 15.375 64.15625 9.8125 62.3125 
L 9.8125 71.09375 
Q 15.4375 72.65625 20.34375 73.4375 
Q 25.25 74.21875 29.59375 74.21875 
Q 40.828125 74.21875 47.359375 69.109375 
Q 53.90625 64.015625 53.90625 55.328125 
Q 53.90625 49.265625 50.4375 45.09375 
Q 46.96875 40.921875 40.578125 39.3125 
z
" id="DejaVuSans-51"/>
      </defs>
      <g transform="translate(942.071307 366.30265)scale(0.08 -0.08)">
       <use xlink:href="#DejaVuSans-51"/>
       <use x="63.623047" xlink:href="#DejaVuSans-48"/>
       <use x="127.246094" xlink:href="#DejaVuSans-48"/>
      </g>
     </g>
    </g>
    <g id="text_8">
     <!-- Position (bp) -->
     <defs>
      <path d="M 19.671875 64.796875 
L 19.671875 37.40625 
L 32.078125 37.40625 
Q 38.96875 37.40625 42.71875 40.96875 
Q 46.484375 44.53125 46.484375 51.125 
Q 46.484375 57.671875 42.71875 61.234375 
Q 38.96875 64.796875 32.078125 64.796875 
z
M 9.8125 72.90625 
L 32.078125 72.90625 
Q 44.34375 72.90625 50.609375 67.359375 
Q 56.890625 61.8125 56.890625 51.125 
Q 56.890625 40.328125 50.609375 34.8125 
Q 44.34375 29.296875 32.078125 29.296875 
L 19.671875 29.296875 
L 19.671875 0 
L 9.8125 0 
z
" id="DejaVuSans-80"/>
      <path d="M 30.609375 48.390625 
Q 23.390625 48.390625 19.1875 42.75 
Q 14.984375 37.109375 14.984375 27.296875 
Q 14.984375 17.484375 19.15625 11.84375 
Q 23.34375 6.203125 30.609375 6.203125 
Q 37.796875 6.203125 41.984375 11.859375 
Q 46.1875 17.53125 46.1875 27.296875 
Q 46.1875 37.015625 41.984375 42.703125 
Q 37.796875 48.390625 30.609375 48.390625 
z
M 30.609375 56 
Q 42.328125 56 49.015625 48.375 
Q 55.71875 40.765625 55.71875 27.296875 
Q 55.71875 13.875 49.015625 6.21875 
Q 42.328125 -1.421875 30.609375 -1.421875 
Q 18.84375 -1.421875 12.171875 6.21875 
Q 5.515625 13.875 5.515625 27.296875 
Q 5.515625 40.765625 12.171875 48.375 
Q 18.84375 56 30.609375 56 
z
" id="DejaVuSans-111"/>
      <path d="M 44.28125 53.078125 
L 44.28125 44.578125 
Q 40.484375 46.53125 36.375 47.5 
Q 32.28125 48.484375 27.875 48.484375 
Q 21.1875 48.484375 17.84375 46.4375 
Q 14.5 44.390625 14.5 40.28125 
Q 14.5 37.15625 16.890625 35.375 
Q 19.28125 33.59375 26.515625 31.984375 
L 29.59375 31.296875 
Q 39.15625 29.25 43.1875 25.515625 
Q 47.21875 21.78125 47.21875 15.09375 
Q 47.21875 7.46875 41.1875 3.015625 
Q 35.15625 -1.421875 24.609375 -1.421875 
Q 20.21875 -1.421875 15.453125 -0.5625 
Q 10.6875 0.296875 5.421875 2 
L 5.421875 11.28125 
Q 10.40625 8.6875 15.234375 7.390625 
Q 20.0625 6.109375 24.8125 6.109375 
Q 31.15625 6.109375 34.5625 8.28125 
Q 37.984375 10.453125 37.984375 14.40625 
Q 37.984375 18.0625 35.515625 20.015625 
Q 33.0625 21.96875 24.703125 23.78125 
L 21.578125 24.515625 
Q 13.234375 26.265625 9.515625 29.90625 
Q 5.8125 33.546875 5.8125 39.890625 
Q 5.8125 47.609375 11.28125 51.796875 
Q 16.75 56 26.8125 56 
Q 31.78125 56 36.171875 55.265625 
Q 40.578125 54.546875 44.28125 53.078125 
z
" id="DejaVuSans-115"/>
      <path d="M 9.421875 54.6875 
L 18.40625 54.6875 
L 18.40625 0 
L 9.421875 0 
z
M 9.421875 75.984375 
L 18.40625 75.984375 
L 18.40625 64.59375 
L 9.421875 64.59375 
z
" id="DejaVuSans-105"/>
      <path d="M 18.3125 70.21875 
L 18.3125 54.6875 
L 36.8125 54.6875 
L 36.8125 47.703125 
L 18.3125 47.703125 
L 18.3125 18.015625 
Q 18.3125 11.328125 20.140625 9.421875 
Q 21.96875 7.515625 27.59375 7.515625 
L 36.8125 7.515625 
L 36.8125 0 
L 27.59375 0 
Q 17.1875 0 13.234375 3.875 
Q 9.28125 7.765625 9.28125 18.015625 
L 9.28125 47.703125 
L 2.6875 47.703125 
L 2.6875 54.6875 
L 9.28125 54.6875 
L 9.28125 70.21875 
z
" id="DejaVuSans-116"/>
      <path d="M 54.890625 33.015625 
L 54.890625 0 
L 45.90625 0 
L 45.90625 32.71875 
Q 45.90625 40.484375 42.875 44.328125 
Q 39.84375 48.1875 33.796875 48.1875 
Q 26.515625 48.1875 22.3125 43.546875 
Q 18.109375 38.921875 18.109375 30.90625 
L 18.109375 0 
L 9.078125 0 
L 9.078125 54.6875 
L 18.109375 54.6875 
L 18.109375 46.1875 
Q 21.34375 51.125 25.703125 53.5625 
Q 30.078125 56 35.796875 56 
Q 45.21875 56 50.046875 50.171875 
Q 54.890625 44.34375 54.890625 33.015625 
z
" id="DejaVuSans-110"/>
      <path id="DejaVuSans-32"/>
      <path d="M 31 75.875 
Q 24.46875 64.65625 21.28125 53.65625 
Q 18.109375 42.671875 18.109375 31.390625 
Q 18.109375 20.125 21.3125 9.0625 
Q 24.515625 -2 31 -13.1875 
L 23.1875 -13.1875 
Q 15.875 -1.703125 12.234375 9.375 
Q 8.59375 20.453125 8.59375 31.390625 
Q 8.59375 42.28125 12.203125 53.3125 
Q 15.828125 64.359375 23.1875 75.875 
z
" id="DejaVuSans-40"/>
      <path d="M 48.6875 27.296875 
Q 48.6875 37.203125 44.609375 42.84375 
Q 40.53125 48.484375 33.40625 48.484375 
Q 26.265625 48.484375 22.1875 42.84375 
Q 18.109375 37.203125 18.109375 27.296875 
Q 18.109375 17.390625 22.1875 11.75 
Q 26.265625 6.109375 33.40625 6.109375 
Q 40.53125 6.109375 44.609375 11.75 
Q 48.6875 17.390625 48.6875 27.296875 
z
M 18.109375 46.390625 
Q 20.953125 51.265625 25.265625 53.625 
Q 29.59375 56 35.59375 56 
Q 45.5625 56 51.78125 48.09375 
Q 58.015625 40.1875 58.015625 27.296875 
Q 58.015625 14.40625 51.78125 6.484375 
Q 45.5625 -1.421875 35.59375 -1.421875 
Q 29.59375 -1.421875 25.265625 0.953125 
Q 20.953125 3.328125 18.109375 8.203125 
L 18.109375 0 
L 9.078125 0 
L 9.078125 75.984375 
L 18.109375 75.984375 
z
" id="DejaVuSans-98"/>
      <path d="M 18.109375 8.203125 
L 18.109375 -20.796875 
L 9.078125 -20.796875 
L 9.078125 54.6875 
L 18.109375 54.6875 
L 18.109375 46.390625 
Q 20.953125 51.265625 25.265625 53.625 
Q 29.59375 56 35.59375 56 
Q 45.5625 56 51.78125 48.09375 
Q 58.015625 40.1875 58.015625 27.296875 
Q 58.015625 14.40625 51.78125 6.484375 
Q 45.5625 -1.421875 35.59375 -1.421875 
Q 29.59375 -1.421875 25.265625 0.953125 
Q 20.953125 3.328125 18.109375 8.203125 
z
M 48.6875 27.296875 
Q 48.6875 37.203125 44.609375 42.84375 
Q 40.53125 48.484375 33.40625 48.484375 
Q 26.265625 48.484375 22.1875 42.84375 
Q 18.109375 37.203125 18.109375 27.296875 
Q 18.109375 17.390625 22.1875 11.75 
Q 26.265625 6.109375 33.40625 6.109375 
Q 40.53125 6.109375 44.609375 11.75 
Q 48.6875 17.390625 48.6875 27.296875 
z
" id="DejaVuSans-112"/>
      <path d="M 8.015625 75.875 
L 15.828125 75.875 
Q 23.140625 64.359375 26.78125 53.3125 
Q 30.421875 42.28125 30.421875 31.390625 
Q 30.421875 20.453125 26.78125 9.375 
Q 23.140625 -1.703125 15.828125 -13.1875 
L 8.015625 -13.1875 
Q 14.5 -2 17.703125 9.0625 
Q 20.90625 20.125 20.90625 31.390625 
Q 20.90625 42.671875 17.703125 53.65625 
Q 14.5 64.65625 8.015625 75.875 
z
" id="DejaVuSans-41"/>
     </defs>
     <g transform="translate(484.285 379.564837)scale(0.1 -0.1)">
      <use xlink:href="#DejaVuSans-80"/>
      <use x="56.677734" xlink:href="#DejaVuSans-111"/>
      <use x="117.859375" xlink:href="#DejaVuSans-115"/>
      <use x="169.958984" xlink:href="#DejaVuSans-105"/>
      <use x="197.742188" xlink:href="#DejaVuSans-116"/>
      <use x="236.951172" xlink:href="#DejaVuSans-105"/>
      <use x="264.734375" xlink:href="#DejaVuSans-111"/>
      <use x="325.916016" xlink:href="#DejaVuSans-110"/>
      <use x="389.294922" xlink:href="#DejaVuSans-32"/>
      <use x="421.082031" xlink:href="#DejaVuSans-40"/>
      <use x="460.095703" xlink:href="#DejaVuSans-98"/>
      <use x="523.572266" xlink:href="#DejaVuSans-112"/>
      <use x="587.048828" xlink:href="#DejaVuSans-41"/>
     </g>
    </g>
   </g>
   <g id="matplotlib.axis_2">
    <g id="ytick_1">
     <g id="line2d_1">
      <path clip-path="url(#p5188b499d2)" d="M 38.058125 353.2239 
L 993.118125 353.2239 
" style="fill:none;stroke:#dedede;stroke-linecap:square;"/>
     </g>
     <g id="text_9">
      <!-- 0 -->
      <g transform="translate(25.968125 356.263275)scale(0.08 -0.08)">
       <use xlink:href="#DejaVuSans-48"/>
      </g>
     </g>
    </g>
    <g id="ytick_2">
     <g id="line2d_2">
      <path clip-path="url(#p5188b499d2)" d="M 38.058125 312.445597 
L 993.118125 312.445597 
" style="fill:none;stroke:#dedede;stroke-linecap:square;"/>
     </g>
     <g id="text_10">
      <!-- 5 -->
      <g transform="translate(25.968125 315.484972)scale(0.08 -0.08)">
       <use xlink:href="#DejaVuSans-53"/>
      </g>
     </g>
    </g>
    <g id="ytick_3">
     <g id="line2d_3">
      <path clip-path="url(#p5188b499d2)" d="M 38.058125 271.667295 
L 993.118125 271.667295 
" style="fill:none;stroke:#dedede;stroke-linecap:square;"/>
     </g>
     <g id="text_11">
      <!-- 10 -->
      <g transform="translate(20.878125 274.70667)scale(0.08 -0.08)">
       <use xlink:href="#DejaVuSans-49"/>
       <use x="63.623047" xlink:href="#DejaVuSans-48"/>
      </g>
     </g>
    </g>
    <g id="ytick_4">
     <g id="line2d_4">
      <path clip-path="url(#p5188b499d2)" d="M 38.058125 230.888992 
L 993.118125 230.888992 
" style="fill:none;stroke:#dedede;stroke-linecap:square;"/>
     </g>
     <g id="text_12">
      <!-- 15 -->
      <g transform="translate(20.878125 233.928367)scale(0.08 -0.08)">
       <use xlink:href="#DejaVuSans-49"/>
       <use x="63.623047" xlink:href="#DejaVuSans-53"/>
      </g>
     </g>
    </g>
    <g id="ytick_5">
     <g id="line2d_5">
      <path clip-path="url(#p5188b499d2)" d="M 38.058125 190.110689 
L 993.118125 190.110689 
" style="fill:none;stroke:#dedede;stroke-linecap:square;"/>
     </g>
     <g id="text_13">
      <!-- 20 -->
      <g transform="translate(20.878125 193.150064)scale(0.08 -0.08)">
       <use xlink:href="#DejaVuSans-50"/>
       <use x="63.623047" xlink:href="#DejaVuSans-48"/>
      </g>
     </g>
    </g>
    <g id="ytick_6">
     <g id="line2d_6">
      <path clip-path="url(#p5188b499d2)" d="M 38.058125 149.332386 
L 993.118125 149.332386 
" style="fill:none;stroke:#dedede;stroke-linecap:square;"/>
     </g>
     <g id="text_14">
      <!-- 25 -->
      <g transform="translate(20.878125 152.371761)scale(0.08 -0.08)">
       <use xlink:href="#DejaVuSans-50"/>
       <use x="63.623047" xlink:href="#DejaVuSans-53"/>
      </g>
     </g>
    </g>
    <g id="ytick_7">
     <g id="line2d_7">
      <path clip-path="url(#p5188b499d2)" d="M 38.058125 108.554084 
L 993.118125 108.554084 
" style="fill:none;stroke:#dedede;stroke-linecap:square;"/>
     </g>
     <g id="text_15">
      <!-- 30 -->
      <g transform="translate(20.878125 111.593459)scale(0.08 -0.08)">
       <use xlink:href="#DejaVuSans-51"/>
       <use x="63.623047" xlink:href="#DejaVuSans-48"/>
      </g>
     </g>
    </g>
    <g id="ytick_8">
     <g id="line2d_8">
      <path clip-path="url(#p5188b499d2)" d="M 38.058125 67.775781 
L 993.118125 67.775781 
" style="fill:none;stroke:#dedede;stroke-linecap:square;"/>
     </g>
     <g id="text_16">
      <!-- 35 -->
      <g transform="translate(20.878125 70.815156)scale(0.08 -0.08)">
       <use xlink:href="#DejaVuSans-51"/>
       <use x="63.623047" xlink:href="#DejaVuSans-53"/>
      </g>
     </g>
    </g>
    <g id="text_17">
     <!-- Phred Score -->
     <defs>
      <path d="M 54.890625 33.015625 
L 54.890625 0 
L 45.90625 0 
L 45.90625 32.71875 
Q 45.90625 40.484375 42.875 44.328125 
Q 39.84375 48.1875 33.796875 48.1875 
Q 26.515625 48.1875 22.3125 43.546875 
Q 18.109375 38.921875 18.109375 30.90625 
L 18.109375 0 
L 9.078125 0 
L 9.078125 75.984375 
L 18.109375 75.984375 
L 18.109375 46.1875 
Q 21.34375 51.125 25.703125 53.5625 
Q 30.078125 56 35.796875 56 
Q 45.21875 56 50.046875 50.171875 
Q 54.890625 44.34375 54.890625 33.015625 
z
" id="DejaVuSans-104"/>
      <path d="M 41.109375 46.296875 
Q 39.59375 47.171875 37.8125 47.578125 
Q 36.03125 48 33.890625 48 
Q 26.265625 48 22.1875 43.046875 
Q 18.109375 38.09375 18.109375 28.8125 
L 18.109375 0 
L 9.078125 0 
L 9.078125 54.6875 
L 18.109375 54.6875 
L 18.109375 46.1875 
Q 20.953125 51.171875 25.484375 53.578125 
Q 30.03125 56 36.53125 56 
Q 37.453125 56 38.578125 55.875 
Q 39.703125 55.765625 41.0625 55.515625 
z
" id="DejaVuSans-114"/>
      <path d="M 56.203125 29.59375 
L 56.203125 25.203125 
L 14.890625 25.203125 
Q 15.484375 15.921875 20.484375 11.0625 
Q 25.484375 6.203125 34.421875 6.203125 
Q 39.59375 6.203125 44.453125 7.46875 
Q 49.3125 8.734375 54.109375 11.28125 
L 54.109375 2.78125 
Q 49.265625 0.734375 44.1875 -0.34375 
Q 39.109375 -1.421875 33.890625 -1.421875 
Q 20.796875 -1.421875 13.15625 6.1875 
Q 5.515625 13.8125 5.515625 26.8125 
Q 5.515625 40.234375 12.765625 48.109375 
Q 20.015625 56 32.328125 56 
Q 43.359375 56 49.78125 48.890625 
Q 56.203125 41.796875 56.203125 29.59375 
z
M 47.21875 32.234375 
Q 47.125 39.59375 43.09375 43.984375 
Q 39.0625 48.390625 32.421875 48.390625 
Q 24.90625 48.390625 20.390625 44.140625 
Q 15.875 39.890625 15.1875 32.171875 
z
" id="DejaVuSans-101"/>
      <path d="M 45.40625 46.390625 
L 45.40625 75.984375 
L 54.390625 75.984375 
L 54.390625 0 
L 45.40625 0 
L 45.40625 8.203125 
Q 42.578125 3.328125 38.25 0.953125 
Q 33.9375 -1.421875 27.875 -1.421875 
Q 17.96875 -1.421875 11.734375 6.484375 
Q 5.515625 14.40625 5.515625 27.296875 
Q 5.515625 40.1875 11.734375 48.09375 
Q 17.96875 56 27.875 56 
Q 33.9375 56 38.25 53.625 
Q 42.578125 51.265625 45.40625 46.390625 
z
M 14.796875 27.296875 
Q 14.796875 17.390625 18.875 11.75 
Q 22.953125 6.109375 30.078125 6.109375 
Q 37.203125 6.109375 41.296875 11.75 
Q 45.40625 17.390625 45.40625 27.296875 
Q 45.40625 37.203125 41.296875 42.84375 
Q 37.203125 48.484375 30.078125 48.484375 
Q 22.953125 48.484375 18.875 42.84375 
Q 14.796875 37.203125 14.796875 27.296875 
z
" id="DejaVuSans-100"/>
      <path d="M 53.515625 70.515625 
L 53.515625 60.890625 
Q 47.90625 63.578125 42.921875 64.890625 
Q 37.9375 66.21875 33.296875 66.21875 
Q 25.25 66.21875 20.875 63.09375 
Q 16.5 59.96875 16.5 54.203125 
Q 16.5 49.359375 19.40625 46.890625 
Q 22.3125 44.4375 30.421875 42.921875 
L 36.375 41.703125 
Q 47.40625 39.59375 52.65625 34.296875 
Q 57.90625 29 57.90625 20.125 
Q 57.90625 9.515625 50.796875 4.046875 
Q 43.703125 -1.421875 29.984375 -1.421875 
Q 24.8125 -1.421875 18.96875 -0.25 
Q 13.140625 0.921875 6.890625 3.21875 
L 6.890625 13.375 
Q 12.890625 10.015625 18.65625 8.296875 
Q 24.421875 6.59375 29.984375 6.59375 
Q 38.421875 6.59375 43.015625 9.90625 
Q 47.609375 13.234375 47.609375 19.390625 
Q 47.609375 24.75 44.3125 27.78125 
Q 41.015625 30.8125 33.5 32.328125 
L 27.484375 33.5 
Q 16.453125 35.6875 11.515625 40.375 
Q 6.59375 45.0625 6.59375 53.421875 
Q 6.59375 63.09375 13.40625 68.65625 
Q 20.21875 74.21875 32.171875 74.21875 
Q 37.3125 74.21875 42.625 73.28125 
Q 47.953125 72.359375 53.515625 70.515625 
z
" id="DejaVuSans-83"/>
      <path d="M 48.78125 52.59375 
L 48.78125 44.1875 
Q 44.96875 46.296875 41.140625 47.34375 
Q 37.3125 48.390625 33.40625 48.390625 
Q 24.65625 48.390625 19.8125 42.84375 
Q 14.984375 37.3125 14.984375 27.296875 
Q 14.984375 17.28125 19.8125 11.734375 
Q 24.65625 6.203125 33.40625 6.203125 
Q 37.3125 6.203125 41.140625 7.25 
Q 44.96875 8.296875 48.78125 10.40625 
L 48.78125 2.09375 
Q 45.015625 0.34375 40.984375 -0.53125 
Q 36.96875 -1.421875 32.421875 -1.421875 
Q 20.0625 -1.421875 12.78125 6.34375 
Q 5.515625 14.109375 5.515625 27.296875 
Q 5.515625 40.671875 12.859375 48.328125 
Q 20.21875 56 33.015625 56 
Q 37.15625 56 41.109375 55.140625 
Q 45.0625 54.296875 48.78125 52.59375 
z
" id="DejaVuSans-99"/>
     </defs>
     <g transform="translate(14.798438 224.20865)rotate(-90)scale(0.1 -0.1)">
      <use xlink:href="#DejaVuSans-80"/>
      <use x="60.302734" xlink:href="#DejaVuSans-104"/>
      <use x="123.681641" xlink:href="#DejaVuSans-114"/>
      <use x="162.544922" xlink:href="#DejaVuSans-101"/>
      <use x="224.068359" xlink:href="#DejaVuSans-100"/>
      <use x="287.544922" xlink:href="#DejaVuSans-32"/>
      <use x="319.332031" xlink:href="#DejaVuSans-83"/>
      <use x="382.808594" xlink:href="#DejaVuSans-99"/>
      <use x="437.789062" xlink:href="#DejaVuSans-111"/>
      <use x="498.970703" xlink:href="#DejaVuSans-114"/>
      <use x="537.833984" xlink:href="#DejaVuSans-101"/>
     </g>
    </g>
   </g>
   <g id="line2d_9">
    <path clip-path="url(#p5188b499d2)" d="M 81.469943 50.396068 
L 84.373744 50.966964 
L 87.277544 55.819583 
L 90.181345 59.807701 
L 93.085145 50.852785 
L 95.988946 48.919894 
L 98.892746 53.429974 
L 101.796547 50.428691 
L 104.700348 52.092446 
L 113.411749 49.54788 
L 127.930752 54.943665 
L 142.449755 49.927933 
L 156.968757 57.610566 
L 171.48776 53.239132 
L 186.006763 53.978034 
L 200.525766 58.791505 
L 215.044768 55.519454 
L 229.563771 63.252652 
L 244.082774 51.656933 
L 258.601777 52.293075 
L 273.120779 55.656469 
L 287.639782 54.24554 
L 302.158785 63.058547 
L 316.677788 56.093613 
L 331.19679 57.822613 
L 345.715793 55.149187 
L 360.234796 56.287717 
L 374.753798 57.639926 
L 389.272801 66.23273 
L 403.791804 56.108293 
L 418.310807 68.36462 
L 432.829809 61.409472 
L 447.348812 66.640513 
L 461.867815 64.567344 
L 476.386818 66.294713 
L 490.90582 69.566764 
L 505.424823 66.648669 
L 519.943826 69.250324 
L 534.462829 74.223646 
L 548.981831 77.237978 
L 563.500834 67.549054 
L 578.019837 76.787786 
L 592.53884 78.286796 
L 607.057842 72.913847 
L 621.576845 91.241247 
L 636.095848 86.898948 
L 650.61485 90.512032 
L 665.133853 87.904506 
L 679.652856 114.843494 
L 694.171859 103.569252 
L 708.690861 97.789265 
L 723.209864 99.999901 
L 737.728867 110.083679 
L 752.24787 121.644083 
L 766.766872 133.966008 
L 781.285875 145.89489 
L 795.804878 144.591614 
L 810.323881 167.157998 
L 824.842883 183.097023 
L 839.361886 200.679222 
L 853.880889 213.608097 
L 868.399891 205.778466 
L 882.918894 195.847298 
L 897.437897 205.661737 
L 911.9569 204.784268 
L 926.475902 209.824889 
L 940.994905 221.202226 
L 949.706307 234.517887 
" style="fill:none;stroke:#d9534f;stroke-linecap:square;"/>
   </g>
   <g id="line2d_10">
    <path clip-path="url(#p5188b499d2)" d="M 81.469943 47.484497 
L 84.373744 47.745479 
L 87.277544 51.970111 
L 90.181345 54.066115 
L 93.085145 48.063549 
L 95.988946 46.146969 
L 98.892746 50.518403 
L 101.796547 47.484497 
L 104.700348 49.05854 
L 113.411749 47.031043 
L 127.930752 50.999323 
L 142.449755 48.006264 
L 156.968757 53.067835 
L 171.48776 49.382685 
L 186.006763 49.741893 
L 200.525766 56.659918 
L 215.044768 49.967214 
L 229.563771 56.993002 
L 244.082774 48.053614 
L 258.601777 48.737742 
L 273.120779 51.26363 
L 287.639782 48.803053 
L 302.158785 55.020622 
L 316.677788 48.450376 
L 331.19679 50.914218 
L 345.715793 49.451261 
L 360.234796 49.838226 
L 374.753798 49.746791 
L 389.272801 58.86415 
L 403.791804 49.686379 
L 418.310807 61.616992 
L 432.829809 53.639303 
L 447.348812 59.097636 
L 461.867815 56.008444 
L 476.386818 58.183287 
L 490.90582 62.972187 
L 505.424823 60.039741 
L 519.943826 64.25554 
L 534.462829 64.635974 
L 548.981831 66.50549 
L 563.500834 61.551681 
L 578.019837 67.442697 
L 592.53884 69.295885 
L 607.057842 65.068657 
L 621.576845 84.586728 
L 636.095848 84.390796 
L 650.61485 84.248746 
L 665.133853 81.696734 
L 679.652856 106.830191 
L 694.171859 99.535459 
L 708.690861 86.631864 
L 723.209864 89.282862 
L 737.728867 99.993092 
L 752.24787 117.489353 
L 766.766872 123.402616 
L 781.285875 145.202255 
L 795.804878 130.306325 
L 810.323881 162.090739 
L 824.842883 173.600762 
L 839.361886 197.481444 
L 853.880889 211.535824 
L 868.399891 176.991652 
L 882.918894 171.976338 
L 897.437897 184.417718 
L 911.9569 184.161854 
L 926.475902 183.778059 
L 940.994905 193.181055 
L 949.706307 235.487396 
" style="fill:none;stroke:#d9534f;stroke-linecap:square;"/>
   </g>
   <g id="line2d_11">
    <path clip-path="url(#p5188b499d2)" d="M 81.469943 47.89228 
L 84.373744 48.275596 
L 87.277544 51.472615 
L 90.181345 55.468889 
L 93.085145 49.229809 
L 95.988946 46.057257 
L 98.892746 50.35529 
L 101.796547 47.394785 
L 104.700348 49.702837 
L 113.411749 47.292024 
L 127.930752 52.120175 
L 142.449755 48.180991 
L 156.968757 53.394089 
L 171.48776 49.528306 
L 186.006763 50.658681 
L 200.525766 56.488347 
L 215.044768 50.872359 
L 229.563771 56.904285 
L 244.082774 49.381504 
L 258.601777 50.229693 
L 273.120779 52.041881 
L 287.639782 49.166195 
L 302.158785 57.455608 
L 316.677788 50.732081 
L 331.19679 51.090931 
L 345.715793 49.428807 
L 360.234796 51.307871 
L 374.753798 51.345387 
L 389.272801 58.758883 
L 403.791804 50.400962 
L 418.310807 61.104451 
L 432.829809 54.687577 
L 447.348812 60.960911 
L 461.867815 57.772048 
L 476.386818 59.001921 
L 490.90582 63.330946 
L 505.424823 60.184492 
L 519.943826 63.810499 
L 534.462829 68.959983 
L 548.981831 69.702148 
L 563.500834 62.353898 
L 578.019837 69.891359 
L 592.53884 69.15735 
L 607.057842 67.100492 
L 621.576845 88.208973 
L 636.095848 82.621419 
L 650.61485 84.614966 
L 665.133853 85.589966 
L 679.652856 111.320772 
L 694.171859 102.275702 
L 708.690861 95.944809 
L 723.209864 97.093493 
L 737.728867 106.956391 
L 752.24787 119.888065 
L 766.766872 130.547209 
L 781.285875 145.704722 
L 795.804878 143.353442 
L 810.323881 169.195606 
L 824.842883 172.884489 
L 839.361886 194.353465 
L 853.880889 212.057663 
L 868.399891 169.497698 
L 882.918894 153.60793 
L 897.437897 184.970152 
L 911.9569 179.335331 
L 926.475902 193.199954 
L 940.994905 199.343179 
L 949.706307 229.40026 
" style="fill:none;stroke:#d9534f;stroke-linecap:square;"/>
   </g>
   <g id="line2d_12">
    <path clip-path="url(#p5188b499d2)" d="M 81.469943 48.976983 
L 84.373744 47.990148 
L 87.277544 51.333969 
L 90.181345 54.049804 
L 93.085145 49.156408 
L 95.988946 45.78812 
L 98.892746 50.746762 
L 101.796547 47.794413 
L 104.700348 48.81387 
L 113.411749 47.499178 
L 127.930752 51.978266 
L 142.449755 48.027664 
L 156.968757 53.056445 
L 171.48776 48.766567 
L 186.006763 49.492421 
L 200.525766 56.710181 
L 215.044768 51.784162 
L 229.563771 58.709949 
L 244.082774 48.884009 
L 258.601777 49.523413 
L 273.120779 51.992947 
L 287.639782 49.570715 
L 302.158785 56.330127 
L 316.677788 49.523413 
L 331.19679 51.515025 
L 345.715793 49.841483 
L 360.234796 50.803851 
L 374.753798 50.03885 
L 389.272801 59.843585 
L 403.791804 51.221421 
L 418.310807 62.686649 
L 432.829809 55.036639 
L 447.348812 61.081615 
L 461.867815 58.355993 
L 476.386818 59.928404 
L 490.90582 63.583771 
L 505.424823 63.280381 
L 519.943826 67.764363 
L 534.462829 67.325588 
L 548.981831 70.909186 
L 563.500834 63.727311 
L 578.019837 71.091872 
L 592.53884 71.227256 
L 607.057842 66.4774 
L 621.576845 87.716371 
L 636.095848 87.684375 
L 650.61485 86.748509 
L 665.133853 84.346712 
L 679.652856 110.884039 
L 694.171859 103.13657 
L 708.690861 92.652586 
L 723.209864 93.132619 
L 737.728867 102.98309 
L 752.24787 122.088072 
L 766.766872 127.499054 
L 781.285875 146.790171 
L 795.804878 137.016441 
L 810.323881 168.722509 
L 824.842883 182.984738 
L 839.361886 198.926543 
L 853.880889 217.345097 
L 868.399891 177.348823 
L 882.918894 164.292926 
L 897.437897 183.841025 
L 911.9569 178.849324 
L 926.475902 195.004085 
L 940.994905 200.262078 
L 949.706307 222.465933 
" style="fill:none;stroke:#d9534f;stroke-linecap:square;"/>
   </g>
   <g id="line2d_13">
    <path clip-path="url(#p5188b499d2)" d="M 81.469943 46.774955 
L 84.373744 46.774955 
L 87.277544 52.614408 
L 90.181345 54.498365 
L 93.085145 47.81888 
L 95.988946 45.151979 
L 98.892746 50.624427 
L 101.796547 46.122502 
L 104.700348 49.719148 
L 113.411749 46.213846 
L 127.930752 50.876542 
L 142.449755 47.287847 
L 156.968757 53.347038 
L 171.48776 48.221789 
L 186.006763 49.350029 
L 200.525766 55.453304 
L 215.044768 50.213762 
L 229.563771 57.766932 
L 244.082774 48.608754 
L 258.601777 48.789991 
L 273.120779 50.698693 
L 287.639782 48.218523 
L 302.158785 56.222337 
L 316.677788 47.940953 
L 331.19679 49.61617 
L 345.715793 47.877275 
L 360.234796 49.446362 
L 374.753798 49.514939 
L 389.272801 57.174239 
L 403.791804 48.336082 
L 418.310807 59.282138 
L 432.829809 53.923404 
L 447.348812 58.673117 
L 461.867815 56.220704 
L 476.386818 56.69094 
L 490.90582 61.638218 
L 505.424823 58.36779 
L 519.943826 60.320576 
L 534.462829 62.98035 
L 548.981831 66.329151 
L 563.500834 59.954837 
L 578.019837 67.204313 
L 592.53884 67.463923 
L 607.057842 61.868438 
L 621.576845 79.69823 
L 636.095848 75.075015 
L 650.61485 77.948292 
L 665.133853 78.682138 
L 679.652856 94.710708 
L 694.171859 89.478991 
L 708.690861 82.706033 
L 723.209864 85.392988 
L 737.728867 94.251441 
L 752.24787 107.013024 
L 766.766872 111.573928 
L 781.285875 123.842464 
L 795.804878 122.143714 
L 810.323881 147.801347 
L 824.842883 161.561601 
L 839.361886 185.257795 
L 853.880889 195.836525 
L 868.399891 165.899499 
L 882.918894 164.705806 
L 897.437897 179.589887 
L 911.9569 176.409179 
L 926.475902 179.263661 
L 940.994905 179.046544 
L 949.706307 217.443173 
" style="fill:none;stroke:#d9534f;stroke-linecap:square;"/>
   </g>
   <g id="line2d_14">
    <path clip-path="url(#p5188b499d2)" d="M 81.469943 49.54788 
L 84.373744 49.92304 
L 87.277544 53.201615 
L 90.181345 56.504658 
L 93.085145 51.015898 
L 95.988946 49.710993 
L 98.892746 51.546016 
L 101.796547 53.340262 
L 104.700348 52.671498 
L 113.411749 50.453158 
L 127.930752 52.87702 
L 142.449755 49.221653 
L 156.968757 57.488231 
L 171.48776 52.656817 
L 186.006763 52.183789 
L 200.525766 57.382207 
L 215.044768 53.248918 
L 229.563771 61.753641 
L 244.082774 49.927933 
L 258.601777 49.789287 
L 273.120779 55.238899 
L 287.639782 55.428111 
L 302.158785 63.22166 
L 316.677788 56.772164 
L 331.19679 58.197773 
L 345.715793 56.24857 
L 360.234796 57.176684 
L 374.753798 57.02662 
L 389.272801 65.909766 
L 403.791804 57.393625 
L 418.310807 69.866892 
L 432.829809 61.632937 
L 447.348812 68.304268 
L 461.867815 64.298207 
L 476.386818 66.901494 
L 490.90582 70.553599 
L 505.424823 68.933885 
L 519.943826 72.411458 
L 534.462829 74.161663 
L 548.981831 73.952878 
L 563.500834 71.209314 
L 578.019837 75.448626 
L 592.53884 77.078127 
L 607.057842 72.041191 
L 621.576845 91.709382 
L 636.095848 91.313017 
L 650.61485 91.386418 
L 665.133853 91.342378 
L 679.652856 113.887886 
L 694.171859 105.069985 
L 708.690861 97.043184 
L 723.209864 100.171696 
L 737.728867 108.446429 
L 752.24787 124.226001 
L 766.766872 135.196995 
L 781.285875 152.65174 
L 795.804878 139.613342 
L 810.323881 169.216513 
L 824.842883 182.801829 
L 839.361886 198.162235 
L 853.880889 213.571198 
L 868.399891 210.555921 
L 882.918894 200.073142 
L 897.437897 217.940312 
L 911.9569 210.616558 
L 926.475902 218.156046 
L 940.994905 215.634847 
L 949.706307 240.675784 
" style="fill:none;stroke:#d9534f;stroke-linecap:square;"/>
   </g>
   <g id="line2d_15">
    <path clip-path="url(#p5188b499d2)" d="M 81.469943 49.4337 
L 84.373744 49.613125 
L 87.277544 55.191597 
L 90.181345 58.608818 
L 93.085145 50.192177 
L 95.988946 48.495799 
L 98.892746 51.537861 
L 101.796547 50.534714 
L 104.700348 52.377894 
L 113.411749 48.479488 
L 127.930752 53.9291 
L 142.449755 49.422282 
L 156.968757 56.547067 
L 171.48776 51.992947 
L 186.006763 52.482286 
L 200.525766 58.161888 
L 215.044768 53.767618 
L 229.563771 62.51538 
L 244.082774 51.891816 
L 258.601777 51.3356 
L 273.120779 55.480307 
L 287.639782 54.320572 
L 302.158785 62.986777 
L 316.677788 55.413431 
L 331.19679 57.142431 
L 345.715793 54.610914 
L 360.234796 55.842418 
L 374.753798 56.72323 
L 389.272801 64.963709 
L 403.791804 56.142547 
L 418.310807 67.793723 
L 432.829809 60.132296 
L 447.348812 67.328851 
L 461.867815 64.063324 
L 476.386818 66.240886 
L 490.90582 72.599039 
L 505.424823 65.991322 
L 519.943826 69.175292 
L 534.462829 72.181469 
L 548.981831 75.541601 
L 563.500834 68.45107 
L 578.019837 75.022901 
L 592.53884 76.56269 
L 607.057842 71.804677 
L 621.576845 90.623048 
L 636.095848 84.97785 
L 650.61485 87.944288 
L 665.133853 89.322088 
L 679.652856 108.594944 
L 694.171859 100.833174 
L 708.690861 97.824242 
L 723.209864 100.063371 
L 737.728867 111.015491 
L 752.24787 119.615709 
L 766.766872 129.149169 
L 781.285875 138.617254 
L 795.804878 141.980851 
L 810.323881 165.325754 
L 824.842883 177.603765 
L 839.361886 196.57228 
L 853.880889 208.135175 
L 868.399891 198.648642 
L 882.918894 191.137698 
L 897.437897 203.250364 
L 911.9569 201.347377 
L 926.475902 214.577671 
L 940.994905 212.210625 
L 949.706307 237.358626 
" style="fill:none;stroke:#d9534f;stroke-linecap:square;"/>
   </g>
   <g id="line2d_16">
    <path clip-path="url(#p5188b499d2)" d="M 81.469943 47.443719 
L 84.373744 46.70971 
L 87.277544 51.203479 
L 90.181345 54.539144 
L 93.085145 48.112483 
L 95.988946 45.445582 
L 98.892746 50.322667 
L 101.796547 47.443719 
L 104.700348 50.632582 
L 113.411749 46.633046 
L 127.930752 53.498482 
L 142.449755 48.647495 
L 156.968757 54.305892 
L 171.48776 49.958925 
L 186.006763 50.34061 
L 200.525766 58.215716 
L 215.044768 51.891816 
L 229.563771 59.801176 
L 244.082774 48.970459 
L 258.601777 50.143243 
L 273.120779 52.885176 
L 287.639782 49.802336 
L 302.158785 58.204298 
L 316.677788 50.966964 
L 331.19679 52.759579 
L 345.715793 49.927933 
L 360.234796 50.736975 
L 374.753798 51.413895 
L 389.272801 61.621519 
L 403.791804 50.25416 
L 418.310807 64.336757 
L 432.829809 56.116207 
L 447.348812 62.86769 
L 461.867815 59.275607 
L 476.386818 60.673254 
L 490.90582 64.369833 
L 505.424823 62.431741 
L 519.943826 65.746254 
L 534.462829 67.46229 
L 548.981831 70.910689 
L 563.500834 62.689718 
L 578.019837 71.537671 
L 592.53884 71.372762 
L 607.057842 64.895584 
L 621.576845 86.786062 
L 636.095848 83.884641 
L 650.61485 84.96641 
L 665.133853 83.879533 
L 679.652856 107.17138 
L 694.171859 97.07732 
L 708.690861 86.862315 
L 723.209864 89.300841 
L 737.728867 99.873444 
L 752.24787 116.544504 
L 766.766872 120.808025 
L 781.285875 140.095303 
L 795.804878 130.318327 
L 810.323881 159.574297 
L 824.842883 174.480727 
L 839.361886 197.533373 
L 853.880889 210.479726 
L 868.399891 169.902494 
L 882.918894 163.072276 
L 897.437897 175.887217 
L 911.9569 180.715368 
L 926.475902 190.078066 
L 940.994905 181.778441 
L 949.706307 217.148477 
" style="fill:none;stroke:#d9534f;stroke-linecap:square;"/>
   </g>
   <g id="line2d_17">
    <path clip-path="url(#p5188b499d2)" d="M 81.469943 49.24612 
L 84.373744 48.903582 
L 87.277544 54.449432 
L 90.181345 55.990851 
L 93.085145 48.634446 
L 95.988946 45.861521 
L 98.892746 50.502092 
L 101.796547 47.476342 
L 104.700348 50.901719 
L 113.411749 47.477973 
L 127.930752 53.619185 
L 142.449755 48.326162 
L 156.968757 53.549047 
L 171.48776 50.968596 
L 186.006763 50.735344 
L 200.525766 59.18787 
L 215.044768 51.98316 
L 229.563771 57.931899 
L 244.082774 49.69305 
L 258.601777 50.846261 
L 273.120779 53.062969 
L 287.639782 50.218275 
L 302.158785 59.742455 
L 316.677788 50.547764 
L 331.19679 52.464344 
L 345.715793 49.921409 
L 360.234796 50.601591 
L 374.753798 52.239248 
L 389.272801 62.078236 
L 403.791804 51.6814 
L 418.310807 61.601946 
L 432.829809 53.850806 
L 447.348812 61.24799 
L 461.867815 58.016717 
L 476.386818 58.463648 
L 490.90582 62.884016 
L 505.424823 60.536817 
L 519.943826 62.102703 
L 534.462829 65.497089 
L 548.981831 67.606143 
L 563.500834 59.768553 
L 578.019837 66.849298 
L 592.53884 67.94705 
L 607.057842 62.259292 
L 621.576845 81.413676 
L 636.095848 73.2205 
L 650.61485 79.376392 
L 665.133853 76.182636 
L 679.652856 95.121711 
L 694.171859 80.563857 
L 708.690861 83.410182 
L 723.209864 84.519352 
L 737.728867 94.682936 
L 752.24787 109.50014 
L 766.766872 110.036783 
L 781.285875 127.168563 
L 795.804878 117.561195 
L 810.323881 148.28347 
L 824.842883 163.580103 
L 839.361886 183.933434 
L 853.880889 194.958478 
L 868.399891 168.781814 
L 882.918894 167.825347 
L 897.437897 177.020854 
L 911.9569 161.451027 
L 926.475902 183.792633 
L 940.994905 188.089774 
L 949.706307 219.138402 
" style="fill:none;stroke:#d9534f;stroke-linecap:square;"/>
   </g>
   <g id="line2d_18">
    <path clip-path="url(#p5188b499d2)" d="M 81.469943 48.267441 
L 84.373744 48.030927 
L 87.277544 50.526559 
L 90.181345 53.103748 
L 93.085145 48.528422 
L 95.988946 45.037799 
L 98.892746 51.382903 
L 101.796547 47.32954 
L 104.700348 49.327677 
L 113.411749 47.145222 
L 127.930752 52.801988 
L 142.449755 47.672078 
L 156.968757 52.27187 
L 171.48776 49.378242 
L 186.006763 50.590173 
L 200.525766 55.97454 
L 215.044768 51.11866 
L 229.563771 55.97454 
L 244.082774 47.740585 
L 258.601777 49.348881 
L 273.120779 50.826687 
L 287.639782 48.985139 
L 302.158785 56.297504 
L 316.677788 48.941098 
L 331.19679 51.557434 
L 345.715793 48.849755 
L 360.234796 50.077997 
L 374.753798 50.290045 
L 389.272801 59.138936 
L 403.791804 49.911622 
L 418.310807 60.543341 
L 432.829809 52.83298 
L 447.348812 61.128918 
L 461.867815 57.419723 
L 476.386818 59.059011 
L 490.90582 62.001573 
L 505.424823 58.887742 
L 519.943826 62.810615 
L 534.462829 61.401317 
L 548.981831 66.081035 
L 563.500834 58.20756 
L 578.019837 65.06647 
L 592.53884 68.663117 
L 607.057842 59.566293 
L 621.576845 78.710891 
L 636.095848 77.317904 
L 650.61485 81.18858 
L 665.133853 78.143257 
L 679.652856 93.921197 
L 694.171859 82.637026 
L 708.690861 80.950435 
L 723.209864 81.229359 
L 737.728867 90.094562 
L 752.24787 110.044938 
L 766.766872 111.42977 
L 781.285875 133.611535 
L 795.804878 115.572845 
L 810.323881 143.077865 
L 824.842883 155.264471 
L 839.361886 175.652423 
L 853.880889 194.945793 
L 868.399891 160.010669 
L 882.918894 157.201497 
L 897.437897 169.038226 
L 911.9569 164.475464 
L 926.475902 178.031495 
L 940.994905 182.283206 
L 949.706307 211.97239 
" style="fill:none;stroke:#d9534f;stroke-linecap:square;"/>
   </g>
   <g id="line2d_19">
    <path clip-path="url(#p5188b499d2)" d="M 81.469943 48.512111 
L 84.373744 48.536578 
L 87.277544 53.495219 
L 90.181345 56.480191 
L 93.085145 49.156408 
L 95.988946 46.628153 
L 98.892746 50.608115 
L 101.796547 47.508964 
L 104.700348 47.810724 
L 113.411749 47.786257 
L 127.930752 52.410288 
L 142.449755 48.435915 
L 156.968757 53.327677 
L 171.48776 49.720554 
L 186.006763 50.013112 
L 200.525766 56.254889 
L 215.044768 50.818871 
L 229.563771 56.542543 
L 244.082774 49.530963 
L 258.601777 49.722188 
L 273.120779 51.81749 
L 287.639782 48.793849 
L 302.158785 57.500302 
L 316.677788 50.668507 
L 331.19679 51.31246 
L 345.715793 49.741801 
L 360.234796 50.894054 
L 374.753798 52.000543 
L 389.272801 58.198192 
L 403.791804 50.588421 
L 418.310807 60.218311 
L 432.829809 55.480183 
L 447.348812 61.401617 
L 461.867815 57.817376 
L 476.386818 59.554744 
L 490.90582 63.080147 
L 505.424823 59.891431 
L 519.943826 61.936066 
L 534.462829 64.175196 
L 548.981831 66.930796 
L 563.500834 61.303553 
L 578.019837 67.313245 
L 592.53884 66.853979 
L 607.057842 65.348696 
L 621.576845 82.70113 
L 636.095848 76.826781 
L 650.61485 78.440372 
L 665.133853 79.878257 
L 679.652856 101.58083 
L 694.171859 91.448486 
L 708.690861 86.392959 
L 723.209864 89.668325 
L 737.728867 96.073303 
L 752.24787 110.972941 
L 766.766872 120.586139 
L 781.285875 128.869539 
L 795.804878 129.632699 
L 810.323881 157.116081 
L 824.842883 167.268972 
L 839.361886 178.435217 
L 853.880889 196.833076 
L 868.399891 189.486808 
L 882.918894 171.332778 
L 897.437897 180.025519 
L 911.9569 185.694697 
L 926.475902 192.15955 
L 940.994905 197.295951 
L 949.706307 227.93793 
" style="fill:none;stroke:#d9534f;stroke-linecap:square;"/>
   </g>
   <g id="line2d_20">
    <path clip-path="url(#p5188b499d2)" d="M 81.469943 47.794413 
L 84.373744 47.778101 
L 87.277544 52.842766 
L 90.181345 54.221073 
L 93.085145 48.773092 
L 95.988946 45.804431 
L 98.892746 49.914884 
L 101.796547 47.859658 
L 104.700348 48.25113 
L 113.411749 46.58085 
L 127.930752 51.568852 
L 142.449755 47.672078 
L 156.968757 51.815153 
L 171.48776 48.500693 
L 186.006763 49.539724 
L 200.525766 56.13276 
L 215.044768 51.120291 
L 229.563771 56.475298 
L 244.082774 48.180991 
L 258.601777 48.808977 
L 273.120779 51.813522 
L 287.639782 49.427176 
L 302.158785 56.387216 
L 316.677788 49.081376 
L 331.19679 51.621048 
L 345.715793 49.402709 
L 360.234796 49.810492 
L 374.753798 50.433584 
L 389.272801 59.362401 
L 403.791804 49.942614 
L 418.310807 61.024525 
L 432.829809 54.154197 
L 447.348812 60.538448 
L 461.867815 58.473434 
L 476.386818 60.390015 
L 490.90582 61.725912 
L 505.424823 61.644355 
L 519.943826 64.847899 
L 534.462829 64.857686 
L 548.981831 66.583423 
L 563.500834 62.61651 
L 578.019837 70.168652 
L 592.53884 71.529016 
L 607.057842 64.182397 
L 621.576845 83.920726 
L 636.095848 84.941815 
L 650.61485 85.586112 
L 665.133853 84.145823 
L 679.652856 107.797238 
L 694.171859 98.600915 
L 708.690861 92.338999 
L 723.209864 91.543007 
L 737.728867 102.659172 
L 752.24787 121.038769 
L 766.766872 133.078155 
L 781.285875 149.531384 
L 795.804878 133.510405 
L 810.323881 166.965744 
L 824.842883 172.982496 
L 839.361886 189.270994 
L 853.880889 206.418056 
L 868.399891 181.748385 
L 882.918894 180.565835 
L 897.437897 186.032859 
L 911.9569 196.055736 
L 926.475902 205.026963 
L 940.994905 205.36574 
L 949.706307 227.918001 
" style="fill:none;stroke:#d9534f;stroke-linecap:square;"/>
   </g>
   <g id="line2d_21">
    <path clip-path="url(#p5188b499d2)" d="M 81.469943 48.985139 
L 84.373744 48.348997 
L 87.277544 53.707266 
L 90.181345 58.829021 
L 93.085145 50.371601 
L 95.988946 45.771809 
L 98.892746 50.885408 
L 101.796547 46.848356 
L 104.700348 49.849639 
L 113.411749 47.172951 
L 127.930752 52.872127 
L 142.449755 47.637824 
L 156.968757 53.676275 
L 171.48776 49.399447 
L 186.006763 50.608115 
L 200.525766 57.783466 
L 215.044768 51.779268 
L 229.563771 58.752358 
L 244.082774 49.665321 
L 258.601777 50.976751 
L 273.120779 52.510015 
L 287.639782 49.414127 
L 302.158785 59.892519 
L 316.677788 50.449896 
L 331.19679 52.076134 
L 345.715793 49.697944 
L 360.234796 50.244373 
L 374.753798 51.748277 
L 389.272801 60.766806 
L 403.791804 51.134971 
L 418.310807 62.557789 
L 432.829809 55.759231 
L 447.348812 61.83846 
L 461.867815 58.522368 
L 476.386818 61.159909 
L 490.90582 65.515032 
L 505.424823 61.000058 
L 519.943826 63.202086 
L 534.462829 66.986313 
L 548.981831 68.433127 
L 563.500834 61.236572 
L 578.019837 68.91268 
L 592.53884 69.537404 
L 607.057842 64.702728 
L 621.576845 85.023372 
L 636.095848 78.555933 
L 650.61485 82.119957 
L 665.133853 82.194989 
L 679.652856 102.951145 
L 694.171859 93.824961 
L 708.690861 86.145591 
L 723.209864 91.453295 
L 737.728867 102.73491 
L 752.24787 115.072081 
L 766.766872 126.654915 
L 781.285875 135.942082 
L 795.804878 132.123045 
L 810.323881 154.963662 
L 824.842883 154.985419 
L 839.361886 168.104548 
L 853.880889 191.364167 
L 868.399891 172.579334 
L 882.918894 162.548739 
L 897.437897 180.930343 
L 911.9569 174.322167 
L 926.475902 179.445595 
L 940.994905 194.146695 
L 949.706307 215.570988 
" style="fill:none;stroke:#d9534f;stroke-linecap:square;"/>
   </g>
   <g id="line2d_22">
    <path clip-path="url(#p5188b499d2)" d="M 81.469943 48.242974 
L 84.373744 48.088016 
L 87.277544 50.314512 
L 90.181345 53.984559 
L 93.085145 49.596814 
L 95.988946 46.057257 
L 98.892746 50.35529 
L 101.796547 48.348997 
L 104.700348 48.658913 
L 113.411749 47.153378 
L 127.930752 51.599844 
L 142.449755 47.355638 
L 156.968757 52.893331 
L 171.48776 49.525044 
L 186.006763 49.425545 
L 200.525766 55.305776 
L 215.044768 49.890417 
L 229.563771 57.424616 
L 244.082774 48.489275 
L 258.601777 48.521897 
L 273.120779 51.462829 
L 287.639782 48.882378 
L 302.158785 55.260104 
L 316.677788 49.688157 
L 331.19679 50.908244 
L 345.715793 49.363562 
L 360.234796 50.453158 
L 374.753798 50.790802 
L 389.272801 58.572934 
L 403.791804 50.250897 
L 418.310807 62.345742 
L 432.829809 54.871895 
L 447.348812 60.624898 
L 461.867815 57.820982 
L 476.386818 59.277583 
L 490.90582 64.394444 
L 505.424823 62.02604 
L 519.943826 65.495458 
L 534.462829 65.955437 
L 548.981831 69.261742 
L 563.500834 63.348888 
L 578.019837 71.179954 
L 592.53884 72.137428 
L 607.057842 65.242633 
L 621.576845 87.075336 
L 636.095848 87.559782 
L 650.61485 86.470186 
L 665.133853 88.257907 
L 679.652856 111.318853 
L 694.171859 101.99367 
L 708.690861 90.538229 
L 723.209864 94.448053 
L 737.728867 105.945903 
L 752.24787 123.645318 
L 766.766872 135.40578 
L 781.285875 153.393905 
L 795.804878 140.198047 
L 810.323881 168.650827 
L 824.842883 172.002235 
L 839.361886 192.348965 
L 853.880889 206.991462 
L 868.399891 171.757457 
L 882.918894 161.301369 
L 897.437897 179.331992 
L 911.9569 181.293759 
L 926.475902 169.809707 
L 940.994905 184.124807 
L 949.706307 216.966114 
" style="fill:none;stroke:#d9534f;stroke-linecap:square;"/>
   </g>
   <g id="line2d_23">
    <path clip-path="url(#p5188b499d2)" d="M 81.469943 48.348997 
L 84.373744 47.990148 
L 87.277544 52.190314 
L 90.181345 53.829601 
L 93.085145 48.936205 
L 95.988946 45.388493 
L 98.892746 48.699691 
L 101.796547 46.668931 
L 104.700348 49.401078 
L 113.411749 46.804315 
L 127.930752 51.924609 
L 142.449755 47.361322 
L 156.968757 52.132261 
L 171.48776 49.056132 
L 186.006763 49.335334 
L 200.525766 55.756999 
L 215.044768 49.720667 
L 229.563771 56.209274 
L 244.082774 48.205461 
L 258.601777 48.496093 
L 273.120779 51.149336 
L 287.639782 48.602223 
L 302.158785 56.096614 
L 316.677788 49.132872 
L 331.19679 50.328055 
L 345.715793 47.475615 
L 360.234796 49.408809 
L 374.753798 49.972113 
L 389.272801 57.77183 
L 403.791804 49.689644 
L 418.310807 58.588213 
L 432.829809 54.738153 
L 447.348812 59.37194 
L 461.867815 56.405206 
L 476.386818 59.889527 
L 490.90582 61.940279 
L 505.424823 58.942523 
L 519.943826 60.240571 
L 534.462829 63.768976 
L 548.981831 67.03124 
L 563.500834 60.658559 
L 578.019837 67.344731 
L 592.53884 68.833813 
L 607.057842 64.405754 
L 621.576845 83.061726 
L 636.095848 78.973282 
L 650.61485 79.371677 
L 665.133853 80.576657 
L 679.652856 102.992886 
L 694.171859 91.757831 
L 708.690861 87.976348 
L 723.209864 89.439305 
L 737.728867 99.381211 
L 752.24787 111.132219 
L 766.766872 127.030451 
L 781.285875 137.320135 
L 795.804878 135.747783 
L 810.323881 160.846944 
L 824.842883 166.899483 
L 839.361886 178.773814 
L 853.880889 192.107544 
L 868.399891 174.889113 
L 882.918894 164.138047 
L 897.437897 182.770595 
L 911.9569 177.472538 
L 926.475902 200.257602 
L 940.994905 203.383891 
L 949.706307 217.332961 
" style="fill:none;stroke:#d9534f;stroke-linecap:square;"/>
   </g>
   <g id="line2d_24">
    <path clip-path="url(#p5188b499d2)" d="M 81.469943 47.875969 
L 84.373744 46.921757 
L 87.277544 51.374748 
L 90.181345 54.294474 
L 93.085145 48.936205 
L 95.988946 45.698408 
L 98.892746 51.301347 
L 101.796547 48.039082 
L 104.700348 49.140097 
L 113.411749 47.163164 
L 127.930752 53.124952 
L 142.449755 47.691651 
L 156.968757 53.757832 
L 171.48776 49.308103 
L 186.006763 50.205226 
L 200.525766 57.287601 
L 215.044768 51.91139 
L 229.563771 58.088487 
L 244.082774 48.996557 
L 258.601777 49.252645 
L 273.120779 52.428459 
L 287.639782 49.066696 
L 302.158785 57.197889 
L 316.677788 49.789287 
L 331.19679 52.492073 
L 345.715793 49.603338 
L 360.234796 50.479256 
L 374.753798 50.389544 
L 389.272801 59.106314 
L 403.791804 50.921293 
L 418.310807 63.844752 
L 432.829809 54.852321 
L 447.348812 61.37685 
L 461.867815 58.060758 
L 476.386818 60.884248 
L 490.90582 65.214903 
L 505.424823 62.052138 
L 519.943826 66.058199 
L 534.462829 67.170631 
L 548.981831 69.354717 
L 563.500834 61.380112 
L 578.019837 71.196265 
L 592.53884 74.050746 
L 607.057842 66.072879 
L 621.576845 87.58588 
L 636.095848 90.970479 
L 650.61485 87.731051 
L 665.133853 89.101202 
L 679.652856 111.798405 
L 694.171859 100.621888 
L 708.690861 96.177053 
L 723.209864 94.289833 
L 737.728867 106.203622 
L 752.24787 123.999274 
L 766.766872 135.536271 
L 781.285875 153.738074 
L 795.804878 142.305469 
L 810.323881 172.994578 
L 824.842883 175.4305 
L 839.361886 200.565656 
L 853.880889 209.832846 
L 868.399891 190.822714 
L 882.918894 167.595718 
L 897.437897 193.96123 
L 911.9569 192.330098 
L 926.475902 198.13265 
L 940.994905 203.893053 
L 949.706307 233.791854 
" style="fill:none;stroke:#d9534f;stroke-linecap:square;"/>
   </g>
   <g id="line2d_25">
    <path clip-path="url(#p5188b499d2)" d="M 38.058125 353.2239 
L 993.118125 353.2239 
" style="fill:none;stroke:#dedede;stroke-linecap:square;stroke-width:2;"/>
   </g>
   <g id="text_18">
    <!-- FastQC: Mean Quality Scores -->
    <defs>
     <path d="M 9.8125 72.90625 
L 51.703125 72.90625 
L 51.703125 64.59375 
L 19.671875 64.59375 
L 19.671875 43.109375 
L 48.578125 43.109375 
L 48.578125 34.8125 
L 19.671875 34.8125 
L 19.671875 0 
L 9.8125 0 
z
" id="DejaVuSans-70"/>
     <path d="M 34.28125 27.484375 
Q 23.390625 27.484375 19.1875 25 
Q 14.984375 22.515625 14.984375 16.5 
Q 14.984375 11.71875 18.140625 8.90625 
Q 21.296875 6.109375 26.703125 6.109375 
Q 34.1875 6.109375 38.703125 11.40625 
Q 43.21875 16.703125 43.21875 25.484375 
L 43.21875 27.484375 
z
M 52.203125 31.203125 
L 52.203125 0 
L 43.21875 0 
L 43.21875 8.296875 
Q 40.140625 3.328125 35.546875 0.953125 
Q 30.953125 -1.421875 24.3125 -1.421875 
Q 15.921875 -1.421875 10.953125 3.296875 
Q 6 8.015625 6 15.921875 
Q 6 25.140625 12.171875 29.828125 
Q 18.359375 34.515625 30.609375 34.515625 
L 43.21875 34.515625 
L 43.21875 35.40625 
Q 43.21875 41.609375 39.140625 45 
Q 35.0625 48.390625 27.6875 48.390625 
Q 23 48.390625 18.546875 47.265625 
Q 14.109375 46.140625 10.015625 43.890625 
L 10.015625 52.203125 
Q 14.9375 54.109375 19.578125 55.046875 
Q 24.21875 56 28.609375 56 
Q 40.484375 56 46.34375 49.84375 
Q 52.203125 43.703125 52.203125 31.203125 
z
" id="DejaVuSans-97"/>
     <path d="M 39.40625 66.21875 
Q 28.65625 66.21875 22.328125 58.203125 
Q 16.015625 50.203125 16.015625 36.375 
Q 16.015625 22.609375 22.328125 14.59375 
Q 28.65625 6.59375 39.40625 6.59375 
Q 50.140625 6.59375 56.421875 14.59375 
Q 62.703125 22.609375 62.703125 36.375 
Q 62.703125 50.203125 56.421875 58.203125 
Q 50.140625 66.21875 39.40625 66.21875 
z
M 53.21875 1.3125 
L 66.21875 -12.890625 
L 54.296875 -12.890625 
L 43.5 -1.21875 
Q 41.890625 -1.3125 41.03125 -1.359375 
Q 40.1875 -1.421875 39.40625 -1.421875 
Q 24.03125 -1.421875 14.8125 8.859375 
Q 5.609375 19.140625 5.609375 36.375 
Q 5.609375 53.65625 14.8125 63.9375 
Q 24.03125 74.21875 39.40625 74.21875 
Q 54.734375 74.21875 63.90625 63.9375 
Q 73.09375 53.65625 73.09375 36.375 
Q 73.09375 23.6875 67.984375 14.640625 
Q 62.890625 5.609375 53.21875 1.3125 
z
" id="DejaVuSans-81"/>
     <path d="M 64.40625 67.28125 
L 64.40625 56.890625 
Q 59.421875 61.53125 53.78125 63.8125 
Q 48.140625 66.109375 41.796875 66.109375 
Q 29.296875 66.109375 22.65625 58.46875 
Q 16.015625 50.828125 16.015625 36.375 
Q 16.015625 21.96875 22.65625 14.328125 
Q 29.296875 6.6875 41.796875 6.6875 
Q 48.140625 6.6875 53.78125 8.984375 
Q 59.421875 11.28125 64.40625 15.921875 
L 64.40625 5.609375 
Q 59.234375 2.09375 53.4375 0.328125 
Q 47.65625 -1.421875 41.21875 -1.421875 
Q 24.65625 -1.421875 15.125 8.703125 
Q 5.609375 18.84375 5.609375 36.375 
Q 5.609375 53.953125 15.125 64.078125 
Q 24.65625 74.21875 41.21875 74.21875 
Q 47.75 74.21875 53.53125 72.484375 
Q 59.328125 70.75 64.40625 67.28125 
z
" id="DejaVuSans-67"/>
     <path d="M 11.71875 12.40625 
L 22.015625 12.40625 
L 22.015625 0 
L 11.71875 0 
z
M 11.71875 51.703125 
L 22.015625 51.703125 
L 22.015625 39.3125 
L 11.71875 39.3125 
z
" id="DejaVuSans-58"/>
     <path d="M 9.8125 72.90625 
L 24.515625 72.90625 
L 43.109375 23.296875 
L 61.8125 72.90625 
L 76.515625 72.90625 
L 76.515625 0 
L 66.890625 0 
L 66.890625 64.015625 
L 48.09375 14.015625 
L 38.1875 14.015625 
L 19.390625 64.015625 
L 19.390625 0 
L 9.8125 0 
z
" id="DejaVuSans-77"/>
     <path d="M 8.5 21.578125 
L 8.5 54.6875 
L 17.484375 54.6875 
L 17.484375 21.921875 
Q 17.484375 14.15625 20.5 10.265625 
Q 23.53125 6.390625 29.59375 6.390625 
Q 36.859375 6.390625 41.078125 11.03125 
Q 45.3125 15.671875 45.3125 23.6875 
L 45.3125 54.6875 
L 54.296875 54.6875 
L 54.296875 0 
L 45.3125 0 
L 45.3125 8.40625 
Q 42.046875 3.421875 37.71875 1 
Q 33.40625 -1.421875 27.6875 -1.421875 
Q 18.265625 -1.421875 13.375 4.4375 
Q 8.5 10.296875 8.5 21.578125 
z
M 31.109375 56 
z
" id="DejaVuSans-117"/>
     <path d="M 9.421875 75.984375 
L 18.40625 75.984375 
L 18.40625 0 
L 9.421875 0 
z
" id="DejaVuSans-108"/>
     <path d="M 32.171875 -5.078125 
Q 28.375 -14.84375 24.75 -17.8125 
Q 21.140625 -20.796875 15.09375 -20.796875 
L 7.90625 -20.796875 
L 7.90625 -13.28125 
L 13.1875 -13.28125 
Q 16.890625 -13.28125 18.9375 -11.515625 
Q 21 -9.765625 23.484375 -3.21875 
L 25.09375 0.875 
L 2.984375 54.6875 
L 12.5 54.6875 
L 29.59375 11.921875 
L 46.6875 54.6875 
L 56.203125 54.6875 
z
" id="DejaVuSans-121"/>
    </defs>
    <g transform="translate(400.349375 19.3575)scale(0.16 -0.16)">
     <use xlink:href="#DejaVuSans-70"/>
     <use x="48.394531" xlink:href="#DejaVuSans-97"/>
     <use x="109.673828" xlink:href="#DejaVuSans-115"/>
     <use x="161.773438" xlink:href="#DejaVuSans-116"/>
     <use x="200.982422" xlink:href="#DejaVuSans-81"/>
     <use x="279.693359" xlink:href="#DejaVuSans-67"/>
     <use x="349.517578" xlink:href="#DejaVuSans-58"/>
     <use x="383.208984" xlink:href="#DejaVuSans-32"/>
     <use x="414.996094" xlink:href="#DejaVuSans-77"/>
     <use x="501.275391" xlink:href="#DejaVuSans-101"/>
     <use x="562.798828" xlink:href="#DejaVuSans-97"/>
     <use x="624.078125" xlink:href="#DejaVuSans-110"/>
     <use x="687.457031" xlink:href="#DejaVuSans-32"/>
     <use x="719.244141" xlink:href="#DejaVuSans-81"/>
     <use x="797.955078" xlink:href="#DejaVuSans-117"/>
     <use x="861.333984" xlink:href="#DejaVuSans-97"/>
     <use x="922.613281" xlink:href="#DejaVuSans-108"/>
     <use x="950.396484" xlink:href="#DejaVuSans-105"/>
     <use x="978.179688" xlink:href="#DejaVuSans-116"/>
     <use x="1017.388672" xlink:href="#DejaVuSans-121"/>
     <use x="1076.568359" xlink:href="#DejaVuSans-32"/>
     <use x="1108.355469" xlink:href="#DejaVuSans-83"/>
     <use x="1171.832031" xlink:href="#DejaVuSans-99"/>
     <use x="1226.8125" xlink:href="#DejaVuSans-111"/>
     <use x="1287.994141" xlink:href="#DejaVuSans-114"/>
     <use x="1326.857422" xlink:href="#DejaVuSans-101"/>
     <use x="1388.380859" xlink:href="#DejaVuSans-115"/>
    </g>
   </g>
  </g>
 </g>
 <defs>
  <clipPath id="p5188b499d2">
   <rect height="317.968" width="955.06" x="38.058125" y="35.2559"/>
  </clipPath>
 </defs>
</svg>
