<?xml version="1.0" encoding="utf-8" standalone="no"?>
<!DOCTYPE svg PUBLIC "-//W3C//DTD SVG 1.1//EN"
  "http://www.w3.org/Graphics/SVG/1.1/DTD/svg11.dtd">
<!-- Created with matplotlib (https://matplotlib.org/) -->
<svg height="388.844525pt" version="1.1" viewBox="0 0 1000.278125 388.844525" width="1000.278125pt" xmlns="http://www.w3.org/2000/svg" xmlns:xlink="http://www.w3.org/1999/xlink">
 <defs>
  <style type="text/css">
*{stroke-linecap:butt;stroke-linejoin:round;}
  </style>
 </defs>
 <g id="figure_1">
  <g id="axes_1">
   <g id="patch_1">
    <path d="M 43.148125 353.2239 
L 993.078125 353.2239 
L 993.078125 35.2559 
L 43.148125 35.2559 
z
" style="fill:#ffffff;"/>
   </g>
   <g id="matplotlib.axis_1">
    <g id="xtick_1">
     <g id="text_1">
      <!-- 0 -->
      <defs>
       <path d="M 31.78125 66.40625 
Q 24.171875 66.40625 20.328125 58.90625 
Q 16.5 51.421875 16.5 36.375 
Q 16.5 21.390625 20.328125 13.890625 
Q 24.171875 6.390625 31.78125 6.390625 
Q 39.453125 6.390625 43.28125 13.890625 
Q 47.125 21.390625 47.125 36.375 
Q 47.125 51.421875 43.28125 58.90625 
Q 39.453125 66.40625 31.78125 66.40625 
z
M 31.78125 74.21875 
Q 44.046875 74.21875 50.515625 64.515625 
Q 56.984375 54.828125 56.984375 36.375 
Q 56.984375 17.96875 50.515625 8.265625 
Q 44.046875 -1.421875 31.78125 -1.421875 
Q 19.53125 -1.421875 13.0625 8.265625 
Q 6.59375 17.96875 6.59375 36.375 
Q 6.59375 54.828125 13.0625 64.515625 
Q 19.53125 74.21875 31.78125 74.21875 
z
" id="DejaVuSans-48"/>
      </defs>
      <g transform="translate(41.656262 366.30265)scale(0.08 -0.08)">
       <use xlink:href="#DejaVuSans-48"/>
      </g>
     </g>
    </g>
    <g id="xtick_2">
     <g id="text_2">
      <!-- 50 -->
      <defs>
       <path d="M 10.796875 72.90625 
L 49.515625 72.90625 
L 49.515625 64.59375 
L 19.828125 64.59375 
L 19.828125 46.734375 
Q 21.96875 47.46875 24.109375 47.828125 
Q 26.265625 48.1875 28.421875 48.1875 
Q 40.625 48.1875 47.75 41.5 
Q 54.890625 34.8125 54.890625 23.390625 
Q 54.890625 11.625 47.5625 5.09375 
Q 40.234375 -1.421875 26.90625 -1.421875 
Q 22.3125 -1.421875 17.546875 -0.640625 
Q 12.796875 0.140625 7.71875 1.703125 
L 7.71875 11.625 
Q 12.109375 9.234375 16.796875 8.0625 
Q 21.484375 6.890625 26.703125 6.890625 
Q 35.15625 6.890625 40.078125 11.328125 
Q 45.015625 15.765625 45.015625 23.390625 
Q 45.015625 31 40.078125 35.4375 
Q 35.15625 39.890625 26.703125 39.890625 
Q 22.75 39.890625 18.8125 39.015625 
Q 14.890625 38.140625 10.796875 36.28125 
z
" id="DejaVuSans-53"/>
      </defs>
      <g transform="translate(189.559473 366.30265)scale(0.08 -0.08)">
       <use xlink:href="#DejaVuSans-53"/>
       <use x="63.623047" xlink:href="#DejaVuSans-48"/>
      </g>
     </g>
    </g>
    <g id="xtick_3">
     <g id="text_3">
      <!-- 100 -->
      <defs>
       <path d="M 12.40625 8.296875 
L 28.515625 8.296875 
L 28.515625 63.921875 
L 10.984375 60.40625 
L 10.984375 69.390625 
L 28.421875 72.90625 
L 38.28125 72.90625 
L 38.28125 8.296875 
L 54.390625 8.296875 
L 54.390625 0 
L 12.40625 0 
z
" id="DejaVuSans-49"/>
      </defs>
      <g transform="translate(337.462683 366.30265)scale(0.08 -0.08)">
       <use xlink:href="#DejaVuSans-49"/>
       <use x="63.623047" xlink:href="#DejaVuSans-48"/>
       <use x="127.246094" xlink:href="#DejaVuSans-48"/>
      </g>
     </g>
    </g>
    <g id="xtick_4">
     <g id="text_4">
      <!-- 150 -->
      <g transform="translate(487.910893 366.30265)scale(0.08 -0.08)">
       <use xlink:href="#DejaVuSans-49"/>
       <use x="63.623047" xlink:href="#DejaVuSans-53"/>
       <use x="127.246094" xlink:href="#DejaVuSans-48"/>
      </g>
     </g>
    </g>
    <g id="xtick_5">
     <g id="text_5">
      <!-- 200 -->
      <defs>
       <path d="M 19.1875 8.296875 
L 53.609375 8.296875 
L 53.609375 0 
L 7.328125 0 
L 7.328125 8.296875 
Q 12.9375 14.109375 22.625 23.890625 
Q 32.328125 33.6875 34.8125 36.53125 
Q 39.546875 41.84375 41.421875 45.53125 
Q 43.3125 49.21875 43.3125 52.78125 
Q 43.3125 58.59375 39.234375 62.25 
Q 35.15625 65.921875 28.609375 65.921875 
Q 23.96875 65.921875 18.8125 64.3125 
Q 13.671875 62.703125 7.8125 59.421875 
L 7.8125 69.390625 
Q 13.765625 71.78125 18.9375 73 
Q 24.125 74.21875 28.421875 74.21875 
Q 39.75 74.21875 46.484375 68.546875 
Q 53.21875 62.890625 53.21875 53.421875 
Q 53.21875 48.921875 51.53125 44.890625 
Q 49.859375 40.875 45.40625 35.40625 
Q 44.1875 33.984375 37.640625 27.21875 
Q 31.109375 20.453125 19.1875 8.296875 
z
" id="DejaVuSans-50"/>
      </defs>
      <g transform="translate(638.359104 366.30265)scale(0.08 -0.08)">
       <use xlink:href="#DejaVuSans-50"/>
       <use x="63.623047" xlink:href="#DejaVuSans-48"/>
       <use x="127.246094" xlink:href="#DejaVuSans-48"/>
      </g>
     </g>
    </g>
    <g id="xtick_6">
     <g id="text_6">
      <!-- 250 -->
      <g transform="translate(788.807314 366.30265)scale(0.08 -0.08)">
       <use xlink:href="#DejaVuSans-50"/>
       <use x="63.623047" xlink:href="#DejaVuSans-53"/>
       <use x="127.246094" xlink:href="#DejaVuSans-48"/>
      </g>
     </g>
    </g>
    <g id="xtick_7">
     <g id="text_7">
      <!-- 300 -->
      <defs>
       <path d="M 40.578125 39.3125 
Q 47.65625 37.796875 51.625 33 
Q 55.609375 28.21875 55.609375 21.1875 
Q 55.609375 10.40625 48.1875 4.484375 
Q 40.765625 -1.421875 27.09375 -1.421875 
Q 22.515625 -1.421875 17.65625 -0.515625 
Q 12.796875 0.390625 7.625 2.203125 
L 7.625 11.71875 
Q 11.71875 9.328125 16.59375 8.109375 
Q 21.484375 6.890625 26.8125 6.890625 
Q 36.078125 6.890625 40.9375 10.546875 
Q 45.796875 14.203125 45.796875 21.1875 
Q 45.796875 27.640625 41.28125 31.265625 
Q 36.765625 34.90625 28.71875 34.90625 
L 20.21875 34.90625 
L 20.21875 43.015625 
L 29.109375 43.015625 
Q 36.375 43.015625 40.234375 45.921875 
Q 44.09375 48.828125 44.09375 54.296875 
Q 44.09375 59.90625 40.109375 62.90625 
Q 36.140625 65.921875 28.71875 65.921875 
Q 24.65625 65.921875 20.015625 65.03125 
Q 15.375 64.15625 9.8125 62.3125 
L 9.8125 71.09375 
Q 15.4375 72.65625 20.34375 73.4375 
Q 25.25 74.21875 29.59375 74.21875 
Q 40.828125 74.21875 47.359375 69.109375 
Q 53.90625 64.015625 53.90625 55.328125 
Q 53.90625 49.265625 50.4375 45.09375 
Q 46.96875 40.921875 40.578125 39.3125 
z
" id="DejaVuSans-51"/>
      </defs>
      <g transform="translate(939.255524 366.30265)scale(0.08 -0.08)">
       <use xlink:href="#DejaVuSans-51"/>
       <use x="63.623047" xlink:href="#DejaVuSans-48"/>
       <use x="127.246094" xlink:href="#DejaVuSans-48"/>
      </g>
     </g>
    </g>
    <g id="text_8">
     <!-- Sequence Length (bp) -->
     <defs>
      <path d="M 53.515625 70.515625 
L 53.515625 60.890625 
Q 47.90625 63.578125 42.921875 64.890625 
Q 37.9375 66.21875 33.296875 66.21875 
Q 25.25 66.21875 20.875 63.09375 
Q 16.5 59.96875 16.5 54.203125 
Q 16.5 49.359375 19.40625 46.890625 
Q 22.3125 44.4375 30.421875 42.921875 
L 36.375 41.703125 
Q 47.40625 39.59375 52.65625 34.296875 
Q 57.90625 29 57.90625 20.125 
Q 57.90625 9.515625 50.796875 4.046875 
Q 43.703125 -1.421875 29.984375 -1.421875 
Q 24.8125 -1.421875 18.96875 -0.25 
Q 13.140625 0.921875 6.890625 3.21875 
L 6.890625 13.375 
Q 12.890625 10.015625 18.65625 8.296875 
Q 24.421875 6.59375 29.984375 6.59375 
Q 38.421875 6.59375 43.015625 9.90625 
Q 47.609375 13.234375 47.609375 19.390625 
Q 47.609375 24.75 44.3125 27.78125 
Q 41.015625 30.8125 33.5 32.328125 
L 27.484375 33.5 
Q 16.453125 35.6875 11.515625 40.375 
Q 6.59375 45.0625 6.59375 53.421875 
Q 6.59375 63.09375 13.40625 68.65625 
Q 20.21875 74.21875 32.171875 74.21875 
Q 37.3125 74.21875 42.625 73.28125 
Q 47.953125 72.359375 53.515625 70.515625 
z
" id="DejaVuSans-83"/>
      <path d="M 56.203125 29.59375 
L 56.203125 25.203125 
L 14.890625 25.203125 
Q 15.484375 15.921875 20.484375 11.0625 
Q 25.484375 6.203125 34.421875 6.203125 
Q 39.59375 6.203125 44.453125 7.46875 
Q 49.3125 8.734375 54.109375 11.28125 
L 54.109375 2.78125 
Q 49.265625 0.734375 44.1875 -0.34375 
Q 39.109375 -1.421875 33.890625 -1.421875 
Q 20.796875 -1.421875 13.15625 6.1875 
Q 5.515625 13.8125 5.515625 26.8125 
Q 5.515625 40.234375 12.765625 48.109375 
Q 20.015625 56 32.328125 56 
Q 43.359375 56 49.78125 48.890625 
Q 56.203125 41.796875 56.203125 29.59375 
z
M 47.21875 32.234375 
Q 47.125 39.59375 43.09375 43.984375 
Q 39.0625 48.390625 32.421875 48.390625 
Q 24.90625 48.390625 20.390625 44.140625 
Q 15.875 39.890625 15.1875 32.171875 
z
" id="DejaVuSans-101"/>
      <path d="M 14.796875 27.296875 
Q 14.796875 17.390625 18.875 11.75 
Q 22.953125 6.109375 30.078125 6.109375 
Q 37.203125 6.109375 41.296875 11.75 
Q 45.40625 17.390625 45.40625 27.296875 
Q 45.40625 37.203125 41.296875 42.84375 
Q 37.203125 48.484375 30.078125 48.484375 
Q 22.953125 48.484375 18.875 42.84375 
Q 14.796875 37.203125 14.796875 27.296875 
z
M 45.40625 8.203125 
Q 42.578125 3.328125 38.25 0.953125 
Q 33.9375 -1.421875 27.875 -1.421875 
Q 17.96875 -1.421875 11.734375 6.484375 
Q 5.515625 14.40625 5.515625 27.296875 
Q 5.515625 40.1875 11.734375 48.09375 
Q 17.96875 56 27.875 56 
Q 33.9375 56 38.25 53.625 
Q 42.578125 51.265625 45.40625 46.390625 
L 45.40625 54.6875 
L 54.390625 54.6875 
L 54.390625 -20.796875 
L 45.40625 -20.796875 
z
" id="DejaVuSans-113"/>
      <path d="M 8.5 21.578125 
L 8.5 54.6875 
L 17.484375 54.6875 
L 17.484375 21.921875 
Q 17.484375 14.15625 20.5 10.265625 
Q 23.53125 6.390625 29.59375 6.390625 
Q 36.859375 6.390625 41.078125 11.03125 
Q 45.3125 15.671875 45.3125 23.6875 
L 45.3125 54.6875 
L 54.296875 54.6875 
L 54.296875 0 
L 45.3125 0 
L 45.3125 8.40625 
Q 42.046875 3.421875 37.71875 1 
Q 33.40625 -1.421875 27.6875 -1.421875 
Q 18.265625 -1.421875 13.375 4.4375 
Q 8.5 10.296875 8.5 21.578125 
z
M 31.109375 56 
z
" id="DejaVuSans-117"/>
      <path d="M 54.890625 33.015625 
L 54.890625 0 
L 45.90625 0 
L 45.90625 32.71875 
Q 45.90625 40.484375 42.875 44.328125 
Q 39.84375 48.1875 33.796875 48.1875 
Q 26.515625 48.1875 22.3125 43.546875 
Q 18.109375 38.921875 18.109375 30.90625 
L 18.109375 0 
L 9.078125 0 
L 9.078125 54.6875 
L 18.109375 54.6875 
L 18.109375 46.1875 
Q 21.34375 51.125 25.703125 53.5625 
Q 30.078125 56 35.796875 56 
Q 45.21875 56 50.046875 50.171875 
Q 54.890625 44.34375 54.890625 33.015625 
z
" id="DejaVuSans-110"/>
      <path d="M 48.78125 52.59375 
L 48.78125 44.1875 
Q 44.96875 46.296875 41.140625 47.34375 
Q 37.3125 48.390625 33.40625 48.390625 
Q 24.65625 48.390625 19.8125 42.84375 
Q 14.984375 37.3125 14.984375 27.296875 
Q 14.984375 17.28125 19.8125 11.734375 
Q 24.65625 6.203125 33.40625 6.203125 
Q 37.3125 6.203125 41.140625 7.25 
Q 44.96875 8.296875 48.78125 10.40625 
L 48.78125 2.09375 
Q 45.015625 0.34375 40.984375 -0.53125 
Q 36.96875 -1.421875 32.421875 -1.421875 
Q 20.0625 -1.421875 12.78125 6.34375 
Q 5.515625 14.109375 5.515625 27.296875 
Q 5.515625 40.671875 12.859375 48.328125 
Q 20.21875 56 33.015625 56 
Q 37.15625 56 41.109375 55.140625 
Q 45.0625 54.296875 48.78125 52.59375 
z
" id="DejaVuSans-99"/>
      <path id="DejaVuSans-32"/>
      <path d="M 9.8125 72.90625 
L 19.671875 72.90625 
L 19.671875 8.296875 
L 55.171875 8.296875 
L 55.171875 0 
L 9.8125 0 
z
" id="DejaVuSans-76"/>
      <path d="M 45.40625 27.984375 
Q 45.40625 37.75 41.375 43.109375 
Q 37.359375 48.484375 30.078125 48.484375 
Q 22.859375 48.484375 18.828125 43.109375 
Q 14.796875 37.75 14.796875 27.984375 
Q 14.796875 18.265625 18.828125 12.890625 
Q 22.859375 7.515625 30.078125 7.515625 
Q 37.359375 7.515625 41.375 12.890625 
Q 45.40625 18.265625 45.40625 27.984375 
z
M 54.390625 6.78125 
Q 54.390625 -7.171875 48.1875 -13.984375 
Q 42 -20.796875 29.203125 -20.796875 
Q 24.46875 -20.796875 20.265625 -20.09375 
Q 16.0625 -19.390625 12.109375 -17.921875 
L 12.109375 -9.1875 
Q 16.0625 -11.328125 19.921875 -12.34375 
Q 23.78125 -13.375 27.78125 -13.375 
Q 36.625 -13.375 41.015625 -8.765625 
Q 45.40625 -4.15625 45.40625 5.171875 
L 45.40625 9.625 
Q 42.625 4.78125 38.28125 2.390625 
Q 33.9375 0 27.875 0 
Q 17.828125 0 11.671875 7.65625 
Q 5.515625 15.328125 5.515625 27.984375 
Q 5.515625 40.671875 11.671875 48.328125 
Q 17.828125 56 27.875 56 
Q 33.9375 56 38.28125 53.609375 
Q 42.625 51.21875 45.40625 46.390625 
L 45.40625 54.6875 
L 54.390625 54.6875 
z
" id="DejaVuSans-103"/>
      <path d="M 18.3125 70.21875 
L 18.3125 54.6875 
L 36.8125 54.6875 
L 36.8125 47.703125 
L 18.3125 47.703125 
L 18.3125 18.015625 
Q 18.3125 11.328125 20.140625 9.421875 
Q 21.96875 7.515625 27.59375 7.515625 
L 36.8125 7.515625 
L 36.8125 0 
L 27.59375 0 
Q 17.1875 0 13.234375 3.875 
Q 9.28125 7.765625 9.28125 18.015625 
L 9.28125 47.703125 
L 2.6875 47.703125 
L 2.6875 54.6875 
L 9.28125 54.6875 
L 9.28125 70.21875 
z
" id="DejaVuSans-116"/>
      <path d="M 54.890625 33.015625 
L 54.890625 0 
L 45.90625 0 
L 45.90625 32.71875 
Q 45.90625 40.484375 42.875 44.328125 
Q 39.84375 48.1875 33.796875 48.1875 
Q 26.515625 48.1875 22.3125 43.546875 
Q 18.109375 38.921875 18.109375 30.90625 
L 18.109375 0 
L 9.078125 0 
L 9.078125 75.984375 
L 18.109375 75.984375 
L 18.109375 46.1875 
Q 21.34375 51.125 25.703125 53.5625 
Q 30.078125 56 35.796875 56 
Q 45.21875 56 50.046875 50.171875 
Q 54.890625 44.34375 54.890625 33.015625 
z
" id="DejaVuSans-104"/>
      <path d="M 31 75.875 
Q 24.46875 64.65625 21.28125 53.65625 
Q 18.109375 42.671875 18.109375 31.390625 
Q 18.109375 20.125 21.3125 9.0625 
Q 24.515625 -2 31 -13.1875 
L 23.1875 -13.1875 
Q 15.875 -1.703125 12.234375 9.375 
Q 8.59375 20.453125 8.59375 31.390625 
Q 8.59375 42.28125 12.203125 53.3125 
Q 15.828125 64.359375 23.1875 75.875 
z
" id="DejaVuSans-40"/>
      <path d="M 48.6875 27.296875 
Q 48.6875 37.203125 44.609375 42.84375 
Q 40.53125 48.484375 33.40625 48.484375 
Q 26.265625 48.484375 22.1875 42.84375 
Q 18.109375 37.203125 18.109375 27.296875 
Q 18.109375 17.390625 22.1875 11.75 
Q 26.265625 6.109375 33.40625 6.109375 
Q 40.53125 6.109375 44.609375 11.75 
Q 48.6875 17.390625 48.6875 27.296875 
z
M 18.109375 46.390625 
Q 20.953125 51.265625 25.265625 53.625 
Q 29.59375 56 35.59375 56 
Q 45.5625 56 51.78125 48.09375 
Q 58.015625 40.1875 58.015625 27.296875 
Q 58.015625 14.40625 51.78125 6.484375 
Q 45.5625 -1.421875 35.59375 -1.421875 
Q 29.59375 -1.421875 25.265625 0.953125 
Q 20.953125 3.328125 18.109375 8.203125 
L 18.109375 0 
L 9.078125 0 
L 9.078125 75.984375 
L 18.109375 75.984375 
z
" id="DejaVuSans-98"/>
      <path d="M 18.109375 8.203125 
L 18.109375 -20.796875 
L 9.078125 -20.796875 
L 9.078125 54.6875 
L 18.109375 54.6875 
L 18.109375 46.390625 
Q 20.953125 51.265625 25.265625 53.625 
Q 29.59375 56 35.59375 56 
Q 45.5625 56 51.78125 48.09375 
Q 58.015625 40.1875 58.015625 27.296875 
Q 58.015625 14.40625 51.78125 6.484375 
Q 45.5625 -1.421875 35.59375 -1.421875 
Q 29.59375 -1.421875 25.265625 0.953125 
Q 20.953125 3.328125 18.109375 8.203125 
z
M 48.6875 27.296875 
Q 48.6875 37.203125 44.609375 42.84375 
Q 40.53125 48.484375 33.40625 48.484375 
Q 26.265625 48.484375 22.1875 42.84375 
Q 18.109375 37.203125 18.109375 27.296875 
Q 18.109375 17.390625 22.1875 11.75 
Q 26.265625 6.109375 33.40625 6.109375 
Q 40.53125 6.109375 44.609375 11.75 
Q 48.6875 17.390625 48.6875 27.296875 
z
" id="DejaVuSans-112"/>
      <path d="M 8.015625 75.875 
L 15.828125 75.875 
Q 23.140625 64.359375 26.78125 53.3125 
Q 30.421875 42.28125 30.421875 31.390625 
Q 30.421875 20.453125 26.78125 9.375 
Q 23.140625 -1.703125 15.828125 -13.1875 
L 8.015625 -13.1875 
Q 14.5 -2 17.703125 9.0625 
Q 20.90625 20.125 20.90625 31.390625 
Q 20.90625 42.671875 17.703125 53.65625 
Q 14.5 64.65625 8.015625 75.875 
z
" id="DejaVuSans-41"/>
     </defs>
     <g transform="translate(462.773281 379.564837)scale(0.1 -0.1)">
      <use xlink:href="#DejaVuSans-83"/>
      <use x="63.476562" xlink:href="#DejaVuSans-101"/>
      <use x="125" xlink:href="#DejaVuSans-113"/>
      <use x="188.476562" xlink:href="#DejaVuSans-117"/>
      <use x="251.855469" xlink:href="#DejaVuSans-101"/>
      <use x="313.378906" xlink:href="#DejaVuSans-110"/>
      <use x="376.757812" xlink:href="#DejaVuSans-99"/>
      <use x="431.738281" xlink:href="#DejaVuSans-101"/>
      <use x="493.261719" xlink:href="#DejaVuSans-32"/>
      <use x="525.048828" xlink:href="#DejaVuSans-76"/>
      <use x="579.011719" xlink:href="#DejaVuSans-101"/>
      <use x="640.535156" xlink:href="#DejaVuSans-110"/>
      <use x="703.914062" xlink:href="#DejaVuSans-103"/>
      <use x="767.390625" xlink:href="#DejaVuSans-116"/>
      <use x="806.599609" xlink:href="#DejaVuSans-104"/>
      <use x="869.978516" xlink:href="#DejaVuSans-32"/>
      <use x="901.765625" xlink:href="#DejaVuSans-40"/>
      <use x="940.779297" xlink:href="#DejaVuSans-98"/>
      <use x="1004.255859" xlink:href="#DejaVuSans-112"/>
      <use x="1067.732422" xlink:href="#DejaVuSans-41"/>
     </g>
    </g>
   </g>
   <g id="matplotlib.axis_2">
    <g id="ytick_1">
     <g id="line2d_1">
      <path clip-path="url(#p886cfec59b)" d="M 43.148125 353.2239 
L 993.078125 353.2239 
" style="fill:none;stroke:#dedede;stroke-linecap:square;"/>
     </g>
     <g id="text_9">
      <!-- 0 -->
      <g transform="translate(31.058125 356.263275)scale(0.08 -0.08)">
       <use xlink:href="#DejaVuSans-48"/>
      </g>
     </g>
    </g>
    <g id="ytick_2">
     <g id="line2d_2">
      <path clip-path="url(#p886cfec59b)" d="M 43.148125 284.006376 
L 993.078125 284.006376 
" style="fill:none;stroke:#dedede;stroke-linecap:square;"/>
     </g>
     <g id="text_10">
      <!-- 200 -->
      <g transform="translate(20.878125 287.045751)scale(0.08 -0.08)">
       <use xlink:href="#DejaVuSans-50"/>
       <use x="63.623047" xlink:href="#DejaVuSans-48"/>
       <use x="127.246094" xlink:href="#DejaVuSans-48"/>
      </g>
     </g>
    </g>
    <g id="ytick_3">
     <g id="line2d_3">
      <path clip-path="url(#p886cfec59b)" d="M 43.148125 214.788852 
L 993.078125 214.788852 
" style="fill:none;stroke:#dedede;stroke-linecap:square;"/>
     </g>
     <g id="text_11">
      <!-- 400 -->
      <defs>
       <path d="M 37.796875 64.3125 
L 12.890625 25.390625 
L 37.796875 25.390625 
z
M 35.203125 72.90625 
L 47.609375 72.90625 
L 47.609375 25.390625 
L 58.015625 25.390625 
L 58.015625 17.1875 
L 47.609375 17.1875 
L 47.609375 0 
L 37.796875 0 
L 37.796875 17.1875 
L 4.890625 17.1875 
L 4.890625 26.703125 
z
" id="DejaVuSans-52"/>
      </defs>
      <g transform="translate(20.878125 217.828227)scale(0.08 -0.08)">
       <use xlink:href="#DejaVuSans-52"/>
       <use x="63.623047" xlink:href="#DejaVuSans-48"/>
       <use x="127.246094" xlink:href="#DejaVuSans-48"/>
      </g>
     </g>
    </g>
    <g id="ytick_4">
     <g id="line2d_4">
      <path clip-path="url(#p886cfec59b)" d="M 43.148125 145.571329 
L 993.078125 145.571329 
" style="fill:none;stroke:#dedede;stroke-linecap:square;"/>
     </g>
     <g id="text_12">
      <!-- 600 -->
      <defs>
       <path d="M 33.015625 40.375 
Q 26.375 40.375 22.484375 35.828125 
Q 18.609375 31.296875 18.609375 23.390625 
Q 18.609375 15.53125 22.484375 10.953125 
Q 26.375 6.390625 33.015625 6.390625 
Q 39.65625 6.390625 43.53125 10.953125 
Q 47.40625 15.53125 47.40625 23.390625 
Q 47.40625 31.296875 43.53125 35.828125 
Q 39.65625 40.375 33.015625 40.375 
z
M 52.59375 71.296875 
L 52.59375 62.3125 
Q 48.875 64.0625 45.09375 64.984375 
Q 41.3125 65.921875 37.59375 65.921875 
Q 27.828125 65.921875 22.671875 59.328125 
Q 17.53125 52.734375 16.796875 39.40625 
Q 19.671875 43.65625 24.015625 45.921875 
Q 28.375 48.1875 33.59375 48.1875 
Q 44.578125 48.1875 50.953125 41.515625 
Q 57.328125 34.859375 57.328125 23.390625 
Q 57.328125 12.15625 50.6875 5.359375 
Q 44.046875 -1.421875 33.015625 -1.421875 
Q 20.359375 -1.421875 13.671875 8.265625 
Q 6.984375 17.96875 6.984375 36.375 
Q 6.984375 53.65625 15.1875 63.9375 
Q 23.390625 74.21875 37.203125 74.21875 
Q 40.921875 74.21875 44.703125 73.484375 
Q 48.484375 72.75 52.59375 71.296875 
z
" id="DejaVuSans-54"/>
      </defs>
      <g transform="translate(20.878125 148.610704)scale(0.08 -0.08)">
       <use xlink:href="#DejaVuSans-54"/>
       <use x="63.623047" xlink:href="#DejaVuSans-48"/>
       <use x="127.246094" xlink:href="#DejaVuSans-48"/>
      </g>
     </g>
    </g>
    <g id="ytick_5">
     <g id="line2d_5">
      <path clip-path="url(#p886cfec59b)" d="M 43.148125 76.353805 
L 993.078125 76.353805 
" style="fill:none;stroke:#dedede;stroke-linecap:square;"/>
     </g>
     <g id="text_13">
      <!-- 800 -->
      <defs>
       <path d="M 31.78125 34.625 
Q 24.75 34.625 20.71875 30.859375 
Q 16.703125 27.09375 16.703125 20.515625 
Q 16.703125 13.921875 20.71875 10.15625 
Q 24.75 6.390625 31.78125 6.390625 
Q 38.8125 6.390625 42.859375 10.171875 
Q 46.921875 13.96875 46.921875 20.515625 
Q 46.921875 27.09375 42.890625 30.859375 
Q 38.875 34.625 31.78125 34.625 
z
M 21.921875 38.8125 
Q 15.578125 40.375 12.03125 44.71875 
Q 8.5 49.078125 8.5 55.328125 
Q 8.5 64.0625 14.71875 69.140625 
Q 20.953125 74.21875 31.78125 74.21875 
Q 42.671875 74.21875 48.875 69.140625 
Q 55.078125 64.0625 55.078125 55.328125 
Q 55.078125 49.078125 51.53125 44.71875 
Q 48 40.375 41.703125 38.8125 
Q 48.828125 37.15625 52.796875 32.3125 
Q 56.78125 27.484375 56.78125 20.515625 
Q 56.78125 9.90625 50.3125 4.234375 
Q 43.84375 -1.421875 31.78125 -1.421875 
Q 19.734375 -1.421875 13.25 4.234375 
Q 6.78125 9.90625 6.78125 20.515625 
Q 6.78125 27.484375 10.78125 32.3125 
Q 14.796875 37.15625 21.921875 38.8125 
z
M 18.3125 54.390625 
Q 18.3125 48.734375 21.84375 45.5625 
Q 25.390625 42.390625 31.78125 42.390625 
Q 38.140625 42.390625 41.71875 45.5625 
Q 45.3125 48.734375 45.3125 54.390625 
Q 45.3125 60.0625 41.71875 63.234375 
Q 38.140625 66.40625 31.78125 66.40625 
Q 25.390625 66.40625 21.84375 63.234375 
Q 18.3125 60.0625 18.3125 54.390625 
z
" id="DejaVuSans-56"/>
      </defs>
      <g transform="translate(20.878125 79.39318)scale(0.08 -0.08)">
       <use xlink:href="#DejaVuSans-56"/>
       <use x="63.623047" xlink:href="#DejaVuSans-48"/>
       <use x="127.246094" xlink:href="#DejaVuSans-48"/>
      </g>
     </g>
    </g>
    <g id="text_14">
     <!-- Read Count -->
     <defs>
      <path d="M 44.390625 34.1875 
Q 47.5625 33.109375 50.5625 29.59375 
Q 53.5625 26.078125 56.59375 19.921875 
L 66.609375 0 
L 56 0 
L 46.6875 18.703125 
Q 43.0625 26.03125 39.671875 28.421875 
Q 36.28125 30.8125 30.421875 30.8125 
L 19.671875 30.8125 
L 19.671875 0 
L 9.8125 0 
L 9.8125 72.90625 
L 32.078125 72.90625 
Q 44.578125 72.90625 50.734375 67.671875 
Q 56.890625 62.453125 56.890625 51.90625 
Q 56.890625 45.015625 53.6875 40.46875 
Q 50.484375 35.9375 44.390625 34.1875 
z
M 19.671875 64.796875 
L 19.671875 38.921875 
L 32.078125 38.921875 
Q 39.203125 38.921875 42.84375 42.21875 
Q 46.484375 45.515625 46.484375 51.90625 
Q 46.484375 58.296875 42.84375 61.546875 
Q 39.203125 64.796875 32.078125 64.796875 
z
" id="DejaVuSans-82"/>
      <path d="M 34.28125 27.484375 
Q 23.390625 27.484375 19.1875 25 
Q 14.984375 22.515625 14.984375 16.5 
Q 14.984375 11.71875 18.140625 8.90625 
Q 21.296875 6.109375 26.703125 6.109375 
Q 34.1875 6.109375 38.703125 11.40625 
Q 43.21875 16.703125 43.21875 25.484375 
L 43.21875 27.484375 
z
M 52.203125 31.203125 
L 52.203125 0 
L 43.21875 0 
L 43.21875 8.296875 
Q 40.140625 3.328125 35.546875 0.953125 
Q 30.953125 -1.421875 24.3125 -1.421875 
Q 15.921875 -1.421875 10.953125 3.296875 
Q 6 8.015625 6 15.921875 
Q 6 25.140625 12.171875 29.828125 
Q 18.359375 34.515625 30.609375 34.515625 
L 43.21875 34.515625 
L 43.21875 35.40625 
Q 43.21875 41.609375 39.140625 45 
Q 35.0625 48.390625 27.6875 48.390625 
Q 23 48.390625 18.546875 47.265625 
Q 14.109375 46.140625 10.015625 43.890625 
L 10.015625 52.203125 
Q 14.9375 54.109375 19.578125 55.046875 
Q 24.21875 56 28.609375 56 
Q 40.484375 56 46.34375 49.84375 
Q 52.203125 43.703125 52.203125 31.203125 
z
" id="DejaVuSans-97"/>
      <path d="M 45.40625 46.390625 
L 45.40625 75.984375 
L 54.390625 75.984375 
L 54.390625 0 
L 45.40625 0 
L 45.40625 8.203125 
Q 42.578125 3.328125 38.25 0.953125 
Q 33.9375 -1.421875 27.875 -1.421875 
Q 17.96875 -1.421875 11.734375 6.484375 
Q 5.515625 14.40625 5.515625 27.296875 
Q 5.515625 40.1875 11.734375 48.09375 
Q 17.96875 56 27.875 56 
Q 33.9375 56 38.25 53.625 
Q 42.578125 51.265625 45.40625 46.390625 
z
M 14.796875 27.296875 
Q 14.796875 17.390625 18.875 11.75 
Q 22.953125 6.109375 30.078125 6.109375 
Q 37.203125 6.109375 41.296875 11.75 
Q 45.40625 17.390625 45.40625 27.296875 
Q 45.40625 37.203125 41.296875 42.84375 
Q 37.203125 48.484375 30.078125 48.484375 
Q 22.953125 48.484375 18.875 42.84375 
Q 14.796875 37.203125 14.796875 27.296875 
z
" id="DejaVuSans-100"/>
      <path d="M 64.40625 67.28125 
L 64.40625 56.890625 
Q 59.421875 61.53125 53.78125 63.8125 
Q 48.140625 66.109375 41.796875 66.109375 
Q 29.296875 66.109375 22.65625 58.46875 
Q 16.015625 50.828125 16.015625 36.375 
Q 16.015625 21.96875 22.65625 14.328125 
Q 29.296875 6.6875 41.796875 6.6875 
Q 48.140625 6.6875 53.78125 8.984375 
Q 59.421875 11.28125 64.40625 15.921875 
L 64.40625 5.609375 
Q 59.234375 2.09375 53.4375 0.328125 
Q 47.65625 -1.421875 41.21875 -1.421875 
Q 24.65625 -1.421875 15.125 8.703125 
Q 5.609375 18.84375 5.609375 36.375 
Q 5.609375 53.953125 15.125 64.078125 
Q 24.65625 74.21875 41.21875 74.21875 
Q 47.75 74.21875 53.53125 72.484375 
Q 59.328125 70.75 64.40625 67.28125 
z
" id="DejaVuSans-67"/>
      <path d="M 30.609375 48.390625 
Q 23.390625 48.390625 19.1875 42.75 
Q 14.984375 37.109375 14.984375 27.296875 
Q 14.984375 17.484375 19.15625 11.84375 
Q 23.34375 6.203125 30.609375 6.203125 
Q 37.796875 6.203125 41.984375 11.859375 
Q 46.1875 17.53125 46.1875 27.296875 
Q 46.1875 37.015625 41.984375 42.703125 
Q 37.796875 48.390625 30.609375 48.390625 
z
M 30.609375 56 
Q 42.328125 56 49.015625 48.375 
Q 55.71875 40.765625 55.71875 27.296875 
Q 55.71875 13.875 49.015625 6.21875 
Q 42.328125 -1.421875 30.609375 -1.421875 
Q 18.84375 -1.421875 12.171875 6.21875 
Q 5.515625 13.875 5.515625 27.296875 
Q 5.515625 40.765625 12.171875 48.375 
Q 18.84375 56 30.609375 56 
z
" id="DejaVuSans-111"/>
     </defs>
     <g transform="translate(14.798437 223.241463)rotate(-90)scale(0.1 -0.1)">
      <use xlink:href="#DejaVuSans-82"/>
      <use x="64.982422" xlink:href="#DejaVuSans-101"/>
      <use x="126.505859" xlink:href="#DejaVuSans-97"/>
      <use x="187.785156" xlink:href="#DejaVuSans-100"/>
      <use x="251.261719" xlink:href="#DejaVuSans-32"/>
      <use x="283.048828" xlink:href="#DejaVuSans-67"/>
      <use x="352.873047" xlink:href="#DejaVuSans-111"/>
      <use x="414.054688" xlink:href="#DejaVuSans-117"/>
      <use x="477.433594" xlink:href="#DejaVuSans-110"/>
      <use x="540.8125" xlink:href="#DejaVuSans-116"/>
     </g>
    </g>
   </g>
   <g id="line2d_6">
    <path clip-path="url(#p886cfec59b)" d="M 621.92239 352.877812 
L 636.967211 353.2239 
L 652.012032 353.2239 
L 667.056853 353.2239 
L 682.101674 353.2239 
L 697.146495 353.2239 
L 712.191316 352.185637 
L 727.236137 353.2239 
L 742.280958 353.2239 
L 757.325779 353.2239 
L 772.3706 353.2239 
L 787.415421 352.877812 
L 802.460243 84.659908 
L 817.505064 352.531725 
L 832.549885 353.2239 
L 847.594706 321.729927 
L 862.639527 350.455199 
L 877.684348 353.2239 
L 892.729169 352.877812 
L 907.77399 352.877812 
L 922.818811 353.2239 
L 937.863632 350.801287 
L 949.899489 315.50035 
" style="fill:none;stroke:#f0ad4e;stroke-linecap:square;"/>
   </g>
   <g id="line2d_7">
    <path clip-path="url(#p886cfec59b)" d="M 86.326761 352.877812 
L 116.416403 353.2239 
L 146.506045 353.2239 
L 176.595688 353.2239 
L 206.68533 353.2239 
L 236.774972 353.2239 
L 266.864614 353.2239 
L 296.954256 353.2239 
L 327.043898 353.2239 
L 357.13354 353.2239 
L 387.223182 353.2239 
L 417.312824 353.2239 
L 447.402466 353.2239 
L 477.492108 353.2239 
L 507.58175 353.2239 
L 537.671392 353.2239 
L 567.761034 353.2239 
L 597.850676 353.2239 
L 627.940319 353.2239 
L 658.029961 352.877812 
L 688.119603 353.2239 
L 718.209245 353.2239 
L 748.298887 353.2239 
L 778.388529 353.2239 
L 808.478171 53.85811 
L 838.567813 325.882978 
L 868.657455 352.185637 
L 898.747097 353.2239 
L 928.836739 351.83955 
L 949.899489 336.957782 
" style="fill:none;stroke:#f0ad4e;stroke-linecap:square;"/>
   </g>
   <g id="line2d_8">
    <path clip-path="url(#p886cfec59b)" d="M 621.92239 351.493462 
L 636.967211 353.2239 
L 652.012032 352.877812 
L 667.056853 353.2239 
L 682.101674 353.2239 
L 697.146495 353.2239 
L 712.191316 352.877812 
L 727.236137 352.531725 
L 742.280958 353.2239 
L 757.325779 353.2239 
L 772.3706 353.2239 
L 787.415421 352.531725 
L 802.460243 73.239016 
L 817.505064 352.531725 
L 832.549885 353.2239 
L 847.594706 315.846437 
L 862.639527 351.83955 
L 877.684348 353.2239 
L 892.729169 353.2239 
L 907.77399 353.2239 
L 922.818811 353.2239 
L 937.863632 352.185637 
L 949.899489 331.42038 
" style="fill:none;stroke:#f0ad4e;stroke-linecap:square;"/>
   </g>
   <g id="line2d_9">
    <path clip-path="url(#p886cfec59b)" d="M 621.92239 352.877812 
L 636.967211 353.2239 
L 652.012032 353.2239 
L 667.056853 353.2239 
L 682.101674 353.2239 
L 697.146495 353.2239 
L 712.191316 353.2239 
L 727.236137 353.2239 
L 742.280958 353.2239 
L 757.325779 353.2239 
L 772.3706 353.2239 
L 787.415421 353.2239 
L 802.460243 69.432052 
L 817.505064 353.2239 
L 832.549885 352.877812 
L 847.594706 316.538612 
L 862.639527 350.455199 
L 877.684348 353.2239 
L 892.729169 353.2239 
L 907.77399 352.877812 
L 922.818811 353.2239 
L 937.863632 352.531725 
L 949.899489 332.112555 
" style="fill:none;stroke:#f0ad4e;stroke-linecap:square;"/>
   </g>
   <g id="line2d_10">
    <path clip-path="url(#p886cfec59b)" d="M 86.326761 352.877812 
L 116.416403 353.2239 
L 146.506045 353.2239 
L 176.595688 353.2239 
L 206.68533 353.2239 
L 236.774972 353.2239 
L 266.864614 353.2239 
L 296.954256 353.2239 
L 327.043898 353.2239 
L 357.13354 353.2239 
L 387.223182 353.2239 
L 417.312824 353.2239 
L 447.402466 353.2239 
L 477.492108 353.2239 
L 507.58175 353.2239 
L 537.671392 353.2239 
L 567.761034 353.2239 
L 597.850676 352.877812 
L 627.940319 353.2239 
L 658.029961 353.2239 
L 688.119603 353.2239 
L 718.209245 352.531725 
L 748.298887 352.877812 
L 778.388529 352.185637 
L 808.478171 50.397233 
L 838.567813 327.959504 
L 868.657455 351.83955 
L 898.747097 353.2239 
L 928.836739 352.185637 
L 949.899489 340.418658 
" style="fill:none;stroke:#f0ad4e;stroke-linecap:square;"/>
   </g>
   <g id="line2d_11">
    <path clip-path="url(#p886cfec59b)" d="M 790.424386 352.877812 
L 796.442314 352.877812 
L 802.460243 102.656464 
L 808.478171 339.726483 
L 814.496099 353.2239 
L 820.514028 353.2239 
L 826.531956 353.2239 
L 832.549885 353.2239 
L 838.567813 353.2239 
L 844.585741 352.531725 
L 850.60367 319.653401 
L 856.621598 351.147374 
L 862.639527 353.2239 
L 868.657455 353.2239 
L 874.675383 353.2239 
L 880.693312 353.2239 
L 886.71124 353.2239 
L 892.729169 353.2239 
L 898.747097 352.877812 
L 904.765026 353.2239 
L 910.782954 353.2239 
L 916.800882 353.2239 
L 922.818811 353.2239 
L 928.836739 353.2239 
L 934.854668 353.2239 
L 940.872596 351.83955 
L 946.890524 309.962948 
" style="fill:none;stroke:#f0ad4e;stroke-linecap:square;"/>
   </g>
   <g id="line2d_12">
    <path clip-path="url(#p886cfec59b)" d="M 606.877569 352.531725 
L 621.92239 353.2239 
L 636.967211 353.2239 
L 652.012032 353.2239 
L 667.056853 353.2239 
L 682.101674 353.2239 
L 697.146495 353.2239 
L 712.191316 353.2239 
L 727.236137 353.2239 
L 742.280958 353.2239 
L 757.325779 353.2239 
L 772.3706 353.2239 
L 787.415421 353.2239 
L 802.460243 85.005995 
L 817.505064 352.531725 
L 832.549885 352.877812 
L 847.594706 317.922963 
L 862.639527 349.763024 
L 877.684348 353.2239 
L 892.729169 353.2239 
L 907.77399 353.2239 
L 922.818811 353.2239 
L 937.863632 351.83955 
L 949.899489 317.230788 
" style="fill:none;stroke:#f0ad4e;stroke-linecap:square;"/>
   </g>
   <g id="line2d_13">
    <path clip-path="url(#p886cfec59b)" d="M 396.250075 352.877812 
L 411.294896 353.2239 
L 426.339717 353.2239 
L 441.384538 353.2239 
L 456.429359 353.2239 
L 471.47418 353.2239 
L 486.519001 353.2239 
L 501.563822 353.2239 
L 516.608643 353.2239 
L 531.653464 353.2239 
L 546.698285 353.2239 
L 561.743106 353.2239 
L 576.787927 353.2239 
L 591.832748 353.2239 
L 606.877569 353.2239 
L 621.92239 352.877812 
L 636.967211 353.2239 
L 652.012032 353.2239 
L 667.056853 353.2239 
L 682.101674 353.2239 
L 697.146495 353.2239 
L 712.191316 353.2239 
L 727.236137 352.877812 
L 742.280958 353.2239 
L 757.325779 353.2239 
L 772.3706 353.2239 
L 787.415421 353.2239 
L 802.460243 62.856388 
L 817.505064 353.2239 
L 832.549885 353.2239 
L 847.594706 318.26905 
L 862.639527 351.147374 
L 877.684348 352.877812 
L 892.729169 353.2239 
L 907.77399 353.2239 
L 922.818811 353.2239 
L 937.863632 351.83955 
L 949.899489 337.30387 
" style="fill:none;stroke:#f0ad4e;stroke-linecap:square;"/>
   </g>
   <g id="line2d_14">
    <path clip-path="url(#p886cfec59b)" d="M 790.424386 352.877812 
L 796.442314 352.877812 
L 802.460243 68.739877 
L 808.478171 346.302148 
L 814.496099 353.2239 
L 820.514028 352.877812 
L 826.531956 353.2239 
L 832.549885 353.2239 
L 838.567813 353.2239 
L 844.585741 352.531725 
L 850.60367 330.03603 
L 856.621598 351.147374 
L 862.639527 353.2239 
L 868.657455 353.2239 
L 874.675383 353.2239 
L 880.693312 353.2239 
L 886.71124 353.2239 
L 892.729169 353.2239 
L 898.747097 352.877812 
L 904.765026 353.2239 
L 910.782954 353.2239 
L 916.800882 353.2239 
L 922.818811 353.2239 
L 928.836739 353.2239 
L 934.854668 352.877812 
L 940.872596 352.531725 
L 946.890524 326.921241 
" style="fill:none;stroke:#f0ad4e;stroke-linecap:square;"/>
   </g>
   <g id="line2d_15">
    <path clip-path="url(#p886cfec59b)" d="M 802.460243 68.739877 
L 808.478171 342.495184 
L 814.496099 353.2239 
L 820.514028 353.2239 
L 826.531956 353.2239 
L 832.549885 353.2239 
L 838.567813 353.2239 
L 844.585741 352.877812 
L 850.60367 330.728205 
L 856.621598 350.801287 
L 862.639527 353.2239 
L 868.657455 353.2239 
L 874.675383 353.2239 
L 880.693312 353.2239 
L 886.71124 353.2239 
L 892.729169 353.2239 
L 898.747097 353.2239 
L 904.765026 353.2239 
L 910.782954 353.2239 
L 916.800882 353.2239 
L 922.818811 353.2239 
L 928.836739 353.2239 
L 934.854668 352.877812 
L 940.872596 352.877812 
L 946.890524 328.305591 
" style="fill:none;stroke:#f0ad4e;stroke-linecap:square;"/>
   </g>
   <g id="line2d_16">
    <path clip-path="url(#p886cfec59b)" d="M 86.326761 352.531725 
L 116.416403 353.2239 
L 146.506045 353.2239 
L 176.595688 353.2239 
L 206.68533 353.2239 
L 236.774972 353.2239 
L 266.864614 353.2239 
L 296.954256 353.2239 
L 327.043898 353.2239 
L 357.13354 353.2239 
L 387.223182 353.2239 
L 417.312824 353.2239 
L 447.402466 353.2239 
L 477.492108 353.2239 
L 507.58175 353.2239 
L 537.671392 353.2239 
L 567.761034 353.2239 
L 597.850676 353.2239 
L 627.940319 352.531725 
L 658.029961 353.2239 
L 688.119603 353.2239 
L 718.209245 353.2239 
L 748.298887 353.2239 
L 778.388529 353.2239 
L 808.478171 67.701614 
L 838.567813 324.498628 
L 868.657455 351.147374 
L 898.747097 353.2239 
L 928.836739 351.147374 
L 949.899489 326.921241 
" style="fill:none;stroke:#f0ad4e;stroke-linecap:square;"/>
   </g>
   <g id="line2d_17">
    <path clip-path="url(#p886cfec59b)" d="M 802.460243 73.931191 
L 808.478171 345.263885 
L 814.496099 352.877812 
L 820.514028 353.2239 
L 826.531956 353.2239 
L 832.549885 353.2239 
L 838.567813 353.2239 
L 844.585741 352.185637 
L 850.60367 324.498628 
L 856.621598 351.147374 
L 862.639527 353.2239 
L 868.657455 352.877812 
L 874.675383 353.2239 
L 880.693312 353.2239 
L 886.71124 353.2239 
L 892.729169 353.2239 
L 898.747097 353.2239 
L 904.765026 353.2239 
L 910.782954 353.2239 
L 916.800882 353.2239 
L 922.818811 353.2239 
L 928.836739 353.2239 
L 934.854668 352.877812 
L 940.872596 351.493462 
L 946.890524 328.997767 
" style="fill:none;stroke:#f0ad4e;stroke-linecap:square;"/>
   </g>
   <g id="line2d_18">
    <path clip-path="url(#p886cfec59b)" d="M 718.209245 352.877812 
L 724.227173 353.2239 
L 730.245102 353.2239 
L 736.26303 353.2239 
L 742.280958 353.2239 
L 748.298887 353.2239 
L 754.316815 353.2239 
L 760.334744 353.2239 
L 766.352672 353.2239 
L 772.3706 353.2239 
L 778.388529 353.2239 
L 784.406457 353.2239 
L 790.424386 353.2239 
L 796.442314 352.877812 
L 802.460243 71.16249 
L 808.478171 350.109111 
L 814.496099 353.2239 
L 820.514028 352.877812 
L 826.531956 353.2239 
L 832.549885 353.2239 
L 838.567813 352.877812 
L 844.585741 348.378673 
L 850.60367 326.921241 
L 856.621598 351.83955 
L 862.639527 353.2239 
L 868.657455 353.2239 
L 874.675383 353.2239 
L 880.693312 353.2239 
L 886.71124 353.2239 
L 892.729169 353.2239 
L 898.747097 353.2239 
L 904.765026 353.2239 
L 910.782954 353.2239 
L 916.800882 353.2239 
L 922.818811 353.2239 
L 928.836739 353.2239 
L 934.854668 353.2239 
L 940.872596 353.2239 
L 946.890524 326.229066 
" style="fill:none;stroke:#f0ad4e;stroke-linecap:square;"/>
   </g>
   <g id="line2d_19">
    <path clip-path="url(#p886cfec59b)" d="M 796.442314 352.877812 
L 802.460243 73.931191 
L 808.478171 349.070849 
L 814.496099 353.2239 
L 820.514028 353.2239 
L 826.531956 353.2239 
L 832.549885 353.2239 
L 838.567813 352.877812 
L 844.585741 352.531725 
L 850.60367 319.307313 
L 856.621598 351.493462 
L 862.639527 353.2239 
L 868.657455 353.2239 
L 874.675383 353.2239 
L 880.693312 353.2239 
L 886.71124 353.2239 
L 892.729169 353.2239 
L 898.747097 353.2239 
L 904.765026 353.2239 
L 910.782954 353.2239 
L 916.800882 353.2239 
L 922.818811 353.2239 
L 928.836739 352.877812 
L 934.854668 352.531725 
L 940.872596 352.877812 
L 946.890524 328.997767 
" style="fill:none;stroke:#f0ad4e;stroke-linecap:square;"/>
   </g>
   <g id="line2d_20">
    <path clip-path="url(#p886cfec59b)" d="M 86.326761 352.877812 
L 116.416403 353.2239 
L 146.506045 353.2239 
L 176.595688 353.2239 
L 206.68533 353.2239 
L 236.774972 353.2239 
L 266.864614 353.2239 
L 296.954256 353.2239 
L 327.043898 353.2239 
L 357.13354 353.2239 
L 387.223182 353.2239 
L 417.312824 353.2239 
L 447.402466 353.2239 
L 477.492108 353.2239 
L 507.58175 353.2239 
L 537.671392 353.2239 
L 567.761034 353.2239 
L 597.850676 353.2239 
L 627.940319 353.2239 
L 658.029961 353.2239 
L 688.119603 353.2239 
L 718.209245 353.2239 
L 748.298887 353.2239 
L 778.388529 353.2239 
L 808.478171 63.202475 
L 838.567813 325.53689 
L 868.657455 352.185637 
L 898.747097 352.877812 
L 928.836739 352.185637 
L 949.899489 327.613416 
" style="fill:none;stroke:#f0ad4e;stroke-linecap:square;"/>
   </g>
   <g id="line2d_21">
    <path clip-path="url(#p886cfec59b)" d="M 796.442314 352.877812 
L 802.460243 71.508578 
L 808.478171 346.648235 
L 814.496099 353.2239 
L 820.514028 353.2239 
L 826.531956 353.2239 
L 832.549885 353.2239 
L 838.567813 352.877812 
L 844.585741 351.493462 
L 850.60367 321.037751 
L 856.621598 351.147374 
L 862.639527 353.2239 
L 868.657455 353.2239 
L 874.675383 353.2239 
L 880.693312 353.2239 
L 886.71124 353.2239 
L 892.729169 353.2239 
L 898.747097 353.2239 
L 904.765026 353.2239 
L 910.782954 353.2239 
L 916.800882 353.2239 
L 922.818811 353.2239 
L 928.836739 353.2239 
L 934.854668 353.2239 
L 940.872596 352.531725 
L 946.890524 332.80473 
" style="fill:none;stroke:#f0ad4e;stroke-linecap:square;"/>
   </g>
   <g id="line2d_22">
    <path clip-path="url(#p886cfec59b)" d="M 43.148125 353.2239 
L 993.078125 353.2239 
" style="fill:none;stroke:#dedede;stroke-linecap:square;stroke-width:2;"/>
   </g>
   <g id="text_15">
    <!-- FastQC: Sequence Length Distribution -->
    <defs>
     <path d="M 9.8125 72.90625 
L 51.703125 72.90625 
L 51.703125 64.59375 
L 19.671875 64.59375 
L 19.671875 43.109375 
L 48.578125 43.109375 
L 48.578125 34.8125 
L 19.671875 34.8125 
L 19.671875 0 
L 9.8125 0 
z
" id="DejaVuSans-70"/>
     <path d="M 44.28125 53.078125 
L 44.28125 44.578125 
Q 40.484375 46.53125 36.375 47.5 
Q 32.28125 48.484375 27.875 48.484375 
Q 21.1875 48.484375 17.84375 46.4375 
Q 14.5 44.390625 14.5 40.28125 
Q 14.5 37.15625 16.890625 35.375 
Q 19.28125 33.59375 26.515625 31.984375 
L 29.59375 31.296875 
Q 39.15625 29.25 43.1875 25.515625 
Q 47.21875 21.78125 47.21875 15.09375 
Q 47.21875 7.46875 41.1875 3.015625 
Q 35.15625 -1.421875 24.609375 -1.421875 
Q 20.21875 -1.421875 15.453125 -0.5625 
Q 10.6875 0.296875 5.421875 2 
L 5.421875 11.28125 
Q 10.40625 8.6875 15.234375 7.390625 
Q 20.0625 6.109375 24.8125 6.109375 
Q 31.15625 6.109375 34.5625 8.28125 
Q 37.984375 10.453125 37.984375 14.40625 
Q 37.984375 18.0625 35.515625 20.015625 
Q 33.0625 21.96875 24.703125 23.78125 
L 21.578125 24.515625 
Q 13.234375 26.265625 9.515625 29.90625 
Q 5.8125 33.546875 5.8125 39.890625 
Q 5.8125 47.609375 11.28125 51.796875 
Q 16.75 56 26.8125 56 
Q 31.78125 56 36.171875 55.265625 
Q 40.578125 54.546875 44.28125 53.078125 
z
" id="DejaVuSans-115"/>
     <path d="M 39.40625 66.21875 
Q 28.65625 66.21875 22.328125 58.203125 
Q 16.015625 50.203125 16.015625 36.375 
Q 16.015625 22.609375 22.328125 14.59375 
Q 28.65625 6.59375 39.40625 6.59375 
Q 50.140625 6.59375 56.421875 14.59375 
Q 62.703125 22.609375 62.703125 36.375 
Q 62.703125 50.203125 56.421875 58.203125 
Q 50.140625 66.21875 39.40625 66.21875 
z
M 53.21875 1.3125 
L 66.21875 -12.890625 
L 54.296875 -12.890625 
L 43.5 -1.21875 
Q 41.890625 -1.3125 41.03125 -1.359375 
Q 40.1875 -1.421875 39.40625 -1.421875 
Q 24.03125 -1.421875 14.8125 8.859375 
Q 5.609375 19.140625 5.609375 36.375 
Q 5.609375 53.65625 14.8125 63.9375 
Q 24.03125 74.21875 39.40625 74.21875 
Q 54.734375 74.21875 63.90625 63.9375 
Q 73.09375 53.65625 73.09375 36.375 
Q 73.09375 23.6875 67.984375 14.640625 
Q 62.890625 5.609375 53.21875 1.3125 
z
" id="DejaVuSans-81"/>
     <path d="M 11.71875 12.40625 
L 22.015625 12.40625 
L 22.015625 0 
L 11.71875 0 
z
M 11.71875 51.703125 
L 22.015625 51.703125 
L 22.015625 39.3125 
L 11.71875 39.3125 
z
" id="DejaVuSans-58"/>
     <path d="M 19.671875 64.796875 
L 19.671875 8.109375 
L 31.59375 8.109375 
Q 46.6875 8.109375 53.6875 14.9375 
Q 60.6875 21.78125 60.6875 36.53125 
Q 60.6875 51.171875 53.6875 57.984375 
Q 46.6875 64.796875 31.59375 64.796875 
z
M 9.8125 72.90625 
L 30.078125 72.90625 
Q 51.265625 72.90625 61.171875 64.09375 
Q 71.09375 55.28125 71.09375 36.53125 
Q 71.09375 17.671875 61.125 8.828125 
Q 51.171875 0 30.078125 0 
L 9.8125 0 
z
" id="DejaVuSans-68"/>
     <path d="M 9.421875 54.6875 
L 18.40625 54.6875 
L 18.40625 0 
L 9.421875 0 
z
M 9.421875 75.984375 
L 18.40625 75.984375 
L 18.40625 64.59375 
L 9.421875 64.59375 
z
" id="DejaVuSans-105"/>
     <path d="M 41.109375 46.296875 
Q 39.59375 47.171875 37.8125 47.578125 
Q 36.03125 48 33.890625 48 
Q 26.265625 48 22.1875 43.046875 
Q 18.109375 38.09375 18.109375 28.8125 
L 18.109375 0 
L 9.078125 0 
L 9.078125 54.6875 
L 18.109375 54.6875 
L 18.109375 46.1875 
Q 20.953125 51.171875 25.484375 53.578125 
Q 30.03125 56 36.53125 56 
Q 37.453125 56 38.578125 55.875 
Q 39.703125 55.765625 41.0625 55.515625 
z
" id="DejaVuSans-114"/>
    </defs>
    <g transform="translate(366.100625 19.3575)scale(0.16 -0.16)">
     <use xlink:href="#DejaVuSans-70"/>
     <use x="48.394531" xlink:href="#DejaVuSans-97"/>
     <use x="109.673828" xlink:href="#DejaVuSans-115"/>
     <use x="161.773438" xlink:href="#DejaVuSans-116"/>
     <use x="200.982422" xlink:href="#DejaVuSans-81"/>
     <use x="279.693359" xlink:href="#DejaVuSans-67"/>
     <use x="349.517578" xlink:href="#DejaVuSans-58"/>
     <use x="383.208984" xlink:href="#DejaVuSans-32"/>
     <use x="414.996094" xlink:href="#DejaVuSans-83"/>
     <use x="478.472656" xlink:href="#DejaVuSans-101"/>
     <use x="539.996094" xlink:href="#DejaVuSans-113"/>
     <use x="603.472656" xlink:href="#DejaVuSans-117"/>
     <use x="666.851562" xlink:href="#DejaVuSans-101"/>
     <use x="728.375" xlink:href="#DejaVuSans-110"/>
     <use x="791.753906" xlink:href="#DejaVuSans-99"/>
     <use x="846.734375" xlink:href="#DejaVuSans-101"/>
     <use x="908.257812" xlink:href="#DejaVuSans-32"/>
     <use x="940.044922" xlink:href="#DejaVuSans-76"/>
     <use x="994.007812" xlink:href="#DejaVuSans-101"/>
     <use x="1055.53125" xlink:href="#DejaVuSans-110"/>
     <use x="1118.910156" xlink:href="#DejaVuSans-103"/>
     <use x="1182.386719" xlink:href="#DejaVuSans-116"/>
     <use x="1221.595703" xlink:href="#DejaVuSans-104"/>
     <use x="1284.974609" xlink:href="#DejaVuSans-32"/>
     <use x="1316.761719" xlink:href="#DejaVuSans-68"/>
     <use x="1393.763672" xlink:href="#DejaVuSans-105"/>
     <use x="1421.546875" xlink:href="#DejaVuSans-115"/>
     <use x="1473.646484" xlink:href="#DejaVuSans-116"/>
     <use x="1512.855469" xlink:href="#DejaVuSans-114"/>
     <use x="1553.96875" xlink:href="#DejaVuSans-105"/>
     <use x="1581.751953" xlink:href="#DejaVuSans-98"/>
     <use x="1645.228516" xlink:href="#DejaVuSans-117"/>
     <use x="1708.607422" xlink:href="#DejaVuSans-116"/>
     <use x="1747.816406" xlink:href="#DejaVuSans-105"/>
     <use x="1775.599609" xlink:href="#DejaVuSans-111"/>
     <use x="1836.78125" xlink:href="#DejaVuSans-110"/>
    </g>
   </g>
  </g>
 </g>
 <defs>
  <clipPath id="p886cfec59b">
   <rect height="317.968" width="949.93" x="43.148125" y="35.2559"/>
  </clipPath>
 </defs>
</svg>
