<?xml version="1.0" encoding="utf-8" standalone="no"?>
<!DOCTYPE svg PUBLIC "-//W3C//DTD SVG 1.1//EN"
  "http://www.w3.org/Graphics/SVG/1.1/DTD/svg11.dtd">
<!-- Created with matplotlib (https://matplotlib.org/) -->
<svg height="388.844525pt" version="1.1" viewBox="0 0 1000.258125 388.844525" width="1000.258125pt" xmlns="http://www.w3.org/2000/svg" xmlns:xlink="http://www.w3.org/1999/xlink">
 <defs>
  <style type="text/css">
*{stroke-linecap:butt;stroke-linejoin:round;}
  </style>
 </defs>
 <g id="figure_1">
  <g id="axes_1">
   <g id="patch_1">
    <path d="M 38.058125 353.2239 
L 985.423125 353.2239 
L 985.423125 35.2559 
L 38.058125 35.2559 
z
" style="fill:#ffffff;"/>
   </g>
   <g id="matplotlib.axis_1">
    <g id="xtick_1">
     <g id="text_1">
      <!-- 0 -->
      <defs>
       <path d="M 31.78125 66.40625 
Q 24.171875 66.40625 20.328125 58.90625 
Q 16.5 51.421875 16.5 36.375 
Q 16.5 21.390625 20.328125 13.890625 
Q 24.171875 6.390625 31.78125 6.390625 
Q 39.453125 6.390625 43.28125 13.890625 
Q 47.125 21.390625 47.125 36.375 
Q 47.125 51.421875 43.28125 58.90625 
Q 39.453125 66.40625 31.78125 66.40625 
z
M 31.78125 74.21875 
Q 44.046875 74.21875 50.515625 64.515625 
Q 56.984375 54.828125 56.984375 36.375 
Q 56.984375 17.96875 50.515625 8.265625 
Q 44.046875 -1.421875 31.78125 -1.421875 
Q 19.53125 -1.421875 13.0625 8.265625 
Q 6.59375 17.96875 6.59375 36.375 
Q 6.59375 54.828125 13.0625 64.515625 
Q 19.53125 74.21875 31.78125 74.21875 
z
" id="DejaVuSans-48"/>
      </defs>
      <g transform="translate(35.513125 366.30265)scale(0.08 -0.08)">
       <use xlink:href="#DejaVuSans-48"/>
      </g>
     </g>
    </g>
    <g id="xtick_2">
     <g id="text_2">
      <!-- 20 -->
      <defs>
       <path d="M 19.1875 8.296875 
L 53.609375 8.296875 
L 53.609375 0 
L 7.328125 0 
L 7.328125 8.296875 
Q 12.9375 14.109375 22.625 23.890625 
Q 32.328125 33.6875 34.8125 36.53125 
Q 39.546875 41.84375 41.421875 45.53125 
Q 43.3125 49.21875 43.3125 52.78125 
Q 43.3125 58.59375 39.234375 62.25 
Q 35.15625 65.921875 28.609375 65.921875 
Q 23.96875 65.921875 18.8125 64.3125 
Q 13.671875 62.703125 7.8125 59.421875 
L 7.8125 69.390625 
Q 13.765625 71.78125 18.9375 73 
Q 24.125 74.21875 28.421875 74.21875 
Q 39.75 74.21875 46.484375 68.546875 
Q 53.21875 62.890625 53.21875 53.421875 
Q 53.21875 48.921875 51.53125 44.890625 
Q 49.859375 40.875 45.40625 35.40625 
Q 44.1875 33.984375 37.640625 27.21875 
Q 31.109375 20.453125 19.1875 8.296875 
z
" id="DejaVuSans-50"/>
      </defs>
      <g transform="translate(222.441125 366.30265)scale(0.08 -0.08)">
       <use xlink:href="#DejaVuSans-50"/>
       <use x="63.623047" xlink:href="#DejaVuSans-48"/>
      </g>
     </g>
    </g>
    <g id="xtick_3">
     <g id="text_3">
      <!-- 40 -->
      <defs>
       <path d="M 37.796875 64.3125 
L 12.890625 25.390625 
L 37.796875 25.390625 
z
M 35.203125 72.90625 
L 47.609375 72.90625 
L 47.609375 25.390625 
L 58.015625 25.390625 
L 58.015625 17.1875 
L 47.609375 17.1875 
L 47.609375 0 
L 37.796875 0 
L 37.796875 17.1875 
L 4.890625 17.1875 
L 4.890625 26.703125 
z
" id="DejaVuSans-52"/>
      </defs>
      <g transform="translate(411.914125 366.30265)scale(0.08 -0.08)">
       <use xlink:href="#DejaVuSans-52"/>
       <use x="63.623047" xlink:href="#DejaVuSans-48"/>
      </g>
     </g>
    </g>
    <g id="xtick_4">
     <g id="text_4">
      <!-- 60 -->
      <defs>
       <path d="M 33.015625 40.375 
Q 26.375 40.375 22.484375 35.828125 
Q 18.609375 31.296875 18.609375 23.390625 
Q 18.609375 15.53125 22.484375 10.953125 
Q 26.375 6.390625 33.015625 6.390625 
Q 39.65625 6.390625 43.53125 10.953125 
Q 47.40625 15.53125 47.40625 23.390625 
Q 47.40625 31.296875 43.53125 35.828125 
Q 39.65625 40.375 33.015625 40.375 
z
M 52.59375 71.296875 
L 52.59375 62.3125 
Q 48.875 64.0625 45.09375 64.984375 
Q 41.3125 65.921875 37.59375 65.921875 
Q 27.828125 65.921875 22.671875 59.328125 
Q 17.53125 52.734375 16.796875 39.40625 
Q 19.671875 43.65625 24.015625 45.921875 
Q 28.375 48.1875 33.59375 48.1875 
Q 44.578125 48.1875 50.953125 41.515625 
Q 57.328125 34.859375 57.328125 23.390625 
Q 57.328125 12.15625 50.6875 5.359375 
Q 44.046875 -1.421875 33.015625 -1.421875 
Q 20.359375 -1.421875 13.671875 8.265625 
Q 6.984375 17.96875 6.984375 36.375 
Q 6.984375 53.65625 15.1875 63.9375 
Q 23.390625 74.21875 37.203125 74.21875 
Q 40.921875 74.21875 44.703125 73.484375 
Q 48.484375 72.75 52.59375 71.296875 
z
" id="DejaVuSans-54"/>
      </defs>
      <g transform="translate(601.387125 366.30265)scale(0.08 -0.08)">
       <use xlink:href="#DejaVuSans-54"/>
       <use x="63.623047" xlink:href="#DejaVuSans-48"/>
      </g>
     </g>
    </g>
    <g id="xtick_5">
     <g id="text_5">
      <!-- 80 -->
      <defs>
       <path d="M 31.78125 34.625 
Q 24.75 34.625 20.71875 30.859375 
Q 16.703125 27.09375 16.703125 20.515625 
Q 16.703125 13.921875 20.71875 10.15625 
Q 24.75 6.390625 31.78125 6.390625 
Q 38.8125 6.390625 42.859375 10.171875 
Q 46.921875 13.96875 46.921875 20.515625 
Q 46.921875 27.09375 42.890625 30.859375 
Q 38.875 34.625 31.78125 34.625 
z
M 21.921875 38.8125 
Q 15.578125 40.375 12.03125 44.71875 
Q 8.5 49.078125 8.5 55.328125 
Q 8.5 64.0625 14.71875 69.140625 
Q 20.953125 74.21875 31.78125 74.21875 
Q 42.671875 74.21875 48.875 69.140625 
Q 55.078125 64.0625 55.078125 55.328125 
Q 55.078125 49.078125 51.53125 44.71875 
Q 48 40.375 41.703125 38.8125 
Q 48.828125 37.15625 52.796875 32.3125 
Q 56.78125 27.484375 56.78125 20.515625 
Q 56.78125 9.90625 50.3125 4.234375 
Q 43.84375 -1.421875 31.78125 -1.421875 
Q 19.734375 -1.421875 13.25 4.234375 
Q 6.78125 9.90625 6.78125 20.515625 
Q 6.78125 27.484375 10.78125 32.3125 
Q 14.796875 37.15625 21.921875 38.8125 
z
M 18.3125 54.390625 
Q 18.3125 48.734375 21.84375 45.5625 
Q 25.390625 42.390625 31.78125 42.390625 
Q 38.140625 42.390625 41.71875 45.5625 
Q 45.3125 48.734375 45.3125 54.390625 
Q 45.3125 60.0625 41.71875 63.234375 
Q 38.140625 66.40625 31.78125 66.40625 
Q 25.390625 66.40625 21.84375 63.234375 
Q 18.3125 60.0625 18.3125 54.390625 
z
" id="DejaVuSans-56"/>
      </defs>
      <g transform="translate(790.860125 366.30265)scale(0.08 -0.08)">
       <use xlink:href="#DejaVuSans-56"/>
       <use x="63.623047" xlink:href="#DejaVuSans-48"/>
      </g>
     </g>
    </g>
    <g id="xtick_6">
     <g id="text_6">
      <!-- 100 -->
      <defs>
       <path d="M 12.40625 8.296875 
L 28.515625 8.296875 
L 28.515625 63.921875 
L 10.984375 60.40625 
L 10.984375 69.390625 
L 28.421875 72.90625 
L 38.28125 72.90625 
L 38.28125 8.296875 
L 54.390625 8.296875 
L 54.390625 0 
L 12.40625 0 
z
" id="DejaVuSans-49"/>
      </defs>
      <g transform="translate(977.788125 366.30265)scale(0.08 -0.08)">
       <use xlink:href="#DejaVuSans-49"/>
       <use x="63.623047" xlink:href="#DejaVuSans-48"/>
       <use x="127.246094" xlink:href="#DejaVuSans-48"/>
      </g>
     </g>
    </g>
    <g id="text_7">
     <!-- % GC -->
     <defs>
      <path d="M 72.703125 32.078125 
Q 68.453125 32.078125 66.03125 28.46875 
Q 63.625 24.859375 63.625 18.40625 
Q 63.625 12.0625 66.03125 8.421875 
Q 68.453125 4.78125 72.703125 4.78125 
Q 76.859375 4.78125 79.265625 8.421875 
Q 81.6875 12.0625 81.6875 18.40625 
Q 81.6875 24.8125 79.265625 28.4375 
Q 76.859375 32.078125 72.703125 32.078125 
z
M 72.703125 38.28125 
Q 80.421875 38.28125 84.953125 32.90625 
Q 89.5 27.546875 89.5 18.40625 
Q 89.5 9.28125 84.9375 3.921875 
Q 80.375 -1.421875 72.703125 -1.421875 
Q 64.890625 -1.421875 60.34375 3.921875 
Q 55.8125 9.28125 55.8125 18.40625 
Q 55.8125 27.59375 60.375 32.9375 
Q 64.9375 38.28125 72.703125 38.28125 
z
M 22.3125 68.015625 
Q 18.109375 68.015625 15.6875 64.375 
Q 13.28125 60.75 13.28125 54.390625 
Q 13.28125 47.953125 15.671875 44.328125 
Q 18.0625 40.71875 22.3125 40.71875 
Q 26.5625 40.71875 28.96875 44.328125 
Q 31.390625 47.953125 31.390625 54.390625 
Q 31.390625 60.6875 28.953125 64.34375 
Q 26.515625 68.015625 22.3125 68.015625 
z
M 66.40625 74.21875 
L 74.21875 74.21875 
L 28.609375 -1.421875 
L 20.796875 -1.421875 
z
M 22.3125 74.21875 
Q 30.03125 74.21875 34.609375 68.875 
Q 39.203125 63.53125 39.203125 54.390625 
Q 39.203125 45.171875 34.640625 39.84375 
Q 30.078125 34.515625 22.3125 34.515625 
Q 14.546875 34.515625 10.03125 39.859375 
Q 5.515625 45.21875 5.515625 54.390625 
Q 5.515625 63.484375 10.046875 68.84375 
Q 14.59375 74.21875 22.3125 74.21875 
z
" id="DejaVuSans-37"/>
      <path id="DejaVuSans-32"/>
      <path d="M 59.515625 10.40625 
L 59.515625 29.984375 
L 43.40625 29.984375 
L 43.40625 38.09375 
L 69.28125 38.09375 
L 69.28125 6.78125 
Q 63.578125 2.734375 56.6875 0.65625 
Q 49.8125 -1.421875 42 -1.421875 
Q 24.90625 -1.421875 15.25 8.5625 
Q 5.609375 18.5625 5.609375 36.375 
Q 5.609375 54.25 15.25 64.234375 
Q 24.90625 74.21875 42 74.21875 
Q 49.125 74.21875 55.546875 72.453125 
Q 61.96875 70.703125 67.390625 67.28125 
L 67.390625 56.78125 
Q 61.921875 61.421875 55.765625 63.765625 
Q 49.609375 66.109375 42.828125 66.109375 
Q 29.4375 66.109375 22.71875 58.640625 
Q 16.015625 51.171875 16.015625 36.375 
Q 16.015625 21.625 22.71875 14.15625 
Q 29.4375 6.6875 42.828125 6.6875 
Q 48.046875 6.6875 52.140625 7.59375 
Q 56.25 8.5 59.515625 10.40625 
z
" id="DejaVuSans-71"/>
      <path d="M 64.40625 67.28125 
L 64.40625 56.890625 
Q 59.421875 61.53125 53.78125 63.8125 
Q 48.140625 66.109375 41.796875 66.109375 
Q 29.296875 66.109375 22.65625 58.46875 
Q 16.015625 50.828125 16.015625 36.375 
Q 16.015625 21.96875 22.65625 14.328125 
Q 29.296875 6.6875 41.796875 6.6875 
Q 48.140625 6.6875 53.78125 8.984375 
Q 59.421875 11.28125 64.40625 15.921875 
L 64.40625 5.609375 
Q 59.234375 2.09375 53.4375 0.328125 
Q 47.65625 -1.421875 41.21875 -1.421875 
Q 24.65625 -1.421875 15.125 8.703125 
Q 5.609375 18.84375 5.609375 36.375 
Q 5.609375 53.953125 15.125 64.078125 
Q 24.65625 74.21875 41.21875 74.21875 
Q 47.75 74.21875 53.53125 72.484375 
Q 59.328125 70.75 64.40625 67.28125 
z
" id="DejaVuSans-67"/>
     </defs>
     <g transform="translate(498.035156 379.564837)scale(0.1 -0.1)">
      <use xlink:href="#DejaVuSans-37"/>
      <use x="95.019531" xlink:href="#DejaVuSans-32"/>
      <use x="126.806641" xlink:href="#DejaVuSans-71"/>
      <use x="204.296875" xlink:href="#DejaVuSans-67"/>
     </g>
    </g>
   </g>
   <g id="matplotlib.axis_2">
    <g id="ytick_1">
     <g id="line2d_1">
      <path clip-path="url(#p6b9041e863)" d="M 38.058125 353.2239 
L 985.423125 353.2239 
" style="fill:none;stroke:#dedede;stroke-linecap:square;"/>
     </g>
     <g id="text_8">
      <!-- 0 -->
      <g transform="translate(25.968125 356.263275)scale(0.08 -0.08)">
       <use xlink:href="#DejaVuSans-48"/>
      </g>
     </g>
    </g>
    <g id="ytick_2">
     <g id="line2d_2">
      <path clip-path="url(#p6b9041e863)" d="M 38.058125 288.563402 
L 985.423125 288.563402 
" style="fill:none;stroke:#dedede;stroke-linecap:square;"/>
     </g>
     <g id="text_9">
      <!-- 20 -->
      <g transform="translate(20.878125 291.602777)scale(0.08 -0.08)">
       <use xlink:href="#DejaVuSans-50"/>
       <use x="63.623047" xlink:href="#DejaVuSans-48"/>
      </g>
     </g>
    </g>
    <g id="ytick_3">
     <g id="line2d_3">
      <path clip-path="url(#p6b9041e863)" d="M 38.058125 223.902904 
L 985.423125 223.902904 
" style="fill:none;stroke:#dedede;stroke-linecap:square;"/>
     </g>
     <g id="text_10">
      <!-- 40 -->
      <g transform="translate(20.878125 226.942279)scale(0.08 -0.08)">
       <use xlink:href="#DejaVuSans-52"/>
       <use x="63.623047" xlink:href="#DejaVuSans-48"/>
      </g>
     </g>
    </g>
    <g id="ytick_4">
     <g id="line2d_4">
      <path clip-path="url(#p6b9041e863)" d="M 38.058125 159.242405 
L 985.423125 159.242405 
" style="fill:none;stroke:#dedede;stroke-linecap:square;"/>
     </g>
     <g id="text_11">
      <!-- 60 -->
      <g transform="translate(20.878125 162.28178)scale(0.08 -0.08)">
       <use xlink:href="#DejaVuSans-54"/>
       <use x="63.623047" xlink:href="#DejaVuSans-48"/>
      </g>
     </g>
    </g>
    <g id="ytick_5">
     <g id="line2d_5">
      <path clip-path="url(#p6b9041e863)" d="M 38.058125 94.581907 
L 985.423125 94.581907 
" style="fill:none;stroke:#dedede;stroke-linecap:square;"/>
     </g>
     <g id="text_12">
      <!-- 80 -->
      <g transform="translate(20.878125 97.621282)scale(0.08 -0.08)">
       <use xlink:href="#DejaVuSans-56"/>
       <use x="63.623047" xlink:href="#DejaVuSans-48"/>
      </g>
     </g>
    </g>
    <g id="text_13">
     <!-- Count -->
     <defs>
      <path d="M 30.609375 48.390625 
Q 23.390625 48.390625 19.1875 42.75 
Q 14.984375 37.109375 14.984375 27.296875 
Q 14.984375 17.484375 19.15625 11.84375 
Q 23.34375 6.203125 30.609375 6.203125 
Q 37.796875 6.203125 41.984375 11.859375 
Q 46.1875 17.53125 46.1875 27.296875 
Q 46.1875 37.015625 41.984375 42.703125 
Q 37.796875 48.390625 30.609375 48.390625 
z
M 30.609375 56 
Q 42.328125 56 49.015625 48.375 
Q 55.71875 40.765625 55.71875 27.296875 
Q 55.71875 13.875 49.015625 6.21875 
Q 42.328125 -1.421875 30.609375 -1.421875 
Q 18.84375 -1.421875 12.171875 6.21875 
Q 5.515625 13.875 5.515625 27.296875 
Q 5.515625 40.765625 12.171875 48.375 
Q 18.84375 56 30.609375 56 
z
" id="DejaVuSans-111"/>
      <path d="M 8.5 21.578125 
L 8.5 54.6875 
L 17.484375 54.6875 
L 17.484375 21.921875 
Q 17.484375 14.15625 20.5 10.265625 
Q 23.53125 6.390625 29.59375 6.390625 
Q 36.859375 6.390625 41.078125 11.03125 
Q 45.3125 15.671875 45.3125 23.6875 
L 45.3125 54.6875 
L 54.296875 54.6875 
L 54.296875 0 
L 45.3125 0 
L 45.3125 8.40625 
Q 42.046875 3.421875 37.71875 1 
Q 33.40625 -1.421875 27.6875 -1.421875 
Q 18.265625 -1.421875 13.375 4.4375 
Q 8.5 10.296875 8.5 21.578125 
z
M 31.109375 56 
z
" id="DejaVuSans-117"/>
      <path d="M 54.890625 33.015625 
L 54.890625 0 
L 45.90625 0 
L 45.90625 32.71875 
Q 45.90625 40.484375 42.875 44.328125 
Q 39.84375 48.1875 33.796875 48.1875 
Q 26.515625 48.1875 22.3125 43.546875 
Q 18.109375 38.921875 18.109375 30.90625 
L 18.109375 0 
L 9.078125 0 
L 9.078125 54.6875 
L 18.109375 54.6875 
L 18.109375 46.1875 
Q 21.34375 51.125 25.703125 53.5625 
Q 30.078125 56 35.796875 56 
Q 45.21875 56 50.046875 50.171875 
Q 54.890625 44.34375 54.890625 33.015625 
z
" id="DejaVuSans-110"/>
      <path d="M 18.3125 70.21875 
L 18.3125 54.6875 
L 36.8125 54.6875 
L 36.8125 47.703125 
L 18.3125 47.703125 
L 18.3125 18.015625 
Q 18.3125 11.328125 20.140625 9.421875 
Q 21.96875 7.515625 27.59375 7.515625 
L 36.8125 7.515625 
L 36.8125 0 
L 27.59375 0 
Q 17.1875 0 13.234375 3.875 
Q 9.28125 7.765625 9.28125 18.015625 
L 9.28125 47.703125 
L 2.6875 47.703125 
L 2.6875 54.6875 
L 9.28125 54.6875 
L 9.28125 70.21875 
z
" id="DejaVuSans-116"/>
     </defs>
     <g transform="translate(14.798438 209.088338)rotate(-90)scale(0.1 -0.1)">
      <use xlink:href="#DejaVuSans-67"/>
      <use x="69.824219" xlink:href="#DejaVuSans-111"/>
      <use x="131.005859" xlink:href="#DejaVuSans-117"/>
      <use x="194.384766" xlink:href="#DejaVuSans-110"/>
      <use x="257.763672" xlink:href="#DejaVuSans-116"/>
     </g>
    </g>
   </g>
   <g id="line2d_6">
    <path clip-path="url(#p6b9041e863)" d="M 38.058125 353.2239 
L 47.531775 353.2239 
L 57.005425 353.2239 
L 66.479075 353.2239 
L 75.952725 353.2239 
L 85.426375 353.2239 
L 94.900025 353.2239 
L 104.373675 353.2239 
L 113.847325 353.2239 
L 123.320975 353.2239 
L 132.794625 353.2239 
L 142.268275 353.2239 
L 151.741925 353.2239 
L 161.215575 353.2239 
L 170.689225 353.2239 
L 180.162875 353.2239 
L 189.636525 353.2239 
L 199.110175 353.2239 
L 208.583825 353.2239 
L 218.057475 353.2239 
L 227.531125 353.2239 
L 237.004775 353.2239 
L 246.478425 353.2239 
L 255.952075 353.2239 
L 265.425725 353.2239 
L 274.899375 353.2239 
L 284.373025 352.146225 
L 293.846675 353.2239 
L 303.320325 351.06855 
L 312.793975 352.146225 
L 322.267625 351.06855 
L 331.741275 351.06855 
L 341.214925 346.75785 
L 350.688575 345.680175 
L 360.162225 353.2239 
L 369.635875 352.146225 
L 379.109525 352.146225 
L 388.583175 351.06855 
L 398.056825 349.182619 
L 407.530475 351.06855 
L 417.004125 345.141338 
L 426.477775 318.468882 
L 435.951425 268.356996 
L 445.425075 267.818159 
L 454.898725 304.728526 
L 464.372375 269.973509 
L 473.846025 295.29887 
L 483.319675 289.371658 
L 492.793325 289.371658 
L 502.266975 252.730709 
L 511.740625 247.072915 
L 521.214275 309.578064 
L 530.687925 303.92027 
L 540.161575 254.886059 
L 549.635225 210.970804 
L 559.108875 190.225561 
L 568.582525 213.395573 
L 578.056175 268.087577 
L 587.529825 316.582951 
L 597.003475 337.058775 
L 606.477125 344.6025 
L 615.950775 348.9132 
L 625.424425 347.835525 
L 634.898075 349.452038 
L 644.371725 350.260294 
L 653.845375 351.06855 
L 663.319025 353.2239 
L 672.792675 353.2239 
L 682.266325 353.2239 
L 691.739975 353.2239 
L 701.213625 353.2239 
L 710.687275 353.2239 
L 720.160925 353.2239 
L 729.634575 353.2239 
L 739.108225 353.2239 
L 748.581875 353.2239 
L 758.055525 353.2239 
L 767.529175 353.2239 
L 777.002825 353.2239 
L 786.476475 353.2239 
L 795.950125 353.2239 
L 805.423775 353.2239 
L 814.897425 353.2239 
L 824.371075 353.2239 
L 833.844725 353.2239 
L 843.318375 353.2239 
L 852.792025 353.2239 
L 862.265675 353.2239 
L 871.739325 353.2239 
L 881.212975 353.2239 
L 890.686625 353.2239 
L 900.160275 353.2239 
L 909.633925 353.2239 
L 919.107575 353.2239 
L 928.581225 353.2239 
L 938.054875 353.2239 
L 947.528525 353.2239 
L 957.002175 353.2239 
L 966.475825 353.2239 
L 975.949475 353.2239 
L 985.423125 353.2239 
" style="fill:none;stroke:#d9534f;stroke-linecap:square;"/>
   </g>
   <g id="line2d_7">
    <path clip-path="url(#p6b9041e863)" d="M 38.058125 353.2239 
L 47.531775 353.2239 
L 57.005425 353.2239 
L 66.479075 353.2239 
L 75.952725 353.2239 
L 85.426375 353.2239 
L 94.900025 353.2239 
L 104.373675 353.2239 
L 113.847325 353.2239 
L 123.320975 353.2239 
L 132.794625 353.2239 
L 142.268275 353.2239 
L 151.741925 353.2239 
L 161.215575 353.2239 
L 170.689225 353.2239 
L 180.162875 353.2239 
L 189.636525 353.2239 
L 199.110175 353.2239 
L 208.583825 353.2239 
L 218.057475 353.2239 
L 227.531125 353.2239 
L 237.004775 353.2239 
L 246.478425 353.2239 
L 255.952075 353.2239 
L 265.425725 353.2239 
L 274.899375 352.146225 
L 284.373025 353.2239 
L 293.846675 353.2239 
L 303.320325 353.2239 
L 312.793975 353.2239 
L 322.267625 353.2239 
L 331.741275 353.2239 
L 341.214925 353.2239 
L 350.688575 353.2239 
L 360.162225 353.2239 
L 369.635875 353.2239 
L 379.109525 352.146225 
L 388.583175 352.146225 
L 398.056825 353.2239 
L 407.530475 352.415644 
L 417.004125 351.337969 
L 426.477775 349.721456 
L 435.951425 198.84696 
L 445.425075 192.380911 
L 454.898725 325.743188 
L 464.372375 318.468882 
L 473.846025 310.925157 
L 483.319675 330.592726 
L 492.793325 325.204351 
L 502.266975 312.54167 
L 511.740625 299.070733 
L 521.214275 322.240745 
L 530.687925 285.330377 
L 540.161575 250.036522 
L 549.635225 118.290756 
L 559.108875 149.543331 
L 568.582525 127.989831 
L 578.056175 191.033817 
L 587.529825 321.971326 
L 597.003475 338.13645 
L 606.477125 340.561219 
L 615.950775 347.835525 
L 625.424425 349.990875 
L 634.898075 351.607388 
L 644.371725 353.2239 
L 653.845375 353.2239 
L 663.319025 353.2239 
L 672.792675 353.2239 
L 682.266325 353.2239 
L 691.739975 353.2239 
L 701.213625 353.2239 
L 710.687275 353.2239 
L 720.160925 353.2239 
L 729.634575 353.2239 
L 739.108225 353.2239 
L 748.581875 353.2239 
L 758.055525 353.2239 
L 767.529175 353.2239 
L 777.002825 353.2239 
L 786.476475 353.2239 
L 795.950125 353.2239 
L 805.423775 353.2239 
L 814.897425 353.2239 
L 824.371075 353.2239 
L 833.844725 353.2239 
L 843.318375 353.2239 
L 852.792025 353.2239 
L 862.265675 353.2239 
L 871.739325 353.2239 
L 881.212975 353.2239 
L 890.686625 353.2239 
L 900.160275 353.2239 
L 909.633925 353.2239 
L 919.107575 353.2239 
L 928.581225 353.2239 
L 938.054875 353.2239 
L 947.528525 353.2239 
L 957.002175 353.2239 
L 966.475825 353.2239 
L 975.949475 353.2239 
L 985.423125 353.2239 
" style="fill:none;stroke:#d9534f;stroke-linecap:square;"/>
   </g>
   <g id="line2d_8">
    <path clip-path="url(#p6b9041e863)" d="M 38.058125 353.2239 
L 47.531775 353.2239 
L 57.005425 353.2239 
L 66.479075 353.2239 
L 75.952725 353.2239 
L 85.426375 353.2239 
L 94.900025 353.2239 
L 104.373675 353.2239 
L 113.847325 353.2239 
L 123.320975 353.2239 
L 132.794625 353.2239 
L 142.268275 353.2239 
L 151.741925 353.2239 
L 161.215575 353.2239 
L 170.689225 353.2239 
L 180.162875 353.2239 
L 189.636525 353.2239 
L 199.110175 353.2239 
L 208.583825 353.2239 
L 218.057475 353.2239 
L 227.531125 353.2239 
L 237.004775 353.2239 
L 246.478425 353.2239 
L 255.952075 353.2239 
L 265.425725 353.2239 
L 274.899375 353.2239 
L 284.373025 353.2239 
L 293.846675 353.2239 
L 303.320325 353.2239 
L 312.793975 348.9132 
L 322.267625 345.680175 
L 331.741275 349.990875 
L 341.214925 344.6025 
L 350.688575 343.524825 
L 360.162225 353.2239 
L 369.635875 352.146225 
L 379.109525 351.607388 
L 388.583175 350.529713 
L 398.056825 352.146225 
L 407.530475 349.990875 
L 417.004125 347.296688 
L 426.477775 328.976213 
L 435.951425 249.497684 
L 445.425075 289.371658 
L 454.898725 322.240745 
L 464.372375 295.29887 
L 473.846025 304.189689 
L 483.319675 294.490614 
L 492.793325 290.179914 
L 502.266975 261.890946 
L 511.740625 279.672583 
L 521.214275 307.961551 
L 530.687925 286.677471 
L 540.161575 223.633485 
L 549.635225 152.237518 
L 559.108875 143.3467 
L 568.582525 204.774173 
L 578.056175 286.677471 
L 587.529825 318.738301 
L 597.003475 334.903426 
L 606.477125 338.13645 
L 615.950775 347.835525 
L 625.424425 353.2239 
L 634.898075 352.415644 
L 644.371725 353.2239 
L 653.845375 352.146225 
L 663.319025 352.146225 
L 672.792675 353.2239 
L 682.266325 353.2239 
L 691.739975 353.2239 
L 701.213625 353.2239 
L 710.687275 353.2239 
L 720.160925 353.2239 
L 729.634575 353.2239 
L 739.108225 353.2239 
L 748.581875 353.2239 
L 758.055525 353.2239 
L 767.529175 353.2239 
L 777.002825 353.2239 
L 786.476475 353.2239 
L 795.950125 353.2239 
L 805.423775 353.2239 
L 814.897425 353.2239 
L 824.371075 353.2239 
L 833.844725 353.2239 
L 843.318375 353.2239 
L 852.792025 353.2239 
L 862.265675 353.2239 
L 871.739325 353.2239 
L 881.212975 353.2239 
L 890.686625 353.2239 
L 900.160275 353.2239 
L 909.633925 353.2239 
L 919.107575 353.2239 
L 928.581225 353.2239 
L 938.054875 353.2239 
L 947.528525 353.2239 
L 957.002175 353.2239 
L 966.475825 353.2239 
L 975.949475 353.2239 
L 985.423125 353.2239 
" style="fill:none;stroke:#d9534f;stroke-linecap:square;"/>
   </g>
   <g id="line2d_9">
    <path clip-path="url(#p6b9041e863)" d="M 38.058125 353.2239 
L 47.531775 353.2239 
L 57.005425 353.2239 
L 66.479075 353.2239 
L 75.952725 353.2239 
L 85.426375 353.2239 
L 94.900025 353.2239 
L 104.373675 353.2239 
L 113.847325 353.2239 
L 123.320975 353.2239 
L 132.794625 353.2239 
L 142.268275 353.2239 
L 151.741925 353.2239 
L 161.215575 353.2239 
L 170.689225 353.2239 
L 180.162875 353.2239 
L 189.636525 353.2239 
L 199.110175 353.2239 
L 208.583825 353.2239 
L 218.057475 353.2239 
L 227.531125 353.2239 
L 237.004775 353.2239 
L 246.478425 353.2239 
L 255.952075 353.2239 
L 265.425725 353.2239 
L 274.899375 353.2239 
L 284.373025 353.2239 
L 293.846675 353.2239 
L 303.320325 353.2239 
L 312.793975 353.2239 
L 322.267625 353.2239 
L 331.741275 353.2239 
L 341.214925 352.146225 
L 350.688575 351.06855 
L 360.162225 353.2239 
L 369.635875 353.2239 
L 379.109525 351.607388 
L 388.583175 351.607388 
L 398.056825 353.2239 
L 407.530475 352.146225 
L 417.004125 352.146225 
L 426.477775 347.566106 
L 435.951425 283.983283 
L 445.425075 275.361883 
L 454.898725 325.204351 
L 464.372375 316.313532 
L 473.846025 313.619345 
L 483.319675 323.31842 
L 492.793325 313.349926 
L 502.266975 320.085395 
L 511.740625 321.432488 
L 521.214275 329.515051 
L 530.687925 270.242927 
L 540.161575 209.084873 
L 549.635225 80.841551 
L 559.108875 143.077281 
L 568.582525 126.912156 
L 578.056175 177.56288 
L 587.529825 301.495501 
L 597.003475 330.592726 
L 606.477125 347.027269 
L 615.950775 352.146225 
L 625.424425 352.146225 
L 634.898075 353.2239 
L 644.371725 353.2239 
L 653.845375 353.2239 
L 663.319025 353.2239 
L 672.792675 353.2239 
L 682.266325 353.2239 
L 691.739975 353.2239 
L 701.213625 353.2239 
L 710.687275 353.2239 
L 720.160925 353.2239 
L 729.634575 353.2239 
L 739.108225 353.2239 
L 748.581875 353.2239 
L 758.055525 353.2239 
L 767.529175 353.2239 
L 777.002825 353.2239 
L 786.476475 353.2239 
L 795.950125 353.2239 
L 805.423775 353.2239 
L 814.897425 353.2239 
L 824.371075 353.2239 
L 833.844725 353.2239 
L 843.318375 353.2239 
L 852.792025 353.2239 
L 862.265675 353.2239 
L 871.739325 353.2239 
L 881.212975 353.2239 
L 890.686625 353.2239 
L 900.160275 353.2239 
L 909.633925 353.2239 
L 919.107575 353.2239 
L 928.581225 353.2239 
L 938.054875 353.2239 
L 947.528525 353.2239 
L 957.002175 353.2239 
L 966.475825 353.2239 
L 975.949475 353.2239 
L 985.423125 353.2239 
" style="fill:none;stroke:#d9534f;stroke-linecap:square;"/>
   </g>
   <g id="line2d_10">
    <path clip-path="url(#p6b9041e863)" d="M 38.058125 353.2239 
L 47.531775 353.2239 
L 57.005425 353.2239 
L 66.479075 353.2239 
L 75.952725 353.2239 
L 85.426375 353.2239 
L 94.900025 353.2239 
L 104.373675 353.2239 
L 113.847325 353.2239 
L 123.320975 353.2239 
L 132.794625 353.2239 
L 142.268275 353.2239 
L 151.741925 353.2239 
L 161.215575 353.2239 
L 170.689225 353.2239 
L 180.162875 353.2239 
L 189.636525 353.2239 
L 199.110175 353.2239 
L 208.583825 353.2239 
L 218.057475 353.2239 
L 227.531125 353.2239 
L 237.004775 353.2239 
L 246.478425 353.2239 
L 255.952075 348.9132 
L 265.425725 349.990875 
L 274.899375 352.146225 
L 284.373025 353.2239 
L 293.846675 353.2239 
L 303.320325 351.06855 
L 312.793975 352.146225 
L 322.267625 349.990875 
L 331.741275 347.835525 
L 341.214925 351.06855 
L 350.688575 352.146225 
L 360.162225 351.06855 
L 369.635875 349.990875 
L 379.109525 346.75785 
L 388.583175 348.9132 
L 398.056825 349.990875 
L 407.530475 343.524825 
L 417.004125 345.680175 
L 426.477775 303.112014 
L 435.951425 266.201646 
L 445.425075 303.112014 
L 454.898725 327.359701 
L 464.372375 304.459108 
L 473.846025 292.335264 
L 483.319675 276.17014 
L 492.793325 233.871397 
L 502.266975 179.71823 
L 511.740625 158.434149 
L 521.214275 145.232631 
L 530.687925 187.261955 
L 540.161575 284.252702 
L 549.635225 263.776877 
L 559.108875 269.165252 
L 568.582525 300.417826 
L 578.056175 308.500389 
L 587.529825 326.282026 
L 597.003475 337.058775 
L 606.477125 346.75785 
L 615.950775 346.75785 
L 625.424425 347.835525 
L 634.898075 351.607388 
L 644.371725 352.146225 
L 653.845375 352.146225 
L 663.319025 353.2239 
L 672.792675 353.2239 
L 682.266325 353.2239 
L 691.739975 353.2239 
L 701.213625 353.2239 
L 710.687275 353.2239 
L 720.160925 353.2239 
L 729.634575 353.2239 
L 739.108225 353.2239 
L 748.581875 353.2239 
L 758.055525 353.2239 
L 767.529175 353.2239 
L 777.002825 353.2239 
L 786.476475 353.2239 
L 795.950125 353.2239 
L 805.423775 353.2239 
L 814.897425 353.2239 
L 824.371075 353.2239 
L 833.844725 353.2239 
L 843.318375 353.2239 
L 852.792025 353.2239 
L 862.265675 353.2239 
L 871.739325 353.2239 
L 881.212975 353.2239 
L 890.686625 353.2239 
L 900.160275 353.2239 
L 909.633925 353.2239 
L 919.107575 353.2239 
L 928.581225 353.2239 
L 938.054875 353.2239 
L 947.528525 353.2239 
L 957.002175 353.2239 
L 966.475825 353.2239 
L 975.949475 353.2239 
L 985.423125 353.2239 
" style="fill:none;stroke:#d9534f;stroke-linecap:square;"/>
   </g>
   <g id="line2d_11">
    <path clip-path="url(#p6b9041e863)" d="M 38.058125 353.2239 
L 47.531775 353.2239 
L 57.005425 353.2239 
L 66.479075 353.2239 
L 75.952725 353.2239 
L 85.426375 353.2239 
L 94.900025 353.2239 
L 104.373675 353.2239 
L 113.847325 353.2239 
L 123.320975 353.2239 
L 132.794625 353.2239 
L 142.268275 353.2239 
L 151.741925 353.2239 
L 161.215575 353.2239 
L 170.689225 353.2239 
L 180.162875 353.2239 
L 189.636525 353.2239 
L 199.110175 353.2239 
L 208.583825 353.2239 
L 218.057475 353.2239 
L 227.531125 353.2239 
L 237.004775 353.2239 
L 246.478425 353.2239 
L 255.952075 353.2239 
L 265.425725 353.2239 
L 274.899375 353.2239 
L 284.373025 353.2239 
L 293.846675 353.2239 
L 303.320325 353.2239 
L 312.793975 353.2239 
L 322.267625 352.146225 
L 331.741275 351.06855 
L 341.214925 353.2239 
L 350.688575 353.2239 
L 360.162225 353.2239 
L 369.635875 353.2239 
L 379.109525 353.2239 
L 388.583175 352.146225 
L 398.056825 353.2239 
L 407.530475 352.146225 
L 417.004125 351.337969 
L 426.477775 345.680175 
L 435.951425 271.051184 
L 445.425075 254.077803 
L 454.898725 316.85237 
L 464.372375 308.500389 
L 473.846025 282.905608 
L 483.319675 288.293983 
L 492.793325 304.997945 
L 502.266975 306.07562 
L 511.740625 269.70409 
L 521.214275 275.361883 
L 530.687925 272.937115 
L 540.161575 240.337447 
L 549.635225 136.611231 
L 559.108875 163.553105 
L 568.582525 211.240223 
L 578.056175 251.114197 
L 587.529825 320.354813 
L 597.003475 335.172844 
L 606.477125 347.835525 
L 615.950775 351.06855 
L 625.424425 351.607388 
L 634.898075 352.415644 
L 644.371725 353.2239 
L 653.845375 353.2239 
L 663.319025 353.2239 
L 672.792675 353.2239 
L 682.266325 353.2239 
L 691.739975 353.2239 
L 701.213625 353.2239 
L 710.687275 353.2239 
L 720.160925 353.2239 
L 729.634575 353.2239 
L 739.108225 353.2239 
L 748.581875 353.2239 
L 758.055525 353.2239 
L 767.529175 353.2239 
L 777.002825 353.2239 
L 786.476475 353.2239 
L 795.950125 353.2239 
L 805.423775 353.2239 
L 814.897425 353.2239 
L 824.371075 353.2239 
L 833.844725 353.2239 
L 843.318375 353.2239 
L 852.792025 353.2239 
L 862.265675 353.2239 
L 871.739325 353.2239 
L 881.212975 353.2239 
L 890.686625 353.2239 
L 900.160275 353.2239 
L 909.633925 353.2239 
L 919.107575 353.2239 
L 928.581225 353.2239 
L 938.054875 353.2239 
L 947.528525 353.2239 
L 957.002175 353.2239 
L 966.475825 353.2239 
L 975.949475 353.2239 
L 985.423125 353.2239 
" style="fill:none;stroke:#d9534f;stroke-linecap:square;"/>
   </g>
   <g id="line2d_12">
    <path clip-path="url(#p6b9041e863)" d="M 38.058125 353.2239 
L 47.531775 353.2239 
L 57.005425 353.2239 
L 66.479075 353.2239 
L 75.952725 353.2239 
L 85.426375 353.2239 
L 94.900025 353.2239 
L 104.373675 353.2239 
L 113.847325 353.2239 
L 123.320975 353.2239 
L 132.794625 353.2239 
L 142.268275 353.2239 
L 151.741925 353.2239 
L 161.215575 353.2239 
L 170.689225 353.2239 
L 180.162875 353.2239 
L 189.636525 353.2239 
L 199.110175 353.2239 
L 208.583825 353.2239 
L 218.057475 353.2239 
L 227.531125 353.2239 
L 237.004775 353.2239 
L 246.478425 353.2239 
L 255.952075 349.990875 
L 265.425725 351.06855 
L 274.899375 353.2239 
L 284.373025 352.146225 
L 293.846675 353.2239 
L 303.320325 352.146225 
L 312.793975 352.146225 
L 322.267625 348.9132 
L 331.741275 349.990875 
L 341.214925 353.2239 
L 350.688575 353.2239 
L 360.162225 352.146225 
L 369.635875 352.146225 
L 379.109525 351.06855 
L 388.583175 352.146225 
L 398.056825 353.2239 
L 407.530475 350.260294 
L 417.004125 350.529713 
L 426.477775 310.655739 
L 435.951425 277.786652 
L 445.425075 300.417826 
L 454.898725 309.847482 
L 464.372375 295.837708 
L 473.846025 298.801314 
L 483.319675 260.813271 
L 492.793325 215.820341 
L 502.266975 170.019155 
L 511.740625 201.00231 
L 521.214275 170.557993 
L 530.687925 208.276616 
L 540.161575 277.247815 
L 549.635225 275.631302 
L 559.108875 266.201646 
L 568.582525 297.184802 
L 578.056175 309.039226 
L 587.529825 329.515051 
L 597.003475 343.524825 
L 606.477125 344.6025 
L 615.950775 347.835525 
L 625.424425 348.9132 
L 634.898075 352.146225 
L 644.371725 353.2239 
L 653.845375 353.2239 
L 663.319025 353.2239 
L 672.792675 353.2239 
L 682.266325 353.2239 
L 691.739975 353.2239 
L 701.213625 353.2239 
L 710.687275 353.2239 
L 720.160925 353.2239 
L 729.634575 353.2239 
L 739.108225 353.2239 
L 748.581875 353.2239 
L 758.055525 353.2239 
L 767.529175 353.2239 
L 777.002825 353.2239 
L 786.476475 353.2239 
L 795.950125 353.2239 
L 805.423775 353.2239 
L 814.897425 353.2239 
L 824.371075 353.2239 
L 833.844725 353.2239 
L 843.318375 353.2239 
L 852.792025 353.2239 
L 862.265675 353.2239 
L 871.739325 353.2239 
L 881.212975 353.2239 
L 890.686625 353.2239 
L 900.160275 353.2239 
L 909.633925 353.2239 
L 919.107575 353.2239 
L 928.581225 353.2239 
L 938.054875 353.2239 
L 947.528525 353.2239 
L 957.002175 353.2239 
L 966.475825 353.2239 
L 975.949475 353.2239 
L 985.423125 353.2239 
" style="fill:none;stroke:#d9534f;stroke-linecap:square;"/>
   </g>
   <g id="line2d_13">
    <path clip-path="url(#p6b9041e863)" d="M 38.058125 353.2239 
L 47.531775 353.2239 
L 57.005425 353.2239 
L 66.479075 353.2239 
L 75.952725 353.2239 
L 85.426375 353.2239 
L 94.900025 353.2239 
L 104.373675 353.2239 
L 113.847325 353.2239 
L 123.320975 353.2239 
L 132.794625 353.2239 
L 142.268275 353.2239 
L 151.741925 353.2239 
L 161.215575 353.2239 
L 170.689225 353.2239 
L 180.162875 353.2239 
L 189.636525 353.2239 
L 199.110175 353.2239 
L 208.583825 353.2239 
L 218.057475 353.2239 
L 227.531125 353.2239 
L 237.004775 353.2239 
L 246.478425 353.2239 
L 255.952075 353.2239 
L 265.425725 353.2239 
L 274.899375 353.2239 
L 284.373025 353.2239 
L 293.846675 353.2239 
L 303.320325 352.146225 
L 312.793975 352.146225 
L 322.267625 353.2239 
L 331.741275 353.2239 
L 341.214925 352.146225 
L 350.688575 352.146225 
L 360.162225 353.2239 
L 369.635875 353.2239 
L 379.109525 353.2239 
L 388.583175 353.2239 
L 398.056825 353.2239 
L 407.530475 352.415644 
L 417.004125 352.415644 
L 426.477775 348.9132 
L 435.951425 252.46129 
L 445.425075 232.793722 
L 454.898725 313.619345 
L 464.372375 312.002832 
L 473.846025 290.98817 
L 483.319675 282.097352 
L 492.793325 290.449333 
L 502.266975 306.883876 
L 511.740625 288.563402 
L 521.214275 292.065845 
L 530.687925 276.708977 
L 540.161575 234.140816 
L 549.635225 102.395051 
L 559.108875 152.506937 
L 568.582525 211.240223 
L 578.056175 247.611753 
L 587.529825 319.815976 
L 597.003475 337.058775 
L 606.477125 348.9132 
L 615.950775 340.830638 
L 625.424425 345.141338 
L 634.898075 351.06855 
L 644.371725 353.2239 
L 653.845375 353.2239 
L 663.319025 353.2239 
L 672.792675 353.2239 
L 682.266325 353.2239 
L 691.739975 353.2239 
L 701.213625 353.2239 
L 710.687275 353.2239 
L 720.160925 353.2239 
L 729.634575 353.2239 
L 739.108225 353.2239 
L 748.581875 353.2239 
L 758.055525 353.2239 
L 767.529175 353.2239 
L 777.002825 353.2239 
L 786.476475 353.2239 
L 795.950125 353.2239 
L 805.423775 353.2239 
L 814.897425 353.2239 
L 824.371075 353.2239 
L 833.844725 353.2239 
L 843.318375 353.2239 
L 852.792025 353.2239 
L 862.265675 353.2239 
L 871.739325 353.2239 
L 881.212975 353.2239 
L 890.686625 353.2239 
L 900.160275 353.2239 
L 909.633925 353.2239 
L 919.107575 353.2239 
L 928.581225 353.2239 
L 938.054875 353.2239 
L 947.528525 353.2239 
L 957.002175 353.2239 
L 966.475825 353.2239 
L 975.949475 353.2239 
L 985.423125 353.2239 
" style="fill:none;stroke:#d9534f;stroke-linecap:square;"/>
   </g>
   <g id="line2d_14">
    <path clip-path="url(#p6b9041e863)" d="M 38.058125 353.2239 
L 47.531775 353.2239 
L 57.005425 353.2239 
L 66.479075 353.2239 
L 75.952725 353.2239 
L 85.426375 353.2239 
L 94.900025 353.2239 
L 104.373675 353.2239 
L 113.847325 353.2239 
L 123.320975 353.2239 
L 132.794625 353.2239 
L 142.268275 353.2239 
L 151.741925 353.2239 
L 161.215575 353.2239 
L 170.689225 353.2239 
L 180.162875 353.2239 
L 189.636525 353.2239 
L 199.110175 353.2239 
L 208.583825 353.2239 
L 218.057475 353.2239 
L 227.531125 353.2239 
L 237.004775 353.2239 
L 246.478425 353.2239 
L 255.952075 353.2239 
L 265.425725 353.2239 
L 274.899375 353.2239 
L 284.373025 351.06855 
L 293.846675 351.06855 
L 303.320325 349.990875 
L 312.793975 352.146225 
L 322.267625 352.146225 
L 331.741275 353.2239 
L 341.214925 352.146225 
L 350.688575 352.146225 
L 360.162225 353.2239 
L 369.635875 353.2239 
L 379.109525 351.06855 
L 388.583175 351.06855 
L 398.056825 352.146225 
L 407.530475 346.219013 
L 417.004125 344.871919 
L 426.477775 277.247815 
L 435.951425 240.876284 
L 445.425075 304.459108 
L 454.898725 304.997945 
L 464.372375 303.112014 
L 473.846025 311.463995 
L 483.319675 302.303758 
L 492.793325 289.102239 
L 502.266975 279.942002 
L 511.740625 263.23804 
L 521.214275 259.196759 
L 530.687925 288.832821 
L 540.161575 275.092465 
L 549.635225 181.334742 
L 559.108875 186.453698 
L 568.582525 224.172322 
L 578.056175 247.611753 
L 587.529825 305.806201 
L 597.003475 305.806201 
L 606.477125 331.670401 
L 615.950775 347.835525 
L 625.424425 353.2239 
L 634.898075 350.260294 
L 644.371725 351.06855 
L 653.845375 351.337969 
L 663.319025 353.2239 
L 672.792675 353.2239 
L 682.266325 353.2239 
L 691.739975 353.2239 
L 701.213625 353.2239 
L 710.687275 353.2239 
L 720.160925 352.415644 
L 729.634575 352.415644 
L 739.108225 353.2239 
L 748.581875 353.2239 
L 758.055525 353.2239 
L 767.529175 353.2239 
L 777.002825 353.2239 
L 786.476475 353.2239 
L 795.950125 353.2239 
L 805.423775 353.2239 
L 814.897425 353.2239 
L 824.371075 353.2239 
L 833.844725 353.2239 
L 843.318375 353.2239 
L 852.792025 353.2239 
L 862.265675 353.2239 
L 871.739325 353.2239 
L 881.212975 353.2239 
L 890.686625 353.2239 
L 900.160275 353.2239 
L 909.633925 353.2239 
L 919.107575 353.2239 
L 928.581225 353.2239 
L 938.054875 353.2239 
L 947.528525 353.2239 
L 957.002175 353.2239 
L 966.475825 353.2239 
L 975.949475 353.2239 
L 985.423125 353.2239 
" style="fill:none;stroke:#d9534f;stroke-linecap:square;"/>
   </g>
   <g id="line2d_15">
    <path clip-path="url(#p6b9041e863)" d="M 38.058125 353.2239 
L 47.531775 353.2239 
L 57.005425 353.2239 
L 66.479075 353.2239 
L 75.952725 353.2239 
L 85.426375 353.2239 
L 94.900025 353.2239 
L 104.373675 353.2239 
L 113.847325 353.2239 
L 123.320975 353.2239 
L 132.794625 353.2239 
L 142.268275 353.2239 
L 151.741925 353.2239 
L 161.215575 353.2239 
L 170.689225 353.2239 
L 180.162875 353.2239 
L 189.636525 353.2239 
L 199.110175 353.2239 
L 208.583825 353.2239 
L 218.057475 353.2239 
L 227.531125 353.2239 
L 237.004775 353.2239 
L 246.478425 353.2239 
L 255.952075 353.2239 
L 265.425725 353.2239 
L 274.899375 353.2239 
L 284.373025 353.2239 
L 293.846675 353.2239 
L 303.320325 353.2239 
L 312.793975 353.2239 
L 322.267625 353.2239 
L 331.741275 352.146225 
L 341.214925 351.06855 
L 350.688575 352.146225 
L 360.162225 353.2239 
L 369.635875 351.06855 
L 379.109525 350.260294 
L 388.583175 353.2239 
L 398.056825 351.06855 
L 407.530475 351.06855 
L 417.004125 351.06855 
L 426.477775 346.75785 
L 435.951425 207.737779 
L 445.425075 196.961029 
L 454.898725 324.665513 
L 464.372375 305.267364 
L 473.846025 312.002832 
L 483.319675 301.226083 
L 492.793325 307.153295 
L 502.266975 306.07562 
L 511.740625 318.199463 
L 521.214275 315.505276 
L 530.687925 293.951777 
L 540.161575 284.252702 
L 549.635225 108.591682 
L 559.108875 143.077281 
L 568.582525 200.194054 
L 578.056175 268.087577 
L 587.529825 311.733414 
L 597.003475 333.286913 
L 606.477125 349.990875 
L 615.950775 351.06855 
L 625.424425 352.146225 
L 634.898075 351.607388 
L 644.371725 353.2239 
L 653.845375 352.146225 
L 663.319025 352.146225 
L 672.792675 353.2239 
L 682.266325 353.2239 
L 691.739975 353.2239 
L 701.213625 353.2239 
L 710.687275 353.2239 
L 720.160925 353.2239 
L 729.634575 353.2239 
L 739.108225 353.2239 
L 748.581875 353.2239 
L 758.055525 353.2239 
L 767.529175 353.2239 
L 777.002825 353.2239 
L 786.476475 353.2239 
L 795.950125 353.2239 
L 805.423775 353.2239 
L 814.897425 353.2239 
L 824.371075 353.2239 
L 833.844725 353.2239 
L 843.318375 353.2239 
L 852.792025 353.2239 
L 862.265675 353.2239 
L 871.739325 353.2239 
L 881.212975 353.2239 
L 890.686625 353.2239 
L 900.160275 353.2239 
L 909.633925 353.2239 
L 919.107575 353.2239 
L 928.581225 353.2239 
L 938.054875 353.2239 
L 947.528525 353.2239 
L 957.002175 353.2239 
L 966.475825 353.2239 
L 975.949475 353.2239 
L 985.423125 353.2239 
" style="fill:none;stroke:#d9534f;stroke-linecap:square;"/>
   </g>
   <g id="line2d_16">
    <path clip-path="url(#p6b9041e863)" d="M 38.058125 353.2239 
L 47.531775 353.2239 
L 57.005425 353.2239 
L 66.479075 353.2239 
L 75.952725 353.2239 
L 85.426375 353.2239 
L 94.900025 353.2239 
L 104.373675 353.2239 
L 113.847325 353.2239 
L 123.320975 353.2239 
L 132.794625 353.2239 
L 142.268275 353.2239 
L 151.741925 353.2239 
L 161.215575 353.2239 
L 170.689225 353.2239 
L 180.162875 353.2239 
L 189.636525 353.2239 
L 199.110175 353.2239 
L 208.583825 353.2239 
L 218.057475 353.2239 
L 227.531125 353.2239 
L 237.004775 353.2239 
L 246.478425 348.9132 
L 255.952075 348.9132 
L 265.425725 353.2239 
L 274.899375 353.2239 
L 284.373025 347.835525 
L 293.846675 353.2239 
L 303.320325 353.2239 
L 312.793975 347.835525 
L 322.267625 346.75785 
L 331.741275 351.06855 
L 341.214925 351.06855 
L 350.688575 351.06855 
L 360.162225 349.452038 
L 369.635875 348.9132 
L 379.109525 342.44715 
L 388.583175 342.44715 
L 398.056825 347.835525 
L 407.530475 346.219013 
L 417.004125 342.44715 
L 426.477775 263.23804 
L 435.951425 234.140816 
L 445.425075 297.45422 
L 454.898725 228.752441 
L 464.372375 170.019155 
L 473.846025 255.963734 
L 483.319675 306.883876 
L 492.793325 297.723639 
L 502.266975 254.077803 
L 511.740625 254.347221 
L 521.214275 272.667696 
L 530.687925 293.951777 
L 540.161575 273.745371 
L 549.635225 230.907791 
L 559.108875 243.031634 
L 568.582525 278.864327 
L 578.056175 296.645964 
L 587.529825 326.282026 
L 597.003475 335.172844 
L 606.477125 344.6025 
L 615.950775 349.990875 
L 625.424425 345.680175 
L 634.898075 347.296688 
L 644.371725 352.146225 
L 653.845375 353.2239 
L 663.319025 353.2239 
L 672.792675 353.2239 
L 682.266325 353.2239 
L 691.739975 353.2239 
L 701.213625 353.2239 
L 710.687275 353.2239 
L 720.160925 353.2239 
L 729.634575 353.2239 
L 739.108225 352.415644 
L 748.581875 352.415644 
L 758.055525 353.2239 
L 767.529175 353.2239 
L 777.002825 353.2239 
L 786.476475 353.2239 
L 795.950125 353.2239 
L 805.423775 353.2239 
L 814.897425 353.2239 
L 824.371075 353.2239 
L 833.844725 353.2239 
L 843.318375 353.2239 
L 852.792025 353.2239 
L 862.265675 353.2239 
L 871.739325 353.2239 
L 881.212975 353.2239 
L 890.686625 353.2239 
L 900.160275 353.2239 
L 909.633925 353.2239 
L 919.107575 353.2239 
L 928.581225 353.2239 
L 938.054875 353.2239 
L 947.528525 353.2239 
L 957.002175 353.2239 
L 966.475825 353.2239 
L 975.949475 353.2239 
L 985.423125 353.2239 
" style="fill:none;stroke:#d9534f;stroke-linecap:square;"/>
   </g>
   <g id="line2d_17">
    <path clip-path="url(#p6b9041e863)" d="M 38.058125 353.2239 
L 47.531775 353.2239 
L 57.005425 353.2239 
L 66.479075 353.2239 
L 75.952725 353.2239 
L 85.426375 353.2239 
L 94.900025 353.2239 
L 104.373675 353.2239 
L 113.847325 353.2239 
L 123.320975 353.2239 
L 132.794625 353.2239 
L 142.268275 353.2239 
L 151.741925 353.2239 
L 161.215575 353.2239 
L 170.689225 353.2239 
L 180.162875 353.2239 
L 189.636525 353.2239 
L 199.110175 353.2239 
L 208.583825 353.2239 
L 218.057475 353.2239 
L 227.531125 353.2239 
L 237.004775 353.2239 
L 246.478425 353.2239 
L 255.952075 353.2239 
L 265.425725 353.2239 
L 274.899375 353.2239 
L 284.373025 353.2239 
L 293.846675 353.2239 
L 303.320325 353.2239 
L 312.793975 353.2239 
L 322.267625 353.2239 
L 331.741275 353.2239 
L 341.214925 349.990875 
L 350.688575 352.146225 
L 360.162225 353.2239 
L 369.635875 353.2239 
L 379.109525 353.2239 
L 388.583175 353.2239 
L 398.056825 353.2239 
L 407.530475 353.2239 
L 417.004125 351.337969 
L 426.477775 341.369475 
L 435.951425 199.116379 
L 445.425075 196.152773 
L 454.898725 329.784469 
L 464.372375 297.45422 
L 473.846025 300.687245 
L 483.319675 279.133746 
L 492.793325 299.878989 
L 502.266975 300.148408 
L 511.740625 308.769807 
L 521.214275 314.966439 
L 530.687925 282.097352 
L 540.161575 280.211421 
L 549.635225 130.145181 
L 559.108875 170.288574 
L 568.582525 213.126154 
L 578.056175 244.648147 
L 587.529825 310.655739 
L 597.003475 341.369475 
L 606.477125 352.146225 
L 615.950775 352.146225 
L 625.424425 353.2239 
L 634.898075 351.06855 
L 644.371725 351.06855 
L 653.845375 353.2239 
L 663.319025 353.2239 
L 672.792675 353.2239 
L 682.266325 353.2239 
L 691.739975 353.2239 
L 701.213625 353.2239 
L 710.687275 353.2239 
L 720.160925 353.2239 
L 729.634575 353.2239 
L 739.108225 353.2239 
L 748.581875 353.2239 
L 758.055525 353.2239 
L 767.529175 353.2239 
L 777.002825 353.2239 
L 786.476475 353.2239 
L 795.950125 353.2239 
L 805.423775 353.2239 
L 814.897425 353.2239 
L 824.371075 353.2239 
L 833.844725 353.2239 
L 843.318375 353.2239 
L 852.792025 353.2239 
L 862.265675 353.2239 
L 871.739325 353.2239 
L 881.212975 353.2239 
L 890.686625 353.2239 
L 900.160275 353.2239 
L 909.633925 353.2239 
L 919.107575 353.2239 
L 928.581225 353.2239 
L 938.054875 353.2239 
L 947.528525 353.2239 
L 957.002175 353.2239 
L 966.475825 353.2239 
L 975.949475 353.2239 
L 985.423125 353.2239 
" style="fill:none;stroke:#d9534f;stroke-linecap:square;"/>
   </g>
   <g id="line2d_18">
    <path clip-path="url(#p6b9041e863)" d="M 38.058125 353.2239 
L 47.531775 353.2239 
L 57.005425 353.2239 
L 66.479075 353.2239 
L 75.952725 353.2239 
L 85.426375 353.2239 
L 94.900025 353.2239 
L 104.373675 353.2239 
L 113.847325 353.2239 
L 123.320975 353.2239 
L 132.794625 353.2239 
L 142.268275 353.2239 
L 151.741925 353.2239 
L 161.215575 353.2239 
L 170.689225 353.2239 
L 180.162875 353.2239 
L 189.636525 353.2239 
L 199.110175 353.2239 
L 208.583825 352.146225 
L 218.057475 352.146225 
L 227.531125 353.2239 
L 237.004775 352.146225 
L 246.478425 347.835525 
L 255.952075 346.75785 
L 265.425725 353.2239 
L 274.899375 353.2239 
L 284.373025 351.06855 
L 293.846675 353.2239 
L 303.320325 353.2239 
L 312.793975 351.06855 
L 322.267625 351.06855 
L 331.741275 353.2239 
L 341.214925 352.146225 
L 350.688575 351.06855 
L 360.162225 349.990875 
L 369.635875 351.06855 
L 379.109525 337.328194 
L 388.583175 335.9811 
L 398.056825 353.2239 
L 407.530475 347.835525 
L 417.004125 348.374363 
L 426.477775 323.31842 
L 435.951425 288.563402 
L 445.425075 309.308645 
L 454.898725 195.613936 
L 464.372375 117.213081 
L 473.846025 258.119084 
L 483.319675 300.148408 
L 492.793325 298.801314 
L 502.266975 260.813271 
L 511.740625 265.123971 
L 521.214275 271.320602 
L 530.687925 304.728526 
L 540.161575 294.221195 
L 549.635225 241.145703 
L 559.108875 228.213603 
L 568.582525 240.068028 
L 578.056175 279.942002 
L 587.529825 331.670401 
L 597.003475 330.592726 
L 606.477125 342.44715 
L 615.950775 352.146225 
L 625.424425 351.06855 
L 634.898075 347.027269 
L 644.371725 349.990875 
L 653.845375 352.146225 
L 663.319025 353.2239 
L 672.792675 353.2239 
L 682.266325 353.2239 
L 691.739975 353.2239 
L 701.213625 353.2239 
L 710.687275 353.2239 
L 720.160925 353.2239 
L 729.634575 353.2239 
L 739.108225 352.146225 
L 748.581875 353.2239 
L 758.055525 353.2239 
L 767.529175 353.2239 
L 777.002825 353.2239 
L 786.476475 353.2239 
L 795.950125 353.2239 
L 805.423775 353.2239 
L 814.897425 353.2239 
L 824.371075 353.2239 
L 833.844725 353.2239 
L 843.318375 353.2239 
L 852.792025 353.2239 
L 862.265675 353.2239 
L 871.739325 353.2239 
L 881.212975 353.2239 
L 890.686625 353.2239 
L 900.160275 353.2239 
L 909.633925 353.2239 
L 919.107575 353.2239 
L 928.581225 353.2239 
L 938.054875 353.2239 
L 947.528525 353.2239 
L 957.002175 353.2239 
L 966.475825 353.2239 
L 975.949475 353.2239 
L 985.423125 353.2239 
" style="fill:none;stroke:#d9534f;stroke-linecap:square;"/>
   </g>
   <g id="line2d_19">
    <path clip-path="url(#p6b9041e863)" d="M 38.058125 353.2239 
L 47.531775 353.2239 
L 57.005425 353.2239 
L 66.479075 353.2239 
L 75.952725 353.2239 
L 85.426375 353.2239 
L 94.900025 353.2239 
L 104.373675 353.2239 
L 113.847325 353.2239 
L 123.320975 353.2239 
L 132.794625 353.2239 
L 142.268275 353.2239 
L 151.741925 353.2239 
L 161.215575 353.2239 
L 170.689225 353.2239 
L 180.162875 353.2239 
L 189.636525 353.2239 
L 199.110175 353.2239 
L 208.583825 353.2239 
L 218.057475 353.2239 
L 227.531125 353.2239 
L 237.004775 353.2239 
L 246.478425 353.2239 
L 255.952075 353.2239 
L 265.425725 353.2239 
L 274.899375 353.2239 
L 284.373025 353.2239 
L 293.846675 353.2239 
L 303.320325 353.2239 
L 312.793975 353.2239 
L 322.267625 353.2239 
L 331.741275 353.2239 
L 341.214925 353.2239 
L 350.688575 353.2239 
L 360.162225 353.2239 
L 369.635875 349.990875 
L 379.109525 351.06855 
L 388.583175 352.146225 
L 398.056825 352.146225 
L 407.530475 351.337969 
L 417.004125 351.607388 
L 426.477775 348.104944 
L 435.951425 216.359179 
L 445.425075 216.359179 
L 454.898725 334.364588 
L 464.372375 297.45422 
L 473.846025 316.044114 
L 483.319675 295.837708 
L 492.793325 302.573176 
L 502.266975 295.029452 
L 511.740625 305.267364 
L 521.214275 314.69702 
L 530.687925 288.563402 
L 540.161575 275.631302 
L 549.635225 139.036 
L 559.108875 136.611231 
L 568.582525 212.048479 
L 578.056175 227.135928 
L 587.529825 298.262477 
L 597.003475 337.058775 
L 606.477125 351.06855 
L 615.950775 353.2239 
L 625.424425 352.146225 
L 634.898075 352.146225 
L 644.371725 353.2239 
L 653.845375 353.2239 
L 663.319025 353.2239 
L 672.792675 353.2239 
L 682.266325 353.2239 
L 691.739975 353.2239 
L 701.213625 353.2239 
L 710.687275 353.2239 
L 720.160925 353.2239 
L 729.634575 352.415644 
L 739.108225 353.2239 
L 748.581875 353.2239 
L 758.055525 353.2239 
L 767.529175 353.2239 
L 777.002825 353.2239 
L 786.476475 353.2239 
L 795.950125 353.2239 
L 805.423775 353.2239 
L 814.897425 353.2239 
L 824.371075 353.2239 
L 833.844725 353.2239 
L 843.318375 353.2239 
L 852.792025 353.2239 
L 862.265675 353.2239 
L 871.739325 353.2239 
L 881.212975 353.2239 
L 890.686625 353.2239 
L 900.160275 353.2239 
L 909.633925 353.2239 
L 919.107575 353.2239 
L 928.581225 353.2239 
L 938.054875 353.2239 
L 947.528525 353.2239 
L 957.002175 353.2239 
L 966.475825 353.2239 
L 975.949475 353.2239 
L 985.423125 352.146225 
" style="fill:none;stroke:#d9534f;stroke-linecap:square;"/>
   </g>
   <g id="line2d_20">
    <path clip-path="url(#p6b9041e863)" d="M 38.058125 353.2239 
L 47.531775 353.2239 
L 57.005425 353.2239 
L 66.479075 353.2239 
L 75.952725 353.2239 
L 85.426375 353.2239 
L 94.900025 353.2239 
L 104.373675 353.2239 
L 113.847325 353.2239 
L 123.320975 353.2239 
L 132.794625 353.2239 
L 142.268275 353.2239 
L 151.741925 353.2239 
L 161.215575 353.2239 
L 170.689225 353.2239 
L 180.162875 353.2239 
L 189.636525 353.2239 
L 199.110175 353.2239 
L 208.583825 353.2239 
L 218.057475 353.2239 
L 227.531125 353.2239 
L 237.004775 353.2239 
L 246.478425 351.06855 
L 255.952075 349.990875 
L 265.425725 353.2239 
L 274.899375 351.06855 
L 284.373025 347.835525 
L 293.846675 351.06855 
L 303.320325 352.146225 
L 312.793975 353.2239 
L 322.267625 352.146225 
L 331.741275 351.06855 
L 341.214925 353.2239 
L 350.688575 352.146225 
L 360.162225 353.2239 
L 369.635875 351.06855 
L 379.109525 348.9132 
L 388.583175 349.990875 
L 398.056825 351.06855 
L 407.530475 351.06855 
L 417.004125 348.104944 
L 426.477775 285.060958 
L 435.951425 238.990353 
L 445.425075 303.92027 
L 454.898725 294.221195 
L 464.372375 272.398277 
L 473.846025 288.024564 
L 483.319675 301.76492 
L 492.793325 293.412939 
L 502.266975 266.471065 
L 511.740625 230.368953 
L 521.214275 253.269547 
L 530.687925 308.23097 
L 540.161575 285.330377 
L 549.635225 208.815454 
L 559.108875 177.56288 
L 568.582525 221.747554 
L 578.056175 261.08269 
L 587.529825 307.961551 
L 597.003475 335.9811 
L 606.477125 344.6025 
L 615.950775 347.835525 
L 625.424425 349.990875 
L 634.898075 350.799131 
L 644.371725 353.2239 
L 653.845375 353.2239 
L 663.319025 353.2239 
L 672.792675 353.2239 
L 682.266325 351.337969 
L 691.739975 352.146225 
L 701.213625 353.2239 
L 710.687275 353.2239 
L 720.160925 353.2239 
L 729.634575 353.2239 
L 739.108225 353.2239 
L 748.581875 353.2239 
L 758.055525 353.2239 
L 767.529175 353.2239 
L 777.002825 353.2239 
L 786.476475 353.2239 
L 795.950125 353.2239 
L 805.423775 353.2239 
L 814.897425 353.2239 
L 824.371075 353.2239 
L 833.844725 353.2239 
L 843.318375 353.2239 
L 852.792025 353.2239 
L 862.265675 353.2239 
L 871.739325 353.2239 
L 881.212975 353.2239 
L 890.686625 353.2239 
L 900.160275 353.2239 
L 909.633925 353.2239 
L 919.107575 353.2239 
L 928.581225 353.2239 
L 938.054875 353.2239 
L 947.528525 353.2239 
L 957.002175 353.2239 
L 966.475825 353.2239 
L 975.949475 353.2239 
L 985.423125 353.2239 
" style="fill:none;stroke:#d9534f;stroke-linecap:square;"/>
   </g>
   <g id="line2d_21">
    <path clip-path="url(#p6b9041e863)" d="M 38.058125 353.2239 
L 47.531775 353.2239 
L 57.005425 353.2239 
L 66.479075 353.2239 
L 75.952725 353.2239 
L 85.426375 353.2239 
L 94.900025 353.2239 
L 104.373675 353.2239 
L 113.847325 353.2239 
L 123.320975 353.2239 
L 132.794625 353.2239 
L 142.268275 353.2239 
L 151.741925 353.2239 
L 161.215575 353.2239 
L 170.689225 353.2239 
L 180.162875 353.2239 
L 189.636525 353.2239 
L 199.110175 353.2239 
L 208.583825 353.2239 
L 218.057475 353.2239 
L 227.531125 353.2239 
L 237.004775 353.2239 
L 246.478425 353.2239 
L 255.952075 353.2239 
L 265.425725 353.2239 
L 274.899375 353.2239 
L 284.373025 353.2239 
L 293.846675 353.2239 
L 303.320325 353.2239 
L 312.793975 353.2239 
L 322.267625 352.146225 
L 331.741275 353.2239 
L 341.214925 353.2239 
L 350.688575 353.2239 
L 360.162225 353.2239 
L 369.635875 352.146225 
L 379.109525 352.146225 
L 388.583175 353.2239 
L 398.056825 353.2239 
L 407.530475 353.2239 
L 417.004125 352.146225 
L 426.477775 348.9132 
L 435.951425 249.497684 
L 445.425075 239.798609 
L 454.898725 327.359701 
L 464.372375 325.47377 
L 473.846025 330.323307 
L 483.319675 324.934932 
L 492.793325 307.422714 
L 502.266975 301.495501 
L 511.740625 317.930045 
L 521.214275 320.893651 
L 530.687925 290.718752 
L 540.161575 279.942002 
L 549.635225 109.938775 
L 559.108875 50.397233 
L 568.582525 160.32008 
L 578.056175 236.835003 
L 587.529825 315.505276 
L 597.003475 340.2918 
L 606.477125 347.835525 
L 615.950775 348.9132 
L 625.424425 352.146225 
L 634.898075 353.2239 
L 644.371725 353.2239 
L 653.845375 352.146225 
L 663.319025 353.2239 
L 672.792675 353.2239 
L 682.266325 351.337969 
L 691.739975 353.2239 
L 701.213625 353.2239 
L 710.687275 353.2239 
L 720.160925 353.2239 
L 729.634575 353.2239 
L 739.108225 353.2239 
L 748.581875 353.2239 
L 758.055525 353.2239 
L 767.529175 353.2239 
L 777.002825 353.2239 
L 786.476475 353.2239 
L 795.950125 353.2239 
L 805.423775 353.2239 
L 814.897425 353.2239 
L 824.371075 352.415644 
L 833.844725 352.415644 
L 843.318375 353.2239 
L 852.792025 353.2239 
L 862.265675 353.2239 
L 871.739325 353.2239 
L 881.212975 353.2239 
L 890.686625 353.2239 
L 900.160275 353.2239 
L 909.633925 353.2239 
L 919.107575 353.2239 
L 928.581225 353.2239 
L 938.054875 353.2239 
L 947.528525 353.2239 
L 957.002175 353.2239 
L 966.475825 353.2239 
L 975.949475 353.2239 
L 985.423125 353.2239 
" style="fill:none;stroke:#d9534f;stroke-linecap:square;"/>
   </g>
   <g id="line2d_22">
    <path clip-path="url(#p6b9041e863)" d="M 38.058125 353.2239 
L 985.423125 353.2239 
" style="fill:none;stroke:#dedede;stroke-linecap:square;stroke-width:2;"/>
   </g>
   <g id="text_14">
    <!-- FastQC: Per Sequence GC Content -->
    <defs>
     <path d="M 9.8125 72.90625 
L 51.703125 72.90625 
L 51.703125 64.59375 
L 19.671875 64.59375 
L 19.671875 43.109375 
L 48.578125 43.109375 
L 48.578125 34.8125 
L 19.671875 34.8125 
L 19.671875 0 
L 9.8125 0 
z
" id="DejaVuSans-70"/>
     <path d="M 34.28125 27.484375 
Q 23.390625 27.484375 19.1875 25 
Q 14.984375 22.515625 14.984375 16.5 
Q 14.984375 11.71875 18.140625 8.90625 
Q 21.296875 6.109375 26.703125 6.109375 
Q 34.1875 6.109375 38.703125 11.40625 
Q 43.21875 16.703125 43.21875 25.484375 
L 43.21875 27.484375 
z
M 52.203125 31.203125 
L 52.203125 0 
L 43.21875 0 
L 43.21875 8.296875 
Q 40.140625 3.328125 35.546875 0.953125 
Q 30.953125 -1.421875 24.3125 -1.421875 
Q 15.921875 -1.421875 10.953125 3.296875 
Q 6 8.015625 6 15.921875 
Q 6 25.140625 12.171875 29.828125 
Q 18.359375 34.515625 30.609375 34.515625 
L 43.21875 34.515625 
L 43.21875 35.40625 
Q 43.21875 41.609375 39.140625 45 
Q 35.0625 48.390625 27.6875 48.390625 
Q 23 48.390625 18.546875 47.265625 
Q 14.109375 46.140625 10.015625 43.890625 
L 10.015625 52.203125 
Q 14.9375 54.109375 19.578125 55.046875 
Q 24.21875 56 28.609375 56 
Q 40.484375 56 46.34375 49.84375 
Q 52.203125 43.703125 52.203125 31.203125 
z
" id="DejaVuSans-97"/>
     <path d="M 44.28125 53.078125 
L 44.28125 44.578125 
Q 40.484375 46.53125 36.375 47.5 
Q 32.28125 48.484375 27.875 48.484375 
Q 21.1875 48.484375 17.84375 46.4375 
Q 14.5 44.390625 14.5 40.28125 
Q 14.5 37.15625 16.890625 35.375 
Q 19.28125 33.59375 26.515625 31.984375 
L 29.59375 31.296875 
Q 39.15625 29.25 43.1875 25.515625 
Q 47.21875 21.78125 47.21875 15.09375 
Q 47.21875 7.46875 41.1875 3.015625 
Q 35.15625 -1.421875 24.609375 -1.421875 
Q 20.21875 -1.421875 15.453125 -0.5625 
Q 10.6875 0.296875 5.421875 2 
L 5.421875 11.28125 
Q 10.40625 8.6875 15.234375 7.390625 
Q 20.0625 6.109375 24.8125 6.109375 
Q 31.15625 6.109375 34.5625 8.28125 
Q 37.984375 10.453125 37.984375 14.40625 
Q 37.984375 18.0625 35.515625 20.015625 
Q 33.0625 21.96875 24.703125 23.78125 
L 21.578125 24.515625 
Q 13.234375 26.265625 9.515625 29.90625 
Q 5.8125 33.546875 5.8125 39.890625 
Q 5.8125 47.609375 11.28125 51.796875 
Q 16.75 56 26.8125 56 
Q 31.78125 56 36.171875 55.265625 
Q 40.578125 54.546875 44.28125 53.078125 
z
" id="DejaVuSans-115"/>
     <path d="M 39.40625 66.21875 
Q 28.65625 66.21875 22.328125 58.203125 
Q 16.015625 50.203125 16.015625 36.375 
Q 16.015625 22.609375 22.328125 14.59375 
Q 28.65625 6.59375 39.40625 6.59375 
Q 50.140625 6.59375 56.421875 14.59375 
Q 62.703125 22.609375 62.703125 36.375 
Q 62.703125 50.203125 56.421875 58.203125 
Q 50.140625 66.21875 39.40625 66.21875 
z
M 53.21875 1.3125 
L 66.21875 -12.890625 
L 54.296875 -12.890625 
L 43.5 -1.21875 
Q 41.890625 -1.3125 41.03125 -1.359375 
Q 40.1875 -1.421875 39.40625 -1.421875 
Q 24.03125 -1.421875 14.8125 8.859375 
Q 5.609375 19.140625 5.609375 36.375 
Q 5.609375 53.65625 14.8125 63.9375 
Q 24.03125 74.21875 39.40625 74.21875 
Q 54.734375 74.21875 63.90625 63.9375 
Q 73.09375 53.65625 73.09375 36.375 
Q 73.09375 23.6875 67.984375 14.640625 
Q 62.890625 5.609375 53.21875 1.3125 
z
" id="DejaVuSans-81"/>
     <path d="M 11.71875 12.40625 
L 22.015625 12.40625 
L 22.015625 0 
L 11.71875 0 
z
M 11.71875 51.703125 
L 22.015625 51.703125 
L 22.015625 39.3125 
L 11.71875 39.3125 
z
" id="DejaVuSans-58"/>
     <path d="M 19.671875 64.796875 
L 19.671875 37.40625 
L 32.078125 37.40625 
Q 38.96875 37.40625 42.71875 40.96875 
Q 46.484375 44.53125 46.484375 51.125 
Q 46.484375 57.671875 42.71875 61.234375 
Q 38.96875 64.796875 32.078125 64.796875 
z
M 9.8125 72.90625 
L 32.078125 72.90625 
Q 44.34375 72.90625 50.609375 67.359375 
Q 56.890625 61.8125 56.890625 51.125 
Q 56.890625 40.328125 50.609375 34.8125 
Q 44.34375 29.296875 32.078125 29.296875 
L 19.671875 29.296875 
L 19.671875 0 
L 9.8125 0 
z
" id="DejaVuSans-80"/>
     <path d="M 56.203125 29.59375 
L 56.203125 25.203125 
L 14.890625 25.203125 
Q 15.484375 15.921875 20.484375 11.0625 
Q 25.484375 6.203125 34.421875 6.203125 
Q 39.59375 6.203125 44.453125 7.46875 
Q 49.3125 8.734375 54.109375 11.28125 
L 54.109375 2.78125 
Q 49.265625 0.734375 44.1875 -0.34375 
Q 39.109375 -1.421875 33.890625 -1.421875 
Q 20.796875 -1.421875 13.15625 6.1875 
Q 5.515625 13.8125 5.515625 26.8125 
Q 5.515625 40.234375 12.765625 48.109375 
Q 20.015625 56 32.328125 56 
Q 43.359375 56 49.78125 48.890625 
Q 56.203125 41.796875 56.203125 29.59375 
z
M 47.21875 32.234375 
Q 47.125 39.59375 43.09375 43.984375 
Q 39.0625 48.390625 32.421875 48.390625 
Q 24.90625 48.390625 20.390625 44.140625 
Q 15.875 39.890625 15.1875 32.171875 
z
" id="DejaVuSans-101"/>
     <path d="M 41.109375 46.296875 
Q 39.59375 47.171875 37.8125 47.578125 
Q 36.03125 48 33.890625 48 
Q 26.265625 48 22.1875 43.046875 
Q 18.109375 38.09375 18.109375 28.8125 
L 18.109375 0 
L 9.078125 0 
L 9.078125 54.6875 
L 18.109375 54.6875 
L 18.109375 46.1875 
Q 20.953125 51.171875 25.484375 53.578125 
Q 30.03125 56 36.53125 56 
Q 37.453125 56 38.578125 55.875 
Q 39.703125 55.765625 41.0625 55.515625 
z
" id="DejaVuSans-114"/>
     <path d="M 53.515625 70.515625 
L 53.515625 60.890625 
Q 47.90625 63.578125 42.921875 64.890625 
Q 37.9375 66.21875 33.296875 66.21875 
Q 25.25 66.21875 20.875 63.09375 
Q 16.5 59.96875 16.5 54.203125 
Q 16.5 49.359375 19.40625 46.890625 
Q 22.3125 44.4375 30.421875 42.921875 
L 36.375 41.703125 
Q 47.40625 39.59375 52.65625 34.296875 
Q 57.90625 29 57.90625 20.125 
Q 57.90625 9.515625 50.796875 4.046875 
Q 43.703125 -1.421875 29.984375 -1.421875 
Q 24.8125 -1.421875 18.96875 -0.25 
Q 13.140625 0.921875 6.890625 3.21875 
L 6.890625 13.375 
Q 12.890625 10.015625 18.65625 8.296875 
Q 24.421875 6.59375 29.984375 6.59375 
Q 38.421875 6.59375 43.015625 9.90625 
Q 47.609375 13.234375 47.609375 19.390625 
Q 47.609375 24.75 44.3125 27.78125 
Q 41.015625 30.8125 33.5 32.328125 
L 27.484375 33.5 
Q 16.453125 35.6875 11.515625 40.375 
Q 6.59375 45.0625 6.59375 53.421875 
Q 6.59375 63.09375 13.40625 68.65625 
Q 20.21875 74.21875 32.171875 74.21875 
Q 37.3125 74.21875 42.625 73.28125 
Q 47.953125 72.359375 53.515625 70.515625 
z
" id="DejaVuSans-83"/>
     <path d="M 14.796875 27.296875 
Q 14.796875 17.390625 18.875 11.75 
Q 22.953125 6.109375 30.078125 6.109375 
Q 37.203125 6.109375 41.296875 11.75 
Q 45.40625 17.390625 45.40625 27.296875 
Q 45.40625 37.203125 41.296875 42.84375 
Q 37.203125 48.484375 30.078125 48.484375 
Q 22.953125 48.484375 18.875 42.84375 
Q 14.796875 37.203125 14.796875 27.296875 
z
M 45.40625 8.203125 
Q 42.578125 3.328125 38.25 0.953125 
Q 33.9375 -1.421875 27.875 -1.421875 
Q 17.96875 -1.421875 11.734375 6.484375 
Q 5.515625 14.40625 5.515625 27.296875 
Q 5.515625 40.1875 11.734375 48.09375 
Q 17.96875 56 27.875 56 
Q 33.9375 56 38.25 53.625 
Q 42.578125 51.265625 45.40625 46.390625 
L 45.40625 54.6875 
L 54.390625 54.6875 
L 54.390625 -20.796875 
L 45.40625 -20.796875 
z
" id="DejaVuSans-113"/>
     <path d="M 48.78125 52.59375 
L 48.78125 44.1875 
Q 44.96875 46.296875 41.140625 47.34375 
Q 37.3125 48.390625 33.40625 48.390625 
Q 24.65625 48.390625 19.8125 42.84375 
Q 14.984375 37.3125 14.984375 27.296875 
Q 14.984375 17.28125 19.8125 11.734375 
Q 24.65625 6.203125 33.40625 6.203125 
Q 37.3125 6.203125 41.140625 7.25 
Q 44.96875 8.296875 48.78125 10.40625 
L 48.78125 2.09375 
Q 45.015625 0.34375 40.984375 -0.53125 
Q 36.96875 -1.421875 32.421875 -1.421875 
Q 20.0625 -1.421875 12.78125 6.34375 
Q 5.515625 14.109375 5.515625 27.296875 
Q 5.515625 40.671875 12.859375 48.328125 
Q 20.21875 56 33.015625 56 
Q 37.15625 56 41.109375 55.140625 
Q 45.0625 54.296875 48.78125 52.59375 
z
" id="DejaVuSans-99"/>
    </defs>
    <g transform="translate(375.104375 19.3575)scale(0.16 -0.16)">
     <use xlink:href="#DejaVuSans-70"/>
     <use x="48.394531" xlink:href="#DejaVuSans-97"/>
     <use x="109.673828" xlink:href="#DejaVuSans-115"/>
     <use x="161.773438" xlink:href="#DejaVuSans-116"/>
     <use x="200.982422" xlink:href="#DejaVuSans-81"/>
     <use x="279.693359" xlink:href="#DejaVuSans-67"/>
     <use x="349.517578" xlink:href="#DejaVuSans-58"/>
     <use x="383.208984" xlink:href="#DejaVuSans-32"/>
     <use x="414.996094" xlink:href="#DejaVuSans-80"/>
     <use x="471.673828" xlink:href="#DejaVuSans-101"/>
     <use x="533.197266" xlink:href="#DejaVuSans-114"/>
     <use x="574.310547" xlink:href="#DejaVuSans-32"/>
     <use x="606.097656" xlink:href="#DejaVuSans-83"/>
     <use x="669.574219" xlink:href="#DejaVuSans-101"/>
     <use x="731.097656" xlink:href="#DejaVuSans-113"/>
     <use x="794.574219" xlink:href="#DejaVuSans-117"/>
     <use x="857.953125" xlink:href="#DejaVuSans-101"/>
     <use x="919.476562" xlink:href="#DejaVuSans-110"/>
     <use x="982.855469" xlink:href="#DejaVuSans-99"/>
     <use x="1037.835938" xlink:href="#DejaVuSans-101"/>
     <use x="1099.359375" xlink:href="#DejaVuSans-32"/>
     <use x="1131.146484" xlink:href="#DejaVuSans-71"/>
     <use x="1208.636719" xlink:href="#DejaVuSans-67"/>
     <use x="1278.460938" xlink:href="#DejaVuSans-32"/>
     <use x="1310.248047" xlink:href="#DejaVuSans-67"/>
     <use x="1380.072266" xlink:href="#DejaVuSans-111"/>
     <use x="1441.253906" xlink:href="#DejaVuSans-110"/>
     <use x="1504.632812" xlink:href="#DejaVuSans-116"/>
     <use x="1543.841797" xlink:href="#DejaVuSans-101"/>
     <use x="1605.365234" xlink:href="#DejaVuSans-110"/>
     <use x="1668.744141" xlink:href="#DejaVuSans-116"/>
    </g>
   </g>
  </g>
 </g>
 <defs>
  <clipPath id="p6b9041e863">
   <rect height="317.968" width="947.365" x="38.058125" y="35.2559"/>
  </clipPath>
 </defs>
</svg>
