<?xml version="1.0" encoding="utf-8" standalone="no"?>
<!DOCTYPE svg PUBLIC "-//W3C//DTD SVG 1.1//EN"
  "http://www.w3.org/Graphics/SVG/1.1/DTD/svg11.dtd">
<svg xmlns:xlink="http://www.w3.org/1999/xlink" width="1000.358125pt" height="330.541644pt" viewBox="0 0 1000.358125 330.541644" xmlns="http://www.w3.org/2000/svg" version="1.1">
 <metadata>
  <rdf:RDF xmlns:dc="http://purl.org/dc/elements/1.1/" xmlns:cc="http://creativecommons.org/ns#" xmlns:rdf="http://www.w3.org/1999/02/22-rdf-syntax-ns#">
   <cc:Work>
    <dc:type rdf:resource="http://purl.org/dc/dcmitype/StillImage"/>
    <dc:date>2024-06-28T13:31:38.896915</dc:date>
    <dc:format>image/svg+xml</dc:format>
    <dc:creator>
     <cc:Agent>
      <dc:title>Matplotlib v3.7.1, https://matplotlib.org/</dc:title>
     </cc:Agent>
    </dc:creator>
   </cc:Work>
  </rdf:RDF>
 </metadata>
 <defs>
  <style type="text/css">*{stroke-linejoin: round; stroke-linecap: butt}</style>
 </defs>
 <g id="figure_1">
  <g id="axes_1">
   <g id="patch_1">
    <path d="M 32.968125 273.99006 
L 993.158125 273.99006 
L 993.158125 31.48286 
L 32.968125 31.48286 
z
" style="fill: #ffffff"/>
   </g>
   <g id="patch_2">
    <path d="M 32.968125 -696.03874 
L 953.243467 -696.03874 
L 953.243467 -4576.15394 
L 32.968125 -4576.15394 
z
" clip-path="url(#pe3dfde30e5)" style="fill: #e6c3c3"/>
   </g>
   <g id="patch_3">
    <path d="M 32.968125 31.48286 
L 953.243467 31.48286 
L 953.243467 -696.03874 
L 32.968125 -696.03874 
z
" clip-path="url(#pe3dfde30e5)" style="fill: #e6dcc3"/>
   </g>
   <g id="patch_4">
    <path d="M 32.968125 273.99006 
L 953.243467 273.99006 
L 953.243467 31.48286 
L 32.968125 31.48286 
z
" clip-path="url(#pe3dfde30e5)" style="fill: #c3e6c3"/>
   </g>
   <g id="matplotlib.axis_1">
    <g id="xtick_1">
     <g id="text_1">
      <!-- 0 -->
      <g transform="translate(70.337783 287.06881) scale(0.08 -0.08)">
       <defs>
        <path id="DejaVuSans-30" d="M 2034 4250 
Q 1547 4250 1301 3770 
Q 1056 3291 1056 2328 
Q 1056 1369 1301 889 
Q 1547 409 2034 409 
Q 2525 409 2770 889 
Q 3016 1369 3016 2328 
Q 3016 3291 2770 3770 
Q 2525 4250 2034 4250 
z
M 2034 4750 
Q 2819 4750 3233 4129 
Q 3647 3509 3647 2328 
Q 3647 1150 3233 529 
Q 2819 -91 2034 -91 
Q 1250 -91 836 529 
Q 422 1150 422 2328 
Q 422 3509 836 4129 
Q 1250 4750 2034 4750 
z
" transform="scale(0.015625)"/>
       </defs>
       <use xlink:href="#DejaVuSans-30"/>
      </g>
     </g>
    </g>
    <g id="xtick_2">
     <g id="text_2">
      <!-- 50 -->
      <g transform="translate(254.309877 287.06881) scale(0.08 -0.08)">
       <defs>
        <path id="DejaVuSans-35" d="M 691 4666 
L 3169 4666 
L 3169 4134 
L 1269 4134 
L 1269 2991 
Q 1406 3038 1543 3061 
Q 1681 3084 1819 3084 
Q 2600 3084 3056 2656 
Q 3513 2228 3513 1497 
Q 3513 744 3044 326 
Q 2575 -91 1722 -91 
Q 1428 -91 1123 -41 
Q 819 9 494 109 
L 494 744 
Q 775 591 1075 516 
Q 1375 441 1709 441 
Q 2250 441 2565 725 
Q 2881 1009 2881 1497 
Q 2881 1984 2565 2268 
Q 2250 2553 1709 2553 
Q 1456 2553 1204 2497 
Q 953 2441 691 2322 
L 691 4666 
z
" transform="scale(0.015625)"/>
       </defs>
       <use xlink:href="#DejaVuSans-35"/>
       <use xlink:href="#DejaVuSans-30" x="63.623047"/>
      </g>
     </g>
    </g>
    <g id="xtick_3">
     <g id="text_3">
      <!-- 100 -->
      <g transform="translate(438.281971 287.06881) scale(0.08 -0.08)">
       <defs>
        <path id="DejaVuSans-31" d="M 794 531 
L 1825 531 
L 1825 4091 
L 703 3866 
L 703 4441 
L 1819 4666 
L 2450 4666 
L 2450 531 
L 3481 531 
L 3481 0 
L 794 0 
L 794 531 
z
" transform="scale(0.015625)"/>
       </defs>
       <use xlink:href="#DejaVuSans-31"/>
       <use xlink:href="#DejaVuSans-30" x="63.623047"/>
       <use xlink:href="#DejaVuSans-30" x="127.246094"/>
      </g>
     </g>
    </g>
    <g id="xtick_4">
     <g id="text_4">
      <!-- 150 -->
      <g transform="translate(624.799065 287.06881) scale(0.08 -0.08)">
       <use xlink:href="#DejaVuSans-31"/>
       <use xlink:href="#DejaVuSans-35" x="63.623047"/>
       <use xlink:href="#DejaVuSans-30" x="127.246094"/>
      </g>
     </g>
    </g>
    <g id="xtick_5">
     <g id="text_5">
      <!-- 200 -->
      <g transform="translate(811.316159 287.06881) scale(0.08 -0.08)">
       <defs>
        <path id="DejaVuSans-32" d="M 1228 531 
L 3431 531 
L 3431 0 
L 469 0 
L 469 531 
Q 828 903 1448 1529 
Q 2069 2156 2228 2338 
Q 2531 2678 2651 2914 
Q 2772 3150 2772 3378 
Q 2772 3750 2511 3984 
Q 2250 4219 1831 4219 
Q 1534 4219 1204 4116 
Q 875 4013 500 3803 
L 500 4441 
Q 881 4594 1212 4672 
Q 1544 4750 1819 4750 
Q 2544 4750 2975 4387 
Q 3406 4025 3406 3419 
Q 3406 3131 3298 2873 
Q 3191 2616 2906 2266 
Q 2828 2175 2409 1742 
Q 1991 1309 1228 531 
z
" transform="scale(0.015625)"/>
       </defs>
       <use xlink:href="#DejaVuSans-32"/>
       <use xlink:href="#DejaVuSans-30" x="63.623047"/>
       <use xlink:href="#DejaVuSans-30" x="127.246094"/>
      </g>
     </g>
    </g>
    <g id="text_6">
     <!-- Position (bp) -->
     <g transform="translate(481.76 300.330997) scale(0.1 -0.1)">
      <defs>
       <path id="DejaVuSans-50" d="M 1259 4147 
L 1259 2394 
L 2053 2394 
Q 2494 2394 2734 2622 
Q 2975 2850 2975 3272 
Q 2975 3691 2734 3919 
Q 2494 4147 2053 4147 
L 1259 4147 
z
M 628 4666 
L 2053 4666 
Q 2838 4666 3239 4311 
Q 3641 3956 3641 3272 
Q 3641 2581 3239 2228 
Q 2838 1875 2053 1875 
L 1259 1875 
L 1259 0 
L 628 0 
L 628 4666 
z
" transform="scale(0.015625)"/>
       <path id="DejaVuSans-6f" d="M 1959 3097 
Q 1497 3097 1228 2736 
Q 959 2375 959 1747 
Q 959 1119 1226 758 
Q 1494 397 1959 397 
Q 2419 397 2687 759 
Q 2956 1122 2956 1747 
Q 2956 2369 2687 2733 
Q 2419 3097 1959 3097 
z
M 1959 3584 
Q 2709 3584 3137 3096 
Q 3566 2609 3566 1747 
Q 3566 888 3137 398 
Q 2709 -91 1959 -91 
Q 1206 -91 779 398 
Q 353 888 353 1747 
Q 353 2609 779 3096 
Q 1206 3584 1959 3584 
z
" transform="scale(0.015625)"/>
       <path id="DejaVuSans-73" d="M 2834 3397 
L 2834 2853 
Q 2591 2978 2328 3040 
Q 2066 3103 1784 3103 
Q 1356 3103 1142 2972 
Q 928 2841 928 2578 
Q 928 2378 1081 2264 
Q 1234 2150 1697 2047 
L 1894 2003 
Q 2506 1872 2764 1633 
Q 3022 1394 3022 966 
Q 3022 478 2636 193 
Q 2250 -91 1575 -91 
Q 1294 -91 989 -36 
Q 684 19 347 128 
L 347 722 
Q 666 556 975 473 
Q 1284 391 1588 391 
Q 1994 391 2212 530 
Q 2431 669 2431 922 
Q 2431 1156 2273 1281 
Q 2116 1406 1581 1522 
L 1381 1569 
Q 847 1681 609 1914 
Q 372 2147 372 2553 
Q 372 3047 722 3315 
Q 1072 3584 1716 3584 
Q 2034 3584 2315 3537 
Q 2597 3491 2834 3397 
z
" transform="scale(0.015625)"/>
       <path id="DejaVuSans-69" d="M 603 3500 
L 1178 3500 
L 1178 0 
L 603 0 
L 603 3500 
z
M 603 4863 
L 1178 4863 
L 1178 4134 
L 603 4134 
L 603 4863 
z
" transform="scale(0.015625)"/>
       <path id="DejaVuSans-74" d="M 1172 4494 
L 1172 3500 
L 2356 3500 
L 2356 3053 
L 1172 3053 
L 1172 1153 
Q 1172 725 1289 603 
Q 1406 481 1766 481 
L 2356 481 
L 2356 0 
L 1766 0 
Q 1100 0 847 248 
Q 594 497 594 1153 
L 594 3053 
L 172 3053 
L 172 3500 
L 594 3500 
L 594 4494 
L 1172 4494 
z
" transform="scale(0.015625)"/>
       <path id="DejaVuSans-6e" d="M 3513 2113 
L 3513 0 
L 2938 0 
L 2938 2094 
Q 2938 2591 2744 2837 
Q 2550 3084 2163 3084 
Q 1697 3084 1428 2787 
Q 1159 2491 1159 1978 
L 1159 0 
L 581 0 
L 581 3500 
L 1159 3500 
L 1159 2956 
Q 1366 3272 1645 3428 
Q 1925 3584 2291 3584 
Q 2894 3584 3203 3211 
Q 3513 2838 3513 2113 
z
" transform="scale(0.015625)"/>
       <path id="DejaVuSans-20" transform="scale(0.015625)"/>
       <path id="DejaVuSans-28" d="M 1984 4856 
Q 1566 4138 1362 3434 
Q 1159 2731 1159 2009 
Q 1159 1288 1364 580 
Q 1569 -128 1984 -844 
L 1484 -844 
Q 1016 -109 783 600 
Q 550 1309 550 2009 
Q 550 2706 781 3412 
Q 1013 4119 1484 4856 
L 1984 4856 
z
" transform="scale(0.015625)"/>
       <path id="DejaVuSans-62" d="M 3116 1747 
Q 3116 2381 2855 2742 
Q 2594 3103 2138 3103 
Q 1681 3103 1420 2742 
Q 1159 2381 1159 1747 
Q 1159 1113 1420 752 
Q 1681 391 2138 391 
Q 2594 391 2855 752 
Q 3116 1113 3116 1747 
z
M 1159 2969 
Q 1341 3281 1617 3432 
Q 1894 3584 2278 3584 
Q 2916 3584 3314 3078 
Q 3713 2572 3713 1747 
Q 3713 922 3314 415 
Q 2916 -91 2278 -91 
Q 1894 -91 1617 61 
Q 1341 213 1159 525 
L 1159 0 
L 581 0 
L 581 4863 
L 1159 4863 
L 1159 2969 
z
" transform="scale(0.015625)"/>
       <path id="DejaVuSans-70" d="M 1159 525 
L 1159 -1331 
L 581 -1331 
L 581 3500 
L 1159 3500 
L 1159 2969 
Q 1341 3281 1617 3432 
Q 1894 3584 2278 3584 
Q 2916 3584 3314 3078 
Q 3713 2572 3713 1747 
Q 3713 922 3314 415 
Q 2916 -91 2278 -91 
Q 1894 -91 1617 61 
Q 1341 213 1159 525 
z
M 3116 1747 
Q 3116 2381 2855 2742 
Q 2594 3103 2138 3103 
Q 1681 3103 1420 2742 
Q 1159 2381 1159 1747 
Q 1159 1113 1420 752 
Q 1681 391 2138 391 
Q 2594 391 2855 752 
Q 3116 1113 3116 1747 
z
" transform="scale(0.015625)"/>
       <path id="DejaVuSans-29" d="M 513 4856 
L 1013 4856 
Q 1481 4119 1714 3412 
Q 1947 2706 1947 2009 
Q 1947 1309 1714 600 
Q 1481 -109 1013 -844 
L 513 -844 
Q 928 -128 1133 580 
Q 1338 1288 1338 2009 
Q 1338 2731 1133 3434 
Q 928 4138 513 4856 
z
" transform="scale(0.015625)"/>
      </defs>
      <use xlink:href="#DejaVuSans-50"/>
      <use xlink:href="#DejaVuSans-6f" x="56.677734"/>
      <use xlink:href="#DejaVuSans-73" x="117.859375"/>
      <use xlink:href="#DejaVuSans-69" x="169.958984"/>
      <use xlink:href="#DejaVuSans-74" x="197.742188"/>
      <use xlink:href="#DejaVuSans-69" x="236.951172"/>
      <use xlink:href="#DejaVuSans-6f" x="264.734375"/>
      <use xlink:href="#DejaVuSans-6e" x="325.916016"/>
      <use xlink:href="#DejaVuSans-20" x="389.294922"/>
      <use xlink:href="#DejaVuSans-28" x="421.082031"/>
      <use xlink:href="#DejaVuSans-62" x="460.095703"/>
      <use xlink:href="#DejaVuSans-70" x="523.572266"/>
      <use xlink:href="#DejaVuSans-29" x="587.048828"/>
     </g>
    </g>
   </g>
   <g id="matplotlib.axis_2">
    <g id="ytick_1">
     <g id="line2d_1">
      <path d="M 32.968125 273.99006 
L 993.158125 273.99006 
" clip-path="url(#pe3dfde30e5)" style="fill: none; stroke: #dedede; stroke-linecap: square"/>
     </g>
     <g id="text_7">
      <!-- 0 -->
      <g transform="translate(20.878125 277.029435) scale(0.08 -0.08)">
       <use xlink:href="#DejaVuSans-30"/>
      </g>
     </g>
    </g>
    <g id="ytick_2">
     <g id="line2d_2">
      <path d="M 32.968125 225.48862 
L 993.158125 225.48862 
" clip-path="url(#pe3dfde30e5)" style="fill: none; stroke: #dedede; stroke-linecap: square"/>
     </g>
     <g id="text_8">
      <!-- 1 -->
      <g transform="translate(20.878125 228.527995) scale(0.08 -0.08)">
       <use xlink:href="#DejaVuSans-31"/>
      </g>
     </g>
    </g>
    <g id="ytick_3">
     <g id="line2d_3">
      <path d="M 32.968125 176.98718 
L 993.158125 176.98718 
" clip-path="url(#pe3dfde30e5)" style="fill: none; stroke: #dedede; stroke-linecap: square"/>
     </g>
     <g id="text_9">
      <!-- 2 -->
      <g transform="translate(20.878125 180.026555) scale(0.08 -0.08)">
       <use xlink:href="#DejaVuSans-32"/>
      </g>
     </g>
    </g>
    <g id="ytick_4">
     <g id="line2d_4">
      <path d="M 32.968125 128.48574 
L 993.158125 128.48574 
" clip-path="url(#pe3dfde30e5)" style="fill: none; stroke: #dedede; stroke-linecap: square"/>
     </g>
     <g id="text_10">
      <!-- 3 -->
      <g transform="translate(20.878125 131.525115) scale(0.08 -0.08)">
       <defs>
        <path id="DejaVuSans-33" d="M 2597 2516 
Q 3050 2419 3304 2112 
Q 3559 1806 3559 1356 
Q 3559 666 3084 287 
Q 2609 -91 1734 -91 
Q 1441 -91 1130 -33 
Q 819 25 488 141 
L 488 750 
Q 750 597 1062 519 
Q 1375 441 1716 441 
Q 2309 441 2620 675 
Q 2931 909 2931 1356 
Q 2931 1769 2642 2001 
Q 2353 2234 1838 2234 
L 1294 2234 
L 1294 2753 
L 1863 2753 
Q 2328 2753 2575 2939 
Q 2822 3125 2822 3475 
Q 2822 3834 2567 4026 
Q 2313 4219 1838 4219 
Q 1578 4219 1281 4162 
Q 984 4106 628 3988 
L 628 4550 
Q 988 4650 1302 4700 
Q 1616 4750 1894 4750 
Q 2613 4750 3031 4423 
Q 3450 4097 3450 3541 
Q 3450 3153 3228 2886 
Q 3006 2619 2597 2516 
z
" transform="scale(0.015625)"/>
       </defs>
       <use xlink:href="#DejaVuSans-33"/>
      </g>
     </g>
    </g>
    <g id="ytick_5">
     <g id="line2d_5">
      <path d="M 32.968125 79.9843 
L 993.158125 79.9843 
" clip-path="url(#pe3dfde30e5)" style="fill: none; stroke: #dedede; stroke-linecap: square"/>
     </g>
     <g id="text_11">
      <!-- 4 -->
      <g transform="translate(20.878125 83.023675) scale(0.08 -0.08)">
       <defs>
        <path id="DejaVuSans-34" d="M 2419 4116 
L 825 1625 
L 2419 1625 
L 2419 4116 
z
M 2253 4666 
L 3047 4666 
L 3047 1625 
L 3713 1625 
L 3713 1100 
L 3047 1100 
L 3047 0 
L 2419 0 
L 2419 1100 
L 313 1100 
L 313 1709 
L 2253 4666 
z
" transform="scale(0.015625)"/>
       </defs>
       <use xlink:href="#DejaVuSans-34"/>
      </g>
     </g>
    </g>
    <g id="ytick_6">
     <g id="line2d_6">
      <path d="M 32.968125 31.48286 
L 993.158125 31.48286 
" clip-path="url(#pe3dfde30e5)" style="fill: none; stroke: #dedede; stroke-linecap: square"/>
     </g>
     <g id="text_12">
      <!-- 5 -->
      <g transform="translate(20.878125 34.522235) scale(0.08 -0.08)">
       <use xlink:href="#DejaVuSans-35"/>
      </g>
     </g>
    </g>
    <g id="text_13">
     <!-- % of Sequences -->
     <g transform="translate(14.798437 192.754429) rotate(-90) scale(0.1 -0.1)">
      <defs>
       <path id="DejaVuSans-25" d="M 4653 2053 
Q 4381 2053 4226 1822 
Q 4072 1591 4072 1178 
Q 4072 772 4226 539 
Q 4381 306 4653 306 
Q 4919 306 5073 539 
Q 5228 772 5228 1178 
Q 5228 1588 5073 1820 
Q 4919 2053 4653 2053 
z
M 4653 2450 
Q 5147 2450 5437 2106 
Q 5728 1763 5728 1178 
Q 5728 594 5436 251 
Q 5144 -91 4653 -91 
Q 4153 -91 3862 251 
Q 3572 594 3572 1178 
Q 3572 1766 3864 2108 
Q 4156 2450 4653 2450 
z
M 1428 4353 
Q 1159 4353 1004 4120 
Q 850 3888 850 3481 
Q 850 3069 1003 2837 
Q 1156 2606 1428 2606 
Q 1700 2606 1854 2837 
Q 2009 3069 2009 3481 
Q 2009 3884 1853 4118 
Q 1697 4353 1428 4353 
z
M 4250 4750 
L 4750 4750 
L 1831 -91 
L 1331 -91 
L 4250 4750 
z
M 1428 4750 
Q 1922 4750 2215 4408 
Q 2509 4066 2509 3481 
Q 2509 2891 2217 2550 
Q 1925 2209 1428 2209 
Q 931 2209 642 2551 
Q 353 2894 353 3481 
Q 353 4063 643 4406 
Q 934 4750 1428 4750 
z
" transform="scale(0.015625)"/>
       <path id="DejaVuSans-66" d="M 2375 4863 
L 2375 4384 
L 1825 4384 
Q 1516 4384 1395 4259 
Q 1275 4134 1275 3809 
L 1275 3500 
L 2222 3500 
L 2222 3053 
L 1275 3053 
L 1275 0 
L 697 0 
L 697 3053 
L 147 3053 
L 147 3500 
L 697 3500 
L 697 3744 
Q 697 4328 969 4595 
Q 1241 4863 1831 4863 
L 2375 4863 
z
" transform="scale(0.015625)"/>
       <path id="DejaVuSans-53" d="M 3425 4513 
L 3425 3897 
Q 3066 4069 2747 4153 
Q 2428 4238 2131 4238 
Q 1616 4238 1336 4038 
Q 1056 3838 1056 3469 
Q 1056 3159 1242 3001 
Q 1428 2844 1947 2747 
L 2328 2669 
Q 3034 2534 3370 2195 
Q 3706 1856 3706 1288 
Q 3706 609 3251 259 
Q 2797 -91 1919 -91 
Q 1588 -91 1214 -16 
Q 841 59 441 206 
L 441 856 
Q 825 641 1194 531 
Q 1563 422 1919 422 
Q 2459 422 2753 634 
Q 3047 847 3047 1241 
Q 3047 1584 2836 1778 
Q 2625 1972 2144 2069 
L 1759 2144 
Q 1053 2284 737 2584 
Q 422 2884 422 3419 
Q 422 4038 858 4394 
Q 1294 4750 2059 4750 
Q 2388 4750 2728 4690 
Q 3069 4631 3425 4513 
z
" transform="scale(0.015625)"/>
       <path id="DejaVuSans-65" d="M 3597 1894 
L 3597 1613 
L 953 1613 
Q 991 1019 1311 708 
Q 1631 397 2203 397 
Q 2534 397 2845 478 
Q 3156 559 3463 722 
L 3463 178 
Q 3153 47 2828 -22 
Q 2503 -91 2169 -91 
Q 1331 -91 842 396 
Q 353 884 353 1716 
Q 353 2575 817 3079 
Q 1281 3584 2069 3584 
Q 2775 3584 3186 3129 
Q 3597 2675 3597 1894 
z
M 3022 2063 
Q 3016 2534 2758 2815 
Q 2500 3097 2075 3097 
Q 1594 3097 1305 2825 
Q 1016 2553 972 2059 
L 3022 2063 
z
" transform="scale(0.015625)"/>
       <path id="DejaVuSans-71" d="M 947 1747 
Q 947 1113 1208 752 
Q 1469 391 1925 391 
Q 2381 391 2643 752 
Q 2906 1113 2906 1747 
Q 2906 2381 2643 2742 
Q 2381 3103 1925 3103 
Q 1469 3103 1208 2742 
Q 947 2381 947 1747 
z
M 2906 525 
Q 2725 213 2448 61 
Q 2172 -91 1784 -91 
Q 1150 -91 751 415 
Q 353 922 353 1747 
Q 353 2572 751 3078 
Q 1150 3584 1784 3584 
Q 2172 3584 2448 3432 
Q 2725 3281 2906 2969 
L 2906 3500 
L 3481 3500 
L 3481 -1331 
L 2906 -1331 
L 2906 525 
z
" transform="scale(0.015625)"/>
       <path id="DejaVuSans-75" d="M 544 1381 
L 544 3500 
L 1119 3500 
L 1119 1403 
Q 1119 906 1312 657 
Q 1506 409 1894 409 
Q 2359 409 2629 706 
Q 2900 1003 2900 1516 
L 2900 3500 
L 3475 3500 
L 3475 0 
L 2900 0 
L 2900 538 
Q 2691 219 2414 64 
Q 2138 -91 1772 -91 
Q 1169 -91 856 284 
Q 544 659 544 1381 
z
M 1991 3584 
L 1991 3584 
z
" transform="scale(0.015625)"/>
       <path id="DejaVuSans-63" d="M 3122 3366 
L 3122 2828 
Q 2878 2963 2633 3030 
Q 2388 3097 2138 3097 
Q 1578 3097 1268 2742 
Q 959 2388 959 1747 
Q 959 1106 1268 751 
Q 1578 397 2138 397 
Q 2388 397 2633 464 
Q 2878 531 3122 666 
L 3122 134 
Q 2881 22 2623 -34 
Q 2366 -91 2075 -91 
Q 1284 -91 818 406 
Q 353 903 353 1747 
Q 353 2603 823 3093 
Q 1294 3584 2113 3584 
Q 2378 3584 2631 3529 
Q 2884 3475 3122 3366 
z
" transform="scale(0.015625)"/>
      </defs>
      <use xlink:href="#DejaVuSans-25"/>
      <use xlink:href="#DejaVuSans-20" x="95.019531"/>
      <use xlink:href="#DejaVuSans-6f" x="126.806641"/>
      <use xlink:href="#DejaVuSans-66" x="187.988281"/>
      <use xlink:href="#DejaVuSans-20" x="223.193359"/>
      <use xlink:href="#DejaVuSans-53" x="254.980469"/>
      <use xlink:href="#DejaVuSans-65" x="318.457031"/>
      <use xlink:href="#DejaVuSans-71" x="379.980469"/>
      <use xlink:href="#DejaVuSans-75" x="443.457031"/>
      <use xlink:href="#DejaVuSans-65" x="506.835938"/>
      <use xlink:href="#DejaVuSans-6e" x="568.359375"/>
      <use xlink:href="#DejaVuSans-63" x="631.738281"/>
      <use xlink:href="#DejaVuSans-65" x="686.71875"/>
      <use xlink:href="#DejaVuSans-73" x="748.242188"/>
     </g>
    </g>
   </g>
   <g id="line2d_7">
    <path d="M 76.613125 273.99006 
L 80.343467 273.99006 
L 84.073809 273.99006 
L 87.804151 273.99006 
L 91.534493 273.99006 
L 95.264834 273.99006 
L 98.995176 273.99006 
L 102.725518 273.99006 
L 106.45586 273.99006 
L 117.646886 273.99006 
L 136.298595 273.99006 
L 154.950304 273.99006 
L 173.602014 273.99006 
L 192.253723 273.99006 
L 210.905433 273.99006 
L 229.557142 273.99006 
L 248.208851 273.99006 
L 266.860561 273.99006 
L 285.51227 273.99006 
L 304.16398 273.99006 
L 322.815689 273.99006 
L 341.467399 273.99006 
L 360.119108 273.99006 
L 378.770817 273.99006 
L 397.422527 273.99006 
L 416.074236 273.99006 
L 434.725946 273.99006 
L 453.377655 273.99006 
L 472.029364 273.99006 
L 490.681074 273.99006 
L 509.332783 273.99006 
L 527.984493 273.99006 
L 546.636202 273.99006 
L 565.287911 273.99006 
L 583.939621 273.99006 
L 602.59133 273.99006 
L 621.24304 273.99006 
L 639.894749 273.99006 
L 658.546458 273.99006 
L 677.198168 268.54046 
L 695.849877 246.74206 
L 714.501587 246.74206 
L 733.153296 246.74206 
L 751.805005 246.74206 
L 770.456715 246.74206 
L 789.108424 246.74206 
L 807.760134 246.74206 
L 826.411843 246.74206 
L 845.063552 246.74206 
L 863.715262 246.74206 
L 882.366971 246.74206 
" clip-path="url(#pe3dfde30e5)" style="fill: none; stroke: #7cb5ec; stroke-linecap: square"/>
   </g>
   <g id="line2d_8">
    <path d="M 76.613125 273.99006 
L 80.343467 273.99006 
L 84.073809 273.99006 
L 87.804151 273.99006 
L 91.534493 273.99006 
L 95.264834 273.99006 
L 98.995176 273.99006 
L 102.725518 273.99006 
L 106.45586 273.99006 
L 117.646886 273.99006 
L 136.298595 273.99006 
L 154.950304 273.99006 
L 173.602014 273.99006 
L 192.253723 273.99006 
L 210.905433 273.99006 
L 229.557142 273.99006 
L 248.208851 273.99006 
L 266.860561 273.99006 
L 285.51227 273.99006 
L 304.16398 273.918339 
L 322.815689 273.850203 
L 341.467399 273.78924 
L 360.119108 273.115059 
L 378.770817 270.533087 
L 397.422527 268.962388 
L 416.074236 268.66833 
L 434.725946 268.625297 
L 453.377655 268.571506 
L 472.029364 268.456751 
L 490.681074 268.424477 
L 509.332783 268.234415 
L 527.984493 267.725193 
L 546.636202 267.510028 
L 565.287911 267.359413 
L 583.939621 266.975704 
L 602.59133 266.566892 
L 621.24304 266.423449 
L 639.894749 266.37683 
L 658.546458 266.305108 
L 677.198168 266.007464 
L 695.849877 264.28615 
L 714.501587 244.465932 
L 733.153296 221.307081 
L 751.805005 219.618041 
L 770.456715 218.778901 
L 789.108424 218.45974 
L 807.760134 217.954104 
L 826.411843 216.075003 
L 845.063552 213.493031 
L 863.715262 213.001739 
L 882.366971 212.782989 
L 897.288339 212.722026 
" clip-path="url(#pe3dfde30e5)" style="fill: none; stroke: #434348; stroke-linecap: square"/>
   </g>
   <g id="line2d_9">
    <path d="M 76.613125 273.99006 
L 80.343467 273.99006 
L 84.073809 273.99006 
L 87.804151 273.99006 
L 91.534493 273.99006 
L 95.264834 273.99006 
L 98.995176 273.99006 
L 102.725518 273.99006 
L 106.45586 273.99006 
L 117.646886 273.99006 
L 136.298595 273.99006 
L 154.950304 273.99006 
L 173.602014 273.99006 
L 192.253723 273.99006 
L 210.905433 273.99006 
L 229.557142 273.99006 
L 248.208851 273.99006 
L 266.860561 273.99006 
L 285.51227 273.99006 
L 304.16398 273.99006 
L 322.815689 273.99006 
L 341.467399 273.99006 
L 360.119108 273.694296 
L 378.770817 272.821316 
L 397.422527 272.36813 
L 416.074236 272.272722 
L 434.725946 272.272722 
L 453.377655 272.272722 
L 472.029364 272.272722 
L 490.681074 272.272722 
L 509.332783 272.205937 
L 527.984493 272.134381 
L 546.636202 272.091447 
L 565.287911 272.058055 
L 583.939621 272.010351 
L 602.59133 272.010351 
L 621.24304 272.010351 
L 639.894749 272.010351 
L 658.546458 272.010351 
L 677.198168 271.967418 
L 695.849877 271.318645 
L 714.501587 265.02651 
L 733.153296 257.374815 
L 751.805005 257.255556 
L 770.456715 257.207852 
L 789.108424 257.150607 
L 807.760134 257.069511 
L 826.411843 256.678339 
L 845.063552 256.048649 
L 863.715262 256.005715 
L 882.366971 256.005715 
" clip-path="url(#pe3dfde30e5)" style="fill: none; stroke: #90ed7d; stroke-linecap: square"/>
   </g>
   <g id="line2d_10">
    <path d="M 76.613125 273.99006 
L 80.343467 273.99006 
L 84.073809 273.99006 
L 87.804151 273.99006 
L 91.534493 273.99006 
L 95.264834 273.99006 
L 98.995176 273.99006 
L 102.725518 273.99006 
L 106.45586 273.99006 
L 117.646886 273.99006 
L 136.298595 273.99006 
L 154.950304 273.99006 
L 173.602014 273.99006 
L 192.253723 273.99006 
L 210.905433 273.99006 
L 229.557142 273.99006 
L 248.208851 273.99006 
L 266.860561 273.99006 
L 285.51227 273.99006 
L 304.16398 273.99006 
L 322.815689 273.99006 
L 341.467399 273.99006 
L 360.119108 273.244776 
L 378.770817 269.994667 
L 397.422527 268.324783 
L 416.074236 268.134259 
L 434.725946 268.123052 
L 453.377655 268.078223 
L 472.029364 268.02779 
L 490.681074 267.982961 
L 509.332783 267.798041 
L 527.984493 267.388976 
L 546.636202 267.22647 
L 565.287911 267.176037 
L 583.939621 266.862234 
L 602.59133 266.475583 
L 621.24304 266.42515 
L 639.894749 266.385925 
L 658.546458 266.257041 
L 677.198168 266.038499 
L 695.849877 264.749662 
L 714.501587 255.48685 
L 733.153296 238.670336 
L 751.805005 237.15175 
L 770.456715 236.479314 
L 789.108424 236.204735 
L 807.760134 236.098266 
L 826.411843 235.369793 
L 845.063552 233.783964 
L 863.715262 233.51499 
L 882.366971 233.436539 
L 901.018681 233.419728 
" clip-path="url(#pe3dfde30e5)" style="fill: none; stroke: #f7a35c; stroke-linecap: square"/>
   </g>
   <g id="line2d_11">
    <path d="M 76.613125 273.99006 
L 80.343467 273.99006 
L 84.073809 273.99006 
L 87.804151 273.99006 
L 91.534493 273.99006 
L 95.264834 273.99006 
L 98.995176 273.99006 
L 102.725518 273.99006 
L 106.45586 273.99006 
L 117.646886 273.99006 
L 136.298595 273.99006 
L 154.950304 273.99006 
L 173.602014 273.99006 
L 192.253723 273.99006 
L 210.905433 273.99006 
L 229.557142 273.99006 
L 248.208851 273.99006 
L 266.860561 273.99006 
L 285.51227 273.99006 
L 304.16398 273.978503 
L 322.815689 273.970798 
L 341.467399 273.970798 
L 360.119108 273.115588 
L 378.770817 269.52139 
L 397.422527 267.522046 
L 416.074236 267.109849 
L 434.725946 267.067474 
L 453.377655 267.013542 
L 472.029364 266.955757 
L 490.681074 266.917234 
L 509.332783 266.797813 
L 527.984493 266.22382 
L 546.636202 265.958011 
L 565.287911 265.780805 
L 583.939621 265.283858 
L 602.59133 264.740684 
L 621.24304 264.571183 
L 639.894749 264.528807 
L 658.546458 264.424795 
L 677.198168 264.185952 
L 695.849877 261.774412 
L 714.501587 236.133492 
L 733.153296 208.874606 
L 751.805005 206.77125 
L 770.456715 205.931448 
L 789.108424 205.569332 
L 807.760134 205.245738 
L 826.411843 203.192462 
L 845.063552 200.083654 
L 863.715262 199.582855 
L 882.366971 199.324751 
L 893.557997 199.313194 
" clip-path="url(#pe3dfde30e5)" style="fill: none; stroke: #8085e9; stroke-linecap: square"/>
   </g>
   <g id="line2d_12">
    <path d="M 76.613125 273.99006 
L 80.343467 273.99006 
L 84.073809 273.99006 
L 87.804151 273.99006 
L 91.534493 273.99006 
L 95.264834 273.99006 
L 98.995176 273.99006 
L 102.725518 273.99006 
L 106.45586 273.99006 
L 117.646886 273.99006 
L 136.298595 273.99006 
L 154.950304 273.99006 
L 173.602014 273.99006 
L 192.253723 273.99006 
L 210.905433 273.99006 
L 229.557142 273.99006 
L 248.208851 273.99006 
L 266.860561 273.99006 
L 285.51227 273.99006 
L 304.16398 273.99006 
L 322.815689 273.99006 
L 341.467399 273.99006 
L 360.119108 273.99006 
L 378.770817 273.969859 
L 397.422527 273.956391 
L 416.074236 273.956391 
L 434.725946 273.956391 
L 453.377655 273.956391 
L 472.029364 273.942923 
L 490.681074 273.90252 
L 509.332783 273.868851 
L 527.984493 273.801513 
L 546.636202 273.747642 
L 565.287911 273.720707 
L 583.939621 273.687038 
L 602.59133 273.619699 
L 621.24304 273.606232 
L 639.894749 273.511958 
L 658.546458 273.074259 
L 677.198168 270.798223 
L 695.849877 268.82521 
L 714.501587 266.677118 
L 733.153296 263.155323 
L 751.805005 261.572873 
L 770.456715 261.26985 
L 789.108424 260.838885 
L 807.760134 260.407919 
L 826.411843 260.071228 
L 845.063552 259.801875 
L 863.715262 259.586392 
L 882.366971 259.296837 
L 897.288339 259.276636 
" clip-path="url(#pe3dfde30e5)" style="fill: none; stroke: #f15c80; stroke-linecap: square"/>
   </g>
   <g id="line2d_13">
    <path d="M 76.613125 273.99006 
L 80.343467 273.99006 
L 84.073809 273.99006 
L 87.804151 273.99006 
L 91.534493 273.99006 
L 95.264834 273.99006 
L 98.995176 273.99006 
L 102.725518 273.99006 
L 106.45586 273.99006 
L 117.646886 273.99006 
L 136.298595 273.99006 
L 154.950304 273.99006 
L 173.602014 273.99006 
L 192.253723 273.99006 
L 210.905433 273.99006 
L 229.557142 273.99006 
L 248.208851 273.99006 
L 266.860561 273.99006 
L 285.51227 273.99006 
L 304.16398 273.976612 
L 322.815689 273.967647 
L 341.467399 273.949717 
L 360.119108 273.685245 
L 378.770817 272.887347 
L 397.422527 272.421159 
L 416.074236 272.376334 
L 434.725946 272.376334 
L 453.377655 272.376334 
L 472.029364 272.376334 
L 490.681074 272.353921 
L 509.332783 272.340473 
L 527.984493 272.331508 
L 546.636202 272.313578 
L 565.287911 272.250822 
L 583.939621 272.098414 
L 602.59133 272.044623 
L 621.24304 271.995315 
L 639.894749 271.963937 
L 658.546458 271.950489 
L 677.198168 271.883251 
L 695.849877 271.21983 
L 714.501587 264.137365 
L 733.153296 254.759822 
L 751.805005 254.109849 
L 770.456715 253.997784 
L 789.108424 253.836412 
L 807.760134 252.800937 
L 826.411843 251.70719 
L 845.063552 251.267897 
L 863.715262 251.218589 
L 882.366971 251.182729 
L 901.018681 251.173763 
L 915.940048 251.173763 
" clip-path="url(#pe3dfde30e5)" style="fill: none; stroke: #e4d354; stroke-linecap: square"/>
   </g>
   <g id="line2d_14">
    <path d="M 76.613125 273.99006 
L 80.343467 273.99006 
L 84.073809 273.99006 
L 87.804151 273.99006 
L 91.534493 273.99006 
L 95.264834 273.99006 
L 98.995176 273.99006 
L 102.725518 273.99006 
L 106.45586 273.99006 
L 117.646886 273.99006 
L 136.298595 273.99006 
L 154.950304 273.99006 
L 173.602014 273.99006 
L 192.253723 273.99006 
L 210.905433 273.99006 
L 229.557142 273.99006 
L 248.208851 273.99006 
L 266.860561 273.99006 
L 285.51227 273.99006 
L 304.16398 273.99006 
L 322.815689 273.99006 
L 341.467399 273.99006 
L 360.119108 273.468952 
L 378.770817 271.329667 
L 397.422527 270.273737 
L 416.074236 270.116034 
L 434.725946 270.116034 
L 453.377655 270.116034 
L 472.029364 270.116034 
L 490.681074 270.116034 
L 509.332783 270.068037 
L 527.984493 269.869193 
L 546.636202 269.649779 
L 565.287911 269.615496 
L 583.939621 269.245235 
L 602.59133 269.060104 
L 621.24304 269.025821 
L 639.894749 269.018964 
L 658.546458 268.977824 
L 677.198168 268.9024 
L 695.849877 267.839614 
L 714.501587 252.069241 
L 733.153296 236.394862 
L 751.805005 235.448639 
L 770.456715 235.105805 
L 789.108424 234.948101 
L 807.760134 234.886391 
L 826.411843 234.255576 
L 845.063552 232.843099 
L 863.715262 232.678539 
L 882.366971 232.644255 
L 901.018681 232.644255 
L 919.67039 232.644255 
L 938.322099 232.644255 
L 949.513125 232.644255 
" clip-path="url(#pe3dfde30e5)" style="fill: none; stroke: #2b908f; stroke-linecap: square"/>
   </g>
   <g id="line2d_15">
    <path d="M 76.613125 273.99006 
L 80.343467 273.99006 
L 84.073809 273.99006 
L 87.804151 273.99006 
L 91.534493 273.99006 
L 95.264834 273.99006 
L 98.995176 273.99006 
L 102.725518 273.99006 
L 106.45586 273.99006 
L 117.646886 273.99006 
L 136.298595 273.99006 
L 154.950304 273.99006 
L 173.602014 273.99006 
L 192.253723 273.99006 
L 210.905433 273.99006 
L 229.557142 273.99006 
L 248.208851 273.99006 
L 266.860561 273.99006 
L 285.51227 273.99006 
L 304.16398 273.90326 
L 322.815689 273.787528 
L 341.467399 273.773061 
L 360.119108 272.528934 
L 378.770817 268.196187 
L 397.422527 266.098531 
L 416.074236 265.787499 
L 434.725946 265.751332 
L 453.377655 265.736866 
L 472.029364 265.707933 
L 490.681074 265.707933 
L 509.332783 265.556033 
L 527.984493 265.078636 
L 546.636202 264.84717 
L 565.287911 264.608471 
L 583.939621 264.160007 
L 602.59133 263.769408 
L 621.24304 263.754942 
L 639.894749 263.754942 
L 658.546458 263.718775 
L 677.198168 263.48731 
L 695.849877 261.556019 
L 714.501587 240.340753 
L 733.153296 215.696903 
L 751.805005 214.669775 
L 770.456715 214.120044 
L 789.108424 213.874112 
L 807.760134 213.620946 
L 826.411843 212.412985 
L 845.063552 209.816231 
L 863.715262 209.541366 
L 882.366971 209.432866 
L 901.018681 209.432866 
L 919.67039 209.432866 
L 938.322099 209.432866 
L 949.513125 209.432866 
" clip-path="url(#pe3dfde30e5)" style="fill: none; stroke: #f45b5b; stroke-linecap: square"/>
   </g>
   <g id="line2d_16">
    <path d="M 76.613125 273.99006 
L 80.343467 273.99006 
L 84.073809 273.99006 
L 87.804151 273.99006 
L 91.534493 273.99006 
L 95.264834 273.99006 
L 98.995176 273.99006 
L 102.725518 273.99006 
L 106.45586 273.99006 
L 117.646886 273.99006 
L 136.298595 273.99006 
L 154.950304 273.99006 
L 173.602014 273.99006 
L 192.253723 273.99006 
L 210.905433 273.99006 
L 229.557142 273.99006 
L 248.208851 273.99006 
L 266.860561 273.99006 
L 285.51227 273.99006 
L 304.16398 273.973719 
L 322.815689 273.935591 
L 341.467399 273.908356 
L 360.119108 273.646905 
L 378.770817 272.541183 
L 397.422527 271.871213 
L 416.074236 271.784063 
L 434.725946 271.784063 
L 453.377655 271.784063 
L 472.029364 271.784063 
L 490.681074 271.784063 
L 509.332783 271.751381 
L 527.984493 271.696912 
L 546.636202 271.675124 
L 565.287911 271.636996 
L 583.939621 271.566186 
L 602.59133 271.484483 
L 621.24304 271.484483 
L 639.894749 271.484483 
L 658.546458 271.484483 
L 677.198168 271.479036 
L 695.849877 271.130434 
L 714.501587 265.443863 
L 733.153296 259.582991 
L 751.805005 259.452265 
L 770.456715 259.403243 
L 789.108424 259.392349 
L 807.760134 259.370561 
L 826.411843 259.027406 
L 845.063552 258.515397 
L 863.715262 258.450034 
L 882.366971 258.43914 
" clip-path="url(#pe3dfde30e5)" style="fill: none; stroke: #91e8e1; stroke-linecap: square"/>
   </g>
   <g id="line2d_17">
    <path d="M 76.613125 273.99006 
L 80.343467 273.99006 
L 84.073809 273.99006 
L 87.804151 273.99006 
L 91.534493 273.99006 
L 95.264834 273.99006 
L 98.995176 273.99006 
L 102.725518 273.99006 
L 106.45586 273.99006 
L 117.646886 273.99006 
L 136.298595 273.99006 
L 154.950304 273.99006 
L 173.602014 273.99006 
L 192.253723 273.99006 
L 210.905433 273.99006 
L 229.557142 273.99006 
L 248.208851 273.99006 
L 266.860561 273.99006 
L 285.51227 273.99006 
L 304.16398 273.968419 
L 322.815689 273.953992 
L 341.467399 273.889069 
L 360.119108 273.182129 
L 378.770817 269.748425 
L 397.422527 267.230856 
L 416.074236 266.660976 
L 434.725946 266.53113 
L 453.377655 266.487848 
L 472.029364 266.444566 
L 490.681074 266.321934 
L 509.332783 266.17766 
L 527.984493 265.521217 
L 546.636202 265.23267 
L 565.287911 265.088397 
L 583.939621 264.532945 
L 602.59133 263.905356 
L 621.24304 263.847646 
L 639.894749 263.782723 
L 658.546458 263.710587 
L 677.198168 263.458109 
L 695.849877 262.051444 
L 714.501587 243.981212 
L 733.153296 223.537684 
L 751.805005 221.279807 
L 770.456715 220.507945 
L 789.108424 220.176116 
L 807.760134 219.851501 
L 826.411843 218.690101 
L 845.063552 216.172532 
L 863.715262 215.48002 
L 882.366971 215.270824 
L 893.557997 215.270824 
" clip-path="url(#pe3dfde30e5)" style="fill: none; stroke: #7cb5ec; stroke-linecap: square"/>
   </g>
   <g id="line2d_18">
    <path d="M 76.613125 273.99006 
L 80.343467 273.99006 
L 84.073809 273.99006 
L 87.804151 273.99006 
L 91.534493 273.99006 
L 95.264834 273.99006 
L 98.995176 273.99006 
L 102.725518 273.99006 
L 106.45586 273.99006 
L 117.646886 273.99006 
L 136.298595 273.99006 
L 154.950304 273.99006 
L 173.602014 273.99006 
L 192.253723 273.99006 
L 210.905433 273.99006 
L 229.557142 273.99006 
L 248.208851 273.99006 
L 266.860561 273.99006 
L 285.51227 273.99006 
L 304.16398 273.958223 
L 322.815689 273.958223 
L 341.467399 273.958223 
L 360.119108 262.980753 
L 378.770817 246.056093 
L 397.422527 245.896907 
L 416.074236 245.877805 
L 434.725946 245.877805 
L 453.377655 245.877805 
L 472.029364 245.871438 
L 490.681074 245.845968 
L 509.332783 245.845968 
L 527.984493 245.845968 
L 546.636202 245.845968 
L 565.287911 245.845968 
L 583.939621 245.845968 
L 602.59133 245.845968 
L 621.24304 245.845968 
L 639.894749 245.845968 
L 658.546458 245.845968 
L 677.198168 245.845968 
L 695.849877 245.845968 
L 714.501587 245.820498 
L 733.153296 245.629475 
L 751.805005 245.400247 
L 770.456715 245.400247 
L 789.108424 245.400247 
L 807.760134 245.400247 
L 826.411843 245.400247 
L 845.063552 245.387512 
L 863.715262 245.36841 
L 882.366971 245.36841 
" clip-path="url(#pe3dfde30e5)" style="fill: none; stroke: #434348; stroke-linecap: square"/>
   </g>
   <g id="line2d_19">
    <path d="M 32.968125 273.99006 
L 993.158125 273.99006 
" clip-path="url(#pe3dfde30e5)" style="fill: none; stroke: #dedede; stroke-width: 2; stroke-linecap: square"/>
   </g>
   <g id="text_14">
    <!-- FastQC: Adapter Content -->
    <g transform="translate(413.765625 19.3575) scale(0.16 -0.16)">
     <defs>
      <path id="DejaVuSans-46" d="M 628 4666 
L 3309 4666 
L 3309 4134 
L 1259 4134 
L 1259 2759 
L 3109 2759 
L 3109 2228 
L 1259 2228 
L 1259 0 
L 628 0 
L 628 4666 
z
" transform="scale(0.015625)"/>
      <path id="DejaVuSans-61" d="M 2194 1759 
Q 1497 1759 1228 1600 
Q 959 1441 959 1056 
Q 959 750 1161 570 
Q 1363 391 1709 391 
Q 2188 391 2477 730 
Q 2766 1069 2766 1631 
L 2766 1759 
L 2194 1759 
z
M 3341 1997 
L 3341 0 
L 2766 0 
L 2766 531 
Q 2569 213 2275 61 
Q 1981 -91 1556 -91 
Q 1019 -91 701 211 
Q 384 513 384 1019 
Q 384 1609 779 1909 
Q 1175 2209 1959 2209 
L 2766 2209 
L 2766 2266 
Q 2766 2663 2505 2880 
Q 2244 3097 1772 3097 
Q 1472 3097 1187 3025 
Q 903 2953 641 2809 
L 641 3341 
Q 956 3463 1253 3523 
Q 1550 3584 1831 3584 
Q 2591 3584 2966 3190 
Q 3341 2797 3341 1997 
z
" transform="scale(0.015625)"/>
      <path id="DejaVuSans-51" d="M 2522 4238 
Q 1834 4238 1429 3725 
Q 1025 3213 1025 2328 
Q 1025 1447 1429 934 
Q 1834 422 2522 422 
Q 3209 422 3611 934 
Q 4013 1447 4013 2328 
Q 4013 3213 3611 3725 
Q 3209 4238 2522 4238 
z
M 3406 84 
L 4238 -825 
L 3475 -825 
L 2784 -78 
Q 2681 -84 2626 -87 
Q 2572 -91 2522 -91 
Q 1538 -91 948 567 
Q 359 1225 359 2328 
Q 359 3434 948 4092 
Q 1538 4750 2522 4750 
Q 3503 4750 4090 4092 
Q 4678 3434 4678 2328 
Q 4678 1516 4351 937 
Q 4025 359 3406 84 
z
" transform="scale(0.015625)"/>
      <path id="DejaVuSans-43" d="M 4122 4306 
L 4122 3641 
Q 3803 3938 3442 4084 
Q 3081 4231 2675 4231 
Q 1875 4231 1450 3742 
Q 1025 3253 1025 2328 
Q 1025 1406 1450 917 
Q 1875 428 2675 428 
Q 3081 428 3442 575 
Q 3803 722 4122 1019 
L 4122 359 
Q 3791 134 3420 21 
Q 3050 -91 2638 -91 
Q 1578 -91 968 557 
Q 359 1206 359 2328 
Q 359 3453 968 4101 
Q 1578 4750 2638 4750 
Q 3056 4750 3426 4639 
Q 3797 4528 4122 4306 
z
" transform="scale(0.015625)"/>
      <path id="DejaVuSans-3a" d="M 750 794 
L 1409 794 
L 1409 0 
L 750 0 
L 750 794 
z
M 750 3309 
L 1409 3309 
L 1409 2516 
L 750 2516 
L 750 3309 
z
" transform="scale(0.015625)"/>
      <path id="DejaVuSans-41" d="M 2188 4044 
L 1331 1722 
L 3047 1722 
L 2188 4044 
z
M 1831 4666 
L 2547 4666 
L 4325 0 
L 3669 0 
L 3244 1197 
L 1141 1197 
L 716 0 
L 50 0 
L 1831 4666 
z
" transform="scale(0.015625)"/>
      <path id="DejaVuSans-64" d="M 2906 2969 
L 2906 4863 
L 3481 4863 
L 3481 0 
L 2906 0 
L 2906 525 
Q 2725 213 2448 61 
Q 2172 -91 1784 -91 
Q 1150 -91 751 415 
Q 353 922 353 1747 
Q 353 2572 751 3078 
Q 1150 3584 1784 3584 
Q 2172 3584 2448 3432 
Q 2725 3281 2906 2969 
z
M 947 1747 
Q 947 1113 1208 752 
Q 1469 391 1925 391 
Q 2381 391 2643 752 
Q 2906 1113 2906 1747 
Q 2906 2381 2643 2742 
Q 2381 3103 1925 3103 
Q 1469 3103 1208 2742 
Q 947 2381 947 1747 
z
" transform="scale(0.015625)"/>
      <path id="DejaVuSans-72" d="M 2631 2963 
Q 2534 3019 2420 3045 
Q 2306 3072 2169 3072 
Q 1681 3072 1420 2755 
Q 1159 2438 1159 1844 
L 1159 0 
L 581 0 
L 581 3500 
L 1159 3500 
L 1159 2956 
Q 1341 3275 1631 3429 
Q 1922 3584 2338 3584 
Q 2397 3584 2469 3576 
Q 2541 3569 2628 3553 
L 2631 2963 
z
" transform="scale(0.015625)"/>
     </defs>
     <use xlink:href="#DejaVuSans-46"/>
     <use xlink:href="#DejaVuSans-61" x="48.394531"/>
     <use xlink:href="#DejaVuSans-73" x="109.673828"/>
     <use xlink:href="#DejaVuSans-74" x="161.773438"/>
     <use xlink:href="#DejaVuSans-51" x="200.982422"/>
     <use xlink:href="#DejaVuSans-43" x="279.693359"/>
     <use xlink:href="#DejaVuSans-3a" x="349.517578"/>
     <use xlink:href="#DejaVuSans-20" x="383.208984"/>
     <use xlink:href="#DejaVuSans-41" x="414.996094"/>
     <use xlink:href="#DejaVuSans-64" x="481.654297"/>
     <use xlink:href="#DejaVuSans-61" x="545.130859"/>
     <use xlink:href="#DejaVuSans-70" x="606.410156"/>
     <use xlink:href="#DejaVuSans-74" x="669.886719"/>
     <use xlink:href="#DejaVuSans-65" x="709.095703"/>
     <use xlink:href="#DejaVuSans-72" x="770.619141"/>
     <use xlink:href="#DejaVuSans-20" x="811.732422"/>
     <use xlink:href="#DejaVuSans-43" x="843.519531"/>
     <use xlink:href="#DejaVuSans-6f" x="913.34375"/>
     <use xlink:href="#DejaVuSans-6e" x="974.525391"/>
     <use xlink:href="#DejaVuSans-74" x="1037.904297"/>
     <use xlink:href="#DejaVuSans-65" x="1077.113281"/>
     <use xlink:href="#DejaVuSans-6e" x="1138.636719"/>
     <use xlink:href="#DejaVuSans-74" x="1202.015625"/>
    </g>
   </g>
   <g id="legend_1">
    <g id="line2d_20">
     <path d="M 40.168125 291.525394 
L 48.168125 291.525394 
L 56.168125 291.525394 
" style="fill: none; stroke: #7cb5ec; stroke-linecap: square"/>
    </g>
    <g id="text_15">
     <!-- ExtNeg_20190910_MiFish_S55.1 - polya -->
     <g transform="translate(62.568125 294.325394) scale(0.08 -0.08)">
      <defs>
       <path id="DejaVuSans-45" d="M 628 4666 
L 3578 4666 
L 3578 4134 
L 1259 4134 
L 1259 2753 
L 3481 2753 
L 3481 2222 
L 1259 2222 
L 1259 531 
L 3634 531 
L 3634 0 
L 628 0 
L 628 4666 
z
" transform="scale(0.015625)"/>
       <path id="DejaVuSans-78" d="M 3513 3500 
L 2247 1797 
L 3578 0 
L 2900 0 
L 1881 1375 
L 863 0 
L 184 0 
L 1544 1831 
L 300 3500 
L 978 3500 
L 1906 2253 
L 2834 3500 
L 3513 3500 
z
" transform="scale(0.015625)"/>
       <path id="DejaVuSans-4e" d="M 628 4666 
L 1478 4666 
L 3547 763 
L 3547 4666 
L 4159 4666 
L 4159 0 
L 3309 0 
L 1241 3903 
L 1241 0 
L 628 0 
L 628 4666 
z
" transform="scale(0.015625)"/>
       <path id="DejaVuSans-67" d="M 2906 1791 
Q 2906 2416 2648 2759 
Q 2391 3103 1925 3103 
Q 1463 3103 1205 2759 
Q 947 2416 947 1791 
Q 947 1169 1205 825 
Q 1463 481 1925 481 
Q 2391 481 2648 825 
Q 2906 1169 2906 1791 
z
M 3481 434 
Q 3481 -459 3084 -895 
Q 2688 -1331 1869 -1331 
Q 1566 -1331 1297 -1286 
Q 1028 -1241 775 -1147 
L 775 -588 
Q 1028 -725 1275 -790 
Q 1522 -856 1778 -856 
Q 2344 -856 2625 -561 
Q 2906 -266 2906 331 
L 2906 616 
Q 2728 306 2450 153 
Q 2172 0 1784 0 
Q 1141 0 747 490 
Q 353 981 353 1791 
Q 353 2603 747 3093 
Q 1141 3584 1784 3584 
Q 2172 3584 2450 3431 
Q 2728 3278 2906 2969 
L 2906 3500 
L 3481 3500 
L 3481 434 
z
" transform="scale(0.015625)"/>
       <path id="DejaVuSans-5f" d="M 3263 -1063 
L 3263 -1509 
L -63 -1509 
L -63 -1063 
L 3263 -1063 
z
" transform="scale(0.015625)"/>
       <path id="DejaVuSans-39" d="M 703 97 
L 703 672 
Q 941 559 1184 500 
Q 1428 441 1663 441 
Q 2288 441 2617 861 
Q 2947 1281 2994 2138 
Q 2813 1869 2534 1725 
Q 2256 1581 1919 1581 
Q 1219 1581 811 2004 
Q 403 2428 403 3163 
Q 403 3881 828 4315 
Q 1253 4750 1959 4750 
Q 2769 4750 3195 4129 
Q 3622 3509 3622 2328 
Q 3622 1225 3098 567 
Q 2575 -91 1691 -91 
Q 1453 -91 1209 -44 
Q 966 3 703 97 
z
M 1959 2075 
Q 2384 2075 2632 2365 
Q 2881 2656 2881 3163 
Q 2881 3666 2632 3958 
Q 2384 4250 1959 4250 
Q 1534 4250 1286 3958 
Q 1038 3666 1038 3163 
Q 1038 2656 1286 2365 
Q 1534 2075 1959 2075 
z
" transform="scale(0.015625)"/>
       <path id="DejaVuSans-4d" d="M 628 4666 
L 1569 4666 
L 2759 1491 
L 3956 4666 
L 4897 4666 
L 4897 0 
L 4281 0 
L 4281 4097 
L 3078 897 
L 2444 897 
L 1241 4097 
L 1241 0 
L 628 0 
L 628 4666 
z
" transform="scale(0.015625)"/>
       <path id="DejaVuSans-68" d="M 3513 2113 
L 3513 0 
L 2938 0 
L 2938 2094 
Q 2938 2591 2744 2837 
Q 2550 3084 2163 3084 
Q 1697 3084 1428 2787 
Q 1159 2491 1159 1978 
L 1159 0 
L 581 0 
L 581 4863 
L 1159 4863 
L 1159 2956 
Q 1366 3272 1645 3428 
Q 1925 3584 2291 3584 
Q 2894 3584 3203 3211 
Q 3513 2838 3513 2113 
z
" transform="scale(0.015625)"/>
       <path id="DejaVuSans-2e" d="M 684 794 
L 1344 794 
L 1344 0 
L 684 0 
L 684 794 
z
" transform="scale(0.015625)"/>
       <path id="DejaVuSans-2d" d="M 313 2009 
L 1997 2009 
L 1997 1497 
L 313 1497 
L 313 2009 
z
" transform="scale(0.015625)"/>
       <path id="DejaVuSans-6c" d="M 603 4863 
L 1178 4863 
L 1178 0 
L 603 0 
L 603 4863 
z
" transform="scale(0.015625)"/>
       <path id="DejaVuSans-79" d="M 2059 -325 
Q 1816 -950 1584 -1140 
Q 1353 -1331 966 -1331 
L 506 -1331 
L 506 -850 
L 844 -850 
Q 1081 -850 1212 -737 
Q 1344 -625 1503 -206 
L 1606 56 
L 191 3500 
L 800 3500 
L 1894 763 
L 2988 3500 
L 3597 3500 
L 2059 -325 
z
" transform="scale(0.015625)"/>
      </defs>
      <use xlink:href="#DejaVuSans-45"/>
      <use xlink:href="#DejaVuSans-78" x="63.183594"/>
      <use xlink:href="#DejaVuSans-74" x="122.363281"/>
      <use xlink:href="#DejaVuSans-4e" x="161.572266"/>
      <use xlink:href="#DejaVuSans-65" x="236.376953"/>
      <use xlink:href="#DejaVuSans-67" x="297.900391"/>
      <use xlink:href="#DejaVuSans-5f" x="361.376953"/>
      <use xlink:href="#DejaVuSans-32" x="411.376953"/>
      <use xlink:href="#DejaVuSans-30" x="475"/>
      <use xlink:href="#DejaVuSans-31" x="538.623047"/>
      <use xlink:href="#DejaVuSans-39" x="602.246094"/>
      <use xlink:href="#DejaVuSans-30" x="665.869141"/>
      <use xlink:href="#DejaVuSans-39" x="729.492188"/>
      <use xlink:href="#DejaVuSans-31" x="793.115234"/>
      <use xlink:href="#DejaVuSans-30" x="856.738281"/>
      <use xlink:href="#DejaVuSans-5f" x="920.361328"/>
      <use xlink:href="#DejaVuSans-4d" x="970.361328"/>
      <use xlink:href="#DejaVuSans-69" x="1056.640625"/>
      <use xlink:href="#DejaVuSans-46" x="1084.423828"/>
      <use xlink:href="#DejaVuSans-69" x="1134.693359"/>
      <use xlink:href="#DejaVuSans-73" x="1162.476562"/>
      <use xlink:href="#DejaVuSans-68" x="1214.576172"/>
      <use xlink:href="#DejaVuSans-5f" x="1277.955078"/>
      <use xlink:href="#DejaVuSans-53" x="1327.955078"/>
      <use xlink:href="#DejaVuSans-35" x="1391.431641"/>
      <use xlink:href="#DejaVuSans-35" x="1455.054688"/>
      <use xlink:href="#DejaVuSans-2e" x="1518.677734"/>
      <use xlink:href="#DejaVuSans-31" x="1550.464844"/>
      <use xlink:href="#DejaVuSans-20" x="1614.087891"/>
      <use xlink:href="#DejaVuSans-2d" x="1645.875"/>
      <use xlink:href="#DejaVuSans-20" x="1681.958984"/>
      <use xlink:href="#DejaVuSans-70" x="1713.746094"/>
      <use xlink:href="#DejaVuSans-6f" x="1777.222656"/>
      <use xlink:href="#DejaVuSans-6c" x="1838.404297"/>
      <use xlink:href="#DejaVuSans-79" x="1866.1875"/>
      <use xlink:href="#DejaVuSans-61" x="1925.367188"/>
     </g>
    </g>
    <g id="line2d_21">
     <path d="M 40.168125 303.490394 
L 48.168125 303.490394 
L 56.168125 303.490394 
" style="fill: none; stroke: #434348; stroke-linecap: square"/>
    </g>
    <g id="text_16">
     <!-- GU190707-CTD13-310_MiFish_S31.1 - polya -->
     <g transform="translate(62.568125 306.290394) scale(0.08 -0.08)">
      <defs>
       <path id="DejaVuSans-47" d="M 3809 666 
L 3809 1919 
L 2778 1919 
L 2778 2438 
L 4434 2438 
L 4434 434 
Q 4069 175 3628 42 
Q 3188 -91 2688 -91 
Q 1594 -91 976 548 
Q 359 1188 359 2328 
Q 359 3472 976 4111 
Q 1594 4750 2688 4750 
Q 3144 4750 3555 4637 
Q 3966 4525 4313 4306 
L 4313 3634 
Q 3963 3931 3569 4081 
Q 3175 4231 2741 4231 
Q 1884 4231 1454 3753 
Q 1025 3275 1025 2328 
Q 1025 1384 1454 906 
Q 1884 428 2741 428 
Q 3075 428 3337 486 
Q 3600 544 3809 666 
z
" transform="scale(0.015625)"/>
       <path id="DejaVuSans-55" d="M 556 4666 
L 1191 4666 
L 1191 1831 
Q 1191 1081 1462 751 
Q 1734 422 2344 422 
Q 2950 422 3222 751 
Q 3494 1081 3494 1831 
L 3494 4666 
L 4128 4666 
L 4128 1753 
Q 4128 841 3676 375 
Q 3225 -91 2344 -91 
Q 1459 -91 1007 375 
Q 556 841 556 1753 
L 556 4666 
z
" transform="scale(0.015625)"/>
       <path id="DejaVuSans-37" d="M 525 4666 
L 3525 4666 
L 3525 4397 
L 1831 0 
L 1172 0 
L 2766 4134 
L 525 4134 
L 525 4666 
z
" transform="scale(0.015625)"/>
       <path id="DejaVuSans-54" d="M -19 4666 
L 3928 4666 
L 3928 4134 
L 2272 4134 
L 2272 0 
L 1638 0 
L 1638 4134 
L -19 4134 
L -19 4666 
z
" transform="scale(0.015625)"/>
       <path id="DejaVuSans-44" d="M 1259 4147 
L 1259 519 
L 2022 519 
Q 2988 519 3436 956 
Q 3884 1394 3884 2338 
Q 3884 3275 3436 3711 
Q 2988 4147 2022 4147 
L 1259 4147 
z
M 628 4666 
L 1925 4666 
Q 3281 4666 3915 4102 
Q 4550 3538 4550 2338 
Q 4550 1131 3912 565 
Q 3275 0 1925 0 
L 628 0 
L 628 4666 
z
" transform="scale(0.015625)"/>
      </defs>
      <use xlink:href="#DejaVuSans-47"/>
      <use xlink:href="#DejaVuSans-55" x="77.490234"/>
      <use xlink:href="#DejaVuSans-31" x="150.683594"/>
      <use xlink:href="#DejaVuSans-39" x="214.306641"/>
      <use xlink:href="#DejaVuSans-30" x="277.929688"/>
      <use xlink:href="#DejaVuSans-37" x="341.552734"/>
      <use xlink:href="#DejaVuSans-30" x="405.175781"/>
      <use xlink:href="#DejaVuSans-37" x="468.798828"/>
      <use xlink:href="#DejaVuSans-2d" x="532.421875"/>
      <use xlink:href="#DejaVuSans-43" x="568.505859"/>
      <use xlink:href="#DejaVuSans-54" x="638.330078"/>
      <use xlink:href="#DejaVuSans-44" x="699.414062"/>
      <use xlink:href="#DejaVuSans-31" x="776.416016"/>
      <use xlink:href="#DejaVuSans-33" x="840.039062"/>
      <use xlink:href="#DejaVuSans-2d" x="903.662109"/>
      <use xlink:href="#DejaVuSans-33" x="939.746094"/>
      <use xlink:href="#DejaVuSans-31" x="1003.369141"/>
      <use xlink:href="#DejaVuSans-30" x="1066.992188"/>
      <use xlink:href="#DejaVuSans-5f" x="1130.615234"/>
      <use xlink:href="#DejaVuSans-4d" x="1180.615234"/>
      <use xlink:href="#DejaVuSans-69" x="1266.894531"/>
      <use xlink:href="#DejaVuSans-46" x="1294.677734"/>
      <use xlink:href="#DejaVuSans-69" x="1344.947266"/>
      <use xlink:href="#DejaVuSans-73" x="1372.730469"/>
      <use xlink:href="#DejaVuSans-68" x="1424.830078"/>
      <use xlink:href="#DejaVuSans-5f" x="1488.208984"/>
      <use xlink:href="#DejaVuSans-53" x="1538.208984"/>
      <use xlink:href="#DejaVuSans-33" x="1601.685547"/>
      <use xlink:href="#DejaVuSans-31" x="1665.308594"/>
      <use xlink:href="#DejaVuSans-2e" x="1728.931641"/>
      <use xlink:href="#DejaVuSans-31" x="1760.71875"/>
      <use xlink:href="#DejaVuSans-20" x="1824.341797"/>
      <use xlink:href="#DejaVuSans-2d" x="1856.128906"/>
      <use xlink:href="#DejaVuSans-20" x="1892.212891"/>
      <use xlink:href="#DejaVuSans-70" x="1924"/>
      <use xlink:href="#DejaVuSans-6f" x="1987.476562"/>
      <use xlink:href="#DejaVuSans-6c" x="2048.658203"/>
      <use xlink:href="#DejaVuSans-79" x="2076.441406"/>
      <use xlink:href="#DejaVuSans-61" x="2135.621094"/>
     </g>
    </g>
    <g id="line2d_22">
     <path d="M 40.168125 315.455394 
L 48.168125 315.455394 
L 56.168125 315.455394 
" style="fill: none; stroke: #90ed7d; stroke-linecap: square"/>
    </g>
    <g id="text_17">
     <!-- GU190708-CTD16-252_MiFish_S33.1 - polya -->
     <g transform="translate(62.568125 318.255394) scale(0.08 -0.08)">
      <defs>
       <path id="DejaVuSans-38" d="M 2034 2216 
Q 1584 2216 1326 1975 
Q 1069 1734 1069 1313 
Q 1069 891 1326 650 
Q 1584 409 2034 409 
Q 2484 409 2743 651 
Q 3003 894 3003 1313 
Q 3003 1734 2745 1975 
Q 2488 2216 2034 2216 
z
M 1403 2484 
Q 997 2584 770 2862 
Q 544 3141 544 3541 
Q 544 4100 942 4425 
Q 1341 4750 2034 4750 
Q 2731 4750 3128 4425 
Q 3525 4100 3525 3541 
Q 3525 3141 3298 2862 
Q 3072 2584 2669 2484 
Q 3125 2378 3379 2068 
Q 3634 1759 3634 1313 
Q 3634 634 3220 271 
Q 2806 -91 2034 -91 
Q 1263 -91 848 271 
Q 434 634 434 1313 
Q 434 1759 690 2068 
Q 947 2378 1403 2484 
z
M 1172 3481 
Q 1172 3119 1398 2916 
Q 1625 2713 2034 2713 
Q 2441 2713 2670 2916 
Q 2900 3119 2900 3481 
Q 2900 3844 2670 4047 
Q 2441 4250 2034 4250 
Q 1625 4250 1398 4047 
Q 1172 3844 1172 3481 
z
" transform="scale(0.015625)"/>
       <path id="DejaVuSans-36" d="M 2113 2584 
Q 1688 2584 1439 2293 
Q 1191 2003 1191 1497 
Q 1191 994 1439 701 
Q 1688 409 2113 409 
Q 2538 409 2786 701 
Q 3034 994 3034 1497 
Q 3034 2003 2786 2293 
Q 2538 2584 2113 2584 
z
M 3366 4563 
L 3366 3988 
Q 3128 4100 2886 4159 
Q 2644 4219 2406 4219 
Q 1781 4219 1451 3797 
Q 1122 3375 1075 2522 
Q 1259 2794 1537 2939 
Q 1816 3084 2150 3084 
Q 2853 3084 3261 2657 
Q 3669 2231 3669 1497 
Q 3669 778 3244 343 
Q 2819 -91 2113 -91 
Q 1303 -91 875 529 
Q 447 1150 447 2328 
Q 447 3434 972 4092 
Q 1497 4750 2381 4750 
Q 2619 4750 2861 4703 
Q 3103 4656 3366 4563 
z
" transform="scale(0.015625)"/>
      </defs>
      <use xlink:href="#DejaVuSans-47"/>
      <use xlink:href="#DejaVuSans-55" x="77.490234"/>
      <use xlink:href="#DejaVuSans-31" x="150.683594"/>
      <use xlink:href="#DejaVuSans-39" x="214.306641"/>
      <use xlink:href="#DejaVuSans-30" x="277.929688"/>
      <use xlink:href="#DejaVuSans-37" x="341.552734"/>
      <use xlink:href="#DejaVuSans-30" x="405.175781"/>
      <use xlink:href="#DejaVuSans-38" x="468.798828"/>
      <use xlink:href="#DejaVuSans-2d" x="532.421875"/>
      <use xlink:href="#DejaVuSans-43" x="568.505859"/>
      <use xlink:href="#DejaVuSans-54" x="638.330078"/>
      <use xlink:href="#DejaVuSans-44" x="699.414062"/>
      <use xlink:href="#DejaVuSans-31" x="776.416016"/>
      <use xlink:href="#DejaVuSans-36" x="840.039062"/>
      <use xlink:href="#DejaVuSans-2d" x="903.662109"/>
      <use xlink:href="#DejaVuSans-32" x="939.746094"/>
      <use xlink:href="#DejaVuSans-35" x="1003.369141"/>
      <use xlink:href="#DejaVuSans-32" x="1066.992188"/>
      <use xlink:href="#DejaVuSans-5f" x="1130.615234"/>
      <use xlink:href="#DejaVuSans-4d" x="1180.615234"/>
      <use xlink:href="#DejaVuSans-69" x="1266.894531"/>
      <use xlink:href="#DejaVuSans-46" x="1294.677734"/>
      <use xlink:href="#DejaVuSans-69" x="1344.947266"/>
      <use xlink:href="#DejaVuSans-73" x="1372.730469"/>
      <use xlink:href="#DejaVuSans-68" x="1424.830078"/>
      <use xlink:href="#DejaVuSans-5f" x="1488.208984"/>
      <use xlink:href="#DejaVuSans-53" x="1538.208984"/>
      <use xlink:href="#DejaVuSans-33" x="1601.685547"/>
      <use xlink:href="#DejaVuSans-33" x="1665.308594"/>
      <use xlink:href="#DejaVuSans-2e" x="1728.931641"/>
      <use xlink:href="#DejaVuSans-31" x="1760.71875"/>
      <use xlink:href="#DejaVuSans-20" x="1824.341797"/>
      <use xlink:href="#DejaVuSans-2d" x="1856.128906"/>
      <use xlink:href="#DejaVuSans-20" x="1892.212891"/>
      <use xlink:href="#DejaVuSans-70" x="1924"/>
      <use xlink:href="#DejaVuSans-6f" x="1987.476562"/>
      <use xlink:href="#DejaVuSans-6c" x="2048.658203"/>
      <use xlink:href="#DejaVuSans-79" x="2076.441406"/>
      <use xlink:href="#DejaVuSans-61" x="2135.621094"/>
     </g>
    </g>
    <g id="line2d_23">
     <path d="M 225.705625 291.525394 
L 233.705625 291.525394 
L 241.705625 291.525394 
" style="fill: none; stroke: #f7a35c; stroke-linecap: square"/>
    </g>
    <g id="text_18">
     <!-- GU190708-CTD17-171_MiFish_S34.1 - polya -->
     <g transform="translate(248.105625 294.325394) scale(0.08 -0.08)">
      <use xlink:href="#DejaVuSans-47"/>
      <use xlink:href="#DejaVuSans-55" x="77.490234"/>
      <use xlink:href="#DejaVuSans-31" x="150.683594"/>
      <use xlink:href="#DejaVuSans-39" x="214.306641"/>
      <use xlink:href="#DejaVuSans-30" x="277.929688"/>
      <use xlink:href="#DejaVuSans-37" x="341.552734"/>
      <use xlink:href="#DejaVuSans-30" x="405.175781"/>
      <use xlink:href="#DejaVuSans-38" x="468.798828"/>
      <use xlink:href="#DejaVuSans-2d" x="532.421875"/>
      <use xlink:href="#DejaVuSans-43" x="568.505859"/>
      <use xlink:href="#DejaVuSans-54" x="638.330078"/>
      <use xlink:href="#DejaVuSans-44" x="699.414062"/>
      <use xlink:href="#DejaVuSans-31" x="776.416016"/>
      <use xlink:href="#DejaVuSans-37" x="840.039062"/>
      <use xlink:href="#DejaVuSans-2d" x="903.662109"/>
      <use xlink:href="#DejaVuSans-31" x="939.746094"/>
      <use xlink:href="#DejaVuSans-37" x="1003.369141"/>
      <use xlink:href="#DejaVuSans-31" x="1066.992188"/>
      <use xlink:href="#DejaVuSans-5f" x="1130.615234"/>
      <use xlink:href="#DejaVuSans-4d" x="1180.615234"/>
      <use xlink:href="#DejaVuSans-69" x="1266.894531"/>
      <use xlink:href="#DejaVuSans-46" x="1294.677734"/>
      <use xlink:href="#DejaVuSans-69" x="1344.947266"/>
      <use xlink:href="#DejaVuSans-73" x="1372.730469"/>
      <use xlink:href="#DejaVuSans-68" x="1424.830078"/>
      <use xlink:href="#DejaVuSans-5f" x="1488.208984"/>
      <use xlink:href="#DejaVuSans-53" x="1538.208984"/>
      <use xlink:href="#DejaVuSans-33" x="1601.685547"/>
      <use xlink:href="#DejaVuSans-34" x="1665.308594"/>
      <use xlink:href="#DejaVuSans-2e" x="1728.931641"/>
      <use xlink:href="#DejaVuSans-31" x="1760.71875"/>
      <use xlink:href="#DejaVuSans-20" x="1824.341797"/>
      <use xlink:href="#DejaVuSans-2d" x="1856.128906"/>
      <use xlink:href="#DejaVuSans-20" x="1892.212891"/>
      <use xlink:href="#DejaVuSans-70" x="1924"/>
      <use xlink:href="#DejaVuSans-6f" x="1987.476562"/>
      <use xlink:href="#DejaVuSans-6c" x="2048.658203"/>
      <use xlink:href="#DejaVuSans-79" x="2076.441406"/>
      <use xlink:href="#DejaVuSans-61" x="2135.621094"/>
     </g>
    </g>
    <g id="line2d_24">
     <path d="M 225.705625 303.490394 
L 233.705625 303.490394 
L 241.705625 303.490394 
" style="fill: none; stroke: #8085e9; stroke-linecap: square"/>
    </g>
    <g id="text_19">
     <!-- GU190709-CTD20-280_MiFish_S35.1 - polya -->
     <g transform="translate(248.105625 306.290394) scale(0.08 -0.08)">
      <use xlink:href="#DejaVuSans-47"/>
      <use xlink:href="#DejaVuSans-55" x="77.490234"/>
      <use xlink:href="#DejaVuSans-31" x="150.683594"/>
      <use xlink:href="#DejaVuSans-39" x="214.306641"/>
      <use xlink:href="#DejaVuSans-30" x="277.929688"/>
      <use xlink:href="#DejaVuSans-37" x="341.552734"/>
      <use xlink:href="#DejaVuSans-30" x="405.175781"/>
      <use xlink:href="#DejaVuSans-39" x="468.798828"/>
      <use xlink:href="#DejaVuSans-2d" x="532.421875"/>
      <use xlink:href="#DejaVuSans-43" x="568.505859"/>
      <use xlink:href="#DejaVuSans-54" x="638.330078"/>
      <use xlink:href="#DejaVuSans-44" x="699.414062"/>
      <use xlink:href="#DejaVuSans-32" x="776.416016"/>
      <use xlink:href="#DejaVuSans-30" x="840.039062"/>
      <use xlink:href="#DejaVuSans-2d" x="903.662109"/>
      <use xlink:href="#DejaVuSans-32" x="939.746094"/>
      <use xlink:href="#DejaVuSans-38" x="1003.369141"/>
      <use xlink:href="#DejaVuSans-30" x="1066.992188"/>
      <use xlink:href="#DejaVuSans-5f" x="1130.615234"/>
      <use xlink:href="#DejaVuSans-4d" x="1180.615234"/>
      <use xlink:href="#DejaVuSans-69" x="1266.894531"/>
      <use xlink:href="#DejaVuSans-46" x="1294.677734"/>
      <use xlink:href="#DejaVuSans-69" x="1344.947266"/>
      <use xlink:href="#DejaVuSans-73" x="1372.730469"/>
      <use xlink:href="#DejaVuSans-68" x="1424.830078"/>
      <use xlink:href="#DejaVuSans-5f" x="1488.208984"/>
      <use xlink:href="#DejaVuSans-53" x="1538.208984"/>
      <use xlink:href="#DejaVuSans-33" x="1601.685547"/>
      <use xlink:href="#DejaVuSans-35" x="1665.308594"/>
      <use xlink:href="#DejaVuSans-2e" x="1728.931641"/>
      <use xlink:href="#DejaVuSans-31" x="1760.71875"/>
      <use xlink:href="#DejaVuSans-20" x="1824.341797"/>
      <use xlink:href="#DejaVuSans-2d" x="1856.128906"/>
      <use xlink:href="#DejaVuSans-20" x="1892.212891"/>
      <use xlink:href="#DejaVuSans-70" x="1924"/>
      <use xlink:href="#DejaVuSans-6f" x="1987.476562"/>
      <use xlink:href="#DejaVuSans-6c" x="2048.658203"/>
      <use xlink:href="#DejaVuSans-79" x="2076.441406"/>
      <use xlink:href="#DejaVuSans-61" x="2135.621094"/>
     </g>
    </g>
    <g id="line2d_25">
     <path d="M 225.705625 315.455394 
L 233.705625 315.455394 
L 241.705625 315.455394 
" style="fill: none; stroke: #f15c80; stroke-linecap: square"/>
    </g>
    <g id="text_20">
     <!-- GU190710-CTD23-190_MiFish_S37.1 - polya -->
     <g transform="translate(248.105625 318.255394) scale(0.08 -0.08)">
      <use xlink:href="#DejaVuSans-47"/>
      <use xlink:href="#DejaVuSans-55" x="77.490234"/>
      <use xlink:href="#DejaVuSans-31" x="150.683594"/>
      <use xlink:href="#DejaVuSans-39" x="214.306641"/>
      <use xlink:href="#DejaVuSans-30" x="277.929688"/>
      <use xlink:href="#DejaVuSans-37" x="341.552734"/>
      <use xlink:href="#DejaVuSans-31" x="405.175781"/>
      <use xlink:href="#DejaVuSans-30" x="468.798828"/>
      <use xlink:href="#DejaVuSans-2d" x="532.421875"/>
      <use xlink:href="#DejaVuSans-43" x="568.505859"/>
      <use xlink:href="#DejaVuSans-54" x="638.330078"/>
      <use xlink:href="#DejaVuSans-44" x="699.414062"/>
      <use xlink:href="#DejaVuSans-32" x="776.416016"/>
      <use xlink:href="#DejaVuSans-33" x="840.039062"/>
      <use xlink:href="#DejaVuSans-2d" x="903.662109"/>
      <use xlink:href="#DejaVuSans-31" x="939.746094"/>
      <use xlink:href="#DejaVuSans-39" x="1003.369141"/>
      <use xlink:href="#DejaVuSans-30" x="1066.992188"/>
      <use xlink:href="#DejaVuSans-5f" x="1130.615234"/>
      <use xlink:href="#DejaVuSans-4d" x="1180.615234"/>
      <use xlink:href="#DejaVuSans-69" x="1266.894531"/>
      <use xlink:href="#DejaVuSans-46" x="1294.677734"/>
      <use xlink:href="#DejaVuSans-69" x="1344.947266"/>
      <use xlink:href="#DejaVuSans-73" x="1372.730469"/>
      <use xlink:href="#DejaVuSans-68" x="1424.830078"/>
      <use xlink:href="#DejaVuSans-5f" x="1488.208984"/>
      <use xlink:href="#DejaVuSans-53" x="1538.208984"/>
      <use xlink:href="#DejaVuSans-33" x="1601.685547"/>
      <use xlink:href="#DejaVuSans-37" x="1665.308594"/>
      <use xlink:href="#DejaVuSans-2e" x="1728.931641"/>
      <use xlink:href="#DejaVuSans-31" x="1760.71875"/>
      <use xlink:href="#DejaVuSans-20" x="1824.341797"/>
      <use xlink:href="#DejaVuSans-2d" x="1856.128906"/>
      <use xlink:href="#DejaVuSans-20" x="1892.212891"/>
      <use xlink:href="#DejaVuSans-70" x="1924"/>
      <use xlink:href="#DejaVuSans-6f" x="1987.476562"/>
      <use xlink:href="#DejaVuSans-6c" x="2048.658203"/>
      <use xlink:href="#DejaVuSans-79" x="2076.441406"/>
      <use xlink:href="#DejaVuSans-61" x="2135.621094"/>
     </g>
    </g>
    <g id="line2d_26">
     <path d="M 411.243125 291.525394 
L 419.243125 291.525394 
L 427.243125 291.525394 
" style="fill: none; stroke: #e4d354; stroke-linecap: square"/>
    </g>
    <g id="text_21">
     <!-- GU190714-CTD26-260_MiFish_S39.1 - polya -->
     <g transform="translate(433.643125 294.325394) scale(0.08 -0.08)">
      <use xlink:href="#DejaVuSans-47"/>
      <use xlink:href="#DejaVuSans-55" x="77.490234"/>
      <use xlink:href="#DejaVuSans-31" x="150.683594"/>
      <use xlink:href="#DejaVuSans-39" x="214.306641"/>
      <use xlink:href="#DejaVuSans-30" x="277.929688"/>
      <use xlink:href="#DejaVuSans-37" x="341.552734"/>
      <use xlink:href="#DejaVuSans-31" x="405.175781"/>
      <use xlink:href="#DejaVuSans-34" x="468.798828"/>
      <use xlink:href="#DejaVuSans-2d" x="532.421875"/>
      <use xlink:href="#DejaVuSans-43" x="568.505859"/>
      <use xlink:href="#DejaVuSans-54" x="638.330078"/>
      <use xlink:href="#DejaVuSans-44" x="699.414062"/>
      <use xlink:href="#DejaVuSans-32" x="776.416016"/>
      <use xlink:href="#DejaVuSans-36" x="840.039062"/>
      <use xlink:href="#DejaVuSans-2d" x="903.662109"/>
      <use xlink:href="#DejaVuSans-32" x="939.746094"/>
      <use xlink:href="#DejaVuSans-36" x="1003.369141"/>
      <use xlink:href="#DejaVuSans-30" x="1066.992188"/>
      <use xlink:href="#DejaVuSans-5f" x="1130.615234"/>
      <use xlink:href="#DejaVuSans-4d" x="1180.615234"/>
      <use xlink:href="#DejaVuSans-69" x="1266.894531"/>
      <use xlink:href="#DejaVuSans-46" x="1294.677734"/>
      <use xlink:href="#DejaVuSans-69" x="1344.947266"/>
      <use xlink:href="#DejaVuSans-73" x="1372.730469"/>
      <use xlink:href="#DejaVuSans-68" x="1424.830078"/>
      <use xlink:href="#DejaVuSans-5f" x="1488.208984"/>
      <use xlink:href="#DejaVuSans-53" x="1538.208984"/>
      <use xlink:href="#DejaVuSans-33" x="1601.685547"/>
      <use xlink:href="#DejaVuSans-39" x="1665.308594"/>
      <use xlink:href="#DejaVuSans-2e" x="1728.931641"/>
      <use xlink:href="#DejaVuSans-31" x="1760.71875"/>
      <use xlink:href="#DejaVuSans-20" x="1824.341797"/>
      <use xlink:href="#DejaVuSans-2d" x="1856.128906"/>
      <use xlink:href="#DejaVuSans-20" x="1892.212891"/>
      <use xlink:href="#DejaVuSans-70" x="1924"/>
      <use xlink:href="#DejaVuSans-6f" x="1987.476562"/>
      <use xlink:href="#DejaVuSans-6c" x="2048.658203"/>
      <use xlink:href="#DejaVuSans-79" x="2076.441406"/>
      <use xlink:href="#DejaVuSans-61" x="2135.621094"/>
     </g>
    </g>
    <g id="line2d_27">
     <path d="M 411.243125 303.490394 
L 419.243125 303.490394 
L 427.243125 303.490394 
" style="fill: none; stroke: #2b908f; stroke-linecap: square"/>
    </g>
    <g id="text_22">
     <!-- GU190724-CTD36-310_MiFish_S43.1 - polya -->
     <g transform="translate(433.643125 306.290394) scale(0.08 -0.08)">
      <use xlink:href="#DejaVuSans-47"/>
      <use xlink:href="#DejaVuSans-55" x="77.490234"/>
      <use xlink:href="#DejaVuSans-31" x="150.683594"/>
      <use xlink:href="#DejaVuSans-39" x="214.306641"/>
      <use xlink:href="#DejaVuSans-30" x="277.929688"/>
      <use xlink:href="#DejaVuSans-37" x="341.552734"/>
      <use xlink:href="#DejaVuSans-32" x="405.175781"/>
      <use xlink:href="#DejaVuSans-34" x="468.798828"/>
      <use xlink:href="#DejaVuSans-2d" x="532.421875"/>
      <use xlink:href="#DejaVuSans-43" x="568.505859"/>
      <use xlink:href="#DejaVuSans-54" x="638.330078"/>
      <use xlink:href="#DejaVuSans-44" x="699.414062"/>
      <use xlink:href="#DejaVuSans-33" x="776.416016"/>
      <use xlink:href="#DejaVuSans-36" x="840.039062"/>
      <use xlink:href="#DejaVuSans-2d" x="903.662109"/>
      <use xlink:href="#DejaVuSans-33" x="939.746094"/>
      <use xlink:href="#DejaVuSans-31" x="1003.369141"/>
      <use xlink:href="#DejaVuSans-30" x="1066.992188"/>
      <use xlink:href="#DejaVuSans-5f" x="1130.615234"/>
      <use xlink:href="#DejaVuSans-4d" x="1180.615234"/>
      <use xlink:href="#DejaVuSans-69" x="1266.894531"/>
      <use xlink:href="#DejaVuSans-46" x="1294.677734"/>
      <use xlink:href="#DejaVuSans-69" x="1344.947266"/>
      <use xlink:href="#DejaVuSans-73" x="1372.730469"/>
      <use xlink:href="#DejaVuSans-68" x="1424.830078"/>
      <use xlink:href="#DejaVuSans-5f" x="1488.208984"/>
      <use xlink:href="#DejaVuSans-53" x="1538.208984"/>
      <use xlink:href="#DejaVuSans-34" x="1601.685547"/>
      <use xlink:href="#DejaVuSans-33" x="1665.308594"/>
      <use xlink:href="#DejaVuSans-2e" x="1728.931641"/>
      <use xlink:href="#DejaVuSans-31" x="1760.71875"/>
      <use xlink:href="#DejaVuSans-20" x="1824.341797"/>
      <use xlink:href="#DejaVuSans-2d" x="1856.128906"/>
      <use xlink:href="#DejaVuSans-20" x="1892.212891"/>
      <use xlink:href="#DejaVuSans-70" x="1924"/>
      <use xlink:href="#DejaVuSans-6f" x="1987.476562"/>
      <use xlink:href="#DejaVuSans-6c" x="2048.658203"/>
      <use xlink:href="#DejaVuSans-79" x="2076.441406"/>
      <use xlink:href="#DejaVuSans-61" x="2135.621094"/>
     </g>
    </g>
    <g id="line2d_28">
     <path d="M 596.780625 291.525394 
L 604.780625 291.525394 
L 612.780625 291.525394 
" style="fill: none; stroke: #f45b5b; stroke-linecap: square"/>
    </g>
    <g id="text_23">
     <!-- GU190728-CTD43-245_MiFish_S46.1 - polya -->
     <g transform="translate(619.180625 294.325394) scale(0.08 -0.08)">
      <use xlink:href="#DejaVuSans-47"/>
      <use xlink:href="#DejaVuSans-55" x="77.490234"/>
      <use xlink:href="#DejaVuSans-31" x="150.683594"/>
      <use xlink:href="#DejaVuSans-39" x="214.306641"/>
      <use xlink:href="#DejaVuSans-30" x="277.929688"/>
      <use xlink:href="#DejaVuSans-37" x="341.552734"/>
      <use xlink:href="#DejaVuSans-32" x="405.175781"/>
      <use xlink:href="#DejaVuSans-38" x="468.798828"/>
      <use xlink:href="#DejaVuSans-2d" x="532.421875"/>
      <use xlink:href="#DejaVuSans-43" x="568.505859"/>
      <use xlink:href="#DejaVuSans-54" x="638.330078"/>
      <use xlink:href="#DejaVuSans-44" x="699.414062"/>
      <use xlink:href="#DejaVuSans-34" x="776.416016"/>
      <use xlink:href="#DejaVuSans-33" x="840.039062"/>
      <use xlink:href="#DejaVuSans-2d" x="903.662109"/>
      <use xlink:href="#DejaVuSans-32" x="939.746094"/>
      <use xlink:href="#DejaVuSans-34" x="1003.369141"/>
      <use xlink:href="#DejaVuSans-35" x="1066.992188"/>
      <use xlink:href="#DejaVuSans-5f" x="1130.615234"/>
      <use xlink:href="#DejaVuSans-4d" x="1180.615234"/>
      <use xlink:href="#DejaVuSans-69" x="1266.894531"/>
      <use xlink:href="#DejaVuSans-46" x="1294.677734"/>
      <use xlink:href="#DejaVuSans-69" x="1344.947266"/>
      <use xlink:href="#DejaVuSans-73" x="1372.730469"/>
      <use xlink:href="#DejaVuSans-68" x="1424.830078"/>
      <use xlink:href="#DejaVuSans-5f" x="1488.208984"/>
      <use xlink:href="#DejaVuSans-53" x="1538.208984"/>
      <use xlink:href="#DejaVuSans-34" x="1601.685547"/>
      <use xlink:href="#DejaVuSans-36" x="1665.308594"/>
      <use xlink:href="#DejaVuSans-2e" x="1728.931641"/>
      <use xlink:href="#DejaVuSans-31" x="1760.71875"/>
      <use xlink:href="#DejaVuSans-20" x="1824.341797"/>
      <use xlink:href="#DejaVuSans-2d" x="1856.128906"/>
      <use xlink:href="#DejaVuSans-20" x="1892.212891"/>
      <use xlink:href="#DejaVuSans-70" x="1924"/>
      <use xlink:href="#DejaVuSans-6f" x="1987.476562"/>
      <use xlink:href="#DejaVuSans-6c" x="2048.658203"/>
      <use xlink:href="#DejaVuSans-79" x="2076.441406"/>
      <use xlink:href="#DejaVuSans-61" x="2135.621094"/>
     </g>
    </g>
    <g id="line2d_29">
     <path d="M 596.780625 303.490394 
L 604.780625 303.490394 
L 612.780625 303.490394 
" style="fill: none; stroke: #91e8e1; stroke-linecap: square"/>
    </g>
    <g id="text_24">
     <!-- GU190728-CTD44B-125_MiFish_S47.1 - polya -->
     <g transform="translate(619.180625 306.290394) scale(0.08 -0.08)">
      <defs>
       <path id="DejaVuSans-42" d="M 1259 2228 
L 1259 519 
L 2272 519 
Q 2781 519 3026 730 
Q 3272 941 3272 1375 
Q 3272 1813 3026 2020 
Q 2781 2228 2272 2228 
L 1259 2228 
z
M 1259 4147 
L 1259 2741 
L 2194 2741 
Q 2656 2741 2882 2914 
Q 3109 3088 3109 3444 
Q 3109 3797 2882 3972 
Q 2656 4147 2194 4147 
L 1259 4147 
z
M 628 4666 
L 2241 4666 
Q 2963 4666 3353 4366 
Q 3744 4066 3744 3513 
Q 3744 3084 3544 2831 
Q 3344 2578 2956 2516 
Q 3422 2416 3680 2098 
Q 3938 1781 3938 1306 
Q 3938 681 3513 340 
Q 3088 0 2303 0 
L 628 0 
L 628 4666 
z
" transform="scale(0.015625)"/>
      </defs>
      <use xlink:href="#DejaVuSans-47"/>
      <use xlink:href="#DejaVuSans-55" x="77.490234"/>
      <use xlink:href="#DejaVuSans-31" x="150.683594"/>
      <use xlink:href="#DejaVuSans-39" x="214.306641"/>
      <use xlink:href="#DejaVuSans-30" x="277.929688"/>
      <use xlink:href="#DejaVuSans-37" x="341.552734"/>
      <use xlink:href="#DejaVuSans-32" x="405.175781"/>
      <use xlink:href="#DejaVuSans-38" x="468.798828"/>
      <use xlink:href="#DejaVuSans-2d" x="532.421875"/>
      <use xlink:href="#DejaVuSans-43" x="568.505859"/>
      <use xlink:href="#DejaVuSans-54" x="638.330078"/>
      <use xlink:href="#DejaVuSans-44" x="699.414062"/>
      <use xlink:href="#DejaVuSans-34" x="776.416016"/>
      <use xlink:href="#DejaVuSans-34" x="840.039062"/>
      <use xlink:href="#DejaVuSans-42" x="903.662109"/>
      <use xlink:href="#DejaVuSans-2d" x="972.265625"/>
      <use xlink:href="#DejaVuSans-31" x="1008.349609"/>
      <use xlink:href="#DejaVuSans-32" x="1071.972656"/>
      <use xlink:href="#DejaVuSans-35" x="1135.595703"/>
      <use xlink:href="#DejaVuSans-5f" x="1199.21875"/>
      <use xlink:href="#DejaVuSans-4d" x="1249.21875"/>
      <use xlink:href="#DejaVuSans-69" x="1335.498047"/>
      <use xlink:href="#DejaVuSans-46" x="1363.28125"/>
      <use xlink:href="#DejaVuSans-69" x="1413.550781"/>
      <use xlink:href="#DejaVuSans-73" x="1441.333984"/>
      <use xlink:href="#DejaVuSans-68" x="1493.433594"/>
      <use xlink:href="#DejaVuSans-5f" x="1556.8125"/>
      <use xlink:href="#DejaVuSans-53" x="1606.8125"/>
      <use xlink:href="#DejaVuSans-34" x="1670.289062"/>
      <use xlink:href="#DejaVuSans-37" x="1733.912109"/>
      <use xlink:href="#DejaVuSans-2e" x="1797.535156"/>
      <use xlink:href="#DejaVuSans-31" x="1829.322266"/>
      <use xlink:href="#DejaVuSans-20" x="1892.945312"/>
      <use xlink:href="#DejaVuSans-2d" x="1924.732422"/>
      <use xlink:href="#DejaVuSans-20" x="1960.816406"/>
      <use xlink:href="#DejaVuSans-70" x="1992.603516"/>
      <use xlink:href="#DejaVuSans-6f" x="2056.080078"/>
      <use xlink:href="#DejaVuSans-6c" x="2117.261719"/>
      <use xlink:href="#DejaVuSans-79" x="2145.044922"/>
      <use xlink:href="#DejaVuSans-61" x="2204.224609"/>
     </g>
    </g>
    <g id="line2d_30">
     <path d="M 787.806875 291.525394 
L 795.806875 291.525394 
L 803.806875 291.525394 
" style="fill: none; stroke: #7cb5ec; stroke-linecap: square"/>
    </g>
    <g id="text_25">
     <!-- GU190729-CTD46-240_MiFish_S48.1 - polya -->
     <g transform="translate(810.206875 294.325394) scale(0.08 -0.08)">
      <use xlink:href="#DejaVuSans-47"/>
      <use xlink:href="#DejaVuSans-55" x="77.490234"/>
      <use xlink:href="#DejaVuSans-31" x="150.683594"/>
      <use xlink:href="#DejaVuSans-39" x="214.306641"/>
      <use xlink:href="#DejaVuSans-30" x="277.929688"/>
      <use xlink:href="#DejaVuSans-37" x="341.552734"/>
      <use xlink:href="#DejaVuSans-32" x="405.175781"/>
      <use xlink:href="#DejaVuSans-39" x="468.798828"/>
      <use xlink:href="#DejaVuSans-2d" x="532.421875"/>
      <use xlink:href="#DejaVuSans-43" x="568.505859"/>
      <use xlink:href="#DejaVuSans-54" x="638.330078"/>
      <use xlink:href="#DejaVuSans-44" x="699.414062"/>
      <use xlink:href="#DejaVuSans-34" x="776.416016"/>
      <use xlink:href="#DejaVuSans-36" x="840.039062"/>
      <use xlink:href="#DejaVuSans-2d" x="903.662109"/>
      <use xlink:href="#DejaVuSans-32" x="939.746094"/>
      <use xlink:href="#DejaVuSans-34" x="1003.369141"/>
      <use xlink:href="#DejaVuSans-30" x="1066.992188"/>
      <use xlink:href="#DejaVuSans-5f" x="1130.615234"/>
      <use xlink:href="#DejaVuSans-4d" x="1180.615234"/>
      <use xlink:href="#DejaVuSans-69" x="1266.894531"/>
      <use xlink:href="#DejaVuSans-46" x="1294.677734"/>
      <use xlink:href="#DejaVuSans-69" x="1344.947266"/>
      <use xlink:href="#DejaVuSans-73" x="1372.730469"/>
      <use xlink:href="#DejaVuSans-68" x="1424.830078"/>
      <use xlink:href="#DejaVuSans-5f" x="1488.208984"/>
      <use xlink:href="#DejaVuSans-53" x="1538.208984"/>
      <use xlink:href="#DejaVuSans-34" x="1601.685547"/>
      <use xlink:href="#DejaVuSans-38" x="1665.308594"/>
      <use xlink:href="#DejaVuSans-2e" x="1728.931641"/>
      <use xlink:href="#DejaVuSans-31" x="1760.71875"/>
      <use xlink:href="#DejaVuSans-20" x="1824.341797"/>
      <use xlink:href="#DejaVuSans-2d" x="1856.128906"/>
      <use xlink:href="#DejaVuSans-20" x="1892.212891"/>
      <use xlink:href="#DejaVuSans-70" x="1924"/>
      <use xlink:href="#DejaVuSans-6f" x="1987.476562"/>
      <use xlink:href="#DejaVuSans-6c" x="2048.658203"/>
      <use xlink:href="#DejaVuSans-79" x="2076.441406"/>
      <use xlink:href="#DejaVuSans-61" x="2135.621094"/>
     </g>
    </g>
    <g id="line2d_31">
     <path d="M 787.806875 303.490394 
L 795.806875 303.490394 
L 803.806875 303.490394 
" style="fill: none; stroke: #434348; stroke-linecap: square"/>
    </g>
    <g id="text_26">
     <!-- GU190729-CTD47-140_MiFish_S49.1 - polya -->
     <g transform="translate(810.206875 306.290394) scale(0.08 -0.08)">
      <use xlink:href="#DejaVuSans-47"/>
      <use xlink:href="#DejaVuSans-55" x="77.490234"/>
      <use xlink:href="#DejaVuSans-31" x="150.683594"/>
      <use xlink:href="#DejaVuSans-39" x="214.306641"/>
      <use xlink:href="#DejaVuSans-30" x="277.929688"/>
      <use xlink:href="#DejaVuSans-37" x="341.552734"/>
      <use xlink:href="#DejaVuSans-32" x="405.175781"/>
      <use xlink:href="#DejaVuSans-39" x="468.798828"/>
      <use xlink:href="#DejaVuSans-2d" x="532.421875"/>
      <use xlink:href="#DejaVuSans-43" x="568.505859"/>
      <use xlink:href="#DejaVuSans-54" x="638.330078"/>
      <use xlink:href="#DejaVuSans-44" x="699.414062"/>
      <use xlink:href="#DejaVuSans-34" x="776.416016"/>
      <use xlink:href="#DejaVuSans-37" x="840.039062"/>
      <use xlink:href="#DejaVuSans-2d" x="903.662109"/>
      <use xlink:href="#DejaVuSans-31" x="939.746094"/>
      <use xlink:href="#DejaVuSans-34" x="1003.369141"/>
      <use xlink:href="#DejaVuSans-30" x="1066.992188"/>
      <use xlink:href="#DejaVuSans-5f" x="1130.615234"/>
      <use xlink:href="#DejaVuSans-4d" x="1180.615234"/>
      <use xlink:href="#DejaVuSans-69" x="1266.894531"/>
      <use xlink:href="#DejaVuSans-46" x="1294.677734"/>
      <use xlink:href="#DejaVuSans-69" x="1344.947266"/>
      <use xlink:href="#DejaVuSans-73" x="1372.730469"/>
      <use xlink:href="#DejaVuSans-68" x="1424.830078"/>
      <use xlink:href="#DejaVuSans-5f" x="1488.208984"/>
      <use xlink:href="#DejaVuSans-53" x="1538.208984"/>
      <use xlink:href="#DejaVuSans-34" x="1601.685547"/>
      <use xlink:href="#DejaVuSans-39" x="1665.308594"/>
      <use xlink:href="#DejaVuSans-2e" x="1728.931641"/>
      <use xlink:href="#DejaVuSans-31" x="1760.71875"/>
      <use xlink:href="#DejaVuSans-20" x="1824.341797"/>
      <use xlink:href="#DejaVuSans-2d" x="1856.128906"/>
      <use xlink:href="#DejaVuSans-20" x="1892.212891"/>
      <use xlink:href="#DejaVuSans-70" x="1924"/>
      <use xlink:href="#DejaVuSans-6f" x="1987.476562"/>
      <use xlink:href="#DejaVuSans-6c" x="2048.658203"/>
      <use xlink:href="#DejaVuSans-79" x="2076.441406"/>
      <use xlink:href="#DejaVuSans-61" x="2135.621094"/>
     </g>
    </g>
   </g>
  </g>
 </g>
 <defs>
  <clipPath id="pe3dfde30e5">
   <rect x="32.968125" y="31.48286" width="960.19" height="242.5072"/>
  </clipPath>
 </defs>
</svg>
