<?xml version="1.0" encoding="utf-8" standalone="no"?>
<!DOCTYPE svg PUBLIC "-//W3C//DTD SVG 1.1//EN"
  "http://www.w3.org/Graphics/SVG/1.1/DTD/svg11.dtd">
<svg xmlns:xlink="http://www.w3.org/1999/xlink" width="1000.278125pt" height="388.844525pt" viewBox="0 0 1000.278125 388.844525" xmlns="http://www.w3.org/2000/svg" version="1.1">
 <metadata>
  <rdf:RDF xmlns:dc="http://purl.org/dc/elements/1.1/" xmlns:cc="http://creativecommons.org/ns#" xmlns:rdf="http://www.w3.org/1999/02/22-rdf-syntax-ns#">
   <cc:Work>
    <dc:type rdf:resource="http://purl.org/dc/dcmitype/StillImage"/>
    <dc:date>2024-06-28T13:31:37.528086</dc:date>
    <dc:format>image/svg+xml</dc:format>
    <dc:creator>
     <cc:Agent>
      <dc:title>Matplotlib v3.7.1, https://matplotlib.org/</dc:title>
     </cc:Agent>
    </dc:creator>
   </cc:Work>
  </rdf:RDF>
 </metadata>
 <defs>
  <style type="text/css">*{stroke-linejoin: round; stroke-linecap: butt}</style>
 </defs>
 <g id="figure_1">
  <g id="axes_1">
   <g id="patch_1">
    <path d="M 43.148125 353.2239 
L 993.078125 353.2239 
L 993.078125 35.2559 
L 43.148125 35.2559 
z
" style="fill: #ffffff"/>
   </g>
   <g id="matplotlib.axis_1">
    <g id="xtick_1">
     <g id="text_1">
      <!-- 1.0 -->
      <g transform="translate(79.965511 366.30265) scale(0.08 -0.08)">
       <defs>
        <path id="DejaVuSans-31" d="M 794 531 
L 1825 531 
L 1825 4091 
L 703 3866 
L 703 4441 
L 1819 4666 
L 2450 4666 
L 2450 531 
L 3481 531 
L 3481 0 
L 794 0 
L 794 531 
z
" transform="scale(0.015625)"/>
        <path id="DejaVuSans-2e" d="M 684 794 
L 1344 794 
L 1344 0 
L 684 0 
L 684 794 
z
" transform="scale(0.015625)"/>
        <path id="DejaVuSans-30" d="M 2034 4250 
Q 1547 4250 1301 3770 
Q 1056 3291 1056 2328 
Q 1056 1369 1301 889 
Q 1547 409 2034 409 
Q 2525 409 2770 889 
Q 3016 1369 3016 2328 
Q 3016 3291 2770 3770 
Q 2525 4250 2034 4250 
z
M 2034 4750 
Q 2819 4750 3233 4129 
Q 3647 3509 3647 2328 
Q 3647 1150 3233 529 
Q 2819 -91 2034 -91 
Q 1250 -91 836 529 
Q 422 1150 422 2328 
Q 422 3509 836 4129 
Q 1250 4750 2034 4750 
z
" transform="scale(0.015625)"/>
       </defs>
       <use xlink:href="#DejaVuSans-31"/>
       <use xlink:href="#DejaVuSans-2e" x="63.623047"/>
       <use xlink:href="#DejaVuSans-30" x="95.410156"/>
      </g>
     </g>
    </g>
    <g id="xtick_2">
     <g id="text_2">
      <!-- 2.0 -->
      <g transform="translate(137.537027 366.30265) scale(0.08 -0.08)">
       <defs>
        <path id="DejaVuSans-32" d="M 1228 531 
L 3431 531 
L 3431 0 
L 469 0 
L 469 531 
Q 828 903 1448 1529 
Q 2069 2156 2228 2338 
Q 2531 2678 2651 2914 
Q 2772 3150 2772 3378 
Q 2772 3750 2511 3984 
Q 2250 4219 1831 4219 
Q 1534 4219 1204 4116 
Q 875 4013 500 3803 
L 500 4441 
Q 881 4594 1212 4672 
Q 1544 4750 1819 4750 
Q 2544 4750 2975 4387 
Q 3406 4025 3406 3419 
Q 3406 3131 3298 2873 
Q 3191 2616 2906 2266 
Q 2828 2175 2409 1742 
Q 1991 1309 1228 531 
z
" transform="scale(0.015625)"/>
       </defs>
       <use xlink:href="#DejaVuSans-32"/>
       <use xlink:href="#DejaVuSans-2e" x="63.623047"/>
       <use xlink:href="#DejaVuSans-30" x="95.410156"/>
      </g>
     </g>
    </g>
    <g id="xtick_3">
     <g id="text_3">
      <!-- 3.0 -->
      <g transform="translate(195.108542 366.30265) scale(0.08 -0.08)">
       <defs>
        <path id="DejaVuSans-33" d="M 2597 2516 
Q 3050 2419 3304 2112 
Q 3559 1806 3559 1356 
Q 3559 666 3084 287 
Q 2609 -91 1734 -91 
Q 1441 -91 1130 -33 
Q 819 25 488 141 
L 488 750 
Q 750 597 1062 519 
Q 1375 441 1716 441 
Q 2309 441 2620 675 
Q 2931 909 2931 1356 
Q 2931 1769 2642 2001 
Q 2353 2234 1838 2234 
L 1294 2234 
L 1294 2753 
L 1863 2753 
Q 2328 2753 2575 2939 
Q 2822 3125 2822 3475 
Q 2822 3834 2567 4026 
Q 2313 4219 1838 4219 
Q 1578 4219 1281 4162 
Q 984 4106 628 3988 
L 628 4550 
Q 988 4650 1302 4700 
Q 1616 4750 1894 4750 
Q 2613 4750 3031 4423 
Q 3450 4097 3450 3541 
Q 3450 3153 3228 2886 
Q 3006 2619 2597 2516 
z
" transform="scale(0.015625)"/>
       </defs>
       <use xlink:href="#DejaVuSans-33"/>
       <use xlink:href="#DejaVuSans-2e" x="63.623047"/>
       <use xlink:href="#DejaVuSans-30" x="95.410156"/>
      </g>
     </g>
    </g>
    <g id="xtick_4">
     <g id="text_4">
      <!-- 4.0 -->
      <g transform="translate(252.680057 366.30265) scale(0.08 -0.08)">
       <defs>
        <path id="DejaVuSans-34" d="M 2419 4116 
L 825 1625 
L 2419 1625 
L 2419 4116 
z
M 2253 4666 
L 3047 4666 
L 3047 1625 
L 3713 1625 
L 3713 1100 
L 3047 1100 
L 3047 0 
L 2419 0 
L 2419 1100 
L 313 1100 
L 313 1709 
L 2253 4666 
z
" transform="scale(0.015625)"/>
       </defs>
       <use xlink:href="#DejaVuSans-34"/>
       <use xlink:href="#DejaVuSans-2e" x="63.623047"/>
       <use xlink:href="#DejaVuSans-30" x="95.410156"/>
      </g>
     </g>
    </g>
    <g id="xtick_5">
     <g id="text_5">
      <!-- 5.0 -->
      <g transform="translate(310.251572 366.30265) scale(0.08 -0.08)">
       <defs>
        <path id="DejaVuSans-35" d="M 691 4666 
L 3169 4666 
L 3169 4134 
L 1269 4134 
L 1269 2991 
Q 1406 3038 1543 3061 
Q 1681 3084 1819 3084 
Q 2600 3084 3056 2656 
Q 3513 2228 3513 1497 
Q 3513 744 3044 326 
Q 2575 -91 1722 -91 
Q 1428 -91 1123 -41 
Q 819 9 494 109 
L 494 744 
Q 775 591 1075 516 
Q 1375 441 1709 441 
Q 2250 441 2565 725 
Q 2881 1009 2881 1497 
Q 2881 1984 2565 2268 
Q 2250 2553 1709 2553 
Q 1456 2553 1204 2497 
Q 953 2441 691 2322 
L 691 4666 
z
" transform="scale(0.015625)"/>
       </defs>
       <use xlink:href="#DejaVuSans-35"/>
       <use xlink:href="#DejaVuSans-2e" x="63.623047"/>
       <use xlink:href="#DejaVuSans-30" x="95.410156"/>
      </g>
     </g>
    </g>
    <g id="xtick_6">
     <g id="text_6">
      <!-- 6.0 -->
      <g transform="translate(367.823087 366.30265) scale(0.08 -0.08)">
       <defs>
        <path id="DejaVuSans-36" d="M 2113 2584 
Q 1688 2584 1439 2293 
Q 1191 2003 1191 1497 
Q 1191 994 1439 701 
Q 1688 409 2113 409 
Q 2538 409 2786 701 
Q 3034 994 3034 1497 
Q 3034 2003 2786 2293 
Q 2538 2584 2113 2584 
z
M 3366 4563 
L 3366 3988 
Q 3128 4100 2886 4159 
Q 2644 4219 2406 4219 
Q 1781 4219 1451 3797 
Q 1122 3375 1075 2522 
Q 1259 2794 1537 2939 
Q 1816 3084 2150 3084 
Q 2853 3084 3261 2657 
Q 3669 2231 3669 1497 
Q 3669 778 3244 343 
Q 2819 -91 2113 -91 
Q 1303 -91 875 529 
Q 447 1150 447 2328 
Q 447 3434 972 4092 
Q 1497 4750 2381 4750 
Q 2619 4750 2861 4703 
Q 3103 4656 3366 4563 
z
" transform="scale(0.015625)"/>
       </defs>
       <use xlink:href="#DejaVuSans-36"/>
       <use xlink:href="#DejaVuSans-2e" x="63.623047"/>
       <use xlink:href="#DejaVuSans-30" x="95.410156"/>
      </g>
     </g>
    </g>
    <g id="xtick_7">
     <g id="text_7">
      <!-- 7.0 -->
      <g transform="translate(425.394602 366.30265) scale(0.08 -0.08)">
       <defs>
        <path id="DejaVuSans-37" d="M 525 4666 
L 3525 4666 
L 3525 4397 
L 1831 0 
L 1172 0 
L 2766 4134 
L 525 4134 
L 525 4666 
z
" transform="scale(0.015625)"/>
       </defs>
       <use xlink:href="#DejaVuSans-37"/>
       <use xlink:href="#DejaVuSans-2e" x="63.623047"/>
       <use xlink:href="#DejaVuSans-30" x="95.410156"/>
      </g>
     </g>
    </g>
    <g id="xtick_8">
     <g id="text_8">
      <!-- 8.0 -->
      <g transform="translate(482.966117 366.30265) scale(0.08 -0.08)">
       <defs>
        <path id="DejaVuSans-38" d="M 2034 2216 
Q 1584 2216 1326 1975 
Q 1069 1734 1069 1313 
Q 1069 891 1326 650 
Q 1584 409 2034 409 
Q 2484 409 2743 651 
Q 3003 894 3003 1313 
Q 3003 1734 2745 1975 
Q 2488 2216 2034 2216 
z
M 1403 2484 
Q 997 2584 770 2862 
Q 544 3141 544 3541 
Q 544 4100 942 4425 
Q 1341 4750 2034 4750 
Q 2731 4750 3128 4425 
Q 3525 4100 3525 3541 
Q 3525 3141 3298 2862 
Q 3072 2584 2669 2484 
Q 3125 2378 3379 2068 
Q 3634 1759 3634 1313 
Q 3634 634 3220 271 
Q 2806 -91 2034 -91 
Q 1263 -91 848 271 
Q 434 634 434 1313 
Q 434 1759 690 2068 
Q 947 2378 1403 2484 
z
M 1172 3481 
Q 1172 3119 1398 2916 
Q 1625 2713 2034 2713 
Q 2441 2713 2670 2916 
Q 2900 3119 2900 3481 
Q 2900 3844 2670 4047 
Q 2441 4250 2034 4250 
Q 1625 4250 1398 4047 
Q 1172 3844 1172 3481 
z
" transform="scale(0.015625)"/>
       </defs>
       <use xlink:href="#DejaVuSans-38"/>
       <use xlink:href="#DejaVuSans-2e" x="63.623047"/>
       <use xlink:href="#DejaVuSans-30" x="95.410156"/>
      </g>
     </g>
    </g>
    <g id="xtick_9">
     <g id="text_9">
      <!-- 9.0 -->
      <g transform="translate(540.537633 366.30265) scale(0.08 -0.08)">
       <defs>
        <path id="DejaVuSans-39" d="M 703 97 
L 703 672 
Q 941 559 1184 500 
Q 1428 441 1663 441 
Q 2288 441 2617 861 
Q 2947 1281 2994 2138 
Q 2813 1869 2534 1725 
Q 2256 1581 1919 1581 
Q 1219 1581 811 2004 
Q 403 2428 403 3163 
Q 403 3881 828 4315 
Q 1253 4750 1959 4750 
Q 2769 4750 3195 4129 
Q 3622 3509 3622 2328 
Q 3622 1225 3098 567 
Q 2575 -91 1691 -91 
Q 1453 -91 1209 -44 
Q 966 3 703 97 
z
M 1959 2075 
Q 2384 2075 2632 2365 
Q 2881 2656 2881 3163 
Q 2881 3666 2632 3958 
Q 2384 4250 1959 4250 
Q 1534 4250 1286 3958 
Q 1038 3666 1038 3163 
Q 1038 2656 1286 2365 
Q 1534 2075 1959 2075 
z
" transform="scale(0.015625)"/>
       </defs>
       <use xlink:href="#DejaVuSans-39"/>
       <use xlink:href="#DejaVuSans-2e" x="63.623047"/>
       <use xlink:href="#DejaVuSans-30" x="95.410156"/>
      </g>
     </g>
    </g>
    <g id="xtick_10">
     <g id="text_10">
      <!-- &gt;10 -->
      <g transform="translate(596.028523 366.30265) scale(0.08 -0.08)">
       <defs>
        <path id="DejaVuSans-3e" d="M 678 3150 
L 678 3719 
L 4684 2266 
L 4684 1747 
L 678 294 
L 678 863 
L 3897 2003 
L 678 3150 
z
" transform="scale(0.015625)"/>
       </defs>
       <use xlink:href="#DejaVuSans-3e"/>
       <use xlink:href="#DejaVuSans-31" x="83.789062"/>
       <use xlink:href="#DejaVuSans-30" x="147.412109"/>
      </g>
     </g>
    </g>
    <g id="xtick_11">
     <g id="text_11">
      <!-- &gt;50 -->
      <g transform="translate(653.600038 366.30265) scale(0.08 -0.08)">
       <use xlink:href="#DejaVuSans-3e"/>
       <use xlink:href="#DejaVuSans-35" x="83.789062"/>
       <use xlink:href="#DejaVuSans-30" x="147.412109"/>
      </g>
     </g>
    </g>
    <g id="xtick_12">
     <g id="text_12">
      <!-- &gt;100 -->
      <g transform="translate(708.626553 366.30265) scale(0.08 -0.08)">
       <use xlink:href="#DejaVuSans-3e"/>
       <use xlink:href="#DejaVuSans-31" x="83.789062"/>
       <use xlink:href="#DejaVuSans-30" x="147.412109"/>
       <use xlink:href="#DejaVuSans-30" x="211.035156"/>
      </g>
     </g>
    </g>
    <g id="xtick_13">
     <g id="text_13">
      <!-- &gt;500 -->
      <g transform="translate(766.198068 366.30265) scale(0.08 -0.08)">
       <use xlink:href="#DejaVuSans-3e"/>
       <use xlink:href="#DejaVuSans-35" x="83.789062"/>
       <use xlink:href="#DejaVuSans-30" x="147.412109"/>
       <use xlink:href="#DejaVuSans-30" x="211.035156"/>
      </g>
     </g>
    </g>
    <g id="xtick_14">
     <g id="text_14">
      <!-- &gt;1k -->
      <g transform="translate(826.543333 366.30265) scale(0.08 -0.08)">
       <defs>
        <path id="DejaVuSans-6b" d="M 581 4863 
L 1159 4863 
L 1159 1991 
L 2875 3500 
L 3609 3500 
L 1753 1863 
L 3688 0 
L 2938 0 
L 1159 1709 
L 1159 0 
L 581 0 
L 581 4863 
z
" transform="scale(0.015625)"/>
       </defs>
       <use xlink:href="#DejaVuSans-3e"/>
       <use xlink:href="#DejaVuSans-31" x="83.789062"/>
       <use xlink:href="#DejaVuSans-6b" x="147.412109"/>
      </g>
     </g>
    </g>
    <g id="xtick_15">
     <g id="text_15">
      <!-- &gt;5k -->
      <g transform="translate(884.114848 366.30265) scale(0.08 -0.08)">
       <use xlink:href="#DejaVuSans-3e"/>
       <use xlink:href="#DejaVuSans-35" x="83.789062"/>
       <use xlink:href="#DejaVuSans-6b" x="147.412109"/>
      </g>
     </g>
    </g>
    <g id="xtick_16">
     <g id="text_16">
      <!-- &gt;10k+ -->
      <g transform="translate(935.789489 366.30265) scale(0.08 -0.08)">
       <defs>
        <path id="DejaVuSans-2b" d="M 2944 4013 
L 2944 2272 
L 4684 2272 
L 4684 1741 
L 2944 1741 
L 2944 0 
L 2419 0 
L 2419 1741 
L 678 1741 
L 678 2272 
L 2419 2272 
L 2419 4013 
L 2944 4013 
z
" transform="scale(0.015625)"/>
       </defs>
       <use xlink:href="#DejaVuSans-3e"/>
       <use xlink:href="#DejaVuSans-31" x="83.789062"/>
       <use xlink:href="#DejaVuSans-30" x="147.412109"/>
       <use xlink:href="#DejaVuSans-6b" x="211.035156"/>
       <use xlink:href="#DejaVuSans-2b" x="268.945312"/>
      </g>
     </g>
    </g>
    <g id="text_17">
     <!-- Sequence Duplication Level -->
     <g transform="translate(448.708437 379.564837) scale(0.1 -0.1)">
      <defs>
       <path id="DejaVuSans-53" d="M 3425 4513 
L 3425 3897 
Q 3066 4069 2747 4153 
Q 2428 4238 2131 4238 
Q 1616 4238 1336 4038 
Q 1056 3838 1056 3469 
Q 1056 3159 1242 3001 
Q 1428 2844 1947 2747 
L 2328 2669 
Q 3034 2534 3370 2195 
Q 3706 1856 3706 1288 
Q 3706 609 3251 259 
Q 2797 -91 1919 -91 
Q 1588 -91 1214 -16 
Q 841 59 441 206 
L 441 856 
Q 825 641 1194 531 
Q 1563 422 1919 422 
Q 2459 422 2753 634 
Q 3047 847 3047 1241 
Q 3047 1584 2836 1778 
Q 2625 1972 2144 2069 
L 1759 2144 
Q 1053 2284 737 2584 
Q 422 2884 422 3419 
Q 422 4038 858 4394 
Q 1294 4750 2059 4750 
Q 2388 4750 2728 4690 
Q 3069 4631 3425 4513 
z
" transform="scale(0.015625)"/>
       <path id="DejaVuSans-65" d="M 3597 1894 
L 3597 1613 
L 953 1613 
Q 991 1019 1311 708 
Q 1631 397 2203 397 
Q 2534 397 2845 478 
Q 3156 559 3463 722 
L 3463 178 
Q 3153 47 2828 -22 
Q 2503 -91 2169 -91 
Q 1331 -91 842 396 
Q 353 884 353 1716 
Q 353 2575 817 3079 
Q 1281 3584 2069 3584 
Q 2775 3584 3186 3129 
Q 3597 2675 3597 1894 
z
M 3022 2063 
Q 3016 2534 2758 2815 
Q 2500 3097 2075 3097 
Q 1594 3097 1305 2825 
Q 1016 2553 972 2059 
L 3022 2063 
z
" transform="scale(0.015625)"/>
       <path id="DejaVuSans-71" d="M 947 1747 
Q 947 1113 1208 752 
Q 1469 391 1925 391 
Q 2381 391 2643 752 
Q 2906 1113 2906 1747 
Q 2906 2381 2643 2742 
Q 2381 3103 1925 3103 
Q 1469 3103 1208 2742 
Q 947 2381 947 1747 
z
M 2906 525 
Q 2725 213 2448 61 
Q 2172 -91 1784 -91 
Q 1150 -91 751 415 
Q 353 922 353 1747 
Q 353 2572 751 3078 
Q 1150 3584 1784 3584 
Q 2172 3584 2448 3432 
Q 2725 3281 2906 2969 
L 2906 3500 
L 3481 3500 
L 3481 -1331 
L 2906 -1331 
L 2906 525 
z
" transform="scale(0.015625)"/>
       <path id="DejaVuSans-75" d="M 544 1381 
L 544 3500 
L 1119 3500 
L 1119 1403 
Q 1119 906 1312 657 
Q 1506 409 1894 409 
Q 2359 409 2629 706 
Q 2900 1003 2900 1516 
L 2900 3500 
L 3475 3500 
L 3475 0 
L 2900 0 
L 2900 538 
Q 2691 219 2414 64 
Q 2138 -91 1772 -91 
Q 1169 -91 856 284 
Q 544 659 544 1381 
z
M 1991 3584 
L 1991 3584 
z
" transform="scale(0.015625)"/>
       <path id="DejaVuSans-6e" d="M 3513 2113 
L 3513 0 
L 2938 0 
L 2938 2094 
Q 2938 2591 2744 2837 
Q 2550 3084 2163 3084 
Q 1697 3084 1428 2787 
Q 1159 2491 1159 1978 
L 1159 0 
L 581 0 
L 581 3500 
L 1159 3500 
L 1159 2956 
Q 1366 3272 1645 3428 
Q 1925 3584 2291 3584 
Q 2894 3584 3203 3211 
Q 3513 2838 3513 2113 
z
" transform="scale(0.015625)"/>
       <path id="DejaVuSans-63" d="M 3122 3366 
L 3122 2828 
Q 2878 2963 2633 3030 
Q 2388 3097 2138 3097 
Q 1578 3097 1268 2742 
Q 959 2388 959 1747 
Q 959 1106 1268 751 
Q 1578 397 2138 397 
Q 2388 397 2633 464 
Q 2878 531 3122 666 
L 3122 134 
Q 2881 22 2623 -34 
Q 2366 -91 2075 -91 
Q 1284 -91 818 406 
Q 353 903 353 1747 
Q 353 2603 823 3093 
Q 1294 3584 2113 3584 
Q 2378 3584 2631 3529 
Q 2884 3475 3122 3366 
z
" transform="scale(0.015625)"/>
       <path id="DejaVuSans-20" transform="scale(0.015625)"/>
       <path id="DejaVuSans-44" d="M 1259 4147 
L 1259 519 
L 2022 519 
Q 2988 519 3436 956 
Q 3884 1394 3884 2338 
Q 3884 3275 3436 3711 
Q 2988 4147 2022 4147 
L 1259 4147 
z
M 628 4666 
L 1925 4666 
Q 3281 4666 3915 4102 
Q 4550 3538 4550 2338 
Q 4550 1131 3912 565 
Q 3275 0 1925 0 
L 628 0 
L 628 4666 
z
" transform="scale(0.015625)"/>
       <path id="DejaVuSans-70" d="M 1159 525 
L 1159 -1331 
L 581 -1331 
L 581 3500 
L 1159 3500 
L 1159 2969 
Q 1341 3281 1617 3432 
Q 1894 3584 2278 3584 
Q 2916 3584 3314 3078 
Q 3713 2572 3713 1747 
Q 3713 922 3314 415 
Q 2916 -91 2278 -91 
Q 1894 -91 1617 61 
Q 1341 213 1159 525 
z
M 3116 1747 
Q 3116 2381 2855 2742 
Q 2594 3103 2138 3103 
Q 1681 3103 1420 2742 
Q 1159 2381 1159 1747 
Q 1159 1113 1420 752 
Q 1681 391 2138 391 
Q 2594 391 2855 752 
Q 3116 1113 3116 1747 
z
" transform="scale(0.015625)"/>
       <path id="DejaVuSans-6c" d="M 603 4863 
L 1178 4863 
L 1178 0 
L 603 0 
L 603 4863 
z
" transform="scale(0.015625)"/>
       <path id="DejaVuSans-69" d="M 603 3500 
L 1178 3500 
L 1178 0 
L 603 0 
L 603 3500 
z
M 603 4863 
L 1178 4863 
L 1178 4134 
L 603 4134 
L 603 4863 
z
" transform="scale(0.015625)"/>
       <path id="DejaVuSans-61" d="M 2194 1759 
Q 1497 1759 1228 1600 
Q 959 1441 959 1056 
Q 959 750 1161 570 
Q 1363 391 1709 391 
Q 2188 391 2477 730 
Q 2766 1069 2766 1631 
L 2766 1759 
L 2194 1759 
z
M 3341 1997 
L 3341 0 
L 2766 0 
L 2766 531 
Q 2569 213 2275 61 
Q 1981 -91 1556 -91 
Q 1019 -91 701 211 
Q 384 513 384 1019 
Q 384 1609 779 1909 
Q 1175 2209 1959 2209 
L 2766 2209 
L 2766 2266 
Q 2766 2663 2505 2880 
Q 2244 3097 1772 3097 
Q 1472 3097 1187 3025 
Q 903 2953 641 2809 
L 641 3341 
Q 956 3463 1253 3523 
Q 1550 3584 1831 3584 
Q 2591 3584 2966 3190 
Q 3341 2797 3341 1997 
z
" transform="scale(0.015625)"/>
       <path id="DejaVuSans-74" d="M 1172 4494 
L 1172 3500 
L 2356 3500 
L 2356 3053 
L 1172 3053 
L 1172 1153 
Q 1172 725 1289 603 
Q 1406 481 1766 481 
L 2356 481 
L 2356 0 
L 1766 0 
Q 1100 0 847 248 
Q 594 497 594 1153 
L 594 3053 
L 172 3053 
L 172 3500 
L 594 3500 
L 594 4494 
L 1172 4494 
z
" transform="scale(0.015625)"/>
       <path id="DejaVuSans-6f" d="M 1959 3097 
Q 1497 3097 1228 2736 
Q 959 2375 959 1747 
Q 959 1119 1226 758 
Q 1494 397 1959 397 
Q 2419 397 2687 759 
Q 2956 1122 2956 1747 
Q 2956 2369 2687 2733 
Q 2419 3097 1959 3097 
z
M 1959 3584 
Q 2709 3584 3137 3096 
Q 3566 2609 3566 1747 
Q 3566 888 3137 398 
Q 2709 -91 1959 -91 
Q 1206 -91 779 398 
Q 353 888 353 1747 
Q 353 2609 779 3096 
Q 1206 3584 1959 3584 
z
" transform="scale(0.015625)"/>
       <path id="DejaVuSans-4c" d="M 628 4666 
L 1259 4666 
L 1259 531 
L 3531 531 
L 3531 0 
L 628 0 
L 628 4666 
z
" transform="scale(0.015625)"/>
       <path id="DejaVuSans-76" d="M 191 3500 
L 800 3500 
L 1894 563 
L 2988 3500 
L 3597 3500 
L 2284 0 
L 1503 0 
L 191 3500 
z
" transform="scale(0.015625)"/>
      </defs>
      <use xlink:href="#DejaVuSans-53"/>
      <use xlink:href="#DejaVuSans-65" x="63.476562"/>
      <use xlink:href="#DejaVuSans-71" x="125"/>
      <use xlink:href="#DejaVuSans-75" x="188.476562"/>
      <use xlink:href="#DejaVuSans-65" x="251.855469"/>
      <use xlink:href="#DejaVuSans-6e" x="313.378906"/>
      <use xlink:href="#DejaVuSans-63" x="376.757812"/>
      <use xlink:href="#DejaVuSans-65" x="431.738281"/>
      <use xlink:href="#DejaVuSans-20" x="493.261719"/>
      <use xlink:href="#DejaVuSans-44" x="525.048828"/>
      <use xlink:href="#DejaVuSans-75" x="602.050781"/>
      <use xlink:href="#DejaVuSans-70" x="665.429688"/>
      <use xlink:href="#DejaVuSans-6c" x="728.90625"/>
      <use xlink:href="#DejaVuSans-69" x="756.689453"/>
      <use xlink:href="#DejaVuSans-63" x="784.472656"/>
      <use xlink:href="#DejaVuSans-61" x="839.453125"/>
      <use xlink:href="#DejaVuSans-74" x="900.732422"/>
      <use xlink:href="#DejaVuSans-69" x="939.941406"/>
      <use xlink:href="#DejaVuSans-6f" x="967.724609"/>
      <use xlink:href="#DejaVuSans-6e" x="1028.90625"/>
      <use xlink:href="#DejaVuSans-20" x="1092.285156"/>
      <use xlink:href="#DejaVuSans-4c" x="1124.072266"/>
      <use xlink:href="#DejaVuSans-65" x="1178.035156"/>
      <use xlink:href="#DejaVuSans-76" x="1239.558594"/>
      <use xlink:href="#DejaVuSans-65" x="1298.738281"/>
      <use xlink:href="#DejaVuSans-6c" x="1360.261719"/>
     </g>
    </g>
   </g>
   <g id="matplotlib.axis_2">
    <g id="ytick_1">
     <g id="line2d_1">
      <path d="M 43.148125 353.2239 
L 993.078125 353.2239 
" clip-path="url(#p60b7f3a4a7)" style="fill: none; stroke: #dedede; stroke-linecap: square"/>
     </g>
     <g id="text_18">
      <!-- 0 -->
      <g transform="translate(31.058125 356.263275) scale(0.08 -0.08)">
       <use xlink:href="#DejaVuSans-30"/>
      </g>
     </g>
    </g>
    <g id="ytick_2">
     <g id="line2d_2">
      <path d="M 43.148125 289.6303 
L 993.078125 289.6303 
" clip-path="url(#p60b7f3a4a7)" style="fill: none; stroke: #dedede; stroke-linecap: square"/>
     </g>
     <g id="text_19">
      <!-- 20 -->
      <g transform="translate(25.968125 292.669675) scale(0.08 -0.08)">
       <use xlink:href="#DejaVuSans-32"/>
       <use xlink:href="#DejaVuSans-30" x="63.623047"/>
      </g>
     </g>
    </g>
    <g id="ytick_3">
     <g id="line2d_3">
      <path d="M 43.148125 226.0367 
L 993.078125 226.0367 
" clip-path="url(#p60b7f3a4a7)" style="fill: none; stroke: #dedede; stroke-linecap: square"/>
     </g>
     <g id="text_20">
      <!-- 40 -->
      <g transform="translate(25.968125 229.076075) scale(0.08 -0.08)">
       <use xlink:href="#DejaVuSans-34"/>
       <use xlink:href="#DejaVuSans-30" x="63.623047"/>
      </g>
     </g>
    </g>
    <g id="ytick_4">
     <g id="line2d_4">
      <path d="M 43.148125 162.4431 
L 993.078125 162.4431 
" clip-path="url(#p60b7f3a4a7)" style="fill: none; stroke: #dedede; stroke-linecap: square"/>
     </g>
     <g id="text_21">
      <!-- 60 -->
      <g transform="translate(25.968125 165.482475) scale(0.08 -0.08)">
       <use xlink:href="#DejaVuSans-36"/>
       <use xlink:href="#DejaVuSans-30" x="63.623047"/>
      </g>
     </g>
    </g>
    <g id="ytick_5">
     <g id="line2d_5">
      <path d="M 43.148125 98.8495 
L 993.078125 98.8495 
" clip-path="url(#p60b7f3a4a7)" style="fill: none; stroke: #dedede; stroke-linecap: square"/>
     </g>
     <g id="text_22">
      <!-- 80 -->
      <g transform="translate(25.968125 101.888875) scale(0.08 -0.08)">
       <use xlink:href="#DejaVuSans-38"/>
       <use xlink:href="#DejaVuSans-30" x="63.623047"/>
      </g>
     </g>
    </g>
    <g id="ytick_6">
     <g id="line2d_6">
      <path d="M 43.148125 35.2559 
L 993.078125 35.2559 
" clip-path="url(#p60b7f3a4a7)" style="fill: none; stroke: #dedede; stroke-linecap: square"/>
     </g>
     <g id="text_23">
      <!-- 100 -->
      <g transform="translate(20.878125 38.295275) scale(0.08 -0.08)">
       <use xlink:href="#DejaVuSans-31"/>
       <use xlink:href="#DejaVuSans-30" x="63.623047"/>
       <use xlink:href="#DejaVuSans-30" x="127.246094"/>
      </g>
     </g>
    </g>
    <g id="text_24">
     <!-- % of Library -->
     <g transform="translate(14.798437 224.471931) rotate(-90) scale(0.1 -0.1)">
      <defs>
       <path id="DejaVuSans-25" d="M 4653 2053 
Q 4381 2053 4226 1822 
Q 4072 1591 4072 1178 
Q 4072 772 4226 539 
Q 4381 306 4653 306 
Q 4919 306 5073 539 
Q 5228 772 5228 1178 
Q 5228 1588 5073 1820 
Q 4919 2053 4653 2053 
z
M 4653 2450 
Q 5147 2450 5437 2106 
Q 5728 1763 5728 1178 
Q 5728 594 5436 251 
Q 5144 -91 4653 -91 
Q 4153 -91 3862 251 
Q 3572 594 3572 1178 
Q 3572 1766 3864 2108 
Q 4156 2450 4653 2450 
z
M 1428 4353 
Q 1159 4353 1004 4120 
Q 850 3888 850 3481 
Q 850 3069 1003 2837 
Q 1156 2606 1428 2606 
Q 1700 2606 1854 2837 
Q 2009 3069 2009 3481 
Q 2009 3884 1853 4118 
Q 1697 4353 1428 4353 
z
M 4250 4750 
L 4750 4750 
L 1831 -91 
L 1331 -91 
L 4250 4750 
z
M 1428 4750 
Q 1922 4750 2215 4408 
Q 2509 4066 2509 3481 
Q 2509 2891 2217 2550 
Q 1925 2209 1428 2209 
Q 931 2209 642 2551 
Q 353 2894 353 3481 
Q 353 4063 643 4406 
Q 934 4750 1428 4750 
z
" transform="scale(0.015625)"/>
       <path id="DejaVuSans-66" d="M 2375 4863 
L 2375 4384 
L 1825 4384 
Q 1516 4384 1395 4259 
Q 1275 4134 1275 3809 
L 1275 3500 
L 2222 3500 
L 2222 3053 
L 1275 3053 
L 1275 0 
L 697 0 
L 697 3053 
L 147 3053 
L 147 3500 
L 697 3500 
L 697 3744 
Q 697 4328 969 4595 
Q 1241 4863 1831 4863 
L 2375 4863 
z
" transform="scale(0.015625)"/>
       <path id="DejaVuSans-62" d="M 3116 1747 
Q 3116 2381 2855 2742 
Q 2594 3103 2138 3103 
Q 1681 3103 1420 2742 
Q 1159 2381 1159 1747 
Q 1159 1113 1420 752 
Q 1681 391 2138 391 
Q 2594 391 2855 752 
Q 3116 1113 3116 1747 
z
M 1159 2969 
Q 1341 3281 1617 3432 
Q 1894 3584 2278 3584 
Q 2916 3584 3314 3078 
Q 3713 2572 3713 1747 
Q 3713 922 3314 415 
Q 2916 -91 2278 -91 
Q 1894 -91 1617 61 
Q 1341 213 1159 525 
L 1159 0 
L 581 0 
L 581 4863 
L 1159 4863 
L 1159 2969 
z
" transform="scale(0.015625)"/>
       <path id="DejaVuSans-72" d="M 2631 2963 
Q 2534 3019 2420 3045 
Q 2306 3072 2169 3072 
Q 1681 3072 1420 2755 
Q 1159 2438 1159 1844 
L 1159 0 
L 581 0 
L 581 3500 
L 1159 3500 
L 1159 2956 
Q 1341 3275 1631 3429 
Q 1922 3584 2338 3584 
Q 2397 3584 2469 3576 
Q 2541 3569 2628 3553 
L 2631 2963 
z
" transform="scale(0.015625)"/>
       <path id="DejaVuSans-79" d="M 2059 -325 
Q 1816 -950 1584 -1140 
Q 1353 -1331 966 -1331 
L 506 -1331 
L 506 -850 
L 844 -850 
Q 1081 -850 1212 -737 
Q 1344 -625 1503 -206 
L 1606 56 
L 191 3500 
L 800 3500 
L 1894 763 
L 2988 3500 
L 3597 3500 
L 2059 -325 
z
" transform="scale(0.015625)"/>
      </defs>
      <use xlink:href="#DejaVuSans-25"/>
      <use xlink:href="#DejaVuSans-20" x="95.019531"/>
      <use xlink:href="#DejaVuSans-6f" x="126.806641"/>
      <use xlink:href="#DejaVuSans-66" x="187.988281"/>
      <use xlink:href="#DejaVuSans-20" x="223.193359"/>
      <use xlink:href="#DejaVuSans-4c" x="254.980469"/>
      <use xlink:href="#DejaVuSans-69" x="310.693359"/>
      <use xlink:href="#DejaVuSans-62" x="338.476562"/>
      <use xlink:href="#DejaVuSans-72" x="401.953125"/>
      <use xlink:href="#DejaVuSans-61" x="443.066406"/>
      <use xlink:href="#DejaVuSans-72" x="504.345703"/>
      <use xlink:href="#DejaVuSans-79" x="545.458984"/>
     </g>
    </g>
   </g>
   <g id="line2d_7">
    <path d="M 86.326761 329.318697 
L 143.898277 346.887581 
L 201.469792 352.359857 
L 259.041307 350.919784 
L 316.612822 348.903683 
L 374.184337 351.495813 
L 431.755852 347.175596 
L 489.327367 353.2239 
L 546.898883 348.039639 
L 604.470398 327.302596 
L 662.041913 333.3509 
L 719.613428 353.2239 
L 777.184943 131.740755 
L 834.756458 353.2239 
L 892.327973 353.2239 
L 949.899489 353.2239 
" clip-path="url(#p60b7f3a4a7)" style="fill: none; stroke: #d9534f; stroke-linecap: square"/>
   </g>
   <g id="line2d_8">
    <path d="M 86.326761 271.793071 
L 143.898277 353.2239 
L 201.469792 341.590924 
L 259.041307 353.2239 
L 316.612822 353.2239 
L 374.184337 329.957949 
L 431.755852 353.2239 
L 489.327367 353.2239 
L 546.898883 353.2239 
L 604.470398 353.2239 
L 662.041913 151.585656 
L 719.613428 353.2239 
L 777.184943 353.2239 
L 834.756458 353.2239 
L 892.327973 353.2239 
L 949.899489 353.2239 
" clip-path="url(#p60b7f3a4a7)" style="fill: none; stroke: #d9534f; stroke-linecap: square"/>
   </g>
   <g id="line2d_9">
    <path d="M 86.326761 334.896701 
L 143.898277 347.885881 
L 201.469792 351.355593 
L 259.041307 352.156296 
L 316.612822 352.33423 
L 374.184337 352.690098 
L 431.755852 352.601131 
L 489.327367 353.2239 
L 546.898883 350.021089 
L 604.470398 327.067607 
L 662.041913 342.369928 
L 719.613428 353.2239 
L 777.184943 353.2239 
L 834.756458 104.116345 
L 892.327973 353.2239 
L 949.899489 353.2239 
" clip-path="url(#p60b7f3a4a7)" style="fill: none; stroke: #d9534f; stroke-linecap: square"/>
   </g>
   <g id="line2d_10">
    <path d="M 86.326761 235.325653 
L 143.898277 331.787855 
L 201.469792 342.505878 
L 259.041307 353.2239 
L 316.612822 353.2239 
L 374.184337 353.2239 
L 431.755852 353.2239 
L 489.327367 338.933203 
L 546.898883 353.2239 
L 604.470398 199.598911 
L 662.041913 353.2239 
L 719.613428 353.2239 
L 777.184943 353.2239 
L 834.756458 353.2239 
L 892.327973 353.2239 
L 949.899489 353.2239 
" clip-path="url(#p60b7f3a4a7)" style="fill: none; stroke: #d9534f; stroke-linecap: square"/>
   </g>
   <g id="line2d_11">
    <path d="M 86.326761 248.89065 
L 143.898277 336.663067 
L 201.469792 348.25565 
L 259.041307 353.2239 
L 316.612822 353.2239 
L 374.184337 353.2239 
L 431.755852 330.038733 
L 489.327367 353.2239 
L 546.898883 353.2239 
L 604.470398 184.3034 
L 662.041913 353.2239 
L 719.613428 353.2239 
L 777.184943 353.2239 
L 834.756458 353.2239 
L 892.327973 353.2239 
L 949.899489 353.2239 
" clip-path="url(#p60b7f3a4a7)" style="fill: none; stroke: #d9534f; stroke-linecap: square"/>
   </g>
   <g id="line2d_12">
    <path d="M 86.326761 137.00566 
L 143.898277 340.50518 
L 201.469792 353.2239 
L 259.041307 353.2239 
L 316.612822 353.2239 
L 374.184337 353.2239 
L 431.755852 353.2239 
L 489.327367 353.2239 
L 546.898883 353.2239 
L 604.470398 264.19286 
L 662.041913 353.2239 
L 719.613428 353.2239 
L 777.184943 353.2239 
L 834.756458 353.2239 
L 892.327973 353.2239 
L 949.899489 353.2239 
" clip-path="url(#p60b7f3a4a7)" style="fill: none; stroke: #5cb85c; stroke-linecap: square"/>
   </g>
   <g id="line2d_13">
    <path d="M 86.326761 187.88054 
L 143.898277 302.34902 
L 201.469792 353.2239 
L 259.041307 353.2239 
L 316.612822 353.2239 
L 374.184337 353.2239 
L 431.755852 353.2239 
L 489.327367 251.47414 
L 546.898883 353.2239 
L 604.470398 353.2239 
L 662.041913 353.2239 
L 719.613428 353.2239 
L 777.184943 353.2239 
L 834.756458 353.2239 
L 892.327973 353.2239 
L 949.899489 353.2239 
" clip-path="url(#p60b7f3a4a7)" style="fill: none; stroke: #f0ad4e; stroke-linecap: square"/>
   </g>
   <g id="line2d_14">
    <path d="M 86.326761 348.141511 
L 143.898277 352.168552 
L 201.469792 352.552907 
L 259.041307 352.707084 
L 316.612822 352.909033 
L 374.184337 352.943777 
L 431.755852 352.91229 
L 489.327367 353.024122 
L 546.898883 352.960063 
L 604.470398 348.2414 
L 662.041913 350.362952 
L 719.613428 347.044905 
L 777.184943 349.381436 
L 834.756458 339.516324 
L 892.327973 330.777133 
L 949.899489 97.970912 
" clip-path="url(#p60b7f3a4a7)" style="fill: none; stroke: #d9534f; stroke-linecap: square"/>
   </g>
   <g id="line2d_15">
    <path d="M 86.326761 343.441499 
L 143.898277 351.644046 
L 201.469792 352.356391 
L 259.041307 352.603243 
L 316.612822 352.630279 
L 374.184337 352.88536 
L 431.755852 352.86185 
L 489.327367 352.88536 
L 546.898883 352.959415 
L 604.470398 346.978539 
L 662.041913 349.740933 
L 719.613428 346.115731 
L 777.184943 349.029763 
L 834.756458 350.878804 
L 892.327973 353.2239 
L 949.899489 73.379287 
" clip-path="url(#p60b7f3a4a7)" style="fill: none; stroke: #d9534f; stroke-linecap: square"/>
   </g>
   <g id="line2d_16">
    <path d="M 86.326761 346.276287 
L 143.898277 351.75054 
L 201.469792 352.293748 
L 259.041307 352.509544 
L 316.612822 352.570727 
L 374.184337 352.703015 
L 431.755852 352.720378 
L 489.327367 352.793963 
L 546.898883 352.807192 
L 604.470398 345.245266 
L 662.041913 350.198633 
L 719.613428 344.358108 
L 777.184943 349.95142 
L 834.756458 345.970371 
L 892.327973 341.156733 
L 949.899489 90.308476 
" clip-path="url(#p60b7f3a4a7)" style="fill: none; stroke: #d9534f; stroke-linecap: square"/>
   </g>
   <g id="line2d_17">
    <path d="M 86.326761 343.88395 
L 143.898277 351.23488 
L 201.469792 352.008909 
L 259.041307 352.341976 
L 316.612822 352.356049 
L 374.184337 352.454562 
L 431.755852 352.676607 
L 489.327367 352.711008 
L 546.898883 352.61875 
L 604.470398 343.88395 
L 662.041913 350.173131 
L 719.613428 344.475026 
L 777.184943 350.221606 
L 834.756458 317.656093 
L 892.327973 319.615403 
L 949.899489 145.302501 
" clip-path="url(#p60b7f3a4a7)" style="fill: none; stroke: #d9534f; stroke-linecap: square"/>
   </g>
   <g id="line2d_18">
    <path d="M 86.326761 344.397935 
L 143.898277 351.622185 
L 201.469792 352.116292 
L 259.041307 352.327527 
L 316.612822 352.663667 
L 374.184337 352.694893 
L 431.755852 352.81245 
L 489.327367 352.856534 
L 546.898883 352.926334 
L 604.470398 345.031642 
L 662.041913 349.809234 
L 719.613428 349.103892 
L 777.184943 353.2239 
L 834.756458 353.2239 
L 892.327973 339.66259 
L 949.899489 79.141424 
" clip-path="url(#p60b7f3a4a7)" style="fill: none; stroke: #d9534f; stroke-linecap: square"/>
   </g>
   <g id="line2d_19">
    <path d="M 86.326761 344.590445 
L 143.898277 351.759104 
L 201.469792 352.276834 
L 259.041307 352.526859 
L 316.612822 352.586209 
L 374.184337 352.776885 
L 431.755852 352.773096 
L 489.327367 352.991553 
L 546.898883 352.928415 
L 604.470398 347.349564 
L 662.041913 349.876337 
L 719.613428 346.459322 
L 777.184943 349.713441 
L 834.756458 323.531481 
L 892.327973 353.2239 
L 949.899489 98.250954 
" clip-path="url(#p60b7f3a4a7)" style="fill: none; stroke: #d9534f; stroke-linecap: square"/>
   </g>
   <g id="line2d_20">
    <path d="M 86.326761 346.621681 
L 143.898277 351.921148 
L 201.469792 352.367461 
L 259.041307 352.569843 
L 316.612822 352.694489 
L 374.184337 352.781608 
L 431.755852 352.895531 
L 489.327367 352.773566 
L 546.898883 352.886149 
L 604.470398 347.216766 
L 662.041913 348.952428 
L 719.613428 346.037319 
L 777.184943 344.894061 
L 834.756458 318.36188 
L 892.327973 353.2239 
L 949.899489 107.416569 
" clip-path="url(#p60b7f3a4a7)" style="fill: none; stroke: #d9534f; stroke-linecap: square"/>
   </g>
   <g id="line2d_21">
    <path d="M 86.326761 347.171487 
L 143.898277 351.859789 
L 201.469792 352.290213 
L 259.041307 352.446931 
L 316.612822 352.627929 
L 374.184337 352.73388 
L 431.755852 352.65221 
L 489.327367 352.78244 
L 546.898883 352.866318 
L 604.470398 345.231271 
L 662.041913 351.477927 
L 719.613428 346.829356 
L 777.184943 351.906143 
L 834.756458 336.159274 
L 892.327973 353.2239 
L 949.899489 81.355333 
" clip-path="url(#p60b7f3a4a7)" style="fill: none; stroke: #d9534f; stroke-linecap: square"/>
   </g>
   <g id="line2d_22">
    <path d="M 86.326761 346.728816 
L 143.898277 351.716354 
L 201.469792 352.235419 
L 259.041307 352.415964 
L 316.612822 352.659699 
L 374.184337 352.675496 
L 431.755852 352.718376 
L 489.327367 352.790593 
L 546.898883 352.817675 
L 604.470398 345.841891 
L 662.041913 350.132077 
L 719.613428 344.616446 
L 777.184943 349.290289 
L 834.756458 330.825112 
L 892.327973 316.568876 
L 949.899489 129.581314 
" clip-path="url(#p60b7f3a4a7)" style="fill: none; stroke: #d9534f; stroke-linecap: square"/>
   </g>
   <g id="line2d_23">
    <path d="M 86.326761 343.120628 
L 143.898277 351.01987 
L 201.469792 351.689895 
L 259.041307 352.183598 
L 316.612822 352.290861 
L 374.184337 352.421633 
L 431.755852 352.339349 
L 489.327367 352.600894 
L 546.898883 352.774278 
L 604.470398 344.134482 
L 662.041913 350.45417 
L 719.613428 345.25119 
L 777.184943 353.2239 
L 834.756458 309.019883 
L 892.327973 321.679829 
L 949.899489 149.409938 
" clip-path="url(#p60b7f3a4a7)" style="fill: none; stroke: #d9534f; stroke-linecap: square"/>
   </g>
   <g id="line2d_24">
    <path d="M 86.326761 342.789144 
L 143.898277 351.02301 
L 201.469792 351.787408 
L 259.041307 352.023939 
L 316.612822 352.445079 
L 374.184337 352.211433 
L 431.755852 352.678725 
L 489.327367 352.554691 
L 546.898883 352.717667 
L 604.470398 343.876609 
L 662.041913 349.537482 
L 719.613428 347.718791 
L 777.184943 352.374408 
L 834.756458 323.559482 
L 892.327973 257.130398 
L 949.899489 199.186133 
" clip-path="url(#p60b7f3a4a7)" style="fill: none; stroke: #d9534f; stroke-linecap: square"/>
   </g>
   <g id="line2d_25">
    <path d="M 86.326761 346.561083 
L 143.898277 351.723046 
L 201.469792 352.344701 
L 259.041307 352.504556 
L 316.612822 352.591143 
L 374.184337 352.624446 
L 431.755852 352.804282 
L 489.327367 352.975238 
L 546.898883 352.88421 
L 604.470398 345.561994 
L 662.041913 349.447342 
L 719.613428 348.192929 
L 777.184943 353.2239 
L 834.756458 333.3509 
L 892.327973 297.599038 
L 949.899489 139.225592 
" clip-path="url(#p60b7f3a4a7)" style="fill: none; stroke: #d9534f; stroke-linecap: square"/>
   </g>
   <g id="line2d_26">
    <path d="M 86.326761 347.569019 
L 143.898277 351.820028 
L 201.469792 352.359015 
L 259.041307 352.736842 
L 316.612822 352.776237 
L 374.184337 352.72968 
L 431.755852 352.872932 
L 489.327367 352.908745 
L 546.898883 352.982162 
L 604.470398 346.72204 
L 662.041913 350.500317 
L 719.613428 348.290652 
L 777.184943 349.866426 
L 834.756458 305.520911 
L 892.327973 339.487803 
L 949.899489 124.471592 
" clip-path="url(#p60b7f3a4a7)" style="fill: none; stroke: #d9534f; stroke-linecap: square"/>
   </g>
   <g id="line2d_27">
    <path d="M 86.326761 344.375223 
L 143.898277 351.003302 
L 201.469792 351.780961 
L 259.041307 351.974252 
L 316.612822 352.3923 
L 374.184337 352.468717 
L 431.755852 352.500183 
L 489.327367 352.540639 
L 546.898883 352.677741 
L 604.470398 344.087534 
L 662.041913 350.805516 
L 719.613428 348.609642 
L 777.184943 348.366905 
L 834.756458 293.647604 
L 892.327973 299.342942 
L 949.899489 187.040938 
" clip-path="url(#p60b7f3a4a7)" style="fill: none; stroke: #d9534f; stroke-linecap: square"/>
   </g>
   <g id="line2d_28">
    <path d="M 86.326761 348.535913 
L 143.898277 352.065038 
L 201.469792 352.40429 
L 259.041307 352.653476 
L 316.612822 352.751048 
L 374.184337 352.908666 
L 431.755852 352.751048 
L 489.327367 353.055775 
L 546.898883 352.926679 
L 604.470398 347.620232 
L 662.041913 349.357024 
L 719.613428 347.271973 
L 777.184943 348.932208 
L 834.756458 302.977027 
L 892.327973 353.2239 
L 949.899489 114.180103 
" clip-path="url(#p60b7f3a4a7)" style="fill: none; stroke: #d9534f; stroke-linecap: square"/>
   </g>
   <g id="line2d_29">
    <path d="M 86.326761 349.078785 
L 143.898277 352.275395 
L 201.469792 352.58421 
L 259.041307 352.915084 
L 316.612822 352.902217 
L 374.184337 352.981259 
L 431.755852 352.979421 
L 489.327367 353.003317 
L 546.898883 352.992288 
L 604.470398 348.016312 
L 662.041913 350.521763 
L 719.613428 345.488803 
L 777.184943 347.553089 
L 834.756458 333.36595 
L 892.327973 353.2239 
L 949.899489 83.732606 
" clip-path="url(#p60b7f3a4a7)" style="fill: none; stroke: #d9534f; stroke-linecap: square"/>
   </g>
   <g id="line2d_30">
    <path d="M 86.326761 343.569107 
L 143.898277 351.255953 
L 201.469792 351.900871 
L 259.041307 352.398785 
L 316.612822 352.524449 
L 374.184337 352.626403 
L 431.755852 352.775777 
L 489.327367 352.673823 
L 546.898883 352.733099 
L 604.470398 345.067591 
L 662.041913 349.513254 
L 719.613428 349.150488 
L 777.184943 342.881511 
L 834.756458 306.493468 
L 892.327973 330.855698 
L 949.899489 147.194122 
" clip-path="url(#p60b7f3a4a7)" style="fill: none; stroke: #d9534f; stroke-linecap: square"/>
   </g>
   <g id="line2d_31">
    <path d="M 86.326761 346.858755 
L 143.898277 351.924089 
L 201.469792 352.415089 
L 259.041307 352.716831 
L 316.612822 352.697191 
L 374.184337 352.806104 
L 431.755852 352.798962 
L 489.327367 352.838242 
L 546.898883 352.950725 
L 604.470398 345.801766 
L 662.041913 350.917093 
L 719.613428 345.728563 
L 777.184943 350.458231 
L 834.756458 327.620484 
L 892.327973 353.2239 
L 949.899489 91.858375 
" clip-path="url(#p60b7f3a4a7)" style="fill: none; stroke: #d9534f; stroke-linecap: square"/>
   </g>
   <g id="line2d_32">
    <path d="M 86.326761 344.607355 
L 143.898277 351.284941 
L 201.469792 352.03215 
L 259.041307 352.401025 
L 316.612822 352.703691 
L 374.184337 352.6564 
L 431.755852 352.760441 
L 489.327367 352.845567 
L 546.898883 352.798275 
L 604.470398 345.761272 
L 662.041913 349.575347 
L 719.613428 345.872408 
L 777.184943 348.532565 
L 834.756458 299.332662 
L 892.327973 329.069673 
L 949.899489 151.380629 
" clip-path="url(#p60b7f3a4a7)" style="fill: none; stroke: #d9534f; stroke-linecap: square"/>
   </g>
   <g id="line2d_33">
    <path d="M 86.326761 345.841479 
L 143.898277 351.39134 
L 201.469792 351.896442 
L 259.041307 351.863047 
L 316.612822 352.242917 
L 374.184337 352.497555 
L 431.755852 352.259614 
L 489.327367 352.539299 
L 546.898883 352.679141 
L 604.470398 344.248946 
L 662.041913 349.074549 
L 719.613428 351.009382 
L 777.184943 353.2239 
L 834.756458 339.492221 
L 892.327973 285.621626 
L 949.899489 147.732942 
" clip-path="url(#p60b7f3a4a7)" style="fill: none; stroke: #d9534f; stroke-linecap: square"/>
   </g>
   <g id="line2d_34">
    <path d="M 86.326761 347.794639 
L 143.898277 351.823593 
L 201.469792 352.397403 
L 259.041307 352.669392 
L 316.612822 352.758886 
L 374.184337 352.908041 
L 431.755852 352.904532 
L 489.327367 352.943137 
L 546.898883 353.002799 
L 604.470398 347.470006 
L 662.041913 349.831928 
L 719.613428 348.136819 
L 777.184943 351.295407 
L 834.756458 316.859782 
L 892.327973 330.683868 
L 949.899489 120.134169 
" clip-path="url(#p60b7f3a4a7)" style="fill: none; stroke: #d9534f; stroke-linecap: square"/>
   </g>
   <g id="line2d_35">
    <path d="M 86.326761 238.652434 
L 143.898277 322.328224 
L 201.469792 345.499981 
L 259.041307 342.925341 
L 316.612822 353.2239 
L 374.184337 353.2239 
L 431.755852 353.2239 
L 489.327367 353.2239 
L 546.898883 353.2239 
L 604.470398 312.029665 
L 662.041913 239.939754 
L 719.613428 353.2239 
L 777.184943 353.2239 
L 834.756458 353.2239 
L 892.327973 353.2239 
L 949.899489 353.2239 
" clip-path="url(#p60b7f3a4a7)" style="fill: none; stroke: #d9534f; stroke-linecap: square"/>
   </g>
   <g id="line2d_36">
    <path d="M 43.148125 353.2239 
L 993.078125 353.2239 
" clip-path="url(#p60b7f3a4a7)" style="fill: none; stroke: #dedede; stroke-width: 2; stroke-linecap: square"/>
   </g>
   <g id="text_25">
    <!-- FastQC: Sequence Duplication Levels -->
    <g transform="translate(369.699375 19.3575) scale(0.16 -0.16)">
     <defs>
      <path id="DejaVuSans-46" d="M 628 4666 
L 3309 4666 
L 3309 4134 
L 1259 4134 
L 1259 2759 
L 3109 2759 
L 3109 2228 
L 1259 2228 
L 1259 0 
L 628 0 
L 628 4666 
z
" transform="scale(0.015625)"/>
      <path id="DejaVuSans-73" d="M 2834 3397 
L 2834 2853 
Q 2591 2978 2328 3040 
Q 2066 3103 1784 3103 
Q 1356 3103 1142 2972 
Q 928 2841 928 2578 
Q 928 2378 1081 2264 
Q 1234 2150 1697 2047 
L 1894 2003 
Q 2506 1872 2764 1633 
Q 3022 1394 3022 966 
Q 3022 478 2636 193 
Q 2250 -91 1575 -91 
Q 1294 -91 989 -36 
Q 684 19 347 128 
L 347 722 
Q 666 556 975 473 
Q 1284 391 1588 391 
Q 1994 391 2212 530 
Q 2431 669 2431 922 
Q 2431 1156 2273 1281 
Q 2116 1406 1581 1522 
L 1381 1569 
Q 847 1681 609 1914 
Q 372 2147 372 2553 
Q 372 3047 722 3315 
Q 1072 3584 1716 3584 
Q 2034 3584 2315 3537 
Q 2597 3491 2834 3397 
z
" transform="scale(0.015625)"/>
      <path id="DejaVuSans-51" d="M 2522 4238 
Q 1834 4238 1429 3725 
Q 1025 3213 1025 2328 
Q 1025 1447 1429 934 
Q 1834 422 2522 422 
Q 3209 422 3611 934 
Q 4013 1447 4013 2328 
Q 4013 3213 3611 3725 
Q 3209 4238 2522 4238 
z
M 3406 84 
L 4238 -825 
L 3475 -825 
L 2784 -78 
Q 2681 -84 2626 -87 
Q 2572 -91 2522 -91 
Q 1538 -91 948 567 
Q 359 1225 359 2328 
Q 359 3434 948 4092 
Q 1538 4750 2522 4750 
Q 3503 4750 4090 4092 
Q 4678 3434 4678 2328 
Q 4678 1516 4351 937 
Q 4025 359 3406 84 
z
" transform="scale(0.015625)"/>
      <path id="DejaVuSans-43" d="M 4122 4306 
L 4122 3641 
Q 3803 3938 3442 4084 
Q 3081 4231 2675 4231 
Q 1875 4231 1450 3742 
Q 1025 3253 1025 2328 
Q 1025 1406 1450 917 
Q 1875 428 2675 428 
Q 3081 428 3442 575 
Q 3803 722 4122 1019 
L 4122 359 
Q 3791 134 3420 21 
Q 3050 -91 2638 -91 
Q 1578 -91 968 557 
Q 359 1206 359 2328 
Q 359 3453 968 4101 
Q 1578 4750 2638 4750 
Q 3056 4750 3426 4639 
Q 3797 4528 4122 4306 
z
" transform="scale(0.015625)"/>
      <path id="DejaVuSans-3a" d="M 750 794 
L 1409 794 
L 1409 0 
L 750 0 
L 750 794 
z
M 750 3309 
L 1409 3309 
L 1409 2516 
L 750 2516 
L 750 3309 
z
" transform="scale(0.015625)"/>
     </defs>
     <use xlink:href="#DejaVuSans-46"/>
     <use xlink:href="#DejaVuSans-61" x="48.394531"/>
     <use xlink:href="#DejaVuSans-73" x="109.673828"/>
     <use xlink:href="#DejaVuSans-74" x="161.773438"/>
     <use xlink:href="#DejaVuSans-51" x="200.982422"/>
     <use xlink:href="#DejaVuSans-43" x="279.693359"/>
     <use xlink:href="#DejaVuSans-3a" x="349.517578"/>
     <use xlink:href="#DejaVuSans-20" x="383.208984"/>
     <use xlink:href="#DejaVuSans-53" x="414.996094"/>
     <use xlink:href="#DejaVuSans-65" x="478.472656"/>
     <use xlink:href="#DejaVuSans-71" x="539.996094"/>
     <use xlink:href="#DejaVuSans-75" x="603.472656"/>
     <use xlink:href="#DejaVuSans-65" x="666.851562"/>
     <use xlink:href="#DejaVuSans-6e" x="728.375"/>
     <use xlink:href="#DejaVuSans-63" x="791.753906"/>
     <use xlink:href="#DejaVuSans-65" x="846.734375"/>
     <use xlink:href="#DejaVuSans-20" x="908.257812"/>
     <use xlink:href="#DejaVuSans-44" x="940.044922"/>
     <use xlink:href="#DejaVuSans-75" x="1017.046875"/>
     <use xlink:href="#DejaVuSans-70" x="1080.425781"/>
     <use xlink:href="#DejaVuSans-6c" x="1143.902344"/>
     <use xlink:href="#DejaVuSans-69" x="1171.685547"/>
     <use xlink:href="#DejaVuSans-63" x="1199.46875"/>
     <use xlink:href="#DejaVuSans-61" x="1254.449219"/>
     <use xlink:href="#DejaVuSans-74" x="1315.728516"/>
     <use xlink:href="#DejaVuSans-69" x="1354.9375"/>
     <use xlink:href="#DejaVuSans-6f" x="1382.720703"/>
     <use xlink:href="#DejaVuSans-6e" x="1443.902344"/>
     <use xlink:href="#DejaVuSans-20" x="1507.28125"/>
     <use xlink:href="#DejaVuSans-4c" x="1539.068359"/>
     <use xlink:href="#DejaVuSans-65" x="1593.03125"/>
     <use xlink:href="#DejaVuSans-76" x="1654.554688"/>
     <use xlink:href="#DejaVuSans-65" x="1713.734375"/>
     <use xlink:href="#DejaVuSans-6c" x="1775.257812"/>
     <use xlink:href="#DejaVuSans-73" x="1803.041016"/>
    </g>
   </g>
  </g>
 </g>
 <defs>
  <clipPath id="p60b7f3a4a7">
   <rect x="43.148125" y="35.2559" width="949.93" height="317.968"/>
  </clipPath>
 </defs>
</svg>
