<?xml version="1.0" encoding="utf-8" standalone="no"?>
<!DOCTYPE svg PUBLIC "-//W3C//DTD SVG 1.1//EN"
  "http://www.w3.org/Graphics/SVG/1.1/DTD/svg11.dtd">
<svg xmlns:xlink="http://www.w3.org/1999/xlink" width="1000.318125pt" height="388.844525pt" viewBox="0 0 1000.318125 388.844525" xmlns="http://www.w3.org/2000/svg" version="1.1">
 <metadata>
  <rdf:RDF xmlns:dc="http://purl.org/dc/elements/1.1/" xmlns:cc="http://creativecommons.org/ns#" xmlns:rdf="http://www.w3.org/1999/02/22-rdf-syntax-ns#">
   <cc:Work>
    <dc:type rdf:resource="http://purl.org/dc/dcmitype/StillImage"/>
    <dc:date>2024-06-28T13:31:34.922542</dc:date>
    <dc:format>image/svg+xml</dc:format>
    <dc:creator>
     <cc:Agent>
      <dc:title>Matplotlib v3.7.1, https://matplotlib.org/</dc:title>
     </cc:Agent>
    </dc:creator>
   </cc:Work>
  </rdf:RDF>
 </metadata>
 <defs>
  <style type="text/css">*{stroke-linejoin: round; stroke-linecap: butt}</style>
 </defs>
 <g id="figure_1">
  <g id="axes_1">
   <g id="patch_1">
    <path d="M 38.058125 353.2239 
L 993.118125 353.2239 
L 993.118125 35.2559 
L 38.058125 35.2559 
z
" style="fill: #ffffff"/>
   </g>
   <g id="patch_2">
    <path d="M 38.058125 131.294132 
L 953.250129 131.294132 
L 953.250129 -439.382414 
L 38.058125 -439.382414 
z
" clip-path="url(#p3384e904f1)" style="fill: #c3e6c3"/>
   </g>
   <g id="patch_3">
    <path d="M 38.058125 194.702637 
L 953.250129 194.702637 
L 953.250129 131.294132 
L 38.058125 131.294132 
z
" clip-path="url(#p3384e904f1)" style="fill: #e6dcc3"/>
   </g>
   <g id="patch_4">
    <path d="M 38.058125 353.2239 
L 953.250129 353.2239 
L 953.250129 194.702637 
L 38.058125 194.702637 
z
" clip-path="url(#p3384e904f1)" style="fill: #e6c3c3"/>
   </g>
   <g id="matplotlib.axis_1">
    <g id="xtick_1">
     <g id="text_1">
      <!-- 0 -->
      <g transform="translate(75.381121 366.30265) scale(0.08 -0.08)">
       <defs>
        <path id="DejaVuSans-30" d="M 2034 4250 
Q 1547 4250 1301 3770 
Q 1056 3291 1056 2328 
Q 1056 1369 1301 889 
Q 1547 409 2034 409 
Q 2525 409 2770 889 
Q 3016 1369 3016 2328 
Q 3016 3291 2770 3770 
Q 2525 4250 2034 4250 
z
M 2034 4750 
Q 2819 4750 3233 4129 
Q 3647 3509 3647 2328 
Q 3647 1150 3233 529 
Q 2819 -91 2034 -91 
Q 1250 -91 836 529 
Q 422 1150 422 2328 
Q 422 3509 836 4129 
Q 1250 4750 2034 4750 
z
" transform="scale(0.015625)"/>
       </defs>
       <use xlink:href="#DejaVuSans-30"/>
      </g>
     </g>
    </g>
    <g id="xtick_2">
     <g id="text_2">
      <!-- 50 -->
      <g transform="translate(250.027216 366.30265) scale(0.08 -0.08)">
       <defs>
        <path id="DejaVuSans-35" d="M 691 4666 
L 3169 4666 
L 3169 4134 
L 1269 4134 
L 1269 2991 
Q 1406 3038 1543 3061 
Q 1681 3084 1819 3084 
Q 2600 3084 3056 2656 
Q 3513 2228 3513 1497 
Q 3513 744 3044 326 
Q 2575 -91 1722 -91 
Q 1428 -91 1123 -41 
Q 819 9 494 109 
L 494 744 
Q 775 591 1075 516 
Q 1375 441 1709 441 
Q 2250 441 2565 725 
Q 2881 1009 2881 1497 
Q 2881 1984 2565 2268 
Q 2250 2553 1709 2553 
Q 1456 2553 1204 2497 
Q 953 2441 691 2322 
L 691 4666 
z
" transform="scale(0.015625)"/>
       </defs>
       <use xlink:href="#DejaVuSans-35"/>
       <use xlink:href="#DejaVuSans-30" x="63.623047"/>
      </g>
     </g>
    </g>
    <g id="xtick_3">
     <g id="text_3">
      <!-- 100 -->
      <g transform="translate(424.673311 366.30265) scale(0.08 -0.08)">
       <defs>
        <path id="DejaVuSans-31" d="M 794 531 
L 1825 531 
L 1825 4091 
L 703 3866 
L 703 4441 
L 1819 4666 
L 2450 4666 
L 2450 531 
L 3481 531 
L 3481 0 
L 794 0 
L 794 531 
z
" transform="scale(0.015625)"/>
       </defs>
       <use xlink:href="#DejaVuSans-31"/>
       <use xlink:href="#DejaVuSans-30" x="63.623047"/>
       <use xlink:href="#DejaVuSans-30" x="127.246094"/>
      </g>
     </g>
    </g>
    <g id="xtick_4">
     <g id="text_4">
      <!-- 150 -->
      <g transform="translate(601.864405 366.30265) scale(0.08 -0.08)">
       <use xlink:href="#DejaVuSans-31"/>
       <use xlink:href="#DejaVuSans-35" x="63.623047"/>
       <use xlink:href="#DejaVuSans-30" x="127.246094"/>
      </g>
     </g>
    </g>
    <g id="xtick_5">
     <g id="text_5">
      <!-- 200 -->
      <g transform="translate(779.0555 366.30265) scale(0.08 -0.08)">
       <defs>
        <path id="DejaVuSans-32" d="M 1228 531 
L 3431 531 
L 3431 0 
L 469 0 
L 469 531 
Q 828 903 1448 1529 
Q 2069 2156 2228 2338 
Q 2531 2678 2651 2914 
Q 2772 3150 2772 3378 
Q 2772 3750 2511 3984 
Q 2250 4219 1831 4219 
Q 1534 4219 1204 4116 
Q 875 4013 500 3803 
L 500 4441 
Q 881 4594 1212 4672 
Q 1544 4750 1819 4750 
Q 2544 4750 2975 4387 
Q 3406 4025 3406 3419 
Q 3406 3131 3298 2873 
Q 3191 2616 2906 2266 
Q 2828 2175 2409 1742 
Q 1991 1309 1228 531 
z
" transform="scale(0.015625)"/>
       </defs>
       <use xlink:href="#DejaVuSans-32"/>
       <use xlink:href="#DejaVuSans-30" x="63.623047"/>
       <use xlink:href="#DejaVuSans-30" x="127.246094"/>
      </g>
     </g>
    </g>
    <g id="xtick_6">
     <g id="text_6">
      <!-- 250 -->
      <g transform="translate(956.246594 366.30265) scale(0.08 -0.08)">
       <use xlink:href="#DejaVuSans-32"/>
       <use xlink:href="#DejaVuSans-35" x="63.623047"/>
       <use xlink:href="#DejaVuSans-30" x="127.246094"/>
      </g>
     </g>
    </g>
    <g id="text_7">
     <!-- Position (bp) -->
     <g transform="translate(484.285 379.564837) scale(0.1 -0.1)">
      <defs>
       <path id="DejaVuSans-50" d="M 1259 4147 
L 1259 2394 
L 2053 2394 
Q 2494 2394 2734 2622 
Q 2975 2850 2975 3272 
Q 2975 3691 2734 3919 
Q 2494 4147 2053 4147 
L 1259 4147 
z
M 628 4666 
L 2053 4666 
Q 2838 4666 3239 4311 
Q 3641 3956 3641 3272 
Q 3641 2581 3239 2228 
Q 2838 1875 2053 1875 
L 1259 1875 
L 1259 0 
L 628 0 
L 628 4666 
z
" transform="scale(0.015625)"/>
       <path id="DejaVuSans-6f" d="M 1959 3097 
Q 1497 3097 1228 2736 
Q 959 2375 959 1747 
Q 959 1119 1226 758 
Q 1494 397 1959 397 
Q 2419 397 2687 759 
Q 2956 1122 2956 1747 
Q 2956 2369 2687 2733 
Q 2419 3097 1959 3097 
z
M 1959 3584 
Q 2709 3584 3137 3096 
Q 3566 2609 3566 1747 
Q 3566 888 3137 398 
Q 2709 -91 1959 -91 
Q 1206 -91 779 398 
Q 353 888 353 1747 
Q 353 2609 779 3096 
Q 1206 3584 1959 3584 
z
" transform="scale(0.015625)"/>
       <path id="DejaVuSans-73" d="M 2834 3397 
L 2834 2853 
Q 2591 2978 2328 3040 
Q 2066 3103 1784 3103 
Q 1356 3103 1142 2972 
Q 928 2841 928 2578 
Q 928 2378 1081 2264 
Q 1234 2150 1697 2047 
L 1894 2003 
Q 2506 1872 2764 1633 
Q 3022 1394 3022 966 
Q 3022 478 2636 193 
Q 2250 -91 1575 -91 
Q 1294 -91 989 -36 
Q 684 19 347 128 
L 347 722 
Q 666 556 975 473 
Q 1284 391 1588 391 
Q 1994 391 2212 530 
Q 2431 669 2431 922 
Q 2431 1156 2273 1281 
Q 2116 1406 1581 1522 
L 1381 1569 
Q 847 1681 609 1914 
Q 372 2147 372 2553 
Q 372 3047 722 3315 
Q 1072 3584 1716 3584 
Q 2034 3584 2315 3537 
Q 2597 3491 2834 3397 
z
" transform="scale(0.015625)"/>
       <path id="DejaVuSans-69" d="M 603 3500 
L 1178 3500 
L 1178 0 
L 603 0 
L 603 3500 
z
M 603 4863 
L 1178 4863 
L 1178 4134 
L 603 4134 
L 603 4863 
z
" transform="scale(0.015625)"/>
       <path id="DejaVuSans-74" d="M 1172 4494 
L 1172 3500 
L 2356 3500 
L 2356 3053 
L 1172 3053 
L 1172 1153 
Q 1172 725 1289 603 
Q 1406 481 1766 481 
L 2356 481 
L 2356 0 
L 1766 0 
Q 1100 0 847 248 
Q 594 497 594 1153 
L 594 3053 
L 172 3053 
L 172 3500 
L 594 3500 
L 594 4494 
L 1172 4494 
z
" transform="scale(0.015625)"/>
       <path id="DejaVuSans-6e" d="M 3513 2113 
L 3513 0 
L 2938 0 
L 2938 2094 
Q 2938 2591 2744 2837 
Q 2550 3084 2163 3084 
Q 1697 3084 1428 2787 
Q 1159 2491 1159 1978 
L 1159 0 
L 581 0 
L 581 3500 
L 1159 3500 
L 1159 2956 
Q 1366 3272 1645 3428 
Q 1925 3584 2291 3584 
Q 2894 3584 3203 3211 
Q 3513 2838 3513 2113 
z
" transform="scale(0.015625)"/>
       <path id="DejaVuSans-20" transform="scale(0.015625)"/>
       <path id="DejaVuSans-28" d="M 1984 4856 
Q 1566 4138 1362 3434 
Q 1159 2731 1159 2009 
Q 1159 1288 1364 580 
Q 1569 -128 1984 -844 
L 1484 -844 
Q 1016 -109 783 600 
Q 550 1309 550 2009 
Q 550 2706 781 3412 
Q 1013 4119 1484 4856 
L 1984 4856 
z
" transform="scale(0.015625)"/>
       <path id="DejaVuSans-62" d="M 3116 1747 
Q 3116 2381 2855 2742 
Q 2594 3103 2138 3103 
Q 1681 3103 1420 2742 
Q 1159 2381 1159 1747 
Q 1159 1113 1420 752 
Q 1681 391 2138 391 
Q 2594 391 2855 752 
Q 3116 1113 3116 1747 
z
M 1159 2969 
Q 1341 3281 1617 3432 
Q 1894 3584 2278 3584 
Q 2916 3584 3314 3078 
Q 3713 2572 3713 1747 
Q 3713 922 3314 415 
Q 2916 -91 2278 -91 
Q 1894 -91 1617 61 
Q 1341 213 1159 525 
L 1159 0 
L 581 0 
L 581 4863 
L 1159 4863 
L 1159 2969 
z
" transform="scale(0.015625)"/>
       <path id="DejaVuSans-70" d="M 1159 525 
L 1159 -1331 
L 581 -1331 
L 581 3500 
L 1159 3500 
L 1159 2969 
Q 1341 3281 1617 3432 
Q 1894 3584 2278 3584 
Q 2916 3584 3314 3078 
Q 3713 2572 3713 1747 
Q 3713 922 3314 415 
Q 2916 -91 2278 -91 
Q 1894 -91 1617 61 
Q 1341 213 1159 525 
z
M 3116 1747 
Q 3116 2381 2855 2742 
Q 2594 3103 2138 3103 
Q 1681 3103 1420 2742 
Q 1159 2381 1159 1747 
Q 1159 1113 1420 752 
Q 1681 391 2138 391 
Q 2594 391 2855 752 
Q 3116 1113 3116 1747 
z
" transform="scale(0.015625)"/>
       <path id="DejaVuSans-29" d="M 513 4856 
L 1013 4856 
Q 1481 4119 1714 3412 
Q 1947 2706 1947 2009 
Q 1947 1309 1714 600 
Q 1481 -109 1013 -844 
L 513 -844 
Q 928 -128 1133 580 
Q 1338 1288 1338 2009 
Q 1338 2731 1133 3434 
Q 928 4138 513 4856 
z
" transform="scale(0.015625)"/>
      </defs>
      <use xlink:href="#DejaVuSans-50"/>
      <use xlink:href="#DejaVuSans-6f" x="56.677734"/>
      <use xlink:href="#DejaVuSans-73" x="117.859375"/>
      <use xlink:href="#DejaVuSans-69" x="169.958984"/>
      <use xlink:href="#DejaVuSans-74" x="197.742188"/>
      <use xlink:href="#DejaVuSans-69" x="236.951172"/>
      <use xlink:href="#DejaVuSans-6f" x="264.734375"/>
      <use xlink:href="#DejaVuSans-6e" x="325.916016"/>
      <use xlink:href="#DejaVuSans-20" x="389.294922"/>
      <use xlink:href="#DejaVuSans-28" x="421.082031"/>
      <use xlink:href="#DejaVuSans-62" x="460.095703"/>
      <use xlink:href="#DejaVuSans-70" x="523.572266"/>
      <use xlink:href="#DejaVuSans-29" x="587.048828"/>
     </g>
    </g>
   </g>
   <g id="matplotlib.axis_2">
    <g id="ytick_1">
     <g id="line2d_1">
      <path d="M 38.058125 353.2239 
L 993.118125 353.2239 
" clip-path="url(#p3384e904f1)" style="fill: none; stroke: #dedede; stroke-linecap: square"/>
     </g>
     <g id="text_8">
      <!-- 0 -->
      <g transform="translate(25.968125 356.263275) scale(0.08 -0.08)">
       <use xlink:href="#DejaVuSans-30"/>
      </g>
     </g>
    </g>
    <g id="ytick_2">
     <g id="line2d_2">
      <path d="M 38.058125 313.593584 
L 993.118125 313.593584 
" clip-path="url(#p3384e904f1)" style="fill: none; stroke: #dedede; stroke-linecap: square"/>
     </g>
     <g id="text_9">
      <!-- 5 -->
      <g transform="translate(25.968125 316.632959) scale(0.08 -0.08)">
       <use xlink:href="#DejaVuSans-35"/>
      </g>
     </g>
    </g>
    <g id="ytick_3">
     <g id="line2d_3">
      <path d="M 38.058125 273.963269 
L 993.118125 273.963269 
" clip-path="url(#p3384e904f1)" style="fill: none; stroke: #dedede; stroke-linecap: square"/>
     </g>
     <g id="text_10">
      <!-- 10 -->
      <g transform="translate(20.878125 277.002644) scale(0.08 -0.08)">
       <use xlink:href="#DejaVuSans-31"/>
       <use xlink:href="#DejaVuSans-30" x="63.623047"/>
      </g>
     </g>
    </g>
    <g id="ytick_4">
     <g id="line2d_4">
      <path d="M 38.058125 234.332953 
L 993.118125 234.332953 
" clip-path="url(#p3384e904f1)" style="fill: none; stroke: #dedede; stroke-linecap: square"/>
     </g>
     <g id="text_11">
      <!-- 15 -->
      <g transform="translate(20.878125 237.372328) scale(0.08 -0.08)">
       <use xlink:href="#DejaVuSans-31"/>
       <use xlink:href="#DejaVuSans-35" x="63.623047"/>
      </g>
     </g>
    </g>
    <g id="ytick_5">
     <g id="line2d_5">
      <path d="M 38.058125 194.702637 
L 993.118125 194.702637 
" clip-path="url(#p3384e904f1)" style="fill: none; stroke: #dedede; stroke-linecap: square"/>
     </g>
     <g id="text_12">
      <!-- 20 -->
      <g transform="translate(20.878125 197.742012) scale(0.08 -0.08)">
       <use xlink:href="#DejaVuSans-32"/>
       <use xlink:href="#DejaVuSans-30" x="63.623047"/>
      </g>
     </g>
    </g>
    <g id="ytick_6">
     <g id="line2d_6">
      <path d="M 38.058125 155.072321 
L 993.118125 155.072321 
" clip-path="url(#p3384e904f1)" style="fill: none; stroke: #dedede; stroke-linecap: square"/>
     </g>
     <g id="text_13">
      <!-- 25 -->
      <g transform="translate(20.878125 158.111696) scale(0.08 -0.08)">
       <use xlink:href="#DejaVuSans-32"/>
       <use xlink:href="#DejaVuSans-35" x="63.623047"/>
      </g>
     </g>
    </g>
    <g id="ytick_7">
     <g id="line2d_7">
      <path d="M 38.058125 115.442006 
L 993.118125 115.442006 
" clip-path="url(#p3384e904f1)" style="fill: none; stroke: #dedede; stroke-linecap: square"/>
     </g>
     <g id="text_14">
      <!-- 30 -->
      <g transform="translate(20.878125 118.481381) scale(0.08 -0.08)">
       <defs>
        <path id="DejaVuSans-33" d="M 2597 2516 
Q 3050 2419 3304 2112 
Q 3559 1806 3559 1356 
Q 3559 666 3084 287 
Q 2609 -91 1734 -91 
Q 1441 -91 1130 -33 
Q 819 25 488 141 
L 488 750 
Q 750 597 1062 519 
Q 1375 441 1716 441 
Q 2309 441 2620 675 
Q 2931 909 2931 1356 
Q 2931 1769 2642 2001 
Q 2353 2234 1838 2234 
L 1294 2234 
L 1294 2753 
L 1863 2753 
Q 2328 2753 2575 2939 
Q 2822 3125 2822 3475 
Q 2822 3834 2567 4026 
Q 2313 4219 1838 4219 
Q 1578 4219 1281 4162 
Q 984 4106 628 3988 
L 628 4550 
Q 988 4650 1302 4700 
Q 1616 4750 1894 4750 
Q 2613 4750 3031 4423 
Q 3450 4097 3450 3541 
Q 3450 3153 3228 2886 
Q 3006 2619 2597 2516 
z
" transform="scale(0.015625)"/>
       </defs>
       <use xlink:href="#DejaVuSans-33"/>
       <use xlink:href="#DejaVuSans-30" x="63.623047"/>
      </g>
     </g>
    </g>
    <g id="ytick_8">
     <g id="line2d_8">
      <path d="M 38.058125 75.81169 
L 993.118125 75.81169 
" clip-path="url(#p3384e904f1)" style="fill: none; stroke: #dedede; stroke-linecap: square"/>
     </g>
     <g id="text_15">
      <!-- 35 -->
      <g transform="translate(20.878125 78.851065) scale(0.08 -0.08)">
       <use xlink:href="#DejaVuSans-33"/>
       <use xlink:href="#DejaVuSans-35" x="63.623047"/>
      </g>
     </g>
    </g>
    <g id="ytick_9">
     <g id="line2d_9">
      <path d="M 38.058125 36.181374 
L 993.118125 36.181374 
" clip-path="url(#p3384e904f1)" style="fill: none; stroke: #dedede; stroke-linecap: square"/>
     </g>
     <g id="text_16">
      <!-- 40 -->
      <g transform="translate(20.878125 39.220749) scale(0.08 -0.08)">
       <defs>
        <path id="DejaVuSans-34" d="M 2419 4116 
L 825 1625 
L 2419 1625 
L 2419 4116 
z
M 2253 4666 
L 3047 4666 
L 3047 1625 
L 3713 1625 
L 3713 1100 
L 3047 1100 
L 3047 0 
L 2419 0 
L 2419 1100 
L 313 1100 
L 313 1709 
L 2253 4666 
z
" transform="scale(0.015625)"/>
       </defs>
       <use xlink:href="#DejaVuSans-34"/>
       <use xlink:href="#DejaVuSans-30" x="63.623047"/>
      </g>
     </g>
    </g>
    <g id="text_17">
     <!-- Phred Score -->
     <g transform="translate(14.798438 224.20865) rotate(-90) scale(0.1 -0.1)">
      <defs>
       <path id="DejaVuSans-68" d="M 3513 2113 
L 3513 0 
L 2938 0 
L 2938 2094 
Q 2938 2591 2744 2837 
Q 2550 3084 2163 3084 
Q 1697 3084 1428 2787 
Q 1159 2491 1159 1978 
L 1159 0 
L 581 0 
L 581 4863 
L 1159 4863 
L 1159 2956 
Q 1366 3272 1645 3428 
Q 1925 3584 2291 3584 
Q 2894 3584 3203 3211 
Q 3513 2838 3513 2113 
z
" transform="scale(0.015625)"/>
       <path id="DejaVuSans-72" d="M 2631 2963 
Q 2534 3019 2420 3045 
Q 2306 3072 2169 3072 
Q 1681 3072 1420 2755 
Q 1159 2438 1159 1844 
L 1159 0 
L 581 0 
L 581 3500 
L 1159 3500 
L 1159 2956 
Q 1341 3275 1631 3429 
Q 1922 3584 2338 3584 
Q 2397 3584 2469 3576 
Q 2541 3569 2628 3553 
L 2631 2963 
z
" transform="scale(0.015625)"/>
       <path id="DejaVuSans-65" d="M 3597 1894 
L 3597 1613 
L 953 1613 
Q 991 1019 1311 708 
Q 1631 397 2203 397 
Q 2534 397 2845 478 
Q 3156 559 3463 722 
L 3463 178 
Q 3153 47 2828 -22 
Q 2503 -91 2169 -91 
Q 1331 -91 842 396 
Q 353 884 353 1716 
Q 353 2575 817 3079 
Q 1281 3584 2069 3584 
Q 2775 3584 3186 3129 
Q 3597 2675 3597 1894 
z
M 3022 2063 
Q 3016 2534 2758 2815 
Q 2500 3097 2075 3097 
Q 1594 3097 1305 2825 
Q 1016 2553 972 2059 
L 3022 2063 
z
" transform="scale(0.015625)"/>
       <path id="DejaVuSans-64" d="M 2906 2969 
L 2906 4863 
L 3481 4863 
L 3481 0 
L 2906 0 
L 2906 525 
Q 2725 213 2448 61 
Q 2172 -91 1784 -91 
Q 1150 -91 751 415 
Q 353 922 353 1747 
Q 353 2572 751 3078 
Q 1150 3584 1784 3584 
Q 2172 3584 2448 3432 
Q 2725 3281 2906 2969 
z
M 947 1747 
Q 947 1113 1208 752 
Q 1469 391 1925 391 
Q 2381 391 2643 752 
Q 2906 1113 2906 1747 
Q 2906 2381 2643 2742 
Q 2381 3103 1925 3103 
Q 1469 3103 1208 2742 
Q 947 2381 947 1747 
z
" transform="scale(0.015625)"/>
       <path id="DejaVuSans-53" d="M 3425 4513 
L 3425 3897 
Q 3066 4069 2747 4153 
Q 2428 4238 2131 4238 
Q 1616 4238 1336 4038 
Q 1056 3838 1056 3469 
Q 1056 3159 1242 3001 
Q 1428 2844 1947 2747 
L 2328 2669 
Q 3034 2534 3370 2195 
Q 3706 1856 3706 1288 
Q 3706 609 3251 259 
Q 2797 -91 1919 -91 
Q 1588 -91 1214 -16 
Q 841 59 441 206 
L 441 856 
Q 825 641 1194 531 
Q 1563 422 1919 422 
Q 2459 422 2753 634 
Q 3047 847 3047 1241 
Q 3047 1584 2836 1778 
Q 2625 1972 2144 2069 
L 1759 2144 
Q 1053 2284 737 2584 
Q 422 2884 422 3419 
Q 422 4038 858 4394 
Q 1294 4750 2059 4750 
Q 2388 4750 2728 4690 
Q 3069 4631 3425 4513 
z
" transform="scale(0.015625)"/>
       <path id="DejaVuSans-63" d="M 3122 3366 
L 3122 2828 
Q 2878 2963 2633 3030 
Q 2388 3097 2138 3097 
Q 1578 3097 1268 2742 
Q 959 2388 959 1747 
Q 959 1106 1268 751 
Q 1578 397 2138 397 
Q 2388 397 2633 464 
Q 2878 531 3122 666 
L 3122 134 
Q 2881 22 2623 -34 
Q 2366 -91 2075 -91 
Q 1284 -91 818 406 
Q 353 903 353 1747 
Q 353 2603 823 3093 
Q 1294 3584 2113 3584 
Q 2378 3584 2631 3529 
Q 2884 3475 3122 3366 
z
" transform="scale(0.015625)"/>
      </defs>
      <use xlink:href="#DejaVuSans-50"/>
      <use xlink:href="#DejaVuSans-68" x="60.302734"/>
      <use xlink:href="#DejaVuSans-72" x="123.681641"/>
      <use xlink:href="#DejaVuSans-65" x="162.544922"/>
      <use xlink:href="#DejaVuSans-64" x="224.068359"/>
      <use xlink:href="#DejaVuSans-20" x="287.544922"/>
      <use xlink:href="#DejaVuSans-53" x="319.332031"/>
      <use xlink:href="#DejaVuSans-63" x="382.808594"/>
      <use xlink:href="#DejaVuSans-6f" x="437.789062"/>
      <use xlink:href="#DejaVuSans-72" x="498.970703"/>
      <use xlink:href="#DejaVuSans-65" x="537.833984"/>
     </g>
    </g>
   </g>
   <g id="line2d_10">
    <path d="M 81.469943 61.768774 
L 85.013765 65.55232 
L 88.557587 51.495045 
L 92.101409 49.168918 
L 95.645231 60.289816 
L 99.189053 58.272404 
L 102.732875 63.348243 
L 106.276696 62.285691 
L 109.820518 68.065112 
L 120.451984 63.773264 
L 138.171093 66.421028 
L 155.890203 67.136097 
L 173.609312 64.244233 
L 191.328422 63.911108 
L 209.047531 78.265611 
L 226.766641 60.26397 
L 244.48575 61.954002 
L 262.20486 75.218671 
L 279.923969 71.139333 
L 297.643079 74.815189 
L 315.362188 75.948099 
L 333.081298 69.914527 
L 350.800407 67.005432 
L 368.519516 68.719874 
L 386.238626 66.649333 
L 403.957735 66.077853 
L 421.676845 71.268562 
L 439.395954 69.915707 
L 457.115064 78.217534 
L 474.834173 71.58781 
L 492.553283 68.338339 
L 510.272392 69.397543 
L 527.991502 73.605614 
L 545.710611 71.412473 
L 563.429721 80.859076 
L 581.14883 72.605335 
L 598.867939 88.339612 
L 616.587049 94.045228 
L 634.306158 82.631122 
L 652.025268 90.571557 
L 669.744377 83.186688 
L 687.463487 95.54961 
L 705.182596 94.408006 
L 722.901706 105.817386 
L 740.620815 91.03005 
L 758.339925 104.130005 
L 776.059034 86.419684 
L 793.778144 109.68224 
L 811.497253 107.263713 
L 829.216362 108.828173 
L 846.935472 102.568738 
L 864.654581 109.043685 
L 882.373691 88.528512 
L 893.005157 111.83925 
" clip-path="url(#p3384e904f1)" style="fill: none; stroke: #5cb85c; stroke-linecap: square"/>
   </g>
   <g id="line2d_11">
    <path d="M 81.469943 54.063346 
L 85.013765 63.149321 
L 88.557587 61.409453 
L 92.101409 56.576488 
L 95.645231 72.235296 
L 99.189053 72.815251 
L 102.732875 72.621933 
L 106.276696 73.395207 
L 109.820518 79.098106 
L 120.451984 77.377571 
L 138.171093 76.584964 
L 155.890203 74.729106 
L 173.609312 67.479658 
L 191.328422 81.011961 
L 209.047531 89.363325 
L 226.766641 73.298548 
L 244.48575 73.53053 
L 262.20486 72.931243 
L 279.923969 88.628714 
L 297.643079 94.138295 
L 315.362188 84.298377 
L 333.081298 75.309062 
L 350.800407 91.39317 
L 368.519516 94.776246 
L 386.238626 103.823557 
L 403.957735 98.758609 
L 421.676845 79.504075 
L 439.395954 97.21206 
L 457.115064 107.341956 
L 474.834173 111.073005 
L 492.553283 106.588013 
L 510.272392 92.069785 
L 527.991502 97.656693 
L 545.710611 96.844755 
L 563.429721 87.314147 
L 581.14883 96.728764 
L 598.867939 105.776075 
L 616.587049 100.575804 
L 634.306158 119.63702 
L 652.025268 113.296169 
L 669.744377 112.05661 
L 687.463487 209.709705 
L 705.182596 216.697462 
L 722.901706 214.220568 
L 740.620815 191.928515 
L 758.339925 204.015761 
L 776.059034 219.966963 
L 793.778144 212.734431 
L 811.497253 212.239052 
L 829.216362 213.626113 
L 846.935472 224.326298 
L 864.654581 222.047555 
L 882.373691 217.589144 
" clip-path="url(#p3384e904f1)" style="fill: none; stroke: #5cb85c; stroke-linecap: square"/>
   </g>
   <g id="line2d_12">
    <path d="M 81.469943 62.090774 
L 85.013765 65.310876 
L 88.557587 50.676268 
L 92.101409 46.87291 
L 95.645231 59.708963 
L 99.189053 57.304976 
L 102.732875 61.840174 
L 106.276696 61.137163 
L 109.820518 72.063775 
L 120.451984 64.783507 
L 138.171093 64.1111 
L 155.890203 61.757676 
L 173.609312 64.197147 
L 191.328422 70.263446 
L 209.047531 83.792309 
L 226.766641 58.881317 
L 244.48575 65.672361 
L 262.20486 78.892077 
L 279.923969 69.169591 
L 297.643079 72.281897 
L 315.362188 75.969634 
L 333.081298 72.820505 
L 350.800407 62.658374 
L 368.519516 72.118628 
L 386.238626 66.503169 
L 403.957735 65.457008 
L 421.676845 68.402939 
L 439.395954 66.002715 
L 457.115064 73.084485 
L 474.834173 67.247638 
L 492.553283 64.07455 
L 510.272392 88.099861 
L 527.991502 83.165426 
L 545.710611 72.434073 
L 563.429721 77.354311 
L 581.14883 93.92961 
L 598.867939 91.554675 
L 616.587049 92.267643 
L 634.306158 76.888907 
L 652.025268 90.195287 
L 669.744377 83.742753 
L 687.463487 94.326491 
L 705.182596 97.927259 
L 722.901706 114.953236 
L 740.620815 89.573042 
L 758.339925 102.230236 
L 776.059034 86.556464 
L 793.778144 97.594408 
L 811.497253 104.86787 
L 829.216362 105.053031 
L 846.935472 95.602114 
L 864.654581 96.994316 
L 882.373691 96.812411 
L 893.005157 91.23538 
" clip-path="url(#p3384e904f1)" style="fill: none; stroke: #5cb85c; stroke-linecap: square"/>
   </g>
   <g id="line2d_13">
    <path d="M 81.469943 58.935409 
L 85.013765 58.000312 
L 88.557587 48.693867 
L 92.101409 53.19124 
L 95.645231 61.473531 
L 99.189053 60.983718 
L 102.732875 67.79657 
L 106.276696 69.488651 
L 109.820518 72.383 
L 120.451984 73.033115 
L 138.171093 73.549645 
L 155.890203 97.995761 
L 173.609312 87.406897 
L 191.328422 111.167275 
L 209.047531 98.806179 
L 226.766641 86.703348 
L 244.48575 101.388829 
L 262.20486 89.143506 
L 279.923969 100.177655 
L 297.643079 108.531191 
L 315.362188 101.932076 
L 333.081298 100.801053 
L 350.800407 122.726859 
L 368.519516 119.262546 
L 386.238626 120.883382 
L 403.957735 118.870696 
L 421.676845 117.82873 
L 439.395954 134.446746 
L 457.115064 136.584111 
L 474.834173 140.662917 
L 492.553283 140.885559 
L 510.272392 139.344875 
L 527.991502 120.972439 
L 545.710611 134.767351 
L 563.429721 137.189698 
L 581.14883 147.190787 
L 598.867939 139.701102 
L 616.587049 129.281446 
L 634.306158 150.156381 
L 652.025268 160.923359 
L 669.744377 154.750429 
L 687.463487 171.451619 
L 705.182596 204.523039 
L 722.901706 210.277351 
L 740.620815 197.873062 
L 758.339925 201.043488 
L 776.059034 206.096353 
L 793.778144 207.721196 
L 811.497253 204.075207 
L 829.216362 208.474172 
L 846.935472 212.714616 
L 864.654581 203.904144 
L 882.373691 209.985713 
L 893.005157 162.998385 
" clip-path="url(#p3384e904f1)" style="fill: none; stroke: #d9534f; stroke-linecap: square"/>
   </g>
   <g id="line2d_14">
    <path d="M 81.469943 56.533193 
L 85.013765 63.26209 
L 88.557587 52.735287 
L 92.101409 48.070469 
L 95.645231 63.963877 
L 99.189053 59.092651 
L 102.732875 70.238677 
L 106.276696 67.390248 
L 109.820518 71.848658 
L 120.451984 70.263446 
L 138.171093 78.148227 
L 155.890203 90.945517 
L 173.609312 74.020069 
L 191.328422 100.448536 
L 209.047531 86.974229 
L 226.766641 78.54453 
L 244.48575 86.024753 
L 262.20486 77.314339 
L 279.923969 93.711383 
L 297.643079 93.504975 
L 315.362188 92.737137 
L 333.081298 103.817113 
L 350.800407 120.181131 
L 368.519516 112.651371 
L 386.238626 100.770533 
L 403.957735 111.57805 
L 421.676845 104.931716 
L 439.395954 116.218099 
L 457.115064 117.671211 
L 474.834173 122.864434 
L 492.553283 119.471088 
L 510.272392 108.680083 
L 527.991502 110.595548 
L 545.710611 116.812554 
L 563.429721 116.003435 
L 581.14883 119.438063 
L 598.867939 120.073799 
L 616.587049 109.712123 
L 634.306158 119.429806 
L 652.025268 125.721119 
L 669.744377 129.756741 
L 687.463487 159.508877 
L 705.182596 192.567388 
L 722.901706 206.003669 
L 740.620815 192.094707 
L 758.339925 199.202596 
L 776.059034 199.356003 
L 793.778144 200.787808 
L 811.497253 208.867279 
L 829.216362 207.537746 
L 846.935472 205.083223 
L 864.654581 216.537663 
L 882.373691 206.544005 
L 893.005157 242.259016 
" clip-path="url(#p3384e904f1)" style="fill: none; stroke: #5cb85c; stroke-linecap: square"/>
   </g>
   <g id="line2d_15">
    <path d="M 81.469943 70.580488 
L 85.013765 107.991506 
L 88.557587 76.128733 
L 92.101409 101.016571 
L 95.645231 98.480231 
L 99.189053 138.427589 
L 102.732875 109.893761 
L 106.276696 100.541007 
L 109.820518 122.892505 
L 120.451984 105.835617 
L 138.171093 116.805289 
L 155.890203 118.992882 
L 173.609312 111.605791 
L 191.328422 127.362805 
L 209.047531 112.873961 
L 226.766641 129.233356 
L 244.48575 128.060298 
L 262.20486 131.959921 
L 279.923969 136.430221 
L 297.643079 121.973082 
L 315.362188 123.843633 
L 333.081298 118.517318 
L 350.800407 134.11581 
L 368.519516 125.206915 
L 386.238626 124.509422 
L 403.957735 136.493629 
L 421.676845 129.899145 
L 439.395954 131.57947 
L 457.115064 128.218819 
L 474.834173 119.880601 
L 492.553283 121.370701 
L 510.272392 102.665192 
L 527.991502 116.202908 
L 545.710611 128.409045 
L 563.429721 120.039122 
L 581.14883 123.938745 
L 598.867939 119.309925 
L 616.587049 115.283484 
L 634.306158 129.360173 
L 652.025268 133.259796 
L 669.744377 141.298922 
L 687.463487 180.078193 
L 705.182596 206.193895 
L 722.901706 205.303747 
L 740.620815 199.260123 
L 758.339925 205.70005 
L 776.059034 203.025003 
L 793.778144 215.013174 
L 811.497253 216.796538 
L 829.216362 201.538867 
L 846.935472 212.932582 
L 864.654581 205.600974 
L 882.373691 215.706704 
L 893.005157 242.259016 
" clip-path="url(#p3384e904f1)" style="fill: none; stroke: #5cb85c; stroke-linecap: square"/>
   </g>
   <g id="line2d_16">
    <path d="M 81.469943 53.618713 
L 85.013765 59.008436 
L 88.557587 46.009693 
L 92.101409 85.640008 
L 95.645231 122.733984 
L 99.189053 66.617457 
L 102.732875 74.860562 
L 106.276696 130.660047 
L 109.820518 120.831729 
L 120.451984 115.69564 
L 138.171093 114.42747 
L 155.890203 106.564815 
L 173.609312 105.613687 
L 191.328422 95.468327 
L 209.047531 95.087876 
L 226.766641 114.364061 
L 244.48575 110.242508 
L 262.20486 96.482863 
L 279.923969 118.23198 
L 297.643079 108.46707 
L 315.362188 96.799905 
L 333.081298 102.189628 
L 350.800407 108.276845 
L 368.519516 116.139499 
L 386.238626 97.370582 
L 403.957735 110.940002 
L 421.676845 113.476342 
L 439.395954 115.378597 
L 457.115064 124.002154 
L 474.834173 120.387869 
L 492.553283 107.1989 
L 510.272392 94.580607 
L 527.991502 109.291381 
L 545.710611 117.027218 
L 563.429721 111.700904 
L 581.14883 102.696896 
L 598.867939 104.091883 
L 616.587049 98.955794 
L 634.306158 111.257044 
L 652.025268 114.42747 
L 669.744377 117.756416 
L 687.463487 161.539268 
L 705.182596 209.365854 
L 722.901706 215.046199 
L 740.620815 182.813542 
L 758.339925 198.665669 
L 776.059034 212.139976 
L 793.778144 212.932582 
L 811.497253 193.117424 
L 829.216362 207.64854 
L 846.935472 214.253593 
L 864.654581 212.932582 
L 882.373691 215.310401 
" clip-path="url(#p3384e904f1)" style="fill: none; stroke: #5cb85c; stroke-linecap: square"/>
   </g>
   <g id="line2d_17">
    <path d="M 81.469943 55.643311 
L 85.013765 59.655735 
L 88.557587 48.065327 
L 92.101409 45.986216 
L 95.645231 59.628102 
L 99.189053 57.531886 
L 102.732875 63.329364 
L 106.276696 62.324911 
L 109.820518 69.097233 
L 120.451984 59.924223 
L 138.171093 66.10419 
L 155.890203 59.342239 
L 173.609312 53.714235 
L 191.328422 57.943627 
L 209.047531 59.692321 
L 226.766641 62.132865 
L 244.48575 60.731779 
L 262.20486 60.477339 
L 279.923969 58.243158 
L 297.643079 59.434568 
L 315.362188 57.307671 
L 333.081298 58.275494 
L 350.800407 59.283438 
L 368.519516 59.230522 
L 386.238626 59.459478 
L 403.957735 62.53712 
L 421.676845 59.153799 
L 439.395954 66.357191 
L 457.115064 71.740795 
L 474.834173 73.033579 
L 492.553283 65.956627 
L 510.272392 59.70561 
L 527.991502 63.753814 
L 545.710611 70.881696 
L 563.429721 60.173911 
L 581.14883 58.558489 
L 598.867939 61.194938 
L 616.587049 60.984932 
L 634.306158 76.242479 
L 652.025268 76.153663 
L 669.744377 75.395087 
L 687.463487 120.407796 
L 705.182596 184.847554 
L 722.901706 201.471406 
L 740.620815 168.437681 
L 758.339925 191.96205 
L 776.059034 211.455738 
L 793.778144 194.412554 
L 811.497253 193.151131 
L 829.216362 193.736135 
L 846.935472 205.711517 
L 864.654581 190.684231 
L 882.373691 204.478394 
L 893.005157 170.3583 
" clip-path="url(#p3384e904f1)" style="fill: none; stroke: #d9534f; stroke-linecap: square"/>
   </g>
   <g id="line2d_18">
    <path d="M 81.469943 55.671357 
L 85.013765 59.829201 
L 88.557587 47.962126 
L 92.101409 46.116065 
L 95.645231 60.03985 
L 99.189053 57.315179 
L 102.732875 66.380314 
L 106.276696 66.586275 
L 109.820518 74.044655 
L 120.451984 60.386365 
L 138.171093 64.495744 
L 155.890203 68.317744 
L 173.609312 60.660693 
L 191.328422 77.284027 
L 209.047531 67.618794 
L 226.766641 64.938492 
L 244.48575 75.972656 
L 262.20486 64.302013 
L 279.923969 69.157517 
L 297.643079 82.481932 
L 315.362188 82.119986 
L 333.081298 86.646163 
L 350.800407 112.895887 
L 368.519516 113.080229 
L 386.238626 108.253646 
L 403.957735 117.236203 
L 421.676845 120.588762 
L 439.395954 133.483228 
L 457.115064 129.220737 
L 474.834173 127.956195 
L 492.553283 129.301879 
L 510.272392 127.287227 
L 527.991502 109.164693 
L 545.710611 122.839426 
L 563.429721 142.377616 
L 581.14883 140.9515 
L 598.867939 120.208488 
L 616.587049 121.356432 
L 634.306158 137.171333 
L 652.025268 135.174875 
L 669.744377 144.324051 
L 687.463487 150.528538 
L 705.182596 192.102413 
L 722.901706 209.243419 
L 740.620815 221.014645 
L 758.339925 216.561062 
L 776.059034 192.412867 
L 793.778144 218.200424 
L 811.497253 211.712174 
L 829.216362 212.111091 
L 846.935472 215.087188 
L 864.654581 210.293568 
L 882.373691 215.802549 
L 896.548978 209.803463 
" clip-path="url(#p3384e904f1)" style="fill: none; stroke: #d9534f; stroke-linecap: square"/>
   </g>
   <g id="line2d_19">
    <path d="M 81.469943 55.608613 
L 85.013765 59.562885 
L 88.557587 48.035144 
L 92.101409 46.08951 
L 95.645231 60.984864 
L 99.189053 57.906387 
L 102.732875 66.195741 
L 106.276696 63.457843 
L 109.820518 68.713113 
L 120.451984 58.782719 
L 138.171093 65.750646 
L 155.890203 62.800379 
L 173.609312 54.36261 
L 191.328422 63.868589 
L 209.047531 58.863151 
L 226.766641 63.586547 
L 244.48575 64.516675 
L 262.20486 63.906033 
L 279.923969 61.378896 
L 297.643079 62.708533 
L 315.362188 63.234588 
L 333.081298 66.974089 
L 350.800407 71.676974 
L 368.519516 67.462057 
L 386.238626 58.803527 
L 403.957735 66.276643 
L 421.676845 62.674597 
L 439.395954 67.837862 
L 457.115064 76.785464 
L 474.834173 74.400813 
L 492.553283 74.15614 
L 510.272392 66.973596 
L 527.991502 73.201793 
L 545.710611 78.696218 
L 563.429721 70.781425 
L 581.14883 71.218186 
L 598.867939 71.269241 
L 616.587049 74.84306 
L 634.306158 85.043808 
L 652.025268 84.473057 
L 669.744377 82.430983 
L 687.463487 135.798515 
L 705.182596 204.889334 
L 722.901706 211.250039 
L 740.620815 185.589182 
L 758.339925 184.188491 
L 776.059034 213.252693 
L 793.778144 198.252278 
L 811.497253 205.314139 
L 829.216362 201.724672 
L 846.935472 207.58038 
L 864.654581 197.893225 
L 882.373691 208.495589 
L 900.0928 155.860573 
L 917.81191 99.589879 
L 935.531019 59.959564 
L 946.162485 59.959564 
" clip-path="url(#p3384e904f1)" style="fill: none; stroke: #d9534f; stroke-linecap: square"/>
   </g>
   <g id="line2d_20">
    <path d="M 81.469943 56.914322 
L 85.013765 60.468 
L 88.557587 48.590872 
L 92.101409 46.459873 
L 95.645231 60.027347 
L 99.189053 58.016169 
L 102.732875 64.582971 
L 106.276696 64.126336 
L 109.820518 73.005426 
L 120.451984 59.916204 
L 138.171093 65.438714 
L 155.890203 64.888992 
L 173.609312 55.896724 
L 191.328422 66.817839 
L 209.047531 61.965628 
L 226.766641 63.562667 
L 244.48575 66.080941 
L 262.20486 64.271485 
L 279.923969 63.590848 
L 297.643079 67.258921 
L 315.362188 65.893743 
L 333.081298 68.557516 
L 350.800407 79.692313 
L 368.519516 78.62246 
L 386.238626 70.867692 
L 403.957735 79.33325 
L 421.676845 76.857875 
L 439.395954 84.901007 
L 457.115064 88.999271 
L 474.834173 87.860885 
L 492.553283 89.452241 
L 510.272392 80.502093 
L 527.991502 80.858217 
L 545.710611 89.521787 
L 563.429721 87.290808 
L 581.14883 87.287456 
L 598.867939 82.468127 
L 616.587049 83.165516 
L 634.306158 95.79207 
L 652.025268 96.485616 
L 669.744377 95.579131 
L 687.463487 139.349123 
L 705.182596 188.880463 
L 722.901706 203.713549 
L 740.620815 210.503 
L 758.339925 208.037473 
L 776.059034 189.716386 
L 793.778144 208.256239 
L 811.497253 207.351288 
L 829.216362 206.145718 
L 846.935472 211.313915 
L 864.654581 205.064406 
L 882.373691 214.343329 
L 893.005157 213.976086 
" clip-path="url(#p3384e904f1)" style="fill: none; stroke: #d9534f; stroke-linecap: square"/>
   </g>
   <g id="line2d_21">
    <path d="M 81.469943 55.440791 
L 85.013765 58.553992 
L 88.557587 47.657172 
L 92.101409 45.886723 
L 95.645231 59.428113 
L 99.189053 57.396586 
L 102.732875 63.448172 
L 106.276696 62.889524 
L 109.820518 69.21739 
L 120.451984 59.272849 
L 138.171093 64.22191 
L 155.890203 61.177161 
L 173.609312 54.359374 
L 191.328422 62.977289 
L 209.047531 62.366105 
L 226.766641 63.840156 
L 244.48575 64.672775 
L 262.20486 62.250218 
L 279.923969 62.008178 
L 297.643079 65.81584 
L 315.362188 65.216103 
L 333.081298 65.252769 
L 350.800407 74.781646 
L 368.519516 76.257189 
L 386.238626 74.863504 
L 403.957735 79.007106 
L 421.676845 78.353926 
L 439.395954 85.788263 
L 457.115064 91.233088 
L 474.834173 90.001819 
L 492.553283 86.557404 
L 510.272392 81.732124 
L 527.991502 80.751309 
L 545.710611 87.40103 
L 563.429721 80.85586 
L 581.14883 82.818166 
L 598.867939 81.945748 
L 616.587049 80.255243 
L 634.306158 92.049023 
L 652.025268 93.095175 
L 669.744377 96.832971 
L 687.463487 158.49731 
L 705.182596 208.423503 
L 722.901706 209.722664 
L 740.620815 217.773799 
L 758.339925 216.962155 
L 776.059034 198.235349 
L 793.778144 214.609102 
L 811.497253 214.26188 
L 829.216362 211.303223 
L 846.935472 216.188238 
L 864.654581 212.459728 
L 882.373691 219.89533 
L 900.0928 214.504801 
L 910.724266 250.185079 
" clip-path="url(#p3384e904f1)" style="fill: none; stroke: #d9534f; stroke-linecap: square"/>
   </g>
   <g id="line2d_22">
    <path d="M 81.469943 55.443686 
L 85.013765 60.093467 
L 88.557587 48.039134 
L 92.101409 46.056209 
L 95.645231 59.115666 
L 99.189053 57.43492 
L 102.732875 64.881022 
L 106.276696 65.984448 
L 109.820518 75.79699 
L 120.451984 60.251034 
L 138.171093 63.684229 
L 155.890203 66.526589 
L 173.609312 58.079494 
L 191.328422 76.274685 
L 209.047531 65.751046 
L 226.766641 63.864574 
L 244.48575 74.738791 
L 262.20486 62.874818 
L 279.923969 65.388362 
L 297.643079 76.447185 
L 315.362188 75.295455 
L 333.081298 77.848963 
L 350.800407 108.209091 
L 368.519516 106.276051 
L 386.238626 100.997083 
L 403.957735 110.45381 
L 421.676845 115.785269 
L 439.395954 127.737781 
L 457.115064 125.307349 
L 474.834173 122.037632 
L 492.553283 122.75152 
L 510.272392 122.607884 
L 527.991502 101.861702 
L 545.710611 116.325058 
L 563.429721 133.554346 
L 581.14883 136.523016 
L 598.867939 113.481567 
L 616.587049 115.259281 
L 634.306158 129.690839 
L 652.025268 126.24446 
L 669.744377 141.137187 
L 687.463487 145.967507 
L 705.182596 188.220521 
L 722.901706 205.596978 
L 740.620815 221.36673 
L 758.339925 217.261068 
L 776.059034 184.032375 
L 793.778144 217.246956 
L 811.497253 209.9178 
L 829.216362 209.11236 
L 846.935472 214.480498 
L 864.654581 207.853191 
L 882.373691 218.717472 
L 896.548978 208.18555 
" clip-path="url(#p3384e904f1)" style="fill: none; stroke: #d9534f; stroke-linecap: square"/>
   </g>
   <g id="line2d_23">
    <path d="M 81.469943 56.084566 
L 85.013765 60.019734 
L 88.557587 48.19532 
L 92.101409 45.952175 
L 95.645231 60.031595 
L 99.189053 57.974273 
L 102.732875 63.392754 
L 106.276696 62.387931 
L 109.820518 68.316776 
L 120.451984 59.156894 
L 138.171093 65.474185 
L 155.890203 59.446388 
L 173.609312 53.505595 
L 191.328422 59.290445 
L 209.047531 59.594605 
L 226.766641 62.725634 
L 244.48575 61.405218 
L 262.20486 60.671446 
L 279.923969 57.898794 
L 297.643079 61.030925 
L 315.362188 58.986018 
L 333.081298 59.775919 
L 350.800407 61.651212 
L 368.519516 62.924527 
L 386.238626 60.774955 
L 403.957735 63.941679 
L 421.676845 61.168699 
L 439.395954 67.731143 
L 457.115064 73.134885 
L 474.834173 75.283177 
L 492.553283 66.710577 
L 510.272392 62.908309 
L 527.991502 63.877055 
L 545.710611 74.032755 
L 563.429721 64.106158 
L 581.14883 59.41061 
L 598.867939 61.659565 
L 616.587049 62.860734 
L 634.306158 77.078242 
L 652.025268 78.69516 
L 669.744377 75.863186 
L 687.463487 118.575515 
L 705.182596 187.173658 
L 722.901706 204.802489 
L 740.620815 181.91929 
L 758.339925 188.946731 
L 776.059034 209.256433 
L 793.778144 197.433952 
L 811.497253 199.092012 
L 829.216362 201.657822 
L 846.935472 207.941659 
L 864.654581 203.070735 
L 882.373691 208.819133 
L 893.005157 211.728995 
" clip-path="url(#p3384e904f1)" style="fill: none; stroke: #d9534f; stroke-linecap: square"/>
   </g>
   <g id="line2d_24">
    <path d="M 81.469943 55.575202 
L 85.013765 58.423739 
L 88.557587 47.799074 
L 92.101409 45.833033 
L 95.645231 59.140508 
L 99.189053 57.287702 
L 102.732875 62.741799 
L 106.276696 61.53616 
L 109.820518 68.666497 
L 120.451984 58.419062 
L 138.171093 64.544249 
L 155.890203 60.412647 
L 173.609312 53.528367 
L 191.328422 60.597916 
L 209.047531 62.918309 
L 226.766641 61.771477 
L 244.48575 60.080788 
L 262.20486 60.805481 
L 279.923969 59.479223 
L 297.643079 61.621191 
L 315.362188 60.897565 
L 333.081298 61.469506 
L 350.800407 69.545295 
L 368.519516 78.201729 
L 386.238626 87.249831 
L 403.957735 105.827619 
L 421.676845 101.422866 
L 439.395954 106.38269 
L 457.115064 114.199007 
L 474.834173 115.017083 
L 492.553283 111.857442 
L 510.272392 99.232678 
L 527.991502 108.155418 
L 545.710611 114.955172 
L 563.429721 105.597749 
L 581.14883 104.991386 
L 598.867939 108.650735 
L 616.587049 104.150927 
L 634.306158 120.117983 
L 652.025268 119.439402 
L 669.744377 119.296291 
L 687.463487 213.101141 
L 705.182596 229.50919 
L 722.901706 222.406744 
L 740.620815 207.87749 
L 758.339925 220.122018 
L 776.059034 219.905642 
L 793.778144 221.704918 
L 811.497253 220.310351 
L 829.216362 216.634115 
L 846.935472 222.971482 
L 864.654581 220.689849 
L 882.373691 221.68961 
L 900.0928 186.798237 
" clip-path="url(#p3384e904f1)" style="fill: none; stroke: #d9534f; stroke-linecap: square"/>
   </g>
   <g id="line2d_25">
    <path d="M 81.469943 55.767796 
L 85.013765 59.898385 
L 88.557587 48.40913 
L 92.101409 46.141454 
L 95.645231 59.835688 
L 99.189053 57.694392 
L 102.732875 63.581825 
L 106.276696 62.340792 
L 109.820518 68.801839 
L 120.451984 58.337599 
L 138.171093 64.700598 
L 155.890203 61.460865 
L 173.609312 53.530144 
L 191.328422 60.690992 
L 209.047531 58.882376 
L 226.766641 63.737901 
L 244.48575 61.842685 
L 262.20486 62.48731 
L 279.923969 59.054176 
L 297.643079 60.72218 
L 315.362188 60.623316 
L 333.081298 61.327072 
L 350.800407 66.901278 
L 368.519516 63.173503 
L 386.238626 60.584325 
L 403.957735 63.365448 
L 421.676845 59.552113 
L 439.395954 67.311192 
L 457.115064 71.216815 
L 474.834173 71.019801 
L 492.553283 69.785923 
L 510.272392 63.200236 
L 527.991502 71.164221 
L 545.710611 76.247077 
L 563.429721 67.529859 
L 581.14883 65.18711 
L 598.867939 68.575853 
L 616.587049 67.867934 
L 634.306158 81.025448 
L 652.025268 78.947294 
L 669.744377 75.862209 
L 687.463487 128.691658 
L 705.182596 183.67575 
L 722.901706 199.161516 
L 740.620815 178.471515 
L 758.339925 195.643182 
L 776.059034 201.933764 
L 793.778144 198.527872 
L 811.497253 191.99813 
L 829.216362 196.258258 
L 846.935472 207.894509 
L 864.654581 199.040963 
L 882.373691 208.37502 
L 893.005157 197.193686 
" clip-path="url(#p3384e904f1)" style="fill: none; stroke: #d9534f; stroke-linecap: square"/>
   </g>
   <g id="line2d_26">
    <path d="M 81.469943 56.799577 
L 85.013765 59.311634 
L 88.557587 48.090504 
L 92.101409 46.010535 
L 95.645231 60.175809 
L 99.189053 57.440328 
L 102.732875 64.498627 
L 106.276696 63.897652 
L 109.820518 69.237599 
L 120.451984 58.165124 
L 138.171093 65.386609 
L 155.890203 63.154448 
L 173.609312 55.594457 
L 191.328422 67.193986 
L 209.047531 62.836219 
L 226.766641 64.286293 
L 244.48575 67.590385 
L 262.20486 63.491533 
L 279.923969 61.343936 
L 297.643079 66.755555 
L 315.362188 65.288024 
L 333.081298 65.583252 
L 350.800407 81.695085 
L 368.519516 78.228912 
L 386.238626 75.630804 
L 403.957735 78.591555 
L 421.676845 76.906261 
L 439.395954 87.267307 
L 457.115064 96.656431 
L 474.834173 94.876275 
L 492.553283 99.65435 
L 510.272392 88.42295 
L 527.991502 91.310343 
L 545.710611 100.187252 
L 563.429721 98.672913 
L 581.14883 115.012018 
L 598.867939 102.330991 
L 616.587049 114.681781 
L 634.306158 128.32824 
L 652.025268 136.818221 
L 669.744377 146.331797 
L 687.463487 186.32332 
L 705.182596 214.48981 
L 722.901706 224.794406 
L 740.620815 218.178648 
L 758.339925 198.485705 
L 776.059034 213.675256 
L 793.778144 216.802861 
L 811.497253 218.347812 
L 829.216362 217.007181 
L 846.935472 216.504533 
L 864.654581 219.564302 
L 882.373691 220.676408 
L 900.0928 228.542805 
L 917.81191 247.014654 
" clip-path="url(#p3384e904f1)" style="fill: none; stroke: #d9534f; stroke-linecap: square"/>
   </g>
   <g id="line2d_27">
    <path d="M 81.469943 55.72188 
L 85.013765 59.412309 
L 88.557587 48.286879 
L 92.101409 46.00266 
L 95.645231 61.021178 
L 99.189053 58.029 
L 102.732875 65.2951 
L 106.276696 63.816592 
L 109.820518 71.051702 
L 120.451984 63.206364 
L 138.171093 68.83239 
L 155.890203 65.638467 
L 173.609312 57.508457 
L 191.328422 70.638669 
L 209.047531 61.027922 
L 226.766641 65.172678 
L 244.48575 70.049394 
L 262.20486 63.47424 
L 279.923969 64.615623 
L 297.643079 66.543317 
L 315.362188 62.715654 
L 333.081298 69.596411 
L 350.800407 72.465131 
L 368.519516 69.957307 
L 386.238626 60.967387 
L 403.957735 70.108297 
L 421.676845 70.149238 
L 439.395954 69.974233 
L 457.115064 74.455935 
L 474.834173 75.82354 
L 492.553283 75.536524 
L 510.272392 69.08042 
L 527.991502 70.757489 
L 545.710611 81.973423 
L 563.429721 81.46634 
L 581.14883 72.157966 
L 598.867939 73.310052 
L 616.587049 80.30029 
L 634.306158 81.164894 
L 652.025268 90.86668 
L 669.744377 85.309815 
L 687.463487 105.456535 
L 705.182596 177.385154 
L 722.901706 196.873004 
L 740.620815 190.091804 
L 758.339925 172.619278 
L 776.059034 192.245125 
L 793.778144 193.484363 
L 811.497253 195.633762 
L 829.216362 182.768482 
L 846.935472 191.231113 
L 864.654581 197.974831 
L 882.373691 191.564156 
L 900.0928 85.467076 
L 917.81191 142.39062 
L 935.531019 82.15254 
L 946.162485 59.959564 
" clip-path="url(#p3384e904f1)" style="fill: none; stroke: #d9534f; stroke-linecap: square"/>
   </g>
   <g id="line2d_28">
    <path d="M 81.469943 56.091003 
L 85.013765 60.28288 
L 88.557587 48.349289 
L 92.101409 46.349455 
L 95.645231 59.886566 
L 99.189053 57.918388 
L 102.732875 64.407238 
L 106.276696 63.339497 
L 109.820518 71.501877 
L 120.451984 61.120159 
L 138.171093 66.466112 
L 155.890203 60.681087 
L 173.609312 54.75094 
L 191.328422 60.401658 
L 209.047531 60.156022 
L 226.766641 62.733332 
L 244.48575 63.050914 
L 262.20486 61.419003 
L 279.923969 59.612815 
L 297.643079 61.311714 
L 315.362188 58.529047 
L 333.081298 60.735888 
L 350.800407 62.52172 
L 368.519516 61.287916 
L 386.238626 61.647837 
L 403.957735 65.483269 
L 421.676845 62.686079 
L 439.395954 69.636837 
L 457.115064 75.789132 
L 474.834173 75.618453 
L 492.553283 69.63024 
L 510.272392 63.869455 
L 527.991502 65.64672 
L 545.710611 74.025725 
L 563.429721 65.887132 
L 581.14883 63.970644 
L 598.867939 64.890264 
L 616.587049 66.150378 
L 634.306158 80.571623 
L 652.025268 81.22603 
L 669.744377 79.306849 
L 687.463487 119.542615 
L 705.182596 176.944199 
L 722.901706 201.267068 
L 740.620815 186.921064 
L 758.339925 196.002671 
L 776.059034 190.645284 
L 793.778144 203.108676 
L 811.497253 196.184848 
L 829.216362 197.608981 
L 846.935472 206.397341 
L 864.654581 198.606155 
L 882.373691 210.355932 
L 900.0928 214.834838 
L 917.81191 245.429441 
L 935.531019 250.185079 
" clip-path="url(#p3384e904f1)" style="fill: none; stroke: #d9534f; stroke-linecap: square"/>
   </g>
   <g id="line2d_29">
    <path d="M 81.469943 55.454495 
L 85.013765 58.36945 
L 88.557587 47.652341 
L 92.101409 45.928096 
L 95.645231 59.076574 
L 99.189053 57.202441 
L 102.732875 62.852558 
L 106.276696 61.719741 
L 109.820518 68.998358 
L 120.451984 59.473638 
L 138.171093 65.021369 
L 155.890203 58.670395 
L 173.609312 53.077653 
L 191.328422 57.396894 
L 209.047531 58.403231 
L 226.766641 61.440328 
L 244.48575 59.723466 
L 262.20486 60.614392 
L 279.923969 58.515187 
L 297.643079 59.375546 
L 315.362188 57.450189 
L 333.081298 58.576758 
L 350.800407 59.941352 
L 368.519516 60.071698 
L 386.238626 59.895752 
L 403.957735 62.79354 
L 421.676845 60.008199 
L 439.395954 66.113354 
L 457.115064 73.141019 
L 474.834173 72.699568 
L 492.553283 67.258446 
L 510.272392 60.352673 
L 527.991502 64.517937 
L 545.710611 70.986223 
L 563.429721 61.54616 
L 581.14883 59.983239 
L 598.867939 61.786534 
L 616.587049 62.490748 
L 634.306158 75.863602 
L 652.025268 77.392323 
L 669.744377 75.609404 
L 687.463487 153.189206 
L 705.182596 206.154914 
L 722.901706 207.668245 
L 740.620815 186.659368 
L 758.339925 201.331545 
L 776.059034 210.514015 
L 793.778144 201.84482 
L 811.497253 204.634937 
L 829.216362 203.617775 
L 846.935472 213.783416 
L 864.654581 205.719155 
L 882.373691 215.559086 
L 900.0928 239.466022 
L 914.268088 250.185079 
" clip-path="url(#p3384e904f1)" style="fill: none; stroke: #d9534f; stroke-linecap: square"/>
   </g>
   <g id="line2d_30">
    <path d="M 81.469943 55.552137 
L 85.013765 60.453598 
L 88.557587 48.155684 
L 92.101409 46.068056 
L 95.645231 59.596349 
L 99.189053 57.47533 
L 102.732875 64.770039 
L 106.276696 64.034647 
L 109.820518 73.023012 
L 120.451984 59.8301 
L 138.171093 64.536816 
L 155.890203 63.824864 
L 173.609312 56.420747 
L 191.328422 69.767708 
L 209.047531 62.080527 
L 226.766641 62.761508 
L 244.48575 68.820079 
L 262.20486 62.305224 
L 279.923969 63.088339 
L 297.643079 69.622837 
L 315.362188 68.590284 
L 333.081298 70.521063 
L 350.800407 89.552758 
L 368.519516 88.851686 
L 386.238626 81.423322 
L 403.957735 89.846075 
L 421.676845 92.29341 
L 439.395954 99.347916 
L 457.115064 101.914552 
L 474.834173 100.882055 
L 492.553283 100.365039 
L 510.272392 96.972091 
L 527.991502 88.158425 
L 545.710611 97.828511 
L 563.429721 104.648314 
L 581.14883 105.01768 
L 598.867939 94.407427 
L 616.587049 95.683894 
L 634.306158 107.482036 
L 652.025268 105.94914 
L 669.744377 113.628122 
L 687.463487 143.715899 
L 705.182596 192.557086 
L 722.901706 204.86819 
L 740.620815 219.744148 
L 758.339925 216.082722 
L 776.059034 182.088812 
L 793.778144 215.77209 
L 811.497253 209.314812 
L 829.216362 208.787168 
L 846.935472 214.233508 
L 864.654581 207.721704 
L 882.373691 217.641298 
L 900.0928 195.734521 
L 917.81191 159.299555 
L 935.531019 128.916313 
L 946.162485 143.183227 
" clip-path="url(#p3384e904f1)" style="fill: none; stroke: #d9534f; stroke-linecap: square"/>
   </g>
   <g id="line2d_31">
    <path d="M 81.469943 56.473714 
L 85.013765 59.983325 
L 88.557587 48.100834 
L 92.101409 45.950121 
L 95.645231 59.198468 
L 99.189053 57.479491 
L 102.732875 62.765741 
L 106.276696 61.664284 
L 109.820518 69.054923 
L 120.451984 59.335951 
L 138.171093 65.607996 
L 155.890203 58.887676 
L 173.609312 52.927725 
L 191.328422 57.253564 
L 209.047531 58.591948 
L 226.766641 61.609675 
L 244.48575 59.807823 
L 262.20486 59.665094 
L 279.923969 57.469111 
L 297.643079 58.929824 
L 315.362188 57.350598 
L 333.081298 58.448575 
L 350.800407 59.202883 
L 368.519516 59.569743 
L 386.238626 59.282315 
L 403.957735 62.571321 
L 421.676845 59.869617 
L 439.395954 65.922153 
L 457.115064 73.49026 
L 474.834173 72.139741 
L 492.553283 65.646484 
L 510.272392 59.71389 
L 527.991502 64.113511 
L 545.710611 70.201338 
L 563.429721 60.368301 
L 581.14883 58.12504 
L 598.867939 61.642425 
L 616.587049 61.765566 
L 634.306158 76.937774 
L 652.025268 77.227248 
L 669.744377 75.464525 
L 687.463487 161.897088 
L 705.182596 203.292963 
L 722.901706 206.017645 
L 740.620815 181.259297 
L 758.339925 200.611628 
L 776.059034 207.550008 
L 793.778144 201.872973 
L 811.497253 198.057689 
L 829.216362 201.604176 
L 846.935472 212.189159 
L 864.654581 204.766278 
L 882.373691 215.109765 
L 893.005157 192.060616 
" clip-path="url(#p3384e904f1)" style="fill: none; stroke: #d9534f; stroke-linecap: square"/>
   </g>
   <g id="line2d_32">
    <path d="M 81.469943 55.439281 
L 85.013765 58.339885 
L 88.557587 47.591846 
L 92.101409 45.717082 
L 95.645231 58.587134 
L 99.189053 56.97332 
L 102.732875 62.20896 
L 106.276696 61.181654 
L 109.820518 69.284907 
L 120.451984 59.059594 
L 138.171093 65.127819 
L 155.890203 58.150745 
L 173.609312 52.488054 
L 191.328422 56.177933 
L 209.047531 57.863741 
L 226.766641 61.053255 
L 244.48575 59.106432 
L 262.20486 59.17323 
L 279.923969 56.937809 
L 297.643079 58.351193 
L 315.362188 56.257936 
L 333.081298 56.945186 
L 350.800407 58.551367 
L 368.519516 59.805129 
L 386.238626 59.76817 
L 403.957735 63.122309 
L 421.676845 60.239511 
L 439.395954 66.472133 
L 457.115064 73.31673 
L 474.834173 72.207414 
L 492.553283 65.901634 
L 510.272392 59.783877 
L 527.991502 62.713385 
L 545.710611 69.065031 
L 563.429721 60.379375 
L 581.14883 58.443339 
L 598.867939 60.618506 
L 616.587049 60.579246 
L 634.306158 75.539202 
L 652.025268 76.415949 
L 669.744377 75.396551 
L 687.463487 170.186449 
L 705.182596 202.858559 
L 722.901706 204.804215 
L 740.620815 200.220282 
L 758.339925 207.305655 
L 776.059034 198.660248 
L 793.778144 207.418971 
L 811.497253 205.812767 
L 829.216362 207.489972 
L 846.935472 215.435274 
L 864.654581 205.736864 
L 882.373691 218.515184 
L 893.005157 217.631606 
" clip-path="url(#p3384e904f1)" style="fill: none; stroke: #d9534f; stroke-linecap: square"/>
   </g>
   <g id="line2d_33">
    <path d="M 81.469943 56.558601 
L 85.013765 60.386051 
L 88.557587 48.159005 
L 92.101409 46.083486 
L 95.645231 59.305294 
L 99.189053 57.588648 
L 102.732875 65.326586 
L 106.276696 65.68475 
L 109.820518 74.925855 
L 120.451984 61.27347 
L 138.171093 64.750001 
L 155.890203 65.59268 
L 173.609312 57.714242 
L 191.328422 73.259446 
L 209.047531 65.755177 
L 226.766641 63.757213 
L 244.48575 72.493484 
L 262.20486 62.972172 
L 279.923969 64.938883 
L 297.643079 74.821845 
L 315.362188 72.977454 
L 333.081298 74.90992 
L 350.800407 99.42127 
L 368.519516 100.380583 
L 386.238626 95.323992 
L 403.957735 103.868923 
L 421.676845 108.63488 
L 439.395954 118.555113 
L 457.115064 116.484783 
L 474.834173 115.329001 
L 492.553283 114.920079 
L 510.272392 112.568029 
L 527.991502 97.474147 
L 545.710611 110.42135 
L 563.429721 123.924275 
L 581.14883 123.150026 
L 598.867939 105.518439 
L 616.587049 107.070034 
L 634.306158 121.161471 
L 652.025268 121.227667 
L 669.744377 130.500629 
L 687.463487 148.912877 
L 705.182596 191.025633 
L 722.901706 209.002441 
L 740.620815 223.563478 
L 758.339925 216.025181 
L 776.059034 184.249209 
L 793.778144 217.487593 
L 811.497253 209.973361 
L 829.216362 210.907033 
L 846.935472 214.356062 
L 864.654581 209.128901 
L 882.373691 216.795847 
L 900.0928 141.79117 
L 917.81191 254.940717 
L 935.531019 164.583597 
L 949.706307 126.01009 
" clip-path="url(#p3384e904f1)" style="fill: none; stroke: #d9534f; stroke-linecap: square"/>
   </g>
   <g id="line2d_34">
    <path d="M 81.469943 55.942368 
L 85.013765 59.246526 
L 88.557587 47.922975 
L 92.101409 45.913909 
L 95.645231 59.697465 
L 99.189053 57.234212 
L 102.732875 64.156432 
L 106.276696 63.957755 
L 109.820518 71.330559 
L 120.451984 59.984621 
L 138.171093 65.918237 
L 155.890203 61.129754 
L 173.609312 54.891936 
L 191.328422 62.35199 
L 209.047531 61.161576 
L 226.766641 62.289138 
L 244.48575 64.564521 
L 262.20486 60.724336 
L 279.923969 60.380533 
L 297.643079 63.582645 
L 315.362188 61.058161 
L 333.081298 62.407379 
L 350.800407 70.00708 
L 368.519516 70.01097 
L 386.238626 69.50122 
L 403.957735 73.975288 
L 421.676845 73.83096 
L 439.395954 81.971957 
L 457.115064 86.700232 
L 474.834173 84.653569 
L 492.553283 79.783414 
L 510.272392 75.622534 
L 527.991502 72.28437 
L 545.710611 80.607091 
L 563.429721 79.059068 
L 581.14883 77.699801 
L 598.867939 73.269448 
L 616.587049 74.54765 
L 634.306158 89.130075 
L 652.025268 90.038093 
L 669.744377 92.422185 
L 687.463487 137.206575 
L 705.182596 185.896279 
L 722.901706 204.208644 
L 740.620815 215.233472 
L 758.339925 212.264021 
L 776.059034 182.506265 
L 793.778144 213.953871 
L 811.497253 206.109519 
L 829.216362 207.27942 
L 846.935472 211.56806 
L 864.654581 206.400288 
L 882.373691 214.090199 
L 893.005157 198.193014 
" clip-path="url(#p3384e904f1)" style="fill: none; stroke: #d9534f; stroke-linecap: square"/>
   </g>
   <g id="line2d_35">
    <path d="M 81.469943 56.960921 
L 85.013765 60.154428 
L 88.557587 48.237129 
L 92.101409 46.174494 
L 95.645231 59.867495 
L 99.189053 57.671768 
L 102.732875 66.42898 
L 106.276696 66.978737 
L 109.820518 76.240497 
L 120.451984 60.572142 
L 138.171093 64.403619 
L 155.890203 66.217046 
L 173.609312 57.44636 
L 191.328422 75.274287 
L 209.047531 66.291243 
L 226.766641 63.467081 
L 244.48575 73.329914 
L 262.20486 63.323155 
L 279.923969 65.139977 
L 297.643079 77.98753 
L 315.362188 76.301066 
L 333.081298 79.240225 
L 350.800407 109.76921 
L 368.519516 107.679414 
L 386.238626 100.69761 
L 403.957735 111.167351 
L 421.676845 117.862092 
L 439.395954 129.257113 
L 457.115064 128.820019 
L 474.834173 126.430382 
L 492.553283 126.884015 
L 510.272392 124.802895 
L 527.991502 103.151365 
L 545.710611 117.317734 
L 563.429721 133.541364 
L 581.14883 138.977871 
L 598.867939 113.580482 
L 616.587049 116.251794 
L 634.306158 130.389446 
L 652.025268 130.195349 
L 669.744377 147.540168 
L 687.463487 153.995354 
L 705.182596 192.812726 
L 722.901706 204.655879 
L 740.620815 220.958806 
L 758.339925 216.016138 
L 776.059034 179.293585 
L 793.778144 215.795388 
L 811.497253 208.816964 
L 829.216362 208.657424 
L 846.935472 213.278232 
L 864.654581 206.678077 
L 882.373691 215.802172 
L 893.005157 210.32066 
" clip-path="url(#p3384e904f1)" style="fill: none; stroke: #d9534f; stroke-linecap: square"/>
   </g>
   <g id="line2d_36">
    <path d="M 81.469943 56.134146 
L 85.013765 61.035088 
L 88.557587 48.476808 
L 92.101409 46.498232 
L 95.645231 60.337756 
L 99.189053 58.109913 
L 102.732875 65.128502 
L 106.276696 63.165066 
L 109.820518 70.322987 
L 120.451984 58.571912 
L 138.171093 65.797313 
L 155.890203 61.993123 
L 173.609312 54.336264 
L 191.328422 61.237571 
L 209.047531 59.74552 
L 226.766641 64.207106 
L 244.48575 62.861347 
L 262.20486 65.251382 
L 279.923969 63.592425 
L 297.643079 64.123216 
L 315.362188 62.9171 
L 333.081298 63.524456 
L 350.800407 68.122969 
L 368.519516 65.158554 
L 386.238626 63.190373 
L 403.957735 65.920276 
L 421.676845 61.266655 
L 439.395954 71.59037 
L 457.115064 75.687884 
L 474.834173 76.257227 
L 492.553283 77.007608 
L 510.272392 67.263652 
L 527.991502 74.716624 
L 545.710611 79.837603 
L 563.429721 70.197661 
L 581.14883 73.29403 
L 598.867939 74.784146 
L 616.587049 73.694011 
L 634.306158 84.134915 
L 652.025268 85.330053 
L 669.744377 80.591642 
L 687.463487 150.686124 
L 705.182596 206.365512 
L 722.901706 210.270935 
L 740.620815 179.690975 
L 758.339925 206.126335 
L 776.059034 212.204725 
L 793.778144 195.899583 
L 811.497253 204.142324 
L 829.216362 204.584624 
L 846.935472 207.570378 
L 864.654581 212.955723 
L 882.373691 214.004663 
L 893.005157 198.17029 
" clip-path="url(#p3384e904f1)" style="fill: none; stroke: #d9534f; stroke-linecap: square"/>
   </g>
   <g id="line2d_37">
    <path d="M 81.469943 55.49171 
L 85.013765 59.142077 
L 88.557587 47.67277 
L 92.101409 45.981939 
L 95.645231 59.319755 
L 99.189053 57.315516 
L 102.732875 63.186949 
L 106.276696 62.063184 
L 109.820518 67.814416 
L 120.451984 59.573789 
L 138.171093 64.872024 
L 155.890203 59.214478 
L 173.609312 53.103752 
L 191.328422 57.779465 
L 209.047531 59.01031 
L 226.766641 61.613416 
L 244.48575 60.468786 
L 262.20486 60.402167 
L 279.923969 58.777395 
L 297.643079 59.889936 
L 315.362188 57.808597 
L 333.081298 59.34237 
L 350.800407 60.072172 
L 368.519516 61.11407 
L 386.238626 60.954554 
L 403.957735 63.588689 
L 421.676845 60.814414 
L 439.395954 68.437882 
L 457.115064 73.137758 
L 474.834173 74.428651 
L 492.553283 68.187269 
L 510.272392 62.276057 
L 527.991502 65.662469 
L 545.710611 72.266959 
L 563.429721 62.749735 
L 581.14883 61.21262 
L 598.867939 63.010531 
L 616.587049 63.28549 
L 634.306158 77.196479 
L 652.025268 77.803183 
L 669.744377 77.431029 
L 687.463487 131.305544 
L 705.182596 182.62795 
L 722.901706 205.503841 
L 740.620815 193.407485 
L 758.339925 204.203829 
L 776.059034 201.331601 
L 793.778144 204.695667 
L 811.497253 204.540093 
L 829.216362 204.773918 
L 846.935472 208.291851 
L 864.654581 208.37441 
L 882.373691 212.926395 
L 893.005157 180.296482 
" clip-path="url(#p3384e904f1)" style="fill: none; stroke: #d9534f; stroke-linecap: square"/>
   </g>
   <g id="line2d_38">
    <path d="M 81.469943 67.404287 
L 85.013765 67.372198 
L 88.557587 59.959564 
L 92.101409 57.360328 
L 95.645231 70.902023 
L 99.189053 70.067701 
L 102.732875 77.737049 
L 106.276696 75.972137 
L 109.820518 83.160145 
L 120.451984 79.816438 
L 138.171093 81.375979 
L 155.890203 92.087395 
L 173.609312 79.360769 
L 191.328422 95.123045 
L 209.047531 94.378573 
L 226.766641 91.118298 
L 244.48575 91.150387 
L 262.20486 84.661926 
L 279.923969 95.411849 
L 297.643079 100.084055 
L 315.362188 94.14753 
L 333.081298 94.917674 
L 350.800407 105.173422 
L 368.519516 107.714896 
L 386.238626 105.475062 
L 403.957735 108.375936 
L 421.676845 101.457478 
L 439.395954 112.855606 
L 457.115064 113.645004 
L 474.834173 121.59032 
L 492.553283 116.834682 
L 510.272392 106.181027 
L 527.991502 104.088803 
L 545.710611 115.454841 
L 563.429721 109.922642 
L 581.14883 110.731293 
L 598.867939 109.646674 
L 616.587049 102.400904 
L 634.306158 122.456732 
L 652.025268 123.098519 
L 669.744377 119.935171 
L 687.463487 176.250639 
L 705.182596 199.975982 
L 722.901706 207.475793 
L 740.620815 202.6287 
L 758.339925 201.500761 
L 776.059034 215.310401 
L 793.778144 206.043004 
L 811.497253 198.177911 
L 829.216362 203.421307 
L 846.935472 205.738156 
L 864.654581 210.2804 
L 882.373691 210.326617 
L 893.005157 159.035353 
" clip-path="url(#p3384e904f1)" style="fill: none; stroke: #5cb85c; stroke-linecap: square"/>
   </g>
   <g id="line2d_39">
    <path d="M 38.058125 353.2239 
L 993.118125 353.2239 
" clip-path="url(#p3384e904f1)" style="fill: none; stroke: #dedede; stroke-width: 2; stroke-linecap: square"/>
   </g>
   <g id="text_18">
    <!-- FastQC: Mean Quality Scores -->
    <g transform="translate(400.349375 19.3575) scale(0.16 -0.16)">
     <defs>
      <path id="DejaVuSans-46" d="M 628 4666 
L 3309 4666 
L 3309 4134 
L 1259 4134 
L 1259 2759 
L 3109 2759 
L 3109 2228 
L 1259 2228 
L 1259 0 
L 628 0 
L 628 4666 
z
" transform="scale(0.015625)"/>
      <path id="DejaVuSans-61" d="M 2194 1759 
Q 1497 1759 1228 1600 
Q 959 1441 959 1056 
Q 959 750 1161 570 
Q 1363 391 1709 391 
Q 2188 391 2477 730 
Q 2766 1069 2766 1631 
L 2766 1759 
L 2194 1759 
z
M 3341 1997 
L 3341 0 
L 2766 0 
L 2766 531 
Q 2569 213 2275 61 
Q 1981 -91 1556 -91 
Q 1019 -91 701 211 
Q 384 513 384 1019 
Q 384 1609 779 1909 
Q 1175 2209 1959 2209 
L 2766 2209 
L 2766 2266 
Q 2766 2663 2505 2880 
Q 2244 3097 1772 3097 
Q 1472 3097 1187 3025 
Q 903 2953 641 2809 
L 641 3341 
Q 956 3463 1253 3523 
Q 1550 3584 1831 3584 
Q 2591 3584 2966 3190 
Q 3341 2797 3341 1997 
z
" transform="scale(0.015625)"/>
      <path id="DejaVuSans-51" d="M 2522 4238 
Q 1834 4238 1429 3725 
Q 1025 3213 1025 2328 
Q 1025 1447 1429 934 
Q 1834 422 2522 422 
Q 3209 422 3611 934 
Q 4013 1447 4013 2328 
Q 4013 3213 3611 3725 
Q 3209 4238 2522 4238 
z
M 3406 84 
L 4238 -825 
L 3475 -825 
L 2784 -78 
Q 2681 -84 2626 -87 
Q 2572 -91 2522 -91 
Q 1538 -91 948 567 
Q 359 1225 359 2328 
Q 359 3434 948 4092 
Q 1538 4750 2522 4750 
Q 3503 4750 4090 4092 
Q 4678 3434 4678 2328 
Q 4678 1516 4351 937 
Q 4025 359 3406 84 
z
" transform="scale(0.015625)"/>
      <path id="DejaVuSans-43" d="M 4122 4306 
L 4122 3641 
Q 3803 3938 3442 4084 
Q 3081 4231 2675 4231 
Q 1875 4231 1450 3742 
Q 1025 3253 1025 2328 
Q 1025 1406 1450 917 
Q 1875 428 2675 428 
Q 3081 428 3442 575 
Q 3803 722 4122 1019 
L 4122 359 
Q 3791 134 3420 21 
Q 3050 -91 2638 -91 
Q 1578 -91 968 557 
Q 359 1206 359 2328 
Q 359 3453 968 4101 
Q 1578 4750 2638 4750 
Q 3056 4750 3426 4639 
Q 3797 4528 4122 4306 
z
" transform="scale(0.015625)"/>
      <path id="DejaVuSans-3a" d="M 750 794 
L 1409 794 
L 1409 0 
L 750 0 
L 750 794 
z
M 750 3309 
L 1409 3309 
L 1409 2516 
L 750 2516 
L 750 3309 
z
" transform="scale(0.015625)"/>
      <path id="DejaVuSans-4d" d="M 628 4666 
L 1569 4666 
L 2759 1491 
L 3956 4666 
L 4897 4666 
L 4897 0 
L 4281 0 
L 4281 4097 
L 3078 897 
L 2444 897 
L 1241 4097 
L 1241 0 
L 628 0 
L 628 4666 
z
" transform="scale(0.015625)"/>
      <path id="DejaVuSans-75" d="M 544 1381 
L 544 3500 
L 1119 3500 
L 1119 1403 
Q 1119 906 1312 657 
Q 1506 409 1894 409 
Q 2359 409 2629 706 
Q 2900 1003 2900 1516 
L 2900 3500 
L 3475 3500 
L 3475 0 
L 2900 0 
L 2900 538 
Q 2691 219 2414 64 
Q 2138 -91 1772 -91 
Q 1169 -91 856 284 
Q 544 659 544 1381 
z
M 1991 3584 
L 1991 3584 
z
" transform="scale(0.015625)"/>
      <path id="DejaVuSans-6c" d="M 603 4863 
L 1178 4863 
L 1178 0 
L 603 0 
L 603 4863 
z
" transform="scale(0.015625)"/>
      <path id="DejaVuSans-79" d="M 2059 -325 
Q 1816 -950 1584 -1140 
Q 1353 -1331 966 -1331 
L 506 -1331 
L 506 -850 
L 844 -850 
Q 1081 -850 1212 -737 
Q 1344 -625 1503 -206 
L 1606 56 
L 191 3500 
L 800 3500 
L 1894 763 
L 2988 3500 
L 3597 3500 
L 2059 -325 
z
" transform="scale(0.015625)"/>
     </defs>
     <use xlink:href="#DejaVuSans-46"/>
     <use xlink:href="#DejaVuSans-61" x="48.394531"/>
     <use xlink:href="#DejaVuSans-73" x="109.673828"/>
     <use xlink:href="#DejaVuSans-74" x="161.773438"/>
     <use xlink:href="#DejaVuSans-51" x="200.982422"/>
     <use xlink:href="#DejaVuSans-43" x="279.693359"/>
     <use xlink:href="#DejaVuSans-3a" x="349.517578"/>
     <use xlink:href="#DejaVuSans-20" x="383.208984"/>
     <use xlink:href="#DejaVuSans-4d" x="414.996094"/>
     <use xlink:href="#DejaVuSans-65" x="501.275391"/>
     <use xlink:href="#DejaVuSans-61" x="562.798828"/>
     <use xlink:href="#DejaVuSans-6e" x="624.078125"/>
     <use xlink:href="#DejaVuSans-20" x="687.457031"/>
     <use xlink:href="#DejaVuSans-51" x="719.244141"/>
     <use xlink:href="#DejaVuSans-75" x="797.955078"/>
     <use xlink:href="#DejaVuSans-61" x="861.333984"/>
     <use xlink:href="#DejaVuSans-6c" x="922.613281"/>
     <use xlink:href="#DejaVuSans-69" x="950.396484"/>
     <use xlink:href="#DejaVuSans-74" x="978.179688"/>
     <use xlink:href="#DejaVuSans-79" x="1017.388672"/>
     <use xlink:href="#DejaVuSans-20" x="1076.568359"/>
     <use xlink:href="#DejaVuSans-53" x="1108.355469"/>
     <use xlink:href="#DejaVuSans-63" x="1171.832031"/>
     <use xlink:href="#DejaVuSans-6f" x="1226.8125"/>
     <use xlink:href="#DejaVuSans-72" x="1287.994141"/>
     <use xlink:href="#DejaVuSans-65" x="1326.857422"/>
     <use xlink:href="#DejaVuSans-73" x="1388.380859"/>
    </g>
   </g>
  </g>
 </g>
 <defs>
  <clipPath id="p3384e904f1">
   <rect x="38.058125" y="35.2559" width="955.06" height="317.968"/>
  </clipPath>
 </defs>
</svg>
