<?xml version="1.0" encoding="utf-8" standalone="no"?>
<!DOCTYPE svg PUBLIC "-//W3C//DTD SVG 1.1//EN"
  "http://www.w3.org/Graphics/SVG/1.1/DTD/svg11.dtd">
<svg xmlns:xlink="http://www.w3.org/1999/xlink" width="1000.158125pt" height="388.844525pt" viewBox="0 0 1000.158125 388.844525" xmlns="http://www.w3.org/2000/svg" version="1.1">
 <metadata>
  <rdf:RDF xmlns:dc="http://purl.org/dc/elements/1.1/" xmlns:cc="http://creativecommons.org/ns#" xmlns:rdf="http://www.w3.org/1999/02/22-rdf-syntax-ns#">
   <cc:Work>
    <dc:type rdf:resource="http://purl.org/dc/dcmitype/StillImage"/>
    <dc:date>2024-06-28T13:31:35.377042</dc:date>
    <dc:format>image/svg+xml</dc:format>
    <dc:creator>
     <cc:Agent>
      <dc:title>Matplotlib v3.7.1, https://matplotlib.org/</dc:title>
     </cc:Agent>
    </dc:creator>
   </cc:Work>
  </rdf:RDF>
 </metadata>
 <defs>
  <style type="text/css">*{stroke-linejoin: round; stroke-linecap: butt}</style>
 </defs>
 <g id="figure_1">
  <g id="axes_1">
   <g id="patch_1">
    <path d="M 58.418125 353.2239 
L 992.958125 353.2239 
L 992.958125 35.2559 
L 58.418125 35.2559 
z
" style="fill: #ffffff"/>
   </g>
   <g id="patch_2">
    <path d="M 722.558227 353.2239 
L 2430.347059 353.2239 
L 2430.347059 35.2559 
L 722.558227 35.2559 
z
" clip-path="url(#pb073484c68)" style="fill: #c3e6c3"/>
   </g>
   <g id="patch_3">
    <path d="M 532.803912 353.2239 
L 722.558227 353.2239 
L 722.558227 35.2559 
L 532.803912 35.2559 
z
" clip-path="url(#pb073484c68)" style="fill: #e6dcc3"/>
   </g>
   <g id="patch_4">
    <path d="M 58.418125 353.2239 
L 532.803912 353.2239 
L 532.803912 35.2559 
L 58.418125 35.2559 
z
" clip-path="url(#pb073484c68)" style="fill: #e6c3c3"/>
   </g>
   <g id="matplotlib.axis_1">
    <g id="xtick_1">
     <g id="text_1">
      <!-- 0 -->
      <g transform="translate(55.873125 366.30265) scale(0.08 -0.08)">
       <defs>
        <path id="DejaVuSans-30" d="M 2034 4250 
Q 1547 4250 1301 3770 
Q 1056 3291 1056 2328 
Q 1056 1369 1301 889 
Q 1547 409 2034 409 
Q 2525 409 2770 889 
Q 3016 1369 3016 2328 
Q 3016 3291 2770 3770 
Q 2525 4250 2034 4250 
z
M 2034 4750 
Q 2819 4750 3233 4129 
Q 3647 3509 3647 2328 
Q 3647 1150 3233 529 
Q 2819 -91 2034 -91 
Q 1250 -91 836 529 
Q 422 1150 422 2328 
Q 422 3509 836 4129 
Q 1250 4750 2034 4750 
z
" transform="scale(0.015625)"/>
       </defs>
       <use xlink:href="#DejaVuSans-30"/>
      </g>
     </g>
    </g>
    <g id="xtick_2">
     <g id="text_2">
      <!-- 5 -->
      <g transform="translate(174.469572 366.30265) scale(0.08 -0.08)">
       <defs>
        <path id="DejaVuSans-35" d="M 691 4666 
L 3169 4666 
L 3169 4134 
L 1269 4134 
L 1269 2991 
Q 1406 3038 1543 3061 
Q 1681 3084 1819 3084 
Q 2600 3084 3056 2656 
Q 3513 2228 3513 1497 
Q 3513 744 3044 326 
Q 2575 -91 1722 -91 
Q 1428 -91 1123 -41 
Q 819 9 494 109 
L 494 744 
Q 775 591 1075 516 
Q 1375 441 1709 441 
Q 2250 441 2565 725 
Q 2881 1009 2881 1497 
Q 2881 1984 2565 2268 
Q 2250 2553 1709 2553 
Q 1456 2553 1204 2497 
Q 953 2441 691 2322 
L 691 4666 
z
" transform="scale(0.015625)"/>
       </defs>
       <use xlink:href="#DejaVuSans-35"/>
      </g>
     </g>
    </g>
    <g id="xtick_3">
     <g id="text_3">
      <!-- 10 -->
      <g transform="translate(290.521018 366.30265) scale(0.08 -0.08)">
       <defs>
        <path id="DejaVuSans-31" d="M 794 531 
L 1825 531 
L 1825 4091 
L 703 3866 
L 703 4441 
L 1819 4666 
L 2450 4666 
L 2450 531 
L 3481 531 
L 3481 0 
L 794 0 
L 794 531 
z
" transform="scale(0.015625)"/>
       </defs>
       <use xlink:href="#DejaVuSans-31"/>
       <use xlink:href="#DejaVuSans-30" x="63.623047"/>
      </g>
     </g>
    </g>
    <g id="xtick_4">
     <g id="text_4">
      <!-- 15 -->
      <g transform="translate(409.117465 366.30265) scale(0.08 -0.08)">
       <use xlink:href="#DejaVuSans-31"/>
       <use xlink:href="#DejaVuSans-35" x="63.623047"/>
      </g>
     </g>
    </g>
    <g id="xtick_5">
     <g id="text_5">
      <!-- 20 -->
      <g transform="translate(527.713912 366.30265) scale(0.08 -0.08)">
       <defs>
        <path id="DejaVuSans-32" d="M 1228 531 
L 3431 531 
L 3431 0 
L 469 0 
L 469 531 
Q 828 903 1448 1529 
Q 2069 2156 2228 2338 
Q 2531 2678 2651 2914 
Q 2772 3150 2772 3378 
Q 2772 3750 2511 3984 
Q 2250 4219 1831 4219 
Q 1534 4219 1204 4116 
Q 875 4013 500 3803 
L 500 4441 
Q 881 4594 1212 4672 
Q 1544 4750 1819 4750 
Q 2544 4750 2975 4387 
Q 3406 4025 3406 3419 
Q 3406 3131 3298 2873 
Q 3191 2616 2906 2266 
Q 2828 2175 2409 1742 
Q 1991 1309 1228 531 
z
" transform="scale(0.015625)"/>
       </defs>
       <use xlink:href="#DejaVuSans-32"/>
       <use xlink:href="#DejaVuSans-30" x="63.623047"/>
      </g>
     </g>
    </g>
    <g id="xtick_6">
     <g id="text_6">
      <!-- 25 -->
      <g transform="translate(646.310359 366.30265) scale(0.08 -0.08)">
       <use xlink:href="#DejaVuSans-32"/>
       <use xlink:href="#DejaVuSans-35" x="63.623047"/>
      </g>
     </g>
    </g>
    <g id="xtick_7">
     <g id="text_7">
      <!-- 30 -->
      <g transform="translate(764.906805 366.30265) scale(0.08 -0.08)">
       <defs>
        <path id="DejaVuSans-33" d="M 2597 2516 
Q 3050 2419 3304 2112 
Q 3559 1806 3559 1356 
Q 3559 666 3084 287 
Q 2609 -91 1734 -91 
Q 1441 -91 1130 -33 
Q 819 25 488 141 
L 488 750 
Q 750 597 1062 519 
Q 1375 441 1716 441 
Q 2309 441 2620 675 
Q 2931 909 2931 1356 
Q 2931 1769 2642 2001 
Q 2353 2234 1838 2234 
L 1294 2234 
L 1294 2753 
L 1863 2753 
Q 2328 2753 2575 2939 
Q 2822 3125 2822 3475 
Q 2822 3834 2567 4026 
Q 2313 4219 1838 4219 
Q 1578 4219 1281 4162 
Q 984 4106 628 3988 
L 628 4550 
Q 988 4650 1302 4700 
Q 1616 4750 1894 4750 
Q 2613 4750 3031 4423 
Q 3450 4097 3450 3541 
Q 3450 3153 3228 2886 
Q 3006 2619 2597 2516 
z
" transform="scale(0.015625)"/>
       </defs>
       <use xlink:href="#DejaVuSans-33"/>
       <use xlink:href="#DejaVuSans-30" x="63.623047"/>
      </g>
     </g>
    </g>
    <g id="xtick_8">
     <g id="text_8">
      <!-- 35 -->
      <g transform="translate(883.503252 366.30265) scale(0.08 -0.08)">
       <use xlink:href="#DejaVuSans-33"/>
       <use xlink:href="#DejaVuSans-35" x="63.623047"/>
      </g>
     </g>
    </g>
    <g id="text_9">
     <!-- Mean Sequence Quality (Phred Score) -->
     <g transform="translate(430.895938 379.564837) scale(0.1 -0.1)">
      <defs>
       <path id="DejaVuSans-4d" d="M 628 4666 
L 1569 4666 
L 2759 1491 
L 3956 4666 
L 4897 4666 
L 4897 0 
L 4281 0 
L 4281 4097 
L 3078 897 
L 2444 897 
L 1241 4097 
L 1241 0 
L 628 0 
L 628 4666 
z
" transform="scale(0.015625)"/>
       <path id="DejaVuSans-65" d="M 3597 1894 
L 3597 1613 
L 953 1613 
Q 991 1019 1311 708 
Q 1631 397 2203 397 
Q 2534 397 2845 478 
Q 3156 559 3463 722 
L 3463 178 
Q 3153 47 2828 -22 
Q 2503 -91 2169 -91 
Q 1331 -91 842 396 
Q 353 884 353 1716 
Q 353 2575 817 3079 
Q 1281 3584 2069 3584 
Q 2775 3584 3186 3129 
Q 3597 2675 3597 1894 
z
M 3022 2063 
Q 3016 2534 2758 2815 
Q 2500 3097 2075 3097 
Q 1594 3097 1305 2825 
Q 1016 2553 972 2059 
L 3022 2063 
z
" transform="scale(0.015625)"/>
       <path id="DejaVuSans-61" d="M 2194 1759 
Q 1497 1759 1228 1600 
Q 959 1441 959 1056 
Q 959 750 1161 570 
Q 1363 391 1709 391 
Q 2188 391 2477 730 
Q 2766 1069 2766 1631 
L 2766 1759 
L 2194 1759 
z
M 3341 1997 
L 3341 0 
L 2766 0 
L 2766 531 
Q 2569 213 2275 61 
Q 1981 -91 1556 -91 
Q 1019 -91 701 211 
Q 384 513 384 1019 
Q 384 1609 779 1909 
Q 1175 2209 1959 2209 
L 2766 2209 
L 2766 2266 
Q 2766 2663 2505 2880 
Q 2244 3097 1772 3097 
Q 1472 3097 1187 3025 
Q 903 2953 641 2809 
L 641 3341 
Q 956 3463 1253 3523 
Q 1550 3584 1831 3584 
Q 2591 3584 2966 3190 
Q 3341 2797 3341 1997 
z
" transform="scale(0.015625)"/>
       <path id="DejaVuSans-6e" d="M 3513 2113 
L 3513 0 
L 2938 0 
L 2938 2094 
Q 2938 2591 2744 2837 
Q 2550 3084 2163 3084 
Q 1697 3084 1428 2787 
Q 1159 2491 1159 1978 
L 1159 0 
L 581 0 
L 581 3500 
L 1159 3500 
L 1159 2956 
Q 1366 3272 1645 3428 
Q 1925 3584 2291 3584 
Q 2894 3584 3203 3211 
Q 3513 2838 3513 2113 
z
" transform="scale(0.015625)"/>
       <path id="DejaVuSans-20" transform="scale(0.015625)"/>
       <path id="DejaVuSans-53" d="M 3425 4513 
L 3425 3897 
Q 3066 4069 2747 4153 
Q 2428 4238 2131 4238 
Q 1616 4238 1336 4038 
Q 1056 3838 1056 3469 
Q 1056 3159 1242 3001 
Q 1428 2844 1947 2747 
L 2328 2669 
Q 3034 2534 3370 2195 
Q 3706 1856 3706 1288 
Q 3706 609 3251 259 
Q 2797 -91 1919 -91 
Q 1588 -91 1214 -16 
Q 841 59 441 206 
L 441 856 
Q 825 641 1194 531 
Q 1563 422 1919 422 
Q 2459 422 2753 634 
Q 3047 847 3047 1241 
Q 3047 1584 2836 1778 
Q 2625 1972 2144 2069 
L 1759 2144 
Q 1053 2284 737 2584 
Q 422 2884 422 3419 
Q 422 4038 858 4394 
Q 1294 4750 2059 4750 
Q 2388 4750 2728 4690 
Q 3069 4631 3425 4513 
z
" transform="scale(0.015625)"/>
       <path id="DejaVuSans-71" d="M 947 1747 
Q 947 1113 1208 752 
Q 1469 391 1925 391 
Q 2381 391 2643 752 
Q 2906 1113 2906 1747 
Q 2906 2381 2643 2742 
Q 2381 3103 1925 3103 
Q 1469 3103 1208 2742 
Q 947 2381 947 1747 
z
M 2906 525 
Q 2725 213 2448 61 
Q 2172 -91 1784 -91 
Q 1150 -91 751 415 
Q 353 922 353 1747 
Q 353 2572 751 3078 
Q 1150 3584 1784 3584 
Q 2172 3584 2448 3432 
Q 2725 3281 2906 2969 
L 2906 3500 
L 3481 3500 
L 3481 -1331 
L 2906 -1331 
L 2906 525 
z
" transform="scale(0.015625)"/>
       <path id="DejaVuSans-75" d="M 544 1381 
L 544 3500 
L 1119 3500 
L 1119 1403 
Q 1119 906 1312 657 
Q 1506 409 1894 409 
Q 2359 409 2629 706 
Q 2900 1003 2900 1516 
L 2900 3500 
L 3475 3500 
L 3475 0 
L 2900 0 
L 2900 538 
Q 2691 219 2414 64 
Q 2138 -91 1772 -91 
Q 1169 -91 856 284 
Q 544 659 544 1381 
z
M 1991 3584 
L 1991 3584 
z
" transform="scale(0.015625)"/>
       <path id="DejaVuSans-63" d="M 3122 3366 
L 3122 2828 
Q 2878 2963 2633 3030 
Q 2388 3097 2138 3097 
Q 1578 3097 1268 2742 
Q 959 2388 959 1747 
Q 959 1106 1268 751 
Q 1578 397 2138 397 
Q 2388 397 2633 464 
Q 2878 531 3122 666 
L 3122 134 
Q 2881 22 2623 -34 
Q 2366 -91 2075 -91 
Q 1284 -91 818 406 
Q 353 903 353 1747 
Q 353 2603 823 3093 
Q 1294 3584 2113 3584 
Q 2378 3584 2631 3529 
Q 2884 3475 3122 3366 
z
" transform="scale(0.015625)"/>
       <path id="DejaVuSans-51" d="M 2522 4238 
Q 1834 4238 1429 3725 
Q 1025 3213 1025 2328 
Q 1025 1447 1429 934 
Q 1834 422 2522 422 
Q 3209 422 3611 934 
Q 4013 1447 4013 2328 
Q 4013 3213 3611 3725 
Q 3209 4238 2522 4238 
z
M 3406 84 
L 4238 -825 
L 3475 -825 
L 2784 -78 
Q 2681 -84 2626 -87 
Q 2572 -91 2522 -91 
Q 1538 -91 948 567 
Q 359 1225 359 2328 
Q 359 3434 948 4092 
Q 1538 4750 2522 4750 
Q 3503 4750 4090 4092 
Q 4678 3434 4678 2328 
Q 4678 1516 4351 937 
Q 4025 359 3406 84 
z
" transform="scale(0.015625)"/>
       <path id="DejaVuSans-6c" d="M 603 4863 
L 1178 4863 
L 1178 0 
L 603 0 
L 603 4863 
z
" transform="scale(0.015625)"/>
       <path id="DejaVuSans-69" d="M 603 3500 
L 1178 3500 
L 1178 0 
L 603 0 
L 603 3500 
z
M 603 4863 
L 1178 4863 
L 1178 4134 
L 603 4134 
L 603 4863 
z
" transform="scale(0.015625)"/>
       <path id="DejaVuSans-74" d="M 1172 4494 
L 1172 3500 
L 2356 3500 
L 2356 3053 
L 1172 3053 
L 1172 1153 
Q 1172 725 1289 603 
Q 1406 481 1766 481 
L 2356 481 
L 2356 0 
L 1766 0 
Q 1100 0 847 248 
Q 594 497 594 1153 
L 594 3053 
L 172 3053 
L 172 3500 
L 594 3500 
L 594 4494 
L 1172 4494 
z
" transform="scale(0.015625)"/>
       <path id="DejaVuSans-79" d="M 2059 -325 
Q 1816 -950 1584 -1140 
Q 1353 -1331 966 -1331 
L 506 -1331 
L 506 -850 
L 844 -850 
Q 1081 -850 1212 -737 
Q 1344 -625 1503 -206 
L 1606 56 
L 191 3500 
L 800 3500 
L 1894 763 
L 2988 3500 
L 3597 3500 
L 2059 -325 
z
" transform="scale(0.015625)"/>
       <path id="DejaVuSans-28" d="M 1984 4856 
Q 1566 4138 1362 3434 
Q 1159 2731 1159 2009 
Q 1159 1288 1364 580 
Q 1569 -128 1984 -844 
L 1484 -844 
Q 1016 -109 783 600 
Q 550 1309 550 2009 
Q 550 2706 781 3412 
Q 1013 4119 1484 4856 
L 1984 4856 
z
" transform="scale(0.015625)"/>
       <path id="DejaVuSans-50" d="M 1259 4147 
L 1259 2394 
L 2053 2394 
Q 2494 2394 2734 2622 
Q 2975 2850 2975 3272 
Q 2975 3691 2734 3919 
Q 2494 4147 2053 4147 
L 1259 4147 
z
M 628 4666 
L 2053 4666 
Q 2838 4666 3239 4311 
Q 3641 3956 3641 3272 
Q 3641 2581 3239 2228 
Q 2838 1875 2053 1875 
L 1259 1875 
L 1259 0 
L 628 0 
L 628 4666 
z
" transform="scale(0.015625)"/>
       <path id="DejaVuSans-68" d="M 3513 2113 
L 3513 0 
L 2938 0 
L 2938 2094 
Q 2938 2591 2744 2837 
Q 2550 3084 2163 3084 
Q 1697 3084 1428 2787 
Q 1159 2491 1159 1978 
L 1159 0 
L 581 0 
L 581 4863 
L 1159 4863 
L 1159 2956 
Q 1366 3272 1645 3428 
Q 1925 3584 2291 3584 
Q 2894 3584 3203 3211 
Q 3513 2838 3513 2113 
z
" transform="scale(0.015625)"/>
       <path id="DejaVuSans-72" d="M 2631 2963 
Q 2534 3019 2420 3045 
Q 2306 3072 2169 3072 
Q 1681 3072 1420 2755 
Q 1159 2438 1159 1844 
L 1159 0 
L 581 0 
L 581 3500 
L 1159 3500 
L 1159 2956 
Q 1341 3275 1631 3429 
Q 1922 3584 2338 3584 
Q 2397 3584 2469 3576 
Q 2541 3569 2628 3553 
L 2631 2963 
z
" transform="scale(0.015625)"/>
       <path id="DejaVuSans-64" d="M 2906 2969 
L 2906 4863 
L 3481 4863 
L 3481 0 
L 2906 0 
L 2906 525 
Q 2725 213 2448 61 
Q 2172 -91 1784 -91 
Q 1150 -91 751 415 
Q 353 922 353 1747 
Q 353 2572 751 3078 
Q 1150 3584 1784 3584 
Q 2172 3584 2448 3432 
Q 2725 3281 2906 2969 
z
M 947 1747 
Q 947 1113 1208 752 
Q 1469 391 1925 391 
Q 2381 391 2643 752 
Q 2906 1113 2906 1747 
Q 2906 2381 2643 2742 
Q 2381 3103 1925 3103 
Q 1469 3103 1208 2742 
Q 947 2381 947 1747 
z
" transform="scale(0.015625)"/>
       <path id="DejaVuSans-6f" d="M 1959 3097 
Q 1497 3097 1228 2736 
Q 959 2375 959 1747 
Q 959 1119 1226 758 
Q 1494 397 1959 397 
Q 2419 397 2687 759 
Q 2956 1122 2956 1747 
Q 2956 2369 2687 2733 
Q 2419 3097 1959 3097 
z
M 1959 3584 
Q 2709 3584 3137 3096 
Q 3566 2609 3566 1747 
Q 3566 888 3137 398 
Q 2709 -91 1959 -91 
Q 1206 -91 779 398 
Q 353 888 353 1747 
Q 353 2609 779 3096 
Q 1206 3584 1959 3584 
z
" transform="scale(0.015625)"/>
       <path id="DejaVuSans-29" d="M 513 4856 
L 1013 4856 
Q 1481 4119 1714 3412 
Q 1947 2706 1947 2009 
Q 1947 1309 1714 600 
Q 1481 -109 1013 -844 
L 513 -844 
Q 928 -128 1133 580 
Q 1338 1288 1338 2009 
Q 1338 2731 1133 3434 
Q 928 4138 513 4856 
z
" transform="scale(0.015625)"/>
      </defs>
      <use xlink:href="#DejaVuSans-4d"/>
      <use xlink:href="#DejaVuSans-65" x="86.279297"/>
      <use xlink:href="#DejaVuSans-61" x="147.802734"/>
      <use xlink:href="#DejaVuSans-6e" x="209.082031"/>
      <use xlink:href="#DejaVuSans-20" x="272.460938"/>
      <use xlink:href="#DejaVuSans-53" x="304.248047"/>
      <use xlink:href="#DejaVuSans-65" x="367.724609"/>
      <use xlink:href="#DejaVuSans-71" x="429.248047"/>
      <use xlink:href="#DejaVuSans-75" x="492.724609"/>
      <use xlink:href="#DejaVuSans-65" x="556.103516"/>
      <use xlink:href="#DejaVuSans-6e" x="617.626953"/>
      <use xlink:href="#DejaVuSans-63" x="681.005859"/>
      <use xlink:href="#DejaVuSans-65" x="735.986328"/>
      <use xlink:href="#DejaVuSans-20" x="797.509766"/>
      <use xlink:href="#DejaVuSans-51" x="829.296875"/>
      <use xlink:href="#DejaVuSans-75" x="908.007812"/>
      <use xlink:href="#DejaVuSans-61" x="971.386719"/>
      <use xlink:href="#DejaVuSans-6c" x="1032.666016"/>
      <use xlink:href="#DejaVuSans-69" x="1060.449219"/>
      <use xlink:href="#DejaVuSans-74" x="1088.232422"/>
      <use xlink:href="#DejaVuSans-79" x="1127.441406"/>
      <use xlink:href="#DejaVuSans-20" x="1186.621094"/>
      <use xlink:href="#DejaVuSans-28" x="1218.408203"/>
      <use xlink:href="#DejaVuSans-50" x="1257.421875"/>
      <use xlink:href="#DejaVuSans-68" x="1317.724609"/>
      <use xlink:href="#DejaVuSans-72" x="1381.103516"/>
      <use xlink:href="#DejaVuSans-65" x="1419.966797"/>
      <use xlink:href="#DejaVuSans-64" x="1481.490234"/>
      <use xlink:href="#DejaVuSans-20" x="1544.966797"/>
      <use xlink:href="#DejaVuSans-53" x="1576.753906"/>
      <use xlink:href="#DejaVuSans-63" x="1640.230469"/>
      <use xlink:href="#DejaVuSans-6f" x="1695.210938"/>
      <use xlink:href="#DejaVuSans-72" x="1756.392578"/>
      <use xlink:href="#DejaVuSans-65" x="1795.255859"/>
      <use xlink:href="#DejaVuSans-29" x="1856.779297"/>
     </g>
    </g>
   </g>
   <g id="matplotlib.axis_2">
    <g id="ytick_1">
     <g id="line2d_1">
      <path d="M 58.418125 353.2239 
L 992.958125 353.2239 
" clip-path="url(#pb073484c68)" style="fill: none; stroke: #dedede; stroke-linecap: square"/>
     </g>
     <g id="text_10">
      <!-- 0 -->
      <g transform="translate(46.328125 356.263275) scale(0.08 -0.08)">
       <use xlink:href="#DejaVuSans-30"/>
      </g>
     </g>
    </g>
    <g id="ytick_2">
     <g id="line2d_2">
      <path d="M 58.418125 309.965729 
L 992.958125 309.965729 
" clip-path="url(#pb073484c68)" style="fill: none; stroke: #dedede; stroke-linecap: square"/>
     </g>
     <g id="text_11">
      <!-- 20000 -->
      <g transform="translate(25.968125 313.005104) scale(0.08 -0.08)">
       <use xlink:href="#DejaVuSans-32"/>
       <use xlink:href="#DejaVuSans-30" x="63.623047"/>
       <use xlink:href="#DejaVuSans-30" x="127.246094"/>
       <use xlink:href="#DejaVuSans-30" x="190.869141"/>
       <use xlink:href="#DejaVuSans-30" x="254.492188"/>
      </g>
     </g>
    </g>
    <g id="ytick_3">
     <g id="line2d_3">
      <path d="M 58.418125 266.707557 
L 992.958125 266.707557 
" clip-path="url(#pb073484c68)" style="fill: none; stroke: #dedede; stroke-linecap: square"/>
     </g>
     <g id="text_12">
      <!-- 40000 -->
      <g transform="translate(25.968125 269.746932) scale(0.08 -0.08)">
       <defs>
        <path id="DejaVuSans-34" d="M 2419 4116 
L 825 1625 
L 2419 1625 
L 2419 4116 
z
M 2253 4666 
L 3047 4666 
L 3047 1625 
L 3713 1625 
L 3713 1100 
L 3047 1100 
L 3047 0 
L 2419 0 
L 2419 1100 
L 313 1100 
L 313 1709 
L 2253 4666 
z
" transform="scale(0.015625)"/>
       </defs>
       <use xlink:href="#DejaVuSans-34"/>
       <use xlink:href="#DejaVuSans-30" x="63.623047"/>
       <use xlink:href="#DejaVuSans-30" x="127.246094"/>
       <use xlink:href="#DejaVuSans-30" x="190.869141"/>
       <use xlink:href="#DejaVuSans-30" x="254.492188"/>
      </g>
     </g>
    </g>
    <g id="ytick_4">
     <g id="line2d_4">
      <path d="M 58.418125 223.449386 
L 992.958125 223.449386 
" clip-path="url(#pb073484c68)" style="fill: none; stroke: #dedede; stroke-linecap: square"/>
     </g>
     <g id="text_13">
      <!-- 60000 -->
      <g transform="translate(25.968125 226.488761) scale(0.08 -0.08)">
       <defs>
        <path id="DejaVuSans-36" d="M 2113 2584 
Q 1688 2584 1439 2293 
Q 1191 2003 1191 1497 
Q 1191 994 1439 701 
Q 1688 409 2113 409 
Q 2538 409 2786 701 
Q 3034 994 3034 1497 
Q 3034 2003 2786 2293 
Q 2538 2584 2113 2584 
z
M 3366 4563 
L 3366 3988 
Q 3128 4100 2886 4159 
Q 2644 4219 2406 4219 
Q 1781 4219 1451 3797 
Q 1122 3375 1075 2522 
Q 1259 2794 1537 2939 
Q 1816 3084 2150 3084 
Q 2853 3084 3261 2657 
Q 3669 2231 3669 1497 
Q 3669 778 3244 343 
Q 2819 -91 2113 -91 
Q 1303 -91 875 529 
Q 447 1150 447 2328 
Q 447 3434 972 4092 
Q 1497 4750 2381 4750 
Q 2619 4750 2861 4703 
Q 3103 4656 3366 4563 
z
" transform="scale(0.015625)"/>
       </defs>
       <use xlink:href="#DejaVuSans-36"/>
       <use xlink:href="#DejaVuSans-30" x="63.623047"/>
       <use xlink:href="#DejaVuSans-30" x="127.246094"/>
       <use xlink:href="#DejaVuSans-30" x="190.869141"/>
       <use xlink:href="#DejaVuSans-30" x="254.492188"/>
      </g>
     </g>
    </g>
    <g id="ytick_5">
     <g id="line2d_5">
      <path d="M 58.418125 180.191214 
L 992.958125 180.191214 
" clip-path="url(#pb073484c68)" style="fill: none; stroke: #dedede; stroke-linecap: square"/>
     </g>
     <g id="text_14">
      <!-- 80000 -->
      <g transform="translate(25.968125 183.230589) scale(0.08 -0.08)">
       <defs>
        <path id="DejaVuSans-38" d="M 2034 2216 
Q 1584 2216 1326 1975 
Q 1069 1734 1069 1313 
Q 1069 891 1326 650 
Q 1584 409 2034 409 
Q 2484 409 2743 651 
Q 3003 894 3003 1313 
Q 3003 1734 2745 1975 
Q 2488 2216 2034 2216 
z
M 1403 2484 
Q 997 2584 770 2862 
Q 544 3141 544 3541 
Q 544 4100 942 4425 
Q 1341 4750 2034 4750 
Q 2731 4750 3128 4425 
Q 3525 4100 3525 3541 
Q 3525 3141 3298 2862 
Q 3072 2584 2669 2484 
Q 3125 2378 3379 2068 
Q 3634 1759 3634 1313 
Q 3634 634 3220 271 
Q 2806 -91 2034 -91 
Q 1263 -91 848 271 
Q 434 634 434 1313 
Q 434 1759 690 2068 
Q 947 2378 1403 2484 
z
M 1172 3481 
Q 1172 3119 1398 2916 
Q 1625 2713 2034 2713 
Q 2441 2713 2670 2916 
Q 2900 3119 2900 3481 
Q 2900 3844 2670 4047 
Q 2441 4250 2034 4250 
Q 1625 4250 1398 4047 
Q 1172 3844 1172 3481 
z
" transform="scale(0.015625)"/>
       </defs>
       <use xlink:href="#DejaVuSans-38"/>
       <use xlink:href="#DejaVuSans-30" x="63.623047"/>
       <use xlink:href="#DejaVuSans-30" x="127.246094"/>
       <use xlink:href="#DejaVuSans-30" x="190.869141"/>
       <use xlink:href="#DejaVuSans-30" x="254.492188"/>
      </g>
     </g>
    </g>
    <g id="ytick_6">
     <g id="line2d_6">
      <path d="M 58.418125 136.933043 
L 992.958125 136.933043 
" clip-path="url(#pb073484c68)" style="fill: none; stroke: #dedede; stroke-linecap: square"/>
     </g>
     <g id="text_15">
      <!-- 100000 -->
      <g transform="translate(20.878125 139.972418) scale(0.08 -0.08)">
       <use xlink:href="#DejaVuSans-31"/>
       <use xlink:href="#DejaVuSans-30" x="63.623047"/>
       <use xlink:href="#DejaVuSans-30" x="127.246094"/>
       <use xlink:href="#DejaVuSans-30" x="190.869141"/>
       <use xlink:href="#DejaVuSans-30" x="254.492188"/>
       <use xlink:href="#DejaVuSans-30" x="318.115234"/>
      </g>
     </g>
    </g>
    <g id="ytick_7">
     <g id="line2d_7">
      <path d="M 58.418125 93.674871 
L 992.958125 93.674871 
" clip-path="url(#pb073484c68)" style="fill: none; stroke: #dedede; stroke-linecap: square"/>
     </g>
     <g id="text_16">
      <!-- 120000 -->
      <g transform="translate(20.878125 96.714246) scale(0.08 -0.08)">
       <use xlink:href="#DejaVuSans-31"/>
       <use xlink:href="#DejaVuSans-32" x="63.623047"/>
       <use xlink:href="#DejaVuSans-30" x="127.246094"/>
       <use xlink:href="#DejaVuSans-30" x="190.869141"/>
       <use xlink:href="#DejaVuSans-30" x="254.492188"/>
       <use xlink:href="#DejaVuSans-30" x="318.115234"/>
      </g>
     </g>
    </g>
    <g id="ytick_8">
     <g id="line2d_8">
      <path d="M 58.418125 50.4167 
L 992.958125 50.4167 
" clip-path="url(#pb073484c68)" style="fill: none; stroke: #dedede; stroke-linecap: square"/>
     </g>
     <g id="text_17">
      <!-- 140000 -->
      <g transform="translate(20.878125 53.456075) scale(0.08 -0.08)">
       <use xlink:href="#DejaVuSans-31"/>
       <use xlink:href="#DejaVuSans-34" x="63.623047"/>
       <use xlink:href="#DejaVuSans-30" x="127.246094"/>
       <use xlink:href="#DejaVuSans-30" x="190.869141"/>
       <use xlink:href="#DejaVuSans-30" x="254.492188"/>
       <use xlink:href="#DejaVuSans-30" x="318.115234"/>
      </g>
     </g>
    </g>
    <g id="text_18">
     <!-- Count -->
     <g transform="translate(14.798438 209.088338) rotate(-90) scale(0.1 -0.1)">
      <defs>
       <path id="DejaVuSans-43" d="M 4122 4306 
L 4122 3641 
Q 3803 3938 3442 4084 
Q 3081 4231 2675 4231 
Q 1875 4231 1450 3742 
Q 1025 3253 1025 2328 
Q 1025 1406 1450 917 
Q 1875 428 2675 428 
Q 3081 428 3442 575 
Q 3803 722 4122 1019 
L 4122 359 
Q 3791 134 3420 21 
Q 3050 -91 2638 -91 
Q 1578 -91 968 557 
Q 359 1206 359 2328 
Q 359 3453 968 4101 
Q 1578 4750 2638 4750 
Q 3056 4750 3426 4639 
Q 3797 4528 4122 4306 
z
" transform="scale(0.015625)"/>
      </defs>
      <use xlink:href="#DejaVuSans-43"/>
      <use xlink:href="#DejaVuSans-6f" x="69.824219"/>
      <use xlink:href="#DejaVuSans-75" x="131.005859"/>
      <use xlink:href="#DejaVuSans-6e" x="194.384766"/>
      <use xlink:href="#DejaVuSans-74" x="257.763672"/>
     </g>
    </g>
   </g>
   <g id="line2d_9">
    <path d="M 509.084622 353.221737 
L 532.803912 353.213085 
L 556.523201 353.210923 
L 580.24249 353.206597 
L 603.96178 353.213085 
L 627.681069 353.197945 
L 651.400359 353.193619 
L 675.119648 353.193619 
L 698.838937 353.193619 
L 722.558227 353.169827 
L 746.277516 353.161176 
L 769.996805 353.143872 
L 793.716095 353.141709 
L 817.435384 353.05303 
L 841.154673 353.076822 
L 864.873963 353.066008 
L 888.593252 352.960025 
L 912.312541 352.823762 
L 936.031831 352.551235 
L 959.75112 353.098451 
" clip-path="url(#pb073484c68)" style="fill: none; stroke: #5cb85c; stroke-linecap: square"/>
   </g>
   <g id="line2d_10">
    <path d="M 509.084622 353.221737 
L 532.803912 353.217411 
L 556.523201 353.219574 
L 580.24249 353.219574 
L 603.96178 353.213085 
L 627.681069 353.215248 
L 651.400359 353.219574 
L 675.119648 353.217411 
L 698.838937 353.221737 
L 722.558227 353.221737 
L 746.277516 353.2239 
L 769.996805 353.217411 
L 793.716095 353.221737 
L 817.435384 353.217411 
L 841.154673 353.210923 
L 864.873963 353.217411 
L 888.593252 353.217411 
L 912.312541 353.217411 
L 936.031831 353.20876 
L 959.75112 353.161176 
" clip-path="url(#pb073484c68)" style="fill: none; stroke: #5cb85c; stroke-linecap: square"/>
   </g>
   <g id="line2d_11">
    <path d="M 461.646044 353.221737 
L 485.365333 353.221737 
L 509.084622 353.200108 
L 532.803912 353.189293 
L 556.523201 353.174153 
L 580.24249 353.150361 
L 603.96178 353.141709 
L 627.681069 353.148198 
L 651.400359 353.12008 
L 675.119648 353.124406 
L 698.838937 353.107103 
L 722.558227 353.055193 
L 746.277516 353.061682 
L 769.996805 352.968677 
L 793.716095 352.927582 
L 817.435384 352.892975 
L 841.154673 352.752386 
L 864.873963 352.624774 
L 888.593252 352.37604 
L 912.312541 351.902363 
L 936.031831 350.673831 
L 959.75112 353.161176 
" clip-path="url(#pb073484c68)" style="fill: none; stroke: #5cb85c; stroke-linecap: square"/>
   </g>
   <g id="line2d_12">
    <path d="M 509.084622 353.219574 
L 532.803912 353.210923 
L 556.523201 353.195782 
L 580.24249 353.189293 
L 603.96178 353.204434 
L 627.681069 353.202271 
L 651.400359 353.206597 
L 675.119648 353.20876 
L 698.838937 353.193619 
L 722.558227 353.197945 
L 746.277516 353.206597 
L 769.996805 353.210923 
L 793.716095 353.206597 
L 817.435384 353.213085 
L 841.154673 353.204434 
L 864.873963 353.215248 
L 888.593252 353.200108 
L 912.312541 353.219574 
L 936.031831 353.195782 
L 959.75112 353.191456 
" clip-path="url(#pb073484c68)" style="fill: none; stroke: #f0ad4e; stroke-linecap: square"/>
   </g>
   <g id="line2d_13">
    <path d="M 509.084622 353.221737 
L 532.803912 353.213085 
L 556.523201 353.219574 
L 580.24249 353.213085 
L 603.96178 353.20876 
L 627.681069 353.206597 
L 651.400359 353.20876 
L 675.119648 353.204434 
L 698.838937 353.20876 
L 722.558227 353.200108 
L 746.277516 353.202271 
L 769.996805 353.195782 
L 793.716095 353.197945 
L 817.435384 353.210923 
L 841.154673 353.191456 
L 864.873963 353.195782 
L 888.593252 353.189293 
L 912.312541 353.202271 
L 936.031831 353.178479 
L 959.75112 353.193619 
" clip-path="url(#pb073484c68)" style="fill: none; stroke: #5cb85c; stroke-linecap: square"/>
   </g>
   <g id="line2d_14">
    <path d="M 485.365333 353.221737 
L 509.084622 353.217411 
L 532.803912 353.217411 
L 556.523201 353.215248 
L 580.24249 353.217411 
L 603.96178 353.215248 
L 627.681069 353.217411 
L 651.400359 353.217411 
L 675.119648 353.221737 
L 698.838937 353.215248 
L 722.558227 353.221737 
L 746.277516 353.2239 
L 769.996805 353.2239 
L 793.716095 353.219574 
L 817.435384 353.221737 
L 841.154673 353.221737 
L 864.873963 353.2239 
L 888.593252 353.2239 
L 912.312541 353.221737 
L 936.031831 353.210923 
L 959.75112 353.204434 
" clip-path="url(#pb073484c68)" style="fill: none; stroke: #5cb85c; stroke-linecap: square"/>
   </g>
   <g id="line2d_15">
    <path d="M 532.803912 353.217411 
L 556.523201 353.221737 
L 580.24249 353.221737 
L 603.96178 353.221737 
L 627.681069 353.215248 
L 651.400359 353.2239 
L 675.119648 353.2239 
L 698.838937 353.221737 
L 722.558227 353.221737 
L 746.277516 353.2239 
L 769.996805 353.2239 
L 793.716095 353.2239 
L 817.435384 353.2239 
L 841.154673 353.2239 
L 864.873963 353.221737 
L 888.593252 353.221737 
L 912.312541 353.217411 
L 936.031831 353.219574 
L 959.75112 353.210923 
" clip-path="url(#pb073484c68)" style="fill: none; stroke: #5cb85c; stroke-linecap: square"/>
   </g>
   <g id="line2d_16">
    <path d="M 485.365333 353.215248 
L 509.084622 353.055193 
L 532.803912 352.592331 
L 556.523201 352.161912 
L 580.24249 351.939132 
L 603.96178 351.40922 
L 627.681069 350.978801 
L 651.400359 350.332091 
L 675.119648 349.449625 
L 698.838937 348.292468 
L 722.558227 347.061773 
L 746.277516 345.662372 
L 769.996805 343.910416 
L 793.716095 341.524728 
L 817.435384 338.583172 
L 841.154673 333.855054 
L 864.873963 328.151464 
L 888.593252 317.166051 
L 912.312541 295.686206 
L 936.031831 228.856657 
L 959.75112 50.397233 
" clip-path="url(#pb073484c68)" style="fill: none; stroke: #5cb85c; stroke-linecap: square"/>
   </g>
   <g id="line2d_17">
    <path d="M 343.049597 353.221737 
L 366.768886 353.221737 
L 390.488176 353.2239 
L 414.207465 353.2239 
L 437.926754 353.221737 
L 461.646044 353.204434 
L 485.365333 352.886486 
L 509.084622 350.375349 
L 532.803912 342.190903 
L 556.523201 327.597759 
L 580.24249 309.437979 
L 603.96178 311.616028 
L 627.681069 319.607975 
L 651.400359 330.15648 
L 675.119648 336.623577 
L 698.838937 338.005675 
L 722.558227 337.748289 
L 746.277516 336.508943 
L 769.996805 335.377741 
L 793.716095 334.527718 
L 817.435384 332.535679 
L 841.154673 329.771482 
L 864.873963 324.597805 
L 888.593252 315.941845 
L 912.312541 298.973827 
L 936.031831 251.80728 
L 959.75112 316.374427 
" clip-path="url(#pb073484c68)" style="fill: none; stroke: #5cb85c; stroke-linecap: square"/>
   </g>
   <g id="line2d_18">
    <path d="M 343.049597 353.221737 
L 366.768886 353.221737 
L 390.488176 353.221737 
L 414.207465 353.2239 
L 437.926754 353.219574 
L 461.646044 353.2239 
L 485.365333 353.184968 
L 509.084622 352.719942 
L 532.803912 351.681746 
L 556.523201 350.952846 
L 580.24249 350.526753 
L 603.96178 349.146817 
L 627.681069 347.968032 
L 651.400359 346.704894 
L 675.119648 344.743135 
L 698.838937 342.500199 
L 722.558227 339.96527 
L 746.277516 336.870148 
L 769.996805 331.875992 
L 793.716095 329.384322 
L 817.435384 327.803236 
L 841.154673 322.008803 
L 864.873963 312.794813 
L 888.593252 297.630661 
L 912.312541 268.057212 
L 936.031831 166.975843 
L 959.75112 62.414353 
" clip-path="url(#pb073484c68)" style="fill: none; stroke: #5cb85c; stroke-linecap: square"/>
   </g>
   <g id="line2d_19">
    <path d="M 390.488176 353.221737 
L 414.207465 353.2239 
L 437.926754 353.219574 
L 461.646044 353.2239 
L 485.365333 353.169827 
L 509.084622 352.533932 
L 532.803912 350.775487 
L 556.523201 348.893757 
L 580.24249 346.650821 
L 603.96178 342.976039 
L 627.681069 342.517503 
L 651.400359 345.969505 
L 675.119648 346.670287 
L 698.838937 346.33071 
L 722.558227 345.515294 
L 746.277516 344.325694 
L 769.996805 342.78354 
L 793.716095 341.803743 
L 817.435384 339.6603 
L 841.154673 336.242905 
L 864.873963 331.025969 
L 888.593252 323.888371 
L 912.312541 308.581467 
L 936.031831 258.774008 
L 959.75112 228.804747 
" clip-path="url(#pb073484c68)" style="fill: none; stroke: #5cb85c; stroke-linecap: square"/>
   </g>
   <g id="line2d_20">
    <path d="M 366.768886 353.221737 
L 390.488176 353.2239 
L 414.207465 353.2239 
L 437.926754 353.2239 
L 461.646044 353.217411 
L 485.365333 353.178479 
L 509.084622 352.685336 
L 532.803912 350.98529 
L 556.523201 348.216767 
L 580.24249 343.071207 
L 603.96178 340.689845 
L 627.681069 344.585243 
L 651.400359 347.172082 
L 675.119648 348.201626 
L 698.838937 348.383311 
L 722.558227 348.320586 
L 746.277516 347.838258 
L 769.996805 347.012027 
L 793.716095 345.895966 
L 817.435384 344.578754 
L 841.154673 342.350959 
L 864.873963 339.000613 
L 888.593252 333.061266 
L 912.312541 322.408942 
L 936.031831 289.768488 
L 959.75112 205.890894 
" clip-path="url(#pb073484c68)" style="fill: none; stroke: #5cb85c; stroke-linecap: square"/>
   </g>
   <g id="line2d_21">
    <path d="M 343.049597 353.221737 
L 366.768886 353.2239 
L 390.488176 353.221737 
L 414.207465 353.2239 
L 437.926754 353.2239 
L 461.646044 353.197945 
L 485.365333 353.027075 
L 509.084622 351.394079 
L 532.803912 345.779169 
L 556.523201 337.620678 
L 580.24249 324.660529 
L 603.96178 317.222287 
L 627.681069 320.49693 
L 651.400359 330.506871 
L 675.119648 337.114557 
L 698.838937 338.466375 
L 722.558227 338.332274 
L 746.277516 337.415201 
L 769.996805 335.680549 
L 793.716095 335.048979 
L 817.435384 332.996379 
L 841.154673 330.033194 
L 864.873963 325.229374 
L 888.593252 317.142259 
L 912.312541 302.280914 
L 936.031831 261.077506 
L 959.75112 301.575806 
" clip-path="url(#pb073484c68)" style="fill: none; stroke: #5cb85c; stroke-linecap: square"/>
   </g>
   <g id="line2d_22">
    <path d="M 461.646044 353.221737 
L 485.365333 353.202271 
L 509.084622 353.014098 
L 532.803912 352.490674 
L 556.523201 352.077558 
L 580.24249 351.921829 
L 603.96178 351.084783 
L 627.681069 350.340743 
L 651.400359 350.191502 
L 675.119648 349.596702 
L 698.838937 348.824544 
L 722.558227 347.838258 
L 746.277516 346.847646 
L 769.996805 344.987544 
L 793.716095 343.361037 
L 817.435384 340.754732 
L 841.154673 337.352477 
L 864.873963 332.150682 
L 888.593252 323.73913 
L 912.312541 306.295273 
L 936.031831 249.36103 
L 959.75112 119.143119 
" clip-path="url(#pb073484c68)" style="fill: none; stroke: #5cb85c; stroke-linecap: square"/>
   </g>
   <g id="line2d_23">
    <path d="M 366.768886 353.221737 
L 390.488176 353.2239 
L 414.207465 353.2239 
L 437.926754 353.2239 
L 461.646044 353.219574 
L 485.365333 353.161176 
L 509.084622 352.754549 
L 532.803912 351.867756 
L 556.523201 349.903835 
L 580.24249 345.610462 
L 603.96178 332.472955 
L 627.681069 315.152383 
L 651.400359 335.042491 
L 675.119648 348.562832 
L 698.838937 350.425096 
L 722.558227 350.554871 
L 746.277516 350.135267 
L 769.996805 349.681056 
L 793.716095 349.136003 
L 817.435384 347.952892 
L 841.154673 346.800062 
L 864.873963 344.451143 
L 888.593252 341.308437 
L 912.312541 333.999969 
L 936.031831 309.578568 
L 959.75112 247.583119 
" clip-path="url(#pb073484c68)" style="fill: none; stroke: #5cb85c; stroke-linecap: square"/>
   </g>
   <g id="line2d_24">
    <path d="M 461.646044 353.221737 
L 485.365333 353.20876 
L 509.084622 353.009772 
L 532.803912 352.334945 
L 556.523201 351.962924 
L 580.24249 351.571438 
L 603.96178 350.693297 
L 627.681069 350.159059 
L 651.400359 349.516675 
L 675.119648 348.670977 
L 698.838937 347.561405 
L 722.558227 346.464811 
L 746.277516 344.596058 
L 769.996805 342.063292 
L 793.716095 339.504571 
L 817.435384 336.513268 
L 841.154673 332.036048 
L 864.873963 325.906365 
L 888.593252 315.059378 
L 912.312541 293.960205 
L 936.031831 225.785327 
L 959.75112 97.648134 
" clip-path="url(#pb073484c68)" style="fill: none; stroke: #5cb85c; stroke-linecap: square"/>
   </g>
   <g id="line2d_25">
    <path d="M 485.365333 353.143872 
L 509.084622 352.401995 
L 532.803912 350.293159 
L 556.523201 348.212441 
L 580.24249 344.825326 
L 603.96178 341.001304 
L 627.681069 338.291179 
L 651.400359 338.364718 
L 675.119648 336.859334 
L 698.838937 332.609218 
L 722.558227 326.812623 
L 746.277516 316.296562 
L 769.996805 306.277969 
L 793.716095 332.808206 
L 817.435384 342.39638 
L 841.154673 340.393526 
L 864.873963 337.557953 
L 888.593252 331.834897 
L 912.312541 323.204892 
L 936.031831 296.981788 
L 959.75112 259.081141 
" clip-path="url(#pb073484c68)" style="fill: none; stroke: #5cb85c; stroke-linecap: square"/>
   </g>
   <g id="line2d_26">
    <path d="M 343.049597 353.221737 
L 366.768886 353.221737 
L 390.488176 353.2239 
L 414.207465 353.221737 
L 437.926754 353.2239 
L 461.646044 353.219574 
L 485.365333 353.189293 
L 509.084622 352.69615 
L 532.803912 351.448152 
L 556.523201 350.864167 
L 580.24249 350.329928 
L 603.96178 349.726477 
L 627.681069 349.518838 
L 651.400359 349.010554 
L 675.119648 348.045897 
L 698.838937 346.947139 
L 722.558227 345.893803 
L 746.277516 344.5528 
L 769.996805 342.889523 
L 793.716095 340.50816 
L 817.435384 337.873738 
L 841.154673 333.846402 
L 864.873963 327.980594 
L 888.593252 318.334022 
L 912.312541 298.015659 
L 936.031831 222.828631 
L 959.75112 226.367149 
" clip-path="url(#pb073484c68)" style="fill: none; stroke: #5cb85c; stroke-linecap: square"/>
   </g>
   <g id="line2d_27">
    <path d="M 414.207465 353.221737 
L 437.926754 353.2239 
L 461.646044 353.2239 
L 485.365333 353.20876 
L 509.084622 353.044379 
L 532.803912 352.588005 
L 556.523201 352.434438 
L 580.24249 352.239777 
L 603.96178 351.96725 
L 627.681069 351.534668 
L 651.400359 351.022059 
L 675.119648 350.725741 
L 698.838937 350.180688 
L 722.558227 349.800016 
L 746.277516 349.077604 
L 769.996805 347.86205 
L 793.716095 346.559979 
L 817.435384 344.730158 
L 841.154673 342.450452 
L 864.873963 338.922749 
L 888.593252 333.876683 
L 912.312541 322.614418 
L 936.031831 289.188829 
L 959.75112 223.912248 
" clip-path="url(#pb073484c68)" style="fill: none; stroke: #5cb85c; stroke-linecap: square"/>
   </g>
   <g id="line2d_28">
    <path d="M 366.768886 353.221737 
L 390.488176 353.2239 
L 414.207465 353.2239 
L 437.926754 353.2239 
L 461.646044 353.2239 
L 485.365333 353.213085 
L 509.084622 353.094125 
L 532.803912 352.726431 
L 556.523201 352.33927 
L 580.24249 351.908852 
L 603.96178 351.218884 
L 627.681069 351.42436 
L 651.400359 351.400568 
L 675.119648 350.872818 
L 698.838937 350.515938 
L 722.558227 349.977374 
L 746.277516 349.229008 
L 769.996805 348.076178 
L 793.716095 346.65731 
L 817.435384 344.879399 
L 841.154673 342.214695 
L 864.873963 338.28469 
L 888.593252 331.7181 
L 912.312541 317.263382 
L 936.031831 272.791819 
L 959.75112 173.827937 
" clip-path="url(#pb073484c68)" style="fill: none; stroke: #5cb85c; stroke-linecap: square"/>
   </g>
   <g id="line2d_29">
    <path d="M 461.646044 353.221737 
L 485.365333 353.191456 
L 509.084622 352.676684 
L 532.803912 350.959335 
L 556.523201 348.638534 
L 580.24249 344.907517 
L 603.96178 340.979675 
L 627.681069 341.297622 
L 651.400359 344.689063 
L 675.119648 346.890904 
L 698.838937 346.964443 
L 722.558227 346.793573 
L 746.277516 346.056021 
L 769.996805 345.569367 
L 793.716095 344.944286 
L 817.435384 343.68331 
L 841.154673 341.875119 
L 864.873963 338.570194 
L 888.593252 333.123991 
L 912.312541 322.138578 
L 936.031831 288.607006 
L 959.75112 289.156385 
" clip-path="url(#pb073484c68)" style="fill: none; stroke: #5cb85c; stroke-linecap: square"/>
   </g>
   <g id="line2d_30">
    <path d="M 485.365333 353.219574 
L 509.084622 353.135221 
L 532.803912 352.86702 
L 556.523201 352.523118 
L 580.24249 351.856942 
L 603.96178 351.385428 
L 627.681069 351.29026 
L 651.400359 351.240513 
L 675.119648 350.745207 
L 698.838937 349.931953 
L 722.558227 349.265777 
L 746.277516 348.002639 
L 769.996805 346.780595 
L 793.716095 345.050268 
L 817.435384 342.867894 
L 841.154673 339.346679 
L 864.873963 335.159288 
L 888.593252 327.041892 
L 912.312541 311.747965 
L 936.031831 260.729278 
L 959.75112 135.364934 
" clip-path="url(#pb073484c68)" style="fill: none; stroke: #5cb85c; stroke-linecap: square"/>
   </g>
   <g id="line2d_31">
    <path d="M 461.646044 353.221737 
L 485.365333 353.215248 
L 509.084622 353.126569 
L 532.803912 352.854043 
L 556.523201 352.39118 
L 580.24249 351.861268 
L 603.96178 351.112901 
L 627.681069 350.892285 
L 651.400359 351.212395 
L 675.119648 351.130204 
L 698.838937 350.645713 
L 722.558227 350.191502 
L 746.277516 349.475579 
L 769.996805 348.42008 
L 793.716095 347.037981 
L 817.435384 345.495828 
L 841.154673 342.993342 
L 864.873963 339.549992 
L 888.593252 334.175164 
L 912.312541 322.378661 
L 936.031831 285.390761 
L 959.75112 160.015603 
" clip-path="url(#pb073484c68)" style="fill: none; stroke: #5cb85c; stroke-linecap: square"/>
   </g>
   <g id="line2d_32">
    <path d="M 390.488176 353.221737 
L 414.207465 353.2239 
L 437.926754 353.2239 
L 461.646044 353.217411 
L 485.365333 353.102777 
L 509.084622 352.321967 
L 532.803912 349.694033 
L 556.523201 346.021414 
L 580.24249 339.376959 
L 603.96178 335.258781 
L 627.681069 337.919159 
L 651.400359 342.971713 
L 675.119648 345.802961 
L 698.838937 346.689753 
L 722.558227 346.6054 
L 746.277516 345.932735 
L 769.996805 345.335772 
L 793.716095 344.423025 
L 817.435384 343.484323 
L 841.154673 341.823209 
L 864.873963 339.11741 
L 888.593252 334.108114 
L 912.312541 325.636001 
L 936.031831 302.698356 
L 959.75112 309.32767 
" clip-path="url(#pb073484c68)" style="fill: none; stroke: #5cb85c; stroke-linecap: square"/>
   </g>
   <g id="line2d_33">
    <path d="M 390.488176 353.221737 
L 414.207465 353.221737 
L 437.926754 353.2239 
L 461.646044 353.2239 
L 485.365333 353.187131 
L 509.084622 352.838902 
L 532.803912 351.606044 
L 556.523201 350.295322 
L 580.24249 348.484967 
L 603.96178 345.809449 
L 627.681069 345.725096 
L 651.400359 347.717135 
L 675.119648 348.718561 
L 698.838937 348.811567 
L 722.558227 348.056711 
L 746.277516 347.124498 
L 769.996805 345.960853 
L 793.716095 344.122381 
L 817.435384 342.318515 
L 841.154673 339.772772 
L 864.873963 336.09799 
L 888.593252 330.015891 
L 912.312541 317.79762 
L 936.031831 282.85367 
L 959.75112 205.203089 
" clip-path="url(#pb073484c68)" style="fill: none; stroke: #5cb85c; stroke-linecap: square"/>
   </g>
   <g id="line2d_34">
    <path d="M 343.049597 353.221737 
L 366.768886 353.2239 
L 390.488176 353.2239 
L 414.207465 353.2239 
L 437.926754 353.2239 
L 461.646044 353.217411 
L 485.365333 353.128732 
L 509.084622 352.300338 
L 532.803912 349.408529 
L 556.523201 344.717181 
L 580.24249 337.910507 
L 603.96178 335.611335 
L 627.681069 336.303466 
L 651.400359 339.952293 
L 675.119648 343.345897 
L 698.838937 344.284599 
L 722.558227 344.187268 
L 746.277516 343.527581 
L 769.996805 343.159886 
L 793.716095 342.041663 
L 817.435384 341.055376 
L 841.154673 339.257999 
L 864.873963 336.688464 
L 888.593252 333.342444 
L 912.312541 328.770056 
L 936.031831 317.209309 
L 959.75112 320.659148 
" clip-path="url(#pb073484c68)" style="fill: none; stroke: #5cb85c; stroke-linecap: square"/>
   </g>
   <g id="line2d_35">
    <path d="M 461.646044 353.221737 
L 485.365333 353.20876 
L 509.084622 353.096288 
L 532.803912 352.750223 
L 556.523201 352.337107 
L 580.24249 351.694724 
L 603.96178 350.669505 
L 627.681069 350.009818 
L 651.400359 349.87788 
L 675.119648 349.652938 
L 698.838937 349.341479 
L 722.558227 348.932689 
L 746.277516 347.855561 
L 769.996805 346.700568 
L 793.716095 345.145436 
L 817.435384 343.402132 
L 841.154673 340.700659 
L 864.873963 337.077787 
L 888.593252 331.525601 
L 912.312541 319.984321 
L 936.031831 279.695823 
L 959.75112 234.542944 
" clip-path="url(#pb073484c68)" style="fill: none; stroke: #5cb85c; stroke-linecap: square"/>
   </g>
   <g id="line2d_36">
    <path d="M 461.646044 353.221737 
L 485.365333 353.210923 
L 509.084622 353.083311 
L 532.803912 352.678847 
L 556.523201 352.246265 
L 580.24249 351.474107 
L 603.96178 350.74737 
L 627.681069 351.024222 
L 651.400359 350.950683 
L 675.119648 350.641387 
L 698.838937 350.120126 
L 722.558227 349.763246 
L 746.277516 348.900246 
L 769.996805 347.69118 
L 793.716095 346.274475 
L 817.435384 344.113729 
L 841.154673 341.49661 
L 864.873963 337.294078 
L 888.593252 330.805353 
L 912.312541 316.675071 
L 936.031831 273.8192 
L 959.75112 172.770275 
" clip-path="url(#pb073484c68)" style="fill: none; stroke: #5cb85c; stroke-linecap: square"/>
   </g>
   <g id="line2d_37">
    <path d="M 295.611018 353.221737 
L 319.330308 353.2239 
L 343.049597 353.2239 
L 366.768886 353.2239 
L 390.488176 353.2239 
L 414.207465 353.2239 
L 437.926754 353.2239 
L 461.646044 353.2239 
L 485.365333 353.2239 
L 509.084622 353.217411 
L 532.803912 353.20876 
L 556.523201 353.202271 
L 580.24249 353.200108 
L 603.96178 353.202271 
L 627.681069 353.200108 
L 651.400359 353.204434 
L 675.119648 353.204434 
L 698.838937 353.206597 
L 722.558227 353.206597 
L 746.277516 353.204434 
L 769.996805 353.20876 
L 793.716095 353.197945 
L 817.435384 353.202271 
L 841.154673 353.204434 
L 864.873963 353.195782 
L 888.593252 353.204434 
L 912.312541 353.189293 
L 936.031831 353.165501 
L 959.75112 353.12008 
" clip-path="url(#pb073484c68)" style="fill: none; stroke: #5cb85c; stroke-linecap: square"/>
   </g>
   <g id="line2d_38">
    <path d="M 58.418125 353.2239 
L 992.958125 353.2239 
" clip-path="url(#pb073484c68)" style="fill: none; stroke: #dedede; stroke-width: 2; stroke-linecap: square"/>
   </g>
   <g id="text_19">
    <!-- FastQC: Per Sequence Quality Scores -->
    <g transform="translate(377.495625 19.3575) scale(0.16 -0.16)">
     <defs>
      <path id="DejaVuSans-46" d="M 628 4666 
L 3309 4666 
L 3309 4134 
L 1259 4134 
L 1259 2759 
L 3109 2759 
L 3109 2228 
L 1259 2228 
L 1259 0 
L 628 0 
L 628 4666 
z
" transform="scale(0.015625)"/>
      <path id="DejaVuSans-73" d="M 2834 3397 
L 2834 2853 
Q 2591 2978 2328 3040 
Q 2066 3103 1784 3103 
Q 1356 3103 1142 2972 
Q 928 2841 928 2578 
Q 928 2378 1081 2264 
Q 1234 2150 1697 2047 
L 1894 2003 
Q 2506 1872 2764 1633 
Q 3022 1394 3022 966 
Q 3022 478 2636 193 
Q 2250 -91 1575 -91 
Q 1294 -91 989 -36 
Q 684 19 347 128 
L 347 722 
Q 666 556 975 473 
Q 1284 391 1588 391 
Q 1994 391 2212 530 
Q 2431 669 2431 922 
Q 2431 1156 2273 1281 
Q 2116 1406 1581 1522 
L 1381 1569 
Q 847 1681 609 1914 
Q 372 2147 372 2553 
Q 372 3047 722 3315 
Q 1072 3584 1716 3584 
Q 2034 3584 2315 3537 
Q 2597 3491 2834 3397 
z
" transform="scale(0.015625)"/>
      <path id="DejaVuSans-3a" d="M 750 794 
L 1409 794 
L 1409 0 
L 750 0 
L 750 794 
z
M 750 3309 
L 1409 3309 
L 1409 2516 
L 750 2516 
L 750 3309 
z
" transform="scale(0.015625)"/>
     </defs>
     <use xlink:href="#DejaVuSans-46"/>
     <use xlink:href="#DejaVuSans-61" x="48.394531"/>
     <use xlink:href="#DejaVuSans-73" x="109.673828"/>
     <use xlink:href="#DejaVuSans-74" x="161.773438"/>
     <use xlink:href="#DejaVuSans-51" x="200.982422"/>
     <use xlink:href="#DejaVuSans-43" x="279.693359"/>
     <use xlink:href="#DejaVuSans-3a" x="349.517578"/>
     <use xlink:href="#DejaVuSans-20" x="383.208984"/>
     <use xlink:href="#DejaVuSans-50" x="414.996094"/>
     <use xlink:href="#DejaVuSans-65" x="471.673828"/>
     <use xlink:href="#DejaVuSans-72" x="533.197266"/>
     <use xlink:href="#DejaVuSans-20" x="574.310547"/>
     <use xlink:href="#DejaVuSans-53" x="606.097656"/>
     <use xlink:href="#DejaVuSans-65" x="669.574219"/>
     <use xlink:href="#DejaVuSans-71" x="731.097656"/>
     <use xlink:href="#DejaVuSans-75" x="794.574219"/>
     <use xlink:href="#DejaVuSans-65" x="857.953125"/>
     <use xlink:href="#DejaVuSans-6e" x="919.476562"/>
     <use xlink:href="#DejaVuSans-63" x="982.855469"/>
     <use xlink:href="#DejaVuSans-65" x="1037.835938"/>
     <use xlink:href="#DejaVuSans-20" x="1099.359375"/>
     <use xlink:href="#DejaVuSans-51" x="1131.146484"/>
     <use xlink:href="#DejaVuSans-75" x="1209.857422"/>
     <use xlink:href="#DejaVuSans-61" x="1273.236328"/>
     <use xlink:href="#DejaVuSans-6c" x="1334.515625"/>
     <use xlink:href="#DejaVuSans-69" x="1362.298828"/>
     <use xlink:href="#DejaVuSans-74" x="1390.082031"/>
     <use xlink:href="#DejaVuSans-79" x="1429.291016"/>
     <use xlink:href="#DejaVuSans-20" x="1488.470703"/>
     <use xlink:href="#DejaVuSans-53" x="1520.257812"/>
     <use xlink:href="#DejaVuSans-63" x="1583.734375"/>
     <use xlink:href="#DejaVuSans-6f" x="1638.714844"/>
     <use xlink:href="#DejaVuSans-72" x="1699.896484"/>
     <use xlink:href="#DejaVuSans-65" x="1738.759766"/>
     <use xlink:href="#DejaVuSans-73" x="1800.283203"/>
    </g>
   </g>
  </g>
 </g>
 <defs>
  <clipPath id="pb073484c68">
   <rect x="58.418125" y="35.2559" width="934.54" height="317.968"/>
  </clipPath>
 </defs>
</svg>
