<?xml version="1.0" encoding="utf-8" standalone="no"?>
<!DOCTYPE svg PUBLIC "-//W3C//DTD SVG 1.1//EN"
  "http://www.w3.org/Graphics/SVG/1.1/DTD/svg11.dtd">
<svg xmlns:xlink="http://www.w3.org/1999/xlink" width="1000.098125pt" height="388.844525pt" viewBox="0 0 1000.098125 388.844525" xmlns="http://www.w3.org/2000/svg" version="1.1">
 <metadata>
  <rdf:RDF xmlns:dc="http://purl.org/dc/elements/1.1/" xmlns:cc="http://creativecommons.org/ns#" xmlns:rdf="http://www.w3.org/1999/02/22-rdf-syntax-ns#">
   <cc:Work>
    <dc:type rdf:resource="http://purl.org/dc/dcmitype/StillImage"/>
    <dc:date>2024-06-28T13:31:36.221315</dc:date>
    <dc:format>image/svg+xml</dc:format>
    <dc:creator>
     <cc:Agent>
      <dc:title>Matplotlib v3.7.1, https://matplotlib.org/</dc:title>
     </cc:Agent>
    </dc:creator>
   </cc:Work>
  </rdf:RDF>
 </metadata>
 <defs>
  <style type="text/css">*{stroke-linejoin: round; stroke-linecap: butt}</style>
 </defs>
 <g id="figure_1">
  <g id="axes_1">
   <g id="patch_1">
    <path d="M 58.418125 353.2239 
L 985.263125 353.2239 
L 985.263125 35.2559 
L 58.418125 35.2559 
z
" style="fill: #ffffff"/>
   </g>
   <g id="matplotlib.axis_1">
    <g id="xtick_1">
     <g id="text_1">
      <!-- 0 -->
      <g transform="translate(55.873125 366.30265) scale(0.08 -0.08)">
       <defs>
        <path id="DejaVuSans-30" d="M 2034 4250 
Q 1547 4250 1301 3770 
Q 1056 3291 1056 2328 
Q 1056 1369 1301 889 
Q 1547 409 2034 409 
Q 2525 409 2770 889 
Q 3016 1369 3016 2328 
Q 3016 3291 2770 3770 
Q 2525 4250 2034 4250 
z
M 2034 4750 
Q 2819 4750 3233 4129 
Q 3647 3509 3647 2328 
Q 3647 1150 3233 529 
Q 2819 -91 2034 -91 
Q 1250 -91 836 529 
Q 422 1150 422 2328 
Q 422 3509 836 4129 
Q 1250 4750 2034 4750 
z
" transform="scale(0.015625)"/>
       </defs>
       <use xlink:href="#DejaVuSans-30"/>
      </g>
     </g>
    </g>
    <g id="xtick_2">
     <g id="text_2">
      <!-- 20 -->
      <g transform="translate(238.697125 366.30265) scale(0.08 -0.08)">
       <defs>
        <path id="DejaVuSans-32" d="M 1228 531 
L 3431 531 
L 3431 0 
L 469 0 
L 469 531 
Q 828 903 1448 1529 
Q 2069 2156 2228 2338 
Q 2531 2678 2651 2914 
Q 2772 3150 2772 3378 
Q 2772 3750 2511 3984 
Q 2250 4219 1831 4219 
Q 1534 4219 1204 4116 
Q 875 4013 500 3803 
L 500 4441 
Q 881 4594 1212 4672 
Q 1544 4750 1819 4750 
Q 2544 4750 2975 4387 
Q 3406 4025 3406 3419 
Q 3406 3131 3298 2873 
Q 3191 2616 2906 2266 
Q 2828 2175 2409 1742 
Q 1991 1309 1228 531 
z
" transform="scale(0.015625)"/>
       </defs>
       <use xlink:href="#DejaVuSans-32"/>
       <use xlink:href="#DejaVuSans-30" x="63.623047"/>
      </g>
     </g>
    </g>
    <g id="xtick_3">
     <g id="text_3">
      <!-- 40 -->
      <g transform="translate(424.066125 366.30265) scale(0.08 -0.08)">
       <defs>
        <path id="DejaVuSans-34" d="M 2419 4116 
L 825 1625 
L 2419 1625 
L 2419 4116 
z
M 2253 4666 
L 3047 4666 
L 3047 1625 
L 3713 1625 
L 3713 1100 
L 3047 1100 
L 3047 0 
L 2419 0 
L 2419 1100 
L 313 1100 
L 313 1709 
L 2253 4666 
z
" transform="scale(0.015625)"/>
       </defs>
       <use xlink:href="#DejaVuSans-34"/>
       <use xlink:href="#DejaVuSans-30" x="63.623047"/>
      </g>
     </g>
    </g>
    <g id="xtick_4">
     <g id="text_4">
      <!-- 60 -->
      <g transform="translate(609.435125 366.30265) scale(0.08 -0.08)">
       <defs>
        <path id="DejaVuSans-36" d="M 2113 2584 
Q 1688 2584 1439 2293 
Q 1191 2003 1191 1497 
Q 1191 994 1439 701 
Q 1688 409 2113 409 
Q 2538 409 2786 701 
Q 3034 994 3034 1497 
Q 3034 2003 2786 2293 
Q 2538 2584 2113 2584 
z
M 3366 4563 
L 3366 3988 
Q 3128 4100 2886 4159 
Q 2644 4219 2406 4219 
Q 1781 4219 1451 3797 
Q 1122 3375 1075 2522 
Q 1259 2794 1537 2939 
Q 1816 3084 2150 3084 
Q 2853 3084 3261 2657 
Q 3669 2231 3669 1497 
Q 3669 778 3244 343 
Q 2819 -91 2113 -91 
Q 1303 -91 875 529 
Q 447 1150 447 2328 
Q 447 3434 972 4092 
Q 1497 4750 2381 4750 
Q 2619 4750 2861 4703 
Q 3103 4656 3366 4563 
z
" transform="scale(0.015625)"/>
       </defs>
       <use xlink:href="#DejaVuSans-36"/>
       <use xlink:href="#DejaVuSans-30" x="63.623047"/>
      </g>
     </g>
    </g>
    <g id="xtick_5">
     <g id="text_5">
      <!-- 80 -->
      <g transform="translate(794.804125 366.30265) scale(0.08 -0.08)">
       <defs>
        <path id="DejaVuSans-38" d="M 2034 2216 
Q 1584 2216 1326 1975 
Q 1069 1734 1069 1313 
Q 1069 891 1326 650 
Q 1584 409 2034 409 
Q 2484 409 2743 651 
Q 3003 894 3003 1313 
Q 3003 1734 2745 1975 
Q 2488 2216 2034 2216 
z
M 1403 2484 
Q 997 2584 770 2862 
Q 544 3141 544 3541 
Q 544 4100 942 4425 
Q 1341 4750 2034 4750 
Q 2731 4750 3128 4425 
Q 3525 4100 3525 3541 
Q 3525 3141 3298 2862 
Q 3072 2584 2669 2484 
Q 3125 2378 3379 2068 
Q 3634 1759 3634 1313 
Q 3634 634 3220 271 
Q 2806 -91 2034 -91 
Q 1263 -91 848 271 
Q 434 634 434 1313 
Q 434 1759 690 2068 
Q 947 2378 1403 2484 
z
M 1172 3481 
Q 1172 3119 1398 2916 
Q 1625 2713 2034 2713 
Q 2441 2713 2670 2916 
Q 2900 3119 2900 3481 
Q 2900 3844 2670 4047 
Q 2441 4250 2034 4250 
Q 1625 4250 1398 4047 
Q 1172 3844 1172 3481 
z
" transform="scale(0.015625)"/>
       </defs>
       <use xlink:href="#DejaVuSans-38"/>
       <use xlink:href="#DejaVuSans-30" x="63.623047"/>
      </g>
     </g>
    </g>
    <g id="xtick_6">
     <g id="text_6">
      <!-- 100 -->
      <g transform="translate(977.628125 366.30265) scale(0.08 -0.08)">
       <defs>
        <path id="DejaVuSans-31" d="M 794 531 
L 1825 531 
L 1825 4091 
L 703 3866 
L 703 4441 
L 1819 4666 
L 2450 4666 
L 2450 531 
L 3481 531 
L 3481 0 
L 794 0 
L 794 531 
z
" transform="scale(0.015625)"/>
       </defs>
       <use xlink:href="#DejaVuSans-31"/>
       <use xlink:href="#DejaVuSans-30" x="63.623047"/>
       <use xlink:href="#DejaVuSans-30" x="127.246094"/>
      </g>
     </g>
    </g>
    <g id="text_7">
     <!-- % GC -->
     <g transform="translate(508.135156 379.564837) scale(0.1 -0.1)">
      <defs>
       <path id="DejaVuSans-25" d="M 4653 2053 
Q 4381 2053 4226 1822 
Q 4072 1591 4072 1178 
Q 4072 772 4226 539 
Q 4381 306 4653 306 
Q 4919 306 5073 539 
Q 5228 772 5228 1178 
Q 5228 1588 5073 1820 
Q 4919 2053 4653 2053 
z
M 4653 2450 
Q 5147 2450 5437 2106 
Q 5728 1763 5728 1178 
Q 5728 594 5436 251 
Q 5144 -91 4653 -91 
Q 4153 -91 3862 251 
Q 3572 594 3572 1178 
Q 3572 1766 3864 2108 
Q 4156 2450 4653 2450 
z
M 1428 4353 
Q 1159 4353 1004 4120 
Q 850 3888 850 3481 
Q 850 3069 1003 2837 
Q 1156 2606 1428 2606 
Q 1700 2606 1854 2837 
Q 2009 3069 2009 3481 
Q 2009 3884 1853 4118 
Q 1697 4353 1428 4353 
z
M 4250 4750 
L 4750 4750 
L 1831 -91 
L 1331 -91 
L 4250 4750 
z
M 1428 4750 
Q 1922 4750 2215 4408 
Q 2509 4066 2509 3481 
Q 2509 2891 2217 2550 
Q 1925 2209 1428 2209 
Q 931 2209 642 2551 
Q 353 2894 353 3481 
Q 353 4063 643 4406 
Q 934 4750 1428 4750 
z
" transform="scale(0.015625)"/>
       <path id="DejaVuSans-20" transform="scale(0.015625)"/>
       <path id="DejaVuSans-47" d="M 3809 666 
L 3809 1919 
L 2778 1919 
L 2778 2438 
L 4434 2438 
L 4434 434 
Q 4069 175 3628 42 
Q 3188 -91 2688 -91 
Q 1594 -91 976 548 
Q 359 1188 359 2328 
Q 359 3472 976 4111 
Q 1594 4750 2688 4750 
Q 3144 4750 3555 4637 
Q 3966 4525 4313 4306 
L 4313 3634 
Q 3963 3931 3569 4081 
Q 3175 4231 2741 4231 
Q 1884 4231 1454 3753 
Q 1025 3275 1025 2328 
Q 1025 1384 1454 906 
Q 1884 428 2741 428 
Q 3075 428 3337 486 
Q 3600 544 3809 666 
z
" transform="scale(0.015625)"/>
       <path id="DejaVuSans-43" d="M 4122 4306 
L 4122 3641 
Q 3803 3938 3442 4084 
Q 3081 4231 2675 4231 
Q 1875 4231 1450 3742 
Q 1025 3253 1025 2328 
Q 1025 1406 1450 917 
Q 1875 428 2675 428 
Q 3081 428 3442 575 
Q 3803 722 4122 1019 
L 4122 359 
Q 3791 134 3420 21 
Q 3050 -91 2638 -91 
Q 1578 -91 968 557 
Q 359 1206 359 2328 
Q 359 3453 968 4101 
Q 1578 4750 2638 4750 
Q 3056 4750 3426 4639 
Q 3797 4528 4122 4306 
z
" transform="scale(0.015625)"/>
      </defs>
      <use xlink:href="#DejaVuSans-25"/>
      <use xlink:href="#DejaVuSans-20" x="95.019531"/>
      <use xlink:href="#DejaVuSans-47" x="126.806641"/>
      <use xlink:href="#DejaVuSans-43" x="204.296875"/>
     </g>
    </g>
   </g>
   <g id="matplotlib.axis_2">
    <g id="ytick_1">
     <g id="line2d_1">
      <path d="M 58.418125 353.2239 
L 985.263125 353.2239 
" clip-path="url(#p2f57118dd6)" style="fill: none; stroke: #dedede; stroke-linecap: square"/>
     </g>
     <g id="text_8">
      <!-- 0 -->
      <g transform="translate(46.328125 356.263275) scale(0.08 -0.08)">
       <use xlink:href="#DejaVuSans-30"/>
      </g>
     </g>
    </g>
    <g id="ytick_2">
     <g id="line2d_2">
      <path d="M 58.418125 304.496813 
L 985.263125 304.496813 
" clip-path="url(#p2f57118dd6)" style="fill: none; stroke: #dedede; stroke-linecap: square"/>
     </g>
     <g id="text_9">
      <!-- 20000 -->
      <g transform="translate(25.968125 307.536188) scale(0.08 -0.08)">
       <use xlink:href="#DejaVuSans-32"/>
       <use xlink:href="#DejaVuSans-30" x="63.623047"/>
       <use xlink:href="#DejaVuSans-30" x="127.246094"/>
       <use xlink:href="#DejaVuSans-30" x="190.869141"/>
       <use xlink:href="#DejaVuSans-30" x="254.492188"/>
      </g>
     </g>
    </g>
    <g id="ytick_3">
     <g id="line2d_3">
      <path d="M 58.418125 255.769725 
L 985.263125 255.769725 
" clip-path="url(#p2f57118dd6)" style="fill: none; stroke: #dedede; stroke-linecap: square"/>
     </g>
     <g id="text_10">
      <!-- 40000 -->
      <g transform="translate(25.968125 258.8091) scale(0.08 -0.08)">
       <use xlink:href="#DejaVuSans-34"/>
       <use xlink:href="#DejaVuSans-30" x="63.623047"/>
       <use xlink:href="#DejaVuSans-30" x="127.246094"/>
       <use xlink:href="#DejaVuSans-30" x="190.869141"/>
       <use xlink:href="#DejaVuSans-30" x="254.492188"/>
      </g>
     </g>
    </g>
    <g id="ytick_4">
     <g id="line2d_4">
      <path d="M 58.418125 207.042638 
L 985.263125 207.042638 
" clip-path="url(#p2f57118dd6)" style="fill: none; stroke: #dedede; stroke-linecap: square"/>
     </g>
     <g id="text_11">
      <!-- 60000 -->
      <g transform="translate(25.968125 210.082013) scale(0.08 -0.08)">
       <use xlink:href="#DejaVuSans-36"/>
       <use xlink:href="#DejaVuSans-30" x="63.623047"/>
       <use xlink:href="#DejaVuSans-30" x="127.246094"/>
       <use xlink:href="#DejaVuSans-30" x="190.869141"/>
       <use xlink:href="#DejaVuSans-30" x="254.492188"/>
      </g>
     </g>
    </g>
    <g id="ytick_5">
     <g id="line2d_5">
      <path d="M 58.418125 158.31555 
L 985.263125 158.31555 
" clip-path="url(#p2f57118dd6)" style="fill: none; stroke: #dedede; stroke-linecap: square"/>
     </g>
     <g id="text_12">
      <!-- 80000 -->
      <g transform="translate(25.968125 161.354925) scale(0.08 -0.08)">
       <use xlink:href="#DejaVuSans-38"/>
       <use xlink:href="#DejaVuSans-30" x="63.623047"/>
       <use xlink:href="#DejaVuSans-30" x="127.246094"/>
       <use xlink:href="#DejaVuSans-30" x="190.869141"/>
       <use xlink:href="#DejaVuSans-30" x="254.492188"/>
      </g>
     </g>
    </g>
    <g id="ytick_6">
     <g id="line2d_6">
      <path d="M 58.418125 109.588463 
L 985.263125 109.588463 
" clip-path="url(#p2f57118dd6)" style="fill: none; stroke: #dedede; stroke-linecap: square"/>
     </g>
     <g id="text_13">
      <!-- 100000 -->
      <g transform="translate(20.878125 112.627838) scale(0.08 -0.08)">
       <use xlink:href="#DejaVuSans-31"/>
       <use xlink:href="#DejaVuSans-30" x="63.623047"/>
       <use xlink:href="#DejaVuSans-30" x="127.246094"/>
       <use xlink:href="#DejaVuSans-30" x="190.869141"/>
       <use xlink:href="#DejaVuSans-30" x="254.492188"/>
       <use xlink:href="#DejaVuSans-30" x="318.115234"/>
      </g>
     </g>
    </g>
    <g id="ytick_7">
     <g id="line2d_7">
      <path d="M 58.418125 60.861375 
L 985.263125 60.861375 
" clip-path="url(#p2f57118dd6)" style="fill: none; stroke: #dedede; stroke-linecap: square"/>
     </g>
     <g id="text_14">
      <!-- 120000 -->
      <g transform="translate(20.878125 63.90075) scale(0.08 -0.08)">
       <use xlink:href="#DejaVuSans-31"/>
       <use xlink:href="#DejaVuSans-32" x="63.623047"/>
       <use xlink:href="#DejaVuSans-30" x="127.246094"/>
       <use xlink:href="#DejaVuSans-30" x="190.869141"/>
       <use xlink:href="#DejaVuSans-30" x="254.492188"/>
       <use xlink:href="#DejaVuSans-30" x="318.115234"/>
      </g>
     </g>
    </g>
    <g id="text_15">
     <!-- Count -->
     <g transform="translate(14.798438 209.088338) rotate(-90) scale(0.1 -0.1)">
      <defs>
       <path id="DejaVuSans-6f" d="M 1959 3097 
Q 1497 3097 1228 2736 
Q 959 2375 959 1747 
Q 959 1119 1226 758 
Q 1494 397 1959 397 
Q 2419 397 2687 759 
Q 2956 1122 2956 1747 
Q 2956 2369 2687 2733 
Q 2419 3097 1959 3097 
z
M 1959 3584 
Q 2709 3584 3137 3096 
Q 3566 2609 3566 1747 
Q 3566 888 3137 398 
Q 2709 -91 1959 -91 
Q 1206 -91 779 398 
Q 353 888 353 1747 
Q 353 2609 779 3096 
Q 1206 3584 1959 3584 
z
" transform="scale(0.015625)"/>
       <path id="DejaVuSans-75" d="M 544 1381 
L 544 3500 
L 1119 3500 
L 1119 1403 
Q 1119 906 1312 657 
Q 1506 409 1894 409 
Q 2359 409 2629 706 
Q 2900 1003 2900 1516 
L 2900 3500 
L 3475 3500 
L 3475 0 
L 2900 0 
L 2900 538 
Q 2691 219 2414 64 
Q 2138 -91 1772 -91 
Q 1169 -91 856 284 
Q 544 659 544 1381 
z
M 1991 3584 
L 1991 3584 
z
" transform="scale(0.015625)"/>
       <path id="DejaVuSans-6e" d="M 3513 2113 
L 3513 0 
L 2938 0 
L 2938 2094 
Q 2938 2591 2744 2837 
Q 2550 3084 2163 3084 
Q 1697 3084 1428 2787 
Q 1159 2491 1159 1978 
L 1159 0 
L 581 0 
L 581 3500 
L 1159 3500 
L 1159 2956 
Q 1366 3272 1645 3428 
Q 1925 3584 2291 3584 
Q 2894 3584 3203 3211 
Q 3513 2838 3513 2113 
z
" transform="scale(0.015625)"/>
       <path id="DejaVuSans-74" d="M 1172 4494 
L 1172 3500 
L 2356 3500 
L 2356 3053 
L 1172 3053 
L 1172 1153 
Q 1172 725 1289 603 
Q 1406 481 1766 481 
L 2356 481 
L 2356 0 
L 1766 0 
Q 1100 0 847 248 
Q 594 497 594 1153 
L 594 3053 
L 172 3053 
L 172 3500 
L 594 3500 
L 594 4494 
L 1172 4494 
z
" transform="scale(0.015625)"/>
      </defs>
      <use xlink:href="#DejaVuSans-43"/>
      <use xlink:href="#DejaVuSans-6f" x="69.824219"/>
      <use xlink:href="#DejaVuSans-75" x="131.005859"/>
      <use xlink:href="#DejaVuSans-6e" x="194.384766"/>
      <use xlink:href="#DejaVuSans-74" x="257.763672"/>
     </g>
    </g>
   </g>
   <g id="line2d_8">
    <path d="M 58.418125 353.2239 
L 67.686575 353.2239 
L 76.955025 353.2239 
L 86.223475 353.2239 
L 95.491925 353.2239 
L 104.760375 353.2239 
L 114.028825 353.2239 
L 123.297275 353.2239 
L 132.565725 353.2239 
L 141.834175 353.2239 
L 151.102625 353.2239 
L 160.371075 353.2239 
L 169.639525 353.2239 
L 178.907975 353.2239 
L 188.176425 353.2239 
L 197.444875 353.2239 
L 206.713325 353.2239 
L 215.981775 353.2239 
L 225.250225 353.2239 
L 234.518675 353.2239 
L 243.787125 353.2239 
L 253.055575 353.2239 
L 262.324025 353.2239 
L 271.592475 353.2239 
L 280.860925 353.2239 
L 290.129375 353.2239 
L 299.397825 353.2239 
L 308.666275 353.2239 
L 317.934725 353.2239 
L 327.203175 353.2239 
L 336.471625 353.2239 
L 345.740075 353.2239 
L 355.008525 353.2239 
L 364.276975 353.2239 
L 373.545425 353.2239 
L 382.813875 353.2239 
L 392.082325 353.2239 
L 401.350775 353.2239 
L 410.619225 353.2239 
L 419.887675 353.222682 
L 429.156125 353.222682 
L 438.424575 353.2239 
L 447.693025 353.2239 
L 456.961475 353.219433 
L 466.229925 353.214967 
L 475.498375 353.206439 
L 484.766825 353.202785 
L 494.035275 353.212936 
L 503.303725 353.214155 
L 512.572175 353.106143 
L 521.840625 353.082591 
L 531.109075 353.167052 
L 540.377525 352.57583 
L 549.645975 353.059446 
L 558.914425 353.18573 
L 568.182875 353.206033 
L 577.451325 353.214967 
L 586.719775 353.218215 
L 595.988225 353.221464 
L 605.256675 353.223088 
L 614.525125 353.2239 
L 623.793575 353.2239 
L 633.062025 353.223088 
L 642.330475 353.2239 
L 651.598925 353.2239 
L 660.867375 353.2239 
L 670.135825 353.2239 
L 679.404275 353.2239 
L 688.672725 353.2239 
L 697.941175 353.2239 
L 707.209625 353.2239 
L 716.478075 353.2239 
L 725.746525 353.2239 
L 735.014975 353.2239 
L 744.283425 353.2239 
L 753.551875 353.2239 
L 762.820325 353.2239 
L 772.088775 353.2239 
L 781.357225 353.2239 
L 790.625675 353.2239 
L 799.894125 353.2239 
L 809.162575 353.2239 
L 818.431025 353.2239 
L 827.699475 353.2239 
L 836.967925 353.2239 
L 846.236375 353.2239 
L 855.504825 353.2239 
L 864.773275 353.2239 
L 874.041725 353.2239 
L 883.310175 353.2239 
L 892.578625 353.2239 
L 901.847075 353.2239 
L 911.115525 353.2239 
L 920.383975 353.2239 
L 929.652425 353.2239 
L 938.920875 353.2239 
L 948.189325 353.2239 
L 957.457775 353.2239 
L 966.726225 353.2239 
L 975.994675 353.2239 
L 985.263125 353.2239 
" clip-path="url(#p2f57118dd6)" style="fill: none; stroke: #d9534f; stroke-linecap: square"/>
   </g>
   <g id="line2d_9">
    <path d="M 58.418125 353.2239 
L 67.686575 353.2239 
L 76.955025 353.2239 
L 86.223475 353.2239 
L 95.491925 353.2239 
L 104.760375 353.2239 
L 114.028825 353.2239 
L 123.297275 353.2239 
L 132.565725 353.2239 
L 141.834175 353.2239 
L 151.102625 353.2239 
L 160.371075 353.2239 
L 169.639525 353.2239 
L 178.907975 353.2239 
L 188.176425 353.2239 
L 197.444875 353.2239 
L 206.713325 353.2239 
L 215.981775 353.2239 
L 225.250225 353.2239 
L 234.518675 353.2239 
L 243.787125 353.2239 
L 253.055575 353.2239 
L 262.324025 353.2239 
L 271.592475 353.2239 
L 280.860925 353.2239 
L 290.129375 353.2239 
L 299.397825 353.2239 
L 308.666275 353.2239 
L 317.934725 353.2239 
L 327.203175 353.2239 
L 336.471625 353.2239 
L 345.740075 353.2239 
L 355.008525 353.2239 
L 364.276975 353.2239 
L 373.545425 353.2239 
L 382.813875 353.2239 
L 392.082325 353.2239 
L 401.350775 353.2239 
L 410.619225 353.2239 
L 419.887675 353.2239 
L 429.156125 353.2239 
L 438.424575 353.2239 
L 447.693025 353.2239 
L 456.961475 353.2239 
L 466.229925 353.2239 
L 475.498375 353.222682 
L 484.766825 353.220652 
L 494.035275 353.216997 
L 503.303725 353.216591 
L 512.572175 353.160961 
L 521.840625 353.15487 
L 531.109075 353.214155 
L 540.377525 353.219839 
L 549.645975 353.218621 
L 558.914425 353.220652 
L 568.182875 353.222682 
L 577.451325 353.219839 
L 586.719775 353.22187 
L 595.988225 353.223088 
L 605.256675 353.223088 
L 614.525125 353.2239 
L 623.793575 353.2239 
L 633.062025 353.2239 
L 642.330475 353.2239 
L 651.598925 353.2239 
L 660.867375 353.2239 
L 670.135825 353.2239 
L 679.404275 353.2239 
L 688.672725 353.2239 
L 697.941175 353.2239 
L 707.209625 353.2239 
L 716.478075 353.2239 
L 725.746525 353.2239 
L 735.014975 353.2239 
L 744.283425 353.2239 
L 753.551875 353.2239 
L 762.820325 353.2239 
L 772.088775 353.2239 
L 781.357225 353.2239 
L 790.625675 353.2239 
L 799.894125 353.2239 
L 809.162575 353.2239 
L 818.431025 353.2239 
L 827.699475 353.2239 
L 836.967925 353.2239 
L 846.236375 353.2239 
L 855.504825 353.2239 
L 864.773275 353.2239 
L 874.041725 353.2239 
L 883.310175 353.2239 
L 892.578625 353.2239 
L 901.847075 353.2239 
L 911.115525 353.2239 
L 920.383975 353.2239 
L 929.652425 353.2239 
L 938.920875 353.2239 
L 948.189325 353.2239 
L 957.457775 353.2239 
L 966.726225 353.2239 
L 975.994675 353.2239 
L 985.263125 353.2239 
" clip-path="url(#p2f57118dd6)" style="fill: none; stroke: #d9534f; stroke-linecap: square"/>
   </g>
   <g id="line2d_10">
    <path d="M 58.418125 353.2239 
L 67.686575 353.2239 
L 76.955025 353.2239 
L 86.223475 353.2239 
L 95.491925 353.2239 
L 104.760375 353.2239 
L 114.028825 353.2239 
L 123.297275 353.2239 
L 132.565725 353.2239 
L 141.834175 353.2239 
L 151.102625 353.2239 
L 160.371075 353.2239 
L 169.639525 353.2239 
L 178.907975 353.2239 
L 188.176425 353.2239 
L 197.444875 353.2239 
L 206.713325 353.2239 
L 215.981775 353.2239 
L 225.250225 353.2239 
L 234.518675 353.2239 
L 243.787125 353.2239 
L 253.055575 353.2239 
L 262.324025 353.2239 
L 271.592475 353.2239 
L 280.860925 353.2239 
L 290.129375 353.2239 
L 299.397825 353.2239 
L 308.666275 353.2239 
L 317.934725 353.2239 
L 327.203175 353.2239 
L 336.471625 353.2239 
L 345.740075 353.2239 
L 355.008525 353.2239 
L 364.276975 353.2239 
L 373.545425 353.2239 
L 382.813875 353.2239 
L 392.082325 353.2239 
L 401.350775 353.2239 
L 410.619225 353.2239 
L 419.887675 353.2239 
L 429.156125 353.222682 
L 438.424575 353.217809 
L 447.693025 353.216997 
L 456.961475 353.222682 
L 466.229925 353.216591 
L 475.498375 353.211718 
L 484.766825 353.216591 
L 494.035275 353.217403 
L 503.303725 353.214561 
L 512.572175 353.198318 
L 521.840625 353.124009 
L 531.109075 353.15487 
L 540.377525 353.04767 
L 549.645975 350.822467 
L 558.914425 352.665163 
L 568.182875 353.092743 
L 577.451325 353.148373 
L 586.719775 353.171112 
L 595.988225 353.199943 
L 605.256675 353.21253 
L 614.525125 353.219027 
L 623.793575 353.223088 
L 633.062025 353.223088 
L 642.330475 353.222276 
L 651.598925 353.223088 
L 660.867375 353.2239 
L 670.135825 353.2239 
L 679.404275 353.2239 
L 688.672725 353.2239 
L 697.941175 353.2239 
L 707.209625 353.2239 
L 716.478075 353.2239 
L 725.746525 353.2239 
L 735.014975 353.2239 
L 744.283425 353.2239 
L 753.551875 353.2239 
L 762.820325 353.2239 
L 772.088775 353.2239 
L 781.357225 353.2239 
L 790.625675 353.2239 
L 799.894125 353.2239 
L 809.162575 353.2239 
L 818.431025 353.2239 
L 827.699475 353.2239 
L 836.967925 353.2239 
L 846.236375 353.2239 
L 855.504825 353.2239 
L 864.773275 353.2239 
L 874.041725 353.2239 
L 883.310175 353.2239 
L 892.578625 353.2239 
L 901.847075 353.2239 
L 911.115525 353.2239 
L 920.383975 353.2239 
L 929.652425 353.2239 
L 938.920875 353.2239 
L 948.189325 353.2239 
L 957.457775 353.2239 
L 966.726225 353.2239 
L 975.994675 353.2239 
L 985.263125 353.2239 
" clip-path="url(#p2f57118dd6)" style="fill: none; stroke: #d9534f; stroke-linecap: square"/>
   </g>
   <g id="line2d_11">
    <path d="M 58.418125 353.2239 
L 67.686575 353.2239 
L 76.955025 353.2239 
L 86.223475 353.2239 
L 95.491925 353.2239 
L 104.760375 353.2239 
L 114.028825 353.2239 
L 123.297275 353.2239 
L 132.565725 353.2239 
L 141.834175 353.2239 
L 151.102625 353.2239 
L 160.371075 353.2239 
L 169.639525 353.2239 
L 178.907975 353.2239 
L 188.176425 353.2239 
L 197.444875 353.2239 
L 206.713325 353.2239 
L 215.981775 353.2239 
L 225.250225 353.2239 
L 234.518675 353.2239 
L 243.787125 353.2239 
L 253.055575 353.2239 
L 262.324025 353.2239 
L 271.592475 353.2239 
L 280.860925 353.2239 
L 290.129375 353.2239 
L 299.397825 353.2239 
L 308.666275 353.2239 
L 317.934725 353.2239 
L 327.203175 353.2239 
L 336.471625 353.2239 
L 345.740075 353.2239 
L 355.008525 353.2239 
L 364.276975 353.2239 
L 373.545425 353.2239 
L 382.813875 353.2239 
L 392.082325 353.2239 
L 401.350775 353.2239 
L 410.619225 353.2239 
L 419.887675 353.2239 
L 429.156125 353.223088 
L 438.424575 353.223088 
L 447.693025 353.221464 
L 456.961475 353.219433 
L 466.229925 353.213342 
L 475.498375 353.21253 
L 484.766825 353.219433 
L 494.035275 353.220245 
L 503.303725 353.211718 
L 512.572175 353.182076 
L 521.840625 353.165834 
L 531.109075 353.191821 
L 540.377525 353.209688 
L 549.645975 353.209282 
L 558.914425 353.201973 
L 568.182875 353.189385 
L 577.451325 353.193446 
L 586.719775 353.210906 
L 595.988225 353.216185 
L 605.256675 353.218621 
L 614.525125 353.217809 
L 623.793575 353.220652 
L 633.062025 353.2239 
L 642.330475 353.2239 
L 651.598925 353.2239 
L 660.867375 353.2239 
L 670.135825 353.2239 
L 679.404275 353.2239 
L 688.672725 353.2239 
L 697.941175 353.2239 
L 707.209625 353.2239 
L 716.478075 353.2239 
L 725.746525 353.2239 
L 735.014975 353.2239 
L 744.283425 353.2239 
L 753.551875 353.2239 
L 762.820325 353.2239 
L 772.088775 353.2239 
L 781.357225 353.2239 
L 790.625675 353.2239 
L 799.894125 353.2239 
L 809.162575 353.2239 
L 818.431025 353.2239 
L 827.699475 353.2239 
L 836.967925 353.2239 
L 846.236375 353.2239 
L 855.504825 353.2239 
L 864.773275 353.2239 
L 874.041725 353.2239 
L 883.310175 353.2239 
L 892.578625 353.2239 
L 901.847075 353.2239 
L 911.115525 353.2239 
L 920.383975 353.2239 
L 929.652425 353.2239 
L 938.920875 353.2239 
L 948.189325 353.2239 
L 957.457775 353.2239 
L 966.726225 353.2239 
L 975.994675 353.2239 
L 985.263125 353.2239 
" clip-path="url(#p2f57118dd6)" style="fill: none; stroke: #d9534f; stroke-linecap: square"/>
   </g>
   <g id="line2d_12">
    <path d="M 58.418125 353.2239 
L 67.686575 353.2239 
L 76.955025 353.2239 
L 86.223475 353.2239 
L 95.491925 353.2239 
L 104.760375 353.2239 
L 114.028825 353.2239 
L 123.297275 353.2239 
L 132.565725 353.2239 
L 141.834175 353.2239 
L 151.102625 353.2239 
L 160.371075 353.2239 
L 169.639525 353.2239 
L 178.907975 353.2239 
L 188.176425 353.2239 
L 197.444875 353.2239 
L 206.713325 353.2239 
L 215.981775 353.2239 
L 225.250225 353.2239 
L 234.518675 353.2239 
L 243.787125 353.2239 
L 253.055575 353.2239 
L 262.324025 353.2239 
L 271.592475 353.2239 
L 280.860925 353.2239 
L 290.129375 353.2239 
L 299.397825 353.2239 
L 308.666275 353.2239 
L 317.934725 353.2239 
L 327.203175 353.2239 
L 336.471625 353.2239 
L 345.740075 353.2239 
L 355.008525 353.2239 
L 364.276975 353.2239 
L 373.545425 353.2239 
L 382.813875 353.2239 
L 392.082325 353.2239 
L 401.350775 353.2239 
L 410.619225 353.222682 
L 419.887675 353.222682 
L 429.156125 353.22187 
L 438.424575 353.206033 
L 447.693025 353.204815 
L 456.961475 353.215779 
L 466.229925 353.214561 
L 475.498375 353.214967 
L 484.766825 353.208064 
L 494.035275 353.188167 
L 503.303725 353.178827 
L 512.572175 353.174361 
L 521.840625 353.177609 
L 531.109075 353.196288 
L 540.377525 353.19304 
L 549.645975 353.200755 
L 558.914425 353.218215 
L 568.182875 353.212936 
L 577.451325 353.203597 
L 586.719775 353.206439 
L 595.988225 353.207658 
L 605.256675 353.213749 
L 614.525125 353.222682 
L 623.793575 353.2239 
L 633.062025 353.2239 
L 642.330475 353.2239 
L 651.598925 353.223088 
L 660.867375 353.223088 
L 670.135825 353.223088 
L 679.404275 353.2239 
L 688.672725 353.2239 
L 697.941175 353.2239 
L 707.209625 353.2239 
L 716.478075 353.2239 
L 725.746525 353.2239 
L 735.014975 353.2239 
L 744.283425 353.2239 
L 753.551875 353.2239 
L 762.820325 353.2239 
L 772.088775 353.2239 
L 781.357225 353.2239 
L 790.625675 353.2239 
L 799.894125 353.2239 
L 809.162575 353.2239 
L 818.431025 353.2239 
L 827.699475 353.2239 
L 836.967925 353.2239 
L 846.236375 353.2239 
L 855.504825 353.2239 
L 864.773275 353.2239 
L 874.041725 353.2239 
L 883.310175 353.2239 
L 892.578625 353.2239 
L 901.847075 353.2239 
L 911.115525 353.2239 
L 920.383975 353.2239 
L 929.652425 353.2239 
L 938.920875 353.2239 
L 948.189325 353.2239 
L 957.457775 353.2239 
L 966.726225 353.2239 
L 975.994675 353.2239 
L 985.263125 353.2239 
" clip-path="url(#p2f57118dd6)" style="fill: none; stroke: #d9534f; stroke-linecap: square"/>
   </g>
   <g id="line2d_13">
    <path d="M 58.418125 353.2239 
L 67.686575 353.2239 
L 76.955025 353.2239 
L 86.223475 353.2239 
L 95.491925 353.2239 
L 104.760375 353.2239 
L 114.028825 353.2239 
L 123.297275 353.2239 
L 132.565725 353.2239 
L 141.834175 353.2239 
L 151.102625 353.2239 
L 160.371075 353.2239 
L 169.639525 353.2239 
L 178.907975 353.2239 
L 188.176425 353.2239 
L 197.444875 353.2239 
L 206.713325 353.2239 
L 215.981775 353.2239 
L 225.250225 353.2239 
L 234.518675 353.2239 
L 243.787125 353.2239 
L 253.055575 353.2239 
L 262.324025 353.2239 
L 271.592475 353.2239 
L 280.860925 353.2239 
L 290.129375 353.2239 
L 299.397825 353.2239 
L 308.666275 353.2239 
L 317.934725 353.2239 
L 327.203175 353.2239 
L 336.471625 353.2239 
L 345.740075 353.2239 
L 355.008525 353.2239 
L 364.276975 353.2239 
L 373.545425 353.2239 
L 382.813875 353.2239 
L 392.082325 353.2239 
L 401.350775 353.2239 
L 410.619225 353.2239 
L 419.887675 353.2239 
L 429.156125 353.2239 
L 438.424575 353.2239 
L 447.693025 353.2239 
L 456.961475 353.222682 
L 466.229925 353.206033 
L 475.498375 353.204815 
L 484.766825 353.218621 
L 494.035275 353.217403 
L 503.303725 353.219433 
L 512.572175 353.218621 
L 521.840625 353.213749 
L 531.109075 353.218215 
L 540.377525 353.219433 
L 549.645975 353.217403 
L 558.914425 353.219027 
L 568.182875 353.219027 
L 577.451325 353.220652 
L 586.719775 353.22187 
L 595.988225 353.223088 
L 605.256675 353.2239 
L 614.525125 353.2239 
L 623.793575 353.2239 
L 633.062025 353.223088 
L 642.330475 353.2239 
L 651.598925 353.2239 
L 660.867375 353.2239 
L 670.135825 353.2239 
L 679.404275 353.2239 
L 688.672725 353.2239 
L 697.941175 353.2239 
L 707.209625 353.2239 
L 716.478075 353.2239 
L 725.746525 353.2239 
L 735.014975 353.2239 
L 744.283425 353.2239 
L 753.551875 353.2239 
L 762.820325 353.2239 
L 772.088775 353.2239 
L 781.357225 353.2239 
L 790.625675 353.2239 
L 799.894125 353.2239 
L 809.162575 353.2239 
L 818.431025 353.2239 
L 827.699475 353.2239 
L 836.967925 353.2239 
L 846.236375 353.2239 
L 855.504825 353.2239 
L 864.773275 353.2239 
L 874.041725 353.2239 
L 883.310175 353.2239 
L 892.578625 353.2239 
L 901.847075 353.2239 
L 911.115525 353.2239 
L 920.383975 353.2239 
L 929.652425 353.2239 
L 938.920875 353.2239 
L 948.189325 353.2239 
L 957.457775 353.2239 
L 966.726225 353.2239 
L 975.994675 353.2239 
L 985.263125 353.2239 
" clip-path="url(#p2f57118dd6)" style="fill: none; stroke: #d9534f; stroke-linecap: square"/>
   </g>
   <g id="line2d_14">
    <path d="M 58.418125 353.2239 
L 67.686575 353.2239 
L 76.955025 353.2239 
L 86.223475 353.2239 
L 95.491925 353.2239 
L 104.760375 353.2239 
L 114.028825 353.2239 
L 123.297275 353.2239 
L 132.565725 353.2239 
L 141.834175 353.2239 
L 151.102625 353.2239 
L 160.371075 353.2239 
L 169.639525 353.2239 
L 178.907975 353.2239 
L 188.176425 353.2239 
L 197.444875 353.2239 
L 206.713325 353.2239 
L 215.981775 353.2239 
L 225.250225 353.2239 
L 234.518675 353.2239 
L 243.787125 353.2239 
L 253.055575 353.2239 
L 262.324025 353.2239 
L 271.592475 353.2239 
L 280.860925 353.2239 
L 290.129375 353.2239 
L 299.397825 353.2239 
L 308.666275 353.2239 
L 317.934725 353.2239 
L 327.203175 353.2239 
L 336.471625 353.2239 
L 345.740075 353.2239 
L 355.008525 353.2239 
L 364.276975 353.2239 
L 373.545425 353.2239 
L 382.813875 353.2239 
L 392.082325 353.2239 
L 401.350775 353.2239 
L 410.619225 353.2239 
L 419.887675 353.2239 
L 429.156125 353.223088 
L 438.424575 353.223088 
L 447.693025 353.2239 
L 456.961475 353.2239 
L 466.229925 353.219433 
L 475.498375 353.220245 
L 484.766825 353.2239 
L 494.035275 353.222682 
L 503.303725 353.22187 
L 512.572175 353.214561 
L 521.840625 353.214155 
L 531.109075 353.220652 
L 540.377525 353.221464 
L 549.645975 353.220245 
L 558.914425 353.220245 
L 568.182875 353.220652 
L 577.451325 353.22187 
L 586.719775 353.2239 
L 595.988225 353.223088 
L 605.256675 353.22187 
L 614.525125 353.222682 
L 623.793575 353.2239 
L 633.062025 353.2239 
L 642.330475 353.2239 
L 651.598925 353.2239 
L 660.867375 353.2239 
L 670.135825 353.2239 
L 679.404275 353.2239 
L 688.672725 353.2239 
L 697.941175 353.2239 
L 707.209625 353.2239 
L 716.478075 353.2239 
L 725.746525 353.2239 
L 735.014975 353.2239 
L 744.283425 353.2239 
L 753.551875 353.2239 
L 762.820325 353.2239 
L 772.088775 353.2239 
L 781.357225 353.2239 
L 790.625675 353.2239 
L 799.894125 353.2239 
L 809.162575 353.2239 
L 818.431025 353.2239 
L 827.699475 353.2239 
L 836.967925 353.2239 
L 846.236375 353.2239 
L 855.504825 353.2239 
L 864.773275 353.2239 
L 874.041725 353.2239 
L 883.310175 353.2239 
L 892.578625 353.2239 
L 901.847075 353.2239 
L 911.115525 353.2239 
L 920.383975 353.2239 
L 929.652425 353.2239 
L 938.920875 353.2239 
L 948.189325 353.2239 
L 957.457775 353.2239 
L 966.726225 353.2239 
L 975.994675 353.2239 
L 985.263125 353.2239 
" clip-path="url(#p2f57118dd6)" style="fill: none; stroke: #d9534f; stroke-linecap: square"/>
   </g>
   <g id="line2d_15">
    <path d="M 58.418125 353.2239 
L 67.686575 353.2239 
L 76.955025 353.2239 
L 86.223475 353.2239 
L 95.491925 353.2239 
L 104.760375 353.2239 
L 114.028825 353.2239 
L 123.297275 353.2239 
L 132.565725 353.2239 
L 141.834175 353.2239 
L 151.102625 353.2239 
L 160.371075 353.2239 
L 169.639525 353.2239 
L 178.907975 353.2239 
L 188.176425 353.2239 
L 197.444875 353.2239 
L 206.713325 353.2239 
L 215.981775 353.2239 
L 225.250225 353.2239 
L 234.518675 353.2239 
L 243.787125 353.2239 
L 253.055575 353.2239 
L 262.324025 353.2239 
L 271.592475 353.2239 
L 280.860925 353.2239 
L 290.129375 353.2239 
L 299.397825 353.2239 
L 308.666275 353.2239 
L 317.934725 353.2239 
L 327.203175 353.2239 
L 336.471625 353.2239 
L 345.740075 353.2239 
L 355.008525 353.221464 
L 364.276975 353.221464 
L 373.545425 353.222682 
L 382.813875 353.220245 
L 392.082325 353.210906 
L 401.350775 353.207658 
L 410.619225 353.212936 
L 419.887675 353.210094 
L 429.156125 353.199943 
L 438.424575 353.15284 
L 447.693025 353.087058 
L 456.961475 352.843017 
L 466.229925 343.943826 
L 475.498375 342.936394 
L 484.766825 341.684514 
L 494.035275 340.746517 
L 503.303725 343.365598 
L 512.572175 62.825889 
L 521.840625 50.397233 
L 531.109075 323.419165 
L 540.377525 341.261806 
L 549.645975 350.015221 
L 558.914425 351.190762 
L 568.182875 347.277571 
L 577.451325 347.578867 
L 586.719775 352.322449 
L 595.988225 352.844235 
L 605.256675 353.010719 
L 614.525125 353.102082 
L 623.793575 353.168676 
L 633.062025 353.200755 
L 642.330475 353.210906 
L 651.598925 353.217403 
L 660.867375 353.220652 
L 670.135825 353.222682 
L 679.404275 353.222682 
L 688.672725 353.2239 
L 697.941175 353.222682 
L 707.209625 353.222682 
L 716.478075 353.2239 
L 725.746525 353.2239 
L 735.014975 353.2239 
L 744.283425 353.2239 
L 753.551875 353.2239 
L 762.820325 353.223088 
L 772.088775 353.223088 
L 781.357225 353.2239 
L 790.625675 353.2239 
L 799.894125 353.2239 
L 809.162575 353.2239 
L 818.431025 353.2239 
L 827.699475 353.2239 
L 836.967925 353.2239 
L 846.236375 353.2239 
L 855.504825 353.2239 
L 864.773275 353.2239 
L 874.041725 353.2239 
L 883.310175 353.2239 
L 892.578625 353.2239 
L 901.847075 353.2239 
L 911.115525 353.2239 
L 920.383975 353.2239 
L 929.652425 353.2239 
L 938.920875 353.2239 
L 948.189325 353.2239 
L 957.457775 353.2239 
L 966.726225 353.2239 
L 975.994675 353.2239 
L 985.263125 353.2239 
" clip-path="url(#p2f57118dd6)" style="fill: none; stroke: #d9534f; stroke-linecap: square"/>
   </g>
   <g id="line2d_16">
    <path d="M 58.418125 353.2239 
L 67.686575 353.2239 
L 76.955025 353.2239 
L 86.223475 353.2239 
L 95.491925 353.2239 
L 104.760375 353.2239 
L 114.028825 353.2239 
L 123.297275 353.2239 
L 132.565725 353.2239 
L 141.834175 353.2239 
L 151.102625 353.2239 
L 160.371075 353.2239 
L 169.639525 353.2239 
L 178.907975 353.2239 
L 188.176425 353.2239 
L 197.444875 353.2239 
L 206.713325 353.222682 
L 215.981775 353.222682 
L 225.250225 353.2239 
L 234.518675 353.2239 
L 243.787125 353.2239 
L 253.055575 353.222682 
L 262.324025 353.222682 
L 271.592475 353.223088 
L 280.860925 353.223088 
L 290.129375 353.2239 
L 299.397825 353.222682 
L 308.666275 353.222682 
L 317.934725 353.219027 
L 327.203175 353.214155 
L 336.471625 353.213342 
L 345.740075 353.214155 
L 355.008525 353.202785 
L 364.276975 353.198724 
L 373.545425 353.197506 
L 382.813875 353.178421 
L 392.082325 353.165427 
L 401.350775 353.14147 
L 410.619225 353.124009 
L 419.887675 353.07447 
L 429.156125 353.014374 
L 438.424575 352.957119 
L 447.693025 352.877938 
L 456.961475 352.728914 
L 466.229925 352.505175 
L 475.498375 352.285904 
L 484.766825 351.914766 
L 494.035275 351.474192 
L 503.303725 350.696588 
L 512.572175 348.94891 
L 521.840625 320.73349 
L 531.109075 317.848441 
L 540.377525 341.777095 
L 549.645975 340.383094 
L 558.914425 313.80328 
L 568.182875 217.094224 
L 577.451325 222.900868 
L 586.719775 317.444818 
L 595.988225 338.742616 
L 605.256675 344.00839 
L 614.525125 329.001259 
L 623.793575 330.066352 
L 633.062025 348.321955 
L 642.330475 349.878379 
L 651.598925 350.540662 
L 660.867375 351.026308 
L 670.135825 351.359277 
L 679.404275 351.636209 
L 688.672725 351.794978 
L 697.941175 351.949281 
L 707.209625 352.21931 
L 716.478075 352.304988 
L 725.746525 352.417873 
L 735.014975 352.548624 
L 744.283425 352.648108 
L 753.551875 352.738253 
L 762.820325 352.829211 
L 772.088775 352.910422 
L 781.357225 352.980265 
L 790.625675 353.049295 
L 799.894125 353.100864 
L 809.162575 353.15284 
L 818.431025 353.180858 
L 827.699475 353.205221 
L 836.967925 353.21253 
L 846.236375 353.217403 
L 855.504825 353.223088 
L 864.773275 353.2239 
L 874.041725 353.2239 
L 883.310175 353.2239 
L 892.578625 353.2239 
L 901.847075 353.2239 
L 911.115525 353.2239 
L 920.383975 353.2239 
L 929.652425 353.2239 
L 938.920875 353.2239 
L 948.189325 353.2239 
L 957.457775 353.2239 
L 966.726225 353.2239 
L 975.994675 353.2239 
L 985.263125 353.2239 
" clip-path="url(#p2f57118dd6)" style="fill: none; stroke: #d9534f; stroke-linecap: square"/>
   </g>
   <g id="line2d_17">
    <path d="M 58.418125 353.2239 
L 67.686575 353.2239 
L 76.955025 353.2239 
L 86.223475 353.2239 
L 95.491925 353.2239 
L 104.760375 353.2239 
L 114.028825 353.2239 
L 123.297275 353.2239 
L 132.565725 353.2239 
L 141.834175 353.2239 
L 151.102625 353.2239 
L 160.371075 353.2239 
L 169.639525 353.2239 
L 178.907975 353.2239 
L 188.176425 353.2239 
L 197.444875 353.2239 
L 206.713325 353.2239 
L 215.981775 353.2239 
L 225.250225 353.2239 
L 234.518675 353.2239 
L 243.787125 353.2239 
L 253.055575 353.2239 
L 262.324025 353.222682 
L 271.592475 353.220245 
L 280.860925 353.221464 
L 290.129375 353.2239 
L 299.397825 353.2239 
L 308.666275 353.2239 
L 317.934725 353.222682 
L 327.203175 353.220652 
L 336.471625 353.22187 
L 345.740075 353.2239 
L 355.008525 353.223088 
L 364.276975 353.2239 
L 373.545425 353.221464 
L 382.813875 353.217809 
L 392.082325 353.213342 
L 401.350775 353.195476 
L 410.619225 353.124822 
L 419.887675 352.946968 
L 429.156125 351.365774 
L 438.424575 273.809711 
L 447.693025 269.608624 
L 456.961475 343.32418 
L 466.229925 336.992907 
L 475.498375 323.918211 
L 484.766825 308.857075 
L 494.035275 274.889016 
L 503.303725 252.016115 
L 512.572175 211.673335 
L 521.840625 226.830708 
L 531.109075 311.860288 
L 540.377525 312.995629 
L 549.645975 314.394096 
L 558.914425 345.552632 
L 568.182875 346.633155 
L 577.451325 346.957597 
L 586.719775 339.380534 
L 595.988225 326.962842 
L 605.256675 337.024174 
L 614.525125 351.306083 
L 623.793575 352.536848 
L 633.062025 352.944125 
L 642.330475 353.07244 
L 651.598925 353.131725 
L 660.867375 353.180858 
L 670.135825 353.196694 
L 679.404275 353.209688 
L 688.672725 353.212124 
L 697.941175 353.219027 
L 707.209625 353.221058 
L 716.478075 353.2239 
L 725.746525 353.2239 
L 735.014975 353.222276 
L 744.283425 353.223088 
L 753.551875 353.223088 
L 762.820325 353.222276 
L 772.088775 353.2239 
L 781.357225 353.2239 
L 790.625675 353.223088 
L 799.894125 353.223088 
L 809.162575 353.2239 
L 818.431025 353.2239 
L 827.699475 353.2239 
L 836.967925 353.2239 
L 846.236375 353.2239 
L 855.504825 353.2239 
L 864.773275 353.2239 
L 874.041725 353.2239 
L 883.310175 353.2239 
L 892.578625 353.2239 
L 901.847075 353.2239 
L 911.115525 353.2239 
L 920.383975 353.2239 
L 929.652425 353.2239 
L 938.920875 353.2239 
L 948.189325 353.2239 
L 957.457775 353.2239 
L 966.726225 353.2239 
L 975.994675 353.2239 
L 985.263125 353.2239 
" clip-path="url(#p2f57118dd6)" style="fill: none; stroke: #d9534f; stroke-linecap: square"/>
   </g>
   <g id="line2d_18">
    <path d="M 58.418125 353.2239 
L 67.686575 353.2239 
L 76.955025 353.2239 
L 86.223475 353.2239 
L 95.491925 353.2239 
L 104.760375 353.2239 
L 114.028825 353.2239 
L 123.297275 353.2239 
L 132.565725 353.2239 
L 141.834175 353.2239 
L 151.102625 353.2239 
L 160.371075 353.2239 
L 169.639525 353.2239 
L 178.907975 353.2239 
L 188.176425 353.2239 
L 197.444875 353.2239 
L 206.713325 353.2239 
L 215.981775 353.2239 
L 225.250225 353.2239 
L 234.518675 353.2239 
L 243.787125 353.2239 
L 253.055575 353.2239 
L 262.324025 353.2239 
L 271.592475 353.2239 
L 280.860925 353.223088 
L 290.129375 353.223088 
L 299.397825 353.2239 
L 308.666275 353.2239 
L 317.934725 353.2239 
L 327.203175 353.222682 
L 336.471625 353.22187 
L 345.740075 353.2239 
L 355.008525 353.22187 
L 364.276975 353.221464 
L 373.545425 353.22187 
L 382.813875 353.219433 
L 392.082325 353.20847 
L 401.350775 353.202785 
L 410.619225 353.189385 
L 419.887675 353.157712 
L 429.156125 352.948186 
L 438.424575 345.782462 
L 447.693025 344.798174 
L 456.961475 337.606056 
L 466.229925 337.016053 
L 475.498375 343.727803 
L 484.766825 331.51314 
L 494.035275 294.2893 
L 503.303725 297.618172 
L 512.572175 311.368144 
L 521.840625 283.766685 
L 531.109075 309.320388 
L 540.377525 341.722277 
L 549.645975 344.762847 
L 558.914425 342.090573 
L 568.182875 324.231283 
L 577.451325 328.053517 
L 586.719775 342.821073 
L 595.988225 343.917838 
L 605.256675 348.588736 
L 614.525125 350.137039 
L 623.793575 350.7644 
L 633.062025 352.48406 
L 642.330475 352.741096 
L 651.598925 352.89215 
L 660.867375 352.979452 
L 670.135825 353.019246 
L 679.404275 353.062288 
L 688.672725 353.113046 
L 697.941175 353.1435 
L 707.209625 353.1703 
L 716.478075 353.192633 
L 725.746525 353.192633 
L 735.014975 353.1971 
L 744.283425 353.215779 
L 753.551875 353.219027 
L 762.820325 353.219027 
L 772.088775 353.220652 
L 781.357225 353.221464 
L 790.625675 353.222276 
L 799.894125 353.221464 
L 809.162575 353.2239 
L 818.431025 353.2239 
L 827.699475 353.2239 
L 836.967925 353.2239 
L 846.236375 353.2239 
L 855.504825 353.2239 
L 864.773275 353.2239 
L 874.041725 353.2239 
L 883.310175 353.2239 
L 892.578625 353.2239 
L 901.847075 353.2239 
L 911.115525 353.2239 
L 920.383975 353.2239 
L 929.652425 353.2239 
L 938.920875 353.2239 
L 948.189325 353.2239 
L 957.457775 353.2239 
L 966.726225 353.2239 
L 975.994675 353.2239 
L 985.263125 353.2239 
" clip-path="url(#p2f57118dd6)" style="fill: none; stroke: #d9534f; stroke-linecap: square"/>
   </g>
   <g id="line2d_19">
    <path d="M 58.418125 353.2239 
L 67.686575 353.2239 
L 76.955025 353.2239 
L 86.223475 353.2239 
L 95.491925 353.2239 
L 104.760375 353.2239 
L 114.028825 353.2239 
L 123.297275 353.2239 
L 132.565725 353.2239 
L 141.834175 353.2239 
L 151.102625 353.2239 
L 160.371075 353.2239 
L 169.639525 353.2239 
L 178.907975 353.2239 
L 188.176425 353.2239 
L 197.444875 353.2239 
L 206.713325 353.2239 
L 215.981775 353.2239 
L 225.250225 353.2239 
L 234.518675 353.2239 
L 243.787125 353.2239 
L 253.055575 353.2239 
L 262.324025 353.223088 
L 271.592475 353.2239 
L 280.860925 353.2239 
L 290.129375 353.2239 
L 299.397825 353.2239 
L 308.666275 353.220652 
L 317.934725 353.222276 
L 327.203175 353.221464 
L 336.471625 353.219839 
L 345.740075 353.214967 
L 355.008525 353.209688 
L 364.276975 353.208876 
L 373.545425 353.209282 
L 382.813875 353.194664 
L 392.082325 353.192633 
L 401.350775 353.182076 
L 410.619225 353.161773 
L 419.887675 353.124416 
L 429.156125 353.051731 
L 438.424575 352.953465 
L 447.693025 352.603036 
L 456.961475 338.248848 
L 466.229925 315.320723 
L 475.498375 327.7441 
L 484.766825 349.589671 
L 494.035275 335.40481 
L 503.303725 333.017183 
L 512.572175 243.648456 
L 521.840625 241.908493 
L 531.109075 345.618414 
L 540.377525 349.791889 
L 549.645975 350.296214 
L 558.914425 349.963652 
L 568.182875 343.423665 
L 577.451325 342.665958 
L 586.719775 349.375272 
L 595.988225 351.098181 
L 605.256675 351.714578 
L 614.525125 352.158807 
L 623.793575 352.348437 
L 633.062025 352.550248 
L 642.330475 352.669629 
L 651.598925 352.724041 
L 660.867375 352.77155 
L 670.135825 352.833677 
L 679.404275 352.903113 
L 688.672725 352.946156 
L 697.941175 352.954277 
L 707.209625 353.011125 
L 716.478075 353.051731 
L 725.746525 353.071222 
L 735.014975 353.1167 
L 744.283425 353.144312 
L 753.551875 353.151621 
L 762.820325 353.168676 
L 772.088775 353.176797 
L 781.357225 353.187355 
L 790.625675 353.203597 
L 799.894125 353.210094 
L 809.162575 353.211718 
L 818.431025 353.222276 
L 827.699475 353.223088 
L 836.967925 353.223088 
L 846.236375 353.222276 
L 855.504825 353.223088 
L 864.773275 353.2239 
L 874.041725 353.2239 
L 883.310175 353.2239 
L 892.578625 353.2239 
L 901.847075 353.2239 
L 911.115525 353.2239 
L 920.383975 353.2239 
L 929.652425 353.2239 
L 938.920875 353.2239 
L 948.189325 353.2239 
L 957.457775 353.2239 
L 966.726225 353.2239 
L 975.994675 353.2239 
L 985.263125 353.2239 
" clip-path="url(#p2f57118dd6)" style="fill: none; stroke: #d9534f; stroke-linecap: square"/>
   </g>
   <g id="line2d_20">
    <path d="M 58.418125 353.2239 
L 67.686575 353.2239 
L 76.955025 353.2239 
L 86.223475 353.2239 
L 95.491925 353.2239 
L 104.760375 353.2239 
L 114.028825 353.2239 
L 123.297275 353.2239 
L 132.565725 353.2239 
L 141.834175 353.2239 
L 151.102625 353.2239 
L 160.371075 353.2239 
L 169.639525 353.2239 
L 178.907975 353.2239 
L 188.176425 353.2239 
L 197.444875 353.2239 
L 206.713325 353.2239 
L 215.981775 353.2239 
L 225.250225 353.2239 
L 234.518675 353.222682 
L 243.787125 353.222682 
L 253.055575 353.2239 
L 262.324025 353.223088 
L 271.592475 353.2239 
L 280.860925 353.2239 
L 290.129375 353.221464 
L 299.397825 353.223088 
L 308.666275 353.2239 
L 317.934725 353.221058 
L 327.203175 353.216185 
L 336.471625 353.219839 
L 345.740075 353.213342 
L 355.008525 353.20847 
L 364.276975 353.21253 
L 373.545425 353.194664 
L 382.813875 353.175173 
L 392.082325 353.147561 
L 401.350775 353.123197 
L 410.619225 353.105331 
L 419.887675 353.065943 
L 429.156125 353.017216 
L 438.424575 352.91895 
L 447.693025 352.804441 
L 456.961475 352.203474 
L 466.229925 327.465137 
L 475.498375 325.321552 
L 484.766825 349.099558 
L 494.035275 350.595074 
L 503.303725 350.248299 
L 512.572175 349.312739 
L 521.840625 328.295934 
L 531.109075 324.809917 
L 540.377525 332.836081 
L 549.645975 329.527511 
L 558.914425 328.871726 
L 568.182875 241.153223 
L 577.451325 223.671162 
L 586.719775 311.437174 
L 595.988225 339.546613 
L 605.256675 346.028533 
L 614.525125 348.719893 
L 623.793575 350.020906 
L 633.062025 350.766837 
L 642.330475 351.269132 
L 651.598925 351.676409 
L 660.867375 351.892432 
L 670.135825 352.132007 
L 679.404275 352.311079 
L 688.672725 352.391479 
L 697.941175 352.521824 
L 707.209625 352.60263 
L 716.478075 352.718356 
L 725.746525 352.804847 
L 735.014975 352.880374 
L 744.283425 352.938847 
L 753.551875 352.949404 
L 762.820325 353.004628 
L 772.088775 353.037925 
L 781.357225 353.079343 
L 790.625675 353.108579 
L 799.894125 353.149185 
L 809.162575 353.168676 
L 818.431025 353.188167 
L 827.699475 353.210906 
L 836.967925 353.218215 
L 846.236375 353.222276 
L 855.504825 353.221464 
L 864.773275 353.223088 
L 874.041725 353.2239 
L 883.310175 353.2239 
L 892.578625 353.2239 
L 901.847075 353.2239 
L 911.115525 353.2239 
L 920.383975 353.2239 
L 929.652425 353.2239 
L 938.920875 353.2239 
L 948.189325 353.2239 
L 957.457775 353.2239 
L 966.726225 353.2239 
L 975.994675 353.2239 
L 985.263125 353.2239 
" clip-path="url(#p2f57118dd6)" style="fill: none; stroke: #d9534f; stroke-linecap: square"/>
   </g>
   <g id="line2d_21">
    <path d="M 58.418125 353.2239 
L 67.686575 353.2239 
L 76.955025 353.2239 
L 86.223475 353.2239 
L 95.491925 353.2239 
L 104.760375 353.2239 
L 114.028825 353.2239 
L 123.297275 353.2239 
L 132.565725 353.2239 
L 141.834175 353.2239 
L 151.102625 353.2239 
L 160.371075 353.2239 
L 169.639525 353.2239 
L 178.907975 353.2239 
L 188.176425 353.2239 
L 197.444875 353.2239 
L 206.713325 353.2239 
L 215.981775 353.2239 
L 225.250225 353.2239 
L 234.518675 353.2239 
L 243.787125 353.2239 
L 253.055575 353.2239 
L 262.324025 353.2239 
L 271.592475 353.2239 
L 280.860925 353.2239 
L 290.129375 353.2239 
L 299.397825 353.2239 
L 308.666275 353.222682 
L 317.934725 353.222682 
L 327.203175 353.2239 
L 336.471625 353.2239 
L 345.740075 353.2239 
L 355.008525 353.2239 
L 364.276975 353.22187 
L 373.545425 353.222682 
L 382.813875 353.221464 
L 392.082325 353.217809 
L 401.350775 353.214155 
L 410.619225 353.209282 
L 419.887675 353.205221 
L 429.156125 353.190603 
L 438.424575 353.144718 
L 447.693025 353.004628 
L 456.961475 350.88906 
L 466.229925 348.722735 
L 475.498375 298.938676 
L 484.766825 290.161709 
L 494.035275 334.890739 
L 503.303725 335.135187 
L 512.572175 179.084659 
L 521.840625 166.625143 
L 531.109075 325.557878 
L 540.377525 347.472073 
L 549.645975 351.000727 
L 558.914425 351.683312 
L 568.182875 348.066544 
L 577.451325 348.142071 
L 586.719775 352.332194 
L 595.988225 352.859259 
L 605.256675 353.028992 
L 614.525125 353.127664 
L 623.793575 353.156088 
L 633.062025 353.171112 
L 642.330475 353.196288 
L 651.598925 353.205221 
L 660.867375 353.213342 
L 670.135825 353.214561 
L 679.404275 353.215373 
L 688.672725 353.220245 
L 697.941175 353.222276 
L 707.209625 353.2239 
L 716.478075 353.2239 
L 725.746525 353.2239 
L 735.014975 353.2239 
L 744.283425 353.2239 
L 753.551875 353.2239 
L 762.820325 353.2239 
L 772.088775 353.2239 
L 781.357225 353.2239 
L 790.625675 353.2239 
L 799.894125 353.2239 
L 809.162575 353.2239 
L 818.431025 353.2239 
L 827.699475 353.2239 
L 836.967925 353.2239 
L 846.236375 353.2239 
L 855.504825 353.2239 
L 864.773275 353.2239 
L 874.041725 353.2239 
L 883.310175 353.2239 
L 892.578625 353.2239 
L 901.847075 353.2239 
L 911.115525 353.2239 
L 920.383975 353.2239 
L 929.652425 353.2239 
L 938.920875 353.2239 
L 948.189325 353.2239 
L 957.457775 353.2239 
L 966.726225 353.2239 
L 975.994675 353.2239 
L 985.263125 353.2239 
" clip-path="url(#p2f57118dd6)" style="fill: none; stroke: #d9534f; stroke-linecap: square"/>
   </g>
   <g id="line2d_22">
    <path d="M 58.418125 353.2239 
L 67.686575 353.2239 
L 76.955025 353.2239 
L 86.223475 353.2239 
L 95.491925 353.2239 
L 104.760375 353.2239 
L 114.028825 353.2239 
L 123.297275 353.2239 
L 132.565725 353.2239 
L 141.834175 353.2239 
L 151.102625 353.2239 
L 160.371075 353.2239 
L 169.639525 353.2239 
L 178.907975 353.2239 
L 188.176425 353.2239 
L 197.444875 353.2239 
L 206.713325 353.2239 
L 215.981775 353.2239 
L 225.250225 353.222682 
L 234.518675 353.222682 
L 243.787125 353.2239 
L 253.055575 353.2239 
L 262.324025 353.2239 
L 271.592475 353.2239 
L 280.860925 353.2239 
L 290.129375 353.2239 
L 299.397825 353.2239 
L 308.666275 353.2239 
L 317.934725 353.2239 
L 327.203175 353.2239 
L 336.471625 353.2239 
L 345.740075 353.2239 
L 355.008525 353.2239 
L 364.276975 353.2239 
L 373.545425 353.219433 
L 382.813875 353.214561 
L 392.082325 353.21253 
L 401.350775 353.210906 
L 410.619225 353.192227 
L 419.887675 353.174767 
L 429.156125 353.13944 
L 438.424575 353.08787 
L 447.693025 352.991634 
L 456.961475 352.767896 
L 466.229925 346.931609 
L 475.498375 346.363532 
L 484.766825 351.648391 
L 494.035275 351.33938 
L 503.303725 348.951347 
L 512.572175 275.865588 
L 521.840625 246.557463 
L 531.109075 316.745178 
L 540.377525 346.499562 
L 549.645975 348.18958 
L 558.914425 348.242367 
L 568.182875 345.685414 
L 577.451325 345.844183 
L 586.719775 348.954189 
L 595.988225 349.484502 
L 605.256675 349.931167 
L 614.525125 350.443208 
L 623.793575 350.888654 
L 633.062025 351.378362 
L 642.330475 351.779548 
L 651.598925 352.099522 
L 660.867375 352.342346 
L 670.135825 352.586793 
L 679.404275 352.791041 
L 688.672725 352.949404 
L 697.941175 353.035489 
L 707.209625 353.093961 
L 716.478075 353.142688 
L 725.746525 353.178421 
L 735.014975 353.200755 
L 744.283425 353.2105 
L 753.551875 353.214967 
L 762.820325 353.215779 
L 772.088775 353.219027 
L 781.357225 353.222276 
L 790.625675 353.223088 
L 799.894125 353.223088 
L 809.162575 353.2239 
L 818.431025 353.2239 
L 827.699475 353.2239 
L 836.967925 353.2239 
L 846.236375 353.2239 
L 855.504825 353.2239 
L 864.773275 353.2239 
L 874.041725 353.2239 
L 883.310175 353.2239 
L 892.578625 353.2239 
L 901.847075 353.2239 
L 911.115525 353.2239 
L 920.383975 353.2239 
L 929.652425 353.2239 
L 938.920875 353.2239 
L 948.189325 353.2239 
L 957.457775 353.2239 
L 966.726225 353.2239 
L 975.994675 353.2239 
L 985.263125 353.2239 
" clip-path="url(#p2f57118dd6)" style="fill: none; stroke: #d9534f; stroke-linecap: square"/>
   </g>
   <g id="line2d_23">
    <path d="M 58.418125 353.2239 
L 67.686575 353.2239 
L 76.955025 353.2239 
L 86.223475 353.2239 
L 95.491925 353.2239 
L 104.760375 353.2239 
L 114.028825 353.2239 
L 123.297275 353.2239 
L 132.565725 353.2239 
L 141.834175 353.2239 
L 151.102625 353.2239 
L 160.371075 353.2239 
L 169.639525 353.2239 
L 178.907975 353.2239 
L 188.176425 353.2239 
L 197.444875 353.2239 
L 206.713325 353.2239 
L 215.981775 353.2239 
L 225.250225 353.2239 
L 234.518675 353.2239 
L 243.787125 353.2239 
L 253.055575 353.2239 
L 262.324025 353.2239 
L 271.592475 353.2239 
L 280.860925 353.2239 
L 290.129375 353.2239 
L 299.397825 353.2239 
L 308.666275 353.2239 
L 317.934725 353.2239 
L 327.203175 353.222682 
L 336.471625 353.220245 
L 345.740075 353.220245 
L 355.008525 353.222682 
L 364.276975 353.222682 
L 373.545425 353.221464 
L 382.813875 353.221464 
L 392.082325 353.209282 
L 401.350775 353.208876 
L 410.619225 353.210906 
L 419.887675 353.211312 
L 429.156125 353.192633 
L 438.424575 353.148779 
L 447.693025 353.087464 
L 456.961475 352.775611 
L 466.229925 347.394516 
L 475.498375 326.295281 
L 484.766825 319.909596 
L 494.035275 335.494143 
L 503.303725 232.385596 
L 512.572175 104.34421 
L 521.840625 197.661861 
L 531.109075 324.443652 
L 540.377525 341.023449 
L 549.645975 344.863956 
L 558.914425 348.737759 
L 568.182875 347.208541 
L 577.451325 347.474916 
L 586.719775 352.01628 
L 595.988225 352.694399 
L 605.256675 352.948592 
L 614.525125 353.080155 
L 623.793575 353.142688 
L 633.062025 353.178015 
L 642.330475 353.19913 
L 651.598925 353.213342 
L 660.867375 353.218621 
L 670.135825 353.220245 
L 679.404275 353.221464 
L 688.672725 353.222276 
L 697.941175 353.223088 
L 707.209625 353.2239 
L 716.478075 353.2239 
L 725.746525 353.2239 
L 735.014975 353.2239 
L 744.283425 353.2239 
L 753.551875 353.223088 
L 762.820325 353.2239 
L 772.088775 353.2239 
L 781.357225 353.2239 
L 790.625675 353.2239 
L 799.894125 353.2239 
L 809.162575 353.2239 
L 818.431025 353.2239 
L 827.699475 353.2239 
L 836.967925 353.2239 
L 846.236375 353.2239 
L 855.504825 353.2239 
L 864.773275 353.2239 
L 874.041725 353.2239 
L 883.310175 353.2239 
L 892.578625 353.2239 
L 901.847075 353.2239 
L 911.115525 353.2239 
L 920.383975 353.2239 
L 929.652425 353.2239 
L 938.920875 353.2239 
L 948.189325 353.2239 
L 957.457775 353.2239 
L 966.726225 353.2239 
L 975.994675 353.2239 
L 985.263125 353.2239 
" clip-path="url(#p2f57118dd6)" style="fill: none; stroke: #d9534f; stroke-linecap: square"/>
   </g>
   <g id="line2d_24">
    <path d="M 58.418125 353.2239 
L 67.686575 353.2239 
L 76.955025 353.2239 
L 86.223475 353.2239 
L 95.491925 353.2239 
L 104.760375 353.2239 
L 114.028825 353.2239 
L 123.297275 353.2239 
L 132.565725 353.2239 
L 141.834175 353.2239 
L 151.102625 353.2239 
L 160.371075 353.2239 
L 169.639525 353.2239 
L 178.907975 353.2239 
L 188.176425 353.2239 
L 197.444875 353.2239 
L 206.713325 353.2239 
L 215.981775 353.2239 
L 225.250225 353.2239 
L 234.518675 353.2239 
L 243.787125 353.2239 
L 253.055575 353.2239 
L 262.324025 353.2239 
L 271.592475 353.2239 
L 280.860925 353.2239 
L 290.129375 353.2239 
L 299.397825 353.2239 
L 308.666275 353.223088 
L 317.934725 353.2239 
L 327.203175 353.223088 
L 336.471625 353.222682 
L 345.740075 353.221464 
L 355.008525 353.22187 
L 364.276975 353.219433 
L 373.545425 353.220245 
L 382.813875 353.211312 
L 392.082325 353.198318 
L 401.350775 353.155682 
L 410.619225 351.059199 
L 419.887675 350.918703 
L 429.156125 352.912859 
L 438.424575 352.88078 
L 447.693025 349.381769 
L 456.961475 340.757887 
L 466.229925 340.543894 
L 475.498375 343.476452 
L 484.766825 341.407581 
L 494.035275 338.174539 
L 503.303725 334.915509 
L 512.572175 302.719086 
L 521.840625 279.879482 
L 531.109075 304.340886 
L 540.377525 330.38389 
L 549.645975 341.172473 
L 558.914425 337.60362 
L 568.182875 322.555883 
L 577.451325 323.69163 
L 586.719775 338.813676 
L 595.988225 342.672455 
L 605.256675 345.371124 
L 614.525125 347.473698 
L 623.793575 349.396387 
L 633.062025 350.926012 
L 642.330475 351.983796 
L 651.598925 352.583139 
L 660.867375 352.871847 
L 670.135825 353.021277 
L 679.404275 353.083404 
L 688.672725 353.111828 
L 697.941175 353.128882 
L 707.209625 353.145937 
L 716.478075 353.158118 
L 725.746525 353.177609 
L 735.014975 353.194664 
L 744.283425 353.198724 
L 753.551875 353.207658 
L 762.820325 353.214967 
L 772.088775 353.214967 
L 781.357225 353.218215 
L 790.625675 353.220652 
L 799.894125 353.219027 
L 809.162575 353.221464 
L 818.431025 353.222276 
L 827.699475 353.223088 
L 836.967925 353.222276 
L 846.236375 353.2239 
L 855.504825 353.2239 
L 864.773275 353.2239 
L 874.041725 353.2239 
L 883.310175 353.2239 
L 892.578625 353.2239 
L 901.847075 353.2239 
L 911.115525 353.2239 
L 920.383975 353.2239 
L 929.652425 353.2239 
L 938.920875 353.2239 
L 948.189325 353.2239 
L 957.457775 353.2239 
L 966.726225 353.2239 
L 975.994675 353.2239 
L 985.263125 353.2239 
" clip-path="url(#p2f57118dd6)" style="fill: none; stroke: #d9534f; stroke-linecap: square"/>
   </g>
   <g id="line2d_25">
    <path d="M 58.418125 353.2239 
L 67.686575 353.2239 
L 76.955025 353.2239 
L 86.223475 353.2239 
L 95.491925 353.2239 
L 104.760375 353.2239 
L 114.028825 353.2239 
L 123.297275 353.2239 
L 132.565725 353.2239 
L 141.834175 353.2239 
L 151.102625 353.2239 
L 160.371075 353.222682 
L 169.639525 353.222682 
L 178.907975 353.2239 
L 188.176425 353.2239 
L 197.444875 353.2239 
L 206.713325 353.222682 
L 215.981775 353.222682 
L 225.250225 353.2239 
L 234.518675 353.2239 
L 243.787125 353.2239 
L 253.055575 353.2239 
L 262.324025 353.2239 
L 271.592475 353.2239 
L 280.860925 353.2239 
L 290.129375 353.2239 
L 299.397825 353.223088 
L 308.666275 353.223088 
L 317.934725 353.223088 
L 327.203175 353.2239 
L 336.471625 353.2239 
L 345.740075 353.222682 
L 355.008525 353.219839 
L 364.276975 353.221058 
L 373.545425 353.219433 
L 382.813875 353.215779 
L 392.082325 353.217403 
L 401.350775 353.214155 
L 410.619225 353.206846 
L 419.887675 353.197506 
L 429.156125 353.043204 
L 438.424575 347.028657 
L 447.693025 346.679852 
L 456.961475 350.62431 
L 466.229925 350.431838 
L 475.498375 343.002175 
L 484.766825 295.201309 
L 494.035275 295.747864 
L 503.303725 341.505848 
L 512.572175 335.123817 
L 521.840625 320.064305 
L 531.109075 324.710839 
L 540.377525 262.451021 
L 549.645975 261.54754 
L 558.914425 333.621805 
L 568.182875 327.696185 
L 577.451325 326.89503 
L 586.719775 333.379388 
L 595.988225 341.006801 
L 605.256675 351.462822 
L 614.525125 352.509236 
L 623.793575 352.82718 
L 633.062025 353.001786 
L 642.330475 353.106955 
L 651.598925 353.147561 
L 660.867375 353.181264 
L 670.135825 353.187355 
L 679.404275 353.200755 
L 688.672725 353.201567 
L 697.941175 353.205627 
L 707.209625 353.210906 
L 716.478075 353.206033 
L 725.746525 353.205221 
L 735.014975 353.203597 
L 744.283425 353.211718 
L 753.551875 353.213342 
L 762.820325 353.214155 
L 772.088775 353.214155 
L 781.357225 353.218215 
L 790.625675 353.219839 
L 799.894125 353.218215 
L 809.162575 353.219839 
L 818.431025 353.222276 
L 827.699475 353.223088 
L 836.967925 353.2239 
L 846.236375 353.2239 
L 855.504825 353.2239 
L 864.773275 353.2239 
L 874.041725 353.2239 
L 883.310175 353.2239 
L 892.578625 353.2239 
L 901.847075 353.2239 
L 911.115525 353.2239 
L 920.383975 353.2239 
L 929.652425 353.2239 
L 938.920875 353.2239 
L 948.189325 353.2239 
L 957.457775 353.2239 
L 966.726225 353.2239 
L 975.994675 353.2239 
L 985.263125 353.2239 
" clip-path="url(#p2f57118dd6)" style="fill: none; stroke: #d9534f; stroke-linecap: square"/>
   </g>
   <g id="line2d_26">
    <path d="M 58.418125 353.2239 
L 67.686575 353.2239 
L 76.955025 353.2239 
L 86.223475 353.2239 
L 95.491925 353.2239 
L 104.760375 353.2239 
L 114.028825 353.2239 
L 123.297275 353.2239 
L 132.565725 353.2239 
L 141.834175 353.2239 
L 151.102625 353.2239 
L 160.371075 353.2239 
L 169.639525 353.2239 
L 178.907975 353.2239 
L 188.176425 353.2239 
L 197.444875 353.2239 
L 206.713325 353.2239 
L 215.981775 353.2239 
L 225.250225 353.2239 
L 234.518675 353.2239 
L 243.787125 353.2239 
L 253.055575 353.222682 
L 262.324025 353.222682 
L 271.592475 353.2239 
L 280.860925 353.2239 
L 290.129375 353.2239 
L 299.397825 353.2239 
L 308.666275 353.2239 
L 317.934725 353.2239 
L 327.203175 353.2239 
L 336.471625 353.2239 
L 345.740075 353.2239 
L 355.008525 353.2239 
L 364.276975 353.2239 
L 373.545425 353.2239 
L 382.813875 353.220245 
L 392.082325 353.214561 
L 401.350775 353.211718 
L 410.619225 353.213749 
L 419.887675 353.206033 
L 429.156125 353.190197 
L 438.424575 353.162585 
L 447.693025 353.122791 
L 456.961475 352.911235 
L 466.229925 347.359595 
L 475.498375 339.840193 
L 484.766825 344.302376 
L 494.035275 346.267702 
L 503.303725 343.801706 
L 512.572175 235.662492 
L 521.840625 225.268599 
L 531.109075 337.210961 
L 540.377525 350.355905 
L 549.645975 351.694682 
L 558.914425 351.706863 
L 568.182875 345.661456 
L 577.451325 345.541263 
L 586.719775 351.670318 
L 595.988225 346.615695 
L 605.256675 346.495501 
L 614.525125 352.440206 
L 623.793575 353.012749 
L 633.062025 353.1301 
L 642.330475 353.178827 
L 651.598925 353.204003 
L 660.867375 353.214561 
L 670.135825 353.219839 
L 679.404275 353.22187 
L 688.672725 353.223088 
L 697.941175 353.223088 
L 707.209625 353.2239 
L 716.478075 353.223088 
L 725.746525 353.2239 
L 735.014975 353.2239 
L 744.283425 353.2239 
L 753.551875 353.2239 
L 762.820325 353.2239 
L 772.088775 353.223088 
L 781.357225 353.223088 
L 790.625675 353.2239 
L 799.894125 353.2239 
L 809.162575 353.2239 
L 818.431025 353.2239 
L 827.699475 353.2239 
L 836.967925 353.2239 
L 846.236375 353.2239 
L 855.504825 353.2239 
L 864.773275 353.2239 
L 874.041725 353.2239 
L 883.310175 353.2239 
L 892.578625 353.2239 
L 901.847075 353.2239 
L 911.115525 353.2239 
L 920.383975 353.2239 
L 929.652425 353.2239 
L 938.920875 353.2239 
L 948.189325 353.2239 
L 957.457775 353.2239 
L 966.726225 353.2239 
L 975.994675 353.2239 
L 985.263125 353.2239 
" clip-path="url(#p2f57118dd6)" style="fill: none; stroke: #d9534f; stroke-linecap: square"/>
   </g>
   <g id="line2d_27">
    <path d="M 58.418125 353.2239 
L 67.686575 353.2239 
L 76.955025 353.2239 
L 86.223475 353.2239 
L 95.491925 353.2239 
L 104.760375 353.2239 
L 114.028825 353.2239 
L 123.297275 353.2239 
L 132.565725 353.2239 
L 141.834175 353.2239 
L 151.102625 353.2239 
L 160.371075 353.2239 
L 169.639525 353.2239 
L 178.907975 353.2239 
L 188.176425 353.2239 
L 197.444875 353.222682 
L 206.713325 353.222682 
L 215.981775 353.2239 
L 225.250225 353.2239 
L 234.518675 353.2239 
L 243.787125 353.2239 
L 253.055575 353.2239 
L 262.324025 353.2239 
L 271.592475 353.2239 
L 280.860925 353.2239 
L 290.129375 353.2239 
L 299.397825 353.2239 
L 308.666275 353.2239 
L 317.934725 353.2239 
L 327.203175 353.2239 
L 336.471625 353.223088 
L 345.740075 353.223088 
L 355.008525 353.222276 
L 364.276975 353.223088 
L 373.545425 353.220652 
L 382.813875 353.217403 
L 392.082325 353.20847 
L 401.350775 353.205627 
L 410.619225 353.211312 
L 419.887675 353.200755 
L 429.156125 353.182076 
L 438.424575 353.136597 
L 447.693025 352.991634 
L 456.961475 347.21585 
L 466.229925 343.329865 
L 475.498375 340.967413 
L 484.766825 340.190622 
L 494.035275 342.629007 
L 503.303725 337.926437 
L 512.572175 191.472303 
L 521.840625 189.936588 
L 531.109075 340.326652 
L 540.377525 346.421193 
L 549.645975 347.450958 
L 558.914425 352.063383 
L 568.182875 352.56446 
L 577.451325 352.63349 
L 586.719775 350.1411 
L 595.988225 350.146784 
L 605.256675 352.817841 
L 614.525125 353.034676 
L 623.793575 353.098022 
L 633.062025 353.124416 
L 642.330475 353.149591 
L 651.598925 353.168676 
L 660.867375 353.184106 
L 670.135825 353.193446 
L 679.404275 353.199943 
L 688.672725 353.204003 
L 697.941175 353.204409 
L 707.209625 353.211718 
L 716.478075 353.213342 
L 725.746525 353.214155 
L 735.014975 353.209282 
L 744.283425 353.214155 
L 753.551875 353.220652 
L 762.820325 353.222276 
L 772.088775 353.222276 
L 781.357225 353.222276 
L 790.625675 353.222276 
L 799.894125 353.223088 
L 809.162575 353.2239 
L 818.431025 353.223088 
L 827.699475 353.2239 
L 836.967925 353.2239 
L 846.236375 353.2239 
L 855.504825 353.2239 
L 864.773275 353.2239 
L 874.041725 353.2239 
L 883.310175 353.2239 
L 892.578625 353.2239 
L 901.847075 353.2239 
L 911.115525 353.2239 
L 920.383975 353.2239 
L 929.652425 353.2239 
L 938.920875 353.2239 
L 948.189325 353.2239 
L 957.457775 353.2239 
L 966.726225 353.2239 
L 975.994675 353.2239 
L 985.263125 353.2239 
" clip-path="url(#p2f57118dd6)" style="fill: none; stroke: #d9534f; stroke-linecap: square"/>
   </g>
   <g id="line2d_28">
    <path d="M 58.418125 353.2239 
L 67.686575 353.2239 
L 76.955025 353.2239 
L 86.223475 353.2239 
L 95.491925 353.2239 
L 104.760375 353.2239 
L 114.028825 353.2239 
L 123.297275 353.2239 
L 132.565725 353.2239 
L 141.834175 353.2239 
L 151.102625 353.2239 
L 160.371075 353.2239 
L 169.639525 353.2239 
L 178.907975 353.2239 
L 188.176425 353.2239 
L 197.444875 353.2239 
L 206.713325 353.2239 
L 215.981775 353.2239 
L 225.250225 353.2239 
L 234.518675 353.2239 
L 243.787125 353.2239 
L 253.055575 353.2239 
L 262.324025 353.2239 
L 271.592475 353.2239 
L 280.860925 353.2239 
L 290.129375 353.2239 
L 299.397825 353.2239 
L 308.666275 353.2239 
L 317.934725 353.2239 
L 327.203175 353.2239 
L 336.471625 353.223088 
L 345.740075 353.221464 
L 355.008525 353.219027 
L 364.276975 353.220652 
L 373.545425 353.217403 
L 382.813875 353.214155 
L 392.082325 353.205627 
L 401.350775 353.192633 
L 410.619225 353.192227 
L 419.887675 353.164209 
L 429.156125 352.926665 
L 438.424575 340.98731 
L 447.693025 340.182907 
L 456.961475 349.589265 
L 466.229925 348.32967 
L 475.498375 350.199572 
L 484.766825 344.879386 
L 494.035275 334.586195 
L 503.303725 338.346302 
L 512.572175 331.862757 
L 521.840625 332.308204 
L 531.109075 347.150881 
L 540.377525 337.483833 
L 549.645975 333.312794 
L 558.914425 339.181566 
L 568.182875 313.892613 
L 577.451325 310.744843 
L 586.719775 327.803791 
L 595.988225 335.886396 
L 605.256675 349.754937 
L 614.525125 351.427089 
L 623.793575 351.988668 
L 633.062025 352.279407 
L 642.330475 352.516951 
L 651.598925 352.686278 
L 660.867375 352.807283 
L 670.135825 352.921792 
L 679.404275 352.968489 
L 688.672725 352.995289 
L 697.941175 353.066349 
L 707.209625 353.095179 
L 716.478075 353.123197 
L 725.746525 353.123197 
L 735.014975 353.144312 
L 744.283425 353.184106 
L 753.551875 353.173549 
L 762.820325 353.175985 
L 772.088775 353.187355 
L 781.357225 353.196288 
L 790.625675 353.210906 
L 799.894125 353.213342 
L 809.162575 353.217403 
L 818.431025 353.219839 
L 827.699475 353.222276 
L 836.967925 353.223088 
L 846.236375 353.2239 
L 855.504825 353.2239 
L 864.773275 353.2239 
L 874.041725 353.2239 
L 883.310175 353.2239 
L 892.578625 353.2239 
L 901.847075 353.2239 
L 911.115525 353.2239 
L 920.383975 353.2239 
L 929.652425 353.2239 
L 938.920875 353.2239 
L 948.189325 353.2239 
L 957.457775 353.2239 
L 966.726225 353.2239 
L 975.994675 353.2239 
L 985.263125 353.2239 
" clip-path="url(#p2f57118dd6)" style="fill: none; stroke: #d9534f; stroke-linecap: square"/>
   </g>
   <g id="line2d_29">
    <path d="M 58.418125 353.2239 
L 67.686575 353.2239 
L 76.955025 353.2239 
L 86.223475 353.2239 
L 95.491925 353.2239 
L 104.760375 353.2239 
L 114.028825 353.2239 
L 123.297275 353.2239 
L 132.565725 353.2239 
L 141.834175 353.2239 
L 151.102625 353.2239 
L 160.371075 353.2239 
L 169.639525 353.2239 
L 178.907975 353.2239 
L 188.176425 353.2239 
L 197.444875 353.2239 
L 206.713325 353.2239 
L 215.981775 353.2239 
L 225.250225 353.2239 
L 234.518675 353.2239 
L 243.787125 353.2239 
L 253.055575 353.2239 
L 262.324025 353.2239 
L 271.592475 353.2239 
L 280.860925 353.2239 
L 290.129375 353.2239 
L 299.397825 353.2239 
L 308.666275 353.2239 
L 317.934725 353.2239 
L 327.203175 353.2239 
L 336.471625 353.2239 
L 345.740075 353.222682 
L 355.008525 353.221464 
L 364.276975 353.221464 
L 373.545425 353.22187 
L 382.813875 353.220652 
L 392.082325 353.215779 
L 401.350775 353.214155 
L 410.619225 353.213342 
L 419.887675 353.200755 
L 429.156125 353.046046 
L 438.424575 352.991228 
L 447.693025 353.078531 
L 456.961475 351.771833 
L 466.229925 351.438052 
L 475.498375 346.629907 
L 484.766825 338.830324 
L 494.035275 336.23114 
L 503.303725 333.687586 
L 512.572175 146.487862 
L 521.840625 144.190786 
L 531.109075 337.414803 
L 540.377525 349.358218 
L 549.645975 350.296214 
L 558.914425 350.813939 
L 568.182875 349.557999 
L 577.451325 349.795543 
L 586.719775 352.676532 
L 595.988225 352.991634 
L 605.256675 353.05701 
L 614.525125 353.090713 
L 623.793575 353.096804 
L 633.062025 353.144718 
L 642.330475 353.159337 
L 651.598925 353.180046 
L 660.867375 353.169894 
L 670.135825 353.180858 
L 679.404275 353.188573 
L 688.672725 353.200349 
L 697.941175 353.193852 
L 707.209625 353.202785 
L 716.478075 353.20847 
L 725.746525 353.20847 
L 735.014975 353.207658 
L 744.283425 353.21253 
L 753.551875 353.214155 
L 762.820325 353.216591 
L 772.088775 353.219839 
L 781.357225 353.219839 
L 790.625675 353.219839 
L 799.894125 353.223088 
L 809.162575 353.221464 
L 818.431025 353.2239 
L 827.699475 353.2239 
L 836.967925 353.2239 
L 846.236375 353.2239 
L 855.504825 353.2239 
L 864.773275 353.2239 
L 874.041725 353.2239 
L 883.310175 353.2239 
L 892.578625 353.2239 
L 901.847075 353.2239 
L 911.115525 353.2239 
L 920.383975 353.2239 
L 929.652425 353.2239 
L 938.920875 353.2239 
L 948.189325 353.2239 
L 957.457775 353.2239 
L 966.726225 353.2239 
L 975.994675 353.2239 
L 985.263125 353.2239 
" clip-path="url(#p2f57118dd6)" style="fill: none; stroke: #d9534f; stroke-linecap: square"/>
   </g>
   <g id="line2d_30">
    <path d="M 58.418125 353.2239 
L 67.686575 353.2239 
L 76.955025 353.2239 
L 86.223475 353.2239 
L 95.491925 353.2239 
L 104.760375 353.2239 
L 114.028825 353.2239 
L 123.297275 353.2239 
L 132.565725 353.2239 
L 141.834175 353.2239 
L 151.102625 353.2239 
L 160.371075 353.2239 
L 169.639525 353.2239 
L 178.907975 353.2239 
L 188.176425 353.2239 
L 197.444875 353.2239 
L 206.713325 353.2239 
L 215.981775 353.2239 
L 225.250225 353.2239 
L 234.518675 353.2239 
L 243.787125 353.2239 
L 253.055575 353.2239 
L 262.324025 353.2239 
L 271.592475 353.2239 
L 280.860925 353.2239 
L 290.129375 353.222682 
L 299.397825 353.222682 
L 308.666275 353.2239 
L 317.934725 353.2239 
L 327.203175 353.2239 
L 336.471625 353.2239 
L 345.740075 353.2239 
L 355.008525 353.222682 
L 364.276975 353.221464 
L 373.545425 353.222682 
L 382.813875 353.22187 
L 392.082325 353.215373 
L 401.350775 353.211312 
L 410.619225 353.207658 
L 419.887675 353.206439 
L 429.156125 353.206439 
L 438.424575 353.188979 
L 447.693025 353.124822 
L 456.961475 353.059446 
L 466.229925 351.964305 
L 475.498375 350.473256 
L 484.766825 351.048236 
L 494.035275 351.235023 
L 503.303725 342.696413 
L 512.572175 173.197209 
L 521.840625 166.362017 
L 531.109075 335.000781 
L 540.377525 349.98964 
L 549.645975 351.736912 
L 558.914425 352.187637 
L 568.182875 351.457949 
L 577.451325 351.318671 
L 586.719775 352.354528 
L 595.988225 352.799974 
L 605.256675 352.958337 
L 614.525125 353.040767 
L 623.793575 353.091931 
L 633.062025 353.142688 
L 642.330475 353.169488 
L 651.598925 353.159337 
L 660.867375 353.174767 
L 670.135825 353.182482 
L 679.404275 353.191415 
L 688.672725 353.205221 
L 697.941175 353.206846 
L 707.209625 353.210906 
L 716.478075 353.216591 
L 725.746525 353.219027 
L 735.014975 353.219839 
L 744.283425 353.218215 
L 753.551875 353.220652 
L 762.820325 353.222276 
L 772.088775 353.2239 
L 781.357225 353.223088 
L 790.625675 353.223088 
L 799.894125 353.222276 
L 809.162575 353.221464 
L 818.431025 353.223088 
L 827.699475 353.2239 
L 836.967925 353.2239 
L 846.236375 353.2239 
L 855.504825 353.2239 
L 864.773275 353.2239 
L 874.041725 353.2239 
L 883.310175 353.2239 
L 892.578625 353.2239 
L 901.847075 353.2239 
L 911.115525 353.2239 
L 920.383975 353.2239 
L 929.652425 353.2239 
L 938.920875 353.2239 
L 948.189325 353.2239 
L 957.457775 353.2239 
L 966.726225 353.2239 
L 975.994675 353.2239 
L 985.263125 353.2239 
" clip-path="url(#p2f57118dd6)" style="fill: none; stroke: #d9534f; stroke-linecap: square"/>
   </g>
   <g id="line2d_31">
    <path d="M 58.418125 353.2239 
L 67.686575 353.2239 
L 76.955025 353.2239 
L 86.223475 353.2239 
L 95.491925 353.2239 
L 104.760375 353.2239 
L 114.028825 353.2239 
L 123.297275 353.2239 
L 132.565725 353.2239 
L 141.834175 353.2239 
L 151.102625 353.2239 
L 160.371075 353.2239 
L 169.639525 353.2239 
L 178.907975 353.2239 
L 188.176425 353.2239 
L 197.444875 353.2239 
L 206.713325 353.2239 
L 215.981775 353.2239 
L 225.250225 353.2239 
L 234.518675 353.2239 
L 243.787125 353.2239 
L 253.055575 353.2239 
L 262.324025 353.2239 
L 271.592475 353.2239 
L 280.860925 353.223088 
L 290.129375 353.223088 
L 299.397825 353.2239 
L 308.666275 353.2239 
L 317.934725 353.221464 
L 327.203175 353.219027 
L 336.471625 353.218215 
L 345.740075 353.215779 
L 355.008525 353.215779 
L 364.276975 353.213342 
L 373.545425 353.205221 
L 382.813875 353.197912 
L 392.082325 353.187355 
L 401.350775 353.167052 
L 410.619225 353.145937 
L 419.887675 353.137409 
L 429.156125 353.1167 
L 438.424575 353.073658 
L 447.693025 353.031022 
L 456.961475 352.916919 
L 466.229925 350.307584 
L 475.498375 346.40495 
L 484.766825 348.304494 
L 494.035275 351.696306 
L 503.303725 350.338038 
L 512.572175 327.143945 
L 521.840625 321.725086 
L 531.109075 341.594368 
L 540.377525 341.889167 
L 549.645975 342.456432 
L 558.914425 343.707906 
L 568.182875 307.067979 
L 577.451325 300.697318 
L 586.719775 325.036498 
L 595.988225 334.407123 
L 605.256675 348.703244 
L 614.525125 350.70471 
L 623.793575 351.507894 
L 633.062025 351.942784 
L 642.330475 352.278595 
L 651.598925 352.501115 
L 660.867375 352.619684 
L 670.135825 352.663538 
L 679.404275 352.773987 
L 688.672725 352.859259 
L 697.941175 352.89621 
L 707.209625 352.969707 
L 716.478075 353.006658 
L 725.746525 353.073658 
L 735.014975 353.098834 
L 744.283425 353.131319 
L 753.551875 353.137003 
L 762.820325 353.153246 
L 772.088775 353.162991 
L 781.357225 353.187355 
L 790.625675 353.19304 
L 799.894125 353.204409 
L 809.162575 353.206033 
L 818.431025 353.215779 
L 827.699475 353.221464 
L 836.967925 353.223088 
L 846.236375 353.223088 
L 855.504825 353.2239 
L 864.773275 353.2239 
L 874.041725 353.2239 
L 883.310175 353.2239 
L 892.578625 353.2239 
L 901.847075 353.2239 
L 911.115525 353.2239 
L 920.383975 353.2239 
L 929.652425 353.2239 
L 938.920875 353.2239 
L 948.189325 353.2239 
L 957.457775 353.2239 
L 966.726225 353.2239 
L 975.994675 353.2239 
L 985.263125 353.2239 
" clip-path="url(#p2f57118dd6)" style="fill: none; stroke: #d9534f; stroke-linecap: square"/>
   </g>
   <g id="line2d_32">
    <path d="M 58.418125 353.2239 
L 67.686575 353.2239 
L 76.955025 353.2239 
L 86.223475 353.2239 
L 95.491925 353.2239 
L 104.760375 353.2239 
L 114.028825 353.2239 
L 123.297275 353.2239 
L 132.565725 353.2239 
L 141.834175 353.2239 
L 151.102625 353.2239 
L 160.371075 353.2239 
L 169.639525 353.2239 
L 178.907975 353.2239 
L 188.176425 353.2239 
L 197.444875 353.2239 
L 206.713325 353.2239 
L 215.981775 353.2239 
L 225.250225 353.2239 
L 234.518675 353.2239 
L 243.787125 353.2239 
L 253.055575 353.2239 
L 262.324025 353.2239 
L 271.592475 353.2239 
L 280.860925 353.2239 
L 290.129375 353.222682 
L 299.397825 353.222682 
L 308.666275 353.222682 
L 317.934725 353.222682 
L 327.203175 353.2239 
L 336.471625 353.2239 
L 345.740075 353.2239 
L 355.008525 353.2239 
L 364.276975 353.221464 
L 373.545425 353.222276 
L 382.813875 353.217403 
L 392.082325 353.216997 
L 401.350775 353.210906 
L 410.619225 353.204003 
L 419.887675 353.19507 
L 429.156125 353.17964 
L 438.424575 353.073252 
L 447.693025 352.972955 
L 456.961475 351.317453 
L 466.229925 345.236718 
L 475.498375 343.333519 
L 484.766825 348.767402 
L 494.035275 351.572052 
L 503.303725 346.017976 
L 512.572175 217.23066 
L 521.840625 213.844533 
L 531.109075 341.184249 
L 540.377525 348.163186 
L 549.645975 348.913177 
L 558.914425 346.653052 
L 568.182875 321.806298 
L 577.451325 321.746202 
L 586.719775 346.510526 
L 595.988225 350.585734 
L 605.256675 351.839645 
L 614.525125 352.310267 
L 623.793575 352.547812 
L 633.062025 352.757338 
L 642.330475 352.872253 
L 651.598925 352.957119 
L 660.867375 353.01681 
L 670.135825 353.087058 
L 679.404275 353.113046 
L 688.672725 353.127258 
L 697.941175 353.148779 
L 707.209625 353.160961 
L 716.478075 353.188167 
L 725.746525 353.19304 
L 735.014975 353.201161 
L 744.283425 353.206033 
L 753.551875 353.210094 
L 762.820325 353.215779 
L 772.088775 353.218215 
L 781.357225 353.223088 
L 790.625675 353.222276 
L 799.894125 353.221464 
L 809.162575 353.2239 
L 818.431025 353.2239 
L 827.699475 353.2239 
L 836.967925 353.2239 
L 846.236375 353.2239 
L 855.504825 353.2239 
L 864.773275 353.2239 
L 874.041725 353.2239 
L 883.310175 353.2239 
L 892.578625 353.2239 
L 901.847075 353.2239 
L 911.115525 353.2239 
L 920.383975 353.2239 
L 929.652425 353.2239 
L 938.920875 353.2239 
L 948.189325 353.2239 
L 957.457775 353.2239 
L 966.726225 353.2239 
L 975.994675 353.2239 
L 985.263125 353.2239 
" clip-path="url(#p2f57118dd6)" style="fill: none; stroke: #d9534f; stroke-linecap: square"/>
   </g>
   <g id="line2d_33">
    <path d="M 58.418125 353.2239 
L 67.686575 353.2239 
L 76.955025 353.2239 
L 86.223475 353.2239 
L 95.491925 353.2239 
L 104.760375 353.2239 
L 114.028825 353.2239 
L 123.297275 353.2239 
L 132.565725 353.2239 
L 141.834175 353.2239 
L 151.102625 353.2239 
L 160.371075 353.2239 
L 169.639525 353.2239 
L 178.907975 353.2239 
L 188.176425 353.2239 
L 197.444875 353.2239 
L 206.713325 353.2239 
L 215.981775 353.2239 
L 225.250225 353.2239 
L 234.518675 353.222682 
L 243.787125 353.222682 
L 253.055575 353.2239 
L 262.324025 353.2239 
L 271.592475 353.2239 
L 280.860925 353.222276 
L 290.129375 353.222276 
L 299.397825 353.222276 
L 308.666275 353.221464 
L 317.934725 353.2239 
L 327.203175 353.222276 
L 336.471625 353.220652 
L 345.740075 353.216591 
L 355.008525 353.210906 
L 364.276975 353.210906 
L 373.545425 353.201567 
L 382.813875 353.193446 
L 392.082325 353.188167 
L 401.350775 353.178421 
L 410.619225 353.154058 
L 419.887675 353.134161 
L 429.156125 353.033864 
L 438.424575 349.421563 
L 447.693025 348.760499 
L 456.961475 342.685449 
L 466.229925 342.402832 
L 475.498375 351.477846 
L 484.766825 347.399389 
L 494.035275 341.392963 
L 503.303725 342.889697 
L 512.572175 342.174627 
L 521.840625 338.216363 
L 531.109075 342.285075 
L 540.377525 347.076572 
L 549.645975 346.93973 
L 558.914425 344.086353 
L 568.182875 300.925117 
L 577.451325 291.779449 
L 586.719775 333.154025 
L 595.988225 345.823068 
L 605.256675 349.314769 
L 614.525125 350.839115 
L 623.793575 351.573676 
L 633.062025 351.991917 
L 642.330475 352.257479 
L 651.598925 352.434521 
L 660.867375 352.576236 
L 670.135825 352.655417 
L 679.404275 352.745156 
L 688.672725 352.802005 
L 697.941175 352.85601 
L 707.209625 352.886059 
L 716.478075 352.925853 
L 725.746525 352.977828 
L 735.014975 352.985543 
L 744.283425 353.026149 
L 753.551875 353.060664 
L 762.820325 353.088276 
L 772.088775 353.093149 
L 781.357225 353.135379 
L 790.625675 353.158931 
L 799.894125 353.178421 
L 809.162575 353.189791 
L 818.431025 353.207658 
L 827.699475 353.216591 
L 836.967925 353.217403 
L 846.236375 353.221464 
L 855.504825 353.2239 
L 864.773275 353.2239 
L 874.041725 353.2239 
L 883.310175 353.2239 
L 892.578625 353.2239 
L 901.847075 353.2239 
L 911.115525 353.2239 
L 920.383975 353.2239 
L 929.652425 353.2239 
L 938.920875 353.2239 
L 948.189325 353.2239 
L 957.457775 353.2239 
L 966.726225 353.2239 
L 975.994675 353.2239 
L 985.263125 353.2239 
" clip-path="url(#p2f57118dd6)" style="fill: none; stroke: #d9534f; stroke-linecap: square"/>
   </g>
   <g id="line2d_34">
    <path d="M 58.418125 353.2239 
L 67.686575 353.2239 
L 76.955025 353.2239 
L 86.223475 353.2239 
L 95.491925 353.2239 
L 104.760375 353.2239 
L 114.028825 353.2239 
L 123.297275 353.2239 
L 132.565725 353.2239 
L 141.834175 353.2239 
L 151.102625 353.2239 
L 160.371075 353.2239 
L 169.639525 353.2239 
L 178.907975 353.2239 
L 188.176425 353.2239 
L 197.444875 353.2239 
L 206.713325 353.2239 
L 215.981775 353.2239 
L 225.250225 353.2239 
L 234.518675 353.2239 
L 243.787125 353.2239 
L 253.055575 353.2239 
L 262.324025 353.2239 
L 271.592475 353.2239 
L 280.860925 353.2239 
L 290.129375 353.2239 
L 299.397825 353.2239 
L 308.666275 353.22187 
L 317.934725 353.221058 
L 327.203175 353.223088 
L 336.471625 353.2239 
L 345.740075 353.2239 
L 355.008525 353.223088 
L 364.276975 353.222276 
L 373.545425 353.222682 
L 382.813875 353.213749 
L 392.082325 353.208876 
L 401.350775 353.186949 
L 410.619225 353.125634 
L 419.887675 352.890526 
L 429.156125 341.415702 
L 438.424575 340.046471 
L 447.693025 338.326811 
L 456.961475 338.058406 
L 466.229925 319.689106 
L 475.498375 314.502514 
L 484.766825 344.563878 
L 494.035275 349.941319 
L 503.303725 336.547866 
L 512.572175 270.641232 
L 521.840625 262.550099 
L 531.109075 327.579646 
L 540.377525 349.532823 
L 549.645975 351.681282 
L 558.914425 352.358182 
L 568.182875 352.712672 
L 577.451325 352.913265 
L 586.719775 353.049295 
L 595.988225 353.132131 
L 605.256675 353.163397 
L 614.525125 353.187761 
L 623.793575 353.205221 
L 633.062025 353.210094 
L 642.330475 353.212936 
L 651.598925 353.219839 
L 660.867375 353.221464 
L 670.135825 353.221464 
L 679.404275 353.223088 
L 688.672725 353.2239 
L 697.941175 353.2239 
L 707.209625 353.2239 
L 716.478075 353.2239 
L 725.746525 353.2239 
L 735.014975 353.2239 
L 744.283425 353.2239 
L 753.551875 353.2239 
L 762.820325 353.2239 
L 772.088775 353.2239 
L 781.357225 353.2239 
L 790.625675 353.2239 
L 799.894125 353.2239 
L 809.162575 353.2239 
L 818.431025 353.2239 
L 827.699475 353.2239 
L 836.967925 353.2239 
L 846.236375 353.2239 
L 855.504825 353.2239 
L 864.773275 353.2239 
L 874.041725 353.2239 
L 883.310175 353.2239 
L 892.578625 353.2239 
L 901.847075 353.2239 
L 911.115525 353.2239 
L 920.383975 353.2239 
L 929.652425 353.2239 
L 938.920875 353.2239 
L 948.189325 353.2239 
L 957.457775 353.2239 
L 966.726225 353.2239 
L 975.994675 353.2239 
L 985.263125 353.2239 
" clip-path="url(#p2f57118dd6)" style="fill: none; stroke: #d9534f; stroke-linecap: square"/>
   </g>
   <g id="line2d_35">
    <path d="M 58.418125 353.2239 
L 67.686575 353.2239 
L 76.955025 353.2239 
L 86.223475 353.2239 
L 95.491925 353.2239 
L 104.760375 353.2239 
L 114.028825 353.2239 
L 123.297275 353.2239 
L 132.565725 353.2239 
L 141.834175 353.2239 
L 151.102625 353.2239 
L 160.371075 353.2239 
L 169.639525 353.2239 
L 178.907975 353.2239 
L 188.176425 353.2239 
L 197.444875 353.2239 
L 206.713325 353.2239 
L 215.981775 353.2239 
L 225.250225 353.2239 
L 234.518675 353.2239 
L 243.787125 353.2239 
L 253.055575 353.2239 
L 262.324025 353.2239 
L 271.592475 353.2239 
L 280.860925 353.2239 
L 290.129375 353.2239 
L 299.397825 353.222682 
L 308.666275 353.222682 
L 317.934725 353.2239 
L 327.203175 353.2239 
L 336.471625 353.223088 
L 345.740075 353.22187 
L 355.008525 353.220245 
L 364.276975 353.222276 
L 373.545425 353.222682 
L 382.813875 353.219839 
L 392.082325 353.216591 
L 401.350775 353.208876 
L 410.619225 353.196288 
L 419.887675 353.19304 
L 429.156125 353.170706 
L 438.424575 353.107767 
L 447.693025 352.87672 
L 456.961475 345.178246 
L 466.229925 337.248318 
L 475.498375 344.070111 
L 484.766825 351.582203 
L 494.035275 346.923894 
L 503.303725 342.971721 
L 512.572175 188.115007 
L 521.840625 177.018631 
L 531.109075 335.233453 
L 540.377525 349.888937 
L 549.645975 347.395328 
L 558.914425 347.697436 
L 568.182875 350.422905 
L 577.451325 350.636492 
L 586.719775 351.830711 
L 595.988225 352.20591 
L 605.256675 352.938847 
L 614.525125 353.062695 
L 623.793575 353.112234 
L 633.062025 353.1435 
L 642.330475 353.147155 
L 651.598925 353.161367 
L 660.867375 353.179234 
L 670.135825 353.184918 
L 679.404275 353.186543 
L 688.672725 353.184918 
L 697.941175 353.200349 
L 707.209625 353.202785 
L 716.478075 353.199536 
L 725.746525 353.209282 
L 735.014975 353.215373 
L 744.283425 353.213749 
L 753.551875 353.211718 
L 762.820325 353.216591 
L 772.088775 353.223088 
L 781.357225 353.222276 
L 790.625675 353.219839 
L 799.894125 353.222276 
L 809.162575 353.223088 
L 818.431025 353.2239 
L 827.699475 353.223088 
L 836.967925 353.223088 
L 846.236375 353.2239 
L 855.504825 353.2239 
L 864.773275 353.2239 
L 874.041725 353.2239 
L 883.310175 353.2239 
L 892.578625 353.2239 
L 901.847075 353.2239 
L 911.115525 353.2239 
L 920.383975 353.2239 
L 929.652425 353.2239 
L 938.920875 353.2239 
L 948.189325 353.2239 
L 957.457775 353.2239 
L 966.726225 353.2239 
L 975.994675 353.2239 
L 985.263125 353.2239 
" clip-path="url(#p2f57118dd6)" style="fill: none; stroke: #d9534f; stroke-linecap: square"/>
   </g>
   <g id="line2d_36">
    <path d="M 58.418125 353.2239 
L 67.686575 353.2239 
L 76.955025 353.2239 
L 86.223475 353.2239 
L 95.491925 353.2239 
L 104.760375 353.2239 
L 114.028825 353.2239 
L 123.297275 353.2239 
L 132.565725 353.2239 
L 141.834175 353.2239 
L 151.102625 353.2239 
L 160.371075 353.2239 
L 169.639525 353.2239 
L 178.907975 353.2239 
L 188.176425 353.2239 
L 197.444875 353.2239 
L 206.713325 353.2239 
L 215.981775 353.2239 
L 225.250225 353.2239 
L 234.518675 353.2239 
L 243.787125 353.2239 
L 253.055575 353.2239 
L 262.324025 353.2239 
L 271.592475 353.223088 
L 280.860925 353.2239 
L 290.129375 353.2239 
L 299.397825 353.2239 
L 308.666275 353.2239 
L 317.934725 353.2239 
L 327.203175 353.2239 
L 336.471625 353.2239 
L 345.740075 353.2239 
L 355.008525 353.2239 
L 364.276975 353.2239 
L 373.545425 353.2239 
L 382.813875 353.2239 
L 392.082325 353.2239 
L 401.350775 353.2239 
L 410.619225 353.2239 
L 419.887675 353.2239 
L 429.156125 353.223088 
L 438.424575 353.220652 
L 447.693025 353.222276 
L 456.961475 353.2239 
L 466.229925 353.215779 
L 475.498375 353.208876 
L 484.766825 353.206846 
L 494.035275 353.207658 
L 503.303725 353.190603 
L 512.572175 353.081779 
L 521.840625 353.088682 
L 531.109075 353.186949 
L 540.377525 353.197506 
L 549.645975 353.201973 
L 558.914425 353.210094 
L 568.182875 353.208064 
L 577.451325 353.210094 
L 586.719775 353.212936 
L 595.988225 353.2105 
L 605.256675 353.217809 
L 614.525125 353.223088 
L 623.793575 353.223088 
L 633.062025 353.223088 
L 642.330475 353.222276 
L 651.598925 353.2239 
L 660.867375 353.2239 
L 670.135825 353.2239 
L 679.404275 353.2239 
L 688.672725 353.223088 
L 697.941175 353.2239 
L 707.209625 353.2239 
L 716.478075 353.2239 
L 725.746525 353.2239 
L 735.014975 353.2239 
L 744.283425 353.223088 
L 753.551875 353.2239 
L 762.820325 353.2239 
L 772.088775 353.2239 
L 781.357225 353.2239 
L 790.625675 353.2239 
L 799.894125 353.2239 
L 809.162575 353.2239 
L 818.431025 353.2239 
L 827.699475 353.2239 
L 836.967925 353.2239 
L 846.236375 353.2239 
L 855.504825 353.2239 
L 864.773275 353.2239 
L 874.041725 353.2239 
L 883.310175 353.2239 
L 892.578625 353.2239 
L 901.847075 353.2239 
L 911.115525 353.2239 
L 920.383975 353.2239 
L 929.652425 353.2239 
L 938.920875 353.2239 
L 948.189325 353.2239 
L 957.457775 353.2239 
L 966.726225 353.2239 
L 975.994675 353.2239 
L 985.263125 353.2239 
" clip-path="url(#p2f57118dd6)" style="fill: none; stroke: #d9534f; stroke-linecap: square"/>
   </g>
   <g id="line2d_37">
    <path d="M 58.418125 353.2239 
L 985.263125 353.2239 
" clip-path="url(#p2f57118dd6)" style="fill: none; stroke: #dedede; stroke-width: 2; stroke-linecap: square"/>
   </g>
   <g id="text_16">
    <!-- FastQC: Per Sequence GC Content -->
    <g transform="translate(385.204375 19.3575) scale(0.16 -0.16)">
     <defs>
      <path id="DejaVuSans-46" d="M 628 4666 
L 3309 4666 
L 3309 4134 
L 1259 4134 
L 1259 2759 
L 3109 2759 
L 3109 2228 
L 1259 2228 
L 1259 0 
L 628 0 
L 628 4666 
z
" transform="scale(0.015625)"/>
      <path id="DejaVuSans-61" d="M 2194 1759 
Q 1497 1759 1228 1600 
Q 959 1441 959 1056 
Q 959 750 1161 570 
Q 1363 391 1709 391 
Q 2188 391 2477 730 
Q 2766 1069 2766 1631 
L 2766 1759 
L 2194 1759 
z
M 3341 1997 
L 3341 0 
L 2766 0 
L 2766 531 
Q 2569 213 2275 61 
Q 1981 -91 1556 -91 
Q 1019 -91 701 211 
Q 384 513 384 1019 
Q 384 1609 779 1909 
Q 1175 2209 1959 2209 
L 2766 2209 
L 2766 2266 
Q 2766 2663 2505 2880 
Q 2244 3097 1772 3097 
Q 1472 3097 1187 3025 
Q 903 2953 641 2809 
L 641 3341 
Q 956 3463 1253 3523 
Q 1550 3584 1831 3584 
Q 2591 3584 2966 3190 
Q 3341 2797 3341 1997 
z
" transform="scale(0.015625)"/>
      <path id="DejaVuSans-73" d="M 2834 3397 
L 2834 2853 
Q 2591 2978 2328 3040 
Q 2066 3103 1784 3103 
Q 1356 3103 1142 2972 
Q 928 2841 928 2578 
Q 928 2378 1081 2264 
Q 1234 2150 1697 2047 
L 1894 2003 
Q 2506 1872 2764 1633 
Q 3022 1394 3022 966 
Q 3022 478 2636 193 
Q 2250 -91 1575 -91 
Q 1294 -91 989 -36 
Q 684 19 347 128 
L 347 722 
Q 666 556 975 473 
Q 1284 391 1588 391 
Q 1994 391 2212 530 
Q 2431 669 2431 922 
Q 2431 1156 2273 1281 
Q 2116 1406 1581 1522 
L 1381 1569 
Q 847 1681 609 1914 
Q 372 2147 372 2553 
Q 372 3047 722 3315 
Q 1072 3584 1716 3584 
Q 2034 3584 2315 3537 
Q 2597 3491 2834 3397 
z
" transform="scale(0.015625)"/>
      <path id="DejaVuSans-51" d="M 2522 4238 
Q 1834 4238 1429 3725 
Q 1025 3213 1025 2328 
Q 1025 1447 1429 934 
Q 1834 422 2522 422 
Q 3209 422 3611 934 
Q 4013 1447 4013 2328 
Q 4013 3213 3611 3725 
Q 3209 4238 2522 4238 
z
M 3406 84 
L 4238 -825 
L 3475 -825 
L 2784 -78 
Q 2681 -84 2626 -87 
Q 2572 -91 2522 -91 
Q 1538 -91 948 567 
Q 359 1225 359 2328 
Q 359 3434 948 4092 
Q 1538 4750 2522 4750 
Q 3503 4750 4090 4092 
Q 4678 3434 4678 2328 
Q 4678 1516 4351 937 
Q 4025 359 3406 84 
z
" transform="scale(0.015625)"/>
      <path id="DejaVuSans-3a" d="M 750 794 
L 1409 794 
L 1409 0 
L 750 0 
L 750 794 
z
M 750 3309 
L 1409 3309 
L 1409 2516 
L 750 2516 
L 750 3309 
z
" transform="scale(0.015625)"/>
      <path id="DejaVuSans-50" d="M 1259 4147 
L 1259 2394 
L 2053 2394 
Q 2494 2394 2734 2622 
Q 2975 2850 2975 3272 
Q 2975 3691 2734 3919 
Q 2494 4147 2053 4147 
L 1259 4147 
z
M 628 4666 
L 2053 4666 
Q 2838 4666 3239 4311 
Q 3641 3956 3641 3272 
Q 3641 2581 3239 2228 
Q 2838 1875 2053 1875 
L 1259 1875 
L 1259 0 
L 628 0 
L 628 4666 
z
" transform="scale(0.015625)"/>
      <path id="DejaVuSans-65" d="M 3597 1894 
L 3597 1613 
L 953 1613 
Q 991 1019 1311 708 
Q 1631 397 2203 397 
Q 2534 397 2845 478 
Q 3156 559 3463 722 
L 3463 178 
Q 3153 47 2828 -22 
Q 2503 -91 2169 -91 
Q 1331 -91 842 396 
Q 353 884 353 1716 
Q 353 2575 817 3079 
Q 1281 3584 2069 3584 
Q 2775 3584 3186 3129 
Q 3597 2675 3597 1894 
z
M 3022 2063 
Q 3016 2534 2758 2815 
Q 2500 3097 2075 3097 
Q 1594 3097 1305 2825 
Q 1016 2553 972 2059 
L 3022 2063 
z
" transform="scale(0.015625)"/>
      <path id="DejaVuSans-72" d="M 2631 2963 
Q 2534 3019 2420 3045 
Q 2306 3072 2169 3072 
Q 1681 3072 1420 2755 
Q 1159 2438 1159 1844 
L 1159 0 
L 581 0 
L 581 3500 
L 1159 3500 
L 1159 2956 
Q 1341 3275 1631 3429 
Q 1922 3584 2338 3584 
Q 2397 3584 2469 3576 
Q 2541 3569 2628 3553 
L 2631 2963 
z
" transform="scale(0.015625)"/>
      <path id="DejaVuSans-53" d="M 3425 4513 
L 3425 3897 
Q 3066 4069 2747 4153 
Q 2428 4238 2131 4238 
Q 1616 4238 1336 4038 
Q 1056 3838 1056 3469 
Q 1056 3159 1242 3001 
Q 1428 2844 1947 2747 
L 2328 2669 
Q 3034 2534 3370 2195 
Q 3706 1856 3706 1288 
Q 3706 609 3251 259 
Q 2797 -91 1919 -91 
Q 1588 -91 1214 -16 
Q 841 59 441 206 
L 441 856 
Q 825 641 1194 531 
Q 1563 422 1919 422 
Q 2459 422 2753 634 
Q 3047 847 3047 1241 
Q 3047 1584 2836 1778 
Q 2625 1972 2144 2069 
L 1759 2144 
Q 1053 2284 737 2584 
Q 422 2884 422 3419 
Q 422 4038 858 4394 
Q 1294 4750 2059 4750 
Q 2388 4750 2728 4690 
Q 3069 4631 3425 4513 
z
" transform="scale(0.015625)"/>
      <path id="DejaVuSans-71" d="M 947 1747 
Q 947 1113 1208 752 
Q 1469 391 1925 391 
Q 2381 391 2643 752 
Q 2906 1113 2906 1747 
Q 2906 2381 2643 2742 
Q 2381 3103 1925 3103 
Q 1469 3103 1208 2742 
Q 947 2381 947 1747 
z
M 2906 525 
Q 2725 213 2448 61 
Q 2172 -91 1784 -91 
Q 1150 -91 751 415 
Q 353 922 353 1747 
Q 353 2572 751 3078 
Q 1150 3584 1784 3584 
Q 2172 3584 2448 3432 
Q 2725 3281 2906 2969 
L 2906 3500 
L 3481 3500 
L 3481 -1331 
L 2906 -1331 
L 2906 525 
z
" transform="scale(0.015625)"/>
      <path id="DejaVuSans-63" d="M 3122 3366 
L 3122 2828 
Q 2878 2963 2633 3030 
Q 2388 3097 2138 3097 
Q 1578 3097 1268 2742 
Q 959 2388 959 1747 
Q 959 1106 1268 751 
Q 1578 397 2138 397 
Q 2388 397 2633 464 
Q 2878 531 3122 666 
L 3122 134 
Q 2881 22 2623 -34 
Q 2366 -91 2075 -91 
Q 1284 -91 818 406 
Q 353 903 353 1747 
Q 353 2603 823 3093 
Q 1294 3584 2113 3584 
Q 2378 3584 2631 3529 
Q 2884 3475 3122 3366 
z
" transform="scale(0.015625)"/>
     </defs>
     <use xlink:href="#DejaVuSans-46"/>
     <use xlink:href="#DejaVuSans-61" x="48.394531"/>
     <use xlink:href="#DejaVuSans-73" x="109.673828"/>
     <use xlink:href="#DejaVuSans-74" x="161.773438"/>
     <use xlink:href="#DejaVuSans-51" x="200.982422"/>
     <use xlink:href="#DejaVuSans-43" x="279.693359"/>
     <use xlink:href="#DejaVuSans-3a" x="349.517578"/>
     <use xlink:href="#DejaVuSans-20" x="383.208984"/>
     <use xlink:href="#DejaVuSans-50" x="414.996094"/>
     <use xlink:href="#DejaVuSans-65" x="471.673828"/>
     <use xlink:href="#DejaVuSans-72" x="533.197266"/>
     <use xlink:href="#DejaVuSans-20" x="574.310547"/>
     <use xlink:href="#DejaVuSans-53" x="606.097656"/>
     <use xlink:href="#DejaVuSans-65" x="669.574219"/>
     <use xlink:href="#DejaVuSans-71" x="731.097656"/>
     <use xlink:href="#DejaVuSans-75" x="794.574219"/>
     <use xlink:href="#DejaVuSans-65" x="857.953125"/>
     <use xlink:href="#DejaVuSans-6e" x="919.476562"/>
     <use xlink:href="#DejaVuSans-63" x="982.855469"/>
     <use xlink:href="#DejaVuSans-65" x="1037.835938"/>
     <use xlink:href="#DejaVuSans-20" x="1099.359375"/>
     <use xlink:href="#DejaVuSans-47" x="1131.146484"/>
     <use xlink:href="#DejaVuSans-43" x="1208.636719"/>
     <use xlink:href="#DejaVuSans-20" x="1278.460938"/>
     <use xlink:href="#DejaVuSans-43" x="1310.248047"/>
     <use xlink:href="#DejaVuSans-6f" x="1380.072266"/>
     <use xlink:href="#DejaVuSans-6e" x="1441.253906"/>
     <use xlink:href="#DejaVuSans-74" x="1504.632812"/>
     <use xlink:href="#DejaVuSans-65" x="1543.841797"/>
     <use xlink:href="#DejaVuSans-6e" x="1605.365234"/>
     <use xlink:href="#DejaVuSans-74" x="1668.744141"/>
    </g>
   </g>
  </g>
 </g>
 <defs>
  <clipPath id="p2f57118dd6">
   <rect x="58.418125" y="35.2559" width="926.845" height="317.968"/>
  </clipPath>
 </defs>
</svg>
