<?xml version="1.0" encoding="utf-8" standalone="no"?>
<!DOCTYPE svg PUBLIC "-//W3C//DTD SVG 1.1//EN"
  "http://www.w3.org/Graphics/SVG/1.1/DTD/svg11.dtd">
<svg xmlns:xlink="http://www.w3.org/1999/xlink" width="1000.258125pt" height="388.844525pt" viewBox="0 0 1000.258125 388.844525" xmlns="http://www.w3.org/2000/svg" version="1.1">
 <metadata>
  <rdf:RDF xmlns:dc="http://purl.org/dc/elements/1.1/" xmlns:cc="http://creativecommons.org/ns#" xmlns:rdf="http://www.w3.org/1999/02/22-rdf-syntax-ns#">
   <cc:Work>
    <dc:type rdf:resource="http://purl.org/dc/dcmitype/StillImage"/>
    <dc:date>2024-06-28T13:31:35.829168</dc:date>
    <dc:format>image/svg+xml</dc:format>
    <dc:creator>
     <cc:Agent>
      <dc:title>Matplotlib v3.7.1, https://matplotlib.org/</dc:title>
     </cc:Agent>
    </dc:creator>
   </cc:Work>
  </rdf:RDF>
 </metadata>
 <defs>
  <style type="text/css">*{stroke-linejoin: round; stroke-linecap: butt}</style>
 </defs>
 <g id="figure_1">
  <g id="axes_1">
   <g id="patch_1">
    <path d="M 38.058125 353.2239 
L 985.423125 353.2239 
L 985.423125 35.2559 
L 38.058125 35.2559 
z
" style="fill: #ffffff"/>
   </g>
   <g id="matplotlib.axis_1">
    <g id="xtick_1">
     <g id="text_1">
      <!-- 0 -->
      <g transform="translate(35.513125 366.30265) scale(0.08 -0.08)">
       <defs>
        <path id="DejaVuSans-30" d="M 2034 4250 
Q 1547 4250 1301 3770 
Q 1056 3291 1056 2328 
Q 1056 1369 1301 889 
Q 1547 409 2034 409 
Q 2525 409 2770 889 
Q 3016 1369 3016 2328 
Q 3016 3291 2770 3770 
Q 2525 4250 2034 4250 
z
M 2034 4750 
Q 2819 4750 3233 4129 
Q 3647 3509 3647 2328 
Q 3647 1150 3233 529 
Q 2819 -91 2034 -91 
Q 1250 -91 836 529 
Q 422 1150 422 2328 
Q 422 3509 836 4129 
Q 1250 4750 2034 4750 
z
" transform="scale(0.015625)"/>
       </defs>
       <use xlink:href="#DejaVuSans-30"/>
      </g>
     </g>
    </g>
    <g id="xtick_2">
     <g id="text_2">
      <!-- 20 -->
      <g transform="translate(222.441125 366.30265) scale(0.08 -0.08)">
       <defs>
        <path id="DejaVuSans-32" d="M 1228 531 
L 3431 531 
L 3431 0 
L 469 0 
L 469 531 
Q 828 903 1448 1529 
Q 2069 2156 2228 2338 
Q 2531 2678 2651 2914 
Q 2772 3150 2772 3378 
Q 2772 3750 2511 3984 
Q 2250 4219 1831 4219 
Q 1534 4219 1204 4116 
Q 875 4013 500 3803 
L 500 4441 
Q 881 4594 1212 4672 
Q 1544 4750 1819 4750 
Q 2544 4750 2975 4387 
Q 3406 4025 3406 3419 
Q 3406 3131 3298 2873 
Q 3191 2616 2906 2266 
Q 2828 2175 2409 1742 
Q 1991 1309 1228 531 
z
" transform="scale(0.015625)"/>
       </defs>
       <use xlink:href="#DejaVuSans-32"/>
       <use xlink:href="#DejaVuSans-30" x="63.623047"/>
      </g>
     </g>
    </g>
    <g id="xtick_3">
     <g id="text_3">
      <!-- 40 -->
      <g transform="translate(411.914125 366.30265) scale(0.08 -0.08)">
       <defs>
        <path id="DejaVuSans-34" d="M 2419 4116 
L 825 1625 
L 2419 1625 
L 2419 4116 
z
M 2253 4666 
L 3047 4666 
L 3047 1625 
L 3713 1625 
L 3713 1100 
L 3047 1100 
L 3047 0 
L 2419 0 
L 2419 1100 
L 313 1100 
L 313 1709 
L 2253 4666 
z
" transform="scale(0.015625)"/>
       </defs>
       <use xlink:href="#DejaVuSans-34"/>
       <use xlink:href="#DejaVuSans-30" x="63.623047"/>
      </g>
     </g>
    </g>
    <g id="xtick_4">
     <g id="text_4">
      <!-- 60 -->
      <g transform="translate(601.387125 366.30265) scale(0.08 -0.08)">
       <defs>
        <path id="DejaVuSans-36" d="M 2113 2584 
Q 1688 2584 1439 2293 
Q 1191 2003 1191 1497 
Q 1191 994 1439 701 
Q 1688 409 2113 409 
Q 2538 409 2786 701 
Q 3034 994 3034 1497 
Q 3034 2003 2786 2293 
Q 2538 2584 2113 2584 
z
M 3366 4563 
L 3366 3988 
Q 3128 4100 2886 4159 
Q 2644 4219 2406 4219 
Q 1781 4219 1451 3797 
Q 1122 3375 1075 2522 
Q 1259 2794 1537 2939 
Q 1816 3084 2150 3084 
Q 2853 3084 3261 2657 
Q 3669 2231 3669 1497 
Q 3669 778 3244 343 
Q 2819 -91 2113 -91 
Q 1303 -91 875 529 
Q 447 1150 447 2328 
Q 447 3434 972 4092 
Q 1497 4750 2381 4750 
Q 2619 4750 2861 4703 
Q 3103 4656 3366 4563 
z
" transform="scale(0.015625)"/>
       </defs>
       <use xlink:href="#DejaVuSans-36"/>
       <use xlink:href="#DejaVuSans-30" x="63.623047"/>
      </g>
     </g>
    </g>
    <g id="xtick_5">
     <g id="text_5">
      <!-- 80 -->
      <g transform="translate(790.860125 366.30265) scale(0.08 -0.08)">
       <defs>
        <path id="DejaVuSans-38" d="M 2034 2216 
Q 1584 2216 1326 1975 
Q 1069 1734 1069 1313 
Q 1069 891 1326 650 
Q 1584 409 2034 409 
Q 2484 409 2743 651 
Q 3003 894 3003 1313 
Q 3003 1734 2745 1975 
Q 2488 2216 2034 2216 
z
M 1403 2484 
Q 997 2584 770 2862 
Q 544 3141 544 3541 
Q 544 4100 942 4425 
Q 1341 4750 2034 4750 
Q 2731 4750 3128 4425 
Q 3525 4100 3525 3541 
Q 3525 3141 3298 2862 
Q 3072 2584 2669 2484 
Q 3125 2378 3379 2068 
Q 3634 1759 3634 1313 
Q 3634 634 3220 271 
Q 2806 -91 2034 -91 
Q 1263 -91 848 271 
Q 434 634 434 1313 
Q 434 1759 690 2068 
Q 947 2378 1403 2484 
z
M 1172 3481 
Q 1172 3119 1398 2916 
Q 1625 2713 2034 2713 
Q 2441 2713 2670 2916 
Q 2900 3119 2900 3481 
Q 2900 3844 2670 4047 
Q 2441 4250 2034 4250 
Q 1625 4250 1398 4047 
Q 1172 3844 1172 3481 
z
" transform="scale(0.015625)"/>
       </defs>
       <use xlink:href="#DejaVuSans-38"/>
       <use xlink:href="#DejaVuSans-30" x="63.623047"/>
      </g>
     </g>
    </g>
    <g id="xtick_6">
     <g id="text_6">
      <!-- 100 -->
      <g transform="translate(977.788125 366.30265) scale(0.08 -0.08)">
       <defs>
        <path id="DejaVuSans-31" d="M 794 531 
L 1825 531 
L 1825 4091 
L 703 3866 
L 703 4441 
L 1819 4666 
L 2450 4666 
L 2450 531 
L 3481 531 
L 3481 0 
L 794 0 
L 794 531 
z
" transform="scale(0.015625)"/>
       </defs>
       <use xlink:href="#DejaVuSans-31"/>
       <use xlink:href="#DejaVuSans-30" x="63.623047"/>
       <use xlink:href="#DejaVuSans-30" x="127.246094"/>
      </g>
     </g>
    </g>
    <g id="text_7">
     <!-- % GC -->
     <g transform="translate(498.035156 379.564837) scale(0.1 -0.1)">
      <defs>
       <path id="DejaVuSans-25" d="M 4653 2053 
Q 4381 2053 4226 1822 
Q 4072 1591 4072 1178 
Q 4072 772 4226 539 
Q 4381 306 4653 306 
Q 4919 306 5073 539 
Q 5228 772 5228 1178 
Q 5228 1588 5073 1820 
Q 4919 2053 4653 2053 
z
M 4653 2450 
Q 5147 2450 5437 2106 
Q 5728 1763 5728 1178 
Q 5728 594 5436 251 
Q 5144 -91 4653 -91 
Q 4153 -91 3862 251 
Q 3572 594 3572 1178 
Q 3572 1766 3864 2108 
Q 4156 2450 4653 2450 
z
M 1428 4353 
Q 1159 4353 1004 4120 
Q 850 3888 850 3481 
Q 850 3069 1003 2837 
Q 1156 2606 1428 2606 
Q 1700 2606 1854 2837 
Q 2009 3069 2009 3481 
Q 2009 3884 1853 4118 
Q 1697 4353 1428 4353 
z
M 4250 4750 
L 4750 4750 
L 1831 -91 
L 1331 -91 
L 4250 4750 
z
M 1428 4750 
Q 1922 4750 2215 4408 
Q 2509 4066 2509 3481 
Q 2509 2891 2217 2550 
Q 1925 2209 1428 2209 
Q 931 2209 642 2551 
Q 353 2894 353 3481 
Q 353 4063 643 4406 
Q 934 4750 1428 4750 
z
" transform="scale(0.015625)"/>
       <path id="DejaVuSans-20" transform="scale(0.015625)"/>
       <path id="DejaVuSans-47" d="M 3809 666 
L 3809 1919 
L 2778 1919 
L 2778 2438 
L 4434 2438 
L 4434 434 
Q 4069 175 3628 42 
Q 3188 -91 2688 -91 
Q 1594 -91 976 548 
Q 359 1188 359 2328 
Q 359 3472 976 4111 
Q 1594 4750 2688 4750 
Q 3144 4750 3555 4637 
Q 3966 4525 4313 4306 
L 4313 3634 
Q 3963 3931 3569 4081 
Q 3175 4231 2741 4231 
Q 1884 4231 1454 3753 
Q 1025 3275 1025 2328 
Q 1025 1384 1454 906 
Q 1884 428 2741 428 
Q 3075 428 3337 486 
Q 3600 544 3809 666 
z
" transform="scale(0.015625)"/>
       <path id="DejaVuSans-43" d="M 4122 4306 
L 4122 3641 
Q 3803 3938 3442 4084 
Q 3081 4231 2675 4231 
Q 1875 4231 1450 3742 
Q 1025 3253 1025 2328 
Q 1025 1406 1450 917 
Q 1875 428 2675 428 
Q 3081 428 3442 575 
Q 3803 722 4122 1019 
L 4122 359 
Q 3791 134 3420 21 
Q 3050 -91 2638 -91 
Q 1578 -91 968 557 
Q 359 1206 359 2328 
Q 359 3453 968 4101 
Q 1578 4750 2638 4750 
Q 3056 4750 3426 4639 
Q 3797 4528 4122 4306 
z
" transform="scale(0.015625)"/>
      </defs>
      <use xlink:href="#DejaVuSans-25"/>
      <use xlink:href="#DejaVuSans-20" x="95.019531"/>
      <use xlink:href="#DejaVuSans-47" x="126.806641"/>
      <use xlink:href="#DejaVuSans-43" x="204.296875"/>
     </g>
    </g>
   </g>
   <g id="matplotlib.axis_2">
    <g id="ytick_1">
     <g id="line2d_1">
      <path d="M 38.058125 353.2239 
L 985.423125 353.2239 
" clip-path="url(#p9afc96e5d1)" style="fill: none; stroke: #dedede; stroke-linecap: square"/>
     </g>
     <g id="text_8">
      <!-- 0 -->
      <g transform="translate(25.968125 356.263275) scale(0.08 -0.08)">
       <use xlink:href="#DejaVuSans-30"/>
      </g>
     </g>
    </g>
    <g id="ytick_2">
     <g id="line2d_2">
      <path d="M 38.058125 306.658027 
L 985.423125 306.658027 
" clip-path="url(#p9afc96e5d1)" style="fill: none; stroke: #dedede; stroke-linecap: square"/>
     </g>
     <g id="text_9">
      <!-- 10 -->
      <g transform="translate(20.878125 309.697402) scale(0.08 -0.08)">
       <use xlink:href="#DejaVuSans-31"/>
       <use xlink:href="#DejaVuSans-30" x="63.623047"/>
      </g>
     </g>
    </g>
    <g id="ytick_3">
     <g id="line2d_3">
      <path d="M 38.058125 260.092155 
L 985.423125 260.092155 
" clip-path="url(#p9afc96e5d1)" style="fill: none; stroke: #dedede; stroke-linecap: square"/>
     </g>
     <g id="text_10">
      <!-- 20 -->
      <g transform="translate(20.878125 263.13153) scale(0.08 -0.08)">
       <use xlink:href="#DejaVuSans-32"/>
       <use xlink:href="#DejaVuSans-30" x="63.623047"/>
      </g>
     </g>
    </g>
    <g id="ytick_4">
     <g id="line2d_4">
      <path d="M 38.058125 213.526282 
L 985.423125 213.526282 
" clip-path="url(#p9afc96e5d1)" style="fill: none; stroke: #dedede; stroke-linecap: square"/>
     </g>
     <g id="text_11">
      <!-- 30 -->
      <g transform="translate(20.878125 216.565657) scale(0.08 -0.08)">
       <defs>
        <path id="DejaVuSans-33" d="M 2597 2516 
Q 3050 2419 3304 2112 
Q 3559 1806 3559 1356 
Q 3559 666 3084 287 
Q 2609 -91 1734 -91 
Q 1441 -91 1130 -33 
Q 819 25 488 141 
L 488 750 
Q 750 597 1062 519 
Q 1375 441 1716 441 
Q 2309 441 2620 675 
Q 2931 909 2931 1356 
Q 2931 1769 2642 2001 
Q 2353 2234 1838 2234 
L 1294 2234 
L 1294 2753 
L 1863 2753 
Q 2328 2753 2575 2939 
Q 2822 3125 2822 3475 
Q 2822 3834 2567 4026 
Q 2313 4219 1838 4219 
Q 1578 4219 1281 4162 
Q 984 4106 628 3988 
L 628 4550 
Q 988 4650 1302 4700 
Q 1616 4750 1894 4750 
Q 2613 4750 3031 4423 
Q 3450 4097 3450 3541 
Q 3450 3153 3228 2886 
Q 3006 2619 2597 2516 
z
" transform="scale(0.015625)"/>
       </defs>
       <use xlink:href="#DejaVuSans-33"/>
       <use xlink:href="#DejaVuSans-30" x="63.623047"/>
      </g>
     </g>
    </g>
    <g id="ytick_5">
     <g id="line2d_5">
      <path d="M 38.058125 166.96041 
L 985.423125 166.96041 
" clip-path="url(#p9afc96e5d1)" style="fill: none; stroke: #dedede; stroke-linecap: square"/>
     </g>
     <g id="text_12">
      <!-- 40 -->
      <g transform="translate(20.878125 169.999785) scale(0.08 -0.08)">
       <use xlink:href="#DejaVuSans-34"/>
       <use xlink:href="#DejaVuSans-30" x="63.623047"/>
      </g>
     </g>
    </g>
    <g id="ytick_6">
     <g id="line2d_6">
      <path d="M 38.058125 120.394537 
L 985.423125 120.394537 
" clip-path="url(#p9afc96e5d1)" style="fill: none; stroke: #dedede; stroke-linecap: square"/>
     </g>
     <g id="text_13">
      <!-- 50 -->
      <g transform="translate(20.878125 123.433912) scale(0.08 -0.08)">
       <defs>
        <path id="DejaVuSans-35" d="M 691 4666 
L 3169 4666 
L 3169 4134 
L 1269 4134 
L 1269 2991 
Q 1406 3038 1543 3061 
Q 1681 3084 1819 3084 
Q 2600 3084 3056 2656 
Q 3513 2228 3513 1497 
Q 3513 744 3044 326 
Q 2575 -91 1722 -91 
Q 1428 -91 1123 -41 
Q 819 9 494 109 
L 494 744 
Q 775 591 1075 516 
Q 1375 441 1709 441 
Q 2250 441 2565 725 
Q 2881 1009 2881 1497 
Q 2881 1984 2565 2268 
Q 2250 2553 1709 2553 
Q 1456 2553 1204 2497 
Q 953 2441 691 2322 
L 691 4666 
z
" transform="scale(0.015625)"/>
       </defs>
       <use xlink:href="#DejaVuSans-35"/>
       <use xlink:href="#DejaVuSans-30" x="63.623047"/>
      </g>
     </g>
    </g>
    <g id="ytick_7">
     <g id="line2d_7">
      <path d="M 38.058125 73.828664 
L 985.423125 73.828664 
" clip-path="url(#p9afc96e5d1)" style="fill: none; stroke: #dedede; stroke-linecap: square"/>
     </g>
     <g id="text_14">
      <!-- 60 -->
      <g transform="translate(20.878125 76.868039) scale(0.08 -0.08)">
       <use xlink:href="#DejaVuSans-36"/>
       <use xlink:href="#DejaVuSans-30" x="63.623047"/>
      </g>
     </g>
    </g>
    <g id="text_15">
     <!-- Percentage -->
     <g transform="translate(14.798438 222.362556) rotate(-90) scale(0.1 -0.1)">
      <defs>
       <path id="DejaVuSans-50" d="M 1259 4147 
L 1259 2394 
L 2053 2394 
Q 2494 2394 2734 2622 
Q 2975 2850 2975 3272 
Q 2975 3691 2734 3919 
Q 2494 4147 2053 4147 
L 1259 4147 
z
M 628 4666 
L 2053 4666 
Q 2838 4666 3239 4311 
Q 3641 3956 3641 3272 
Q 3641 2581 3239 2228 
Q 2838 1875 2053 1875 
L 1259 1875 
L 1259 0 
L 628 0 
L 628 4666 
z
" transform="scale(0.015625)"/>
       <path id="DejaVuSans-65" d="M 3597 1894 
L 3597 1613 
L 953 1613 
Q 991 1019 1311 708 
Q 1631 397 2203 397 
Q 2534 397 2845 478 
Q 3156 559 3463 722 
L 3463 178 
Q 3153 47 2828 -22 
Q 2503 -91 2169 -91 
Q 1331 -91 842 396 
Q 353 884 353 1716 
Q 353 2575 817 3079 
Q 1281 3584 2069 3584 
Q 2775 3584 3186 3129 
Q 3597 2675 3597 1894 
z
M 3022 2063 
Q 3016 2534 2758 2815 
Q 2500 3097 2075 3097 
Q 1594 3097 1305 2825 
Q 1016 2553 972 2059 
L 3022 2063 
z
" transform="scale(0.015625)"/>
       <path id="DejaVuSans-72" d="M 2631 2963 
Q 2534 3019 2420 3045 
Q 2306 3072 2169 3072 
Q 1681 3072 1420 2755 
Q 1159 2438 1159 1844 
L 1159 0 
L 581 0 
L 581 3500 
L 1159 3500 
L 1159 2956 
Q 1341 3275 1631 3429 
Q 1922 3584 2338 3584 
Q 2397 3584 2469 3576 
Q 2541 3569 2628 3553 
L 2631 2963 
z
" transform="scale(0.015625)"/>
       <path id="DejaVuSans-63" d="M 3122 3366 
L 3122 2828 
Q 2878 2963 2633 3030 
Q 2388 3097 2138 3097 
Q 1578 3097 1268 2742 
Q 959 2388 959 1747 
Q 959 1106 1268 751 
Q 1578 397 2138 397 
Q 2388 397 2633 464 
Q 2878 531 3122 666 
L 3122 134 
Q 2881 22 2623 -34 
Q 2366 -91 2075 -91 
Q 1284 -91 818 406 
Q 353 903 353 1747 
Q 353 2603 823 3093 
Q 1294 3584 2113 3584 
Q 2378 3584 2631 3529 
Q 2884 3475 3122 3366 
z
" transform="scale(0.015625)"/>
       <path id="DejaVuSans-6e" d="M 3513 2113 
L 3513 0 
L 2938 0 
L 2938 2094 
Q 2938 2591 2744 2837 
Q 2550 3084 2163 3084 
Q 1697 3084 1428 2787 
Q 1159 2491 1159 1978 
L 1159 0 
L 581 0 
L 581 3500 
L 1159 3500 
L 1159 2956 
Q 1366 3272 1645 3428 
Q 1925 3584 2291 3584 
Q 2894 3584 3203 3211 
Q 3513 2838 3513 2113 
z
" transform="scale(0.015625)"/>
       <path id="DejaVuSans-74" d="M 1172 4494 
L 1172 3500 
L 2356 3500 
L 2356 3053 
L 1172 3053 
L 1172 1153 
Q 1172 725 1289 603 
Q 1406 481 1766 481 
L 2356 481 
L 2356 0 
L 1766 0 
Q 1100 0 847 248 
Q 594 497 594 1153 
L 594 3053 
L 172 3053 
L 172 3500 
L 594 3500 
L 594 4494 
L 1172 4494 
z
" transform="scale(0.015625)"/>
       <path id="DejaVuSans-61" d="M 2194 1759 
Q 1497 1759 1228 1600 
Q 959 1441 959 1056 
Q 959 750 1161 570 
Q 1363 391 1709 391 
Q 2188 391 2477 730 
Q 2766 1069 2766 1631 
L 2766 1759 
L 2194 1759 
z
M 3341 1997 
L 3341 0 
L 2766 0 
L 2766 531 
Q 2569 213 2275 61 
Q 1981 -91 1556 -91 
Q 1019 -91 701 211 
Q 384 513 384 1019 
Q 384 1609 779 1909 
Q 1175 2209 1959 2209 
L 2766 2209 
L 2766 2266 
Q 2766 2663 2505 2880 
Q 2244 3097 1772 3097 
Q 1472 3097 1187 3025 
Q 903 2953 641 2809 
L 641 3341 
Q 956 3463 1253 3523 
Q 1550 3584 1831 3584 
Q 2591 3584 2966 3190 
Q 3341 2797 3341 1997 
z
" transform="scale(0.015625)"/>
       <path id="DejaVuSans-67" d="M 2906 1791 
Q 2906 2416 2648 2759 
Q 2391 3103 1925 3103 
Q 1463 3103 1205 2759 
Q 947 2416 947 1791 
Q 947 1169 1205 825 
Q 1463 481 1925 481 
Q 2391 481 2648 825 
Q 2906 1169 2906 1791 
z
M 3481 434 
Q 3481 -459 3084 -895 
Q 2688 -1331 1869 -1331 
Q 1566 -1331 1297 -1286 
Q 1028 -1241 775 -1147 
L 775 -588 
Q 1028 -725 1275 -790 
Q 1522 -856 1778 -856 
Q 2344 -856 2625 -561 
Q 2906 -266 2906 331 
L 2906 616 
Q 2728 306 2450 153 
Q 2172 0 1784 0 
Q 1141 0 747 490 
Q 353 981 353 1791 
Q 353 2603 747 3093 
Q 1141 3584 1784 3584 
Q 2172 3584 2450 3431 
Q 2728 3278 2906 2969 
L 2906 3500 
L 3481 3500 
L 3481 434 
z
" transform="scale(0.015625)"/>
      </defs>
      <use xlink:href="#DejaVuSans-50"/>
      <use xlink:href="#DejaVuSans-65" x="56.677734"/>
      <use xlink:href="#DejaVuSans-72" x="118.201172"/>
      <use xlink:href="#DejaVuSans-63" x="157.064453"/>
      <use xlink:href="#DejaVuSans-65" x="212.044922"/>
      <use xlink:href="#DejaVuSans-6e" x="273.568359"/>
      <use xlink:href="#DejaVuSans-74" x="336.947266"/>
      <use xlink:href="#DejaVuSans-61" x="376.15625"/>
      <use xlink:href="#DejaVuSans-67" x="437.435547"/>
      <use xlink:href="#DejaVuSans-65" x="500.912109"/>
     </g>
    </g>
   </g>
   <g id="line2d_8">
    <path d="M 38.058125 353.2239 
L 47.531775 353.2239 
L 57.005425 353.2239 
L 66.479075 353.2239 
L 75.952725 353.2239 
L 85.426375 353.2239 
L 94.900025 353.2239 
L 104.373675 353.2239 
L 113.847325 353.2239 
L 123.320975 353.2239 
L 132.794625 353.2239 
L 142.268275 353.2239 
L 151.741925 353.2239 
L 161.215575 353.2239 
L 170.689225 353.2239 
L 180.162875 353.2239 
L 189.636525 353.2239 
L 199.110175 353.2239 
L 208.583825 353.2239 
L 218.057475 353.2239 
L 227.531125 353.2239 
L 237.004775 353.2239 
L 246.478425 353.2239 
L 255.952075 353.2239 
L 265.425725 353.2239 
L 274.899375 353.2239 
L 284.373025 353.2239 
L 293.846675 353.2239 
L 303.320325 353.2239 
L 312.793975 353.2239 
L 322.267625 353.2239 
L 331.741275 353.2239 
L 341.214925 353.2239 
L 350.688575 353.2239 
L 360.162225 353.2239 
L 369.635875 353.2239 
L 379.109525 353.2239 
L 388.583175 353.2239 
L 398.056825 353.2239 
L 407.530475 352.780134 
L 417.004125 352.780134 
L 426.477775 353.2239 
L 435.951425 353.2239 
L 445.425075 351.596757 
L 454.898725 349.969614 
L 464.372375 346.86325 
L 473.846025 345.531952 
L 483.319675 349.230004 
L 492.793325 349.67377 
L 502.266975 310.326495 
L 511.740625 301.747014 
L 521.214275 332.514808 
L 530.687925 117.140251 
L 540.161575 293.315455 
L 549.635225 339.319224 
L 559.108875 346.715328 
L 568.582525 349.969614 
L 578.056175 351.152991 
L 587.529825 352.336367 
L 597.003475 352.928056 
L 606.477125 353.2239 
L 615.950775 353.2239 
L 625.424425 352.928056 
L 634.898075 353.2239 
L 644.371725 353.2239 
L 653.845375 353.2239 
L 663.319025 353.2239 
L 672.792675 353.2239 
L 682.266325 353.2239 
L 691.739975 353.2239 
L 701.213625 353.2239 
L 710.687275 353.2239 
L 720.160925 353.2239 
L 729.634575 353.2239 
L 739.108225 353.2239 
L 748.581875 353.2239 
L 758.055525 353.2239 
L 767.529175 353.2239 
L 777.002825 353.2239 
L 786.476475 353.2239 
L 795.950125 353.2239 
L 805.423775 353.2239 
L 814.897425 353.2239 
L 824.371075 353.2239 
L 833.844725 353.2239 
L 843.318375 353.2239 
L 852.792025 353.2239 
L 862.265675 353.2239 
L 871.739325 353.2239 
L 881.212975 353.2239 
L 890.686625 353.2239 
L 900.160275 353.2239 
L 909.633925 353.2239 
L 919.107575 353.2239 
L 928.581225 353.2239 
L 938.054875 353.2239 
L 947.528525 353.2239 
L 957.002175 353.2239 
L 966.475825 353.2239 
L 975.949475 353.2239 
L 985.423125 353.2239 
" clip-path="url(#p9afc96e5d1)" style="fill: none; stroke: #d9534f; stroke-linecap: square"/>
   </g>
   <g id="line2d_9">
    <path d="M 38.058125 353.2239 
L 47.531775 353.2239 
L 57.005425 353.2239 
L 66.479075 353.2239 
L 75.952725 353.2239 
L 85.426375 353.2239 
L 94.900025 353.2239 
L 104.373675 353.2239 
L 113.847325 353.2239 
L 123.320975 353.2239 
L 132.794625 353.2239 
L 142.268275 353.2239 
L 151.741925 353.2239 
L 161.215575 353.2239 
L 170.689225 353.2239 
L 180.162875 353.2239 
L 189.636525 353.2239 
L 199.110175 353.2239 
L 208.583825 353.2239 
L 218.057475 353.2239 
L 227.531125 353.2239 
L 237.004775 353.2239 
L 246.478425 353.2239 
L 255.952075 353.2239 
L 265.425725 353.2239 
L 274.899375 353.2239 
L 284.373025 353.2239 
L 293.846675 353.2239 
L 303.320325 353.2239 
L 312.793975 353.2239 
L 322.267625 353.2239 
L 331.741275 353.2239 
L 341.214925 353.2239 
L 350.688575 353.2239 
L 360.162225 353.2239 
L 369.635875 353.2239 
L 379.109525 353.2239 
L 388.583175 353.2239 
L 398.056825 353.2239 
L 407.530475 353.2239 
L 417.004125 353.2239 
L 426.477775 353.2239 
L 435.951425 353.2239 
L 445.425075 353.2239 
L 454.898725 353.2239 
L 464.372375 350.10565 
L 473.846025 344.908566 
L 483.319675 335.553814 
L 492.793325 334.514398 
L 502.266975 192.114296 
L 511.740625 176.523044 
L 521.214275 328.277897 
L 530.687925 342.829732 
L 540.161575 339.711482 
L 549.635225 344.908566 
L 559.108875 350.10565 
L 568.582525 342.829732 
L 578.056175 348.026816 
L 587.529825 351.145066 
L 597.003475 351.145066 
L 606.477125 353.2239 
L 615.950775 353.2239 
L 625.424425 353.2239 
L 634.898075 353.2239 
L 644.371725 353.2239 
L 653.845375 353.2239 
L 663.319025 353.2239 
L 672.792675 353.2239 
L 682.266325 353.2239 
L 691.739975 353.2239 
L 701.213625 353.2239 
L 710.687275 353.2239 
L 720.160925 353.2239 
L 729.634575 353.2239 
L 739.108225 353.2239 
L 748.581875 353.2239 
L 758.055525 353.2239 
L 767.529175 353.2239 
L 777.002825 353.2239 
L 786.476475 353.2239 
L 795.950125 353.2239 
L 805.423775 353.2239 
L 814.897425 353.2239 
L 824.371075 353.2239 
L 833.844725 353.2239 
L 843.318375 353.2239 
L 852.792025 353.2239 
L 862.265675 353.2239 
L 871.739325 353.2239 
L 881.212975 353.2239 
L 890.686625 353.2239 
L 900.160275 353.2239 
L 909.633925 353.2239 
L 919.107575 353.2239 
L 928.581225 353.2239 
L 938.054875 353.2239 
L 947.528525 353.2239 
L 957.002175 353.2239 
L 966.475825 353.2239 
L 975.949475 353.2239 
L 985.423125 353.2239 
" clip-path="url(#p9afc96e5d1)" style="fill: none; stroke: #d9534f; stroke-linecap: square"/>
   </g>
   <g id="line2d_10">
    <path d="M 38.058125 353.2239 
L 47.531775 353.2239 
L 57.005425 353.2239 
L 66.479075 353.2239 
L 75.952725 353.2239 
L 85.426375 353.2239 
L 94.900025 353.2239 
L 104.373675 353.2239 
L 113.847325 353.2239 
L 123.320975 353.2239 
L 132.794625 353.2239 
L 142.268275 353.2239 
L 151.741925 353.2239 
L 161.215575 353.2239 
L 170.689225 353.2239 
L 180.162875 353.2239 
L 189.636525 353.2239 
L 199.110175 353.2239 
L 208.583825 353.2239 
L 218.057475 353.2239 
L 227.531125 353.2239 
L 237.004775 353.2239 
L 246.478425 353.2239 
L 255.952075 353.2239 
L 265.425725 353.2239 
L 274.899375 353.2239 
L 284.373025 353.2239 
L 293.846675 353.2239 
L 303.320325 353.2239 
L 312.793975 353.2239 
L 322.267625 353.2239 
L 331.741275 353.2239 
L 341.214925 353.2239 
L 350.688575 353.2239 
L 360.162225 353.2239 
L 369.635875 353.2239 
L 379.109525 353.2239 
L 388.583175 353.2239 
L 398.056825 353.2239 
L 407.530475 353.2239 
L 417.004125 353.070285 
L 426.477775 352.455824 
L 435.951425 352.353414 
L 445.425075 353.070285 
L 454.898725 352.302209 
L 464.372375 351.687748 
L 473.846025 352.302209 
L 483.319675 352.404619 
L 492.793325 352.046184 
L 502.266975 349.997982 
L 511.740625 340.627458 
L 521.214275 344.519041 
L 530.687925 331.000908 
L 540.161575 50.397233 
L 549.635225 282.765751 
L 559.108875 336.684669 
L 568.582525 343.699761 
L 578.056175 346.567243 
L 587.529825 350.202802 
L 597.003475 351.790159 
L 606.477125 352.609439 
L 615.950775 353.12149 
L 625.424425 353.12149 
L 634.898075 353.01908 
L 644.371725 353.12149 
L 653.845375 353.2239 
L 663.319025 353.2239 
L 672.792675 353.2239 
L 682.266325 353.2239 
L 691.739975 353.2239 
L 701.213625 353.2239 
L 710.687275 353.2239 
L 720.160925 353.2239 
L 729.634575 353.2239 
L 739.108225 353.2239 
L 748.581875 353.2239 
L 758.055525 353.2239 
L 767.529175 353.2239 
L 777.002825 353.2239 
L 786.476475 353.2239 
L 795.950125 353.2239 
L 805.423775 353.2239 
L 814.897425 353.2239 
L 824.371075 353.2239 
L 833.844725 353.2239 
L 843.318375 353.2239 
L 852.792025 353.2239 
L 862.265675 353.2239 
L 871.739325 353.2239 
L 881.212975 353.2239 
L 890.686625 353.2239 
L 900.160275 353.2239 
L 909.633925 353.2239 
L 919.107575 353.2239 
L 928.581225 353.2239 
L 938.054875 353.2239 
L 947.528525 353.2239 
L 957.002175 353.2239 
L 966.475825 353.2239 
L 975.949475 353.2239 
L 985.423125 353.2239 
" clip-path="url(#p9afc96e5d1)" style="fill: none; stroke: #d9534f; stroke-linecap: square"/>
   </g>
   <g id="line2d_11">
    <path d="M 38.058125 353.2239 
L 47.531775 353.2239 
L 57.005425 353.2239 
L 66.479075 353.2239 
L 75.952725 353.2239 
L 85.426375 353.2239 
L 94.900025 353.2239 
L 104.373675 353.2239 
L 113.847325 353.2239 
L 123.320975 353.2239 
L 132.794625 353.2239 
L 142.268275 353.2239 
L 151.741925 353.2239 
L 161.215575 353.2239 
L 170.689225 353.2239 
L 180.162875 353.2239 
L 189.636525 353.2239 
L 199.110175 353.2239 
L 208.583825 353.2239 
L 218.057475 353.2239 
L 227.531125 353.2239 
L 237.004775 353.2239 
L 246.478425 353.2239 
L 255.952075 353.2239 
L 265.425725 353.2239 
L 274.899375 353.2239 
L 284.373025 353.2239 
L 293.846675 353.2239 
L 303.320325 353.2239 
L 312.793975 353.2239 
L 322.267625 353.2239 
L 331.741275 353.2239 
L 341.214925 353.2239 
L 350.688575 353.2239 
L 360.162225 353.2239 
L 369.635875 353.2239 
L 379.109525 353.2239 
L 388.583175 353.2239 
L 398.056825 353.2239 
L 407.530475 353.2239 
L 417.004125 352.09091 
L 426.477775 352.09091 
L 435.951425 349.824931 
L 445.425075 346.992457 
L 454.898725 338.495035 
L 464.372375 337.362046 
L 473.846025 346.992457 
L 483.319675 348.125447 
L 492.793325 336.229056 
L 502.266975 294.874936 
L 511.740625 272.215143 
L 521.214275 308.470811 
L 530.687925 333.396582 
L 540.161575 332.830087 
L 549.635225 322.633181 
L 559.108875 305.071842 
L 568.582525 310.73679 
L 578.056175 335.096066 
L 587.529825 342.460499 
L 597.003475 345.859468 
L 606.477125 344.726478 
L 615.950775 348.691942 
L 625.424425 353.2239 
L 634.898075 353.2239 
L 644.371725 353.2239 
L 653.845375 353.2239 
L 663.319025 353.2239 
L 672.792675 353.2239 
L 682.266325 353.2239 
L 691.739975 353.2239 
L 701.213625 353.2239 
L 710.687275 353.2239 
L 720.160925 353.2239 
L 729.634575 353.2239 
L 739.108225 353.2239 
L 748.581875 353.2239 
L 758.055525 353.2239 
L 767.529175 353.2239 
L 777.002825 353.2239 
L 786.476475 353.2239 
L 795.950125 353.2239 
L 805.423775 353.2239 
L 814.897425 353.2239 
L 824.371075 353.2239 
L 833.844725 353.2239 
L 843.318375 353.2239 
L 852.792025 353.2239 
L 862.265675 353.2239 
L 871.739325 353.2239 
L 881.212975 353.2239 
L 890.686625 353.2239 
L 900.160275 353.2239 
L 909.633925 353.2239 
L 919.107575 353.2239 
L 928.581225 353.2239 
L 938.054875 353.2239 
L 947.528525 353.2239 
L 957.002175 353.2239 
L 966.475825 353.2239 
L 975.949475 353.2239 
L 985.423125 353.2239 
" clip-path="url(#p9afc96e5d1)" style="fill: none; stroke: #d9534f; stroke-linecap: square"/>
   </g>
   <g id="line2d_12">
    <path d="M 38.058125 353.2239 
L 47.531775 353.2239 
L 57.005425 353.2239 
L 66.479075 353.2239 
L 75.952725 353.2239 
L 85.426375 353.2239 
L 94.900025 353.2239 
L 104.373675 353.2239 
L 113.847325 353.2239 
L 123.320975 353.2239 
L 132.794625 353.2239 
L 142.268275 353.2239 
L 151.741925 353.2239 
L 161.215575 353.2239 
L 170.689225 353.2239 
L 180.162875 353.2239 
L 189.636525 353.2239 
L 199.110175 353.2239 
L 208.583825 353.2239 
L 218.057475 353.2239 
L 227.531125 353.2239 
L 237.004775 353.2239 
L 246.478425 353.2239 
L 255.952075 353.2239 
L 265.425725 353.2239 
L 274.899375 353.2239 
L 284.373025 353.2239 
L 293.846675 353.2239 
L 303.320325 353.2239 
L 312.793975 353.2239 
L 322.267625 353.2239 
L 331.741275 353.2239 
L 341.214925 353.2239 
L 350.688575 353.2239 
L 360.162225 353.2239 
L 369.635875 353.2239 
L 379.109525 353.2239 
L 388.583175 353.2239 
L 398.056825 351.893446 
L 407.530475 351.893446 
L 417.004125 351.006477 
L 426.477775 333.710582 
L 435.951425 332.380128 
L 445.425075 344.35421 
L 454.898725 343.023756 
L 464.372375 343.467241 
L 473.846025 335.928004 
L 483.319675 314.197264 
L 492.793325 303.99712 
L 502.266975 299.118791 
L 511.740625 302.666667 
L 521.214275 323.066954 
L 530.687925 319.519078 
L 540.161575 327.945283 
L 549.635225 347.015117 
L 559.108875 341.249818 
L 568.582525 331.049675 
L 578.056175 334.154066 
L 587.529825 335.48452 
L 597.003475 342.136787 
L 606.477125 351.893446 
L 615.950775 353.2239 
L 625.424425 353.2239 
L 634.898075 353.2239 
L 644.371725 352.336931 
L 653.845375 352.336931 
L 663.319025 352.336931 
L 672.792675 353.2239 
L 682.266325 353.2239 
L 691.739975 353.2239 
L 701.213625 353.2239 
L 710.687275 353.2239 
L 720.160925 353.2239 
L 729.634575 353.2239 
L 739.108225 353.2239 
L 748.581875 353.2239 
L 758.055525 353.2239 
L 767.529175 353.2239 
L 777.002825 353.2239 
L 786.476475 353.2239 
L 795.950125 353.2239 
L 805.423775 353.2239 
L 814.897425 353.2239 
L 824.371075 353.2239 
L 833.844725 353.2239 
L 843.318375 353.2239 
L 852.792025 353.2239 
L 862.265675 353.2239 
L 871.739325 353.2239 
L 881.212975 353.2239 
L 890.686625 353.2239 
L 900.160275 353.2239 
L 909.633925 353.2239 
L 919.107575 353.2239 
L 928.581225 353.2239 
L 938.054875 353.2239 
L 947.528525 353.2239 
L 957.002175 353.2239 
L 966.475825 353.2239 
L 975.949475 353.2239 
L 985.423125 353.2239 
" clip-path="url(#p9afc96e5d1)" style="fill: none; stroke: #d9534f; stroke-linecap: square"/>
   </g>
   <g id="line2d_13">
    <path d="M 38.058125 353.2239 
L 47.531775 353.2239 
L 57.005425 353.2239 
L 66.479075 353.2239 
L 75.952725 353.2239 
L 85.426375 353.2239 
L 94.900025 353.2239 
L 104.373675 353.2239 
L 113.847325 353.2239 
L 123.320975 353.2239 
L 132.794625 353.2239 
L 142.268275 353.2239 
L 151.741925 353.2239 
L 161.215575 353.2239 
L 170.689225 353.2239 
L 180.162875 353.2239 
L 189.636525 353.2239 
L 199.110175 353.2239 
L 208.583825 353.2239 
L 218.057475 353.2239 
L 227.531125 353.2239 
L 237.004775 353.2239 
L 246.478425 353.2239 
L 255.952075 353.2239 
L 265.425725 353.2239 
L 274.899375 353.2239 
L 284.373025 353.2239 
L 293.846675 353.2239 
L 303.320325 353.2239 
L 312.793975 353.2239 
L 322.267625 353.2239 
L 331.741275 353.2239 
L 341.214925 353.2239 
L 350.688575 353.2239 
L 360.162225 353.2239 
L 369.635875 353.2239 
L 379.109525 353.2239 
L 388.583175 353.2239 
L 398.056825 353.2239 
L 407.530475 353.2239 
L 417.004125 353.2239 
L 426.477775 353.2239 
L 435.951425 353.2239 
L 445.425075 347.723994 
L 454.898725 272.558609 
L 464.372375 267.058703 
L 473.846025 329.390973 
L 483.319675 323.891067 
L 492.793325 333.057577 
L 502.266975 329.390973 
L 511.740625 307.391348 
L 521.214275 327.557671 
L 530.687925 333.057577 
L 540.161575 323.891067 
L 549.635225 331.224275 
L 559.108875 331.224275 
L 568.582525 338.557483 
L 578.056175 344.05739 
L 587.529825 349.557296 
L 597.003475 353.2239 
L 606.477125 353.2239 
L 615.950775 353.2239 
L 625.424425 349.557296 
L 634.898075 353.2239 
L 644.371725 353.2239 
L 653.845375 353.2239 
L 663.319025 353.2239 
L 672.792675 353.2239 
L 682.266325 353.2239 
L 691.739975 353.2239 
L 701.213625 353.2239 
L 710.687275 353.2239 
L 720.160925 353.2239 
L 729.634575 353.2239 
L 739.108225 353.2239 
L 748.581875 353.2239 
L 758.055525 353.2239 
L 767.529175 353.2239 
L 777.002825 353.2239 
L 786.476475 353.2239 
L 795.950125 353.2239 
L 805.423775 353.2239 
L 814.897425 353.2239 
L 824.371075 353.2239 
L 833.844725 353.2239 
L 843.318375 353.2239 
L 852.792025 353.2239 
L 862.265675 353.2239 
L 871.739325 353.2239 
L 881.212975 353.2239 
L 890.686625 353.2239 
L 900.160275 353.2239 
L 909.633925 353.2239 
L 919.107575 353.2239 
L 928.581225 353.2239 
L 938.054875 353.2239 
L 947.528525 353.2239 
L 957.002175 353.2239 
L 966.475825 353.2239 
L 975.949475 353.2239 
L 985.423125 353.2239 
" clip-path="url(#p9afc96e5d1)" style="fill: none; stroke: #d9534f; stroke-linecap: square"/>
   </g>
   <g id="line2d_14">
    <path d="M 38.058125 353.2239 
L 47.531775 353.2239 
L 57.005425 353.2239 
L 66.479075 353.2239 
L 75.952725 353.2239 
L 85.426375 353.2239 
L 94.900025 353.2239 
L 104.373675 353.2239 
L 113.847325 353.2239 
L 123.320975 353.2239 
L 132.794625 353.2239 
L 142.268275 353.2239 
L 151.741925 353.2239 
L 161.215575 353.2239 
L 170.689225 353.2239 
L 180.162875 353.2239 
L 189.636525 353.2239 
L 199.110175 353.2239 
L 208.583825 353.2239 
L 218.057475 353.2239 
L 227.531125 353.2239 
L 237.004775 353.2239 
L 246.478425 353.2239 
L 255.952075 353.2239 
L 265.425725 353.2239 
L 274.899375 353.2239 
L 284.373025 353.2239 
L 293.846675 353.2239 
L 303.320325 353.2239 
L 312.793975 353.2239 
L 322.267625 353.2239 
L 331.741275 353.2239 
L 341.214925 353.2239 
L 350.688575 353.2239 
L 360.162225 353.2239 
L 369.635875 353.2239 
L 379.109525 353.2239 
L 388.583175 353.2239 
L 398.056825 353.2239 
L 407.530475 353.2239 
L 417.004125 346.27377 
L 426.477775 346.27377 
L 435.951425 353.2239 
L 445.425075 353.2239 
L 454.898725 314.998184 
L 464.372375 321.948314 
L 473.846025 353.2239 
L 483.319675 342.798705 
L 492.793325 335.848574 
L 502.266975 273.297402 
L 511.740625 269.822337 
L 521.214275 325.423379 
L 530.687925 332.373509 
L 540.161575 321.948314 
L 549.635225 321.948314 
L 559.108875 325.423379 
L 568.582525 335.848574 
L 578.056175 353.2239 
L 587.529825 346.27377 
L 597.003475 335.848574 
L 606.477125 342.798705 
L 615.950775 353.2239 
L 625.424425 353.2239 
L 634.898075 353.2239 
L 644.371725 353.2239 
L 653.845375 353.2239 
L 663.319025 353.2239 
L 672.792675 353.2239 
L 682.266325 353.2239 
L 691.739975 353.2239 
L 701.213625 353.2239 
L 710.687275 353.2239 
L 720.160925 353.2239 
L 729.634575 353.2239 
L 739.108225 353.2239 
L 748.581875 353.2239 
L 758.055525 353.2239 
L 767.529175 353.2239 
L 777.002825 353.2239 
L 786.476475 353.2239 
L 795.950125 353.2239 
L 805.423775 353.2239 
L 814.897425 353.2239 
L 824.371075 353.2239 
L 833.844725 353.2239 
L 843.318375 353.2239 
L 852.792025 353.2239 
L 862.265675 353.2239 
L 871.739325 353.2239 
L 881.212975 353.2239 
L 890.686625 353.2239 
L 900.160275 353.2239 
L 909.633925 353.2239 
L 919.107575 353.2239 
L 928.581225 353.2239 
L 938.054875 353.2239 
L 947.528525 353.2239 
L 957.002175 353.2239 
L 966.475825 353.2239 
L 975.949475 353.2239 
L 985.423125 353.2239 
" clip-path="url(#p9afc96e5d1)" style="fill: none; stroke: #d9534f; stroke-linecap: square"/>
   </g>
   <g id="line2d_15">
    <path d="M 38.058125 353.2239 
L 47.531775 353.2239 
L 57.005425 353.2239 
L 66.479075 353.2239 
L 75.952725 353.2239 
L 85.426375 353.2239 
L 94.900025 353.2239 
L 104.373675 353.2239 
L 113.847325 353.2239 
L 123.320975 353.2239 
L 132.794625 353.2239 
L 142.268275 353.2239 
L 151.741925 353.2239 
L 161.215575 353.2239 
L 170.689225 353.2239 
L 180.162875 353.2239 
L 189.636525 353.2239 
L 199.110175 353.2239 
L 208.583825 353.2239 
L 218.057475 353.2239 
L 227.531125 353.2239 
L 237.004775 353.2239 
L 246.478425 353.2239 
L 255.952075 353.2239 
L 265.425725 353.2239 
L 274.899375 353.2239 
L 284.373025 353.2239 
L 293.846675 353.2239 
L 303.320325 353.2239 
L 312.793975 353.2239 
L 322.267625 353.2239 
L 331.741275 353.2239 
L 341.214925 353.222297 
L 350.688575 353.222297 
L 360.162225 353.223098 
L 369.635875 353.221495 
L 379.109525 353.21535 
L 388.583175 353.213212 
L 398.056825 353.216686 
L 407.530475 353.214815 
L 417.004125 353.208136 
L 426.477775 353.177141 
L 435.951425 353.133855 
L 445.425075 352.973271 
L 454.898725 347.117435 
L 464.372375 346.454525 
L 473.846025 345.630764 
L 483.319675 345.013544 
L 492.793325 346.73695 
L 502.266975 162.136478 
L 511.740625 153.958186 
L 521.214275 333.611817 
L 530.687925 345.352614 
L 540.161575 351.112528 
L 549.635225 351.886057 
L 559.108875 349.311102 
L 568.582525 349.509361 
L 578.056175 352.630728 
L 587.529825 352.974073 
L 597.003475 353.083623 
L 606.477125 353.143742 
L 615.950775 353.187562 
L 625.424425 353.20867 
L 634.898075 353.21535 
L 644.371725 353.219625 
L 653.845375 353.221762 
L 663.319025 353.223098 
L 672.792675 353.223098 
L 682.266325 353.2239 
L 691.739975 353.223098 
L 701.213625 353.223098 
L 710.687275 353.2239 
L 720.160925 353.2239 
L 729.634575 353.2239 
L 739.108225 353.2239 
L 748.581875 353.2239 
L 758.055525 353.223366 
L 767.529175 353.223366 
L 777.002825 353.2239 
L 786.476475 353.2239 
L 795.950125 353.2239 
L 805.423775 353.2239 
L 814.897425 353.2239 
L 824.371075 353.2239 
L 833.844725 353.2239 
L 843.318375 353.2239 
L 852.792025 353.2239 
L 862.265675 353.2239 
L 871.739325 353.2239 
L 881.212975 353.2239 
L 890.686625 353.2239 
L 900.160275 353.2239 
L 909.633925 353.2239 
L 919.107575 353.2239 
L 928.581225 353.2239 
L 938.054875 353.2239 
L 947.528525 353.2239 
L 957.002175 353.2239 
L 966.475825 353.2239 
L 975.949475 353.2239 
L 985.423125 353.2239 
" clip-path="url(#p9afc96e5d1)" style="fill: none; stroke: #d9534f; stroke-linecap: square"/>
   </g>
   <g id="line2d_16">
    <path d="M 38.058125 353.2239 
L 47.531775 353.2239 
L 57.005425 353.2239 
L 66.479075 353.2239 
L 75.952725 353.2239 
L 85.426375 353.2239 
L 94.900025 353.2239 
L 104.373675 353.2239 
L 113.847325 353.2239 
L 123.320975 353.2239 
L 132.794625 353.2239 
L 142.268275 353.2239 
L 151.741925 353.2239 
L 161.215575 353.2239 
L 170.689225 353.2239 
L 180.162875 353.2239 
L 189.636525 353.222856 
L 199.110175 353.222856 
L 208.583825 353.2239 
L 218.057475 353.2239 
L 227.531125 353.2239 
L 237.004775 353.222856 
L 246.478425 353.222856 
L 255.952075 353.223204 
L 265.425725 353.223204 
L 274.899375 353.2239 
L 284.373025 353.222856 
L 293.846675 353.222856 
L 303.320325 353.219725 
L 312.793975 353.215549 
L 322.267625 353.214853 
L 331.741275 353.215549 
L 341.214925 353.205806 
L 350.688575 353.202327 
L 360.162225 353.201283 
L 369.635875 353.184929 
L 379.109525 353.173795 
L 388.583175 353.153266 
L 398.056825 353.138304 
L 407.530475 353.095853 
L 417.004125 353.044356 
L 426.477775 352.995295 
L 435.951425 352.927444 
L 445.425075 352.799746 
L 454.898725 352.608024 
L 464.372375 352.420129 
L 473.846025 352.102101 
L 483.319675 351.724572 
L 492.793325 351.058243 
L 502.266975 349.560655 
L 511.740625 325.382819 
L 521.214275 322.910616 
L 530.687925 343.415116 
L 540.161575 342.220594 
L 549.635225 319.444312 
L 559.108875 236.574176 
L 568.582525 241.549899 
L 578.056175 322.564751 
L 587.529825 340.814866 
L 597.003475 345.327115 
L 606.477125 332.467482 
L 615.950775 333.380162 
L 625.424425 349.023416 
L 634.898075 350.357118 
L 644.371725 350.924629 
L 653.845375 351.34078 
L 663.319025 351.626102 
L 672.792675 351.863405 
L 682.266325 351.999455 
L 691.739975 352.131677 
L 701.213625 352.363065 
L 710.687275 352.436483 
L 720.160925 352.533214 
L 729.634575 352.645255 
L 739.108225 352.730503 
L 748.581875 352.807749 
L 758.055525 352.88569 
L 767.529175 352.955281 
L 777.002825 353.015128 
L 786.476475 353.07428 
L 795.950125 353.11847 
L 805.423775 353.163008 
L 814.897425 353.187017 
L 824.371075 353.207894 
L 833.844725 353.214157 
L 843.318375 353.218333 
L 852.792025 353.223204 
L 862.265675 353.2239 
L 871.739325 353.2239 
L 881.212975 353.2239 
L 890.686625 353.2239 
L 900.160275 353.2239 
L 909.633925 353.2239 
L 919.107575 353.2239 
L 928.581225 353.2239 
L 938.054875 353.2239 
L 947.528525 353.2239 
L 957.002175 353.2239 
L 966.475825 353.2239 
L 975.949475 353.2239 
L 985.423125 353.2239 
" clip-path="url(#p9afc96e5d1)" style="fill: none; stroke: #d9534f; stroke-linecap: square"/>
   </g>
   <g id="line2d_17">
    <path d="M 38.058125 353.2239 
L 47.531775 353.2239 
L 57.005425 353.2239 
L 66.479075 353.2239 
L 75.952725 353.2239 
L 85.426375 353.2239 
L 94.900025 353.2239 
L 104.373675 353.2239 
L 113.847325 353.2239 
L 123.320975 353.2239 
L 132.794625 353.2239 
L 142.268275 353.2239 
L 151.741925 353.2239 
L 161.215575 353.2239 
L 170.689225 353.2239 
L 180.162875 353.2239 
L 189.636525 353.2239 
L 199.110175 353.2239 
L 208.583825 353.2239 
L 218.057475 353.2239 
L 227.531125 353.2239 
L 237.004775 353.2239 
L 246.478425 353.223279 
L 255.952075 353.222036 
L 265.425725 353.222658 
L 274.899375 353.2239 
L 284.373025 353.2239 
L 293.846675 353.2239 
L 303.320325 353.223279 
L 312.793975 353.222243 
L 322.267625 353.222865 
L 331.741275 353.2239 
L 341.214925 353.223486 
L 350.688575 353.2239 
L 360.162225 353.222658 
L 369.635875 353.220794 
L 379.109525 353.218516 
L 388.583175 353.209405 
L 398.056825 353.173373 
L 407.530475 353.082673 
L 417.004125 352.27631 
L 426.477775 312.724967 
L 435.951425 310.582535 
L 445.425075 348.17533 
L 454.898725 344.946564 
L 464.372375 338.278849 
L 473.846025 330.598106 
L 483.319675 313.275381 
L 492.793325 301.610866 
L 502.266975 281.037218 
L 511.740625 288.767038 
L 521.214275 332.129658 
L 530.687925 332.708649 
L 540.161575 333.421826 
L 549.635225 349.311776 
L 559.108875 349.862811 
L 568.582525 350.028267 
L 578.056175 346.164185 
L 587.529825 339.831522 
L 597.003475 344.96251 
L 606.477125 352.245869 
L 615.950775 352.873523 
L 625.424425 353.081223 
L 634.898075 353.14666 
L 644.371725 353.176893 
L 653.845375 353.20195 
L 663.319025 353.210026 
L 672.792675 353.216652 
L 682.266325 353.217895 
L 691.739975 353.221415 
L 701.213625 353.22245 
L 710.687275 353.2239 
L 720.160925 353.2239 
L 729.634575 353.223072 
L 739.108225 353.223486 
L 748.581875 353.223486 
L 758.055525 353.223072 
L 767.529175 353.2239 
L 777.002825 353.2239 
L 786.476475 353.223486 
L 795.950125 353.223486 
L 805.423775 353.2239 
L 814.897425 353.2239 
L 824.371075 353.2239 
L 833.844725 353.2239 
L 843.318375 353.2239 
L 852.792025 353.2239 
L 862.265675 353.2239 
L 871.739325 353.2239 
L 881.212975 353.2239 
L 890.686625 353.2239 
L 900.160275 353.2239 
L 909.633925 353.2239 
L 919.107575 353.2239 
L 928.581225 353.2239 
L 938.054875 353.2239 
L 947.528525 353.2239 
L 957.002175 353.2239 
L 966.475825 353.2239 
L 975.949475 353.2239 
L 985.423125 353.2239 
" clip-path="url(#p9afc96e5d1)" style="fill: none; stroke: #d9534f; stroke-linecap: square"/>
   </g>
   <g id="line2d_18">
    <path d="M 38.058125 353.2239 
L 47.531775 353.2239 
L 57.005425 353.2239 
L 66.479075 353.2239 
L 75.952725 353.2239 
L 85.426375 353.2239 
L 94.900025 353.2239 
L 104.373675 353.2239 
L 113.847325 353.2239 
L 123.320975 353.2239 
L 132.794625 353.2239 
L 142.268275 353.2239 
L 151.741925 353.2239 
L 161.215575 353.2239 
L 170.689225 353.2239 
L 180.162875 353.2239 
L 189.636525 353.2239 
L 199.110175 353.2239 
L 208.583825 353.2239 
L 218.057475 353.2239 
L 227.531125 353.2239 
L 237.004775 353.2239 
L 246.478425 353.2239 
L 255.952075 353.2239 
L 265.425725 353.22309 
L 274.899375 353.22309 
L 284.373025 353.2239 
L 293.846675 353.2239 
L 303.320325 353.2239 
L 312.793975 353.222685 
L 322.267625 353.221875 
L 331.741275 353.2239 
L 341.214925 353.221875 
L 350.688575 353.221469 
L 360.162225 353.221875 
L 369.635875 353.219444 
L 379.109525 353.208506 
L 388.583175 353.202835 
L 398.056825 353.189467 
L 407.530475 353.157869 
L 417.004125 352.948837 
L 426.477775 345.800045 
L 435.951425 344.818084 
L 445.425075 337.64296 
L 454.898725 337.05435 
L 464.372375 343.750241 
L 473.846025 331.564441 
L 483.319675 294.428557 
L 492.793325 297.749564 
L 502.266975 311.467046 
L 511.740625 283.930807 
L 521.214275 309.424128 
L 530.687925 341.749454 
L 540.161575 344.78284 
L 549.635225 342.11688 
L 559.108875 324.29979 
L 568.582525 328.112992 
L 578.056175 342.845654 
L 587.529825 343.939828 
L 597.003475 348.599688 
L 606.477125 350.144333 
L 615.950775 350.770212 
L 625.424425 352.485809 
L 634.898075 352.742237 
L 644.371725 352.892934 
L 653.845375 352.98003 
L 663.319025 353.01973 
L 672.792675 353.06267 
L 682.266325 353.113308 
L 691.739975 353.14369 
L 701.213625 353.170427 
L 710.687275 353.192707 
L 720.160925 353.192707 
L 729.634575 353.197163 
L 739.108225 353.215798 
L 748.581875 353.219039 
L 758.055525 353.219039 
L 767.529175 353.220659 
L 777.002825 353.221469 
L 786.476475 353.22228 
L 795.950125 353.221469 
L 805.423775 353.2239 
L 814.897425 353.2239 
L 824.371075 353.2239 
L 833.844725 353.2239 
L 843.318375 353.2239 
L 852.792025 353.2239 
L 862.265675 353.2239 
L 871.739325 353.2239 
L 881.212975 353.2239 
L 890.686625 353.2239 
L 900.160275 353.2239 
L 909.633925 353.2239 
L 919.107575 353.2239 
L 928.581225 353.2239 
L 938.054875 353.2239 
L 947.528525 353.2239 
L 957.002175 353.2239 
L 966.475825 353.2239 
L 975.949475 353.2239 
L 985.423125 353.2239 
" clip-path="url(#p9afc96e5d1)" style="fill: none; stroke: #d9534f; stroke-linecap: square"/>
   </g>
   <g id="line2d_19">
    <path d="M 38.058125 353.2239 
L 47.531775 353.2239 
L 57.005425 353.2239 
L 66.479075 353.2239 
L 75.952725 353.2239 
L 85.426375 353.2239 
L 94.900025 353.2239 
L 104.373675 353.2239 
L 113.847325 353.2239 
L 123.320975 353.2239 
L 132.794625 353.2239 
L 142.268275 353.2239 
L 151.741925 353.2239 
L 161.215575 353.2239 
L 170.689225 353.2239 
L 180.162875 353.2239 
L 189.636525 353.2239 
L 199.110175 353.2239 
L 208.583825 353.2239 
L 218.057475 353.2239 
L 227.531125 353.2239 
L 237.004775 353.2239 
L 246.478425 353.22294 
L 255.952075 353.2239 
L 265.425725 353.2239 
L 274.899375 353.2239 
L 284.373025 353.2239 
L 293.846675 353.220058 
L 303.320325 353.221979 
L 312.793975 353.221019 
L 322.267625 353.219098 
L 331.741275 353.213335 
L 341.214925 353.207092 
L 350.688575 353.206131 
L 360.162225 353.206612 
L 369.635875 353.189323 
L 379.109525 353.186922 
L 388.583175 353.174436 
L 398.056825 353.150424 
L 407.530475 353.106243 
L 417.004125 353.020281 
L 426.477775 352.904064 
L 435.951425 352.489622 
L 445.425075 335.513357 
L 454.898725 308.396954 
L 464.372375 323.089708 
L 473.846025 348.925807 
L 483.319675 332.149799 
L 492.793325 329.326024 
L 502.266975 223.632323 
L 511.740625 221.574521 
L 521.214275 344.229121 
L 530.687925 349.164964 
L 540.161575 349.761414 
L 549.635225 349.368103 
L 559.108875 341.633457 
L 568.582525 340.73734 
L 578.056175 348.672244 
L 587.529825 350.709876 
L 597.003475 351.438871 
L 606.477125 351.964247 
L 615.950775 352.188516 
L 625.424425 352.427192 
L 634.898075 352.568381 
L 644.371725 352.632732 
L 653.845375 352.68892 
L 663.319025 352.762395 
L 672.792675 352.844515 
L 682.266325 352.89542 
L 691.739975 352.905025 
L 701.213625 352.972257 
L 710.687275 353.020281 
L 720.160925 353.043332 
L 729.634575 353.097118 
L 739.108225 353.129774 
L 748.581875 353.138418 
L 758.055525 353.158588 
L 767.529175 353.168193 
L 777.002825 353.180679 
L 786.476475 353.199888 
L 795.950125 353.207572 
L 805.423775 353.209493 
L 814.897425 353.221979 
L 824.371075 353.22294 
L 833.844725 353.22294 
L 843.318375 353.221979 
L 852.792025 353.22294 
L 862.265675 353.2239 
L 871.739325 353.2239 
L 881.212975 353.2239 
L 890.686625 353.2239 
L 900.160275 353.2239 
L 909.633925 353.2239 
L 919.107575 353.2239 
L 928.581225 353.2239 
L 938.054875 353.2239 
L 947.528525 353.2239 
L 957.002175 353.2239 
L 966.475825 353.2239 
L 975.949475 353.2239 
L 985.423125 353.2239 
" clip-path="url(#p9afc96e5d1)" style="fill: none; stroke: #d9534f; stroke-linecap: square"/>
   </g>
   <g id="line2d_20">
    <path d="M 38.058125 353.2239 
L 47.531775 353.2239 
L 57.005425 353.2239 
L 66.479075 353.2239 
L 75.952725 353.2239 
L 85.426375 353.2239 
L 94.900025 353.2239 
L 104.373675 353.2239 
L 113.847325 353.2239 
L 123.320975 353.2239 
L 132.794625 353.2239 
L 142.268275 353.2239 
L 151.741925 353.2239 
L 161.215575 353.2239 
L 170.689225 353.2239 
L 180.162875 353.2239 
L 189.636525 353.2239 
L 199.110175 353.2239 
L 208.583825 353.2239 
L 218.057475 353.222804 
L 227.531125 353.222804 
L 237.004775 353.2239 
L 246.478425 353.22317 
L 255.952075 353.2239 
L 265.425725 353.2239 
L 274.899375 353.221709 
L 284.373025 353.22317 
L 293.846675 353.2239 
L 303.320325 353.221344 
L 312.793975 353.216961 
L 322.267625 353.220248 
L 331.741275 353.214405 
L 341.214925 353.210022 
L 350.688575 353.213674 
L 360.162225 353.197605 
L 369.635875 353.180075 
L 379.109525 353.155241 
L 388.583175 353.133328 
L 398.056825 353.117259 
L 407.530475 353.081834 
L 417.004125 353.038008 
L 426.477775 352.949628 
L 435.951425 352.846639 
L 445.425075 352.306129 
L 454.898725 330.056479 
L 464.372375 328.128539 
L 473.846025 349.514469 
L 483.319675 350.859535 
L 492.793325 350.547646 
L 502.266975 349.706204 
L 511.740625 330.803698 
L 521.214275 327.668375 
L 530.687925 334.887104 
L 540.161575 331.911378 
L 549.635225 331.321565 
L 559.108875 252.427579 
L 568.582525 236.704221 
L 578.056175 315.640936 
L 587.529825 340.922553 
L 597.003475 346.75239 
L 606.477125 349.172998 
L 615.950775 350.343129 
L 625.424425 351.014018 
L 634.898075 351.465782 
L 644.371725 351.832087 
L 653.845375 352.026379 
L 663.319025 352.241852 
L 672.792675 352.402909 
L 682.266325 352.475221 
L 691.739975 352.592453 
L 701.213625 352.66513 
L 710.687275 352.769214 
L 720.160925 352.847004 
L 729.634575 352.914933 
L 739.108225 352.967523 
L 748.581875 352.977018 
L 758.055525 353.026687 
L 767.529175 353.056634 
L 777.002825 353.093885 
L 786.476475 353.120181 
L 795.950125 353.156701 
L 805.423775 353.174232 
L 814.897425 353.191762 
L 824.371075 353.212213 
L 833.844725 353.218787 
L 843.318375 353.222439 
L 852.792025 353.221709 
L 862.265675 353.22317 
L 871.739325 353.2239 
L 881.212975 353.2239 
L 890.686625 353.2239 
L 900.160275 353.2239 
L 909.633925 353.2239 
L 919.107575 353.2239 
L 928.581225 353.2239 
L 938.054875 353.2239 
L 947.528525 353.2239 
L 957.002175 353.2239 
L 966.475825 353.2239 
L 975.949475 353.2239 
L 985.423125 353.2239 
" clip-path="url(#p9afc96e5d1)" style="fill: none; stroke: #d9534f; stroke-linecap: square"/>
   </g>
   <g id="line2d_21">
    <path d="M 38.058125 353.2239 
L 47.531775 353.2239 
L 57.005425 353.2239 
L 66.479075 353.2239 
L 75.952725 353.2239 
L 85.426375 353.2239 
L 94.900025 353.2239 
L 104.373675 353.2239 
L 113.847325 353.2239 
L 123.320975 353.2239 
L 132.794625 353.2239 
L 142.268275 353.2239 
L 151.741925 353.2239 
L 161.215575 353.2239 
L 170.689225 353.2239 
L 180.162875 353.2239 
L 189.636525 353.2239 
L 199.110175 353.2239 
L 208.583825 353.2239 
L 218.057475 353.2239 
L 227.531125 353.2239 
L 237.004775 353.2239 
L 246.478425 353.2239 
L 255.952075 353.2239 
L 265.425725 353.2239 
L 274.899375 353.2239 
L 284.373025 353.2239 
L 293.846675 353.222906 
L 303.320325 353.222906 
L 312.793975 353.2239 
L 322.267625 353.2239 
L 331.741275 353.2239 
L 341.214925 353.2239 
L 350.688575 353.222244 
L 360.162225 353.222906 
L 369.635875 353.221913 
L 379.109525 353.218932 
L 388.583175 353.215951 
L 398.056825 353.211977 
L 407.530475 353.208665 
L 417.004125 353.196741 
L 426.477775 353.159315 
L 435.951425 353.04505 
L 445.425075 351.319475 
L 454.898725 349.5525 
L 464.372375 308.945854 
L 473.846025 301.786873 
L 483.319675 338.270355 
L 492.793325 338.46974 
L 502.266975 211.186257 
L 511.740625 201.023583 
L 521.214275 330.657955 
L 530.687925 348.532391 
L 540.161575 351.410556 
L 549.635225 351.967311 
L 559.108875 349.017274 
L 568.582525 349.078878 
L 578.056175 352.496575 
L 587.529825 352.926479 
L 597.003475 353.064922 
L 606.477125 353.145405 
L 615.950775 353.168589 
L 625.424425 353.180843 
L 634.898075 353.201378 
L 644.371725 353.208665 
L 653.845375 353.215289 
L 663.319025 353.216282 
L 672.792675 353.216945 
L 682.266325 353.220919 
L 691.739975 353.222575 
L 701.213625 353.2239 
L 710.687275 353.2239 
L 720.160925 353.2239 
L 729.634575 353.2239 
L 739.108225 353.2239 
L 748.581875 353.2239 
L 758.055525 353.2239 
L 767.529175 353.2239 
L 777.002825 353.2239 
L 786.476475 353.2239 
L 795.950125 353.2239 
L 805.423775 353.2239 
L 814.897425 353.2239 
L 824.371075 353.2239 
L 833.844725 353.2239 
L 843.318375 353.2239 
L 852.792025 353.2239 
L 862.265675 353.2239 
L 871.739325 353.2239 
L 881.212975 353.2239 
L 890.686625 353.2239 
L 900.160275 353.2239 
L 909.633925 353.2239 
L 919.107575 353.2239 
L 928.581225 353.2239 
L 938.054875 353.2239 
L 947.528525 353.2239 
L 957.002175 353.2239 
L 966.475825 353.2239 
L 975.949475 353.2239 
L 985.423125 353.2239 
" clip-path="url(#p9afc96e5d1)" style="fill: none; stroke: #d9534f; stroke-linecap: square"/>
   </g>
   <g id="line2d_22">
    <path d="M 38.058125 353.2239 
L 47.531775 353.2239 
L 57.005425 353.2239 
L 66.479075 353.2239 
L 75.952725 353.2239 
L 85.426375 353.2239 
L 94.900025 353.2239 
L 104.373675 353.2239 
L 113.847325 353.2239 
L 123.320975 353.2239 
L 132.794625 353.2239 
L 142.268275 353.2239 
L 151.741925 353.2239 
L 161.215575 353.2239 
L 170.689225 353.2239 
L 180.162875 353.2239 
L 189.636525 353.2239 
L 199.110175 353.2239 
L 208.583825 353.221994 
L 218.057475 353.221994 
L 227.531125 353.2239 
L 237.004775 353.2239 
L 246.478425 353.2239 
L 255.952075 353.2239 
L 265.425725 353.2239 
L 274.899375 353.2239 
L 284.373025 353.2239 
L 293.846675 353.2239 
L 303.320325 353.2239 
L 312.793975 353.2239 
L 322.267625 353.2239 
L 331.741275 353.2239 
L 341.214925 353.2239 
L 350.688575 353.2239 
L 360.162225 353.216912 
L 369.635875 353.209289 
L 379.109525 353.206112 
L 388.583175 353.203571 
L 398.056825 353.174348 
L 407.530475 353.147032 
L 417.004125 353.091763 
L 426.477775 353.011082 
L 435.951425 352.860522 
L 445.425075 352.510485 
L 454.898725 343.37966 
L 464.372375 342.490909 
L 473.846025 350.759028 
L 483.319675 350.275583 
L 492.793325 346.539524 
L 502.266975 232.197431 
L 511.740625 186.3451 
L 521.214275 296.153227 
L 530.687925 342.703726 
L 540.161575 345.347746 
L 549.635225 345.430332 
L 559.108875 341.429997 
L 568.582525 341.67839 
L 578.056175 346.543971 
L 587.529825 347.373641 
L 597.003475 348.072445 
L 606.477125 348.873529 
L 615.950775 349.570427 
L 625.424425 350.33657 
L 634.898075 350.964223 
L 644.371725 351.46482 
L 653.845375 351.844715 
L 663.319025 352.227152 
L 672.792675 352.546696 
L 682.266325 352.794453 
L 691.739975 352.929132 
L 701.213625 353.020612 
L 710.687275 353.096845 
L 720.160925 353.152749 
L 729.634575 353.187689 
L 739.108225 353.202936 
L 748.581875 353.209924 
L 758.055525 353.211194 
L 767.529175 353.216277 
L 777.002825 353.221359 
L 786.476475 353.222629 
L 795.950125 353.222629 
L 805.423775 353.2239 
L 814.897425 353.2239 
L 824.371075 353.2239 
L 833.844725 353.2239 
L 843.318375 353.2239 
L 852.792025 353.2239 
L 862.265675 353.2239 
L 871.739325 353.2239 
L 881.212975 353.2239 
L 890.686625 353.2239 
L 900.160275 353.2239 
L 909.633925 353.2239 
L 919.107575 353.2239 
L 928.581225 353.2239 
L 938.054875 353.2239 
L 947.528525 353.2239 
L 957.002175 353.2239 
L 966.475825 353.2239 
L 975.949475 353.2239 
L 985.423125 353.2239 
" clip-path="url(#p9afc96e5d1)" style="fill: none; stroke: #d9534f; stroke-linecap: square"/>
   </g>
   <g id="line2d_23">
    <path d="M 38.058125 353.2239 
L 47.531775 353.2239 
L 57.005425 353.2239 
L 66.479075 353.2239 
L 75.952725 353.2239 
L 85.426375 353.2239 
L 94.900025 353.2239 
L 104.373675 353.2239 
L 113.847325 353.2239 
L 123.320975 353.2239 
L 132.794625 353.2239 
L 142.268275 353.2239 
L 151.741925 353.2239 
L 161.215575 353.2239 
L 170.689225 353.2239 
L 180.162875 353.2239 
L 189.636525 353.2239 
L 199.110175 353.2239 
L 208.583825 353.2239 
L 218.057475 353.2239 
L 227.531125 353.2239 
L 237.004775 353.2239 
L 246.478425 353.2239 
L 255.952075 353.2239 
L 265.425725 353.2239 
L 274.899375 353.2239 
L 284.373025 353.2239 
L 293.846675 353.2239 
L 303.320325 353.2239 
L 312.793975 353.223063 
L 322.267625 353.221389 
L 331.741275 353.221389 
L 341.214925 353.223063 
L 350.688575 353.223063 
L 360.162225 353.222226 
L 369.635875 353.222226 
L 379.109525 353.213857 
L 388.583175 353.213578 
L 398.056825 353.214973 
L 407.530475 353.215252 
L 417.004125 353.202418 
L 426.477775 353.172288 
L 435.951425 353.130162 
L 445.425075 352.915904 
L 454.898725 349.218841 
L 464.372375 334.72268 
L 473.846025 330.335416 
L 483.319675 341.042728 
L 492.793325 270.202335 
L 502.266975 182.231916 
L 511.740625 246.345506 
L 521.214275 333.450524 
L 530.687925 344.84162 
L 540.161575 347.480228 
L 549.635225 350.141712 
L 559.108875 349.091067 
L 568.582525 349.274079 
L 578.056175 352.394209 
L 587.529825 352.860108 
L 597.003475 353.034751 
L 606.477125 353.125141 
L 615.950775 353.168104 
L 625.424425 353.192375 
L 634.898075 353.206882 
L 644.371725 353.216646 
L 653.845375 353.220273 
L 663.319025 353.221389 
L 672.792675 353.222226 
L 682.266325 353.222784 
L 691.739975 353.223342 
L 701.213625 353.2239 
L 710.687275 353.2239 
L 720.160925 353.2239 
L 729.634575 353.2239 
L 739.108225 353.2239 
L 748.581875 353.223342 
L 758.055525 353.2239 
L 767.529175 353.2239 
L 777.002825 353.2239 
L 786.476475 353.2239 
L 795.950125 353.2239 
L 805.423775 353.2239 
L 814.897425 353.2239 
L 824.371075 353.2239 
L 833.844725 353.2239 
L 843.318375 353.2239 
L 852.792025 353.2239 
L 862.265675 353.2239 
L 871.739325 353.2239 
L 881.212975 353.2239 
L 890.686625 353.2239 
L 900.160275 353.2239 
L 909.633925 353.2239 
L 919.107575 353.2239 
L 928.581225 353.2239 
L 938.054875 353.2239 
L 947.528525 353.2239 
L 957.002175 353.2239 
L 966.475825 353.2239 
L 975.949475 353.2239 
L 985.423125 353.2239 
" clip-path="url(#p9afc96e5d1)" style="fill: none; stroke: #d9534f; stroke-linecap: square"/>
   </g>
   <g id="line2d_24">
    <path d="M 38.058125 353.2239 
L 47.531775 353.2239 
L 57.005425 353.2239 
L 66.479075 353.2239 
L 75.952725 353.2239 
L 85.426375 353.2239 
L 94.900025 353.2239 
L 104.373675 353.2239 
L 113.847325 353.2239 
L 123.320975 353.2239 
L 132.794625 353.2239 
L 142.268275 353.2239 
L 151.741925 353.2239 
L 161.215575 353.2239 
L 170.689225 353.2239 
L 180.162875 353.2239 
L 189.636525 353.2239 
L 199.110175 353.2239 
L 208.583825 353.2239 
L 218.057475 353.2239 
L 227.531125 353.2239 
L 237.004775 353.2239 
L 246.478425 353.2239 
L 255.952075 353.2239 
L 265.425725 353.2239 
L 274.899375 353.2239 
L 284.373025 353.2239 
L 293.846675 353.223 
L 303.320325 353.2239 
L 312.793975 353.223 
L 322.267625 353.222551 
L 331.741275 353.221201 
L 341.214925 353.221651 
L 350.688575 353.218952 
L 360.162225 353.219852 
L 369.635875 353.209956 
L 379.109525 353.195562 
L 388.583175 353.148333 
L 398.056825 350.825995 
L 407.530475 350.670363 
L 417.004125 352.87935 
L 426.477775 352.843816 
L 435.951425 348.967854 
L 445.425075 339.414916 
L 454.898725 339.177869 
L 464.372375 342.426354 
L 473.846025 340.134603 
L 483.319675 336.553263 
L 492.793325 332.943136 
L 502.266975 297.278174 
L 511.740625 271.978046 
L 521.214275 299.074691 
L 530.687925 327.923323 
L 540.161575 339.874166 
L 549.635225 335.920838 
L 559.108875 319.252001 
L 568.582525 320.510102 
L 578.056175 337.261254 
L 587.529825 341.535742 
L 597.003475 344.52514 
L 606.477125 346.854225 
L 615.950775 348.984047 
L 625.424425 350.678459 
L 634.898075 351.850198 
L 644.371725 352.514109 
L 653.845375 352.83392 
L 663.319025 352.999448 
L 672.792675 353.068268 
L 682.266325 353.099754 
L 691.739975 353.118646 
L 701.213625 353.137538 
L 710.687275 353.151032 
L 720.160925 353.172622 
L 729.634575 353.191514 
L 739.108225 353.196012 
L 748.581875 353.205908 
L 758.055525 353.214004 
L 767.529175 353.214004 
L 777.002825 353.217603 
L 786.476475 353.220302 
L 795.950125 353.218502 
L 805.423775 353.221201 
L 814.897425 353.222101 
L 824.371075 353.223 
L 833.844725 353.222101 
L 843.318375 353.2239 
L 852.792025 353.2239 
L 862.265675 353.2239 
L 871.739325 353.2239 
L 881.212975 353.2239 
L 890.686625 353.2239 
L 900.160275 353.2239 
L 909.633925 353.2239 
L 919.107575 353.2239 
L 928.581225 353.2239 
L 938.054875 353.2239 
L 947.528525 353.2239 
L 957.002175 353.2239 
L 966.475825 353.2239 
L 975.949475 353.2239 
L 985.423125 353.2239 
" clip-path="url(#p9afc96e5d1)" style="fill: none; stroke: #d9534f; stroke-linecap: square"/>
   </g>
   <g id="line2d_25">
    <path d="M 38.058125 353.2239 
L 47.531775 353.2239 
L 57.005425 353.2239 
L 66.479075 353.2239 
L 75.952725 353.2239 
L 85.426375 353.2239 
L 94.900025 353.2239 
L 104.373675 353.2239 
L 113.847325 353.2239 
L 123.320975 353.2239 
L 132.794625 353.2239 
L 142.268275 353.22282 
L 151.741925 353.22282 
L 161.215575 353.2239 
L 170.689225 353.2239 
L 180.162875 353.2239 
L 189.636525 353.22282 
L 199.110175 353.22282 
L 208.583825 353.2239 
L 218.057475 353.2239 
L 227.531125 353.2239 
L 237.004775 353.2239 
L 246.478425 353.2239 
L 255.952075 353.2239 
L 265.425725 353.2239 
L 274.899375 353.2239 
L 284.373025 353.22318 
L 293.846675 353.22318 
L 303.320325 353.22318 
L 312.793975 353.2239 
L 322.267625 353.2239 
L 331.741275 353.22282 
L 341.214925 353.220299 
L 350.688575 353.22138 
L 360.162225 353.219939 
L 369.635875 353.216699 
L 379.109525 353.218139 
L 388.583175 353.215259 
L 398.056825 353.208777 
L 407.530475 353.200496 
L 417.004125 353.063672 
L 426.477775 347.730427 
L 435.951425 347.421133 
L 445.425075 350.91878 
L 454.898725 350.74811 
L 464.372375 344.160047 
L 473.846025 301.773852 
L 483.319675 302.258496 
L 492.793325 342.833217 
L 502.266975 337.174115 
L 511.740625 323.820478 
L 521.214275 327.940673 
L 530.687925 272.733372 
L 540.161575 271.932233 
L 549.635225 335.842244 
L 559.108875 330.587852 
L 568.582525 329.877449 
L 578.056175 335.627286 
L 587.529825 342.3907 
L 597.003475 351.662309 
L 606.477125 352.59019 
L 615.950775 352.872119 
L 625.424425 353.026946 
L 634.898075 353.120202 
L 644.371725 353.156208 
L 653.845375 353.186093 
L 663.319025 353.191494 
L 672.792675 353.203376 
L 682.266325 353.204097 
L 691.739975 353.207697 
L 701.213625 353.212378 
L 710.687275 353.208057 
L 720.160925 353.207337 
L 729.634575 353.205897 
L 739.108225 353.213098 
L 748.581875 353.214538 
L 758.055525 353.215259 
L 767.529175 353.215259 
L 777.002825 353.218859 
L 786.476475 353.220299 
L 795.950125 353.218859 
L 805.423775 353.220299 
L 814.897425 353.22246 
L 824.371075 353.22318 
L 833.844725 353.2239 
L 843.318375 353.2239 
L 852.792025 353.2239 
L 862.265675 353.2239 
L 871.739325 353.2239 
L 881.212975 353.2239 
L 890.686625 353.2239 
L 900.160275 353.2239 
L 909.633925 353.2239 
L 919.107575 353.2239 
L 928.581225 353.2239 
L 938.054875 353.2239 
L 947.528525 353.2239 
L 957.002175 353.2239 
L 966.475825 353.2239 
L 975.949475 353.2239 
L 985.423125 353.2239 
" clip-path="url(#p9afc96e5d1)" style="fill: none; stroke: #d9534f; stroke-linecap: square"/>
   </g>
   <g id="line2d_26">
    <path d="M 38.058125 353.2239 
L 47.531775 353.2239 
L 57.005425 353.2239 
L 66.479075 353.2239 
L 75.952725 353.2239 
L 85.426375 353.2239 
L 94.900025 353.2239 
L 104.373675 353.2239 
L 113.847325 353.2239 
L 123.320975 353.2239 
L 132.794625 353.2239 
L 142.268275 353.2239 
L 151.741925 353.2239 
L 161.215575 353.2239 
L 170.689225 353.2239 
L 180.162875 353.2239 
L 189.636525 353.2239 
L 199.110175 353.2239 
L 208.583825 353.2239 
L 218.057475 353.2239 
L 227.531125 353.2239 
L 237.004775 353.22225 
L 246.478425 353.22225 
L 255.952075 353.2239 
L 265.425725 353.2239 
L 274.899375 353.2239 
L 284.373025 353.2239 
L 293.846675 353.2239 
L 303.320325 353.2239 
L 312.793975 353.2239 
L 322.267625 353.2239 
L 331.741275 353.2239 
L 341.214925 353.2239 
L 350.688575 353.2239 
L 360.162225 353.2239 
L 369.635875 353.218951 
L 379.109525 353.211253 
L 388.583175 353.207404 
L 398.056825 353.210153 
L 407.530475 353.199705 
L 417.004125 353.17826 
L 426.477775 353.140868 
L 435.951425 353.086979 
L 445.425075 352.800491 
L 454.898725 345.282505 
L 464.372375 335.099791 
L 473.846025 341.142444 
L 483.319675 343.803872 
L 492.793325 340.464439 
L 502.266975 194.023179 
L 511.740625 179.947851 
L 521.214275 331.539306 
L 530.687925 349.340084 
L 540.161575 351.153045 
L 549.635225 351.169541 
L 559.108875 342.982899 
L 568.582525 342.820134 
L 578.056175 351.120052 
L 587.529825 344.275121 
L 597.003475 344.112356 
L 606.477125 352.162628 
L 615.950775 352.937961 
L 625.424425 353.096877 
L 634.898075 353.162863 
L 644.371725 353.196956 
L 653.845375 353.211253 
L 663.319025 353.218401 
L 672.792675 353.221151 
L 682.266325 353.2228 
L 691.739975 353.2228 
L 701.213625 353.2239 
L 710.687275 353.2228 
L 720.160925 353.2239 
L 729.634575 353.2239 
L 739.108225 353.2239 
L 748.581875 353.2239 
L 758.055525 353.2239 
L 767.529175 353.2228 
L 777.002825 353.2228 
L 786.476475 353.2239 
L 795.950125 353.2239 
L 805.423775 353.2239 
L 814.897425 353.2239 
L 824.371075 353.2239 
L 833.844725 353.2239 
L 843.318375 353.2239 
L 852.792025 353.2239 
L 862.265675 353.2239 
L 871.739325 353.2239 
L 881.212975 353.2239 
L 890.686625 353.2239 
L 900.160275 353.2239 
L 909.633925 353.2239 
L 919.107575 353.2239 
L 928.581225 353.2239 
L 938.054875 353.2239 
L 947.528525 353.2239 
L 957.002175 353.2239 
L 966.475825 353.2239 
L 975.949475 353.2239 
L 985.423125 353.2239 
" clip-path="url(#p9afc96e5d1)" style="fill: none; stroke: #d9534f; stroke-linecap: square"/>
   </g>
   <g id="line2d_27">
    <path d="M 38.058125 353.2239 
L 47.531775 353.2239 
L 57.005425 353.2239 
L 66.479075 353.2239 
L 75.952725 353.2239 
L 85.426375 353.2239 
L 94.900025 353.2239 
L 104.373675 353.2239 
L 113.847325 353.2239 
L 123.320975 353.2239 
L 132.794625 353.2239 
L 142.268275 353.2239 
L 151.741925 353.2239 
L 161.215575 353.2239 
L 170.689225 353.2239 
L 180.162875 353.222574 
L 189.636525 353.222574 
L 199.110175 353.2239 
L 208.583825 353.2239 
L 218.057475 353.2239 
L 227.531125 353.2239 
L 237.004775 353.2239 
L 246.478425 353.2239 
L 255.952075 353.2239 
L 265.425725 353.2239 
L 274.899375 353.2239 
L 284.373025 353.2239 
L 293.846675 353.2239 
L 303.320325 353.2239 
L 312.793975 353.2239 
L 322.267625 353.223016 
L 331.741275 353.223016 
L 341.214925 353.222132 
L 350.688575 353.223016 
L 360.162225 353.220364 
L 369.635875 353.216828 
L 379.109525 353.207103 
L 388.583175 353.204009 
L 398.056825 353.210197 
L 407.530475 353.198704 
L 417.004125 353.178371 
L 426.477775 353.128864 
L 435.951425 352.971059 
L 445.425075 346.68363 
L 454.898725 342.453407 
L 464.372375 339.881679 
L 473.846025 339.036076 
L 483.319675 341.690464 
L 492.793325 336.571319 
L 502.266975 177.143622 
L 511.740625 175.471866 
L 521.214275 339.184156 
L 530.687925 345.818578 
L 540.161575 346.939565 
L 549.635225 351.960579 
L 559.108875 352.506044 
L 568.582525 352.581189 
L 578.056175 349.868011 
L 587.529825 349.8742 
L 597.003475 352.78187 
L 606.477125 353.017914 
L 615.950775 353.086871 
L 625.424425 353.115603 
L 634.898075 353.143009 
L 644.371725 353.163784 
L 653.845375 353.180581 
L 663.319025 353.190748 
L 672.792675 353.19782 
L 682.266325 353.202241 
L 691.739975 353.202683 
L 701.213625 353.210639 
L 710.687275 353.212407 
L 720.160925 353.213291 
L 729.634575 353.207987 
L 739.108225 353.213291 
L 748.581875 353.220364 
L 758.055525 353.222132 
L 767.529175 353.222132 
L 777.002825 353.222132 
L 786.476475 353.222132 
L 795.950125 353.223016 
L 805.423775 353.2239 
L 814.897425 353.223016 
L 824.371075 353.2239 
L 833.844725 353.2239 
L 843.318375 353.2239 
L 852.792025 353.2239 
L 862.265675 353.2239 
L 871.739325 353.2239 
L 881.212975 353.2239 
L 890.686625 353.2239 
L 900.160275 353.2239 
L 909.633925 353.2239 
L 919.107575 353.2239 
L 928.581225 353.2239 
L 938.054875 353.2239 
L 947.528525 353.2239 
L 957.002175 353.2239 
L 966.475825 353.2239 
L 975.949475 353.2239 
L 985.423125 353.2239 
" clip-path="url(#p9afc96e5d1)" style="fill: none; stroke: #d9534f; stroke-linecap: square"/>
   </g>
   <g id="line2d_28">
    <path d="M 38.058125 353.2239 
L 47.531775 353.2239 
L 57.005425 353.2239 
L 66.479075 353.2239 
L 75.952725 353.2239 
L 85.426375 353.2239 
L 94.900025 353.2239 
L 104.373675 353.2239 
L 113.847325 353.2239 
L 123.320975 353.2239 
L 132.794625 353.2239 
L 142.268275 353.2239 
L 151.741925 353.2239 
L 161.215575 353.2239 
L 170.689225 353.2239 
L 180.162875 353.2239 
L 189.636525 353.2239 
L 199.110175 353.2239 
L 208.583825 353.2239 
L 218.057475 353.2239 
L 227.531125 353.2239 
L 237.004775 353.2239 
L 246.478425 353.2239 
L 255.952075 353.2239 
L 265.425725 353.2239 
L 274.899375 353.2239 
L 284.373025 353.2239 
L 293.846675 353.2239 
L 303.320325 353.2239 
L 312.793975 353.2239 
L 322.267625 353.22269 
L 331.741275 353.220269 
L 341.214925 353.216638 
L 350.688575 353.219059 
L 360.162225 353.214218 
L 369.635875 353.209377 
L 379.109525 353.196669 
L 388.583175 353.177304 
L 398.056825 353.176699 
L 407.530475 353.134945 
L 417.004125 352.78094 
L 426.477775 334.988106 
L 435.951425 333.78933 
L 445.425075 347.807322 
L 454.898725 345.930188 
L 464.372375 348.716842 
L 473.846025 340.788341 
L 483.319675 325.448732 
L 492.793325 331.052297 
L 502.266975 321.39008 
L 511.740625 322.053915 
L 521.214275 344.173476 
L 530.687925 329.766987 
L 540.161575 323.551023 
L 549.635225 332.297063 
L 559.108875 294.609756 
L 568.582525 289.918737 
L 578.056175 315.341134 
L 587.529825 327.386379 
L 597.003475 348.054217 
L 606.477125 350.54617 
L 615.950775 351.383074 
L 625.424425 351.816352 
L 634.898075 352.170357 
L 644.371725 352.422699 
L 653.845375 352.60303 
L 663.319025 352.773678 
L 672.792675 352.843269 
L 682.266325 352.883208 
L 691.739975 352.989107 
L 701.213625 353.032072 
L 710.687275 353.073826 
L 720.160925 353.073826 
L 729.634575 353.105293 
L 739.108225 353.164597 
L 748.581875 353.148863 
L 758.055525 353.152494 
L 767.529175 353.169438 
L 777.002825 353.182751 
L 786.476475 353.204536 
L 795.950125 353.208166 
L 805.423775 353.214218 
L 814.897425 353.217849 
L 824.371075 353.221479 
L 833.844725 353.22269 
L 843.318375 353.2239 
L 852.792025 353.2239 
L 862.265675 353.2239 
L 871.739325 353.2239 
L 881.212975 353.2239 
L 890.686625 353.2239 
L 900.160275 353.2239 
L 909.633925 353.2239 
L 919.107575 353.2239 
L 928.581225 353.2239 
L 938.054875 353.2239 
L 947.528525 353.2239 
L 957.002175 353.2239 
L 966.475825 353.2239 
L 975.949475 353.2239 
L 985.423125 353.2239 
" clip-path="url(#p9afc96e5d1)" style="fill: none; stroke: #d9534f; stroke-linecap: square"/>
   </g>
   <g id="line2d_29">
    <path d="M 38.058125 353.2239 
L 47.531775 353.2239 
L 57.005425 353.2239 
L 66.479075 353.2239 
L 75.952725 353.2239 
L 85.426375 353.2239 
L 94.900025 353.2239 
L 104.373675 353.2239 
L 113.847325 353.2239 
L 123.320975 353.2239 
L 132.794625 353.2239 
L 142.268275 353.2239 
L 151.741925 353.2239 
L 161.215575 353.2239 
L 170.689225 353.2239 
L 180.162875 353.2239 
L 189.636525 353.2239 
L 199.110175 353.2239 
L 208.583825 353.2239 
L 218.057475 353.2239 
L 227.531125 353.2239 
L 237.004775 353.2239 
L 246.478425 353.2239 
L 255.952075 353.2239 
L 265.425725 353.2239 
L 274.899375 353.2239 
L 284.373025 353.2239 
L 293.846675 353.2239 
L 303.320325 353.2239 
L 312.793975 353.2239 
L 322.267625 353.2239 
L 331.741275 353.22279 
L 341.214925 353.22168 
L 350.688575 353.22168 
L 360.162225 353.22205 
L 369.635875 353.220939 
L 379.109525 353.216499 
L 388.583175 353.215018 
L 398.056825 353.214278 
L 407.530475 353.202806 
L 417.004125 353.061809 
L 426.477775 353.011849 
L 435.951425 353.091414 
L 445.425075 351.900524 
L 454.898725 351.596326 
L 464.372375 347.214309 
L 473.846025 340.105976 
L 483.319675 337.737149 
L 492.793325 335.419021 
L 502.266975 164.810146 
L 511.740625 162.716652 
L 521.214275 338.815907 
L 530.687925 349.700819 
L 540.161575 350.555685 
L 549.635225 351.027526 
L 559.108875 349.882895 
L 568.582525 350.099386 
L 578.056175 352.725044 
L 587.529825 353.012219 
L 597.003475 353.071801 
L 606.477125 353.102517 
L 615.950775 353.108068 
L 625.424425 353.151736 
L 634.898075 353.165059 
L 644.371725 353.183932 
L 653.845375 353.17468 
L 663.319025 353.184672 
L 672.792675 353.191704 
L 682.266325 353.202436 
L 691.739975 353.196515 
L 701.213625 353.204656 
L 710.687275 353.209837 
L 720.160925 353.209837 
L 729.634575 353.209097 
L 739.108225 353.213538 
L 748.581875 353.215018 
L 758.055525 353.217239 
L 767.529175 353.220199 
L 777.002825 353.220199 
L 786.476475 353.220199 
L 795.950125 353.22316 
L 805.423775 353.22168 
L 814.897425 353.2239 
L 824.371075 353.2239 
L 833.844725 353.2239 
L 843.318375 353.2239 
L 852.792025 353.2239 
L 862.265675 353.2239 
L 871.739325 353.2239 
L 881.212975 353.2239 
L 890.686625 353.2239 
L 900.160275 353.2239 
L 909.633925 353.2239 
L 919.107575 353.2239 
L 928.581225 353.2239 
L 938.054875 353.2239 
L 947.528525 353.2239 
L 957.002175 353.2239 
L 966.475825 353.2239 
L 975.949475 353.2239 
L 985.423125 353.2239 
" clip-path="url(#p9afc96e5d1)" style="fill: none; stroke: #d9534f; stroke-linecap: square"/>
   </g>
   <g id="line2d_30">
    <path d="M 38.058125 353.2239 
L 47.531775 353.2239 
L 57.005425 353.2239 
L 66.479075 353.2239 
L 75.952725 353.2239 
L 85.426375 353.2239 
L 94.900025 353.2239 
L 104.373675 353.2239 
L 113.847325 353.2239 
L 123.320975 353.2239 
L 132.794625 353.2239 
L 142.268275 353.2239 
L 151.741925 353.2239 
L 161.215575 353.2239 
L 170.689225 353.2239 
L 180.162875 353.2239 
L 189.636525 353.2239 
L 199.110175 353.2239 
L 208.583825 353.2239 
L 218.057475 353.2239 
L 227.531125 353.2239 
L 237.004775 353.2239 
L 246.478425 353.2239 
L 255.952075 353.2239 
L 265.425725 353.2239 
L 274.899375 353.222536 
L 284.373025 353.222536 
L 293.846675 353.2239 
L 303.320325 353.2239 
L 312.793975 353.2239 
L 322.267625 353.2239 
L 331.741275 353.2239 
L 341.214925 353.222536 
L 350.688575 353.221172 
L 360.162225 353.222536 
L 369.635875 353.221627 
L 379.109525 353.214353 
L 388.583175 353.209806 
L 398.056825 353.205714 
L 407.530475 353.204351 
L 417.004125 353.204351 
L 426.477775 353.184801 
L 435.951425 353.112968 
L 445.425075 353.039771 
L 454.898725 351.813612 
L 464.372375 350.14418 
L 473.846025 350.787948 
L 483.319675 350.997082 
L 492.793325 341.436948 
L 502.266975 151.659558 
L 511.740625 144.006631 
L 521.214275 332.820643 
L 530.687925 349.602706 
L 540.161575 351.559015 
L 549.635225 352.063663 
L 559.108875 351.246678 
L 568.582525 351.090737 
L 578.056175 352.250519 
L 587.529825 352.749258 
L 597.003475 352.926567 
L 606.477125 353.018858 
L 615.950775 353.076143 
L 625.424425 353.132972 
L 634.898075 353.162978 
L 644.371725 353.151613 
L 653.845375 353.168889 
L 663.319025 353.177527 
L 672.792675 353.187529 
L 682.266325 353.202987 
L 691.739975 353.204805 
L 701.213625 353.209352 
L 710.687275 353.215717 
L 720.160925 353.218444 
L 729.634575 353.219354 
L 739.108225 353.217535 
L 748.581875 353.220263 
L 758.055525 353.222081 
L 767.529175 353.2239 
L 777.002825 353.222991 
L 786.476475 353.222991 
L 795.950125 353.222081 
L 805.423775 353.221172 
L 814.897425 353.222991 
L 824.371075 353.2239 
L 833.844725 353.2239 
L 843.318375 353.2239 
L 852.792025 353.2239 
L 862.265675 353.2239 
L 871.739325 353.2239 
L 881.212975 353.2239 
L 890.686625 353.2239 
L 900.160275 353.2239 
L 909.633925 353.2239 
L 919.107575 353.2239 
L 928.581225 353.2239 
L 938.054875 353.2239 
L 947.528525 353.2239 
L 957.002175 353.2239 
L 966.475825 353.2239 
L 975.949475 353.2239 
L 985.423125 353.2239 
" clip-path="url(#p9afc96e5d1)" style="fill: none; stroke: #d9534f; stroke-linecap: square"/>
   </g>
   <g id="line2d_31">
    <path d="M 38.058125 353.2239 
L 47.531775 353.2239 
L 57.005425 353.2239 
L 66.479075 353.2239 
L 75.952725 353.2239 
L 85.426375 353.2239 
L 94.900025 353.2239 
L 104.373675 353.2239 
L 113.847325 353.2239 
L 123.320975 353.2239 
L 132.794625 353.2239 
L 142.268275 353.2239 
L 151.741925 353.2239 
L 161.215575 353.2239 
L 170.689225 353.2239 
L 180.162875 353.2239 
L 189.636525 353.2239 
L 199.110175 353.2239 
L 208.583825 353.2239 
L 218.057475 353.2239 
L 227.531125 353.2239 
L 237.004775 353.2239 
L 246.478425 353.2239 
L 255.952075 353.2239 
L 265.425725 353.222558 
L 274.899375 353.222558 
L 284.373025 353.2239 
L 293.846675 353.2239 
L 303.320325 353.219875 
L 312.793975 353.21585 
L 322.267625 353.214508 
L 331.741275 353.210483 
L 341.214925 353.210483 
L 350.688575 353.206459 
L 360.162225 353.193042 
L 369.635875 353.180967 
L 379.109525 353.163526 
L 388.583175 353.129984 
L 398.056825 353.095102 
L 407.530475 353.081014 
L 417.004125 353.046802 
L 426.477775 352.975695 
L 435.951425 352.905258 
L 445.425075 352.716756 
L 454.898725 348.406033 
L 464.372375 341.958731 
L 473.846025 345.096852 
L 483.319675 350.700255 
L 492.793325 348.456345 
L 502.266975 310.138806 
L 511.740625 301.186642 
L 521.214275 334.011464 
L 530.687925 334.498483 
L 540.161575 335.435626 
L 549.635225 337.50311 
L 559.108875 276.972533 
L 568.582525 266.447956 
L 578.056175 306.657222 
L 587.529825 322.137857 
L 597.003475 345.755602 
L 606.477125 349.0621 
L 615.950775 350.388992 
L 625.424425 351.107446 
L 634.898075 351.662219 
L 644.371725 352.029831 
L 653.845375 352.225712 
L 663.319025 352.298161 
L 672.792675 352.480626 
L 682.266325 352.621499 
L 691.739975 352.682544 
L 701.213625 352.803963 
L 710.687275 352.865008 
L 720.160925 352.975695 
L 729.634575 353.017286 
L 739.108225 353.070952 
L 748.581875 353.080343 
L 758.055525 353.107176 
L 767.529175 353.123276 
L 777.002825 353.163526 
L 786.476475 353.172917 
L 795.950125 353.1917 
L 805.423775 353.194384 
L 814.897425 353.210483 
L 824.371075 353.219875 
L 833.844725 353.222558 
L 843.318375 353.222558 
L 852.792025 353.2239 
L 862.265675 353.2239 
L 871.739325 353.2239 
L 881.212975 353.2239 
L 890.686625 353.2239 
L 900.160275 353.2239 
L 909.633925 353.2239 
L 919.107575 353.2239 
L 928.581225 353.2239 
L 938.054875 353.2239 
L 947.528525 353.2239 
L 957.002175 353.2239 
L 966.475825 353.2239 
L 975.949475 353.2239 
L 985.423125 353.2239 
" clip-path="url(#p9afc96e5d1)" style="fill: none; stroke: #d9534f; stroke-linecap: square"/>
   </g>
   <g id="line2d_32">
    <path d="M 38.058125 353.2239 
L 47.531775 353.2239 
L 57.005425 353.2239 
L 66.479075 353.2239 
L 75.952725 353.2239 
L 85.426375 353.2239 
L 94.900025 353.2239 
L 104.373675 353.2239 
L 113.847325 353.2239 
L 123.320975 353.2239 
L 132.794625 353.2239 
L 142.268275 353.2239 
L 151.741925 353.2239 
L 161.215575 353.2239 
L 170.689225 353.2239 
L 180.162875 353.2239 
L 189.636525 353.2239 
L 199.110175 353.2239 
L 208.583825 353.2239 
L 218.057475 353.2239 
L 227.531125 353.2239 
L 237.004775 353.2239 
L 246.478425 353.2239 
L 255.952075 353.2239 
L 265.425725 353.2239 
L 274.899375 353.22253 
L 284.373025 353.22253 
L 293.846675 353.22253 
L 303.320325 353.22253 
L 312.793975 353.2239 
L 322.267625 353.2239 
L 331.741275 353.2239 
L 341.214925 353.2239 
L 350.688575 353.22116 
L 360.162225 353.222074 
L 369.635875 353.216594 
L 379.109525 353.216138 
L 388.583175 353.209289 
L 398.056825 353.201527 
L 407.530475 353.191482 
L 417.004125 353.174131 
L 426.477775 353.054502 
L 435.951425 352.941723 
L 445.425075 351.080177 
L 454.898725 344.242635 
L 464.372375 342.102564 
L 473.846025 348.212747 
L 483.319675 351.366463 
L 492.793325 345.121128 
L 502.266975 200.304965 
L 511.740625 196.497402 
L 521.214275 339.685796 
L 530.687925 347.53333 
L 540.161575 348.376665 
L 549.635225 345.835246 
L 559.108875 317.896069 
L 568.582525 317.828493 
L 578.056175 345.67498 
L 587.529825 350.257389 
L 597.003475 351.66736 
L 606.477125 352.196557 
L 615.950775 352.463666 
L 625.424425 352.69927 
L 634.898075 352.828487 
L 644.371725 352.923916 
L 653.845375 352.991035 
L 663.319025 353.070027 
L 672.792675 353.099249 
L 682.266325 353.11523 
L 691.739975 353.13943 
L 701.213625 353.153127 
L 710.687275 353.183719 
L 720.160925 353.189199 
L 729.634575 353.198331 
L 739.108225 353.20381 
L 748.581875 353.208376 
L 758.055525 353.214768 
L 767.529175 353.217508 
L 777.002825 353.222987 
L 786.476475 353.222074 
L 795.950125 353.22116 
L 805.423775 353.2239 
L 814.897425 353.2239 
L 824.371075 353.2239 
L 833.844725 353.2239 
L 843.318375 353.2239 
L 852.792025 353.2239 
L 862.265675 353.2239 
L 871.739325 353.2239 
L 881.212975 353.2239 
L 890.686625 353.2239 
L 900.160275 353.2239 
L 909.633925 353.2239 
L 919.107575 353.2239 
L 928.581225 353.2239 
L 938.054875 353.2239 
L 947.528525 353.2239 
L 957.002175 353.2239 
L 966.475825 353.2239 
L 975.949475 353.2239 
L 985.423125 353.2239 
" clip-path="url(#p9afc96e5d1)" style="fill: none; stroke: #d9534f; stroke-linecap: square"/>
   </g>
   <g id="line2d_33">
    <path d="M 38.058125 353.2239 
L 47.531775 353.2239 
L 57.005425 353.2239 
L 66.479075 353.2239 
L 75.952725 353.2239 
L 85.426375 353.2239 
L 94.900025 353.2239 
L 104.373675 353.2239 
L 113.847325 353.2239 
L 123.320975 353.2239 
L 132.794625 353.2239 
L 142.268275 353.2239 
L 151.741925 353.2239 
L 161.215575 353.2239 
L 170.689225 353.2239 
L 180.162875 353.2239 
L 189.636525 353.2239 
L 199.110175 353.2239 
L 208.583825 353.2239 
L 218.057475 353.221838 
L 227.531125 353.221838 
L 237.004775 353.2239 
L 246.478425 353.2239 
L 255.952075 353.2239 
L 265.425725 353.221151 
L 274.899375 353.221151 
L 284.373025 353.221151 
L 293.846675 353.219776 
L 303.320325 353.2239 
L 312.793975 353.221151 
L 322.267625 353.218401 
L 331.741275 353.211528 
L 341.214925 353.201905 
L 350.688575 353.201905 
L 360.162225 353.186097 
L 369.635875 353.17235 
L 379.109525 353.163415 
L 388.583175 353.146919 
L 398.056825 353.105679 
L 407.530475 353.072 
L 417.004125 352.90223 
L 426.477775 346.787748 
L 435.951425 345.668776 
L 445.425075 335.385643 
L 454.898725 334.907262 
L 464.372375 350.268384 
L 473.846025 343.364849 
L 483.319675 333.197874 
L 492.793325 335.731369 
L 502.266975 334.520982 
L 511.740625 327.820896 
L 521.214275 334.707936 
L 530.687925 342.818422 
L 540.161575 342.586792 
L 549.635225 337.756929 
L 559.108875 264.698636 
L 568.582525 249.217918 
L 578.056175 319.251962 
L 587.529825 340.696636 
L 597.003475 346.606981 
L 606.477125 349.187215 
L 615.950775 350.430594 
L 625.424425 351.138543 
L 634.898075 351.588056 
L 644.371725 351.887732 
L 653.845375 352.12761 
L 663.319025 352.261639 
L 672.792675 352.413539 
L 682.266325 352.509765 
L 691.739975 352.60118 
L 701.213625 352.652042 
L 710.687275 352.7194 
L 720.160925 352.807378 
L 729.634575 352.820438 
L 739.108225 352.889171 
L 748.581875 352.947594 
L 758.055525 352.994332 
L 767.529175 353.00258 
L 777.002825 353.074062 
L 786.476475 353.113927 
L 795.950125 353.146919 
L 805.423775 353.166164 
L 814.897425 353.196407 
L 824.371075 353.211528 
L 833.844725 353.212903 
L 843.318375 353.219776 
L 852.792025 353.2239 
L 862.265675 353.2239 
L 871.739325 353.2239 
L 881.212975 353.2239 
L 890.686625 353.2239 
L 900.160275 353.2239 
L 909.633925 353.2239 
L 919.107575 353.2239 
L 928.581225 353.2239 
L 938.054875 353.2239 
L 947.528525 353.2239 
L 957.002175 353.2239 
L 966.475825 353.2239 
L 975.949475 353.2239 
L 985.423125 353.2239 
" clip-path="url(#p9afc96e5d1)" style="fill: none; stroke: #d9534f; stroke-linecap: square"/>
   </g>
   <g id="line2d_34">
    <path d="M 38.058125 353.2239 
L 47.531775 353.2239 
L 57.005425 353.2239 
L 66.479075 353.2239 
L 75.952725 353.2239 
L 85.426375 353.2239 
L 94.900025 353.2239 
L 104.373675 353.2239 
L 113.847325 353.2239 
L 123.320975 353.2239 
L 132.794625 353.2239 
L 142.268275 353.2239 
L 151.741925 353.2239 
L 161.215575 353.2239 
L 170.689225 353.2239 
L 180.162875 353.2239 
L 189.636525 353.2239 
L 199.110175 353.2239 
L 208.583825 353.2239 
L 218.057475 353.2239 
L 227.531125 353.2239 
L 237.004775 353.2239 
L 246.478425 353.2239 
L 255.952075 353.2239 
L 265.425725 353.2239 
L 274.899375 353.2239 
L 284.373025 353.2239 
L 293.846675 353.221293 
L 303.320325 353.22025 
L 312.793975 353.222857 
L 322.267625 353.2239 
L 331.741275 353.2239 
L 341.214925 353.222857 
L 350.688575 353.221814 
L 360.162225 353.222336 
L 369.635875 353.210866 
L 379.109525 353.204609 
L 388.583175 353.176455 
L 398.056825 353.097727 
L 407.530475 352.795849 
L 417.004125 338.062249 
L 426.477775 336.304165 
L 435.951425 334.096132 
L 445.425075 333.751502 
L 454.898725 310.165437 
L 464.372375 303.505885 
L 473.846025 342.104487 
L 483.319675 349.009086 
L 492.793325 331.811978 
L 502.266975 247.188276 
L 511.740625 236.799312 
L 521.214275 320.29684 
L 530.687925 348.484581 
L 540.161575 351.243188 
L 549.635225 352.112324 
L 559.108875 352.567486 
L 568.582525 352.825046 
L 578.056175 352.999708 
L 587.529825 353.106069 
L 597.003475 353.146215 
L 606.477125 353.177497 
L 615.950775 353.199917 
L 625.424425 353.206173 
L 634.898075 353.209823 
L 644.371725 353.218686 
L 653.845375 353.220772 
L 663.319025 353.220772 
L 672.792675 353.222857 
L 682.266325 353.2239 
L 691.739975 353.2239 
L 701.213625 353.2239 
L 710.687275 353.2239 
L 720.160925 353.2239 
L 729.634575 353.2239 
L 739.108225 353.2239 
L 748.581875 353.2239 
L 758.055525 353.2239 
L 767.529175 353.2239 
L 777.002825 353.2239 
L 786.476475 353.2239 
L 795.950125 353.2239 
L 805.423775 353.2239 
L 814.897425 353.2239 
L 824.371075 353.2239 
L 833.844725 353.2239 
L 843.318375 353.2239 
L 852.792025 353.2239 
L 862.265675 353.2239 
L 871.739325 353.2239 
L 881.212975 353.2239 
L 890.686625 353.2239 
L 900.160275 353.2239 
L 909.633925 353.2239 
L 919.107575 353.2239 
L 928.581225 353.2239 
L 938.054875 353.2239 
L 947.528525 353.2239 
L 957.002175 353.2239 
L 966.475825 353.2239 
L 975.949475 353.2239 
L 985.423125 353.2239 
" clip-path="url(#p9afc96e5d1)" style="fill: none; stroke: #d9534f; stroke-linecap: square"/>
   </g>
   <g id="line2d_35">
    <path d="M 38.058125 353.2239 
L 47.531775 353.2239 
L 57.005425 353.2239 
L 66.479075 353.2239 
L 75.952725 353.2239 
L 85.426375 353.2239 
L 94.900025 353.2239 
L 104.373675 353.2239 
L 113.847325 353.2239 
L 123.320975 353.2239 
L 132.794625 353.2239 
L 142.268275 353.2239 
L 151.741925 353.2239 
L 161.215575 353.2239 
L 170.689225 353.2239 
L 180.162875 353.2239 
L 189.636525 353.2239 
L 199.110175 353.2239 
L 208.583825 353.2239 
L 218.057475 353.2239 
L 227.531125 353.2239 
L 237.004775 353.2239 
L 246.478425 353.2239 
L 255.952075 353.2239 
L 265.425725 353.2239 
L 274.899375 353.2239 
L 284.373025 353.222596 
L 293.846675 353.222596 
L 303.320325 353.2239 
L 312.793975 353.2239 
L 322.267625 353.22303 
L 331.741275 353.221726 
L 341.214925 353.219987 
L 350.688575 353.222161 
L 360.162225 353.222596 
L 369.635875 353.219552 
L 379.109525 353.216073 
L 388.583175 353.207811 
L 398.056825 353.194331 
L 407.530475 353.190853 
L 417.004125 353.166937 
L 426.477775 353.099538 
L 435.951425 352.852119 
L 445.425075 344.608143 
L 454.898725 336.116314 
L 464.372375 343.421488 
L 473.846025 351.465875 
L 483.319675 346.477485 
L 492.793325 342.245268 
L 502.266975 176.415652 
L 511.740625 164.533005 
L 521.214275 333.958679 
L 530.687925 349.652627 
L 540.161575 346.982325 
L 549.635225 347.30584 
L 559.108875 350.22443 
L 568.582525 350.453152 
L 578.056175 351.731992 
L 587.529825 352.133777 
L 597.003475 352.918648 
L 606.477125 353.051272 
L 615.950775 353.104321 
L 625.424425 353.137803 
L 634.898075 353.141717 
L 644.371725 353.156936 
L 653.845375 353.176069 
L 663.319025 353.182156 
L 672.792675 353.183895 
L 682.266325 353.182156 
L 691.739975 353.19868 
L 701.213625 353.201289 
L 710.687275 353.19781 
L 720.160925 353.208246 
L 729.634575 353.214769 
L 739.108225 353.213029 
L 748.581875 353.210855 
L 758.055525 353.216073 
L 767.529175 353.22303 
L 777.002825 353.222161 
L 786.476475 353.219552 
L 795.950125 353.222161 
L 805.423775 353.22303 
L 814.897425 353.2239 
L 824.371075 353.22303 
L 833.844725 353.22303 
L 843.318375 353.2239 
L 852.792025 353.2239 
L 862.265675 353.2239 
L 871.739325 353.2239 
L 881.212975 353.2239 
L 890.686625 353.2239 
L 900.160275 353.2239 
L 909.633925 353.2239 
L 919.107575 353.2239 
L 928.581225 353.2239 
L 938.054875 353.2239 
L 947.528525 353.2239 
L 957.002175 353.2239 
L 966.475825 353.2239 
L 975.949475 353.2239 
L 985.423125 353.2239 
" clip-path="url(#p9afc96e5d1)" style="fill: none; stroke: #d9534f; stroke-linecap: square"/>
   </g>
   <g id="line2d_36">
    <path d="M 38.058125 353.2239 
L 47.531775 353.2239 
L 57.005425 353.2239 
L 66.479075 353.2239 
L 75.952725 353.2239 
L 85.426375 353.2239 
L 94.900025 353.2239 
L 104.373675 353.2239 
L 113.847325 353.2239 
L 123.320975 353.2239 
L 132.794625 353.2239 
L 142.268275 353.2239 
L 151.741925 353.2239 
L 161.215575 353.2239 
L 170.689225 353.2239 
L 180.162875 353.2239 
L 189.636525 353.2239 
L 199.110175 353.2239 
L 208.583825 353.2239 
L 218.057475 353.2239 
L 227.531125 353.2239 
L 237.004775 353.2239 
L 246.478425 353.2239 
L 255.952075 352.521549 
L 265.425725 353.2239 
L 274.899375 353.2239 
L 284.373025 353.2239 
L 293.846675 353.2239 
L 303.320325 353.2239 
L 312.793975 353.2239 
L 322.267625 353.2239 
L 331.741275 353.2239 
L 341.214925 353.2239 
L 350.688575 353.2239 
L 360.162225 353.2239 
L 369.635875 353.2239 
L 379.109525 353.2239 
L 388.583175 353.2239 
L 398.056825 353.2239 
L 407.530475 353.2239 
L 417.004125 352.521549 
L 426.477775 350.414496 
L 435.951425 351.819198 
L 445.425075 353.2239 
L 454.898725 346.20039 
L 464.372375 340.230406 
L 473.846025 338.474529 
L 483.319675 339.17688 
L 492.793325 324.427508 
L 502.266975 230.312472 
L 511.740625 236.282455 
L 521.214275 321.266929 
L 530.687925 330.397492 
L 540.161575 334.260422 
L 549.635225 341.283933 
L 559.108875 339.528055 
L 568.582525 341.283933 
L 578.056175 343.742161 
L 587.529825 341.635108 
L 597.003475 347.956267 
L 606.477125 352.521549 
L 615.950775 352.521549 
L 625.424425 352.521549 
L 634.898075 351.819198 
L 644.371725 353.2239 
L 653.845375 353.2239 
L 663.319025 353.2239 
L 672.792675 353.2239 
L 682.266325 352.521549 
L 691.739975 353.2239 
L 701.213625 353.2239 
L 710.687275 353.2239 
L 720.160925 353.2239 
L 729.634575 353.2239 
L 739.108225 352.521549 
L 748.581875 353.2239 
L 758.055525 353.2239 
L 767.529175 353.2239 
L 777.002825 353.2239 
L 786.476475 353.2239 
L 795.950125 353.2239 
L 805.423775 353.2239 
L 814.897425 353.2239 
L 824.371075 353.2239 
L 833.844725 353.2239 
L 843.318375 353.2239 
L 852.792025 353.2239 
L 862.265675 353.2239 
L 871.739325 353.2239 
L 881.212975 353.2239 
L 890.686625 353.2239 
L 900.160275 353.2239 
L 909.633925 353.2239 
L 919.107575 353.2239 
L 928.581225 353.2239 
L 938.054875 353.2239 
L 947.528525 353.2239 
L 957.002175 353.2239 
L 966.475825 353.2239 
L 975.949475 353.2239 
L 985.423125 353.2239 
" clip-path="url(#p9afc96e5d1)" style="fill: none; stroke: #d9534f; stroke-linecap: square"/>
   </g>
   <g id="line2d_37">
    <path d="M 38.058125 353.2239 
L 985.423125 353.2239 
" clip-path="url(#p9afc96e5d1)" style="fill: none; stroke: #dedede; stroke-width: 2; stroke-linecap: square"/>
   </g>
   <g id="text_16">
    <!-- FastQC: Per Sequence GC Content -->
    <g transform="translate(375.104375 19.3575) scale(0.16 -0.16)">
     <defs>
      <path id="DejaVuSans-46" d="M 628 4666 
L 3309 4666 
L 3309 4134 
L 1259 4134 
L 1259 2759 
L 3109 2759 
L 3109 2228 
L 1259 2228 
L 1259 0 
L 628 0 
L 628 4666 
z
" transform="scale(0.015625)"/>
      <path id="DejaVuSans-73" d="M 2834 3397 
L 2834 2853 
Q 2591 2978 2328 3040 
Q 2066 3103 1784 3103 
Q 1356 3103 1142 2972 
Q 928 2841 928 2578 
Q 928 2378 1081 2264 
Q 1234 2150 1697 2047 
L 1894 2003 
Q 2506 1872 2764 1633 
Q 3022 1394 3022 966 
Q 3022 478 2636 193 
Q 2250 -91 1575 -91 
Q 1294 -91 989 -36 
Q 684 19 347 128 
L 347 722 
Q 666 556 975 473 
Q 1284 391 1588 391 
Q 1994 391 2212 530 
Q 2431 669 2431 922 
Q 2431 1156 2273 1281 
Q 2116 1406 1581 1522 
L 1381 1569 
Q 847 1681 609 1914 
Q 372 2147 372 2553 
Q 372 3047 722 3315 
Q 1072 3584 1716 3584 
Q 2034 3584 2315 3537 
Q 2597 3491 2834 3397 
z
" transform="scale(0.015625)"/>
      <path id="DejaVuSans-51" d="M 2522 4238 
Q 1834 4238 1429 3725 
Q 1025 3213 1025 2328 
Q 1025 1447 1429 934 
Q 1834 422 2522 422 
Q 3209 422 3611 934 
Q 4013 1447 4013 2328 
Q 4013 3213 3611 3725 
Q 3209 4238 2522 4238 
z
M 3406 84 
L 4238 -825 
L 3475 -825 
L 2784 -78 
Q 2681 -84 2626 -87 
Q 2572 -91 2522 -91 
Q 1538 -91 948 567 
Q 359 1225 359 2328 
Q 359 3434 948 4092 
Q 1538 4750 2522 4750 
Q 3503 4750 4090 4092 
Q 4678 3434 4678 2328 
Q 4678 1516 4351 937 
Q 4025 359 3406 84 
z
" transform="scale(0.015625)"/>
      <path id="DejaVuSans-3a" d="M 750 794 
L 1409 794 
L 1409 0 
L 750 0 
L 750 794 
z
M 750 3309 
L 1409 3309 
L 1409 2516 
L 750 2516 
L 750 3309 
z
" transform="scale(0.015625)"/>
      <path id="DejaVuSans-53" d="M 3425 4513 
L 3425 3897 
Q 3066 4069 2747 4153 
Q 2428 4238 2131 4238 
Q 1616 4238 1336 4038 
Q 1056 3838 1056 3469 
Q 1056 3159 1242 3001 
Q 1428 2844 1947 2747 
L 2328 2669 
Q 3034 2534 3370 2195 
Q 3706 1856 3706 1288 
Q 3706 609 3251 259 
Q 2797 -91 1919 -91 
Q 1588 -91 1214 -16 
Q 841 59 441 206 
L 441 856 
Q 825 641 1194 531 
Q 1563 422 1919 422 
Q 2459 422 2753 634 
Q 3047 847 3047 1241 
Q 3047 1584 2836 1778 
Q 2625 1972 2144 2069 
L 1759 2144 
Q 1053 2284 737 2584 
Q 422 2884 422 3419 
Q 422 4038 858 4394 
Q 1294 4750 2059 4750 
Q 2388 4750 2728 4690 
Q 3069 4631 3425 4513 
z
" transform="scale(0.015625)"/>
      <path id="DejaVuSans-71" d="M 947 1747 
Q 947 1113 1208 752 
Q 1469 391 1925 391 
Q 2381 391 2643 752 
Q 2906 1113 2906 1747 
Q 2906 2381 2643 2742 
Q 2381 3103 1925 3103 
Q 1469 3103 1208 2742 
Q 947 2381 947 1747 
z
M 2906 525 
Q 2725 213 2448 61 
Q 2172 -91 1784 -91 
Q 1150 -91 751 415 
Q 353 922 353 1747 
Q 353 2572 751 3078 
Q 1150 3584 1784 3584 
Q 2172 3584 2448 3432 
Q 2725 3281 2906 2969 
L 2906 3500 
L 3481 3500 
L 3481 -1331 
L 2906 -1331 
L 2906 525 
z
" transform="scale(0.015625)"/>
      <path id="DejaVuSans-75" d="M 544 1381 
L 544 3500 
L 1119 3500 
L 1119 1403 
Q 1119 906 1312 657 
Q 1506 409 1894 409 
Q 2359 409 2629 706 
Q 2900 1003 2900 1516 
L 2900 3500 
L 3475 3500 
L 3475 0 
L 2900 0 
L 2900 538 
Q 2691 219 2414 64 
Q 2138 -91 1772 -91 
Q 1169 -91 856 284 
Q 544 659 544 1381 
z
M 1991 3584 
L 1991 3584 
z
" transform="scale(0.015625)"/>
      <path id="DejaVuSans-6f" d="M 1959 3097 
Q 1497 3097 1228 2736 
Q 959 2375 959 1747 
Q 959 1119 1226 758 
Q 1494 397 1959 397 
Q 2419 397 2687 759 
Q 2956 1122 2956 1747 
Q 2956 2369 2687 2733 
Q 2419 3097 1959 3097 
z
M 1959 3584 
Q 2709 3584 3137 3096 
Q 3566 2609 3566 1747 
Q 3566 888 3137 398 
Q 2709 -91 1959 -91 
Q 1206 -91 779 398 
Q 353 888 353 1747 
Q 353 2609 779 3096 
Q 1206 3584 1959 3584 
z
" transform="scale(0.015625)"/>
     </defs>
     <use xlink:href="#DejaVuSans-46"/>
     <use xlink:href="#DejaVuSans-61" x="48.394531"/>
     <use xlink:href="#DejaVuSans-73" x="109.673828"/>
     <use xlink:href="#DejaVuSans-74" x="161.773438"/>
     <use xlink:href="#DejaVuSans-51" x="200.982422"/>
     <use xlink:href="#DejaVuSans-43" x="279.693359"/>
     <use xlink:href="#DejaVuSans-3a" x="349.517578"/>
     <use xlink:href="#DejaVuSans-20" x="383.208984"/>
     <use xlink:href="#DejaVuSans-50" x="414.996094"/>
     <use xlink:href="#DejaVuSans-65" x="471.673828"/>
     <use xlink:href="#DejaVuSans-72" x="533.197266"/>
     <use xlink:href="#DejaVuSans-20" x="574.310547"/>
     <use xlink:href="#DejaVuSans-53" x="606.097656"/>
     <use xlink:href="#DejaVuSans-65" x="669.574219"/>
     <use xlink:href="#DejaVuSans-71" x="731.097656"/>
     <use xlink:href="#DejaVuSans-75" x="794.574219"/>
     <use xlink:href="#DejaVuSans-65" x="857.953125"/>
     <use xlink:href="#DejaVuSans-6e" x="919.476562"/>
     <use xlink:href="#DejaVuSans-63" x="982.855469"/>
     <use xlink:href="#DejaVuSans-65" x="1037.835938"/>
     <use xlink:href="#DejaVuSans-20" x="1099.359375"/>
     <use xlink:href="#DejaVuSans-47" x="1131.146484"/>
     <use xlink:href="#DejaVuSans-43" x="1208.636719"/>
     <use xlink:href="#DejaVuSans-20" x="1278.460938"/>
     <use xlink:href="#DejaVuSans-43" x="1310.248047"/>
     <use xlink:href="#DejaVuSans-6f" x="1380.072266"/>
     <use xlink:href="#DejaVuSans-6e" x="1441.253906"/>
     <use xlink:href="#DejaVuSans-74" x="1504.632812"/>
     <use xlink:href="#DejaVuSans-65" x="1543.841797"/>
     <use xlink:href="#DejaVuSans-6e" x="1605.365234"/>
     <use xlink:href="#DejaVuSans-74" x="1668.744141"/>
    </g>
   </g>
  </g>
 </g>
 <defs>
  <clipPath id="p9afc96e5d1">
   <rect x="38.058125" y="35.2559" width="947.365" height="317.968"/>
  </clipPath>
 </defs>
</svg>
