<?xml version="1.0" encoding="utf-8" standalone="no"?>
<!DOCTYPE svg PUBLIC "-//W3C//DTD SVG 1.1//EN"
  "http://www.w3.org/Graphics/SVG/1.1/DTD/svg11.dtd">
<svg xmlns:xlink="http://www.w3.org/1999/xlink" width="1000.258125pt" height="388.844525pt" viewBox="0 0 1000.258125 388.844525" xmlns="http://www.w3.org/2000/svg" version="1.1">
 <metadata>
  <rdf:RDF xmlns:dc="http://purl.org/dc/elements/1.1/" xmlns:cc="http://creativecommons.org/ns#" xmlns:rdf="http://www.w3.org/1999/02/22-rdf-syntax-ns#">
   <cc:Work>
    <dc:type rdf:resource="http://purl.org/dc/dcmitype/StillImage"/>
    <dc:date>2024-06-28T13:31:45.111736</dc:date>
    <dc:format>image/svg+xml</dc:format>
    <dc:creator>
     <cc:Agent>
      <dc:title>Matplotlib v3.7.1, https://matplotlib.org/</dc:title>
     </cc:Agent>
    </dc:creator>
   </cc:Work>
  </rdf:RDF>
 </metadata>
 <defs>
  <style type="text/css">*{stroke-linejoin: round; stroke-linecap: butt}</style>
 </defs>
 <g id="figure_1">
  <g id="axes_1">
   <g id="patch_1">
    <path d="M 38.058125 353.2239 
L 985.423125 353.2239 
L 985.423125 35.2559 
L 38.058125 35.2559 
z
" style="fill: #ffffff"/>
   </g>
   <g id="matplotlib.axis_1">
    <g id="xtick_1">
     <g id="text_1">
      <!-- 0 -->
      <g transform="translate(35.513125 366.30265) scale(0.08 -0.08)">
       <defs>
        <path id="DejaVuSans-30" d="M 2034 4250 
Q 1547 4250 1301 3770 
Q 1056 3291 1056 2328 
Q 1056 1369 1301 889 
Q 1547 409 2034 409 
Q 2525 409 2770 889 
Q 3016 1369 3016 2328 
Q 3016 3291 2770 3770 
Q 2525 4250 2034 4250 
z
M 2034 4750 
Q 2819 4750 3233 4129 
Q 3647 3509 3647 2328 
Q 3647 1150 3233 529 
Q 2819 -91 2034 -91 
Q 1250 -91 836 529 
Q 422 1150 422 2328 
Q 422 3509 836 4129 
Q 1250 4750 2034 4750 
z
" transform="scale(0.015625)"/>
       </defs>
       <use xlink:href="#DejaVuSans-30"/>
      </g>
     </g>
    </g>
    <g id="xtick_2">
     <g id="text_2">
      <!-- 20 -->
      <g transform="translate(222.441125 366.30265) scale(0.08 -0.08)">
       <defs>
        <path id="DejaVuSans-32" d="M 1228 531 
L 3431 531 
L 3431 0 
L 469 0 
L 469 531 
Q 828 903 1448 1529 
Q 2069 2156 2228 2338 
Q 2531 2678 2651 2914 
Q 2772 3150 2772 3378 
Q 2772 3750 2511 3984 
Q 2250 4219 1831 4219 
Q 1534 4219 1204 4116 
Q 875 4013 500 3803 
L 500 4441 
Q 881 4594 1212 4672 
Q 1544 4750 1819 4750 
Q 2544 4750 2975 4387 
Q 3406 4025 3406 3419 
Q 3406 3131 3298 2873 
Q 3191 2616 2906 2266 
Q 2828 2175 2409 1742 
Q 1991 1309 1228 531 
z
" transform="scale(0.015625)"/>
       </defs>
       <use xlink:href="#DejaVuSans-32"/>
       <use xlink:href="#DejaVuSans-30" x="63.623047"/>
      </g>
     </g>
    </g>
    <g id="xtick_3">
     <g id="text_3">
      <!-- 40 -->
      <g transform="translate(411.914125 366.30265) scale(0.08 -0.08)">
       <defs>
        <path id="DejaVuSans-34" d="M 2419 4116 
L 825 1625 
L 2419 1625 
L 2419 4116 
z
M 2253 4666 
L 3047 4666 
L 3047 1625 
L 3713 1625 
L 3713 1100 
L 3047 1100 
L 3047 0 
L 2419 0 
L 2419 1100 
L 313 1100 
L 313 1709 
L 2253 4666 
z
" transform="scale(0.015625)"/>
       </defs>
       <use xlink:href="#DejaVuSans-34"/>
       <use xlink:href="#DejaVuSans-30" x="63.623047"/>
      </g>
     </g>
    </g>
    <g id="xtick_4">
     <g id="text_4">
      <!-- 60 -->
      <g transform="translate(601.387125 366.30265) scale(0.08 -0.08)">
       <defs>
        <path id="DejaVuSans-36" d="M 2113 2584 
Q 1688 2584 1439 2293 
Q 1191 2003 1191 1497 
Q 1191 994 1439 701 
Q 1688 409 2113 409 
Q 2538 409 2786 701 
Q 3034 994 3034 1497 
Q 3034 2003 2786 2293 
Q 2538 2584 2113 2584 
z
M 3366 4563 
L 3366 3988 
Q 3128 4100 2886 4159 
Q 2644 4219 2406 4219 
Q 1781 4219 1451 3797 
Q 1122 3375 1075 2522 
Q 1259 2794 1537 2939 
Q 1816 3084 2150 3084 
Q 2853 3084 3261 2657 
Q 3669 2231 3669 1497 
Q 3669 778 3244 343 
Q 2819 -91 2113 -91 
Q 1303 -91 875 529 
Q 447 1150 447 2328 
Q 447 3434 972 4092 
Q 1497 4750 2381 4750 
Q 2619 4750 2861 4703 
Q 3103 4656 3366 4563 
z
" transform="scale(0.015625)"/>
       </defs>
       <use xlink:href="#DejaVuSans-36"/>
       <use xlink:href="#DejaVuSans-30" x="63.623047"/>
      </g>
     </g>
    </g>
    <g id="xtick_5">
     <g id="text_5">
      <!-- 80 -->
      <g transform="translate(790.860125 366.30265) scale(0.08 -0.08)">
       <defs>
        <path id="DejaVuSans-38" d="M 2034 2216 
Q 1584 2216 1326 1975 
Q 1069 1734 1069 1313 
Q 1069 891 1326 650 
Q 1584 409 2034 409 
Q 2484 409 2743 651 
Q 3003 894 3003 1313 
Q 3003 1734 2745 1975 
Q 2488 2216 2034 2216 
z
M 1403 2484 
Q 997 2584 770 2862 
Q 544 3141 544 3541 
Q 544 4100 942 4425 
Q 1341 4750 2034 4750 
Q 2731 4750 3128 4425 
Q 3525 4100 3525 3541 
Q 3525 3141 3298 2862 
Q 3072 2584 2669 2484 
Q 3125 2378 3379 2068 
Q 3634 1759 3634 1313 
Q 3634 634 3220 271 
Q 2806 -91 2034 -91 
Q 1263 -91 848 271 
Q 434 634 434 1313 
Q 434 1759 690 2068 
Q 947 2378 1403 2484 
z
M 1172 3481 
Q 1172 3119 1398 2916 
Q 1625 2713 2034 2713 
Q 2441 2713 2670 2916 
Q 2900 3119 2900 3481 
Q 2900 3844 2670 4047 
Q 2441 4250 2034 4250 
Q 1625 4250 1398 4047 
Q 1172 3844 1172 3481 
z
" transform="scale(0.015625)"/>
       </defs>
       <use xlink:href="#DejaVuSans-38"/>
       <use xlink:href="#DejaVuSans-30" x="63.623047"/>
      </g>
     </g>
    </g>
    <g id="xtick_6">
     <g id="text_6">
      <!-- 100 -->
      <g transform="translate(977.788125 366.30265) scale(0.08 -0.08)">
       <defs>
        <path id="DejaVuSans-31" d="M 794 531 
L 1825 531 
L 1825 4091 
L 703 3866 
L 703 4441 
L 1819 4666 
L 2450 4666 
L 2450 531 
L 3481 531 
L 3481 0 
L 794 0 
L 794 531 
z
" transform="scale(0.015625)"/>
       </defs>
       <use xlink:href="#DejaVuSans-31"/>
       <use xlink:href="#DejaVuSans-30" x="63.623047"/>
       <use xlink:href="#DejaVuSans-30" x="127.246094"/>
      </g>
     </g>
    </g>
    <g id="text_7">
     <!-- % GC -->
     <g transform="translate(498.035156 379.564837) scale(0.1 -0.1)">
      <defs>
       <path id="DejaVuSans-25" d="M 4653 2053 
Q 4381 2053 4226 1822 
Q 4072 1591 4072 1178 
Q 4072 772 4226 539 
Q 4381 306 4653 306 
Q 4919 306 5073 539 
Q 5228 772 5228 1178 
Q 5228 1588 5073 1820 
Q 4919 2053 4653 2053 
z
M 4653 2450 
Q 5147 2450 5437 2106 
Q 5728 1763 5728 1178 
Q 5728 594 5436 251 
Q 5144 -91 4653 -91 
Q 4153 -91 3862 251 
Q 3572 594 3572 1178 
Q 3572 1766 3864 2108 
Q 4156 2450 4653 2450 
z
M 1428 4353 
Q 1159 4353 1004 4120 
Q 850 3888 850 3481 
Q 850 3069 1003 2837 
Q 1156 2606 1428 2606 
Q 1700 2606 1854 2837 
Q 2009 3069 2009 3481 
Q 2009 3884 1853 4118 
Q 1697 4353 1428 4353 
z
M 4250 4750 
L 4750 4750 
L 1831 -91 
L 1331 -91 
L 4250 4750 
z
M 1428 4750 
Q 1922 4750 2215 4408 
Q 2509 4066 2509 3481 
Q 2509 2891 2217 2550 
Q 1925 2209 1428 2209 
Q 931 2209 642 2551 
Q 353 2894 353 3481 
Q 353 4063 643 4406 
Q 934 4750 1428 4750 
z
" transform="scale(0.015625)"/>
       <path id="DejaVuSans-20" transform="scale(0.015625)"/>
       <path id="DejaVuSans-47" d="M 3809 666 
L 3809 1919 
L 2778 1919 
L 2778 2438 
L 4434 2438 
L 4434 434 
Q 4069 175 3628 42 
Q 3188 -91 2688 -91 
Q 1594 -91 976 548 
Q 359 1188 359 2328 
Q 359 3472 976 4111 
Q 1594 4750 2688 4750 
Q 3144 4750 3555 4637 
Q 3966 4525 4313 4306 
L 4313 3634 
Q 3963 3931 3569 4081 
Q 3175 4231 2741 4231 
Q 1884 4231 1454 3753 
Q 1025 3275 1025 2328 
Q 1025 1384 1454 906 
Q 1884 428 2741 428 
Q 3075 428 3337 486 
Q 3600 544 3809 666 
z
" transform="scale(0.015625)"/>
       <path id="DejaVuSans-43" d="M 4122 4306 
L 4122 3641 
Q 3803 3938 3442 4084 
Q 3081 4231 2675 4231 
Q 1875 4231 1450 3742 
Q 1025 3253 1025 2328 
Q 1025 1406 1450 917 
Q 1875 428 2675 428 
Q 3081 428 3442 575 
Q 3803 722 4122 1019 
L 4122 359 
Q 3791 134 3420 21 
Q 3050 -91 2638 -91 
Q 1578 -91 968 557 
Q 359 1206 359 2328 
Q 359 3453 968 4101 
Q 1578 4750 2638 4750 
Q 3056 4750 3426 4639 
Q 3797 4528 4122 4306 
z
" transform="scale(0.015625)"/>
      </defs>
      <use xlink:href="#DejaVuSans-25"/>
      <use xlink:href="#DejaVuSans-20" x="95.019531"/>
      <use xlink:href="#DejaVuSans-47" x="126.806641"/>
      <use xlink:href="#DejaVuSans-43" x="204.296875"/>
     </g>
    </g>
   </g>
   <g id="matplotlib.axis_2">
    <g id="ytick_1">
     <g id="line2d_1">
      <path d="M 38.058125 353.2239 
L 985.423125 353.2239 
" clip-path="url(#p5c0c7ccf4e)" style="fill: none; stroke: #dedede; stroke-linecap: square"/>
     </g>
     <g id="text_8">
      <!-- 0 -->
      <g transform="translate(25.968125 356.263275) scale(0.08 -0.08)">
       <use xlink:href="#DejaVuSans-30"/>
      </g>
     </g>
    </g>
    <g id="ytick_2">
     <g id="line2d_2">
      <path d="M 38.058125 313.977337 
L 985.423125 313.977337 
" clip-path="url(#p5c0c7ccf4e)" style="fill: none; stroke: #dedede; stroke-linecap: square"/>
     </g>
     <g id="text_9">
      <!-- 10 -->
      <g transform="translate(20.878125 317.016712) scale(0.08 -0.08)">
       <use xlink:href="#DejaVuSans-31"/>
       <use xlink:href="#DejaVuSans-30" x="63.623047"/>
      </g>
     </g>
    </g>
    <g id="ytick_3">
     <g id="line2d_3">
      <path d="M 38.058125 274.730775 
L 985.423125 274.730775 
" clip-path="url(#p5c0c7ccf4e)" style="fill: none; stroke: #dedede; stroke-linecap: square"/>
     </g>
     <g id="text_10">
      <!-- 20 -->
      <g transform="translate(20.878125 277.77015) scale(0.08 -0.08)">
       <use xlink:href="#DejaVuSans-32"/>
       <use xlink:href="#DejaVuSans-30" x="63.623047"/>
      </g>
     </g>
    </g>
    <g id="ytick_4">
     <g id="line2d_4">
      <path d="M 38.058125 235.484212 
L 985.423125 235.484212 
" clip-path="url(#p5c0c7ccf4e)" style="fill: none; stroke: #dedede; stroke-linecap: square"/>
     </g>
     <g id="text_11">
      <!-- 30 -->
      <g transform="translate(20.878125 238.523587) scale(0.08 -0.08)">
       <defs>
        <path id="DejaVuSans-33" d="M 2597 2516 
Q 3050 2419 3304 2112 
Q 3559 1806 3559 1356 
Q 3559 666 3084 287 
Q 2609 -91 1734 -91 
Q 1441 -91 1130 -33 
Q 819 25 488 141 
L 488 750 
Q 750 597 1062 519 
Q 1375 441 1716 441 
Q 2309 441 2620 675 
Q 2931 909 2931 1356 
Q 2931 1769 2642 2001 
Q 2353 2234 1838 2234 
L 1294 2234 
L 1294 2753 
L 1863 2753 
Q 2328 2753 2575 2939 
Q 2822 3125 2822 3475 
Q 2822 3834 2567 4026 
Q 2313 4219 1838 4219 
Q 1578 4219 1281 4162 
Q 984 4106 628 3988 
L 628 4550 
Q 988 4650 1302 4700 
Q 1616 4750 1894 4750 
Q 2613 4750 3031 4423 
Q 3450 4097 3450 3541 
Q 3450 3153 3228 2886 
Q 3006 2619 2597 2516 
z
" transform="scale(0.015625)"/>
       </defs>
       <use xlink:href="#DejaVuSans-33"/>
       <use xlink:href="#DejaVuSans-30" x="63.623047"/>
      </g>
     </g>
    </g>
    <g id="ytick_5">
     <g id="line2d_5">
      <path d="M 38.058125 196.237649 
L 985.423125 196.237649 
" clip-path="url(#p5c0c7ccf4e)" style="fill: none; stroke: #dedede; stroke-linecap: square"/>
     </g>
     <g id="text_12">
      <!-- 40 -->
      <g transform="translate(20.878125 199.277024) scale(0.08 -0.08)">
       <use xlink:href="#DejaVuSans-34"/>
       <use xlink:href="#DejaVuSans-30" x="63.623047"/>
      </g>
     </g>
    </g>
    <g id="ytick_6">
     <g id="line2d_6">
      <path d="M 38.058125 156.991087 
L 985.423125 156.991087 
" clip-path="url(#p5c0c7ccf4e)" style="fill: none; stroke: #dedede; stroke-linecap: square"/>
     </g>
     <g id="text_13">
      <!-- 50 -->
      <g transform="translate(20.878125 160.030462) scale(0.08 -0.08)">
       <defs>
        <path id="DejaVuSans-35" d="M 691 4666 
L 3169 4666 
L 3169 4134 
L 1269 4134 
L 1269 2991 
Q 1406 3038 1543 3061 
Q 1681 3084 1819 3084 
Q 2600 3084 3056 2656 
Q 3513 2228 3513 1497 
Q 3513 744 3044 326 
Q 2575 -91 1722 -91 
Q 1428 -91 1123 -41 
Q 819 9 494 109 
L 494 744 
Q 775 591 1075 516 
Q 1375 441 1709 441 
Q 2250 441 2565 725 
Q 2881 1009 2881 1497 
Q 2881 1984 2565 2268 
Q 2250 2553 1709 2553 
Q 1456 2553 1204 2497 
Q 953 2441 691 2322 
L 691 4666 
z
" transform="scale(0.015625)"/>
       </defs>
       <use xlink:href="#DejaVuSans-35"/>
       <use xlink:href="#DejaVuSans-30" x="63.623047"/>
      </g>
     </g>
    </g>
    <g id="ytick_7">
     <g id="line2d_7">
      <path d="M 38.058125 117.744524 
L 985.423125 117.744524 
" clip-path="url(#p5c0c7ccf4e)" style="fill: none; stroke: #dedede; stroke-linecap: square"/>
     </g>
     <g id="text_14">
      <!-- 60 -->
      <g transform="translate(20.878125 120.783899) scale(0.08 -0.08)">
       <use xlink:href="#DejaVuSans-36"/>
       <use xlink:href="#DejaVuSans-30" x="63.623047"/>
      </g>
     </g>
    </g>
    <g id="ytick_8">
     <g id="line2d_8">
      <path d="M 38.058125 78.497961 
L 985.423125 78.497961 
" clip-path="url(#p5c0c7ccf4e)" style="fill: none; stroke: #dedede; stroke-linecap: square"/>
     </g>
     <g id="text_15">
      <!-- 70 -->
      <g transform="translate(20.878125 81.537336) scale(0.08 -0.08)">
       <defs>
        <path id="DejaVuSans-37" d="M 525 4666 
L 3525 4666 
L 3525 4397 
L 1831 0 
L 1172 0 
L 2766 4134 
L 525 4134 
L 525 4666 
z
" transform="scale(0.015625)"/>
       </defs>
       <use xlink:href="#DejaVuSans-37"/>
       <use xlink:href="#DejaVuSans-30" x="63.623047"/>
      </g>
     </g>
    </g>
    <g id="ytick_9">
     <g id="line2d_9">
      <path d="M 38.058125 39.251398 
L 985.423125 39.251398 
" clip-path="url(#p5c0c7ccf4e)" style="fill: none; stroke: #dedede; stroke-linecap: square"/>
     </g>
     <g id="text_16">
      <!-- 80 -->
      <g transform="translate(20.878125 42.290773) scale(0.08 -0.08)">
       <use xlink:href="#DejaVuSans-38"/>
       <use xlink:href="#DejaVuSans-30" x="63.623047"/>
      </g>
     </g>
    </g>
    <g id="text_17">
     <!-- Percentage -->
     <g transform="translate(14.798438 222.362556) rotate(-90) scale(0.1 -0.1)">
      <defs>
       <path id="DejaVuSans-50" d="M 1259 4147 
L 1259 2394 
L 2053 2394 
Q 2494 2394 2734 2622 
Q 2975 2850 2975 3272 
Q 2975 3691 2734 3919 
Q 2494 4147 2053 4147 
L 1259 4147 
z
M 628 4666 
L 2053 4666 
Q 2838 4666 3239 4311 
Q 3641 3956 3641 3272 
Q 3641 2581 3239 2228 
Q 2838 1875 2053 1875 
L 1259 1875 
L 1259 0 
L 628 0 
L 628 4666 
z
" transform="scale(0.015625)"/>
       <path id="DejaVuSans-65" d="M 3597 1894 
L 3597 1613 
L 953 1613 
Q 991 1019 1311 708 
Q 1631 397 2203 397 
Q 2534 397 2845 478 
Q 3156 559 3463 722 
L 3463 178 
Q 3153 47 2828 -22 
Q 2503 -91 2169 -91 
Q 1331 -91 842 396 
Q 353 884 353 1716 
Q 353 2575 817 3079 
Q 1281 3584 2069 3584 
Q 2775 3584 3186 3129 
Q 3597 2675 3597 1894 
z
M 3022 2063 
Q 3016 2534 2758 2815 
Q 2500 3097 2075 3097 
Q 1594 3097 1305 2825 
Q 1016 2553 972 2059 
L 3022 2063 
z
" transform="scale(0.015625)"/>
       <path id="DejaVuSans-72" d="M 2631 2963 
Q 2534 3019 2420 3045 
Q 2306 3072 2169 3072 
Q 1681 3072 1420 2755 
Q 1159 2438 1159 1844 
L 1159 0 
L 581 0 
L 581 3500 
L 1159 3500 
L 1159 2956 
Q 1341 3275 1631 3429 
Q 1922 3584 2338 3584 
Q 2397 3584 2469 3576 
Q 2541 3569 2628 3553 
L 2631 2963 
z
" transform="scale(0.015625)"/>
       <path id="DejaVuSans-63" d="M 3122 3366 
L 3122 2828 
Q 2878 2963 2633 3030 
Q 2388 3097 2138 3097 
Q 1578 3097 1268 2742 
Q 959 2388 959 1747 
Q 959 1106 1268 751 
Q 1578 397 2138 397 
Q 2388 397 2633 464 
Q 2878 531 3122 666 
L 3122 134 
Q 2881 22 2623 -34 
Q 2366 -91 2075 -91 
Q 1284 -91 818 406 
Q 353 903 353 1747 
Q 353 2603 823 3093 
Q 1294 3584 2113 3584 
Q 2378 3584 2631 3529 
Q 2884 3475 3122 3366 
z
" transform="scale(0.015625)"/>
       <path id="DejaVuSans-6e" d="M 3513 2113 
L 3513 0 
L 2938 0 
L 2938 2094 
Q 2938 2591 2744 2837 
Q 2550 3084 2163 3084 
Q 1697 3084 1428 2787 
Q 1159 2491 1159 1978 
L 1159 0 
L 581 0 
L 581 3500 
L 1159 3500 
L 1159 2956 
Q 1366 3272 1645 3428 
Q 1925 3584 2291 3584 
Q 2894 3584 3203 3211 
Q 3513 2838 3513 2113 
z
" transform="scale(0.015625)"/>
       <path id="DejaVuSans-74" d="M 1172 4494 
L 1172 3500 
L 2356 3500 
L 2356 3053 
L 1172 3053 
L 1172 1153 
Q 1172 725 1289 603 
Q 1406 481 1766 481 
L 2356 481 
L 2356 0 
L 1766 0 
Q 1100 0 847 248 
Q 594 497 594 1153 
L 594 3053 
L 172 3053 
L 172 3500 
L 594 3500 
L 594 4494 
L 1172 4494 
z
" transform="scale(0.015625)"/>
       <path id="DejaVuSans-61" d="M 2194 1759 
Q 1497 1759 1228 1600 
Q 959 1441 959 1056 
Q 959 750 1161 570 
Q 1363 391 1709 391 
Q 2188 391 2477 730 
Q 2766 1069 2766 1631 
L 2766 1759 
L 2194 1759 
z
M 3341 1997 
L 3341 0 
L 2766 0 
L 2766 531 
Q 2569 213 2275 61 
Q 1981 -91 1556 -91 
Q 1019 -91 701 211 
Q 384 513 384 1019 
Q 384 1609 779 1909 
Q 1175 2209 1959 2209 
L 2766 2209 
L 2766 2266 
Q 2766 2663 2505 2880 
Q 2244 3097 1772 3097 
Q 1472 3097 1187 3025 
Q 903 2953 641 2809 
L 641 3341 
Q 956 3463 1253 3523 
Q 1550 3584 1831 3584 
Q 2591 3584 2966 3190 
Q 3341 2797 3341 1997 
z
" transform="scale(0.015625)"/>
       <path id="DejaVuSans-67" d="M 2906 1791 
Q 2906 2416 2648 2759 
Q 2391 3103 1925 3103 
Q 1463 3103 1205 2759 
Q 947 2416 947 1791 
Q 947 1169 1205 825 
Q 1463 481 1925 481 
Q 2391 481 2648 825 
Q 2906 1169 2906 1791 
z
M 3481 434 
Q 3481 -459 3084 -895 
Q 2688 -1331 1869 -1331 
Q 1566 -1331 1297 -1286 
Q 1028 -1241 775 -1147 
L 775 -588 
Q 1028 -725 1275 -790 
Q 1522 -856 1778 -856 
Q 2344 -856 2625 -561 
Q 2906 -266 2906 331 
L 2906 616 
Q 2728 306 2450 153 
Q 2172 0 1784 0 
Q 1141 0 747 490 
Q 353 981 353 1791 
Q 353 2603 747 3093 
Q 1141 3584 1784 3584 
Q 2172 3584 2450 3431 
Q 2728 3278 2906 2969 
L 2906 3500 
L 3481 3500 
L 3481 434 
z
" transform="scale(0.015625)"/>
      </defs>
      <use xlink:href="#DejaVuSans-50"/>
      <use xlink:href="#DejaVuSans-65" x="56.677734"/>
      <use xlink:href="#DejaVuSans-72" x="118.201172"/>
      <use xlink:href="#DejaVuSans-63" x="157.064453"/>
      <use xlink:href="#DejaVuSans-65" x="212.044922"/>
      <use xlink:href="#DejaVuSans-6e" x="273.568359"/>
      <use xlink:href="#DejaVuSans-74" x="336.947266"/>
      <use xlink:href="#DejaVuSans-61" x="376.15625"/>
      <use xlink:href="#DejaVuSans-67" x="437.435547"/>
      <use xlink:href="#DejaVuSans-65" x="500.912109"/>
     </g>
    </g>
   </g>
   <g id="line2d_10">
    <path d="M 38.058125 353.2239 
L 47.531775 353.2239 
L 57.005425 353.2239 
L 66.479075 353.2239 
L 75.952725 353.2239 
L 85.426375 353.2239 
L 94.900025 353.2239 
L 104.373675 353.2239 
L 113.847325 353.2239 
L 123.320975 353.2239 
L 132.794625 353.2239 
L 142.268275 353.2239 
L 151.741925 353.2239 
L 161.215575 353.2239 
L 170.689225 353.2239 
L 180.162875 353.2239 
L 189.636525 353.2239 
L 199.110175 353.2239 
L 208.583825 353.2239 
L 218.057475 353.2239 
L 227.531125 353.2239 
L 237.004775 353.2239 
L 246.478425 353.2239 
L 255.952075 353.2239 
L 265.425725 353.2239 
L 274.899375 353.2239 
L 284.373025 353.2239 
L 293.846675 353.2239 
L 303.320325 353.2239 
L 312.793975 353.2239 
L 322.267625 353.2239 
L 331.741275 353.2239 
L 341.214925 353.2239 
L 350.688575 353.2239 
L 360.162225 353.2239 
L 369.635875 353.2239 
L 379.109525 353.2239 
L 388.583175 353.2239 
L 398.056825 352.691743 
L 407.530475 352.425665 
L 417.004125 352.159586 
L 426.477775 352.292626 
L 435.951425 351.361351 
L 445.425075 346.838019 
L 454.898725 331.67155 
L 464.372375 335.396648 
L 473.846025 348.30145 
L 483.319675 348.966646 
L 492.793325 349.764881 
L 502.266975 349.365763 
L 511.740625 350.829194 
L 521.214275 339.121745 
L 530.687925 334.864491 
L 540.161575 347.104097 
L 549.635225 332.868903 
L 559.108875 122.001778 
L 568.582525 326.882139 
L 578.056175 349.764881 
L 587.529825 351.62743 
L 597.003475 352.691743 
L 606.477125 353.2239 
L 615.950775 352.957822 
L 625.424425 352.957822 
L 634.898075 353.2239 
L 644.371725 353.2239 
L 653.845375 353.2239 
L 663.319025 353.2239 
L 672.792675 353.2239 
L 682.266325 353.2239 
L 691.739975 353.2239 
L 701.213625 353.2239 
L 710.687275 353.2239 
L 720.160925 353.2239 
L 729.634575 353.2239 
L 739.108225 353.2239 
L 748.581875 353.2239 
L 758.055525 353.2239 
L 767.529175 353.2239 
L 777.002825 353.2239 
L 786.476475 353.2239 
L 795.950125 353.2239 
L 805.423775 353.2239 
L 814.897425 353.2239 
L 824.371075 353.2239 
L 833.844725 353.2239 
L 843.318375 353.2239 
L 852.792025 353.2239 
L 862.265675 353.2239 
L 871.739325 353.2239 
L 881.212975 353.2239 
L 890.686625 353.2239 
L 900.160275 353.2239 
L 909.633925 353.2239 
L 919.107575 353.2239 
L 928.581225 353.2239 
L 938.054875 353.2239 
L 947.528525 353.2239 
L 957.002175 353.2239 
L 966.475825 353.2239 
L 975.949475 353.2239 
L 985.423125 353.2239 
" clip-path="url(#p5c0c7ccf4e)" style="fill: none; stroke: #d9534f; stroke-linecap: square"/>
   </g>
   <g id="line2d_11">
    <path d="M 38.058125 353.2239 
L 47.531775 353.2239 
L 57.005425 353.2239 
L 66.479075 353.2239 
L 75.952725 353.2239 
L 85.426375 353.2239 
L 94.900025 353.2239 
L 104.373675 353.2239 
L 113.847325 353.2239 
L 123.320975 353.2239 
L 132.794625 353.2239 
L 142.268275 353.2239 
L 151.741925 353.2239 
L 161.215575 353.2239 
L 170.689225 353.2239 
L 180.162875 353.2239 
L 189.636525 353.2239 
L 199.110175 353.2239 
L 208.583825 353.2239 
L 218.057475 353.2239 
L 227.531125 353.2239 
L 237.004775 353.2239 
L 246.478425 353.2239 
L 255.952075 353.2239 
L 265.425725 353.2239 
L 274.899375 353.2239 
L 284.373025 353.2239 
L 293.846675 353.2239 
L 303.320325 353.2239 
L 312.793975 353.2239 
L 322.267625 353.2239 
L 331.741275 353.2239 
L 341.214925 353.2239 
L 350.688575 353.2239 
L 360.162225 353.2239 
L 369.635875 353.2239 
L 379.109525 353.2239 
L 388.583175 350.323908 
L 398.056825 350.323908 
L 407.530475 351.290572 
L 417.004125 351.290572 
L 426.477775 346.457251 
L 435.951425 347.423915 
L 445.425075 341.623931 
L 454.898725 245.924184 
L 464.372375 243.024192 
L 473.846025 337.757274 
L 483.319675 340.657267 
L 492.793325 333.890618 
L 502.266975 343.557259 
L 511.740625 340.657267 
L 521.214275 337.757274 
L 530.687925 339.690603 
L 540.161575 345.490587 
L 549.635225 343.557259 
L 559.108875 336.79061 
L 568.582525 344.523923 
L 578.056175 353.2239 
L 587.529825 353.2239 
L 597.003475 353.2239 
L 606.477125 353.2239 
L 615.950775 353.2239 
L 625.424425 353.2239 
L 634.898075 353.2239 
L 644.371725 353.2239 
L 653.845375 353.2239 
L 663.319025 353.2239 
L 672.792675 353.2239 
L 682.266325 353.2239 
L 691.739975 353.2239 
L 701.213625 353.2239 
L 710.687275 353.2239 
L 720.160925 353.2239 
L 729.634575 353.2239 
L 739.108225 353.2239 
L 748.581875 353.2239 
L 758.055525 353.2239 
L 767.529175 353.2239 
L 777.002825 353.2239 
L 786.476475 353.2239 
L 795.950125 353.2239 
L 805.423775 353.2239 
L 814.897425 353.2239 
L 824.371075 353.2239 
L 833.844725 353.2239 
L 843.318375 353.2239 
L 852.792025 353.2239 
L 862.265675 353.2239 
L 871.739325 353.2239 
L 881.212975 353.2239 
L 890.686625 353.2239 
L 900.160275 353.2239 
L 909.633925 353.2239 
L 919.107575 353.2239 
L 928.581225 353.2239 
L 938.054875 353.2239 
L 947.528525 353.2239 
L 957.002175 353.2239 
L 966.475825 353.2239 
L 975.949475 353.2239 
L 985.423125 353.2239 
" clip-path="url(#p5c0c7ccf4e)" style="fill: none; stroke: #d9534f; stroke-linecap: square"/>
   </g>
   <g id="line2d_12">
    <path d="M 38.058125 353.2239 
L 47.531775 353.2239 
L 57.005425 353.2239 
L 66.479075 353.2239 
L 75.952725 353.2239 
L 85.426375 353.2239 
L 94.900025 353.2239 
L 104.373675 353.2239 
L 113.847325 353.2239 
L 123.320975 353.2239 
L 132.794625 353.2239 
L 142.268275 353.2239 
L 151.741925 353.2239 
L 161.215575 353.2239 
L 170.689225 353.2239 
L 180.162875 353.2239 
L 189.636525 353.2239 
L 199.110175 353.2239 
L 208.583825 353.2239 
L 218.057475 353.2239 
L 227.531125 353.2239 
L 237.004775 353.2239 
L 246.478425 353.2239 
L 255.952075 353.2239 
L 265.425725 353.2239 
L 274.899375 353.2239 
L 284.373025 353.2239 
L 293.846675 353.2239 
L 303.320325 353.2239 
L 312.793975 353.2239 
L 322.267625 353.2239 
L 331.741275 353.2239 
L 341.214925 353.2239 
L 350.688575 353.082216 
L 360.162225 353.082216 
L 369.635875 353.2239 
L 379.109525 353.2239 
L 388.583175 353.2239 
L 398.056825 353.2239 
L 407.530475 352.846075 
L 417.004125 352.704391 
L 426.477775 352.704391 
L 435.951425 352.46825 
L 445.425075 352.846075 
L 454.898725 351.665372 
L 464.372375 351.618144 
L 473.846025 352.043197 
L 483.319675 351.665372 
L 492.793325 351.570916 
L 502.266975 350.390213 
L 511.740625 349.445651 
L 521.214275 346.092455 
L 530.687925 350.390213 
L 540.161575 345.053436 
L 549.635225 335.796726 
L 559.108875 50.397233 
L 568.582525 323.659101 
L 578.056175 348.170492 
L 587.529825 351.759828 
L 597.003475 352.798847 
L 606.477125 353.129444 
L 615.950775 353.129444 
L 625.424425 353.034988 
L 634.898075 353.034988 
L 644.371725 353.2239 
L 653.845375 353.2239 
L 663.319025 353.2239 
L 672.792675 353.2239 
L 682.266325 353.2239 
L 691.739975 353.2239 
L 701.213625 353.2239 
L 710.687275 353.2239 
L 720.160925 353.2239 
L 729.634575 353.2239 
L 739.108225 353.2239 
L 748.581875 353.2239 
L 758.055525 353.2239 
L 767.529175 353.2239 
L 777.002825 353.2239 
L 786.476475 353.2239 
L 795.950125 353.2239 
L 805.423775 353.2239 
L 814.897425 353.2239 
L 824.371075 353.2239 
L 833.844725 353.2239 
L 843.318375 353.2239 
L 852.792025 353.2239 
L 862.265675 353.2239 
L 871.739325 353.2239 
L 881.212975 353.2239 
L 890.686625 353.2239 
L 900.160275 353.2239 
L 909.633925 353.2239 
L 919.107575 353.2239 
L 928.581225 353.2239 
L 938.054875 353.2239 
L 947.528525 353.2239 
L 957.002175 353.2239 
L 966.475825 353.2239 
L 975.949475 353.2239 
L 985.423125 353.2239 
" clip-path="url(#p5c0c7ccf4e)" style="fill: none; stroke: #d9534f; stroke-linecap: square"/>
   </g>
   <g id="line2d_13">
    <path d="M 38.058125 353.2239 
L 47.531775 353.2239 
L 57.005425 353.2239 
L 66.479075 353.2239 
L 75.952725 353.2239 
L 85.426375 353.2239 
L 94.900025 353.2239 
L 104.373675 353.2239 
L 113.847325 353.2239 
L 123.320975 353.2239 
L 132.794625 353.2239 
L 142.268275 353.2239 
L 151.741925 353.2239 
L 161.215575 353.2239 
L 170.689225 353.2239 
L 180.162875 353.2239 
L 189.636525 353.2239 
L 199.110175 353.2239 
L 208.583825 353.2239 
L 218.057475 353.2239 
L 227.531125 353.2239 
L 237.004775 353.2239 
L 246.478425 353.2239 
L 255.952075 353.2239 
L 265.425725 353.2239 
L 274.899375 353.2239 
L 284.373025 353.2239 
L 293.846675 353.2239 
L 303.320325 353.2239 
L 312.793975 353.2239 
L 322.267625 353.2239 
L 331.741275 353.2239 
L 341.214925 353.2239 
L 350.688575 353.2239 
L 360.162225 353.2239 
L 369.635875 353.2239 
L 379.109525 353.2239 
L 388.583175 352.10257 
L 398.056825 351.541904 
L 407.530475 349.859909 
L 417.004125 347.617248 
L 426.477775 347.056583 
L 435.951425 342.571262 
L 445.425075 339.20727 
L 454.898725 308.370685 
L 464.372375 303.885364 
L 473.846025 333.039953 
L 483.319675 328.554632 
L 492.793325 322.387315 
L 502.266975 315.659333 
L 511.740625 316.780663 
L 521.214275 330.236628 
L 530.687925 335.282614 
L 540.161575 337.525275 
L 549.635225 337.525275 
L 559.108875 336.96461 
L 568.582525 344.813922 
L 578.056175 347.617248 
L 587.529825 349.859909 
L 597.003475 353.2239 
L 606.477125 353.2239 
L 615.950775 353.2239 
L 625.424425 353.2239 
L 634.898075 353.2239 
L 644.371725 353.2239 
L 653.845375 353.2239 
L 663.319025 353.2239 
L 672.792675 353.2239 
L 682.266325 353.2239 
L 691.739975 353.2239 
L 701.213625 353.2239 
L 710.687275 353.2239 
L 720.160925 353.2239 
L 729.634575 353.2239 
L 739.108225 353.2239 
L 748.581875 353.2239 
L 758.055525 353.2239 
L 767.529175 353.2239 
L 777.002825 353.2239 
L 786.476475 353.2239 
L 795.950125 353.2239 
L 805.423775 353.2239 
L 814.897425 353.2239 
L 824.371075 353.2239 
L 833.844725 353.2239 
L 843.318375 353.2239 
L 852.792025 353.2239 
L 862.265675 353.2239 
L 871.739325 353.2239 
L 881.212975 353.2239 
L 890.686625 353.2239 
L 900.160275 353.2239 
L 909.633925 353.2239 
L 919.107575 353.2239 
L 928.581225 353.2239 
L 938.054875 353.2239 
L 947.528525 353.2239 
L 957.002175 353.2239 
L 966.475825 353.2239 
L 975.949475 353.2239 
L 985.423125 353.2239 
" clip-path="url(#p5c0c7ccf4e)" style="fill: none; stroke: #d9534f; stroke-linecap: square"/>
   </g>
   <g id="line2d_14">
    <path d="M 38.058125 353.2239 
L 47.531775 353.2239 
L 57.005425 353.2239 
L 66.479075 353.2239 
L 75.952725 353.2239 
L 85.426375 353.2239 
L 94.900025 353.2239 
L 104.373675 353.2239 
L 113.847325 353.2239 
L 123.320975 353.2239 
L 132.794625 353.2239 
L 142.268275 353.2239 
L 151.741925 353.2239 
L 161.215575 353.2239 
L 170.689225 353.2239 
L 180.162875 353.2239 
L 189.636525 353.2239 
L 199.110175 353.2239 
L 208.583825 353.2239 
L 218.057475 353.2239 
L 227.531125 353.2239 
L 237.004775 353.2239 
L 246.478425 353.2239 
L 255.952075 353.2239 
L 265.425725 353.2239 
L 274.899375 353.2239 
L 284.373025 353.2239 
L 293.846675 353.2239 
L 303.320325 353.2239 
L 312.793975 353.2239 
L 322.267625 353.2239 
L 331.741275 353.2239 
L 341.214925 353.2239 
L 350.688575 353.2239 
L 360.162225 353.2239 
L 369.635875 352.259611 
L 379.109525 352.259611 
L 388.583175 350.331033 
L 398.056825 347.438166 
L 407.530475 341.652432 
L 417.004125 333.93812 
L 426.477775 342.134576 
L 435.951425 340.205998 
L 445.425075 339.723854 
L 454.898725 334.420264 
L 464.372375 334.420264 
L 473.846025 328.152386 
L 483.319675 313.205906 
L 492.793325 312.241617 
L 502.266975 312.241617 
L 511.740625 319.473785 
L 521.214275 338.27742 
L 530.687925 339.723854 
L 540.161575 336.830987 
L 549.635225 329.598819 
L 559.108875 340.205998 
L 568.582525 348.402455 
L 578.056175 347.92031 
L 587.529825 351.777466 
L 597.003475 352.259611 
L 606.477125 352.259611 
L 615.950775 353.2239 
L 625.424425 353.2239 
L 634.898075 353.2239 
L 644.371725 353.2239 
L 653.845375 353.2239 
L 663.319025 353.2239 
L 672.792675 353.2239 
L 682.266325 353.2239 
L 691.739975 353.2239 
L 701.213625 353.2239 
L 710.687275 353.2239 
L 720.160925 353.2239 
L 729.634575 353.2239 
L 739.108225 353.2239 
L 748.581875 353.2239 
L 758.055525 353.2239 
L 767.529175 353.2239 
L 777.002825 353.2239 
L 786.476475 353.2239 
L 795.950125 353.2239 
L 805.423775 353.2239 
L 814.897425 353.2239 
L 824.371075 353.2239 
L 833.844725 353.2239 
L 843.318375 353.2239 
L 852.792025 353.2239 
L 862.265675 353.2239 
L 871.739325 353.2239 
L 881.212975 353.2239 
L 890.686625 353.2239 
L 900.160275 353.2239 
L 909.633925 353.2239 
L 919.107575 353.2239 
L 928.581225 353.2239 
L 938.054875 353.2239 
L 947.528525 353.2239 
L 957.002175 353.2239 
L 966.475825 353.2239 
L 975.949475 353.2239 
L 985.423125 353.2239 
" clip-path="url(#p5c0c7ccf4e)" style="fill: none; stroke: #d9534f; stroke-linecap: square"/>
   </g>
   <g id="line2d_15">
    <path d="M 38.058125 353.2239 
L 47.531775 353.2239 
L 57.005425 353.2239 
L 66.479075 353.2239 
L 75.952725 353.2239 
L 85.426375 353.2239 
L 94.900025 353.2239 
L 104.373675 353.2239 
L 113.847325 353.2239 
L 123.320975 353.2239 
L 132.794625 353.2239 
L 142.268275 353.2239 
L 151.741925 353.2239 
L 161.215575 353.2239 
L 170.689225 353.2239 
L 180.162875 353.2239 
L 189.636525 353.2239 
L 199.110175 353.2239 
L 208.583825 353.2239 
L 218.057475 353.2239 
L 227.531125 353.2239 
L 237.004775 350.157762 
L 246.478425 353.2239 
L 255.952075 353.2239 
L 265.425725 353.2239 
L 274.899375 353.2239 
L 284.373025 353.2239 
L 293.846675 353.2239 
L 303.320325 353.2239 
L 312.793975 353.2239 
L 322.267625 353.2239 
L 331.741275 353.2239 
L 341.214925 353.2239 
L 350.688575 353.2239 
L 360.162225 353.2239 
L 369.635875 353.2239 
L 379.109525 353.2239 
L 388.583175 353.2239 
L 398.056825 353.2239 
L 407.530475 353.2239 
L 417.004125 353.2239 
L 426.477775 353.2239 
L 435.951425 353.2239 
L 445.425075 350.157762 
L 454.898725 340.959349 
L 464.372375 339.42628 
L 473.846025 270.438182 
L 483.319675 264.305906 
L 492.793325 328.694798 
L 502.266975 337.893211 
L 511.740625 339.42628 
L 521.214275 327.161729 
L 530.687925 322.562523 
L 540.161575 337.893211 
L 549.635225 339.42628 
L 559.108875 336.360143 
L 568.582525 345.558556 
L 578.056175 353.2239 
L 587.529825 348.624693 
L 597.003475 348.624693 
L 606.477125 353.2239 
L 615.950775 350.157762 
L 625.424425 350.157762 
L 634.898075 353.2239 
L 644.371725 353.2239 
L 653.845375 348.624693 
L 663.319025 348.624693 
L 672.792675 353.2239 
L 682.266325 353.2239 
L 691.739975 353.2239 
L 701.213625 353.2239 
L 710.687275 353.2239 
L 720.160925 353.2239 
L 729.634575 353.2239 
L 739.108225 353.2239 
L 748.581875 353.2239 
L 758.055525 353.2239 
L 767.529175 353.2239 
L 777.002825 353.2239 
L 786.476475 353.2239 
L 795.950125 353.2239 
L 805.423775 353.2239 
L 814.897425 353.2239 
L 824.371075 353.2239 
L 833.844725 353.2239 
L 843.318375 353.2239 
L 852.792025 353.2239 
L 862.265675 353.2239 
L 871.739325 353.2239 
L 881.212975 353.2239 
L 890.686625 353.2239 
L 900.160275 353.2239 
L 909.633925 353.2239 
L 919.107575 353.2239 
L 928.581225 353.2239 
L 938.054875 353.2239 
L 947.528525 353.2239 
L 957.002175 353.2239 
L 966.475825 353.2239 
L 975.949475 353.2239 
L 985.423125 353.2239 
" clip-path="url(#p5c0c7ccf4e)" style="fill: none; stroke: #d9534f; stroke-linecap: square"/>
   </g>
   <g id="line2d_16">
    <path d="M 38.058125 353.2239 
L 47.531775 353.2239 
L 57.005425 353.2239 
L 66.479075 353.2239 
L 75.952725 353.2239 
L 85.426375 353.2239 
L 94.900025 353.2239 
L 104.373675 353.2239 
L 113.847325 353.2239 
L 123.320975 353.2239 
L 132.794625 353.2239 
L 142.268275 353.2239 
L 151.741925 353.2239 
L 161.215575 353.2239 
L 170.689225 353.2239 
L 180.162875 353.2239 
L 189.636525 353.2239 
L 199.110175 353.2239 
L 208.583825 353.2239 
L 218.057475 353.2239 
L 227.531125 353.2239 
L 237.004775 353.2239 
L 246.478425 353.2239 
L 255.952075 353.2239 
L 265.425725 353.2239 
L 274.899375 353.2239 
L 284.373025 353.2239 
L 293.846675 353.2239 
L 303.320325 353.2239 
L 312.793975 353.2239 
L 322.267625 353.2239 
L 331.741275 353.2239 
L 341.214925 353.2239 
L 350.688575 353.2239 
L 360.162225 353.2239 
L 369.635875 353.2239 
L 379.109525 353.2239 
L 388.583175 353.2239 
L 398.056825 353.2239 
L 407.530475 353.2239 
L 417.004125 334.535061 
L 426.477775 328.305447 
L 435.951425 353.2239 
L 445.425075 334.535061 
L 454.898725 253.55009 
L 464.372375 272.238929 
L 473.846025 343.87948 
L 483.319675 337.649867 
L 492.793325 353.2239 
L 502.266975 353.2239 
L 511.740625 334.535061 
L 521.214275 318.961028 
L 530.687925 343.87948 
L 540.161575 353.2239 
L 549.635225 353.2239 
L 559.108875 328.305447 
L 568.582525 334.535061 
L 578.056175 353.2239 
L 587.529825 340.764674 
L 597.003475 346.994287 
L 606.477125 353.2239 
L 615.950775 353.2239 
L 625.424425 353.2239 
L 634.898075 353.2239 
L 644.371725 353.2239 
L 653.845375 353.2239 
L 663.319025 353.2239 
L 672.792675 353.2239 
L 682.266325 353.2239 
L 691.739975 353.2239 
L 701.213625 353.2239 
L 710.687275 353.2239 
L 720.160925 353.2239 
L 729.634575 353.2239 
L 739.108225 353.2239 
L 748.581875 353.2239 
L 758.055525 353.2239 
L 767.529175 353.2239 
L 777.002825 353.2239 
L 786.476475 353.2239 
L 795.950125 353.2239 
L 805.423775 353.2239 
L 814.897425 353.2239 
L 824.371075 353.2239 
L 833.844725 353.2239 
L 843.318375 353.2239 
L 852.792025 353.2239 
L 862.265675 353.2239 
L 871.739325 353.2239 
L 881.212975 353.2239 
L 890.686625 353.2239 
L 900.160275 353.2239 
L 909.633925 353.2239 
L 919.107575 353.2239 
L 928.581225 353.2239 
L 938.054875 353.2239 
L 947.528525 353.2239 
L 957.002175 353.2239 
L 966.475825 353.2239 
L 975.949475 353.2239 
L 985.423125 353.2239 
" clip-path="url(#p5c0c7ccf4e)" style="fill: none; stroke: #d9534f; stroke-linecap: square"/>
   </g>
   <g id="line2d_17">
    <path d="M 38.058125 353.2239 
L 47.531775 353.2239 
L 57.005425 353.2239 
L 66.479075 353.2239 
L 75.952725 353.2239 
L 85.426375 353.2239 
L 94.900025 353.2239 
L 104.373675 353.2239 
L 113.847325 353.2239 
L 123.320975 353.2239 
L 132.794625 353.2239 
L 142.268275 353.2239 
L 151.741925 353.2239 
L 161.215575 353.2239 
L 170.689225 353.2239 
L 180.162875 353.2239 
L 189.636525 353.2239 
L 199.110175 353.2239 
L 208.583825 353.2239 
L 218.057475 353.2239 
L 227.531125 353.2239 
L 237.004775 353.2239 
L 246.478425 353.2239 
L 255.952075 353.2239 
L 265.425725 353.2239 
L 274.899375 353.2239 
L 284.373025 353.2239 
L 293.846675 353.2239 
L 303.320325 353.2239 
L 312.793975 353.2239 
L 322.267625 353.2239 
L 331.741275 353.2239 
L 341.214925 353.222771 
L 350.688575 353.222771 
L 360.162225 353.221868 
L 369.635875 353.220513 
L 379.109525 353.218255 
L 388.583175 353.210125 
L 398.056825 353.200867 
L 407.530475 353.177608 
L 417.004125 353.121381 
L 426.477775 352.989055 
L 435.951425 352.596592 
L 445.425075 349.933583 
L 454.898725 185.358806 
L 464.372375 182.319593 
L 473.846025 338.67682 
L 483.319675 343.392693 
L 492.793325 351.444722 
L 502.266975 345.745661 
L 511.740625 345.959054 
L 521.214275 352.601109 
L 530.687925 352.916795 
L 540.161575 352.896923 
L 549.635225 349.902647 
L 559.108875 349.831967 
L 568.582525 352.895568 
L 578.056175 353.136962 
L 587.529825 353.193415 
L 597.003475 353.212835 
L 606.477125 353.218029 
L 615.950775 353.222319 
L 625.424425 353.222319 
L 634.898075 353.223223 
L 644.371725 353.2239 
L 653.845375 353.223448 
L 663.319025 353.222997 
L 672.792675 353.223448 
L 682.266325 353.223448 
L 691.739975 353.222997 
L 701.213625 353.2239 
L 710.687275 353.2239 
L 720.160925 353.2239 
L 729.634575 353.223448 
L 739.108225 353.2239 
L 748.581875 353.223448 
L 758.055525 353.2239 
L 767.529175 353.2239 
L 777.002825 353.223448 
L 786.476475 353.223448 
L 795.950125 353.223448 
L 805.423775 353.2239 
L 814.897425 353.2239 
L 824.371075 353.223448 
L 833.844725 353.2239 
L 843.318375 353.2239 
L 852.792025 353.2239 
L 862.265675 353.2239 
L 871.739325 353.2239 
L 881.212975 353.2239 
L 890.686625 353.2239 
L 900.160275 353.2239 
L 909.633925 353.2239 
L 919.107575 353.2239 
L 928.581225 353.2239 
L 938.054875 353.2239 
L 947.528525 353.2239 
L 957.002175 353.222997 
L 966.475825 353.222997 
L 975.949475 353.2239 
L 985.423125 353.2239 
" clip-path="url(#p5c0c7ccf4e)" style="fill: none; stroke: #d9534f; stroke-linecap: square"/>
   </g>
   <g id="line2d_18">
    <path d="M 38.058125 353.2239 
L 47.531775 353.2239 
L 57.005425 353.2239 
L 66.479075 353.2239 
L 75.952725 353.2239 
L 85.426375 353.2239 
L 94.900025 353.2239 
L 104.373675 353.2239 
L 113.847325 353.2239 
L 123.320975 353.2239 
L 132.794625 353.2239 
L 142.268275 353.2239 
L 151.741925 353.2239 
L 161.215575 353.2239 
L 170.689225 353.2239 
L 180.162875 353.2239 
L 189.636525 353.2239 
L 199.110175 353.2239 
L 208.583825 353.2239 
L 218.057475 353.2239 
L 227.531125 353.2239 
L 237.004775 353.2239 
L 246.478425 353.2239 
L 255.952075 353.2239 
L 265.425725 353.2239 
L 274.899375 353.2239 
L 284.373025 353.2239 
L 293.846675 353.2239 
L 303.320325 353.2239 
L 312.793975 353.2239 
L 322.267625 353.2239 
L 331.741275 353.2239 
L 341.214925 353.222171 
L 350.688575 353.222171 
L 360.162225 353.222747 
L 369.635875 353.222459 
L 379.109525 353.219578 
L 388.583175 353.21929 
L 398.056825 353.212662 
L 407.530475 353.196813 
L 417.004125 353.166557 
L 426.477775 353.139758 
L 435.951425 353.079246 
L 445.425075 352.988477 
L 454.898725 352.742391 
L 464.372375 352.583041 
L 473.846025 352.481322 
L 483.319675 351.765542 
L 492.793325 330.071428 
L 502.266975 225.374258 
L 511.740625 239.970513 
L 521.214275 342.57423 
L 530.687925 346.111057 
L 540.161575 342.937882 
L 549.635225 323.324543 
L 559.108875 322.302165 
L 568.582525 341.516697 
L 578.056175 345.578832 
L 587.529825 348.263294 
L 597.003475 350.023351 
L 606.477125 351.080307 
L 615.950775 351.712522 
L 625.424425 352.077903 
L 634.898075 352.343007 
L 644.371725 352.536072 
L 653.845375 352.719051 
L 663.319025 352.870333 
L 672.792675 352.981273 
L 682.266325 353.041497 
L 691.739975 353.103451 
L 701.213625 353.151573 
L 710.687275 353.188169 
L 720.160925 353.204882 
L 729.634575 353.214103 
L 739.108225 353.217561 
L 748.581875 353.21929 
L 758.055525 353.222171 
L 767.529175 353.222171 
L 777.002825 353.222747 
L 786.476475 353.223324 
L 795.950125 353.2239 
L 805.423775 353.2239 
L 814.897425 353.2239 
L 824.371075 353.223324 
L 833.844725 353.223324 
L 843.318375 353.2239 
L 852.792025 353.2239 
L 862.265675 353.2239 
L 871.739325 353.223324 
L 881.212975 353.2239 
L 890.686625 353.2239 
L 900.160275 353.2239 
L 909.633925 353.2239 
L 919.107575 353.223324 
L 928.581225 353.2239 
L 938.054875 353.2239 
L 947.528525 353.2239 
L 957.002175 353.2239 
L 966.475825 353.2239 
L 975.949475 353.2239 
L 985.423125 353.2239 
" clip-path="url(#p5c0c7ccf4e)" style="fill: none; stroke: #d9534f; stroke-linecap: square"/>
   </g>
   <g id="line2d_19">
    <path d="M 38.058125 353.2239 
L 47.531775 353.2239 
L 57.005425 353.2239 
L 66.479075 353.2239 
L 75.952725 353.2239 
L 85.426375 353.2239 
L 94.900025 353.2239 
L 104.373675 353.2239 
L 113.847325 353.2239 
L 123.320975 353.2239 
L 132.794625 353.2239 
L 142.268275 353.2239 
L 151.741925 353.2239 
L 161.215575 353.2239 
L 170.689225 353.2239 
L 180.162875 353.2239 
L 189.636525 353.2239 
L 199.110175 353.2239 
L 208.583825 353.2239 
L 218.057475 353.2239 
L 227.531125 353.2239 
L 237.004775 353.2239 
L 246.478425 353.2239 
L 255.952075 353.2239 
L 265.425725 353.2239 
L 274.899375 353.2239 
L 284.373025 353.223379 
L 293.846675 353.223379 
L 303.320325 353.2239 
L 312.793975 353.2239 
L 322.267625 353.223379 
L 331.741275 353.221816 
L 341.214925 353.220948 
L 350.688575 353.21869 
L 360.162225 353.21296 
L 369.635875 353.203409 
L 379.109525 353.176667 
L 388.583175 353.100782 
L 398.056825 352.546316 
L 407.530475 319.108882 
L 417.004125 317.04713 
L 426.477775 350.001642 
L 435.951425 352.185644 
L 445.425075 347.958992 
L 454.898725 347.111925 
L 464.372375 350.7631 
L 473.846025 335.596296 
L 483.319675 298.749062 
L 492.793325 305.274324 
L 502.266975 318.987674 
L 511.740625 307.705083 
L 521.214275 328.560501 
L 530.687925 348.021854 
L 540.161575 338.621287 
L 549.635225 325.907817 
L 559.108875 337.265945 
L 568.582525 349.461763 
L 578.056175 350.523115 
L 587.529825 352.625327 
L 597.003475 352.094825 
L 606.477125 349.837195 
L 615.950775 350.280525 
L 625.424425 352.57792 
L 634.898075 352.966029 
L 644.371725 353.113458 
L 653.845375 353.176841 
L 663.319025 353.1982 
L 672.792675 353.213828 
L 682.266325 353.219211 
L 691.739975 353.220427 
L 701.213625 353.223032 
L 710.687275 353.22199 
L 720.160925 353.222858 
L 729.634575 353.2239 
L 739.108225 353.2239 
L 748.581875 353.2239 
L 758.055525 353.2239 
L 767.529175 353.2239 
L 777.002825 353.2239 
L 786.476475 353.223553 
L 795.950125 353.223205 
L 805.423775 353.2239 
L 814.897425 353.223553 
L 824.371075 353.223553 
L 833.844725 353.223553 
L 843.318375 353.2239 
L 852.792025 353.223553 
L 862.265675 353.223205 
L 871.739325 353.2239 
L 881.212975 353.223553 
L 890.686625 353.2239 
L 900.160275 353.2239 
L 909.633925 353.2239 
L 919.107575 353.2239 
L 928.581225 353.223205 
L 938.054875 353.223205 
L 947.528525 353.2239 
L 957.002175 353.223553 
L 966.475825 353.223553 
L 975.949475 353.2239 
L 985.423125 353.2239 
" clip-path="url(#p5c0c7ccf4e)" style="fill: none; stroke: #d9534f; stroke-linecap: square"/>
   </g>
   <g id="line2d_20">
    <path d="M 38.058125 353.2239 
L 47.531775 353.2239 
L 57.005425 353.2239 
L 66.479075 353.2239 
L 75.952725 353.2239 
L 85.426375 353.2239 
L 94.900025 353.2239 
L 104.373675 353.2239 
L 113.847325 353.2239 
L 123.320975 353.2239 
L 132.794625 353.2239 
L 142.268275 353.2239 
L 151.741925 353.2239 
L 161.215575 353.2239 
L 170.689225 353.2239 
L 180.162875 353.2239 
L 189.636525 353.2239 
L 199.110175 353.2239 
L 208.583825 353.2239 
L 218.057475 353.2239 
L 227.531125 353.2239 
L 237.004775 353.2239 
L 246.478425 353.2239 
L 255.952075 353.2239 
L 265.425725 353.2239 
L 274.899375 353.2239 
L 284.373025 353.2239 
L 293.846675 353.2239 
L 303.320325 353.2239 
L 312.793975 353.2239 
L 322.267625 353.2239 
L 331.741275 353.2239 
L 341.214925 353.222558 
L 350.688575 353.223229 
L 360.162225 353.222222 
L 369.635875 353.217524 
L 379.109525 353.206113 
L 388.583175 353.19034 
L 398.056825 353.099391 
L 407.530475 347.040728 
L 417.004125 346.607799 
L 426.477775 352.27951 
L 435.951425 341.101205 
L 445.425075 336.769561 
L 454.898725 325.526485 
L 464.372375 328.493226 
L 473.846025 335.741941 
L 483.319675 332.186215 
L 492.793325 327.758588 
L 502.266975 306.079228 
L 511.740625 292.221459 
L 521.214275 315.065702 
L 530.687925 346.03895 
L 540.161575 344.608604 
L 549.635225 320.252129 
L 559.108875 322.824535 
L 568.582525 349.047641 
L 578.056175 351.607295 
L 587.529825 352.467448 
L 597.003475 352.894337 
L 606.477125 353.022202 
L 615.950775 352.996696 
L 625.424425 352.978573 
L 634.898075 353.035962 
L 644.371725 353.086973 
L 653.845375 353.136643 
L 663.319025 353.174231 
L 672.792675 353.195038 
L 682.266325 353.210811 
L 691.739975 353.221215 
L 701.213625 353.220208 
L 710.687275 353.221215 
L 720.160925 353.223229 
L 729.634575 353.2239 
L 739.108225 353.2239 
L 748.581875 353.2239 
L 758.055525 353.2239 
L 767.529175 353.2239 
L 777.002825 353.2239 
L 786.476475 353.2239 
L 795.950125 353.223229 
L 805.423775 353.2239 
L 814.897425 353.2239 
L 824.371075 353.2239 
L 833.844725 353.2239 
L 843.318375 353.2239 
L 852.792025 353.2239 
L 862.265675 353.222558 
L 871.739325 353.223229 
L 881.212975 353.2239 
L 890.686625 353.2239 
L 900.160275 353.2239 
L 909.633925 353.2239 
L 919.107575 353.2239 
L 928.581225 353.2239 
L 938.054875 353.2239 
L 947.528525 353.2239 
L 957.002175 353.2239 
L 966.475825 353.2239 
L 975.949475 353.2239 
L 985.423125 353.2239 
" clip-path="url(#p5c0c7ccf4e)" style="fill: none; stroke: #d9534f; stroke-linecap: square"/>
   </g>
   <g id="line2d_21">
    <path d="M 38.058125 353.2239 
L 47.531775 353.2239 
L 57.005425 353.2239 
L 66.479075 353.2239 
L 75.952725 353.2239 
L 85.426375 353.2239 
L 94.900025 353.2239 
L 104.373675 353.2239 
L 113.847325 353.2239 
L 123.320975 353.2239 
L 132.794625 353.2239 
L 142.268275 353.2239 
L 151.741925 353.2239 
L 161.215575 353.2239 
L 170.689225 353.2239 
L 180.162875 353.2239 
L 189.636525 353.2239 
L 199.110175 353.2239 
L 208.583825 353.2239 
L 218.057475 353.2239 
L 227.531125 353.223105 
L 237.004775 353.2239 
L 246.478425 353.2239 
L 255.952075 353.2239 
L 265.425725 353.2239 
L 274.899375 353.2239 
L 284.373025 353.2239 
L 293.846675 353.2239 
L 303.320325 353.2239 
L 312.793975 353.223105 
L 322.267625 353.222708 
L 331.741275 353.221913 
L 341.214925 353.223105 
L 350.688575 353.2239 
L 360.162225 353.218337 
L 369.635875 353.206415 
L 379.109525 353.196083 
L 388.583175 353.178598 
L 398.056825 353.117399 
L 407.530475 352.740674 
L 417.004125 331.760862 
L 426.477775 329.734967 
L 435.951425 350.055111 
L 445.425075 350.760081 
L 454.898725 254.150578 
L 464.372375 252.604333 
L 473.846025 334.769104 
L 483.319675 336.820829 
L 492.793325 346.939971 
L 502.266975 319.621787 
L 511.740625 314.968349 
L 521.214275 342.287725 
L 530.687925 351.345834 
L 540.161575 351.55049 
L 549.635225 350.468795 
L 559.108875 349.491612 
L 568.582525 349.84211 
L 578.056175 351.014411 
L 587.529825 352.042857 
L 597.003475 352.747429 
L 606.477125 353.055009 
L 615.950775 353.162305 
L 625.424425 353.20403 
L 634.898075 353.212773 
L 644.371725 353.218337 
L 653.845375 353.22231 
L 663.319025 353.2239 
L 672.792675 353.223105 
L 682.266325 353.2239 
L 691.739975 353.2239 
L 701.213625 353.2239 
L 710.687275 353.2239 
L 720.160925 353.2239 
L 729.634575 353.2239 
L 739.108225 353.2239 
L 748.581875 353.2239 
L 758.055525 353.2239 
L 767.529175 353.2239 
L 777.002825 353.2239 
L 786.476475 353.223105 
L 795.950125 353.2239 
L 805.423775 353.2239 
L 814.897425 353.2239 
L 824.371075 353.2239 
L 833.844725 353.223105 
L 843.318375 353.2239 
L 852.792025 353.2239 
L 862.265675 353.2239 
L 871.739325 353.223105 
L 881.212975 353.2239 
L 890.686625 353.2239 
L 900.160275 353.2239 
L 909.633925 353.2239 
L 919.107575 353.223105 
L 928.581225 353.223105 
L 938.054875 353.2239 
L 947.528525 353.2239 
L 957.002175 353.2239 
L 966.475825 353.2239 
L 975.949475 353.2239 
L 985.423125 353.2239 
" clip-path="url(#p5c0c7ccf4e)" style="fill: none; stroke: #d9534f; stroke-linecap: square"/>
   </g>
   <g id="line2d_22">
    <path d="M 38.058125 353.2239 
L 47.531775 353.2239 
L 57.005425 353.2239 
L 66.479075 353.2239 
L 75.952725 353.2239 
L 85.426375 353.2239 
L 94.900025 353.2239 
L 104.373675 353.2239 
L 113.847325 353.2239 
L 123.320975 353.2239 
L 132.794625 353.2239 
L 142.268275 353.2239 
L 151.741925 353.2239 
L 161.215575 353.2239 
L 170.689225 353.2239 
L 180.162875 353.2239 
L 189.636525 353.2239 
L 199.110175 353.2239 
L 208.583825 353.2239 
L 218.057475 353.2239 
L 227.531125 353.2239 
L 237.004775 353.2239 
L 246.478425 353.2239 
L 255.952075 353.2239 
L 265.425725 353.2239 
L 274.899375 353.2239 
L 284.373025 353.2239 
L 293.846675 353.223314 
L 303.320325 353.223314 
L 312.793975 353.2239 
L 322.267625 353.22302 
L 331.741275 353.22302 
L 341.214925 353.2239 
L 350.688575 353.222141 
L 360.162225 353.220381 
L 369.635875 353.221261 
L 379.109525 353.22302 
L 388.583175 353.217449 
L 398.056825 353.218035 
L 407.530475 353.199269 
L 417.004125 352.982575 
L 426.477775 337.306387 
L 435.951425 336.095068 
L 445.425075 350.509501 
L 454.898725 347.82941 
L 464.372375 348.633144 
L 473.846025 352.524555 
L 483.319675 352.35507 
L 492.793325 324.793822 
L 502.266975 233.417668 
L 511.740625 253.787534 
L 521.214275 343.950315 
L 530.687925 349.209921 
L 540.161575 344.328871 
L 549.635225 326.971616 
L 559.108875 327.80262 
L 568.582525 343.252143 
L 578.056175 346.623369 
L 587.529825 349.547132 
L 597.003475 351.41176 
L 606.477125 352.440985 
L 615.950775 352.928328 
L 625.424425 353.119805 
L 634.898075 353.180502 
L 644.371725 353.204254 
L 653.845375 353.21569 
L 663.319025 353.219795 
L 672.792675 353.220968 
L 682.266325 353.220381 
L 691.739975 353.222141 
L 701.213625 353.223314 
L 710.687275 353.2239 
L 720.160925 353.222727 
L 729.634575 353.223314 
L 739.108225 353.2239 
L 748.581875 353.223314 
L 758.055525 353.2239 
L 767.529175 353.2239 
L 777.002825 353.2239 
L 786.476475 353.2239 
L 795.950125 353.222727 
L 805.423775 353.222727 
L 814.897425 353.2239 
L 824.371075 353.2239 
L 833.844725 353.2239 
L 843.318375 353.2239 
L 852.792025 353.2239 
L 862.265675 353.2239 
L 871.739325 353.2239 
L 881.212975 353.2239 
L 890.686625 353.2239 
L 900.160275 353.2239 
L 909.633925 353.2239 
L 919.107575 353.2239 
L 928.581225 353.2239 
L 938.054875 353.2239 
L 947.528525 353.2239 
L 957.002175 353.2239 
L 966.475825 353.2239 
L 975.949475 353.2239 
L 985.423125 353.2239 
" clip-path="url(#p5c0c7ccf4e)" style="fill: none; stroke: #d9534f; stroke-linecap: square"/>
   </g>
   <g id="line2d_23">
    <path d="M 38.058125 353.2239 
L 47.531775 353.2239 
L 57.005425 353.2239 
L 66.479075 353.2239 
L 75.952725 353.2239 
L 85.426375 353.2239 
L 94.900025 353.2239 
L 104.373675 353.2239 
L 113.847325 353.2239 
L 123.320975 353.2239 
L 132.794625 353.2239 
L 142.268275 353.2239 
L 151.741925 353.2239 
L 161.215575 353.2239 
L 170.689225 353.2239 
L 180.162875 353.2239 
L 189.636525 353.2239 
L 199.110175 353.2239 
L 208.583825 353.2239 
L 218.057475 353.2239 
L 227.531125 353.2239 
L 237.004775 353.2239 
L 246.478425 353.2239 
L 255.952075 353.2239 
L 265.425725 353.2239 
L 274.899375 353.2239 
L 284.373025 353.2239 
L 293.846675 353.2239 
L 303.320325 353.223062 
L 312.793975 353.223062 
L 322.267625 353.2239 
L 331.741275 353.2239 
L 341.214925 353.223341 
L 350.688575 353.2239 
L 360.162225 353.221945 
L 369.635875 353.220828 
L 379.109525 353.219432 
L 388.583175 353.212171 
L 398.056825 353.191784 
L 407.530475 353.134812 
L 417.004125 353.040418 
L 426.477775 352.495277 
L 435.951425 350.673579 
L 445.425075 312.596388 
L 454.898725 194.661098 
L 464.372375 225.370789 
L 473.846025 338.762588 
L 483.319675 342.629122 
L 492.793325 346.370263 
L 502.266975 345.173578 
L 511.740625 347.437364 
L 521.214275 352.440819 
L 530.687925 352.662841 
L 540.161575 352.679318 
L 549.635225 350.840585 
L 559.108875 350.791991 
L 568.582525 352.700822 
L 578.056175 349.420761 
L 587.529825 349.282521 
L 597.003475 352.582969 
L 606.477125 352.871737 
L 615.950775 353.155757 
L 625.424425 353.204072 
L 634.898075 353.216918 
L 644.371725 353.221666 
L 653.845375 353.223341 
L 663.319025 353.222783 
L 672.792675 353.223341 
L 682.266325 353.222783 
L 691.739975 353.2239 
L 701.213625 353.2239 
L 710.687275 353.223341 
L 720.160925 353.223341 
L 729.634575 353.2239 
L 739.108225 353.2239 
L 748.581875 353.2239 
L 758.055525 353.2239 
L 767.529175 353.2239 
L 777.002825 353.2239 
L 786.476475 353.223341 
L 795.950125 353.223341 
L 805.423775 353.2239 
L 814.897425 353.2239 
L 824.371075 353.2239 
L 833.844725 353.2239 
L 843.318375 353.2239 
L 852.792025 353.2239 
L 862.265675 353.2239 
L 871.739325 353.2239 
L 881.212975 353.223341 
L 890.686625 353.223341 
L 900.160275 353.2239 
L 909.633925 353.2239 
L 919.107575 353.2239 
L 928.581225 353.2239 
L 938.054875 353.2239 
L 947.528525 353.2239 
L 957.002175 353.2239 
L 966.475825 353.2239 
L 975.949475 353.2239 
L 985.423125 353.2239 
" clip-path="url(#p5c0c7ccf4e)" style="fill: none; stroke: #d9534f; stroke-linecap: square"/>
   </g>
   <g id="line2d_24">
    <path d="M 38.058125 353.2239 
L 47.531775 353.2239 
L 57.005425 353.2239 
L 66.479075 353.2239 
L 75.952725 353.2239 
L 85.426375 353.2239 
L 94.900025 353.2239 
L 104.373675 353.2239 
L 113.847325 353.2239 
L 123.320975 353.2239 
L 132.794625 353.2239 
L 142.268275 353.2239 
L 151.741925 353.2239 
L 161.215575 353.2239 
L 170.689225 353.2239 
L 180.162875 353.2239 
L 189.636525 353.2239 
L 199.110175 353.2239 
L 208.583825 353.2239 
L 218.057475 353.2239 
L 227.531125 353.2239 
L 237.004775 353.2239 
L 246.478425 353.2239 
L 255.952075 353.2239 
L 265.425725 353.2239 
L 274.899375 353.2239 
L 284.373025 353.2239 
L 293.846675 353.2239 
L 303.320325 353.2239 
L 312.793975 353.2239 
L 322.267625 353.2239 
L 331.741275 353.2239 
L 341.214925 353.2239 
L 350.688575 353.2239 
L 360.162225 353.2239 
L 369.635875 353.221527 
L 379.109525 353.221527 
L 388.583175 353.218679 
L 398.056825 353.206813 
L 407.530475 353.188776 
L 417.004125 353.167892 
L 426.477775 353.079132 
L 435.951425 352.869338 
L 445.425075 351.417389 
L 454.898725 264.328956 
L 464.372375 247.313297 
L 473.846025 333.230773 
L 483.319675 351.270248 
L 492.793325 352.15879 
L 502.266975 348.555261 
L 511.740625 348.457958 
L 521.214275 352.07098 
L 530.687925 351.688413 
L 540.161575 350.228396 
L 549.635225 324.600721 
L 559.108875 317.986025 
L 568.582525 317.075176 
L 578.056175 315.134814 
L 587.529825 339.781866 
L 597.003475 349.512152 
L 606.477125 352.088542 
L 615.950775 352.816177 
L 625.424425 353.061096 
L 634.898075 353.145108 
L 644.371725 353.18308 
L 653.845375 353.212508 
L 663.319025 353.219154 
L 672.792675 353.219628 
L 682.266325 353.222476 
L 691.739975 353.222951 
L 701.213625 353.222001 
L 710.687275 353.2239 
L 720.160925 353.222951 
L 729.634575 353.2239 
L 739.108225 353.2239 
L 748.581875 353.2239 
L 758.055525 353.2239 
L 767.529175 353.2239 
L 777.002825 353.2239 
L 786.476475 353.222951 
L 795.950125 353.2239 
L 805.423775 353.2239 
L 814.897425 353.222951 
L 824.371075 353.2239 
L 833.844725 353.2239 
L 843.318375 353.2239 
L 852.792025 353.2239 
L 862.265675 353.2239 
L 871.739325 353.2239 
L 881.212975 353.2239 
L 890.686625 353.2239 
L 900.160275 353.2239 
L 909.633925 353.2239 
L 919.107575 353.2239 
L 928.581225 353.2239 
L 938.054875 353.2239 
L 947.528525 353.2239 
L 957.002175 353.2239 
L 966.475825 353.2239 
L 975.949475 353.2239 
L 985.423125 353.2239 
" clip-path="url(#p5c0c7ccf4e)" style="fill: none; stroke: #d9534f; stroke-linecap: square"/>
   </g>
   <g id="line2d_25">
    <path d="M 38.058125 353.2239 
L 47.531775 353.2239 
L 57.005425 353.2239 
L 66.479075 353.2239 
L 75.952725 353.2239 
L 85.426375 353.2239 
L 94.900025 353.2239 
L 104.373675 353.2239 
L 113.847325 353.2239 
L 123.320975 353.2239 
L 132.794625 353.2239 
L 142.268275 353.2239 
L 151.741925 353.2239 
L 161.215575 353.2239 
L 170.689225 353.2239 
L 180.162875 353.2239 
L 189.636525 353.2239 
L 199.110175 353.2239 
L 208.583825 353.2239 
L 218.057475 353.2239 
L 227.531125 353.2239 
L 237.004775 353.2239 
L 246.478425 353.2239 
L 255.952075 353.2239 
L 265.425725 353.2239 
L 274.899375 353.2239 
L 284.373025 353.2239 
L 293.846675 353.2239 
L 303.320325 353.2239 
L 312.793975 353.2239 
L 322.267625 353.2239 
L 331.741275 353.2239 
L 341.214925 353.2239 
L 350.688575 353.22343 
L 360.162225 353.22296 
L 369.635875 353.22343 
L 379.109525 353.217084 
L 388.583175 353.217789 
L 398.056825 353.209563 
L 407.530475 353.193347 
L 417.004125 353.145871 
L 426.477775 352.854909 
L 435.951425 352.466645 
L 445.425075 343.880197 
L 454.898725 277.299611 
L 464.372375 280.554255 
L 473.846025 337.184769 
L 483.319675 336.331154 
L 492.793325 284.016897 
L 502.266975 281.295293 
L 511.740625 342.277083 
L 521.214275 334.566341 
L 530.687925 334.832626 
L 540.161575 351.112659 
L 549.635225 350.170909 
L 559.108875 349.383101 
L 568.582525 351.533121 
L 578.056175 352.885462 
L 587.529825 353.122369 
L 597.003475 353.187706 
L 606.477125 353.213089 
L 615.950775 353.219905 
L 625.424425 353.22296 
L 634.898075 353.22202 
L 644.371725 353.222255 
L 653.845375 353.223195 
L 663.319025 353.2239 
L 672.792675 353.2239 
L 682.266325 353.2239 
L 691.739975 353.22296 
L 701.213625 353.22249 
L 710.687275 353.2239 
L 720.160925 353.22343 
L 729.634575 353.2239 
L 739.108225 353.2239 
L 748.581875 353.22296 
L 758.055525 353.22296 
L 767.529175 353.22343 
L 777.002825 353.22296 
L 786.476475 353.22343 
L 795.950125 353.2239 
L 805.423775 353.2239 
L 814.897425 353.2239 
L 824.371075 353.2239 
L 833.844725 353.2239 
L 843.318375 353.2239 
L 852.792025 353.2239 
L 862.265675 353.2239 
L 871.739325 353.2239 
L 881.212975 353.22343 
L 890.686625 353.22343 
L 900.160275 353.2239 
L 909.633925 353.2239 
L 919.107575 353.2239 
L 928.581225 353.22343 
L 938.054875 353.22343 
L 947.528525 353.22343 
L 957.002175 353.2239 
L 966.475825 353.2239 
L 975.949475 353.2239 
L 985.423125 353.2239 
" clip-path="url(#p5c0c7ccf4e)" style="fill: none; stroke: #d9534f; stroke-linecap: square"/>
   </g>
   <g id="line2d_26">
    <path d="M 38.058125 353.2239 
L 47.531775 353.2239 
L 57.005425 353.2239 
L 66.479075 353.2239 
L 75.952725 353.2239 
L 85.426375 353.2239 
L 94.900025 353.2239 
L 104.373675 353.2239 
L 113.847325 353.2239 
L 123.320975 353.2239 
L 132.794625 353.2239 
L 142.268275 353.2239 
L 151.741925 353.2239 
L 161.215575 353.2239 
L 170.689225 353.2239 
L 180.162875 353.2239 
L 189.636525 353.2239 
L 199.110175 353.2239 
L 208.583825 353.2239 
L 218.057475 353.2239 
L 227.531125 353.2239 
L 237.004775 353.2239 
L 246.478425 353.2239 
L 255.952075 353.2239 
L 265.425725 353.2239 
L 274.899375 353.2232 
L 284.373025 353.2239 
L 293.846675 353.2239 
L 303.320325 353.2239 
L 312.793975 353.2239 
L 322.267625 353.222849 
L 331.741275 353.222149 
L 341.214925 353.2232 
L 350.688575 353.2232 
L 360.162225 353.220748 
L 369.635875 353.221099 
L 379.109525 353.216196 
L 388.583175 353.20569 
L 398.056825 353.189582 
L 407.530475 353.162267 
L 417.004125 353.036551 
L 426.477775 351.074461 
L 435.951425 341.504938 
L 445.425075 341.505989 
L 454.898725 334.871022 
L 464.372375 334.717991 
L 473.846025 329.393419 
L 483.319675 322.617327 
L 492.793325 335.43342 
L 502.266975 310.836032 
L 511.740625 312.822285 
L 521.214275 340.874954 
L 530.687925 343.380883 
L 540.161575 342.751249 
L 549.635225 322.104305 
L 559.108875 322.078041 
L 568.582525 344.0746 
L 578.056175 348.56363 
L 587.529825 350.647935 
L 597.003475 350.984113 
L 606.477125 347.964112 
L 615.950775 341.946522 
L 625.424425 339.13173 
L 634.898075 341.82956 
L 644.371725 345.417912 
L 653.845375 348.106287 
L 663.319025 350.194444 
L 672.792675 351.54546 
L 682.266325 352.398513 
L 691.739975 352.848151 
L 701.213625 353.064916 
L 710.687275 353.160166 
L 720.160925 353.199387 
L 729.634575 353.215496 
L 739.108225 353.218997 
L 748.581875 353.221799 
L 758.055525 353.221099 
L 767.529175 353.2232 
L 777.002825 353.2239 
L 786.476475 353.2239 
L 795.950125 353.2232 
L 805.423775 353.2239 
L 814.897425 353.2232 
L 824.371075 353.2239 
L 833.844725 353.222499 
L 843.318375 353.2232 
L 852.792025 353.2239 
L 862.265675 353.2232 
L 871.739325 353.2239 
L 881.212975 353.2239 
L 890.686625 353.2232 
L 900.160275 353.2239 
L 909.633925 353.2239 
L 919.107575 353.2239 
L 928.581225 353.2239 
L 938.054875 353.2239 
L 947.528525 353.2232 
L 957.002175 353.2239 
L 966.475825 353.2239 
L 975.949475 353.2239 
L 985.423125 353.2239 
" clip-path="url(#p5c0c7ccf4e)" style="fill: none; stroke: #d9534f; stroke-linecap: square"/>
   </g>
   <g id="line2d_27">
    <path d="M 38.058125 353.2239 
L 47.531775 353.2239 
L 57.005425 353.2239 
L 66.479075 353.2239 
L 75.952725 353.2239 
L 85.426375 353.2239 
L 94.900025 353.2239 
L 104.373675 353.2239 
L 113.847325 353.2239 
L 123.320975 353.2239 
L 132.794625 353.2239 
L 142.268275 353.2239 
L 151.741925 353.2239 
L 161.215575 353.2239 
L 170.689225 353.2239 
L 180.162875 353.2239 
L 189.636525 353.2239 
L 199.110175 353.2239 
L 208.583825 353.2239 
L 218.057475 353.2239 
L 227.531125 353.2239 
L 237.004775 353.2239 
L 246.478425 353.2239 
L 255.952075 353.2239 
L 265.425725 353.2239 
L 274.899375 353.2239 
L 284.373025 353.2239 
L 293.846675 353.2239 
L 303.320325 353.2239 
L 312.793975 353.2239 
L 322.267625 353.2239 
L 331.741275 353.22329 
L 341.214925 353.2239 
L 350.688575 353.2239 
L 360.162225 353.221154 
L 369.635875 353.219017 
L 379.109525 353.210778 
L 388.583175 353.180262 
L 398.056825 353.012423 
L 407.530475 344.999177 
L 417.004125 339.719877 
L 426.477775 347.222282 
L 435.951425 352.429869 
L 445.425075 352.636463 
L 454.898725 348.343141 
L 464.372375 347.202141 
L 473.846025 319.17699 
L 483.319675 315.201036 
L 492.793325 338.821786 
L 502.266975 336.12507 
L 511.740625 340.107127 
L 521.214275 338.978639 
L 530.687925 335.198294 
L 540.161575 302.471209 
L 549.635225 268.64127 
L 559.108875 307.059318 
L 568.582525 342.479456 
L 578.056175 344.805094 
L 587.529825 351.682833 
L 597.003475 352.657214 
L 606.477125 353.004489 
L 615.950775 353.116483 
L 625.424425 353.168971 
L 634.898075 353.197656 
L 644.371725 353.212914 
L 653.845375 353.216881 
L 663.319025 353.217797 
L 672.792675 353.219017 
L 682.266325 353.22329 
L 691.739975 353.222679 
L 701.213625 353.22329 
L 710.687275 353.22329 
L 720.160925 353.222679 
L 729.634575 353.221459 
L 739.108225 353.2239 
L 748.581875 353.2239 
L 758.055525 353.2239 
L 767.529175 353.2239 
L 777.002825 353.2239 
L 786.476475 353.22329 
L 795.950125 353.2239 
L 805.423775 353.2239 
L 814.897425 353.2239 
L 824.371075 353.2239 
L 833.844725 353.22329 
L 843.318375 353.2239 
L 852.792025 353.2239 
L 862.265675 353.2239 
L 871.739325 353.2239 
L 881.212975 353.2239 
L 890.686625 353.2239 
L 900.160275 353.2239 
L 909.633925 353.22329 
L 919.107575 353.2239 
L 928.581225 353.2239 
L 938.054875 353.2239 
L 947.528525 353.2239 
L 957.002175 353.2239 
L 966.475825 353.2239 
L 975.949475 353.2239 
L 985.423125 353.2239 
" clip-path="url(#p5c0c7ccf4e)" style="fill: none; stroke: #d9534f; stroke-linecap: square"/>
   </g>
   <g id="line2d_28">
    <path d="M 38.058125 353.2239 
L 47.531775 353.2239 
L 57.005425 353.2239 
L 66.479075 353.2239 
L 75.952725 353.2239 
L 85.426375 353.2239 
L 94.900025 353.2239 
L 104.373675 353.2239 
L 113.847325 353.2239 
L 123.320975 353.2239 
L 132.794625 353.2239 
L 142.268275 353.2239 
L 151.741925 353.2239 
L 161.215575 353.2239 
L 170.689225 353.2239 
L 180.162875 353.2239 
L 189.636525 353.2239 
L 199.110175 353.2239 
L 208.583825 353.2239 
L 218.057475 353.2239 
L 227.531125 353.2239 
L 237.004775 353.2239 
L 246.478425 353.2239 
L 255.952075 353.2239 
L 265.425725 353.2239 
L 274.899375 353.2239 
L 284.373025 353.2239 
L 293.846675 353.2239 
L 303.320325 353.2239 
L 312.793975 353.2239 
L 322.267625 353.2239 
L 331.741275 353.2239 
L 341.214925 353.2239 
L 350.688575 353.222508 
L 360.162225 353.220653 
L 369.635875 353.218334 
L 379.109525 353.220653 
L 388.583175 353.202563 
L 398.056825 353.166848 
L 407.530475 353.056919 
L 417.004125 347.147169 
L 426.477775 346.350297 
L 435.951425 351.653347 
L 445.425075 341.482326 
L 454.898725 208.1514 
L 464.372375 213.523098 
L 473.846025 346.42683 
L 483.319675 351.693701 
L 492.793325 352.282311 
L 502.266975 343.226817 
L 511.740625 343.032006 
L 521.214275 352.10698 
L 530.687925 345.410563 
L 540.161575 344.652189 
L 549.635225 337.205747 
L 559.108875 337.171423 
L 568.582525 351.707152 
L 578.056175 352.879269 
L 587.529825 353.089851 
L 597.003475 353.163137 
L 606.477125 353.189112 
L 615.950775 353.201636 
L 625.424425 353.210913 
L 634.898075 353.216942 
L 644.371725 353.220653 
L 653.845375 353.221581 
L 663.319025 353.2239 
L 672.792675 353.2239 
L 682.266325 353.222972 
L 691.739975 353.2239 
L 701.213625 353.2239 
L 710.687275 353.2239 
L 720.160925 353.2239 
L 729.634575 353.2239 
L 739.108225 353.2239 
L 748.581875 353.2239 
L 758.055525 353.2239 
L 767.529175 353.2239 
L 777.002825 353.2239 
L 786.476475 353.2239 
L 795.950125 353.2239 
L 805.423775 353.2239 
L 814.897425 353.2239 
L 824.371075 353.2239 
L 833.844725 353.2239 
L 843.318375 353.2239 
L 852.792025 353.222972 
L 862.265675 353.2239 
L 871.739325 353.2239 
L 881.212975 353.2239 
L 890.686625 353.2239 
L 900.160275 353.2239 
L 909.633925 353.2239 
L 919.107575 353.2239 
L 928.581225 353.2239 
L 938.054875 353.2239 
L 947.528525 353.2239 
L 957.002175 353.2239 
L 966.475825 353.2239 
L 975.949475 353.2239 
L 985.423125 353.2239 
" clip-path="url(#p5c0c7ccf4e)" style="fill: none; stroke: #d9534f; stroke-linecap: square"/>
   </g>
   <g id="line2d_29">
    <path d="M 38.058125 353.2239 
L 47.531775 353.2239 
L 57.005425 353.2239 
L 66.479075 353.2239 
L 75.952725 353.2239 
L 85.426375 353.2239 
L 94.900025 353.2239 
L 104.373675 353.2239 
L 113.847325 353.2239 
L 123.320975 353.2239 
L 132.794625 353.2239 
L 142.268275 353.2239 
L 151.741925 353.2239 
L 161.215575 353.2239 
L 170.689225 353.2239 
L 180.162875 353.2239 
L 189.636525 353.2239 
L 199.110175 353.2239 
L 208.583825 353.2239 
L 218.057475 353.2239 
L 227.531125 353.2239 
L 237.004775 353.2239 
L 246.478425 353.2239 
L 255.952075 353.2239 
L 265.425725 353.2239 
L 274.899375 353.2239 
L 284.373025 353.2239 
L 293.846675 353.2239 
L 303.320325 353.2239 
L 312.793975 353.2239 
L 322.267625 353.2239 
L 331.741275 353.223155 
L 341.214925 353.221665 
L 350.688575 353.22092 
L 360.162225 353.2239 
L 369.635875 353.220175 
L 379.109525 353.210861 
L 388.583175 353.211234 
L 398.056825 353.203783 
L 407.530475 353.159078 
L 417.004125 352.017613 
L 426.477775 351.779187 
L 435.951425 349.971247 
L 445.425075 345.970906 
L 454.898725 205.139732 
L 464.372375 200.192392 
L 473.846025 334.508947 
L 483.319675 335.666059 
L 492.793325 338.701147 
L 502.266975 344.716934 
L 511.740625 350.766622 
L 521.214275 350.122872 
L 530.687925 350.206321 
L 540.161575 348.695668 
L 549.635225 348.703119 
L 559.108875 352.769028 
L 568.582525 352.931456 
L 578.056175 353.045453 
L 587.529825 353.110275 
L 597.003475 353.169137 
L 606.477125 353.200057 
L 615.950775 353.215332 
L 625.424425 353.217567 
L 634.898075 353.221292 
L 644.371725 353.22092 
L 653.845375 353.221292 
L 663.319025 353.2239 
L 672.792675 353.223155 
L 682.266325 353.2239 
L 691.739975 353.22241 
L 701.213625 353.223155 
L 710.687275 353.2239 
L 720.160925 353.2239 
L 729.634575 353.2239 
L 739.108225 353.2239 
L 748.581875 353.2239 
L 758.055525 353.223155 
L 767.529175 353.223155 
L 777.002825 353.2239 
L 786.476475 353.2239 
L 795.950125 353.2239 
L 805.423775 353.2239 
L 814.897425 353.2239 
L 824.371075 353.2239 
L 833.844725 353.2239 
L 843.318375 353.2239 
L 852.792025 353.2239 
L 862.265675 353.2239 
L 871.739325 353.2239 
L 881.212975 353.2239 
L 890.686625 353.2239 
L 900.160275 353.2239 
L 909.633925 353.2239 
L 919.107575 353.2239 
L 928.581225 353.2239 
L 938.054875 353.2239 
L 947.528525 353.2239 
L 957.002175 353.2239 
L 966.475825 353.2239 
L 975.949475 353.2239 
L 985.423125 353.2239 
" clip-path="url(#p5c0c7ccf4e)" style="fill: none; stroke: #d9534f; stroke-linecap: square"/>
   </g>
   <g id="line2d_30">
    <path d="M 38.058125 353.2239 
L 47.531775 353.2239 
L 57.005425 353.2239 
L 66.479075 353.2239 
L 75.952725 353.2239 
L 85.426375 353.2239 
L 94.900025 353.2239 
L 104.373675 353.2239 
L 113.847325 353.2239 
L 123.320975 353.2239 
L 132.794625 353.2239 
L 142.268275 353.2239 
L 151.741925 353.2239 
L 161.215575 353.2239 
L 170.689225 353.2239 
L 180.162875 353.2239 
L 189.636525 353.2239 
L 199.110175 353.2239 
L 208.583825 353.2239 
L 218.057475 353.2239 
L 227.531125 353.2239 
L 237.004775 353.2239 
L 246.478425 353.2239 
L 255.952075 353.2239 
L 265.425725 353.2239 
L 274.899375 353.2239 
L 284.373025 353.2239 
L 293.846675 353.2239 
L 303.320325 353.2239 
L 312.793975 353.2239 
L 322.267625 353.2239 
L 331.741275 353.2239 
L 341.214925 353.2239 
L 350.688575 353.2239 
L 360.162225 353.2239 
L 369.635875 353.219432 
L 379.109525 353.210497 
L 388.583175 353.182699 
L 398.056825 352.975702 
L 407.530475 338.352866 
L 417.004125 337.482188 
L 426.477775 351.748611 
L 435.951425 349.882658 
L 445.425075 349.606165 
L 454.898725 344.331957 
L 464.372375 342.426293 
L 473.846025 338.07687 
L 483.319675 330.983867 
L 492.793325 316.897139 
L 502.266975 269.444156 
L 511.740625 286.08931 
L 521.214275 338.268976 
L 530.687925 343.488084 
L 540.161575 329.264847 
L 549.635225 321.828338 
L 559.108875 337.224062 
L 568.582525 347.313312 
L 578.056175 349.657791 
L 587.529825 351.358444 
L 597.003475 352.387969 
L 606.477125 352.898761 
L 615.950775 353.097319 
L 625.424425 353.166814 
L 634.898075 353.205037 
L 644.371725 353.212979 
L 653.845375 353.218936 
L 663.319025 353.218936 
L 672.792675 353.220922 
L 682.266325 353.221418 
L 691.739975 353.221418 
L 701.213625 353.220922 
L 710.687275 353.220922 
L 720.160925 353.2239 
L 729.634575 353.222907 
L 739.108225 353.222907 
L 748.581875 353.222907 
L 758.055525 353.220922 
L 767.529175 353.2239 
L 777.002825 353.2239 
L 786.476475 353.2239 
L 795.950125 353.2239 
L 805.423775 353.2239 
L 814.897425 353.2239 
L 824.371075 353.2239 
L 833.844725 353.2239 
L 843.318375 353.2239 
L 852.792025 353.2239 
L 862.265675 353.2239 
L 871.739325 353.2239 
L 881.212975 353.2239 
L 890.686625 353.2239 
L 900.160275 353.222907 
L 909.633925 353.222907 
L 919.107575 353.2239 
L 928.581225 353.2239 
L 938.054875 353.2239 
L 947.528525 353.2239 
L 957.002175 353.2239 
L 966.475825 353.2239 
L 975.949475 353.2239 
L 985.423125 353.2239 
" clip-path="url(#p5c0c7ccf4e)" style="fill: none; stroke: #d9534f; stroke-linecap: square"/>
   </g>
   <g id="line2d_31">
    <path d="M 38.058125 353.2239 
L 47.531775 353.2239 
L 57.005425 353.2239 
L 66.479075 353.2239 
L 75.952725 353.2239 
L 85.426375 353.2239 
L 94.900025 353.2239 
L 104.373675 353.2239 
L 113.847325 353.2239 
L 123.320975 353.2239 
L 132.794625 353.2239 
L 142.268275 353.2239 
L 151.741925 353.2239 
L 161.215575 353.2239 
L 170.689225 353.2239 
L 180.162875 353.2239 
L 189.636525 353.2239 
L 199.110175 353.2239 
L 208.583825 353.2239 
L 218.057475 353.2239 
L 227.531125 353.2239 
L 237.004775 353.2239 
L 246.478425 353.2239 
L 255.952075 353.2239 
L 265.425725 353.2239 
L 274.899375 353.2239 
L 284.373025 353.2239 
L 293.846675 353.2239 
L 303.320325 353.2239 
L 312.793975 353.2239 
L 322.267625 353.222963 
L 331.741275 353.222963 
L 341.214925 353.222963 
L 350.688575 353.222963 
L 360.162225 353.2239 
L 369.635875 353.222026 
L 379.109525 353.218279 
L 388.583175 353.217654 
L 398.056825 353.203913 
L 407.530475 353.173932 
L 417.004125 353.133021 
L 426.477775 353.006539 
L 435.951425 352.489371 
L 445.425075 347.956343 
L 454.898725 205.362543 
L 464.372375 200.604971 
L 473.846025 337.394684 
L 483.319675 337.657952 
L 492.793325 342.95549 
L 502.266975 348.544715 
L 511.740625 344.218742 
L 521.214275 340.651968 
L 530.687925 345.353014 
L 540.161575 349.868866 
L 549.635225 349.258945 
L 559.108875 351.678954 
L 568.582525 352.821658 
L 578.056175 352.984366 
L 587.529825 353.072747 
L 597.003475 353.145201 
L 606.477125 353.198604 
L 615.950775 353.211096 
L 625.424425 353.215468 
L 634.898075 353.220152 
L 644.371725 353.222651 
L 653.845375 353.222026 
L 663.319025 353.222651 
L 672.792675 353.222651 
L 682.266325 353.2239 
L 691.739975 353.223275 
L 701.213625 353.222651 
L 710.687275 353.222651 
L 720.160925 353.2239 
L 729.634575 353.2239 
L 739.108225 353.2239 
L 748.581875 353.2239 
L 758.055525 353.2239 
L 767.529175 353.2239 
L 777.002825 353.2239 
L 786.476475 353.2239 
L 795.950125 353.2239 
L 805.423775 353.2239 
L 814.897425 353.2239 
L 824.371075 353.2239 
L 833.844725 353.2239 
L 843.318375 353.2239 
L 852.792025 353.2239 
L 862.265675 353.2239 
L 871.739325 353.223275 
L 881.212975 353.223275 
L 890.686625 353.2239 
L 900.160275 353.2239 
L 909.633925 353.2239 
L 919.107575 353.2239 
L 928.581225 353.2239 
L 938.054875 353.2239 
L 947.528525 353.2239 
L 957.002175 353.2239 
L 966.475825 353.2239 
L 975.949475 353.2239 
L 985.423125 353.2239 
" clip-path="url(#p5c0c7ccf4e)" style="fill: none; stroke: #d9534f; stroke-linecap: square"/>
   </g>
   <g id="line2d_32">
    <path d="M 38.058125 353.2239 
L 47.531775 353.2239 
L 57.005425 353.2239 
L 66.479075 353.2239 
L 75.952725 353.2239 
L 85.426375 353.2239 
L 94.900025 353.2239 
L 104.373675 353.2239 
L 113.847325 353.2239 
L 123.320975 353.2239 
L 132.794625 353.2239 
L 142.268275 353.2239 
L 151.741925 353.2239 
L 161.215575 353.2239 
L 170.689225 353.2239 
L 180.162875 353.2239 
L 189.636525 353.2239 
L 199.110175 353.2239 
L 208.583825 353.2239 
L 218.057475 353.2239 
L 227.531125 353.2239 
L 237.004775 353.2239 
L 246.478425 353.2239 
L 255.952075 353.2239 
L 265.425725 353.2239 
L 274.899375 353.2239 
L 284.373025 353.2239 
L 293.846675 353.2239 
L 303.320325 353.222752 
L 312.793975 353.222752 
L 322.267625 353.2239 
L 331.741275 353.2239 
L 341.214925 353.2239 
L 350.688575 353.2239 
L 360.162225 353.2239 
L 369.635875 353.2239 
L 379.109525 353.222752 
L 388.583175 353.216246 
L 398.056825 353.210506 
L 407.530475 353.139326 
L 417.004125 352.709568 
L 426.477775 352.588257 
L 435.951425 352.634562 
L 445.425075 347.858625 
L 454.898725 182.707667 
L 464.372375 181.399642 
L 473.846025 344.772253 
L 483.319675 350.410001 
L 492.793325 350.255395 
L 502.266975 345.029802 
L 511.740625 346.981889 
L 521.214275 352.693878 
L 530.687925 352.885987 
L 540.161575 352.661732 
L 549.635225 347.517268 
L 559.108875 347.403228 
L 568.582525 352.506744 
L 578.056175 352.915454 
L 587.529825 353.075035 
L 597.003475 353.161522 
L 606.477125 353.196729 
L 615.950775 353.217777 
L 625.424425 353.220839 
L 634.898075 353.221604 
L 644.371725 353.223135 
L 653.845375 353.223135 
L 663.319025 353.2239 
L 672.792675 353.2239 
L 682.266325 353.2239 
L 691.739975 353.222369 
L 701.213625 353.222369 
L 710.687275 353.2239 
L 720.160925 353.2239 
L 729.634575 353.2239 
L 739.108225 353.2239 
L 748.581875 353.2239 
L 758.055525 353.223135 
L 767.529175 353.223135 
L 777.002825 353.2239 
L 786.476475 353.2239 
L 795.950125 353.223135 
L 805.423775 353.223135 
L 814.897425 353.2239 
L 824.371075 353.2239 
L 833.844725 353.2239 
L 843.318375 353.2239 
L 852.792025 353.2239 
L 862.265675 353.2239 
L 871.739325 353.2239 
L 881.212975 353.2239 
L 890.686625 353.2239 
L 900.160275 353.2239 
L 909.633925 353.2239 
L 919.107575 353.2239 
L 928.581225 353.2239 
L 938.054875 353.223135 
L 947.528525 353.2239 
L 957.002175 353.2239 
L 966.475825 353.2239 
L 975.949475 353.2239 
L 985.423125 353.2239 
" clip-path="url(#p5c0c7ccf4e)" style="fill: none; stroke: #d9534f; stroke-linecap: square"/>
   </g>
   <g id="line2d_33">
    <path d="M 38.058125 353.2239 
L 47.531775 353.2239 
L 57.005425 353.2239 
L 66.479075 353.2239 
L 75.952725 353.2239 
L 85.426375 353.2239 
L 94.900025 353.2239 
L 104.373675 353.2239 
L 113.847325 353.2239 
L 123.320975 353.2239 
L 132.794625 353.2239 
L 142.268275 353.2239 
L 151.741925 353.2239 
L 161.215575 353.2239 
L 170.689225 353.2239 
L 180.162875 353.2239 
L 189.636525 353.2239 
L 199.110175 353.2239 
L 208.583825 353.2239 
L 218.057475 353.2239 
L 227.531125 353.2239 
L 237.004775 353.2239 
L 246.478425 353.2239 
L 255.952075 353.2239 
L 265.425725 353.2239 
L 274.899375 353.2239 
L 284.373025 353.2239 
L 293.846675 353.2239 
L 303.320325 353.222281 
L 312.793975 353.222281 
L 322.267625 353.2239 
L 331.741275 353.2239 
L 341.214925 353.2239 
L 350.688575 353.2239 
L 360.162225 353.222281 
L 369.635875 353.222281 
L 379.109525 353.222281 
L 388.583175 353.214723 
L 398.056825 353.204466 
L 407.530475 353.138608 
L 417.004125 350.014641 
L 426.477775 349.613551 
L 435.951425 352.549659 
L 445.425075 351.204955 
L 454.898725 318.113691 
L 464.372375 318.225435 
L 473.846025 349.390604 
L 483.319675 343.843903 
L 492.793325 307.76255 
L 502.266975 250.825063 
L 511.740625 277.637624 
L 521.214275 338.297743 
L 530.687925 347.746837 
L 540.161575 341.681365 
L 549.635225 339.184135 
L 559.108875 342.886254 
L 568.582525 344.187772 
L 578.056175 348.064254 
L 587.529825 350.219775 
L 597.003475 351.706452 
L 606.477125 352.63927 
L 615.950775 352.973961 
L 625.424425 353.118634 
L 634.898075 353.182873 
L 644.371725 353.203387 
L 653.845375 353.214183 
L 663.319025 353.221741 
L 672.792675 353.22282 
L 682.266325 353.2239 
L 691.739975 353.2239 
L 701.213625 353.22282 
L 710.687275 353.22282 
L 720.160925 353.2239 
L 729.634575 353.2239 
L 739.108225 353.22282 
L 748.581875 353.22282 
L 758.055525 353.221741 
L 767.529175 353.2239 
L 777.002825 353.2239 
L 786.476475 353.2239 
L 795.950125 353.22282 
L 805.423775 353.2239 
L 814.897425 353.2239 
L 824.371075 353.2239 
L 833.844725 353.2239 
L 843.318375 353.2239 
L 852.792025 353.2239 
L 862.265675 353.2239 
L 871.739325 353.2239 
L 881.212975 353.2239 
L 890.686625 353.2239 
L 900.160275 353.2239 
L 909.633925 353.2239 
L 919.107575 353.2239 
L 928.581225 353.2239 
L 938.054875 353.2239 
L 947.528525 353.2239 
L 957.002175 353.2239 
L 966.475825 353.2239 
L 975.949475 353.2239 
L 985.423125 353.2239 
" clip-path="url(#p5c0c7ccf4e)" style="fill: none; stroke: #d9534f; stroke-linecap: square"/>
   </g>
   <g id="line2d_34">
    <path d="M 38.058125 353.2239 
L 47.531775 353.2239 
L 57.005425 353.2239 
L 66.479075 353.2239 
L 75.952725 353.2239 
L 85.426375 353.2239 
L 94.900025 353.2239 
L 104.373675 353.2239 
L 113.847325 353.2239 
L 123.320975 353.2239 
L 132.794625 353.2239 
L 142.268275 353.2239 
L 151.741925 353.2239 
L 161.215575 353.2239 
L 170.689225 353.2239 
L 180.162875 353.2239 
L 189.636525 353.2239 
L 199.110175 353.2239 
L 208.583825 353.2239 
L 218.057475 353.2239 
L 227.531125 353.2239 
L 237.004775 353.2239 
L 246.478425 353.2239 
L 255.952075 353.2239 
L 265.425725 353.2239 
L 274.899375 353.2239 
L 284.373025 353.2239 
L 293.846675 353.2239 
L 303.320325 353.2239 
L 312.793975 353.2239 
L 322.267625 353.2239 
L 331.741275 353.2239 
L 341.214925 353.2239 
L 350.688575 353.22274 
L 360.162225 353.19413 
L 369.635875 353.191037 
L 379.109525 353.211142 
L 388.583175 353.19993 
L 398.056825 353.172866 
L 407.530475 353.097476 
L 417.004125 351.562984 
L 426.477775 351.106387 
L 435.951425 350.848512 
L 445.425075 347.853373 
L 454.898725 228.096538 
L 464.372375 224.262822 
L 473.846025 338.057217 
L 483.319675 341.209323 
L 492.793325 340.568308 
L 502.266975 318.669425 
L 511.740625 324.371671 
L 521.214275 349.675896 
L 530.687925 351.46285 
L 540.161575 351.002 
L 549.635225 347.954281 
L 559.108875 347.874251 
L 568.582525 350.819515 
L 578.056175 351.767506 
L 587.529825 352.43829 
L 597.003475 352.897207 
L 606.477125 353.113327 
L 615.950775 353.183692 
L 625.424425 353.203023 
L 634.898075 353.211142 
L 644.371725 353.218101 
L 653.845375 353.218487 
L 663.319025 353.219261 
L 672.792675 353.222354 
L 682.266325 353.2239 
L 691.739975 353.223127 
L 701.213625 353.2239 
L 710.687275 353.2239 
L 720.160925 353.2239 
L 729.634575 353.2239 
L 739.108225 353.2239 
L 748.581875 353.2239 
L 758.055525 353.2239 
L 767.529175 353.223127 
L 777.002825 353.2239 
L 786.476475 353.2239 
L 795.950125 353.2239 
L 805.423775 353.2239 
L 814.897425 353.2239 
L 824.371075 353.223127 
L 833.844725 353.222354 
L 843.318375 353.223127 
L 852.792025 353.2239 
L 862.265675 353.2239 
L 871.739325 353.2239 
L 881.212975 353.2239 
L 890.686625 353.2239 
L 900.160275 353.2239 
L 909.633925 353.2239 
L 919.107575 353.223127 
L 928.581225 353.223127 
L 938.054875 353.2239 
L 947.528525 353.2239 
L 957.002175 353.2239 
L 966.475825 353.2239 
L 975.949475 353.2239 
L 985.423125 353.2239 
" clip-path="url(#p5c0c7ccf4e)" style="fill: none; stroke: #d9534f; stroke-linecap: square"/>
   </g>
   <g id="line2d_35">
    <path d="M 38.058125 353.2239 
L 47.531775 353.2239 
L 57.005425 353.2239 
L 66.479075 353.2239 
L 75.952725 353.2239 
L 85.426375 353.2239 
L 94.900025 353.2239 
L 104.373675 353.2239 
L 113.847325 353.2239 
L 123.320975 353.2239 
L 132.794625 353.2239 
L 142.268275 353.2239 
L 151.741925 353.2239 
L 161.215575 353.2239 
L 170.689225 353.2239 
L 180.162875 353.2239 
L 189.636525 353.2239 
L 199.110175 353.2239 
L 208.583825 353.2239 
L 218.057475 353.2239 
L 227.531125 353.2239 
L 237.004775 353.2239 
L 246.478425 353.2239 
L 255.952075 353.2239 
L 265.425725 353.2239 
L 274.899375 353.2239 
L 284.373025 353.2239 
L 293.846675 353.2239 
L 303.320325 353.2239 
L 312.793975 353.2239 
L 322.267625 353.2239 
L 331.741275 353.2239 
L 341.214925 353.2239 
L 350.688575 353.2239 
L 360.162225 353.222796 
L 369.635875 353.218378 
L 379.109525 353.209543 
L 388.583175 353.186904 
L 398.056825 353.138312 
L 407.530475 352.895352 
L 417.004125 343.910797 
L 426.477775 343.122281 
L 435.951425 340.969323 
L 445.425075 340.248173 
L 454.898725 341.771091 
L 464.372375 342.477332 
L 473.846025 336.690464 
L 483.319675 336.187978 
L 492.793325 336.425417 
L 502.266975 250.267341 
L 511.740625 250.29992 
L 521.214275 335.702058 
L 530.687925 348.689381 
L 540.161575 347.255916 
L 549.635225 344.219467 
L 559.108875 342.859994 
L 568.582525 344.332664 
L 578.056175 347.011852 
L 587.529825 349.709813 
L 597.003475 351.584471 
L 606.477125 352.460784 
L 615.950775 352.931243 
L 625.424425 353.117881 
L 634.898075 353.182486 
L 644.371725 353.205678 
L 653.845375 353.215065 
L 663.319025 353.220587 
L 672.792675 353.219483 
L 682.266325 353.219483 
L 691.739975 353.219483 
L 701.213625 353.222796 
L 710.687275 353.222796 
L 720.160925 353.2239 
L 729.634575 353.2239 
L 739.108225 353.2239 
L 748.581875 353.2239 
L 758.055525 353.2239 
L 767.529175 353.2239 
L 777.002825 353.2239 
L 786.476475 353.2239 
L 795.950125 353.222796 
L 805.423775 353.222796 
L 814.897425 353.2239 
L 824.371075 353.2239 
L 833.844725 353.2239 
L 843.318375 353.2239 
L 852.792025 353.2239 
L 862.265675 353.2239 
L 871.739325 353.2239 
L 881.212975 353.2239 
L 890.686625 353.2239 
L 900.160275 353.2239 
L 909.633925 353.2239 
L 919.107575 353.2239 
L 928.581225 353.2239 
L 938.054875 353.2239 
L 947.528525 353.2239 
L 957.002175 353.2239 
L 966.475825 353.2239 
L 975.949475 353.2239 
L 985.423125 353.2239 
" clip-path="url(#p5c0c7ccf4e)" style="fill: none; stroke: #d9534f; stroke-linecap: square"/>
   </g>
   <g id="line2d_36">
    <path d="M 38.058125 353.2239 
L 47.531775 353.2239 
L 57.005425 353.2239 
L 66.479075 353.2239 
L 75.952725 353.2239 
L 85.426375 353.2239 
L 94.900025 353.2239 
L 104.373675 353.2239 
L 113.847325 353.2239 
L 123.320975 353.2239 
L 132.794625 353.2239 
L 142.268275 353.2239 
L 151.741925 353.2239 
L 161.215575 353.2239 
L 170.689225 353.2239 
L 180.162875 353.2239 
L 189.636525 353.2239 
L 199.110175 353.2239 
L 208.583825 353.2239 
L 218.057475 353.2239 
L 227.531125 353.2239 
L 237.004775 353.2239 
L 246.478425 353.2239 
L 255.952075 353.2239 
L 265.425725 353.2239 
L 274.899375 353.2239 
L 284.373025 353.2239 
L 293.846675 353.2239 
L 303.320325 353.2239 
L 312.793975 353.2239 
L 322.267625 353.2239 
L 331.741275 353.223026 
L 341.214925 353.221278 
L 350.688575 353.223026 
L 360.162225 353.222152 
L 369.635875 353.219093 
L 379.109525 353.212539 
L 388.583175 353.214724 
L 398.056825 353.200304 
L 407.530475 353.166659 
L 417.004125 353.064412 
L 426.477775 352.393686 
L 435.951425 325.825099 
L 445.425075 318.40998 
L 454.898725 311.945236 
L 464.372375 317.736632 
L 473.846025 314.538999 
L 483.319675 313.503416 
L 492.793325 335.004641 
L 502.266975 324.657993 
L 511.740625 327.881844 
L 521.214275 329.401572 
L 530.687925 339.759144 
L 540.161575 350.617029 
L 549.635225 324.161176 
L 559.108875 323.570413 
L 568.582525 350.871336 
L 578.056175 352.681639 
L 587.529825 353.022027 
L 597.003475 353.133013 
L 606.477125 353.194624 
L 615.950775 353.210354 
L 625.424425 353.217783 
L 634.898075 353.220841 
L 644.371725 353.2239 
L 653.845375 353.2239 
L 663.319025 353.223026 
L 672.792675 353.223026 
L 682.266325 353.2239 
L 691.739975 353.2239 
L 701.213625 353.2239 
L 710.687275 353.2239 
L 720.160925 353.2239 
L 729.634575 353.2239 
L 739.108225 353.223026 
L 748.581875 353.2239 
L 758.055525 353.2239 
L 767.529175 353.2239 
L 777.002825 353.2239 
L 786.476475 353.2239 
L 795.950125 353.2239 
L 805.423775 353.2239 
L 814.897425 353.2239 
L 824.371075 353.2239 
L 833.844725 353.2239 
L 843.318375 353.2239 
L 852.792025 353.2239 
L 862.265675 353.2239 
L 871.739325 353.2239 
L 881.212975 353.2239 
L 890.686625 353.2239 
L 900.160275 353.2239 
L 909.633925 353.2239 
L 919.107575 353.2239 
L 928.581225 353.2239 
L 938.054875 353.2239 
L 947.528525 353.2239 
L 957.002175 353.2239 
L 966.475825 353.2239 
L 975.949475 353.2239 
L 985.423125 353.2239 
" clip-path="url(#p5c0c7ccf4e)" style="fill: none; stroke: #d9534f; stroke-linecap: square"/>
   </g>
   <g id="line2d_37">
    <path d="M 38.058125 353.2239 
L 47.531775 353.2239 
L 57.005425 353.2239 
L 66.479075 353.2239 
L 75.952725 353.2239 
L 85.426375 353.2239 
L 94.900025 353.2239 
L 104.373675 353.2239 
L 113.847325 353.2239 
L 123.320975 353.2239 
L 132.794625 353.2239 
L 142.268275 353.2239 
L 151.741925 353.2239 
L 161.215575 353.2239 
L 170.689225 353.2239 
L 180.162875 353.2239 
L 189.636525 353.2239 
L 199.110175 353.2239 
L 208.583825 353.2239 
L 218.057475 353.2239 
L 227.531125 353.2239 
L 237.004775 353.2239 
L 246.478425 353.2239 
L 255.952075 353.2239 
L 265.425725 353.2239 
L 274.899375 353.2239 
L 284.373025 353.2239 
L 293.846675 353.2239 
L 303.320325 353.2239 
L 312.793975 353.2239 
L 322.267625 353.2239 
L 331.741275 353.2239 
L 341.214925 353.223168 
L 350.688575 353.222435 
L 360.162225 353.218773 
L 369.635875 353.216209 
L 379.109525 353.212181 
L 388.583175 353.1968 
L 398.056825 353.17263 
L 407.530475 353.052145 
L 417.004125 346.483354 
L 426.477775 345.636665 
L 435.951425 344.806457 
L 445.425075 342.564857 
L 454.898725 203.947859 
L 464.372375 202.554412 
L 473.846025 347.634732 
L 483.319675 351.625373 
L 492.793325 345.312932 
L 502.266975 344.802428 
L 511.740625 348.66526 
L 521.214275 345.471869 
L 530.687925 348.491308 
L 540.161575 352.404312 
L 549.635225 349.167341 
L 559.108875 345.565986 
L 568.582525 348.601173 
L 578.056175 352.483048 
L 587.529825 352.996481 
L 597.003475 353.144431 
L 606.477125 353.190208 
L 615.950775 353.208519 
L 625.424425 353.219505 
L 634.898075 353.218773 
L 644.371725 353.22097 
L 653.845375 353.223168 
L 663.319025 353.222801 
L 672.792675 353.222801 
L 682.266325 353.2239 
L 691.739975 353.2239 
L 701.213625 353.2239 
L 710.687275 353.2239 
L 720.160925 353.2239 
L 729.634575 353.2239 
L 739.108225 353.2239 
L 748.581875 353.222435 
L 758.055525 353.222435 
L 767.529175 353.223168 
L 777.002825 353.2239 
L 786.476475 353.2239 
L 795.950125 353.2239 
L 805.423775 353.2239 
L 814.897425 353.2239 
L 824.371075 353.2239 
L 833.844725 353.2239 
L 843.318375 353.2239 
L 852.792025 353.2239 
L 862.265675 353.2239 
L 871.739325 353.2239 
L 881.212975 353.2239 
L 890.686625 353.2239 
L 900.160275 353.2239 
L 909.633925 353.2239 
L 919.107575 353.2239 
L 928.581225 353.223168 
L 938.054875 353.223168 
L 947.528525 353.2239 
L 957.002175 353.223168 
L 966.475825 353.223168 
L 975.949475 353.2239 
L 985.423125 353.2239 
" clip-path="url(#p5c0c7ccf4e)" style="fill: none; stroke: #d9534f; stroke-linecap: square"/>
   </g>
   <g id="line2d_38">
    <path d="M 38.058125 353.2239 
L 47.531775 353.2239 
L 57.005425 353.2239 
L 66.479075 353.2239 
L 75.952725 353.2239 
L 85.426375 353.2239 
L 94.900025 353.2239 
L 104.373675 353.2239 
L 113.847325 353.2239 
L 123.320975 353.2239 
L 132.794625 353.2239 
L 142.268275 353.2239 
L 151.741925 353.2239 
L 161.215575 353.2239 
L 170.689225 353.2239 
L 180.162875 353.2239 
L 189.636525 353.2239 
L 199.110175 353.2239 
L 208.583825 353.2239 
L 218.057475 353.2239 
L 227.531125 353.2239 
L 237.004775 353.2239 
L 246.478425 353.2239 
L 255.952075 353.2239 
L 265.425725 353.2239 
L 274.899375 353.2239 
L 284.373025 353.2239 
L 293.846675 353.2239 
L 303.320325 353.2239 
L 312.793975 353.2239 
L 322.267625 353.2239 
L 331.741275 353.2239 
L 341.214925 352.526803 
L 350.688575 352.526803 
L 360.162225 353.2239 
L 369.635875 353.2239 
L 379.109525 353.2239 
L 388.583175 351.829706 
L 398.056825 351.481157 
L 407.530475 350.78406 
L 417.004125 348.344221 
L 426.477775 347.298575 
L 435.951425 346.950027 
L 445.425075 342.418896 
L 454.898725 295.713395 
L 464.372375 280.377261 
L 473.846025 322.551631 
L 483.319675 324.642922 
L 492.793325 328.476955 
L 502.266975 323.945825 
L 511.740625 327.43131 
L 521.214275 332.310989 
L 530.687925 339.281959 
L 540.161575 343.81309 
L 549.635225 339.630508 
L 559.108875 341.721799 
L 568.582525 346.950027 
L 578.056175 347.647124 
L 587.529825 350.435512 
L 597.003475 352.178254 
L 606.477125 352.178254 
L 615.950775 353.2239 
L 625.424425 352.178254 
L 634.898075 352.178254 
L 644.371725 353.2239 
L 653.845375 353.2239 
L 663.319025 353.2239 
L 672.792675 353.2239 
L 682.266325 353.2239 
L 691.739975 353.2239 
L 701.213625 353.2239 
L 710.687275 353.2239 
L 720.160925 353.2239 
L 729.634575 353.2239 
L 739.108225 353.2239 
L 748.581875 353.2239 
L 758.055525 353.2239 
L 767.529175 353.2239 
L 777.002825 353.2239 
L 786.476475 353.2239 
L 795.950125 353.2239 
L 805.423775 353.2239 
L 814.897425 353.2239 
L 824.371075 353.2239 
L 833.844725 353.2239 
L 843.318375 353.2239 
L 852.792025 353.2239 
L 862.265675 353.2239 
L 871.739325 353.2239 
L 881.212975 353.2239 
L 890.686625 353.2239 
L 900.160275 353.2239 
L 909.633925 353.2239 
L 919.107575 353.2239 
L 928.581225 353.2239 
L 938.054875 353.2239 
L 947.528525 353.2239 
L 957.002175 353.2239 
L 966.475825 353.2239 
L 975.949475 353.2239 
L 985.423125 353.2239 
" clip-path="url(#p5c0c7ccf4e)" style="fill: none; stroke: #d9534f; stroke-linecap: square"/>
   </g>
   <g id="line2d_39">
    <path d="M 38.058125 353.2239 
L 985.423125 353.2239 
" clip-path="url(#p5c0c7ccf4e)" style="fill: none; stroke: #dedede; stroke-width: 2; stroke-linecap: square"/>
   </g>
   <g id="text_18">
    <!-- FastQC: Per Sequence GC Content -->
    <g transform="translate(375.104375 19.3575) scale(0.16 -0.16)">
     <defs>
      <path id="DejaVuSans-46" d="M 628 4666 
L 3309 4666 
L 3309 4134 
L 1259 4134 
L 1259 2759 
L 3109 2759 
L 3109 2228 
L 1259 2228 
L 1259 0 
L 628 0 
L 628 4666 
z
" transform="scale(0.015625)"/>
      <path id="DejaVuSans-73" d="M 2834 3397 
L 2834 2853 
Q 2591 2978 2328 3040 
Q 2066 3103 1784 3103 
Q 1356 3103 1142 2972 
Q 928 2841 928 2578 
Q 928 2378 1081 2264 
Q 1234 2150 1697 2047 
L 1894 2003 
Q 2506 1872 2764 1633 
Q 3022 1394 3022 966 
Q 3022 478 2636 193 
Q 2250 -91 1575 -91 
Q 1294 -91 989 -36 
Q 684 19 347 128 
L 347 722 
Q 666 556 975 473 
Q 1284 391 1588 391 
Q 1994 391 2212 530 
Q 2431 669 2431 922 
Q 2431 1156 2273 1281 
Q 2116 1406 1581 1522 
L 1381 1569 
Q 847 1681 609 1914 
Q 372 2147 372 2553 
Q 372 3047 722 3315 
Q 1072 3584 1716 3584 
Q 2034 3584 2315 3537 
Q 2597 3491 2834 3397 
z
" transform="scale(0.015625)"/>
      <path id="DejaVuSans-51" d="M 2522 4238 
Q 1834 4238 1429 3725 
Q 1025 3213 1025 2328 
Q 1025 1447 1429 934 
Q 1834 422 2522 422 
Q 3209 422 3611 934 
Q 4013 1447 4013 2328 
Q 4013 3213 3611 3725 
Q 3209 4238 2522 4238 
z
M 3406 84 
L 4238 -825 
L 3475 -825 
L 2784 -78 
Q 2681 -84 2626 -87 
Q 2572 -91 2522 -91 
Q 1538 -91 948 567 
Q 359 1225 359 2328 
Q 359 3434 948 4092 
Q 1538 4750 2522 4750 
Q 3503 4750 4090 4092 
Q 4678 3434 4678 2328 
Q 4678 1516 4351 937 
Q 4025 359 3406 84 
z
" transform="scale(0.015625)"/>
      <path id="DejaVuSans-3a" d="M 750 794 
L 1409 794 
L 1409 0 
L 750 0 
L 750 794 
z
M 750 3309 
L 1409 3309 
L 1409 2516 
L 750 2516 
L 750 3309 
z
" transform="scale(0.015625)"/>
      <path id="DejaVuSans-53" d="M 3425 4513 
L 3425 3897 
Q 3066 4069 2747 4153 
Q 2428 4238 2131 4238 
Q 1616 4238 1336 4038 
Q 1056 3838 1056 3469 
Q 1056 3159 1242 3001 
Q 1428 2844 1947 2747 
L 2328 2669 
Q 3034 2534 3370 2195 
Q 3706 1856 3706 1288 
Q 3706 609 3251 259 
Q 2797 -91 1919 -91 
Q 1588 -91 1214 -16 
Q 841 59 441 206 
L 441 856 
Q 825 641 1194 531 
Q 1563 422 1919 422 
Q 2459 422 2753 634 
Q 3047 847 3047 1241 
Q 3047 1584 2836 1778 
Q 2625 1972 2144 2069 
L 1759 2144 
Q 1053 2284 737 2584 
Q 422 2884 422 3419 
Q 422 4038 858 4394 
Q 1294 4750 2059 4750 
Q 2388 4750 2728 4690 
Q 3069 4631 3425 4513 
z
" transform="scale(0.015625)"/>
      <path id="DejaVuSans-71" d="M 947 1747 
Q 947 1113 1208 752 
Q 1469 391 1925 391 
Q 2381 391 2643 752 
Q 2906 1113 2906 1747 
Q 2906 2381 2643 2742 
Q 2381 3103 1925 3103 
Q 1469 3103 1208 2742 
Q 947 2381 947 1747 
z
M 2906 525 
Q 2725 213 2448 61 
Q 2172 -91 1784 -91 
Q 1150 -91 751 415 
Q 353 922 353 1747 
Q 353 2572 751 3078 
Q 1150 3584 1784 3584 
Q 2172 3584 2448 3432 
Q 2725 3281 2906 2969 
L 2906 3500 
L 3481 3500 
L 3481 -1331 
L 2906 -1331 
L 2906 525 
z
" transform="scale(0.015625)"/>
      <path id="DejaVuSans-75" d="M 544 1381 
L 544 3500 
L 1119 3500 
L 1119 1403 
Q 1119 906 1312 657 
Q 1506 409 1894 409 
Q 2359 409 2629 706 
Q 2900 1003 2900 1516 
L 2900 3500 
L 3475 3500 
L 3475 0 
L 2900 0 
L 2900 538 
Q 2691 219 2414 64 
Q 2138 -91 1772 -91 
Q 1169 -91 856 284 
Q 544 659 544 1381 
z
M 1991 3584 
L 1991 3584 
z
" transform="scale(0.015625)"/>
      <path id="DejaVuSans-6f" d="M 1959 3097 
Q 1497 3097 1228 2736 
Q 959 2375 959 1747 
Q 959 1119 1226 758 
Q 1494 397 1959 397 
Q 2419 397 2687 759 
Q 2956 1122 2956 1747 
Q 2956 2369 2687 2733 
Q 2419 3097 1959 3097 
z
M 1959 3584 
Q 2709 3584 3137 3096 
Q 3566 2609 3566 1747 
Q 3566 888 3137 398 
Q 2709 -91 1959 -91 
Q 1206 -91 779 398 
Q 353 888 353 1747 
Q 353 2609 779 3096 
Q 1206 3584 1959 3584 
z
" transform="scale(0.015625)"/>
     </defs>
     <use xlink:href="#DejaVuSans-46"/>
     <use xlink:href="#DejaVuSans-61" x="48.394531"/>
     <use xlink:href="#DejaVuSans-73" x="109.673828"/>
     <use xlink:href="#DejaVuSans-74" x="161.773438"/>
     <use xlink:href="#DejaVuSans-51" x="200.982422"/>
     <use xlink:href="#DejaVuSans-43" x="279.693359"/>
     <use xlink:href="#DejaVuSans-3a" x="349.517578"/>
     <use xlink:href="#DejaVuSans-20" x="383.208984"/>
     <use xlink:href="#DejaVuSans-50" x="414.996094"/>
     <use xlink:href="#DejaVuSans-65" x="471.673828"/>
     <use xlink:href="#DejaVuSans-72" x="533.197266"/>
     <use xlink:href="#DejaVuSans-20" x="574.310547"/>
     <use xlink:href="#DejaVuSans-53" x="606.097656"/>
     <use xlink:href="#DejaVuSans-65" x="669.574219"/>
     <use xlink:href="#DejaVuSans-71" x="731.097656"/>
     <use xlink:href="#DejaVuSans-75" x="794.574219"/>
     <use xlink:href="#DejaVuSans-65" x="857.953125"/>
     <use xlink:href="#DejaVuSans-6e" x="919.476562"/>
     <use xlink:href="#DejaVuSans-63" x="982.855469"/>
     <use xlink:href="#DejaVuSans-65" x="1037.835938"/>
     <use xlink:href="#DejaVuSans-20" x="1099.359375"/>
     <use xlink:href="#DejaVuSans-47" x="1131.146484"/>
     <use xlink:href="#DejaVuSans-43" x="1208.636719"/>
     <use xlink:href="#DejaVuSans-20" x="1278.460938"/>
     <use xlink:href="#DejaVuSans-43" x="1310.248047"/>
     <use xlink:href="#DejaVuSans-6f" x="1380.072266"/>
     <use xlink:href="#DejaVuSans-6e" x="1441.253906"/>
     <use xlink:href="#DejaVuSans-74" x="1504.632812"/>
     <use xlink:href="#DejaVuSans-65" x="1543.841797"/>
     <use xlink:href="#DejaVuSans-6e" x="1605.365234"/>
     <use xlink:href="#DejaVuSans-74" x="1668.744141"/>
    </g>
   </g>
  </g>
 </g>
 <defs>
  <clipPath id="p5c0c7ccf4e">
   <rect x="38.058125" y="35.2559" width="947.365" height="317.968"/>
  </clipPath>
 </defs>
</svg>
