<?xml version="1.0" encoding="utf-8" standalone="no"?>
<!DOCTYPE svg PUBLIC "-//W3C//DTD SVG 1.1//EN"
  "http://www.w3.org/Graphics/SVG/1.1/DTD/svg11.dtd">
<svg xmlns:xlink="http://www.w3.org/1999/xlink" width="1000.318125pt" height="388.844525pt" viewBox="0 0 1000.318125 388.844525" xmlns="http://www.w3.org/2000/svg" version="1.1">
 <metadata>
  <rdf:RDF xmlns:dc="http://purl.org/dc/elements/1.1/" xmlns:cc="http://creativecommons.org/ns#" xmlns:rdf="http://www.w3.org/1999/02/22-rdf-syntax-ns#">
   <cc:Work>
    <dc:type rdf:resource="http://purl.org/dc/dcmitype/StillImage"/>
    <dc:date>2024-06-28T13:31:44.239594</dc:date>
    <dc:format>image/svg+xml</dc:format>
    <dc:creator>
     <cc:Agent>
      <dc:title>Matplotlib v3.7.1, https://matplotlib.org/</dc:title>
     </cc:Agent>
    </dc:creator>
   </cc:Work>
  </rdf:RDF>
 </metadata>
 <defs>
  <style type="text/css">*{stroke-linejoin: round; stroke-linecap: butt}</style>
 </defs>
 <g id="figure_1">
  <g id="axes_1">
   <g id="patch_1">
    <path d="M 38.058125 353.2239 
L 993.118125 353.2239 
L 993.118125 35.2559 
L 38.058125 35.2559 
z
" style="fill: #ffffff"/>
   </g>
   <g id="patch_2">
    <path d="M 38.058125 131.491271 
L 953.323958 131.491271 
L 953.323958 -438.678347 
L 38.058125 -438.678347 
z
" clip-path="url(#p9b22e963d1)" style="fill: #c3e6c3"/>
   </g>
   <g id="patch_3">
    <path d="M 38.058125 194.843451 
L 953.323958 194.843451 
L 953.323958 131.491271 
L 38.058125 131.491271 
z
" clip-path="url(#p9b22e963d1)" style="fill: #e6dcc3"/>
   </g>
   <g id="patch_4">
    <path d="M 38.058125 353.2239 
L 953.323958 353.2239 
L 953.323958 194.843451 
L 38.058125 194.843451 
z
" clip-path="url(#p9b22e963d1)" style="fill: #e6c3c3"/>
   </g>
   <g id="matplotlib.axis_1">
    <g id="xtick_1">
     <g id="text_1">
      <!-- 0 -->
      <g transform="translate(75.307292 366.30265) scale(0.08 -0.08)">
       <defs>
        <path id="DejaVuSans-30" d="M 2034 4250 
Q 1547 4250 1301 3770 
Q 1056 3291 1056 2328 
Q 1056 1369 1301 889 
Q 1547 409 2034 409 
Q 2525 409 2770 889 
Q 3016 1369 3016 2328 
Q 3016 3291 2770 3770 
Q 2525 4250 2034 4250 
z
M 2034 4750 
Q 2819 4750 3233 4129 
Q 3647 3509 3647 2328 
Q 3647 1150 3233 529 
Q 2819 -91 2034 -91 
Q 1250 -91 836 529 
Q 422 1150 422 2328 
Q 422 3509 836 4129 
Q 1250 4750 2034 4750 
z
" transform="scale(0.015625)"/>
       </defs>
       <use xlink:href="#DejaVuSans-30"/>
      </g>
     </g>
    </g>
    <g id="xtick_2">
     <g id="text_2">
      <!-- 50 -->
      <g transform="translate(253.644867 366.30265) scale(0.08 -0.08)">
       <defs>
        <path id="DejaVuSans-35" d="M 691 4666 
L 3169 4666 
L 3169 4134 
L 1269 4134 
L 1269 2991 
Q 1406 3038 1543 3061 
Q 1681 3084 1819 3084 
Q 2600 3084 3056 2656 
Q 3513 2228 3513 1497 
Q 3513 744 3044 326 
Q 2575 -91 1722 -91 
Q 1428 -91 1123 -41 
Q 819 9 494 109 
L 494 744 
Q 775 591 1075 516 
Q 1375 441 1709 441 
Q 2250 441 2565 725 
Q 2881 1009 2881 1497 
Q 2881 1984 2565 2268 
Q 2250 2553 1709 2553 
Q 1456 2553 1204 2497 
Q 953 2441 691 2322 
L 691 4666 
z
" transform="scale(0.015625)"/>
       </defs>
       <use xlink:href="#DejaVuSans-35"/>
       <use xlink:href="#DejaVuSans-30" x="63.623047"/>
      </g>
     </g>
    </g>
    <g id="xtick_3">
     <g id="text_3">
      <!-- 100 -->
      <g transform="translate(431.982443 366.30265) scale(0.08 -0.08)">
       <defs>
        <path id="DejaVuSans-31" d="M 794 531 
L 1825 531 
L 1825 4091 
L 703 3866 
L 703 4441 
L 1819 4666 
L 2450 4666 
L 2450 531 
L 3481 531 
L 3481 0 
L 794 0 
L 794 531 
z
" transform="scale(0.015625)"/>
       </defs>
       <use xlink:href="#DejaVuSans-31"/>
       <use xlink:href="#DejaVuSans-30" x="63.623047"/>
       <use xlink:href="#DejaVuSans-30" x="127.246094"/>
      </g>
     </g>
    </g>
    <g id="xtick_4">
     <g id="text_4">
      <!-- 150 -->
      <g transform="translate(612.865019 366.30265) scale(0.08 -0.08)">
       <use xlink:href="#DejaVuSans-31"/>
       <use xlink:href="#DejaVuSans-35" x="63.623047"/>
       <use xlink:href="#DejaVuSans-30" x="127.246094"/>
      </g>
     </g>
    </g>
    <g id="xtick_5">
     <g id="text_5">
      <!-- 200 -->
      <g transform="translate(793.747595 366.30265) scale(0.08 -0.08)">
       <defs>
        <path id="DejaVuSans-32" d="M 1228 531 
L 3431 531 
L 3431 0 
L 469 0 
L 469 531 
Q 828 903 1448 1529 
Q 2069 2156 2228 2338 
Q 2531 2678 2651 2914 
Q 2772 3150 2772 3378 
Q 2772 3750 2511 3984 
Q 2250 4219 1831 4219 
Q 1534 4219 1204 4116 
Q 875 4013 500 3803 
L 500 4441 
Q 881 4594 1212 4672 
Q 1544 4750 1819 4750 
Q 2544 4750 2975 4387 
Q 3406 4025 3406 3419 
Q 3406 3131 3298 2873 
Q 3191 2616 2906 2266 
Q 2828 2175 2409 1742 
Q 1991 1309 1228 531 
z
" transform="scale(0.015625)"/>
       </defs>
       <use xlink:href="#DejaVuSans-32"/>
       <use xlink:href="#DejaVuSans-30" x="63.623047"/>
       <use xlink:href="#DejaVuSans-30" x="127.246094"/>
      </g>
     </g>
    </g>
    <g id="xtick_6">
     <g id="text_6">
      <!-- 250 -->
      <g transform="translate(974.63017 366.30265) scale(0.08 -0.08)">
       <use xlink:href="#DejaVuSans-32"/>
       <use xlink:href="#DejaVuSans-35" x="63.623047"/>
       <use xlink:href="#DejaVuSans-30" x="127.246094"/>
      </g>
     </g>
    </g>
    <g id="text_7">
     <!-- Position (bp) -->
     <g transform="translate(484.285 379.564837) scale(0.1 -0.1)">
      <defs>
       <path id="DejaVuSans-50" d="M 1259 4147 
L 1259 2394 
L 2053 2394 
Q 2494 2394 2734 2622 
Q 2975 2850 2975 3272 
Q 2975 3691 2734 3919 
Q 2494 4147 2053 4147 
L 1259 4147 
z
M 628 4666 
L 2053 4666 
Q 2838 4666 3239 4311 
Q 3641 3956 3641 3272 
Q 3641 2581 3239 2228 
Q 2838 1875 2053 1875 
L 1259 1875 
L 1259 0 
L 628 0 
L 628 4666 
z
" transform="scale(0.015625)"/>
       <path id="DejaVuSans-6f" d="M 1959 3097 
Q 1497 3097 1228 2736 
Q 959 2375 959 1747 
Q 959 1119 1226 758 
Q 1494 397 1959 397 
Q 2419 397 2687 759 
Q 2956 1122 2956 1747 
Q 2956 2369 2687 2733 
Q 2419 3097 1959 3097 
z
M 1959 3584 
Q 2709 3584 3137 3096 
Q 3566 2609 3566 1747 
Q 3566 888 3137 398 
Q 2709 -91 1959 -91 
Q 1206 -91 779 398 
Q 353 888 353 1747 
Q 353 2609 779 3096 
Q 1206 3584 1959 3584 
z
" transform="scale(0.015625)"/>
       <path id="DejaVuSans-73" d="M 2834 3397 
L 2834 2853 
Q 2591 2978 2328 3040 
Q 2066 3103 1784 3103 
Q 1356 3103 1142 2972 
Q 928 2841 928 2578 
Q 928 2378 1081 2264 
Q 1234 2150 1697 2047 
L 1894 2003 
Q 2506 1872 2764 1633 
Q 3022 1394 3022 966 
Q 3022 478 2636 193 
Q 2250 -91 1575 -91 
Q 1294 -91 989 -36 
Q 684 19 347 128 
L 347 722 
Q 666 556 975 473 
Q 1284 391 1588 391 
Q 1994 391 2212 530 
Q 2431 669 2431 922 
Q 2431 1156 2273 1281 
Q 2116 1406 1581 1522 
L 1381 1569 
Q 847 1681 609 1914 
Q 372 2147 372 2553 
Q 372 3047 722 3315 
Q 1072 3584 1716 3584 
Q 2034 3584 2315 3537 
Q 2597 3491 2834 3397 
z
" transform="scale(0.015625)"/>
       <path id="DejaVuSans-69" d="M 603 3500 
L 1178 3500 
L 1178 0 
L 603 0 
L 603 3500 
z
M 603 4863 
L 1178 4863 
L 1178 4134 
L 603 4134 
L 603 4863 
z
" transform="scale(0.015625)"/>
       <path id="DejaVuSans-74" d="M 1172 4494 
L 1172 3500 
L 2356 3500 
L 2356 3053 
L 1172 3053 
L 1172 1153 
Q 1172 725 1289 603 
Q 1406 481 1766 481 
L 2356 481 
L 2356 0 
L 1766 0 
Q 1100 0 847 248 
Q 594 497 594 1153 
L 594 3053 
L 172 3053 
L 172 3500 
L 594 3500 
L 594 4494 
L 1172 4494 
z
" transform="scale(0.015625)"/>
       <path id="DejaVuSans-6e" d="M 3513 2113 
L 3513 0 
L 2938 0 
L 2938 2094 
Q 2938 2591 2744 2837 
Q 2550 3084 2163 3084 
Q 1697 3084 1428 2787 
Q 1159 2491 1159 1978 
L 1159 0 
L 581 0 
L 581 3500 
L 1159 3500 
L 1159 2956 
Q 1366 3272 1645 3428 
Q 1925 3584 2291 3584 
Q 2894 3584 3203 3211 
Q 3513 2838 3513 2113 
z
" transform="scale(0.015625)"/>
       <path id="DejaVuSans-20" transform="scale(0.015625)"/>
       <path id="DejaVuSans-28" d="M 1984 4856 
Q 1566 4138 1362 3434 
Q 1159 2731 1159 2009 
Q 1159 1288 1364 580 
Q 1569 -128 1984 -844 
L 1484 -844 
Q 1016 -109 783 600 
Q 550 1309 550 2009 
Q 550 2706 781 3412 
Q 1013 4119 1484 4856 
L 1984 4856 
z
" transform="scale(0.015625)"/>
       <path id="DejaVuSans-62" d="M 3116 1747 
Q 3116 2381 2855 2742 
Q 2594 3103 2138 3103 
Q 1681 3103 1420 2742 
Q 1159 2381 1159 1747 
Q 1159 1113 1420 752 
Q 1681 391 2138 391 
Q 2594 391 2855 752 
Q 3116 1113 3116 1747 
z
M 1159 2969 
Q 1341 3281 1617 3432 
Q 1894 3584 2278 3584 
Q 2916 3584 3314 3078 
Q 3713 2572 3713 1747 
Q 3713 922 3314 415 
Q 2916 -91 2278 -91 
Q 1894 -91 1617 61 
Q 1341 213 1159 525 
L 1159 0 
L 581 0 
L 581 4863 
L 1159 4863 
L 1159 2969 
z
" transform="scale(0.015625)"/>
       <path id="DejaVuSans-70" d="M 1159 525 
L 1159 -1331 
L 581 -1331 
L 581 3500 
L 1159 3500 
L 1159 2969 
Q 1341 3281 1617 3432 
Q 1894 3584 2278 3584 
Q 2916 3584 3314 3078 
Q 3713 2572 3713 1747 
Q 3713 922 3314 415 
Q 2916 -91 2278 -91 
Q 1894 -91 1617 61 
Q 1341 213 1159 525 
z
M 3116 1747 
Q 3116 2381 2855 2742 
Q 2594 3103 2138 3103 
Q 1681 3103 1420 2742 
Q 1159 2381 1159 1747 
Q 1159 1113 1420 752 
Q 1681 391 2138 391 
Q 2594 391 2855 752 
Q 3116 1113 3116 1747 
z
" transform="scale(0.015625)"/>
       <path id="DejaVuSans-29" d="M 513 4856 
L 1013 4856 
Q 1481 4119 1714 3412 
Q 1947 2706 1947 2009 
Q 1947 1309 1714 600 
Q 1481 -109 1013 -844 
L 513 -844 
Q 928 -128 1133 580 
Q 1338 1288 1338 2009 
Q 1338 2731 1133 3434 
Q 928 4138 513 4856 
z
" transform="scale(0.015625)"/>
      </defs>
      <use xlink:href="#DejaVuSans-50"/>
      <use xlink:href="#DejaVuSans-6f" x="56.677734"/>
      <use xlink:href="#DejaVuSans-73" x="117.859375"/>
      <use xlink:href="#DejaVuSans-69" x="169.958984"/>
      <use xlink:href="#DejaVuSans-74" x="197.742188"/>
      <use xlink:href="#DejaVuSans-69" x="236.951172"/>
      <use xlink:href="#DejaVuSans-6f" x="264.734375"/>
      <use xlink:href="#DejaVuSans-6e" x="325.916016"/>
      <use xlink:href="#DejaVuSans-20" x="389.294922"/>
      <use xlink:href="#DejaVuSans-28" x="421.082031"/>
      <use xlink:href="#DejaVuSans-62" x="460.095703"/>
      <use xlink:href="#DejaVuSans-70" x="523.572266"/>
      <use xlink:href="#DejaVuSans-29" x="587.048828"/>
     </g>
    </g>
   </g>
   <g id="matplotlib.axis_2">
    <g id="ytick_1">
     <g id="line2d_1">
      <path d="M 38.058125 353.2239 
L 993.118125 353.2239 
" clip-path="url(#p9b22e963d1)" style="fill: none; stroke: #dedede; stroke-linecap: square"/>
     </g>
     <g id="text_8">
      <!-- 0 -->
      <g transform="translate(25.968125 356.263275) scale(0.08 -0.08)">
       <use xlink:href="#DejaVuSans-30"/>
      </g>
     </g>
    </g>
    <g id="ytick_2">
     <g id="line2d_2">
      <path d="M 38.058125 313.628788 
L 993.118125 313.628788 
" clip-path="url(#p9b22e963d1)" style="fill: none; stroke: #dedede; stroke-linecap: square"/>
     </g>
     <g id="text_9">
      <!-- 5 -->
      <g transform="translate(25.968125 316.668163) scale(0.08 -0.08)">
       <use xlink:href="#DejaVuSans-35"/>
      </g>
     </g>
    </g>
    <g id="ytick_3">
     <g id="line2d_3">
      <path d="M 38.058125 274.033675 
L 993.118125 274.033675 
" clip-path="url(#p9b22e963d1)" style="fill: none; stroke: #dedede; stroke-linecap: square"/>
     </g>
     <g id="text_10">
      <!-- 10 -->
      <g transform="translate(20.878125 277.07305) scale(0.08 -0.08)">
       <use xlink:href="#DejaVuSans-31"/>
       <use xlink:href="#DejaVuSans-30" x="63.623047"/>
      </g>
     </g>
    </g>
    <g id="ytick_4">
     <g id="line2d_4">
      <path d="M 38.058125 234.438563 
L 993.118125 234.438563 
" clip-path="url(#p9b22e963d1)" style="fill: none; stroke: #dedede; stroke-linecap: square"/>
     </g>
     <g id="text_11">
      <!-- 15 -->
      <g transform="translate(20.878125 237.477938) scale(0.08 -0.08)">
       <use xlink:href="#DejaVuSans-31"/>
       <use xlink:href="#DejaVuSans-35" x="63.623047"/>
      </g>
     </g>
    </g>
    <g id="ytick_5">
     <g id="line2d_5">
      <path d="M 38.058125 194.843451 
L 993.118125 194.843451 
" clip-path="url(#p9b22e963d1)" style="fill: none; stroke: #dedede; stroke-linecap: square"/>
     </g>
     <g id="text_12">
      <!-- 20 -->
      <g transform="translate(20.878125 197.882826) scale(0.08 -0.08)">
       <use xlink:href="#DejaVuSans-32"/>
       <use xlink:href="#DejaVuSans-30" x="63.623047"/>
      </g>
     </g>
    </g>
    <g id="ytick_6">
     <g id="line2d_6">
      <path d="M 38.058125 155.248338 
L 993.118125 155.248338 
" clip-path="url(#p9b22e963d1)" style="fill: none; stroke: #dedede; stroke-linecap: square"/>
     </g>
     <g id="text_13">
      <!-- 25 -->
      <g transform="translate(20.878125 158.287713) scale(0.08 -0.08)">
       <use xlink:href="#DejaVuSans-32"/>
       <use xlink:href="#DejaVuSans-35" x="63.623047"/>
      </g>
     </g>
    </g>
    <g id="ytick_7">
     <g id="line2d_7">
      <path d="M 38.058125 115.653226 
L 993.118125 115.653226 
" clip-path="url(#p9b22e963d1)" style="fill: none; stroke: #dedede; stroke-linecap: square"/>
     </g>
     <g id="text_14">
      <!-- 30 -->
      <g transform="translate(20.878125 118.692601) scale(0.08 -0.08)">
       <defs>
        <path id="DejaVuSans-33" d="M 2597 2516 
Q 3050 2419 3304 2112 
Q 3559 1806 3559 1356 
Q 3559 666 3084 287 
Q 2609 -91 1734 -91 
Q 1441 -91 1130 -33 
Q 819 25 488 141 
L 488 750 
Q 750 597 1062 519 
Q 1375 441 1716 441 
Q 2309 441 2620 675 
Q 2931 909 2931 1356 
Q 2931 1769 2642 2001 
Q 2353 2234 1838 2234 
L 1294 2234 
L 1294 2753 
L 1863 2753 
Q 2328 2753 2575 2939 
Q 2822 3125 2822 3475 
Q 2822 3834 2567 4026 
Q 2313 4219 1838 4219 
Q 1578 4219 1281 4162 
Q 984 4106 628 3988 
L 628 4550 
Q 988 4650 1302 4700 
Q 1616 4750 1894 4750 
Q 2613 4750 3031 4423 
Q 3450 4097 3450 3541 
Q 3450 3153 3228 2886 
Q 3006 2619 2597 2516 
z
" transform="scale(0.015625)"/>
       </defs>
       <use xlink:href="#DejaVuSans-33"/>
       <use xlink:href="#DejaVuSans-30" x="63.623047"/>
      </g>
     </g>
    </g>
    <g id="ytick_8">
     <g id="line2d_8">
      <path d="M 38.058125 76.058114 
L 993.118125 76.058114 
" clip-path="url(#p9b22e963d1)" style="fill: none; stroke: #dedede; stroke-linecap: square"/>
     </g>
     <g id="text_15">
      <!-- 35 -->
      <g transform="translate(20.878125 79.097489) scale(0.08 -0.08)">
       <use xlink:href="#DejaVuSans-33"/>
       <use xlink:href="#DejaVuSans-35" x="63.623047"/>
      </g>
     </g>
    </g>
    <g id="ytick_9">
     <g id="line2d_9">
      <path d="M 38.058125 36.463001 
L 993.118125 36.463001 
" clip-path="url(#p9b22e963d1)" style="fill: none; stroke: #dedede; stroke-linecap: square"/>
     </g>
     <g id="text_16">
      <!-- 40 -->
      <g transform="translate(20.878125 39.502376) scale(0.08 -0.08)">
       <defs>
        <path id="DejaVuSans-34" d="M 2419 4116 
L 825 1625 
L 2419 1625 
L 2419 4116 
z
M 2253 4666 
L 3047 4666 
L 3047 1625 
L 3713 1625 
L 3713 1100 
L 3047 1100 
L 3047 0 
L 2419 0 
L 2419 1100 
L 313 1100 
L 313 1709 
L 2253 4666 
z
" transform="scale(0.015625)"/>
       </defs>
       <use xlink:href="#DejaVuSans-34"/>
       <use xlink:href="#DejaVuSans-30" x="63.623047"/>
      </g>
     </g>
    </g>
    <g id="text_17">
     <!-- Phred Score -->
     <g transform="translate(14.798438 224.20865) rotate(-90) scale(0.1 -0.1)">
      <defs>
       <path id="DejaVuSans-68" d="M 3513 2113 
L 3513 0 
L 2938 0 
L 2938 2094 
Q 2938 2591 2744 2837 
Q 2550 3084 2163 3084 
Q 1697 3084 1428 2787 
Q 1159 2491 1159 1978 
L 1159 0 
L 581 0 
L 581 4863 
L 1159 4863 
L 1159 2956 
Q 1366 3272 1645 3428 
Q 1925 3584 2291 3584 
Q 2894 3584 3203 3211 
Q 3513 2838 3513 2113 
z
" transform="scale(0.015625)"/>
       <path id="DejaVuSans-72" d="M 2631 2963 
Q 2534 3019 2420 3045 
Q 2306 3072 2169 3072 
Q 1681 3072 1420 2755 
Q 1159 2438 1159 1844 
L 1159 0 
L 581 0 
L 581 3500 
L 1159 3500 
L 1159 2956 
Q 1341 3275 1631 3429 
Q 1922 3584 2338 3584 
Q 2397 3584 2469 3576 
Q 2541 3569 2628 3553 
L 2631 2963 
z
" transform="scale(0.015625)"/>
       <path id="DejaVuSans-65" d="M 3597 1894 
L 3597 1613 
L 953 1613 
Q 991 1019 1311 708 
Q 1631 397 2203 397 
Q 2534 397 2845 478 
Q 3156 559 3463 722 
L 3463 178 
Q 3153 47 2828 -22 
Q 2503 -91 2169 -91 
Q 1331 -91 842 396 
Q 353 884 353 1716 
Q 353 2575 817 3079 
Q 1281 3584 2069 3584 
Q 2775 3584 3186 3129 
Q 3597 2675 3597 1894 
z
M 3022 2063 
Q 3016 2534 2758 2815 
Q 2500 3097 2075 3097 
Q 1594 3097 1305 2825 
Q 1016 2553 972 2059 
L 3022 2063 
z
" transform="scale(0.015625)"/>
       <path id="DejaVuSans-64" d="M 2906 2969 
L 2906 4863 
L 3481 4863 
L 3481 0 
L 2906 0 
L 2906 525 
Q 2725 213 2448 61 
Q 2172 -91 1784 -91 
Q 1150 -91 751 415 
Q 353 922 353 1747 
Q 353 2572 751 3078 
Q 1150 3584 1784 3584 
Q 2172 3584 2448 3432 
Q 2725 3281 2906 2969 
z
M 947 1747 
Q 947 1113 1208 752 
Q 1469 391 1925 391 
Q 2381 391 2643 752 
Q 2906 1113 2906 1747 
Q 2906 2381 2643 2742 
Q 2381 3103 1925 3103 
Q 1469 3103 1208 2742 
Q 947 2381 947 1747 
z
" transform="scale(0.015625)"/>
       <path id="DejaVuSans-53" d="M 3425 4513 
L 3425 3897 
Q 3066 4069 2747 4153 
Q 2428 4238 2131 4238 
Q 1616 4238 1336 4038 
Q 1056 3838 1056 3469 
Q 1056 3159 1242 3001 
Q 1428 2844 1947 2747 
L 2328 2669 
Q 3034 2534 3370 2195 
Q 3706 1856 3706 1288 
Q 3706 609 3251 259 
Q 2797 -91 1919 -91 
Q 1588 -91 1214 -16 
Q 841 59 441 206 
L 441 856 
Q 825 641 1194 531 
Q 1563 422 1919 422 
Q 2459 422 2753 634 
Q 3047 847 3047 1241 
Q 3047 1584 2836 1778 
Q 2625 1972 2144 2069 
L 1759 2144 
Q 1053 2284 737 2584 
Q 422 2884 422 3419 
Q 422 4038 858 4394 
Q 1294 4750 2059 4750 
Q 2388 4750 2728 4690 
Q 3069 4631 3425 4513 
z
" transform="scale(0.015625)"/>
       <path id="DejaVuSans-63" d="M 3122 3366 
L 3122 2828 
Q 2878 2963 2633 3030 
Q 2388 3097 2138 3097 
Q 1578 3097 1268 2742 
Q 959 2388 959 1747 
Q 959 1106 1268 751 
Q 1578 397 2138 397 
Q 2388 397 2633 464 
Q 2878 531 3122 666 
L 3122 134 
Q 2881 22 2623 -34 
Q 2366 -91 2075 -91 
Q 1284 -91 818 406 
Q 353 903 353 1747 
Q 353 2603 823 3093 
Q 1294 3584 2113 3584 
Q 2378 3584 2631 3529 
Q 2884 3475 3122 3366 
z
" transform="scale(0.015625)"/>
      </defs>
      <use xlink:href="#DejaVuSans-50"/>
      <use xlink:href="#DejaVuSans-68" x="60.302734"/>
      <use xlink:href="#DejaVuSans-72" x="123.681641"/>
      <use xlink:href="#DejaVuSans-65" x="162.544922"/>
      <use xlink:href="#DejaVuSans-64" x="224.068359"/>
      <use xlink:href="#DejaVuSans-20" x="287.544922"/>
      <use xlink:href="#DejaVuSans-53" x="319.332031"/>
      <use xlink:href="#DejaVuSans-63" x="382.808594"/>
      <use xlink:href="#DejaVuSans-6f" x="437.789062"/>
      <use xlink:href="#DejaVuSans-72" x="498.970703"/>
      <use xlink:href="#DejaVuSans-65" x="537.833984"/>
     </g>
    </g>
   </g>
   <g id="line2d_10">
    <path d="M 81.469943 56.023847 
L 85.087595 55.34241 
L 88.705246 56.762669 
L 92.322898 51.038593 
L 95.940549 62.54413 
L 99.558201 63.275778 
L 103.175852 73.382574 
L 106.793504 79.709185 
L 110.411155 76.710859 
L 121.26411 60.918721 
L 139.352367 67.134867 
L 157.440625 61.676193 
L 175.528883 75.455579 
L 193.61714 68.01715 
L 211.705398 67.938246 
L 229.793655 71.658178 
L 247.881913 66.169378 
L 265.97017 67.222378 
L 284.058428 67.048791 
L 302.146686 74.348064 
L 320.234943 66.614105 
L 338.323201 69.866356 
L 356.411458 63.30447 
L 374.499716 75.121316 
L 392.587973 62.37915 
L 410.676231 70.002644 
L 428.764489 65.713173 
L 446.852746 59.920236 
L 464.941004 69.388632 
L 483.029261 66.628451 
L 501.117519 64.502366 
L 519.205777 62.473834 
L 537.294034 70.92653 
L 555.382292 75.700897 
L 573.470549 70.890664 
L 591.558807 75.966299 
L 609.647064 76.610437 
L 627.735322 74.38106 
L 645.82358 119.684467 
L 663.911837 111.089746 
L 682.000095 86.265752 
L 700.088352 85.833976 
L 718.17661 83.174532 
L 736.264867 109.20335 
L 754.353125 80.725445 
L 772.441383 88.853909 
L 790.52964 94.378879 
L 808.617898 109.298134 
L 826.706155 96.392268 
L 844.794413 125.548946 
L 862.88267 104.202747 
L 880.970928 107.036238 
" clip-path="url(#p9b22e963d1)" style="fill: none; stroke: #5cb85c; stroke-linecap: square"/>
   </g>
   <g id="line2d_11">
    <path d="M 81.469943 85.425738 
L 85.087595 92.861893 
L 88.705246 76.734128 
L 92.322898 67.463077 
L 95.940549 84.460003 
L 99.558201 76.830701 
L 103.175852 89.385249 
L 106.793504 109.762246 
L 110.411155 101.939797 
L 121.26411 90.119207 
L 139.352367 101.920482 
L 157.440625 104.643853 
L 175.528883 125.600291 
L 193.61714 116.309925 
L 211.705398 118.202765 
L 229.793655 97.323586 
L 247.881913 112.640134 
L 265.97017 113.296834 
L 284.058428 118.376597 
L 302.146686 113.20026 
L 320.234943 126.199046 
L 338.323201 127.20341 
L 356.411458 113.335463 
L 374.499716 128.671326 
L 392.587973 131.317439 
L 410.676231 125.851382 
L 428.764489 110.979071 
L 446.852746 101.514874 
L 464.941004 112.756023 
L 483.029261 125.774123 
L 501.117519 121.331744 
L 519.205777 121.89187 
L 537.294034 117.970989 
L 555.382292 129.888152 
L 573.470549 134.098754 
L 591.558807 133.268222 
L 609.647064 134.832712 
L 627.735322 132.379747 
L 645.82358 147.020281 
L 663.911837 151.829638 
L 682.000095 155.976501 
L 700.088352 217.060032 
L 718.17661 216.917726 
L 736.264867 184.598215 
L 754.353125 210.533014 
L 772.441383 214.93797 
L 790.52964 210.434026 
L 808.617898 221.916609 
L 826.706155 220.035841 
L 844.794413 224.836748 
L 862.88267 225.777132 
L 880.970928 229.828561 
" clip-path="url(#p9b22e963d1)" style="fill: none; stroke: #5cb85c; stroke-linecap: square"/>
   </g>
   <g id="line2d_12">
    <path d="M 81.469943 58.722234 
L 85.087595 51.866763 
L 88.705246 64.323602 
L 92.322898 53.876431 
L 95.940549 50.134061 
L 99.558201 54.977649 
L 103.175852 69.860714 
L 106.793504 61.618195 
L 110.411155 63.842789 
L 121.26411 58.965079 
L 139.352367 61.494557 
L 157.440625 64.834107 
L 175.528883 72.005542 
L 193.61714 61.477274 
L 211.705398 64.260232 
L 229.793655 69.794685 
L 247.881913 62.071533 
L 265.97017 58.742619 
L 284.058428 65.999869 
L 302.146686 61.420001 
L 320.234943 54.010296 
L 338.323201 60.985596 
L 356.411458 53.820576 
L 374.499716 66.942261 
L 392.587973 60.977174 
L 410.676231 67.273828 
L 428.764489 54.551972 
L 446.852746 60.303403 
L 464.941004 59.185033 
L 483.029261 57.96604 
L 501.117519 52.712401 
L 519.205777 66.218844 
L 537.294034 65.566351 
L 555.382292 60.795433 
L 573.470549 60.814051 
L 591.558807 67.391294 
L 609.647064 69.178116 
L 627.735322 74.023503 
L 645.82358 99.010645 
L 663.911837 88.641225 
L 682.000095 79.487922 
L 700.088352 66.262626 
L 718.17661 73.609041 
L 736.264867 85.365215 
L 754.353125 83.139789 
L 772.441383 84.460376 
L 790.52964 90.035638 
L 808.617898 96.74386 
L 826.706155 86.6957 
L 844.794413 126.591826 
L 862.88267 101.668052 
L 880.970928 93.121242 
" clip-path="url(#p9b22e963d1)" style="fill: none; stroke: #5cb85c; stroke-linecap: square"/>
   </g>
   <g id="line2d_13">
    <path d="M 81.469943 79.038869 
L 85.087595 139.14336 
L 88.705246 102.395537 
L 92.322898 76.59198 
L 95.940549 112.761448 
L 99.558201 85.623225 
L 103.175852 90.161092 
L 106.793504 143.903671 
L 110.411155 92.830425 
L 121.26411 103.160745 
L 139.352367 114.91471 
L 157.440625 121.935057 
L 175.528883 153.424294 
L 193.61714 138.894222 
L 211.705398 137.844284 
L 229.793655 116.792141 
L 247.881913 138.680675 
L 265.97017 140.300071 
L 284.058428 147.569556 
L 302.146686 136.963404 
L 320.234943 158.647289 
L 338.323201 157.179156 
L 356.411458 146.252685 
L 374.499716 158.077832 
L 392.587973 153.415396 
L 410.676231 150.35456 
L 428.764489 141.536862 
L 446.852746 137.176951 
L 464.941004 157.775307 
L 483.029261 158.184605 
L 501.117519 166.01465 
L 519.205777 159.919672 
L 537.294034 160.035343 
L 555.382292 182.617904 
L 573.470549 176.531823 
L 591.558807 179.601557 
L 609.647064 181.888286 
L 627.735322 180.66929 
L 645.82358 185.447397 
L 663.911837 185.411806 
L 682.000095 197.969466 
L 700.088352 215.236249 
L 718.17661 219.913754 
L 736.264867 202.627105 
L 754.353125 209.788067 
L 772.441383 213.294096 
L 790.52964 213.091044 
L 808.617898 217.801847 
L 826.706155 218.275635 
L 844.794413 215.446446 
L 862.88267 221.077751 
L 880.970928 227.15577 
" clip-path="url(#p9b22e963d1)" style="fill: none; stroke: #d9534f; stroke-linecap: square"/>
   </g>
   <g id="line2d_14">
    <path d="M 81.469943 76.264338 
L 85.087595 131.573761 
L 88.705246 100.640079 
L 92.322898 75.068236 
L 95.940549 128.975331 
L 99.558201 92.432342 
L 103.175852 93.5872 
L 106.793504 138.915354 
L 110.411155 106.86806 
L 121.26411 101.267002 
L 139.352367 113.376507 
L 157.440625 115.801708 
L 175.528883 141.588024 
L 193.61714 130.212679 
L 211.705398 129.222801 
L 229.793655 108.806571 
L 247.881913 130.897344 
L 265.97017 134.477402 
L 284.058428 142.445919 
L 302.146686 131.887222 
L 320.234943 149.828757 
L 338.323201 147.601532 
L 356.411458 137.983219 
L 374.499716 144.13696 
L 392.587973 145.654772 
L 410.676231 138.263685 
L 428.764489 134.964092 
L 446.852746 124.677612 
L 464.941004 136.201439 
L 483.029261 137.842987 
L 501.117519 135.178566 
L 519.205777 145.580532 
L 537.294034 143.229572 
L 555.382292 163.464324 
L 573.470549 161.418577 
L 591.558807 158.754155 
L 609.647064 157.26109 
L 627.735322 162.697169 
L 645.82358 169.073632 
L 663.911837 178.394981 
L 682.000095 181.118924 
L 700.088352 204.572186 
L 718.17661 218.491327 
L 736.264867 200.001713 
L 754.353125 208.952388 
L 772.441383 213.994408 
L 790.52964 212.962755 
L 808.617898 212.076406 
L 826.706155 216.043182 
L 844.794413 213.689271 
L 862.88267 225.255403 
L 880.970928 221.43812 
" clip-path="url(#p9b22e963d1)" style="fill: none; stroke: #d9534f; stroke-linecap: square"/>
   </g>
   <g id="line2d_15">
    <path d="M 81.469943 126.106336 
L 85.087595 128.640423 
L 88.705246 133.233456 
L 92.322898 129.273945 
L 95.940549 128.323662 
L 99.558201 131.808032 
L 103.175852 99.181659 
L 106.793504 113.4359 
L 110.411155 135.767543 
L 121.26411 116.920269 
L 139.352367 111.250249 
L 157.440625 128.228634 
L 175.528883 121.608331 
L 193.61714 119.929498 
L 211.705398 118.947539 
L 229.793655 119.802794 
L 247.881913 119.644413 
L 265.97017 120.467992 
L 284.058428 120.026466 
L 302.146686 129.551918 
L 320.234943 136.113394 
L 338.323201 113.422971 
L 356.411458 117.721868 
L 374.499716 118.691545 
L 392.587973 112.64723 
L 410.676231 113.390648 
L 428.764489 109.382653 
L 446.852746 121.826831 
L 464.941004 128.065082 
L 483.029261 114.392647 
L 501.117519 102.239371 
L 519.205777 102.72421 
L 537.294034 107.18472 
L 555.382292 112.000779 
L 573.470549 122.473282 
L 591.558807 122.440959 
L 609.647064 118.271352 
L 627.735322 132.396302 
L 645.82358 139.087068 
L 663.911837 145.874801 
L 682.000095 145.295642 
L 700.088352 189.080162 
L 718.17661 207.562512 
L 736.264867 192.115787 
L 754.353125 200.386766 
L 772.441383 205.666115 
L 790.52964 207.689865 
L 808.617898 202.586495 
L 826.706155 220.44829 
L 844.794413 212.793235 
L 862.88267 215.168942 
L 880.970928 214.221764 
" clip-path="url(#p9b22e963d1)" style="fill: none; stroke: #5cb85c; stroke-linecap: square"/>
   </g>
   <g id="line2d_16">
    <path d="M 81.469943 102.666029 
L 85.087595 106.783921 
L 88.705246 105.200116 
L 92.322898 103.933073 
L 95.940549 109.634769 
L 99.558201 102.98279 
L 103.175852 94.430246 
L 106.793504 114.702943 
L 110.411155 110.585051 
L 121.26411 98.484785 
L 139.352367 95.570585 
L 157.440625 109.444712 
L 175.528883 106.657216 
L 193.61714 97.027685 
L 211.705398 103.426255 
L 229.793655 91.516045 
L 247.881913 115.336465 
L 265.97017 97.661207 
L 284.058428 100.575407 
L 302.146686 112.105504 
L 320.234943 113.119139 
L 338.323201 108.050964 
L 356.411458 105.89699 
L 374.499716 113.245843 
L 392.587973 123.698953 
L 410.676231 117.363735 
L 428.764489 92.466328 
L 446.852746 120.214583 
L 464.941004 116.793565 
L 483.029261 112.168856 
L 501.117519 87.904971 
L 519.205777 87.524858 
L 537.294034 97.281094 
L 555.382292 108.241021 
L 573.470549 104.820003 
L 591.558807 100.638759 
L 609.647064 104.883355 
L 627.735322 111.978799 
L 645.82358 111.535334 
L 663.911837 133.645245 
L 682.000095 131.681327 
L 700.088352 184.636711 
L 718.17661 204.346278 
L 736.264867 200.952411 
L 754.353125 194.390935 
L 772.441383 172.44393 
L 790.52964 207.061371 
L 808.617898 206.835113 
L 826.706155 195.069708 
L 844.794413 207.966402 
L 862.88267 226.745798 
L 880.970928 222.748577 
" clip-path="url(#p9b22e963d1)" style="fill: none; stroke: #5cb85c; stroke-linecap: square"/>
   </g>
   <g id="line2d_17">
    <path d="M 81.469943 50.120838 
L 85.087595 51.133051 
L 88.705246 47.620739 
L 92.322898 46.034993 
L 95.940549 50.988573 
L 99.558201 47.33427 
L 103.175852 51.122776 
L 106.793504 60.233832 
L 110.411155 49.987987 
L 121.26411 53.436641 
L 139.352367 63.887357 
L 157.440625 65.507742 
L 175.528883 58.517664 
L 193.61714 60.103237 
L 211.705398 55.306552 
L 229.793655 49.753799 
L 247.881913 54.600677 
L 265.97017 55.245791 
L 284.058428 56.293066 
L 302.146686 51.406173 
L 320.234943 64.429787 
L 338.323201 62.188424 
L 356.411458 57.771379 
L 374.499716 64.005692 
L 392.587973 66.18828 
L 410.676231 66.434436 
L 428.764489 53.118864 
L 446.852746 53.679574 
L 464.941004 57.170735 
L 483.029261 64.151447 
L 501.117519 56.907592 
L 519.205777 57.416676 
L 537.294034 60.236434 
L 555.382292 69.288363 
L 573.470549 61.370817 
L 591.558807 62.809078 
L 609.647064 63.803217 
L 627.735322 63.232334 
L 645.82358 70.919061 
L 663.911837 81.382995 
L 682.000095 82.666787 
L 700.088352 152.33664 
L 718.17661 204.74609 
L 736.264867 168.590311 
L 754.353125 196.884264 
L 772.441383 203.035498 
L 790.52964 189.216406 
L 808.617898 204.269103 
L 826.706155 209.127373 
L 844.794413 208.605705 
L 862.88267 207.619754 
L 880.970928 209.715119 
L 891.823883 212.2653 
" clip-path="url(#p9b22e963d1)" style="fill: none; stroke: #d9534f; stroke-linecap: square"/>
   </g>
   <g id="line2d_18">
    <path d="M 81.469943 60.557265 
L 85.087595 81.649315 
L 88.705246 58.365195 
L 92.322898 52.22815 
L 95.940549 68.654605 
L 99.558201 55.727258 
L 103.175852 64.638431 
L 106.793504 64.969509 
L 110.411155 53.528192 
L 121.26411 63.747047 
L 139.352367 74.795989 
L 157.440625 76.733754 
L 175.528883 88.378056 
L 193.61714 81.00613 
L 211.705398 71.882024 
L 229.793655 66.613563 
L 247.881913 79.698219 
L 265.97017 81.917527 
L 284.058428 72.152988 
L 302.146686 69.796003 
L 320.234943 84.801373 
L 338.323201 83.683437 
L 356.411458 80.852498 
L 374.499716 75.390337 
L 392.587973 82.570619 
L 410.676231 80.365217 
L 428.764489 74.622092 
L 446.852746 74.733275 
L 464.941004 100.487562 
L 483.029261 114.646412 
L 501.117519 115.822467 
L 519.205777 119.785842 
L 537.294034 121.197525 
L 555.382292 129.87901 
L 573.470549 136.98542 
L 591.558807 135.711927 
L 609.647064 135.742741 
L 627.735322 138.812831 
L 645.82358 152.638516 
L 663.911837 145.643377 
L 682.000095 154.164319 
L 700.088352 173.436484 
L 718.17661 205.839859 
L 736.264867 226.194598 
L 754.353125 221.419888 
L 772.441383 190.839729 
L 790.52964 213.164369 
L 808.617898 218.552461 
L 826.706155 210.747358 
L 844.794413 216.561218 
L 862.88267 220.332907 
L 880.970928 212.015013 
L 899.059186 236.520973 
L 917.147443 210.681496 
L 931.618049 242.357585 
" clip-path="url(#p9b22e963d1)" style="fill: none; stroke: #d9534f; stroke-linecap: square"/>
   </g>
   <g id="line2d_19">
    <path d="M 81.469943 52.644493 
L 85.087595 59.164421 
L 88.705246 54.250182 
L 92.322898 49.618871 
L 95.940549 62.22754 
L 99.558201 54.009776 
L 103.175852 57.450668 
L 106.793504 55.586842 
L 110.411155 48.905208 
L 121.26411 54.804264 
L 139.352367 64.827539 
L 157.440625 62.354928 
L 175.528883 70.734802 
L 193.61714 65.214627 
L 211.705398 60.425474 
L 229.793655 55.140928 
L 247.881913 64.15167 
L 265.97017 63.17605 
L 284.058428 61.093476 
L 302.146686 58.55947 
L 320.234943 67.104196 
L 338.323201 67.787696 
L 356.411458 61.702081 
L 374.499716 60.991346 
L 392.587973 66.527504 
L 410.676231 65.511195 
L 428.764489 64.569588 
L 446.852746 58.56603 
L 464.941004 68.517762 
L 483.029261 62.156837 
L 501.117519 62.121856 
L 519.205777 65.111978 
L 537.294034 68.003636 
L 555.382292 85.776971 
L 573.470549 73.801677 
L 591.558807 69.833711 
L 609.647064 77.046904 
L 627.735322 79.733111 
L 645.82358 90.325685 
L 663.911837 89.351683 
L 682.000095 99.965851 
L 700.088352 159.378272 
L 718.17661 206.020671 
L 736.264867 177.928073 
L 754.353125 194.118081 
L 772.441383 205.185667 
L 790.52964 195.475611 
L 808.617898 203.905787 
L 826.706155 203.568288 
L 844.794413 206.973607 
L 862.88267 210.500082 
L 880.970928 200.972349 
L 891.823883 199.594864 
" clip-path="url(#p9b22e963d1)" style="fill: none; stroke: #d9534f; stroke-linecap: square"/>
   </g>
   <g id="line2d_20">
    <path d="M 81.469943 50.790215 
L 85.087595 60.109818 
L 88.705246 51.563447 
L 92.322898 48.813614 
L 95.940549 59.094198 
L 99.558201 49.108731 
L 103.175852 53.647612 
L 106.793504 55.586944 
L 110.411155 51.259996 
L 121.26411 53.238124 
L 139.352367 62.571287 
L 157.440625 60.801081 
L 175.528883 69.647726 
L 193.61714 61.486682 
L 211.705398 57.732507 
L 229.793655 53.876353 
L 247.881913 62.589474 
L 265.97017 61.853885 
L 284.058428 59.209301 
L 302.146686 56.174779 
L 320.234943 65.867707 
L 338.323201 65.903217 
L 356.411458 59.490664 
L 374.499716 59.703103 
L 392.587973 64.95476 
L 410.676231 63.34237 
L 428.764489 59.965733 
L 446.852746 56.647123 
L 464.941004 67.370164 
L 483.029261 68.135298 
L 501.117519 67.991345 
L 519.205777 72.716338 
L 537.294034 74.803893 
L 555.382292 87.616086 
L 573.470549 81.82773 
L 591.558807 76.612741 
L 609.647064 79.759577 
L 627.735322 87.230882 
L 645.82358 95.368007 
L 663.911837 96.727207 
L 682.000095 104.602389 
L 700.088352 148.855578 
L 718.17661 191.238212 
L 736.264867 205.556726 
L 754.353125 208.189775 
L 772.441383 179.215143 
L 790.52964 197.938137 
L 808.617898 207.12698 
L 826.706155 198.071892 
L 844.794413 208.053327 
L 862.88267 211.699158 
L 880.970928 203.003271 
L 895.441534 227.839378 
" clip-path="url(#p9b22e963d1)" style="fill: none; stroke: #d9534f; stroke-linecap: square"/>
   </g>
   <g id="line2d_21">
    <path d="M 81.469943 48.943443 
L 85.087595 54.320018 
L 88.705246 47.967489 
L 92.322898 46.132693 
L 95.940549 51.083048 
L 99.558201 47.10151 
L 103.175852 50.263364 
L 106.793504 58.502337 
L 110.411155 52.236727 
L 121.26411 53.547745 
L 139.352367 62.137804 
L 157.440625 60.714926 
L 175.528883 61.170999 
L 193.61714 60.040761 
L 211.705398 57.296517 
L 229.793655 51.961699 
L 247.881913 58.358556 
L 265.97017 59.072419 
L 284.058428 57.83809 
L 302.146686 53.52694 
L 320.234943 62.938393 
L 338.323201 64.27954 
L 356.411458 60.148979 
L 374.499716 60.489542 
L 392.587973 65.338322 
L 410.676231 63.848975 
L 428.764489 55.775083 
L 446.852746 55.277115 
L 464.941004 62.076357 
L 483.029261 66.195799 
L 501.117519 66.974289 
L 519.205777 69.199874 
L 537.294034 75.037844 
L 555.382292 81.524374 
L 573.470549 81.05935 
L 591.558807 77.965612 
L 609.647064 79.05925 
L 627.735322 82.230437 
L 645.82358 89.860349 
L 663.911837 95.234906 
L 682.000095 99.305317 
L 700.088352 163.005925 
L 718.17661 208.139254 
L 736.264867 218.835746 
L 754.353125 221.145842 
L 772.441383 185.912885 
L 790.52964 198.78201 
L 808.617898 218.287258 
L 826.706155 205.846832 
L 844.794413 213.038356 
L 862.88267 220.042261 
L 880.970928 219.772491 
L 899.059186 220.712257 
L 917.147443 223.351931 
L 928.000398 194.843451 
" clip-path="url(#p9b22e963d1)" style="fill: none; stroke: #d9534f; stroke-linecap: square"/>
   </g>
   <g id="line2d_22">
    <path d="M 81.469943 50.130937 
L 85.087595 64.684887 
L 88.705246 49.775689 
L 92.322898 47.748988 
L 95.940549 54.024107 
L 99.558201 48.862032 
L 103.175852 53.211212 
L 106.793504 53.594639 
L 110.411155 49.362103 
L 121.26411 54.835964 
L 139.352367 62.50596 
L 157.440625 62.43003 
L 175.528883 70.354568 
L 193.61714 66.642375 
L 211.705398 58.515619 
L 229.793655 53.430154 
L 247.881913 64.213202 
L 265.97017 64.080946 
L 284.058428 55.923603 
L 302.146686 55.202244 
L 320.234943 66.89983 
L 338.323201 66.181395 
L 356.411458 62.59181 
L 374.499716 58.778307 
L 392.587973 63.665127 
L 410.676231 63.216909 
L 428.764489 58.354166 
L 446.852746 58.520588 
L 464.941004 77.681437 
L 483.029261 90.475115 
L 501.117519 95.361697 
L 519.205777 98.741844 
L 537.294034 105.907266 
L 555.382292 108.901082 
L 573.470549 113.173495 
L 591.558807 112.681928 
L 609.647064 114.255399 
L 627.735322 115.508428 
L 645.82358 131.632358 
L 663.911837 127.050776 
L 682.000095 134.409348 
L 700.088352 150.710947 
L 718.17661 192.734363 
L 736.264867 224.358702 
L 754.353125 219.922576 
L 772.441383 175.297401 
L 790.52964 205.339159 
L 808.617898 214.486236 
L 826.706155 201.309715 
L 844.794413 213.129312 
L 862.88267 218.502738 
L 880.970928 219.5962 
L 899.059186 229.616758 
L 917.147443 227.047475 
L 931.618049 235.7584 
" clip-path="url(#p9b22e963d1)" style="fill: none; stroke: #d9534f; stroke-linecap: square"/>
   </g>
   <g id="line2d_23">
    <path d="M 81.469943 50.469931 
L 85.087595 53.905379 
L 88.705246 49.631096 
L 92.322898 47.461143 
L 95.940549 57.141417 
L 99.558201 50.791011 
L 103.175852 53.275402 
L 106.793504 61.620785 
L 110.411155 51.521294 
L 121.26411 53.344812 
L 139.352367 64.150426 
L 157.440625 63.351981 
L 175.528883 61.381332 
L 193.61714 60.641996 
L 211.705398 56.687805 
L 229.793655 51.215715 
L 247.881913 55.987624 
L 265.97017 58.287018 
L 284.058428 56.758043 
L 302.146686 52.858222 
L 320.234943 66.260223 
L 338.323201 63.862645 
L 356.411458 58.837745 
L 374.499716 63.479392 
L 392.587973 66.517834 
L 410.676231 66.772649 
L 428.764489 55.561104 
L 446.852746 55.593475 
L 464.941004 61.253155 
L 483.029261 63.789928 
L 501.117519 57.783677 
L 519.205777 59.115148 
L 537.294034 61.694894 
L 555.382292 73.201013 
L 573.470549 64.899341 
L 591.558807 66.517273 
L 609.647064 65.81268 
L 627.735322 69.505364 
L 645.82358 77.117697 
L 663.911837 83.383945 
L 682.000095 88.812538 
L 700.088352 149.691356 
L 718.17661 201.804281 
L 736.264867 176.639562 
L 754.353125 198.775116 
L 772.441383 203.635512 
L 790.52964 194.997076 
L 808.617898 204.46829 
L 826.706155 208.226886 
L 844.794413 205.739618 
L 862.88267 210.417119 
L 880.970928 216.820566 
L 891.823883 258.19563 
" clip-path="url(#p9b22e963d1)" style="fill: none; stroke: #d9534f; stroke-linecap: square"/>
   </g>
   <g id="line2d_24">
    <path d="M 81.469943 60.997991 
L 85.087595 60.263717 
L 88.705246 52.349092 
L 92.322898 48.567007 
L 95.940549 56.965009 
L 99.558201 50.358741 
L 103.175852 56.455354 
L 106.793504 60.168559 
L 110.411155 63.577103 
L 121.26411 56.874985 
L 139.352367 66.977116 
L 157.440625 64.881172 
L 175.528883 69.573259 
L 193.61714 66.524403 
L 211.705398 59.993327 
L 229.793655 53.259346 
L 247.881913 63.887547 
L 265.97017 61.655358 
L 284.058428 59.80444 
L 302.146686 61.144956 
L 320.234943 73.368681 
L 338.323201 68.88304 
L 356.411458 64.243871 
L 374.499716 74.499915 
L 392.587973 81.845053 
L 410.676231 84.00017 
L 428.764489 71.517697 
L 446.852746 71.994324 
L 464.941004 77.285763 
L 483.029261 76.747667 
L 501.117519 77.972051 
L 519.205777 75.366039 
L 537.294034 81.769118 
L 555.382292 96.124896 
L 573.470549 80.869537 
L 591.558807 79.456516 
L 609.647064 84.910295 
L 627.735322 87.260224 
L 645.82358 101.152436 
L 663.911837 98.439652 
L 682.000095 103.744754 
L 700.088352 197.12477 
L 718.17661 218.755829 
L 736.264867 176.732176 
L 754.353125 205.549797 
L 772.441383 210.184552 
L 790.52964 198.494177 
L 808.617898 209.053696 
L 826.706155 215.057497 
L 844.794413 216.499809 
L 862.88267 221.667803 
L 880.970928 215.662877 
L 891.823883 202.762473 
" clip-path="url(#p9b22e963d1)" style="fill: none; stroke: #d9534f; stroke-linecap: square"/>
   </g>
   <g id="line2d_25">
    <path d="M 81.469943 49.965128 
L 85.087595 55.525047 
L 88.705246 49.134629 
L 92.322898 47.719448 
L 95.940549 58.078904 
L 99.558201 49.139238 
L 103.175852 52.677317 
L 106.793504 57.391927 
L 110.411155 49.841671 
L 121.26411 52.383809 
L 139.352367 62.394536 
L 157.440625 63.591289 
L 175.528883 67.765653 
L 193.61714 62.111426 
L 211.705398 56.88052 
L 229.793655 52.197931 
L 247.881913 58.794169 
L 265.97017 56.594156 
L 284.058428 55.922642 
L 302.146686 53.513003 
L 320.234943 62.476928 
L 338.323201 63.510465 
L 356.411458 56.959197 
L 374.499716 58.591771 
L 392.587973 64.45156 
L 410.676231 61.731491 
L 428.764489 57.388043 
L 446.852746 55.051939 
L 464.941004 62.506161 
L 483.029261 59.256946 
L 501.117519 57.804023 
L 519.205777 59.413463 
L 537.294034 61.796611 
L 555.382292 74.571174 
L 573.470549 66.060028 
L 591.558807 62.56122 
L 609.647064 66.65494 
L 627.735322 68.939885 
L 645.82358 76.636669 
L 663.911837 80.567928 
L 682.000095 83.088679 
L 700.088352 147.811301 
L 718.17661 198.409832 
L 736.264867 180.425423 
L 754.353125 199.400084 
L 772.441383 200.312307 
L 790.52964 194.808048 
L 808.617898 204.73752 
L 826.706155 207.697253 
L 844.794413 208.506289 
L 862.88267 209.734027 
L 880.970928 216.795789 
L 895.441534 225.319689 
" clip-path="url(#p9b22e963d1)" style="fill: none; stroke: #d9534f; stroke-linecap: square"/>
   </g>
   <g id="line2d_26">
    <path d="M 81.469943 54.772191 
L 85.087595 72.912717 
L 88.705246 61.673597 
L 92.322898 52.474833 
L 95.940549 67.706143 
L 99.558201 54.641476 
L 103.175852 62.672953 
L 106.793504 63.776054 
L 110.411155 53.887632 
L 121.26411 59.561868 
L 139.352367 71.72826 
L 157.440625 69.581187 
L 175.528883 84.788763 
L 193.61714 95.275964 
L 211.705398 91.896319 
L 229.793655 86.668623 
L 247.881913 96.648604 
L 265.97017 95.583056 
L 284.058428 100.872034 
L 302.146686 96.556167 
L 320.234943 100.402264 
L 338.323201 111.034182 
L 356.411458 102.84761 
L 374.499716 103.357575 
L 392.587973 95.288464 
L 410.676231 103.096972 
L 428.764489 102.751246 
L 446.852746 88.000051 
L 464.941004 91.710856 
L 483.029261 102.275887 
L 501.117519 105.637005 
L 519.205777 109.313851 
L 537.294034 109.245403 
L 555.382292 127.664458 
L 573.470549 129.539765 
L 591.558807 121.026597 
L 609.647064 123.749098 
L 627.735322 129.184572 
L 645.82358 136.480656 
L 663.911837 141.581868 
L 682.000095 147.725936 
L 700.088352 192.04348 
L 718.17661 213.552159 
L 736.264867 216.111311 
L 754.353125 194.693204 
L 772.441383 207.997624 
L 790.52964 214.089689 
L 808.617898 210.733004 
L 826.706155 214.220425 
L 844.794413 215.463184 
L 862.88267 218.104645 
L 880.970928 219.119539 
L 899.059186 216.752746 
" clip-path="url(#p9b22e963d1)" style="fill: none; stroke: #d9534f; stroke-linecap: square"/>
   </g>
   <g id="line2d_27">
    <path d="M 81.469943 51.695118 
L 85.087595 59.942589 
L 88.705246 56.893443 
L 92.322898 50.205566 
L 95.940549 58.420962 
L 99.558201 50.768786 
L 103.175852 56.4035 
L 106.793504 55.784137 
L 110.411155 49.415981 
L 121.26411 54.459299 
L 139.352367 65.854142 
L 157.440625 62.026647 
L 175.528883 70.859213 
L 193.61714 64.050237 
L 211.705398 60.133215 
L 229.793655 55.199495 
L 247.881913 64.293391 
L 265.97017 62.888603 
L 284.058428 62.142315 
L 302.146686 62.267086 
L 320.234943 69.113418 
L 338.323201 68.608281 
L 356.411458 63.703059 
L 374.499716 63.464115 
L 392.587973 66.69954 
L 410.676231 65.360204 
L 428.764489 63.024394 
L 446.852746 61.106321 
L 464.941004 71.361921 
L 483.029261 66.386392 
L 501.117519 65.021992 
L 519.205777 65.212734 
L 537.294034 68.211204 
L 555.382292 82.395171 
L 573.470549 77.371126 
L 591.558807 72.285169 
L 609.647064 83.646971 
L 627.735322 90.930686 
L 645.82358 90.91741 
L 663.911837 104.234583 
L 682.000095 101.541187 
L 700.088352 140.362902 
L 718.17661 187.899492 
L 736.264867 193.313484 
L 754.353125 188.321971 
L 772.441383 193.745018 
L 790.52964 195.600151 
L 808.617898 197.45441 
L 826.706155 190.968924 
L 844.794413 200.172502 
L 862.88267 200.806687 
L 880.970928 206.496529 
L 891.823883 218.600518 
" clip-path="url(#p9b22e963d1)" style="fill: none; stroke: #d9534f; stroke-linecap: square"/>
   </g>
   <g id="line2d_28">
    <path d="M 81.469943 49.830775 
L 85.087595 53.112379 
L 88.705246 48.095475 
L 92.322898 46.755253 
L 95.940549 52.996648 
L 99.558201 48.028403 
L 103.175852 51.688717 
L 106.793504 60.220124 
L 110.411155 50.566852 
L 121.26411 53.845813 
L 139.352367 64.360857 
L 157.440625 66.181674 
L 175.528883 62.246824 
L 193.61714 61.594452 
L 211.705398 55.737894 
L 229.793655 50.377326 
L 247.881913 55.501821 
L 265.97017 57.360791 
L 284.058428 56.747921 
L 302.146686 52.448118 
L 320.234943 64.651439 
L 338.323201 63.381916 
L 356.411458 58.350957 
L 374.499716 63.455369 
L 392.587973 66.982545 
L 410.676231 67.530003 
L 428.764489 54.60173 
L 446.852746 56.065634 
L 464.941004 61.181415 
L 483.029261 64.002826 
L 501.117519 58.882865 
L 519.205777 60.147323 
L 537.294034 64.863537 
L 555.382292 74.446728 
L 573.470549 65.969588 
L 591.558807 67.583207 
L 609.647064 69.081195 
L 627.735322 69.828972 
L 645.82358 80.642914 
L 663.911837 87.314774 
L 682.000095 89.490387 
L 700.088352 144.852121 
L 718.17661 190.669481 
L 736.264867 181.824727 
L 754.353125 200.062157 
L 772.441383 194.988505 
L 790.52964 193.858424 
L 808.617898 202.767188 
L 826.706155 205.275815 
L 844.794413 208.954797 
L 862.88267 211.648347 
L 880.970928 216.116146 
L 891.823883 202.762473 
" clip-path="url(#p9b22e963d1)" style="fill: none; stroke: #d9534f; stroke-linecap: square"/>
   </g>
   <g id="line2d_29">
    <path d="M 81.469943 48.621578 
L 85.087595 49.926334 
L 88.705246 47.566115 
L 92.322898 45.872078 
L 95.940549 50.496186 
L 99.558201 47.466041 
L 103.175852 50.591533 
L 106.793504 59.782801 
L 110.411155 51.687266 
L 121.26411 53.187345 
L 139.352367 63.82177 
L 157.440625 63.031638 
L 175.528883 57.111719 
L 193.61714 58.526958 
L 211.705398 54.857016 
L 229.793655 49.462772 
L 247.881913 53.792723 
L 265.97017 55.19032 
L 284.058428 56.262533 
L 302.146686 51.995525 
L 320.234943 62.942989 
L 338.323201 61.575861 
L 356.411458 56.891039 
L 374.499716 62.255643 
L 392.587973 64.561133 
L 410.676231 64.334164 
L 428.764489 53.145059 
L 446.852746 53.268199 
L 464.941004 56.888916 
L 483.029261 60.434345 
L 501.117519 55.790775 
L 519.205777 56.937133 
L 537.294034 61.009861 
L 555.382292 70.579083 
L 573.470549 62.521777 
L 591.558807 63.085983 
L 609.647064 64.284288 
L 627.735322 64.453299 
L 645.82358 74.975733 
L 663.911837 81.102418 
L 682.000095 82.100324 
L 700.088352 171.134692 
L 718.17661 213.706199 
L 736.264867 182.015799 
L 754.353125 206.335791 
L 772.441383 200.685524 
L 790.52964 192.478082 
L 808.617898 208.933521 
L 826.706155 208.488596 
L 844.794413 210.124745 
L 862.88267 214.54136 
L 880.970928 209.418362 
L 891.823883 155.248338 
" clip-path="url(#p9b22e963d1)" style="fill: none; stroke: #d9534f; stroke-linecap: square"/>
   </g>
   <g id="line2d_30">
    <path d="M 81.469943 50.307185 
L 85.087595 62.442592 
L 88.705246 50.753201 
L 92.322898 48.158494 
L 95.940549 56.231282 
L 99.558201 49.857754 
L 103.175852 54.325303 
L 106.793504 54.208257 
L 110.411155 49.136169 
L 121.26411 54.577731 
L 139.352367 64.188693 
L 157.440625 63.314472 
L 175.528883 68.312068 
L 193.61714 65.93738 
L 211.705398 58.658229 
L 229.793655 54.272797 
L 247.881913 64.260017 
L 265.97017 62.730711 
L 284.058428 56.564148 
L 302.146686 56.603835 
L 320.234943 66.733861 
L 338.323201 65.243894 
L 356.411458 61.760391 
L 374.499716 59.662381 
L 392.587973 64.316989 
L 410.676231 64.376447 
L 428.764489 60.591793 
L 446.852746 59.118183 
L 464.941004 73.986154 
L 483.029261 78.087341 
L 501.117519 81.50655 
L 519.205777 81.840435 
L 537.294034 88.724978 
L 555.382292 97.657075 
L 573.470549 95.349648 
L 591.558807 93.114183 
L 609.647064 96.645422 
L 627.735322 98.54407 
L 645.82358 111.812312 
L 663.911837 108.646628 
L 682.000095 117.673707 
L 700.088352 152.982788 
L 718.17661 194.164083 
L 736.264867 219.978661 
L 754.353125 217.284566 
L 772.441383 174.380633 
L 790.52964 203.135908 
L 808.617898 212.481443 
L 826.706155 199.391971 
L 844.794413 212.064276 
L 862.88267 217.523688 
L 880.970928 214.287132 
L 899.059186 244.243067 
L 917.147443 223.351931 
L 928.000398 194.843451 
" clip-path="url(#p9b22e963d1)" style="fill: none; stroke: #d9534f; stroke-linecap: square"/>
   </g>
   <g id="line2d_31">
    <path d="M 81.469943 50.437569 
L 85.087595 52.335815 
L 88.705246 48.494535 
L 92.322898 46.432541 
L 95.940549 52.297756 
L 99.558201 48.255642 
L 103.175852 52.680658 
L 106.793504 61.382868 
L 110.411155 49.86445 
L 121.26411 53.872155 
L 139.352367 65.508831 
L 157.440625 66.424901 
L 175.528883 59.857437 
L 193.61714 61.267422 
L 211.705398 56.000575 
L 229.793655 50.456239 
L 247.881913 55.552503 
L 265.97017 56.578023 
L 284.058428 57.333837 
L 302.146686 52.281464 
L 320.234943 67.874223 
L 338.323201 63.663036 
L 356.411458 58.481944 
L 374.499716 64.793991 
L 392.587973 67.546749 
L 410.676231 67.778673 
L 428.764489 54.443905 
L 446.852746 55.744207 
L 464.941004 58.88892 
L 483.029261 65.329323 
L 501.117519 58.667694 
L 519.205777 59.132596 
L 537.294034 63.949715 
L 555.382292 72.075548 
L 573.470549 62.76941 
L 591.558807 66.050688 
L 609.647064 67.050342 
L 627.735322 66.888928 
L 645.82358 77.387295 
L 663.911837 85.387843 
L 682.000095 86.730937 
L 700.088352 185.005968 
L 718.17661 212.156264 
L 736.264867 180.836195 
L 754.353125 204.202056 
L 772.441383 198.02551 
L 790.52964 194.533648 
L 808.617898 205.491388 
L 826.706155 206.664662 
L 844.794413 207.745493 
L 862.88267 216.539584 
L 880.970928 214.966709 
L 891.823883 242.357585 
" clip-path="url(#p9b22e963d1)" style="fill: none; stroke: #d9534f; stroke-linecap: square"/>
   </g>
   <g id="line2d_32">
    <path d="M 81.469943 49.867459 
L 85.087595 51.016315 
L 88.705246 47.775393 
L 92.322898 46.024116 
L 95.940549 50.949521 
L 99.558201 47.638098 
L 103.175852 51.152694 
L 106.793504 59.799394 
L 110.411155 49.395145 
L 121.26411 52.935689 
L 139.352367 63.373037 
L 157.440625 64.744018 
L 175.528883 57.525745 
L 193.61714 59.227022 
L 211.705398 54.059859 
L 229.793655 49.082529 
L 247.881913 53.50818 
L 265.97017 54.938273 
L 284.058428 55.63394 
L 302.146686 50.542086 
L 320.234943 63.952441 
L 338.323201 61.680037 
L 356.411458 56.8971 
L 374.499716 62.729916 
L 392.587973 65.204449 
L 410.676231 65.982896 
L 428.764489 52.050335 
L 446.852746 53.105955 
L 464.941004 56.357003 
L 483.029261 62.250139 
L 501.117519 55.986347 
L 519.205777 57.869097 
L 537.294034 61.665113 
L 555.382292 69.880956 
L 573.470549 61.658704 
L 591.558807 63.925229 
L 609.647064 63.90559 
L 627.735322 64.868467 
L 645.82358 73.9147 
L 663.911837 81.405796 
L 682.000095 82.193519 
L 700.088352 177.552298 
L 718.17661 205.687267 
L 736.264867 191.533361 
L 754.353125 208.954126 
L 772.441383 192.22919 
L 790.52964 194.895013 
L 808.617898 209.545589 
L 826.706155 207.735142 
L 844.794413 211.770073 
L 862.88267 215.901714 
L 880.970928 221.215611 
" clip-path="url(#p9b22e963d1)" style="fill: none; stroke: #d9534f; stroke-linecap: square"/>
   </g>
   <g id="line2d_33">
    <path d="M 81.469943 50.059372 
L 85.087595 67.28528 
L 88.705246 50.659443 
L 92.322898 47.950621 
L 95.940549 53.078505 
L 99.558201 48.588248 
L 103.175852 53.955345 
L 106.793504 55.834803 
L 110.411155 49.247369 
L 121.26411 55.018407 
L 139.352367 64.240154 
L 157.440625 63.63654 
L 175.528883 68.126206 
L 193.61714 64.698693 
L 211.705398 58.64785 
L 229.793655 54.045243 
L 247.881913 63.593362 
L 265.97017 63.18713 
L 284.058428 56.269864 
L 302.146686 54.984855 
L 320.234943 65.456393 
L 338.323201 65.252657 
L 356.411458 62.515478 
L 374.499716 60.940177 
L 392.587973 64.103275 
L 410.676231 64.116549 
L 428.764489 58.388843 
L 446.852746 57.812945 
L 464.941004 74.577719 
L 483.029261 86.652378 
L 501.117519 89.81857 
L 519.205777 93.102923 
L 537.294034 96.966022 
L 555.382292 102.20705 
L 573.470549 107.439941 
L 591.558807 105.863128 
L 609.647064 106.427548 
L 627.735322 108.49015 
L 645.82358 119.673058 
L 663.911837 118.400829 
L 682.000095 123.488868 
L 700.088352 153.305297 
L 718.17661 196.995453 
L 736.264867 224.862999 
L 754.353125 217.919691 
L 772.441383 174.000606 
L 790.52964 205.853019 
L 808.617898 214.101285 
L 826.706155 201.435831 
L 844.794413 213.808887 
L 862.88267 219.265247 
L 880.970928 217.611512 
L 895.441534 242.88552 
" clip-path="url(#p9b22e963d1)" style="fill: none; stroke: #d9534f; stroke-linecap: square"/>
   </g>
   <g id="line2d_34">
    <path d="M 81.469943 54.538799 
L 85.087595 61.792241 
L 88.705246 52.346758 
L 92.322898 48.292755 
L 95.940549 57.087864 
L 99.558201 51.080518 
L 103.175852 58.657057 
L 106.793504 67.43309 
L 110.411155 53.48391 
L 121.26411 59.407036 
L 139.352367 72.33216 
L 157.440625 73.44916 
L 175.528883 68.991184 
L 193.61714 69.983383 
L 211.705398 62.099329 
L 229.793655 54.71149 
L 247.881913 62.762224 
L 265.97017 64.773711 
L 284.058428 62.925101 
L 302.146686 58.985646 
L 320.234943 74.043818 
L 338.323201 71.176863 
L 356.411458 67.485052 
L 374.499716 72.076195 
L 392.587973 76.910256 
L 410.676231 76.050625 
L 428.764489 60.515823 
L 446.852746 62.407023 
L 464.941004 72.973078 
L 483.029261 83.15199 
L 501.117519 77.546703 
L 519.205777 77.828745 
L 537.294034 82.792164 
L 555.382292 93.196204 
L 573.470549 87.053764 
L 591.558807 91.72927 
L 609.647064 90.968771 
L 627.735322 91.980283 
L 645.82358 103.417855 
L 663.911837 110.46592 
L 682.000095 115.050794 
L 700.088352 168.706061 
L 718.17661 201.73913 
L 736.264867 207.472525 
L 754.353125 210.993351 
L 772.441383 186.492321 
L 790.52964 205.03667 
L 808.617898 210.243368 
L 826.706155 206.286631 
L 844.794413 211.925729 
L 862.88267 212.51296 
L 880.970928 211.729171 
L 899.059186 196.200997 
L 917.147443 180.58921 
L 928.000398 202.762473 
" clip-path="url(#p9b22e963d1)" style="fill: none; stroke: #d9534f; stroke-linecap: square"/>
   </g>
   <g id="line2d_35">
    <path d="M 81.469943 52.61764 
L 85.087595 75.223463 
L 88.705246 53.084816 
L 92.322898 50.017285 
L 95.940549 58.171632 
L 99.558201 50.202259 
L 103.175852 58.345417 
L 106.793504 57.480203 
L 110.411155 52.657862 
L 121.26411 57.074602 
L 139.352367 68.085218 
L 157.440625 67.241887 
L 175.528883 72.066631 
L 193.61714 68.768392 
L 211.705398 61.240742 
L 229.793655 55.858803 
L 247.881913 66.588136 
L 265.97017 67.207719 
L 284.058428 58.95976 
L 302.146686 57.956624 
L 320.234943 70.696233 
L 338.323201 68.211467 
L 356.411458 65.356977 
L 374.499716 61.699402 
L 392.587973 67.293793 
L 410.676231 66.725491 
L 428.764489 61.370064 
L 446.852746 60.760834 
L 464.941004 81.757329 
L 483.029261 95.978544 
L 501.117519 99.439332 
L 519.205777 103.247702 
L 537.294034 112.308887 
L 555.382292 115.954755 
L 573.470549 118.38758 
L 591.558807 120.343452 
L 609.647064 120.323866 
L 627.735322 126.184016 
L 645.82358 136.76994 
L 663.911837 134.839732 
L 682.000095 143.204186 
L 700.088352 164.742887 
L 718.17661 201.63461 
L 736.264867 224.443005 
L 754.353125 218.805158 
L 772.441383 181.451037 
L 790.52964 207.282256 
L 808.617898 216.611428 
L 826.706155 205.894474 
L 844.794413 214.635146 
L 862.88267 218.203212 
L 880.970928 218.023643 
L 899.059186 193.523614 
L 917.147443 212.2653 
L 931.618049 200.782717 
" clip-path="url(#p9b22e963d1)" style="fill: none; stroke: #d9534f; stroke-linecap: square"/>
   </g>
   <g id="line2d_36">
    <path d="M 81.469943 50.90315 
L 85.087595 56.276932 
L 88.705246 50.234143 
L 92.322898 49.66437 
L 95.940549 56.322416 
L 99.558201 50.241368 
L 103.175852 55.133954 
L 106.793504 59.54628 
L 110.411155 59.181731 
L 121.26411 56.305075 
L 139.352367 66.327991 
L 157.440625 62.762991 
L 175.528883 65.419722 
L 193.61714 62.558265 
L 211.705398 60.683664 
L 229.793655 52.6833 
L 247.881913 59.013081 
L 265.97017 58.010621 
L 284.058428 60.058883 
L 302.146686 57.489409 
L 320.234943 63.476213 
L 338.323201 64.305906 
L 356.411458 58.281145 
L 374.499716 60.77851 
L 392.587973 66.952761 
L 410.676231 62.09415 
L 428.764489 61.393507 
L 446.852746 55.702366 
L 464.941004 60.542803 
L 483.029261 57.808494 
L 501.117519 62.323952 
L 519.205777 62.87576 
L 537.294034 65.897986 
L 555.382292 82.490569 
L 573.470549 72.60947 
L 591.558807 68.03521 
L 609.647064 73.270929 
L 627.735322 77.37758 
L 645.82358 86.850787 
L 663.911837 92.407368 
L 682.000095 94.930106 
L 700.088352 161.260049 
L 718.17661 188.499179 
L 736.264867 181.982703 
L 754.353125 198.490598 
L 772.441383 210.424232 
L 790.52964 185.755767 
L 808.617898 202.288867 
L 826.706155 208.631762 
L 844.794413 203.668643 
L 862.88267 213.685145 
L 880.970928 215.086784 
L 891.823883 242.357585 
" clip-path="url(#p9b22e963d1)" style="fill: none; stroke: #d9534f; stroke-linecap: square"/>
   </g>
   <g id="line2d_37">
    <path d="M 81.469943 49.401457 
L 85.087595 50.684001 
L 88.705246 48.096581 
L 92.322898 46.039188 
L 95.940549 50.561066 
L 99.558201 47.570793 
L 103.175852 50.965491 
L 106.793504 59.391683 
L 110.411155 52.175007 
L 121.26411 53.33674 
L 139.352367 63.391357 
L 157.440625 62.82879 
L 175.528883 57.796499 
L 193.61714 58.51491 
L 211.705398 55.163138 
L 229.793655 49.879889 
L 247.881913 54.732946 
L 265.97017 55.454618 
L 284.058428 56.277514 
L 302.146686 51.529265 
L 320.234943 63.777724 
L 338.323201 62.269823 
L 356.411458 57.668275 
L 374.499716 63.267364 
L 392.587973 65.111139 
L 410.676231 66.198209 
L 428.764489 53.777132 
L 446.852746 54.934136 
L 464.941004 57.704461 
L 483.029261 61.954805 
L 501.117519 57.254926 
L 519.205777 58.106552 
L 537.294034 61.896322 
L 555.382292 71.481869 
L 573.470549 64.362012 
L 591.558807 63.998397 
L 609.647064 64.631807 
L 627.735322 66.914506 
L 645.82358 76.320059 
L 663.911837 82.702791 
L 682.000095 84.965742 
L 700.088352 150.930035 
L 718.17661 197.120364 
L 736.264867 190.392664 
L 754.353125 206.541278 
L 772.441383 192.269844 
L 790.52964 196.603125 
L 808.617898 207.120609 
L 826.706155 205.874467 
L 844.794413 209.527943 
L 862.88267 213.570632 
L 880.970928 202.707356 
L 899.059186 190.167456 
L 917.147443 207.513887 
L 935.235701 204.346278 
L 949.706307 242.357585 
" clip-path="url(#p9b22e963d1)" style="fill: none; stroke: #d9534f; stroke-linecap: square"/>
   </g>
   <g id="line2d_38">
    <path d="M 81.469943 71.569599 
L 85.087595 113.505151 
L 88.705246 94.845754 
L 92.322898 79.45656 
L 95.940549 103.630418 
L 99.558201 87.407644 
L 103.175852 87.952678 
L 106.793504 125.431776 
L 110.411155 95.679335 
L 121.26411 97.519626 
L 139.352367 105.002622 
L 157.440625 118.288625 
L 175.528883 134.973076 
L 193.61714 126.040931 
L 211.705398 122.879735 
L 229.793655 106.765967 
L 247.881913 124.861093 
L 265.97017 125.636965 
L 284.058428 127.926108 
L 302.146686 121.013795 
L 320.234943 138.409996 
L 338.323201 134.665292 
L 356.411458 126.771918 
L 374.499716 137.704658 
L 392.587973 141.667375 
L 410.676231 128.40702 
L 428.764489 119.436403 
L 446.852746 114.826057 
L 464.941004 128.836635 
L 483.029261 130.734635 
L 501.117519 132.64546 
L 519.205777 132.94042 
L 537.294034 131.042419 
L 555.382292 148.060302 
L 573.470549 144.82216 
L 591.558807 152.003783 
L 609.647064 148.509154 
L 627.735322 146.316194 
L 645.82358 158.095339 
L 663.911837 170.797836 
L 682.000095 170.327442 
L 700.088352 205.447078 
L 718.17661 218.525301 
L 736.264867 190.41146 
L 754.353125 206.089793 
L 772.441383 205.211381 
L 790.52964 213.143713 
L 808.617898 214.261692 
L 826.706155 221.501941 
L 844.794413 219.49224 
L 862.88267 218.720302 
L 880.970928 220.04699 
L 891.823883 242.357585 
" clip-path="url(#p9b22e963d1)" style="fill: none; stroke: #d9534f; stroke-linecap: square"/>
   </g>
   <g id="line2d_39">
    <path d="M 38.058125 353.2239 
L 993.118125 353.2239 
" clip-path="url(#p9b22e963d1)" style="fill: none; stroke: #dedede; stroke-width: 2; stroke-linecap: square"/>
   </g>
   <g id="text_18">
    <!-- FastQC: Mean Quality Scores -->
    <g transform="translate(400.349375 19.3575) scale(0.16 -0.16)">
     <defs>
      <path id="DejaVuSans-46" d="M 628 4666 
L 3309 4666 
L 3309 4134 
L 1259 4134 
L 1259 2759 
L 3109 2759 
L 3109 2228 
L 1259 2228 
L 1259 0 
L 628 0 
L 628 4666 
z
" transform="scale(0.015625)"/>
      <path id="DejaVuSans-61" d="M 2194 1759 
Q 1497 1759 1228 1600 
Q 959 1441 959 1056 
Q 959 750 1161 570 
Q 1363 391 1709 391 
Q 2188 391 2477 730 
Q 2766 1069 2766 1631 
L 2766 1759 
L 2194 1759 
z
M 3341 1997 
L 3341 0 
L 2766 0 
L 2766 531 
Q 2569 213 2275 61 
Q 1981 -91 1556 -91 
Q 1019 -91 701 211 
Q 384 513 384 1019 
Q 384 1609 779 1909 
Q 1175 2209 1959 2209 
L 2766 2209 
L 2766 2266 
Q 2766 2663 2505 2880 
Q 2244 3097 1772 3097 
Q 1472 3097 1187 3025 
Q 903 2953 641 2809 
L 641 3341 
Q 956 3463 1253 3523 
Q 1550 3584 1831 3584 
Q 2591 3584 2966 3190 
Q 3341 2797 3341 1997 
z
" transform="scale(0.015625)"/>
      <path id="DejaVuSans-51" d="M 2522 4238 
Q 1834 4238 1429 3725 
Q 1025 3213 1025 2328 
Q 1025 1447 1429 934 
Q 1834 422 2522 422 
Q 3209 422 3611 934 
Q 4013 1447 4013 2328 
Q 4013 3213 3611 3725 
Q 3209 4238 2522 4238 
z
M 3406 84 
L 4238 -825 
L 3475 -825 
L 2784 -78 
Q 2681 -84 2626 -87 
Q 2572 -91 2522 -91 
Q 1538 -91 948 567 
Q 359 1225 359 2328 
Q 359 3434 948 4092 
Q 1538 4750 2522 4750 
Q 3503 4750 4090 4092 
Q 4678 3434 4678 2328 
Q 4678 1516 4351 937 
Q 4025 359 3406 84 
z
" transform="scale(0.015625)"/>
      <path id="DejaVuSans-43" d="M 4122 4306 
L 4122 3641 
Q 3803 3938 3442 4084 
Q 3081 4231 2675 4231 
Q 1875 4231 1450 3742 
Q 1025 3253 1025 2328 
Q 1025 1406 1450 917 
Q 1875 428 2675 428 
Q 3081 428 3442 575 
Q 3803 722 4122 1019 
L 4122 359 
Q 3791 134 3420 21 
Q 3050 -91 2638 -91 
Q 1578 -91 968 557 
Q 359 1206 359 2328 
Q 359 3453 968 4101 
Q 1578 4750 2638 4750 
Q 3056 4750 3426 4639 
Q 3797 4528 4122 4306 
z
" transform="scale(0.015625)"/>
      <path id="DejaVuSans-3a" d="M 750 794 
L 1409 794 
L 1409 0 
L 750 0 
L 750 794 
z
M 750 3309 
L 1409 3309 
L 1409 2516 
L 750 2516 
L 750 3309 
z
" transform="scale(0.015625)"/>
      <path id="DejaVuSans-4d" d="M 628 4666 
L 1569 4666 
L 2759 1491 
L 3956 4666 
L 4897 4666 
L 4897 0 
L 4281 0 
L 4281 4097 
L 3078 897 
L 2444 897 
L 1241 4097 
L 1241 0 
L 628 0 
L 628 4666 
z
" transform="scale(0.015625)"/>
      <path id="DejaVuSans-75" d="M 544 1381 
L 544 3500 
L 1119 3500 
L 1119 1403 
Q 1119 906 1312 657 
Q 1506 409 1894 409 
Q 2359 409 2629 706 
Q 2900 1003 2900 1516 
L 2900 3500 
L 3475 3500 
L 3475 0 
L 2900 0 
L 2900 538 
Q 2691 219 2414 64 
Q 2138 -91 1772 -91 
Q 1169 -91 856 284 
Q 544 659 544 1381 
z
M 1991 3584 
L 1991 3584 
z
" transform="scale(0.015625)"/>
      <path id="DejaVuSans-6c" d="M 603 4863 
L 1178 4863 
L 1178 0 
L 603 0 
L 603 4863 
z
" transform="scale(0.015625)"/>
      <path id="DejaVuSans-79" d="M 2059 -325 
Q 1816 -950 1584 -1140 
Q 1353 -1331 966 -1331 
L 506 -1331 
L 506 -850 
L 844 -850 
Q 1081 -850 1212 -737 
Q 1344 -625 1503 -206 
L 1606 56 
L 191 3500 
L 800 3500 
L 1894 763 
L 2988 3500 
L 3597 3500 
L 2059 -325 
z
" transform="scale(0.015625)"/>
     </defs>
     <use xlink:href="#DejaVuSans-46"/>
     <use xlink:href="#DejaVuSans-61" x="48.394531"/>
     <use xlink:href="#DejaVuSans-73" x="109.673828"/>
     <use xlink:href="#DejaVuSans-74" x="161.773438"/>
     <use xlink:href="#DejaVuSans-51" x="200.982422"/>
     <use xlink:href="#DejaVuSans-43" x="279.693359"/>
     <use xlink:href="#DejaVuSans-3a" x="349.517578"/>
     <use xlink:href="#DejaVuSans-20" x="383.208984"/>
     <use xlink:href="#DejaVuSans-4d" x="414.996094"/>
     <use xlink:href="#DejaVuSans-65" x="501.275391"/>
     <use xlink:href="#DejaVuSans-61" x="562.798828"/>
     <use xlink:href="#DejaVuSans-6e" x="624.078125"/>
     <use xlink:href="#DejaVuSans-20" x="687.457031"/>
     <use xlink:href="#DejaVuSans-51" x="719.244141"/>
     <use xlink:href="#DejaVuSans-75" x="797.955078"/>
     <use xlink:href="#DejaVuSans-61" x="861.333984"/>
     <use xlink:href="#DejaVuSans-6c" x="922.613281"/>
     <use xlink:href="#DejaVuSans-69" x="950.396484"/>
     <use xlink:href="#DejaVuSans-74" x="978.179688"/>
     <use xlink:href="#DejaVuSans-79" x="1017.388672"/>
     <use xlink:href="#DejaVuSans-20" x="1076.568359"/>
     <use xlink:href="#DejaVuSans-53" x="1108.355469"/>
     <use xlink:href="#DejaVuSans-63" x="1171.832031"/>
     <use xlink:href="#DejaVuSans-6f" x="1226.8125"/>
     <use xlink:href="#DejaVuSans-72" x="1287.994141"/>
     <use xlink:href="#DejaVuSans-65" x="1326.857422"/>
     <use xlink:href="#DejaVuSans-73" x="1388.380859"/>
    </g>
   </g>
  </g>
 </g>
 <defs>
  <clipPath id="p9b22e963d1">
   <rect x="38.058125" y="35.2559" width="955.06" height="317.968"/>
  </clipPath>
 </defs>
</svg>
