<?xml version="1.0" encoding="utf-8" standalone="no"?>
<!DOCTYPE svg PUBLIC "-//W3C//DTD SVG 1.1//EN"
  "http://www.w3.org/Graphics/SVG/1.1/DTD/svg11.dtd">
<svg xmlns:xlink="http://www.w3.org/1999/xlink" width="1000.300625pt" height="388.844525pt" viewBox="0 0 1000.300625 388.844525" xmlns="http://www.w3.org/2000/svg" version="1.1">
 <metadata>
  <rdf:RDF xmlns:dc="http://purl.org/dc/elements/1.1/" xmlns:cc="http://creativecommons.org/ns#" xmlns:rdf="http://www.w3.org/1999/02/22-rdf-syntax-ns#">
   <cc:Work>
    <dc:type rdf:resource="http://purl.org/dc/dcmitype/StillImage"/>
    <dc:date>2024-06-28T13:31:48.087306</dc:date>
    <dc:format>image/svg+xml</dc:format>
    <dc:creator>
     <cc:Agent>
      <dc:title>Matplotlib v3.7.1, https://matplotlib.org/</dc:title>
     </cc:Agent>
    </dc:creator>
   </cc:Work>
  </rdf:RDF>
 </metadata>
 <defs>
  <style type="text/css">*{stroke-linejoin: round; stroke-linecap: butt}</style>
 </defs>
 <g id="figure_1">
  <g id="axes_1">
   <g id="patch_1">
    <path d="M 45.690625 353.2239 
L 993.100625 353.2239 
L 993.100625 35.2559 
L 45.690625 35.2559 
z
" style="fill: #ffffff"/>
   </g>
   <g id="patch_2">
    <path d="M 45.690625 21.527037 
L 953.781238 21.527037 
L 953.781238 -1305.260413 
L 45.690625 -1305.260413 
z
" clip-path="url(#p6455b574b0)" style="fill: #e6c3c3"/>
   </g>
   <g id="patch_3">
    <path d="M 45.690625 270.299684 
L 953.781238 270.299684 
L 953.781238 21.527037 
L 45.690625 21.527037 
z
" clip-path="url(#p6455b574b0)" style="fill: #e6dcc3"/>
   </g>
   <g id="patch_4">
    <path d="M 45.690625 353.2239 
L 953.781238 353.2239 
L 953.781238 270.299684 
L 45.690625 270.299684 
z
" clip-path="url(#p6455b574b0)" style="fill: #c3e6c3"/>
   </g>
   <g id="matplotlib.axis_1">
    <g id="xtick_1">
     <g id="text_1">
      <!-- 0 -->
      <g transform="translate(82.465012 366.30265) scale(0.08 -0.08)">
       <defs>
        <path id="DejaVuSans-30" d="M 2034 4250 
Q 1547 4250 1301 3770 
Q 1056 3291 1056 2328 
Q 1056 1369 1301 889 
Q 1547 409 2034 409 
Q 2525 409 2770 889 
Q 3016 1369 3016 2328 
Q 3016 3291 2770 3770 
Q 2525 4250 2034 4250 
z
M 2034 4750 
Q 2819 4750 3233 4129 
Q 3647 3509 3647 2328 
Q 3647 1150 3233 529 
Q 2819 -91 2034 -91 
Q 1250 -91 836 529 
Q 422 1150 422 2328 
Q 422 3509 836 4129 
Q 1250 4750 2034 4750 
z
" transform="scale(0.015625)"/>
       </defs>
       <use xlink:href="#DejaVuSans-30"/>
      </g>
     </g>
    </g>
    <g id="xtick_2">
     <g id="text_2">
      <!-- 50 -->
      <g transform="translate(267.15519 366.30265) scale(0.08 -0.08)">
       <defs>
        <path id="DejaVuSans-35" d="M 691 4666 
L 3169 4666 
L 3169 4134 
L 1269 4134 
L 1269 2991 
Q 1406 3038 1543 3061 
Q 1681 3084 1819 3084 
Q 2600 3084 3056 2656 
Q 3513 2228 3513 1497 
Q 3513 744 3044 326 
Q 2575 -91 1722 -91 
Q 1428 -91 1123 -41 
Q 819 9 494 109 
L 494 744 
Q 775 591 1075 516 
Q 1375 441 1709 441 
Q 2250 441 2565 725 
Q 2881 1009 2881 1497 
Q 2881 1984 2565 2268 
Q 2250 2553 1709 2553 
Q 1456 2553 1204 2497 
Q 953 2441 691 2322 
L 691 4666 
z
" transform="scale(0.015625)"/>
       </defs>
       <use xlink:href="#DejaVuSans-35"/>
       <use xlink:href="#DejaVuSans-30" x="63.623047"/>
      </g>
     </g>
    </g>
    <g id="xtick_3">
     <g id="text_3">
      <!-- 100 -->
      <g transform="translate(451.845368 366.30265) scale(0.08 -0.08)">
       <defs>
        <path id="DejaVuSans-31" d="M 794 531 
L 1825 531 
L 1825 4091 
L 703 3866 
L 703 4441 
L 1819 4666 
L 2450 4666 
L 2450 531 
L 3481 531 
L 3481 0 
L 794 0 
L 794 531 
z
" transform="scale(0.015625)"/>
       </defs>
       <use xlink:href="#DejaVuSans-31"/>
       <use xlink:href="#DejaVuSans-30" x="63.623047"/>
       <use xlink:href="#DejaVuSans-30" x="127.246094"/>
      </g>
     </g>
    </g>
    <g id="xtick_4">
     <g id="text_4">
      <!-- 150 -->
      <g transform="translate(639.080546 366.30265) scale(0.08 -0.08)">
       <use xlink:href="#DejaVuSans-31"/>
       <use xlink:href="#DejaVuSans-35" x="63.623047"/>
       <use xlink:href="#DejaVuSans-30" x="127.246094"/>
      </g>
     </g>
    </g>
    <g id="xtick_5">
     <g id="text_5">
      <!-- 200 -->
      <g transform="translate(826.315724 366.30265) scale(0.08 -0.08)">
       <defs>
        <path id="DejaVuSans-32" d="M 1228 531 
L 3431 531 
L 3431 0 
L 469 0 
L 469 531 
Q 828 903 1448 1529 
Q 2069 2156 2228 2338 
Q 2531 2678 2651 2914 
Q 2772 3150 2772 3378 
Q 2772 3750 2511 3984 
Q 2250 4219 1831 4219 
Q 1534 4219 1204 4116 
Q 875 4013 500 3803 
L 500 4441 
Q 881 4594 1212 4672 
Q 1544 4750 1819 4750 
Q 2544 4750 2975 4387 
Q 3406 4025 3406 3419 
Q 3406 3131 3298 2873 
Q 3191 2616 2906 2266 
Q 2828 2175 2409 1742 
Q 1991 1309 1228 531 
z
" transform="scale(0.015625)"/>
       </defs>
       <use xlink:href="#DejaVuSans-32"/>
       <use xlink:href="#DejaVuSans-30" x="63.623047"/>
       <use xlink:href="#DejaVuSans-30" x="127.246094"/>
      </g>
     </g>
    </g>
    <g id="text_6">
     <!-- Position (bp) -->
     <g transform="translate(488.0925 379.564837) scale(0.1 -0.1)">
      <defs>
       <path id="DejaVuSans-50" d="M 1259 4147 
L 1259 2394 
L 2053 2394 
Q 2494 2394 2734 2622 
Q 2975 2850 2975 3272 
Q 2975 3691 2734 3919 
Q 2494 4147 2053 4147 
L 1259 4147 
z
M 628 4666 
L 2053 4666 
Q 2838 4666 3239 4311 
Q 3641 3956 3641 3272 
Q 3641 2581 3239 2228 
Q 2838 1875 2053 1875 
L 1259 1875 
L 1259 0 
L 628 0 
L 628 4666 
z
" transform="scale(0.015625)"/>
       <path id="DejaVuSans-6f" d="M 1959 3097 
Q 1497 3097 1228 2736 
Q 959 2375 959 1747 
Q 959 1119 1226 758 
Q 1494 397 1959 397 
Q 2419 397 2687 759 
Q 2956 1122 2956 1747 
Q 2956 2369 2687 2733 
Q 2419 3097 1959 3097 
z
M 1959 3584 
Q 2709 3584 3137 3096 
Q 3566 2609 3566 1747 
Q 3566 888 3137 398 
Q 2709 -91 1959 -91 
Q 1206 -91 779 398 
Q 353 888 353 1747 
Q 353 2609 779 3096 
Q 1206 3584 1959 3584 
z
" transform="scale(0.015625)"/>
       <path id="DejaVuSans-73" d="M 2834 3397 
L 2834 2853 
Q 2591 2978 2328 3040 
Q 2066 3103 1784 3103 
Q 1356 3103 1142 2972 
Q 928 2841 928 2578 
Q 928 2378 1081 2264 
Q 1234 2150 1697 2047 
L 1894 2003 
Q 2506 1872 2764 1633 
Q 3022 1394 3022 966 
Q 3022 478 2636 193 
Q 2250 -91 1575 -91 
Q 1294 -91 989 -36 
Q 684 19 347 128 
L 347 722 
Q 666 556 975 473 
Q 1284 391 1588 391 
Q 1994 391 2212 530 
Q 2431 669 2431 922 
Q 2431 1156 2273 1281 
Q 2116 1406 1581 1522 
L 1381 1569 
Q 847 1681 609 1914 
Q 372 2147 372 2553 
Q 372 3047 722 3315 
Q 1072 3584 1716 3584 
Q 2034 3584 2315 3537 
Q 2597 3491 2834 3397 
z
" transform="scale(0.015625)"/>
       <path id="DejaVuSans-69" d="M 603 3500 
L 1178 3500 
L 1178 0 
L 603 0 
L 603 3500 
z
M 603 4863 
L 1178 4863 
L 1178 4134 
L 603 4134 
L 603 4863 
z
" transform="scale(0.015625)"/>
       <path id="DejaVuSans-74" d="M 1172 4494 
L 1172 3500 
L 2356 3500 
L 2356 3053 
L 1172 3053 
L 1172 1153 
Q 1172 725 1289 603 
Q 1406 481 1766 481 
L 2356 481 
L 2356 0 
L 1766 0 
Q 1100 0 847 248 
Q 594 497 594 1153 
L 594 3053 
L 172 3053 
L 172 3500 
L 594 3500 
L 594 4494 
L 1172 4494 
z
" transform="scale(0.015625)"/>
       <path id="DejaVuSans-6e" d="M 3513 2113 
L 3513 0 
L 2938 0 
L 2938 2094 
Q 2938 2591 2744 2837 
Q 2550 3084 2163 3084 
Q 1697 3084 1428 2787 
Q 1159 2491 1159 1978 
L 1159 0 
L 581 0 
L 581 3500 
L 1159 3500 
L 1159 2956 
Q 1366 3272 1645 3428 
Q 1925 3584 2291 3584 
Q 2894 3584 3203 3211 
Q 3513 2838 3513 2113 
z
" transform="scale(0.015625)"/>
       <path id="DejaVuSans-20" transform="scale(0.015625)"/>
       <path id="DejaVuSans-28" d="M 1984 4856 
Q 1566 4138 1362 3434 
Q 1159 2731 1159 2009 
Q 1159 1288 1364 580 
Q 1569 -128 1984 -844 
L 1484 -844 
Q 1016 -109 783 600 
Q 550 1309 550 2009 
Q 550 2706 781 3412 
Q 1013 4119 1484 4856 
L 1984 4856 
z
" transform="scale(0.015625)"/>
       <path id="DejaVuSans-62" d="M 3116 1747 
Q 3116 2381 2855 2742 
Q 2594 3103 2138 3103 
Q 1681 3103 1420 2742 
Q 1159 2381 1159 1747 
Q 1159 1113 1420 752 
Q 1681 391 2138 391 
Q 2594 391 2855 752 
Q 3116 1113 3116 1747 
z
M 1159 2969 
Q 1341 3281 1617 3432 
Q 1894 3584 2278 3584 
Q 2916 3584 3314 3078 
Q 3713 2572 3713 1747 
Q 3713 922 3314 415 
Q 2916 -91 2278 -91 
Q 1894 -91 1617 61 
Q 1341 213 1159 525 
L 1159 0 
L 581 0 
L 581 4863 
L 1159 4863 
L 1159 2969 
z
" transform="scale(0.015625)"/>
       <path id="DejaVuSans-70" d="M 1159 525 
L 1159 -1331 
L 581 -1331 
L 581 3500 
L 1159 3500 
L 1159 2969 
Q 1341 3281 1617 3432 
Q 1894 3584 2278 3584 
Q 2916 3584 3314 3078 
Q 3713 2572 3713 1747 
Q 3713 922 3314 415 
Q 2916 -91 2278 -91 
Q 1894 -91 1617 61 
Q 1341 213 1159 525 
z
M 3116 1747 
Q 3116 2381 2855 2742 
Q 2594 3103 2138 3103 
Q 1681 3103 1420 2742 
Q 1159 2381 1159 1747 
Q 1159 1113 1420 752 
Q 1681 391 2138 391 
Q 2594 391 2855 752 
Q 3116 1113 3116 1747 
z
" transform="scale(0.015625)"/>
       <path id="DejaVuSans-29" d="M 513 4856 
L 1013 4856 
Q 1481 4119 1714 3412 
Q 1947 2706 1947 2009 
Q 1947 1309 1714 600 
Q 1481 -109 1013 -844 
L 513 -844 
Q 928 -128 1133 580 
Q 1338 1288 1338 2009 
Q 1338 2731 1133 3434 
Q 928 4138 513 4856 
z
" transform="scale(0.015625)"/>
      </defs>
      <use xlink:href="#DejaVuSans-50"/>
      <use xlink:href="#DejaVuSans-6f" x="56.677734"/>
      <use xlink:href="#DejaVuSans-73" x="117.859375"/>
      <use xlink:href="#DejaVuSans-69" x="169.958984"/>
      <use xlink:href="#DejaVuSans-74" x="197.742188"/>
      <use xlink:href="#DejaVuSans-69" x="236.951172"/>
      <use xlink:href="#DejaVuSans-6f" x="264.734375"/>
      <use xlink:href="#DejaVuSans-6e" x="325.916016"/>
      <use xlink:href="#DejaVuSans-20" x="389.294922"/>
      <use xlink:href="#DejaVuSans-28" x="421.082031"/>
      <use xlink:href="#DejaVuSans-62" x="460.095703"/>
      <use xlink:href="#DejaVuSans-70" x="523.572266"/>
      <use xlink:href="#DejaVuSans-29" x="587.048828"/>
     </g>
    </g>
   </g>
   <g id="matplotlib.axis_2">
    <g id="ytick_1">
     <g id="line2d_1">
      <path d="M 45.690625 353.2239 
L 993.100625 353.2239 
" clip-path="url(#p6455b574b0)" style="fill: none; stroke: #dedede; stroke-linecap: square"/>
     </g>
     <g id="text_7">
      <!-- 0.0 -->
      <g transform="translate(25.968125 356.263275) scale(0.08 -0.08)">
       <defs>
        <path id="DejaVuSans-2e" d="M 684 794 
L 1344 794 
L 1344 0 
L 684 0 
L 684 794 
z
" transform="scale(0.015625)"/>
       </defs>
       <use xlink:href="#DejaVuSans-30"/>
       <use xlink:href="#DejaVuSans-2e" x="63.623047"/>
       <use xlink:href="#DejaVuSans-30" x="95.410156"/>
      </g>
     </g>
    </g>
    <g id="ytick_2">
     <g id="line2d_2">
      <path d="M 45.690625 311.761792 
L 993.100625 311.761792 
" clip-path="url(#p6455b574b0)" style="fill: none; stroke: #dedede; stroke-linecap: square"/>
     </g>
     <g id="text_8">
      <!-- 2.5 -->
      <g transform="translate(25.968125 314.801167) scale(0.08 -0.08)">
       <use xlink:href="#DejaVuSans-32"/>
       <use xlink:href="#DejaVuSans-2e" x="63.623047"/>
       <use xlink:href="#DejaVuSans-35" x="95.410156"/>
      </g>
     </g>
    </g>
    <g id="ytick_3">
     <g id="line2d_3">
      <path d="M 45.690625 270.299684 
L 993.100625 270.299684 
" clip-path="url(#p6455b574b0)" style="fill: none; stroke: #dedede; stroke-linecap: square"/>
     </g>
     <g id="text_9">
      <!-- 5.0 -->
      <g transform="translate(25.968125 273.339059) scale(0.08 -0.08)">
       <use xlink:href="#DejaVuSans-35"/>
       <use xlink:href="#DejaVuSans-2e" x="63.623047"/>
       <use xlink:href="#DejaVuSans-30" x="95.410156"/>
      </g>
     </g>
    </g>
    <g id="ytick_4">
     <g id="line2d_4">
      <path d="M 45.690625 228.837577 
L 993.100625 228.837577 
" clip-path="url(#p6455b574b0)" style="fill: none; stroke: #dedede; stroke-linecap: square"/>
     </g>
     <g id="text_10">
      <!-- 7.5 -->
      <g transform="translate(25.968125 231.876952) scale(0.08 -0.08)">
       <defs>
        <path id="DejaVuSans-37" d="M 525 4666 
L 3525 4666 
L 3525 4397 
L 1831 0 
L 1172 0 
L 2766 4134 
L 525 4134 
L 525 4666 
z
" transform="scale(0.015625)"/>
       </defs>
       <use xlink:href="#DejaVuSans-37"/>
       <use xlink:href="#DejaVuSans-2e" x="63.623047"/>
       <use xlink:href="#DejaVuSans-35" x="95.410156"/>
      </g>
     </g>
    </g>
    <g id="ytick_5">
     <g id="line2d_5">
      <path d="M 45.690625 187.375469 
L 993.100625 187.375469 
" clip-path="url(#p6455b574b0)" style="fill: none; stroke: #dedede; stroke-linecap: square"/>
     </g>
     <g id="text_11">
      <!-- 10.0 -->
      <g transform="translate(20.878125 190.414844) scale(0.08 -0.08)">
       <use xlink:href="#DejaVuSans-31"/>
       <use xlink:href="#DejaVuSans-30" x="63.623047"/>
       <use xlink:href="#DejaVuSans-2e" x="127.246094"/>
       <use xlink:href="#DejaVuSans-30" x="159.033203"/>
      </g>
     </g>
    </g>
    <g id="ytick_6">
     <g id="line2d_6">
      <path d="M 45.690625 145.913361 
L 993.100625 145.913361 
" clip-path="url(#p6455b574b0)" style="fill: none; stroke: #dedede; stroke-linecap: square"/>
     </g>
     <g id="text_12">
      <!-- 12.5 -->
      <g transform="translate(20.878125 148.952736) scale(0.08 -0.08)">
       <use xlink:href="#DejaVuSans-31"/>
       <use xlink:href="#DejaVuSans-32" x="63.623047"/>
       <use xlink:href="#DejaVuSans-2e" x="127.246094"/>
       <use xlink:href="#DejaVuSans-35" x="159.033203"/>
      </g>
     </g>
    </g>
    <g id="ytick_7">
     <g id="line2d_7">
      <path d="M 45.690625 104.451253 
L 993.100625 104.451253 
" clip-path="url(#p6455b574b0)" style="fill: none; stroke: #dedede; stroke-linecap: square"/>
     </g>
     <g id="text_13">
      <!-- 15.0 -->
      <g transform="translate(20.878125 107.490628) scale(0.08 -0.08)">
       <use xlink:href="#DejaVuSans-31"/>
       <use xlink:href="#DejaVuSans-35" x="63.623047"/>
       <use xlink:href="#DejaVuSans-2e" x="127.246094"/>
       <use xlink:href="#DejaVuSans-30" x="159.033203"/>
      </g>
     </g>
    </g>
    <g id="ytick_8">
     <g id="line2d_8">
      <path d="M 45.690625 62.989145 
L 993.100625 62.989145 
" clip-path="url(#p6455b574b0)" style="fill: none; stroke: #dedede; stroke-linecap: square"/>
     </g>
     <g id="text_14">
      <!-- 17.5 -->
      <g transform="translate(20.878125 66.02852) scale(0.08 -0.08)">
       <use xlink:href="#DejaVuSans-31"/>
       <use xlink:href="#DejaVuSans-37" x="63.623047"/>
       <use xlink:href="#DejaVuSans-2e" x="127.246094"/>
       <use xlink:href="#DejaVuSans-35" x="159.033203"/>
      </g>
     </g>
    </g>
    <g id="text_15">
     <!-- % of Sequences -->
     <g transform="translate(14.798438 234.257869) rotate(-90) scale(0.1 -0.1)">
      <defs>
       <path id="DejaVuSans-25" d="M 4653 2053 
Q 4381 2053 4226 1822 
Q 4072 1591 4072 1178 
Q 4072 772 4226 539 
Q 4381 306 4653 306 
Q 4919 306 5073 539 
Q 5228 772 5228 1178 
Q 5228 1588 5073 1820 
Q 4919 2053 4653 2053 
z
M 4653 2450 
Q 5147 2450 5437 2106 
Q 5728 1763 5728 1178 
Q 5728 594 5436 251 
Q 5144 -91 4653 -91 
Q 4153 -91 3862 251 
Q 3572 594 3572 1178 
Q 3572 1766 3864 2108 
Q 4156 2450 4653 2450 
z
M 1428 4353 
Q 1159 4353 1004 4120 
Q 850 3888 850 3481 
Q 850 3069 1003 2837 
Q 1156 2606 1428 2606 
Q 1700 2606 1854 2837 
Q 2009 3069 2009 3481 
Q 2009 3884 1853 4118 
Q 1697 4353 1428 4353 
z
M 4250 4750 
L 4750 4750 
L 1831 -91 
L 1331 -91 
L 4250 4750 
z
M 1428 4750 
Q 1922 4750 2215 4408 
Q 2509 4066 2509 3481 
Q 2509 2891 2217 2550 
Q 1925 2209 1428 2209 
Q 931 2209 642 2551 
Q 353 2894 353 3481 
Q 353 4063 643 4406 
Q 934 4750 1428 4750 
z
" transform="scale(0.015625)"/>
       <path id="DejaVuSans-66" d="M 2375 4863 
L 2375 4384 
L 1825 4384 
Q 1516 4384 1395 4259 
Q 1275 4134 1275 3809 
L 1275 3500 
L 2222 3500 
L 2222 3053 
L 1275 3053 
L 1275 0 
L 697 0 
L 697 3053 
L 147 3053 
L 147 3500 
L 697 3500 
L 697 3744 
Q 697 4328 969 4595 
Q 1241 4863 1831 4863 
L 2375 4863 
z
" transform="scale(0.015625)"/>
       <path id="DejaVuSans-53" d="M 3425 4513 
L 3425 3897 
Q 3066 4069 2747 4153 
Q 2428 4238 2131 4238 
Q 1616 4238 1336 4038 
Q 1056 3838 1056 3469 
Q 1056 3159 1242 3001 
Q 1428 2844 1947 2747 
L 2328 2669 
Q 3034 2534 3370 2195 
Q 3706 1856 3706 1288 
Q 3706 609 3251 259 
Q 2797 -91 1919 -91 
Q 1588 -91 1214 -16 
Q 841 59 441 206 
L 441 856 
Q 825 641 1194 531 
Q 1563 422 1919 422 
Q 2459 422 2753 634 
Q 3047 847 3047 1241 
Q 3047 1584 2836 1778 
Q 2625 1972 2144 2069 
L 1759 2144 
Q 1053 2284 737 2584 
Q 422 2884 422 3419 
Q 422 4038 858 4394 
Q 1294 4750 2059 4750 
Q 2388 4750 2728 4690 
Q 3069 4631 3425 4513 
z
" transform="scale(0.015625)"/>
       <path id="DejaVuSans-65" d="M 3597 1894 
L 3597 1613 
L 953 1613 
Q 991 1019 1311 708 
Q 1631 397 2203 397 
Q 2534 397 2845 478 
Q 3156 559 3463 722 
L 3463 178 
Q 3153 47 2828 -22 
Q 2503 -91 2169 -91 
Q 1331 -91 842 396 
Q 353 884 353 1716 
Q 353 2575 817 3079 
Q 1281 3584 2069 3584 
Q 2775 3584 3186 3129 
Q 3597 2675 3597 1894 
z
M 3022 2063 
Q 3016 2534 2758 2815 
Q 2500 3097 2075 3097 
Q 1594 3097 1305 2825 
Q 1016 2553 972 2059 
L 3022 2063 
z
" transform="scale(0.015625)"/>
       <path id="DejaVuSans-71" d="M 947 1747 
Q 947 1113 1208 752 
Q 1469 391 1925 391 
Q 2381 391 2643 752 
Q 2906 1113 2906 1747 
Q 2906 2381 2643 2742 
Q 2381 3103 1925 3103 
Q 1469 3103 1208 2742 
Q 947 2381 947 1747 
z
M 2906 525 
Q 2725 213 2448 61 
Q 2172 -91 1784 -91 
Q 1150 -91 751 415 
Q 353 922 353 1747 
Q 353 2572 751 3078 
Q 1150 3584 1784 3584 
Q 2172 3584 2448 3432 
Q 2725 3281 2906 2969 
L 2906 3500 
L 3481 3500 
L 3481 -1331 
L 2906 -1331 
L 2906 525 
z
" transform="scale(0.015625)"/>
       <path id="DejaVuSans-75" d="M 544 1381 
L 544 3500 
L 1119 3500 
L 1119 1403 
Q 1119 906 1312 657 
Q 1506 409 1894 409 
Q 2359 409 2629 706 
Q 2900 1003 2900 1516 
L 2900 3500 
L 3475 3500 
L 3475 0 
L 2900 0 
L 2900 538 
Q 2691 219 2414 64 
Q 2138 -91 1772 -91 
Q 1169 -91 856 284 
Q 544 659 544 1381 
z
M 1991 3584 
L 1991 3584 
z
" transform="scale(0.015625)"/>
       <path id="DejaVuSans-63" d="M 3122 3366 
L 3122 2828 
Q 2878 2963 2633 3030 
Q 2388 3097 2138 3097 
Q 1578 3097 1268 2742 
Q 959 2388 959 1747 
Q 959 1106 1268 751 
Q 1578 397 2138 397 
Q 2388 397 2633 464 
Q 2878 531 3122 666 
L 3122 134 
Q 2881 22 2623 -34 
Q 2366 -91 2075 -91 
Q 1284 -91 818 406 
Q 353 903 353 1747 
Q 353 2603 823 3093 
Q 1294 3584 2113 3584 
Q 2378 3584 2631 3529 
Q 2884 3475 3122 3366 
z
" transform="scale(0.015625)"/>
      </defs>
      <use xlink:href="#DejaVuSans-25"/>
      <use xlink:href="#DejaVuSans-20" x="95.019531"/>
      <use xlink:href="#DejaVuSans-6f" x="126.806641"/>
      <use xlink:href="#DejaVuSans-66" x="187.988281"/>
      <use xlink:href="#DejaVuSans-20" x="223.193359"/>
      <use xlink:href="#DejaVuSans-53" x="254.980469"/>
      <use xlink:href="#DejaVuSans-65" x="318.457031"/>
      <use xlink:href="#DejaVuSans-71" x="379.980469"/>
      <use xlink:href="#DejaVuSans-75" x="443.457031"/>
      <use xlink:href="#DejaVuSans-65" x="506.835938"/>
      <use xlink:href="#DejaVuSans-6e" x="568.359375"/>
      <use xlink:href="#DejaVuSans-63" x="631.738281"/>
      <use xlink:href="#DejaVuSans-65" x="686.71875"/>
      <use xlink:href="#DejaVuSans-73" x="748.242188"/>
     </g>
    </g>
   </g>
   <g id="line2d_9">
    <path d="M 88.754716 353.2239 
L 92.499419 353.2239 
L 96.244123 353.2239 
L 99.988827 353.2239 
L 103.73353 353.2239 
L 107.478234 353.2239 
L 111.222937 353.2239 
L 114.967641 353.2239 
L 118.712344 353.2239 
L 129.946455 353.2239 
L 148.669973 353.2239 
L 167.393491 353.2239 
L 186.117008 353.2239 
L 204.840526 353.2239 
L 223.564044 353.2239 
L 242.287562 353.2239 
L 261.01108 353.2239 
L 279.734597 353.2239 
L 298.458115 353.2239 
L 317.181633 353.2239 
L 335.905151 353.2239 
L 354.628668 353.2239 
L 373.352186 353.2239 
L 392.075704 353.2239 
L 410.799222 353.2239 
L 429.52274 353.2239 
L 448.246257 353.2239 
L 466.969775 353.038283 
L 485.693293 351.367734 
L 504.416811 351.367734 
L 523.140329 351.367734 
L 541.863846 351.367734 
L 560.587364 351.367734 
L 579.310882 351.367734 
L 598.0344 351.367734 
L 616.757917 351.367734 
L 635.481435 351.367734 
L 654.204953 351.367734 
L 672.928471 351.367734 
L 691.651989 351.367734 
L 710.375506 351.367734 
L 729.099024 351.367734 
L 747.822542 351.367734 
L 766.54606 351.367734 
L 785.269578 351.367734 
L 803.993095 351.367734 
L 822.716613 351.367734 
L 841.440131 351.367734 
L 860.163649 351.367734 
L 875.142463 351.367734 
" clip-path="url(#p6455b574b0)" style="fill: none; stroke: #7cb5ec; stroke-linecap: square"/>
   </g>
   <g id="line2d_10">
    <path d="M 88.754716 353.2239 
L 92.499419 353.2239 
L 96.244123 353.2239 
L 99.988827 353.2239 
L 103.73353 353.2239 
L 107.478234 353.2239 
L 111.222937 353.2239 
L 114.967641 353.2239 
L 118.712344 353.2239 
L 129.946455 353.2239 
L 148.669973 353.2239 
L 167.393491 336.45271 
L 186.117008 325.271917 
L 204.840526 325.271917 
L 223.564044 325.271917 
L 242.287562 325.271917 
L 261.01108 325.271917 
L 279.734597 325.271917 
L 298.458115 325.271917 
L 317.181633 325.271917 
L 335.905151 325.271917 
L 354.628668 325.271917 
L 373.352186 325.271917 
L 392.075704 325.271917 
L 410.799222 325.271917 
L 429.52274 325.271917 
L 448.246257 325.271917 
L 466.969775 325.271917 
L 485.693293 325.271917 
L 504.416811 325.271917 
L 523.140329 325.271917 
L 541.863846 325.271917 
L 560.587364 325.271917 
L 579.310882 325.271917 
L 598.0344 325.271917 
L 616.757917 325.271917 
L 635.481435 325.271917 
L 654.204953 325.271917 
L 672.928471 325.271917 
L 691.651989 325.271917 
L 710.375506 325.271917 
L 729.099024 325.271917 
L 747.822542 325.271917 
L 766.54606 325.271917 
L 785.269578 325.271917 
L 803.993095 325.271917 
L 822.716613 325.271917 
L 841.440131 325.271917 
L 860.163649 325.271917 
L 875.142463 325.271917 
" clip-path="url(#p6455b574b0)" style="fill: none; stroke: #434348; stroke-linecap: square"/>
   </g>
   <g id="line2d_11">
    <path d="M 88.754716 353.2239 
L 92.499419 353.2239 
L 96.244123 353.2239 
L 99.988827 353.2239 
L 103.73353 353.2239 
L 107.478234 353.2239 
L 111.222937 353.2239 
L 114.967641 353.2239 
L 118.712344 353.2239 
L 129.946455 353.2239 
L 148.669973 353.2239 
L 167.393491 353.2239 
L 186.117008 353.2239 
L 204.840526 353.2239 
L 223.564044 353.2239 
L 242.287562 353.2239 
L 261.01108 353.2239 
L 279.734597 353.2239 
L 298.458115 353.2239 
L 317.181633 353.2239 
L 335.905151 353.2239 
L 354.628668 353.2239 
L 373.352186 353.2239 
L 392.075704 353.2239 
L 410.799222 353.2239 
L 429.52274 353.2239 
L 448.246257 353.2239 
L 466.969775 353.2239 
L 485.693293 344.585961 
L 504.416811 344.585961 
L 523.140329 344.585961 
L 541.863846 344.585961 
L 560.587364 344.585961 
L 579.310882 344.585961 
L 598.0344 344.585961 
L 616.757917 344.585961 
L 635.481435 344.585961 
L 654.204953 344.585961 
L 672.928471 344.585961 
L 691.651989 344.585961 
L 710.375506 344.585961 
L 729.099024 344.585961 
L 747.822542 344.585961 
L 766.54606 344.585961 
L 785.269578 344.585961 
L 803.993095 344.585961 
L 822.716613 344.585961 
L 841.440131 344.585961 
L 860.163649 344.585961 
L 875.142463 344.585961 
" clip-path="url(#p6455b574b0)" style="fill: none; stroke: #90ed7d; stroke-linecap: square"/>
   </g>
   <g id="line2d_12">
    <path d="M 88.754716 353.2239 
L 92.499419 353.2239 
L 96.244123 353.2239 
L 99.988827 353.2239 
L 103.73353 353.2239 
L 107.478234 353.2239 
L 111.222937 353.2239 
L 114.967641 353.2239 
L 118.712344 353.2239 
L 129.946455 353.2239 
L 148.669973 353.2239 
L 167.393491 353.2239 
L 186.117008 353.2239 
L 204.840526 353.2239 
L 223.564044 353.2239 
L 242.287562 353.2239 
L 261.01108 353.2239 
L 279.734597 353.2239 
L 298.458115 353.2239 
L 317.181633 353.2239 
L 335.905151 353.2239 
L 354.628668 353.2239 
L 373.352186 353.2239 
L 392.075704 353.2239 
L 410.799222 353.2239 
L 429.52274 353.2239 
L 448.246257 353.2239 
L 466.969775 353.2239 
L 485.693293 320.054214 
L 504.416811 320.054214 
L 523.140329 320.054214 
L 541.863846 320.054214 
L 560.587364 320.054214 
L 579.310882 320.054214 
L 598.0344 320.054214 
L 616.757917 320.054214 
L 635.481435 320.054214 
L 654.204953 320.054214 
L 672.928471 320.054214 
L 691.651989 320.054214 
L 710.375506 320.054214 
L 729.099024 320.054214 
L 747.822542 320.054214 
L 766.54606 320.054214 
L 785.269578 320.054214 
L 803.993095 320.054214 
L 822.716613 320.054214 
L 841.440131 320.054214 
L 860.163649 320.054214 
L 875.142463 320.054214 
" clip-path="url(#p6455b574b0)" style="fill: none; stroke: #f7a35c; stroke-linecap: square"/>
   </g>
   <g id="line2d_13">
    <path d="M 88.754716 353.2239 
L 92.499419 353.2239 
L 96.244123 353.2239 
L 99.988827 353.2239 
L 103.73353 353.2239 
L 107.478234 353.2239 
L 111.222937 353.2239 
L 114.967641 353.2239 
L 118.712344 353.2239 
L 129.946455 353.2239 
L 148.669973 353.217769 
L 167.393491 341.597913 
L 186.117008 324.272359 
L 204.840526 324.272359 
L 223.564044 324.272359 
L 242.287562 324.272359 
L 261.01108 324.260096 
L 279.734597 324.246608 
L 298.458115 324.235572 
L 317.181633 324.235572 
L 335.905151 324.235572 
L 354.628668 324.235572 
L 373.352186 324.228214 
L 392.075704 324.218404 
L 410.799222 324.211047 
L 429.52274 324.211047 
L 448.246257 324.209821 
L 466.969775 290.10439 
L 485.693293 133.290287 
L 504.416811 131.097768 
L 523.140329 131.078148 
L 541.863846 131.078148 
L 560.587364 131.078148 
L 579.310882 131.078148 
L 598.0344 131.078148 
L 616.757917 131.078148 
L 635.481435 131.078148 
L 654.204953 131.078148 
L 672.928471 131.078148 
L 691.651989 131.078148 
L 710.375506 131.075696 
L 729.099024 130.975144 
L 747.822542 130.87214 
L 766.54606 130.869688 
L 785.269578 130.869688 
L 803.993095 130.869688 
L 822.716613 130.869688 
L 841.440131 130.869688 
L 860.163649 130.869688 
L 878.887167 130.869688 
L 897.610684 130.869688 
L 916.334202 130.869688 
L 927.568313 130.869688 
" clip-path="url(#p6455b574b0)" style="fill: none; stroke: #8085e9; stroke-linecap: square"/>
   </g>
   <g id="line2d_14">
    <path d="M 88.754716 353.2239 
L 92.499419 353.2239 
L 96.244123 353.2239 
L 99.988827 353.2239 
L 103.73353 353.2239 
L 107.478234 353.2239 
L 111.222937 353.2239 
L 114.967641 353.2239 
L 118.712344 353.2239 
L 129.946455 353.2239 
L 148.669973 353.2239 
L 167.393491 350.98751 
L 186.117008 349.496584 
L 204.840526 349.496584 
L 223.564044 349.496584 
L 242.287562 349.496584 
L 261.01108 349.496584 
L 279.734597 349.496584 
L 298.458115 349.496584 
L 317.181633 349.496584 
L 335.905151 349.496584 
L 354.628668 349.496584 
L 373.352186 349.496584 
L 392.075704 349.496584 
L 410.799222 349.496584 
L 429.52274 349.496584 
L 448.246257 349.496584 
L 466.969775 349.214385 
L 485.693293 295.720468 
L 504.416811 295.625858 
L 523.140329 295.625858 
L 541.863846 295.625858 
L 560.587364 295.625858 
L 579.310882 295.625858 
L 598.0344 295.625858 
L 616.757917 295.625858 
L 635.481435 295.625858 
L 654.204953 295.625858 
L 672.928471 295.625858 
L 691.651989 295.625858 
L 710.375506 295.625858 
L 729.099024 295.581815 
L 747.822542 295.544298 
L 766.54606 295.544298 
L 785.269578 295.544298 
L 803.993095 295.544298 
L 822.716613 295.544298 
L 841.440131 295.544298 
L 860.163649 295.544298 
L 878.887167 295.544298 
L 890.121277 295.544298 
" clip-path="url(#p6455b574b0)" style="fill: none; stroke: #f15c80; stroke-linecap: square"/>
   </g>
   <g id="line2d_15">
    <path d="M 88.754716 353.2239 
L 92.499419 353.2239 
L 96.244123 353.2239 
L 99.988827 353.2239 
L 103.73353 353.2239 
L 107.478234 353.2239 
L 111.222937 353.2239 
L 114.967641 353.2239 
L 118.712344 353.2239 
L 129.946455 353.2239 
L 148.669973 353.2239 
L 167.393491 353.2239 
L 186.117008 353.2239 
L 204.840526 353.2239 
L 223.564044 353.2239 
L 242.287562 353.2239 
L 261.01108 353.2239 
L 279.734597 353.2239 
L 298.458115 353.2239 
L 317.181633 353.2239 
L 335.905151 353.2239 
L 354.628668 353.2239 
L 373.352186 353.2239 
L 392.075704 353.2239 
L 410.799222 353.2239 
L 429.52274 353.2239 
L 448.246257 353.2239 
L 466.969775 353.043783 
L 485.693293 252.063322 
L 504.416811 251.929192 
L 523.140329 251.927276 
L 541.863846 251.927276 
L 560.587364 251.927276 
L 579.310882 251.927276 
L 598.0344 251.927276 
L 616.757917 251.927276 
L 635.481435 251.927276 
L 654.204953 251.927276 
L 672.928471 251.927276 
L 691.651989 251.927276 
L 710.375506 251.927276 
L 729.099024 251.902366 
L 747.822542 251.869792 
L 766.54606 251.869792 
L 785.269578 251.869792 
L 803.993095 251.869792 
L 822.716613 251.869792 
L 841.440131 251.869792 
L 860.163649 251.869792 
L 878.887167 251.869792 
L 897.610684 251.869792 
L 916.334202 251.869792 
" clip-path="url(#p6455b574b0)" style="fill: none; stroke: #e4d354; stroke-linecap: square"/>
   </g>
   <g id="line2d_16">
    <path d="M 88.754716 353.2239 
L 92.499419 353.2239 
L 96.244123 353.2239 
L 99.988827 353.2239 
L 103.73353 353.2239 
L 107.478234 353.2239 
L 111.222937 353.2239 
L 114.967641 353.2239 
L 118.712344 353.2239 
L 129.946455 353.2239 
L 148.669973 353.2239 
L 167.393491 353.2239 
L 186.117008 353.2239 
L 204.840526 353.2239 
L 223.564044 353.2239 
L 242.287562 353.218631 
L 261.01108 353.210727 
L 279.734597 353.210727 
L 298.458115 353.210727 
L 317.181633 353.210727 
L 335.905151 353.210727 
L 354.628668 353.210727 
L 373.352186 353.210727 
L 392.075704 353.210727 
L 410.799222 353.210727 
L 429.52274 353.210727 
L 448.246257 353.210727 
L 466.969775 326.363311 
L 485.693293 155.089675 
L 504.416811 154.76826 
L 523.140329 154.76299 
L 541.863846 154.76299 
L 560.587364 154.76299 
L 579.310882 154.76299 
L 598.0344 154.76299 
L 616.757917 154.76299 
L 635.481435 154.76299 
L 654.204953 154.76299 
L 672.928471 154.76299 
L 691.651989 154.76299 
L 710.375506 154.76299 
L 729.099024 154.640484 
L 747.822542 154.558813 
L 766.54606 154.558813 
L 785.269578 154.558813 
L 803.993095 154.558813 
L 822.716613 154.558813 
L 841.440131 154.558813 
L 860.163649 154.558813 
L 878.887167 154.558813 
L 897.610684 154.558813 
L 916.334202 154.558813 
L 931.313016 154.558813 
" clip-path="url(#p6455b574b0)" style="fill: none; stroke: #2b908f; stroke-linecap: square"/>
   </g>
   <g id="line2d_17">
    <path d="M 88.754716 353.2239 
L 92.499419 353.2239 
L 96.244123 353.2239 
L 99.988827 353.2239 
L 103.73353 353.2239 
L 107.478234 353.2239 
L 111.222937 353.2239 
L 114.967641 353.2239 
L 118.712344 353.2239 
L 129.946455 353.2239 
L 148.669973 353.2239 
L 167.393491 353.2239 
L 186.117008 353.2239 
L 204.840526 353.2239 
L 223.564044 353.2239 
L 242.287562 353.2239 
L 261.01108 353.2239 
L 279.734597 353.2239 
L 298.458115 353.2239 
L 317.181633 353.2239 
L 335.905151 353.2239 
L 354.628668 353.2239 
L 373.352186 346.39438 
L 392.075704 336.629041 
L 410.799222 336.622133 
L 429.52274 336.622133 
L 448.246257 336.622133 
L 466.969775 336.617528 
L 485.693293 336.530029 
L 504.416811 336.530029 
L 523.140329 336.530029 
L 541.863846 336.530029 
L 560.587364 336.530029 
L 579.310882 336.530029 
L 598.0344 336.530029 
L 616.757917 336.530029 
L 635.481435 336.530029 
L 654.204953 336.530029 
L 672.928471 336.530029 
L 691.651989 336.530029 
L 710.375506 336.530029 
L 729.099024 336.530029 
L 747.822542 336.530029 
L 766.54606 336.530029 
L 785.269578 336.530029 
L 803.993095 336.530029 
L 822.716613 336.530029 
L 841.440131 336.530029 
L 860.163649 336.530029 
L 878.887167 336.530029 
" clip-path="url(#p6455b574b0)" style="fill: none; stroke: #f45b5b; stroke-linecap: square"/>
   </g>
   <g id="line2d_18">
    <path d="M 88.754716 353.2239 
L 92.499419 353.2239 
L 96.244123 353.2239 
L 99.988827 353.2239 
L 103.73353 353.2239 
L 107.478234 353.2239 
L 111.222937 353.2239 
L 114.967641 353.2239 
L 118.712344 353.2239 
L 129.946455 353.2239 
L 148.669973 353.2239 
L 167.393491 200.375104 
L 186.117008 98.465688 
L 204.840526 98.465688 
L 223.564044 98.465688 
L 242.287562 98.458024 
L 261.01108 98.378319 
L 279.734597 98.37372 
L 298.458115 98.37372 
L 317.181633 98.37372 
L 335.905151 98.37372 
L 354.628668 98.37372 
L 373.352186 98.364524 
L 392.075704 98.358392 
L 410.799222 98.358392 
L 429.52274 98.358392 
L 448.246257 98.358392 
L 466.969775 98.06103 
L 485.693293 50.501463 
L 504.416811 50.450881 
L 523.140329 50.450881 
L 541.863846 50.450881 
L 560.587364 50.450881 
L 579.310882 50.450881 
L 598.0344 50.450881 
L 616.757917 50.450881 
L 635.481435 50.450881 
L 654.204953 50.450881 
L 672.928471 50.450881 
L 691.651989 50.450881 
L 710.375506 50.450881 
L 729.099024 50.421758 
L 747.822542 50.397233 
L 766.54606 50.397233 
L 785.269578 50.397233 
L 803.993095 50.397233 
L 822.716613 50.397233 
L 841.440131 50.397233 
L 860.163649 50.397233 
L 878.887167 50.397233 
L 893.865981 50.397233 
" clip-path="url(#p6455b574b0)" style="fill: none; stroke: #91e8e1; stroke-linecap: square"/>
   </g>
   <g id="line2d_19">
    <path d="M 88.754716 353.2239 
L 92.499419 353.2239 
L 96.244123 353.2239 
L 99.988827 353.2239 
L 103.73353 353.2239 
L 107.478234 353.2239 
L 111.222937 353.2239 
L 114.967641 353.2239 
L 118.712344 353.2239 
L 129.946455 353.2239 
L 148.669973 353.2239 
L 167.393491 353.220891 
L 186.117008 353.216377 
L 204.840526 353.216377 
L 223.564044 353.216377 
L 242.287562 353.216377 
L 261.01108 353.216377 
L 279.734597 353.216377 
L 298.458115 353.216377 
L 317.181633 353.216377 
L 335.905151 353.216377 
L 354.628668 353.216377 
L 373.352186 353.216377 
L 392.075704 353.216377 
L 410.799222 353.216377 
L 429.52274 353.216377 
L 448.246257 353.216377 
L 466.969775 353.198323 
L 485.693293 349.379818 
L 504.416811 349.312114 
L 523.140329 349.312114 
L 541.863846 349.312114 
L 560.587364 349.312114 
L 579.310882 349.312114 
L 598.0344 349.312114 
L 616.757917 349.312114 
L 635.481435 349.312114 
L 654.204953 349.312114 
L 672.928471 349.312114 
L 691.651989 349.312114 
L 710.375506 349.312114 
L 729.099024 349.312114 
L 747.822542 349.312114 
L 766.54606 349.312114 
L 785.269578 349.312114 
L 803.993095 349.312114 
L 822.716613 349.312114 
L 841.440131 349.312114 
L 860.163649 349.312114 
L 878.887167 349.312114 
" clip-path="url(#p6455b574b0)" style="fill: none; stroke: #7cb5ec; stroke-linecap: square"/>
   </g>
   <g id="line2d_20">
    <path d="M 88.754716 353.2239 
L 92.499419 353.2239 
L 96.244123 353.2239 
L 99.988827 353.2239 
L 103.73353 353.2239 
L 107.478234 353.2239 
L 111.222937 353.2239 
L 114.967641 353.2239 
L 118.712344 353.2239 
L 129.946455 353.2239 
L 148.669973 353.2239 
L 167.393491 353.2239 
L 186.117008 353.2239 
L 204.840526 353.2239 
L 223.564044 353.2239 
L 242.287562 353.2239 
L 261.01108 353.2239 
L 279.734597 353.2239 
L 298.458115 353.2239 
L 317.181633 353.2239 
L 335.905151 353.2239 
L 354.628668 353.2239 
L 373.352186 353.2239 
L 392.075704 353.2239 
L 410.799222 353.2239 
L 429.52274 353.2239 
L 448.246257 353.2239 
L 466.969775 353.190277 
L 485.693293 344.356658 
L 504.416811 344.332375 
L 523.140329 344.332375 
L 541.863846 344.332375 
L 560.587364 344.332375 
L 579.310882 344.332375 
L 598.0344 344.332375 
L 616.757917 344.332375 
L 635.481435 344.332375 
L 654.204953 344.332375 
L 672.928471 344.332375 
L 691.651989 344.332375 
L 710.375506 344.332375 
L 729.099024 344.326771 
L 747.822542 344.323035 
L 766.54606 344.323035 
L 785.269578 344.323035 
L 803.993095 344.323035 
L 822.716613 344.323035 
L 841.440131 344.323035 
L 860.163649 344.323035 
L 878.887167 344.323035 
" clip-path="url(#p6455b574b0)" style="fill: none; stroke: #434348; stroke-linecap: square"/>
   </g>
   <g id="line2d_21">
    <path d="M 88.754716 353.2239 
L 92.499419 353.2239 
L 96.244123 353.2239 
L 99.988827 353.2239 
L 103.73353 353.2239 
L 107.478234 353.2239 
L 111.222937 353.2239 
L 114.967641 353.2239 
L 118.712344 353.2239 
L 129.946455 353.2239 
L 148.669973 353.2239 
L 167.393491 353.2239 
L 186.117008 353.2239 
L 204.840526 353.2239 
L 223.564044 353.2239 
L 242.287562 353.219211 
L 261.01108 353.212177 
L 279.734597 353.212177 
L 298.458115 353.212177 
L 317.181633 353.212177 
L 335.905151 353.212177 
L 354.628668 353.212177 
L 373.352186 353.212177 
L 392.075704 353.212177 
L 410.799222 353.212177 
L 429.52274 353.212177 
L 448.246257 353.212177 
L 466.969775 340.051873 
L 485.693293 246.501879 
L 504.416811 246.297898 
L 523.140329 246.297898 
L 541.863846 246.297898 
L 560.587364 246.297898 
L 579.310882 246.297898 
L 598.0344 246.297898 
L 616.757917 246.297898 
L 635.481435 246.297898 
L 654.204953 246.297898 
L 672.928471 246.297898 
L 691.651989 246.297898 
L 710.375506 246.297898 
L 729.099024 246.241627 
L 747.822542 246.19239 
L 766.54606 246.19239 
L 785.269578 246.19239 
L 803.993095 246.19239 
L 822.716613 246.19239 
L 841.440131 246.19239 
L 860.163649 246.19239 
L 878.887167 246.19239 
L 897.610684 246.19239 
L 916.334202 246.19239 
L 927.568313 246.19239 
" clip-path="url(#p6455b574b0)" style="fill: none; stroke: #90ed7d; stroke-linecap: square"/>
   </g>
   <g id="line2d_22">
    <path d="M 88.754716 353.2239 
L 92.499419 353.2239 
L 96.244123 353.2239 
L 99.988827 353.2239 
L 103.73353 353.2239 
L 107.478234 353.2239 
L 111.222937 353.2239 
L 114.967641 353.2239 
L 118.712344 353.2239 
L 129.946455 353.2239 
L 148.669973 353.2239 
L 167.393491 353.2239 
L 186.117008 353.2239 
L 204.840526 353.2239 
L 223.564044 353.220768 
L 242.287562 353.21607 
L 261.01108 353.21607 
L 279.734597 353.21607 
L 298.458115 353.21607 
L 317.181633 353.21607 
L 335.905151 353.21607 
L 354.628668 353.21607 
L 373.352186 353.21607 
L 392.075704 353.21607 
L 410.799222 353.21607 
L 429.52274 353.21607 
L 448.246257 353.212938 
L 466.969775 350.129622 
L 485.693293 345.466283 
L 504.416811 345.464717 
L 523.140329 345.464717 
L 541.863846 345.464717 
L 560.587364 345.464717 
L 579.310882 345.464717 
L 598.0344 345.464717 
L 616.757917 345.464717 
L 635.481435 345.464717 
L 654.204953 345.464717 
L 672.928471 345.464717 
L 691.651989 345.464717 
L 710.375506 345.464717 
L 729.099024 345.464717 
L 747.822542 345.464717 
L 766.54606 345.464717 
L 785.269578 345.464717 
L 803.993095 345.464717 
L 822.716613 345.464717 
L 841.440131 345.464717 
L 860.163649 345.464717 
L 878.887167 345.464717 
" clip-path="url(#p6455b574b0)" style="fill: none; stroke: #f7a35c; stroke-linecap: square"/>
   </g>
   <g id="line2d_23">
    <path d="M 88.754716 353.2239 
L 92.499419 353.2239 
L 96.244123 353.2239 
L 99.988827 353.2239 
L 103.73353 353.2239 
L 107.478234 353.2239 
L 111.222937 353.2239 
L 114.967641 353.2239 
L 118.712344 353.2239 
L 129.946455 353.2239 
L 148.669973 353.2239 
L 167.393491 353.2239 
L 186.117008 353.2239 
L 204.840526 353.2239 
L 223.564044 353.2239 
L 242.287562 353.2239 
L 261.01108 353.2239 
L 279.734597 353.2239 
L 298.458115 353.2239 
L 317.181633 353.2239 
L 335.905151 353.2239 
L 354.628668 353.2239 
L 373.352186 353.220065 
L 392.075704 353.214312 
L 410.799222 353.214312 
L 429.52274 353.214312 
L 448.246257 353.214312 
L 466.969775 352.079119 
L 485.693293 340.364772 
L 504.416811 340.357101 
L 523.140329 340.357101 
L 541.863846 340.357101 
L 560.587364 340.357101 
L 579.310882 340.357101 
L 598.0344 340.357101 
L 616.757917 340.357101 
L 635.481435 340.357101 
L 654.204953 340.357101 
L 672.928471 340.357101 
L 691.651989 340.357101 
L 710.375506 340.357101 
L 729.099024 340.357101 
L 747.822542 340.347514 
L 766.54606 340.347514 
L 785.269578 340.347514 
L 803.993095 340.347514 
L 822.716613 340.347514 
L 841.440131 340.347514 
L 860.163649 340.347514 
L 875.142463 340.347514 
" clip-path="url(#p6455b574b0)" style="fill: none; stroke: #8085e9; stroke-linecap: square"/>
   </g>
   <g id="line2d_24">
    <path d="M 88.754716 353.2239 
L 92.499419 353.2239 
L 96.244123 353.2239 
L 99.988827 353.2239 
L 103.73353 353.2239 
L 107.478234 353.2239 
L 111.222937 353.2239 
L 114.967641 353.2239 
L 118.712344 353.2239 
L 129.946455 353.2239 
L 148.669973 353.2239 
L 167.393491 353.2239 
L 186.117008 353.2239 
L 204.840526 353.2239 
L 223.564044 353.2239 
L 242.287562 353.2239 
L 261.01108 353.2239 
L 279.734597 353.2239 
L 298.458115 353.2239 
L 317.181633 353.2239 
L 335.905151 353.2239 
L 354.628668 353.2239 
L 373.352186 353.2239 
L 392.075704 353.2239 
L 410.799222 353.211533 
L 429.52274 353.211533 
L 448.246257 353.211533 
L 466.969775 332.333621 
L 485.693293 169.421108 
L 504.416811 169.215816 
L 523.140329 169.215816 
L 541.863846 169.215816 
L 560.587364 169.215816 
L 579.310882 169.215816 
L 598.0344 169.215816 
L 616.757917 169.215816 
L 635.481435 169.215816 
L 654.204953 169.215816 
L 672.928471 169.215816 
L 691.651989 169.215816 
L 710.375506 169.215816 
L 729.099024 169.134194 
L 747.822542 169.07978 
L 766.54606 169.07978 
L 785.269578 169.07978 
L 803.993095 169.07978 
L 822.716613 169.07978 
L 841.440131 169.07978 
L 860.163649 169.07978 
L 878.887167 169.07978 
L 890.121277 169.07978 
" clip-path="url(#p6455b574b0)" style="fill: none; stroke: #f15c80; stroke-linecap: square"/>
   </g>
   <g id="line2d_25">
    <path d="M 88.754716 353.2239 
L 92.499419 353.2239 
L 96.244123 353.2239 
L 99.988827 353.2239 
L 103.73353 353.2239 
L 107.478234 353.2239 
L 111.222937 353.2239 
L 114.967641 353.2239 
L 118.712344 353.2239 
L 129.946455 353.2239 
L 148.669973 353.2239 
L 167.393491 353.158711 
L 186.117008 353.112147 
L 204.840526 353.112147 
L 223.564044 353.112147 
L 242.287562 353.108422 
L 261.01108 353.102835 
L 279.734597 353.102835 
L 298.458115 353.102835 
L 317.181633 353.102835 
L 335.905151 353.102835 
L 354.628668 353.102835 
L 373.352186 353.102835 
L 392.075704 353.102835 
L 410.799222 353.102835 
L 429.52274 353.102835 
L 448.246257 353.102835 
L 466.969775 348.668116 
L 485.693293 304.278088 
L 504.416811 304.229661 
L 523.140329 304.229661 
L 541.863846 304.229661 
L 560.587364 304.229661 
L 579.310882 304.229661 
L 598.0344 304.229661 
L 616.757917 304.229661 
L 635.481435 304.229661 
L 654.204953 304.229661 
L 672.928471 304.229661 
L 691.651989 304.229661 
L 710.375506 304.229661 
L 729.099024 304.209173 
L 747.822542 304.183098 
L 766.54606 304.183098 
L 785.269578 304.183098 
L 803.993095 304.183098 
L 822.716613 304.183098 
L 841.440131 304.183098 
L 860.163649 304.183098 
L 878.887167 304.183098 
L 897.610684 304.183098 
L 916.334202 304.183098 
L 927.568313 304.183098 
" clip-path="url(#p6455b574b0)" style="fill: none; stroke: #e4d354; stroke-linecap: square"/>
   </g>
   <g id="line2d_26">
    <path d="M 88.754716 353.2239 
L 92.499419 353.2239 
L 96.244123 353.2239 
L 99.988827 353.2239 
L 103.73353 353.2239 
L 107.478234 353.2239 
L 111.222937 353.2239 
L 114.967641 353.2239 
L 118.712344 353.2239 
L 129.946455 353.2239 
L 148.669973 353.2239 
L 167.393491 353.2239 
L 186.117008 353.2239 
L 204.840526 353.2239 
L 223.564044 353.2239 
L 242.287562 353.2239 
L 261.01108 353.2239 
L 279.734597 353.2239 
L 298.458115 353.2239 
L 317.181633 353.2239 
L 335.905151 353.2239 
L 354.628668 353.2239 
L 373.352186 353.2239 
L 392.075704 353.2239 
L 410.799222 353.2239 
L 429.52274 353.2239 
L 448.246257 353.2239 
L 466.969775 350.478486 
L 485.693293 190.062916 
L 504.416811 189.648514 
L 523.140329 189.646047 
L 541.863846 189.646047 
L 560.587364 189.646047 
L 579.310882 189.646047 
L 598.0344 189.646047 
L 616.757917 189.646047 
L 635.481435 189.646047 
L 654.204953 189.646047 
L 672.928471 189.646047 
L 691.651989 189.646047 
L 710.375506 189.643581 
L 729.099024 189.52518 
L 747.822542 189.426513 
L 766.54606 189.424046 
L 785.269578 189.424046 
L 803.993095 189.424046 
L 822.716613 189.424046 
L 841.440131 189.424046 
L 860.163649 189.424046 
L 878.887167 189.424046 
L 897.610684 189.424046 
L 916.334202 189.424046 
L 931.313016 189.424046 
" clip-path="url(#p6455b574b0)" style="fill: none; stroke: #2b908f; stroke-linecap: square"/>
   </g>
   <g id="line2d_27">
    <path d="M 88.754716 353.2239 
L 92.499419 353.2239 
L 96.244123 353.2239 
L 99.988827 353.2239 
L 103.73353 353.2239 
L 107.478234 353.2239 
L 111.222937 353.2239 
L 114.967641 353.2239 
L 118.712344 353.2239 
L 129.946455 353.2239 
L 148.669973 353.2239 
L 167.393491 353.2239 
L 186.117008 353.2239 
L 204.840526 353.2239 
L 223.564044 353.2239 
L 242.287562 353.2239 
L 261.01108 353.2239 
L 279.734597 353.2239 
L 298.458115 353.2239 
L 317.181633 353.2239 
L 335.905151 353.2239 
L 354.628668 353.2239 
L 373.352186 353.2239 
L 392.075704 353.2239 
L 410.799222 353.2239 
L 429.52274 353.2239 
L 448.246257 353.2239 
L 466.969775 353.2239 
L 485.693293 352.427002 
L 504.416811 351.329634 
L 523.140329 351.329634 
L 541.863846 351.329634 
L 560.587364 351.329634 
L 579.310882 351.329634 
L 598.0344 351.329634 
L 616.757917 351.329634 
L 635.481435 351.329634 
L 654.204953 351.329634 
L 672.928471 351.329634 
L 691.651989 351.329634 
L 710.375506 351.329634 
L 729.099024 351.329634 
L 747.822542 351.329634 
L 766.54606 351.329634 
L 785.269578 351.329634 
L 803.993095 351.329634 
L 822.716613 351.329634 
L 841.440131 351.329634 
L 860.163649 351.329634 
L 878.887167 351.329634 
" clip-path="url(#p6455b574b0)" style="fill: none; stroke: #f45b5b; stroke-linecap: square"/>
   </g>
   <g id="line2d_28">
    <path d="M 88.754716 353.2239 
L 92.499419 353.2239 
L 96.244123 353.2239 
L 99.988827 353.2239 
L 103.73353 353.2239 
L 107.478234 353.2239 
L 111.222937 353.2239 
L 114.967641 353.2239 
L 118.712344 353.2239 
L 129.946455 353.2239 
L 148.669973 353.2239 
L 167.393491 353.2239 
L 186.117008 353.2239 
L 204.840526 353.2239 
L 223.564044 353.2239 
L 242.287562 353.2239 
L 261.01108 353.2239 
L 279.734597 353.2239 
L 298.458115 353.2239 
L 317.181633 353.2239 
L 335.905151 353.2239 
L 354.628668 353.2239 
L 373.352186 353.2239 
L 392.075704 353.2239 
L 410.799222 353.2239 
L 429.52274 353.2239 
L 448.246257 353.2239 
L 466.969775 348.702475 
L 485.693293 341.876405 
L 504.416811 341.874574 
L 523.140329 341.874574 
L 541.863846 341.874574 
L 560.587364 341.874574 
L 579.310882 341.874574 
L 598.0344 341.874574 
L 616.757917 341.874574 
L 635.481435 341.874574 
L 654.204953 341.874574 
L 672.928471 341.874574 
L 691.651989 341.874574 
L 710.375506 341.874574 
L 729.099024 341.874574 
L 747.822542 341.874574 
L 766.54606 341.874574 
L 785.269578 341.874574 
L 803.993095 341.874574 
L 822.716613 341.874574 
L 841.440131 341.874574 
L 860.163649 341.874574 
L 878.887167 341.874574 
L 897.610684 341.874574 
L 916.334202 341.874574 
L 935.05772 341.874574 
L 950.036534 341.874574 
" clip-path="url(#p6455b574b0)" style="fill: none; stroke: #91e8e1; stroke-linecap: square"/>
   </g>
   <g id="line2d_29">
    <path d="M 88.754716 353.2239 
L 92.499419 353.2239 
L 96.244123 353.2239 
L 99.988827 353.2239 
L 103.73353 353.2239 
L 107.478234 353.2239 
L 111.222937 353.2239 
L 114.967641 353.2239 
L 118.712344 353.2239 
L 129.946455 353.2239 
L 148.669973 353.2239 
L 167.393491 353.2239 
L 186.117008 353.2239 
L 204.840526 353.2239 
L 223.564044 353.2239 
L 242.287562 353.2239 
L 261.01108 353.2239 
L 279.734597 353.2239 
L 298.458115 353.2239 
L 317.181633 353.2239 
L 335.905151 353.2239 
L 354.628668 353.2239 
L 373.352186 353.2239 
L 392.075704 353.2239 
L 410.799222 353.2239 
L 429.52274 353.2239 
L 448.246257 353.2239 
L 466.969775 350.538095 
L 485.693293 333.080366 
L 504.416811 333.080366 
L 523.140329 333.080366 
L 541.863846 333.080366 
L 560.587364 333.080366 
L 579.310882 333.080366 
L 598.0344 333.080366 
L 616.757917 333.080366 
L 635.481435 333.080366 
L 654.204953 333.080366 
L 672.928471 333.080366 
L 691.651989 333.080366 
L 710.375506 333.080366 
L 729.099024 333.080366 
L 747.822542 333.080366 
L 766.54606 333.080366 
L 785.269578 333.080366 
L 803.993095 333.080366 
L 822.716613 333.080366 
L 841.440131 333.080366 
L 860.163649 333.080366 
L 878.887167 333.080366 
" clip-path="url(#p6455b574b0)" style="fill: none; stroke: #7cb5ec; stroke-linecap: square"/>
   </g>
   <g id="line2d_30">
    <path d="M 45.690625 353.2239 
L 993.100625 353.2239 
" clip-path="url(#p6455b574b0)" style="fill: none; stroke: #dedede; stroke-width: 2; stroke-linecap: square"/>
   </g>
   <g id="text_16">
    <!-- FastQC: Adapter Content -->
    <g transform="translate(420.098125 19.3575) scale(0.16 -0.16)">
     <defs>
      <path id="DejaVuSans-46" d="M 628 4666 
L 3309 4666 
L 3309 4134 
L 1259 4134 
L 1259 2759 
L 3109 2759 
L 3109 2228 
L 1259 2228 
L 1259 0 
L 628 0 
L 628 4666 
z
" transform="scale(0.015625)"/>
      <path id="DejaVuSans-61" d="M 2194 1759 
Q 1497 1759 1228 1600 
Q 959 1441 959 1056 
Q 959 750 1161 570 
Q 1363 391 1709 391 
Q 2188 391 2477 730 
Q 2766 1069 2766 1631 
L 2766 1759 
L 2194 1759 
z
M 3341 1997 
L 3341 0 
L 2766 0 
L 2766 531 
Q 2569 213 2275 61 
Q 1981 -91 1556 -91 
Q 1019 -91 701 211 
Q 384 513 384 1019 
Q 384 1609 779 1909 
Q 1175 2209 1959 2209 
L 2766 2209 
L 2766 2266 
Q 2766 2663 2505 2880 
Q 2244 3097 1772 3097 
Q 1472 3097 1187 3025 
Q 903 2953 641 2809 
L 641 3341 
Q 956 3463 1253 3523 
Q 1550 3584 1831 3584 
Q 2591 3584 2966 3190 
Q 3341 2797 3341 1997 
z
" transform="scale(0.015625)"/>
      <path id="DejaVuSans-51" d="M 2522 4238 
Q 1834 4238 1429 3725 
Q 1025 3213 1025 2328 
Q 1025 1447 1429 934 
Q 1834 422 2522 422 
Q 3209 422 3611 934 
Q 4013 1447 4013 2328 
Q 4013 3213 3611 3725 
Q 3209 4238 2522 4238 
z
M 3406 84 
L 4238 -825 
L 3475 -825 
L 2784 -78 
Q 2681 -84 2626 -87 
Q 2572 -91 2522 -91 
Q 1538 -91 948 567 
Q 359 1225 359 2328 
Q 359 3434 948 4092 
Q 1538 4750 2522 4750 
Q 3503 4750 4090 4092 
Q 4678 3434 4678 2328 
Q 4678 1516 4351 937 
Q 4025 359 3406 84 
z
" transform="scale(0.015625)"/>
      <path id="DejaVuSans-43" d="M 4122 4306 
L 4122 3641 
Q 3803 3938 3442 4084 
Q 3081 4231 2675 4231 
Q 1875 4231 1450 3742 
Q 1025 3253 1025 2328 
Q 1025 1406 1450 917 
Q 1875 428 2675 428 
Q 3081 428 3442 575 
Q 3803 722 4122 1019 
L 4122 359 
Q 3791 134 3420 21 
Q 3050 -91 2638 -91 
Q 1578 -91 968 557 
Q 359 1206 359 2328 
Q 359 3453 968 4101 
Q 1578 4750 2638 4750 
Q 3056 4750 3426 4639 
Q 3797 4528 4122 4306 
z
" transform="scale(0.015625)"/>
      <path id="DejaVuSans-3a" d="M 750 794 
L 1409 794 
L 1409 0 
L 750 0 
L 750 794 
z
M 750 3309 
L 1409 3309 
L 1409 2516 
L 750 2516 
L 750 3309 
z
" transform="scale(0.015625)"/>
      <path id="DejaVuSans-41" d="M 2188 4044 
L 1331 1722 
L 3047 1722 
L 2188 4044 
z
M 1831 4666 
L 2547 4666 
L 4325 0 
L 3669 0 
L 3244 1197 
L 1141 1197 
L 716 0 
L 50 0 
L 1831 4666 
z
" transform="scale(0.015625)"/>
      <path id="DejaVuSans-64" d="M 2906 2969 
L 2906 4863 
L 3481 4863 
L 3481 0 
L 2906 0 
L 2906 525 
Q 2725 213 2448 61 
Q 2172 -91 1784 -91 
Q 1150 -91 751 415 
Q 353 922 353 1747 
Q 353 2572 751 3078 
Q 1150 3584 1784 3584 
Q 2172 3584 2448 3432 
Q 2725 3281 2906 2969 
z
M 947 1747 
Q 947 1113 1208 752 
Q 1469 391 1925 391 
Q 2381 391 2643 752 
Q 2906 1113 2906 1747 
Q 2906 2381 2643 2742 
Q 2381 3103 1925 3103 
Q 1469 3103 1208 2742 
Q 947 2381 947 1747 
z
" transform="scale(0.015625)"/>
      <path id="DejaVuSans-72" d="M 2631 2963 
Q 2534 3019 2420 3045 
Q 2306 3072 2169 3072 
Q 1681 3072 1420 2755 
Q 1159 2438 1159 1844 
L 1159 0 
L 581 0 
L 581 3500 
L 1159 3500 
L 1159 2956 
Q 1341 3275 1631 3429 
Q 1922 3584 2338 3584 
Q 2397 3584 2469 3576 
Q 2541 3569 2628 3553 
L 2631 2963 
z
" transform="scale(0.015625)"/>
     </defs>
     <use xlink:href="#DejaVuSans-46"/>
     <use xlink:href="#DejaVuSans-61" x="48.394531"/>
     <use xlink:href="#DejaVuSans-73" x="109.673828"/>
     <use xlink:href="#DejaVuSans-74" x="161.773438"/>
     <use xlink:href="#DejaVuSans-51" x="200.982422"/>
     <use xlink:href="#DejaVuSans-43" x="279.693359"/>
     <use xlink:href="#DejaVuSans-3a" x="349.517578"/>
     <use xlink:href="#DejaVuSans-20" x="383.208984"/>
     <use xlink:href="#DejaVuSans-41" x="414.996094"/>
     <use xlink:href="#DejaVuSans-64" x="481.654297"/>
     <use xlink:href="#DejaVuSans-61" x="545.130859"/>
     <use xlink:href="#DejaVuSans-70" x="606.410156"/>
     <use xlink:href="#DejaVuSans-74" x="669.886719"/>
     <use xlink:href="#DejaVuSans-65" x="709.095703"/>
     <use xlink:href="#DejaVuSans-72" x="770.619141"/>
     <use xlink:href="#DejaVuSans-20" x="811.732422"/>
     <use xlink:href="#DejaVuSans-43" x="843.519531"/>
     <use xlink:href="#DejaVuSans-6f" x="913.34375"/>
     <use xlink:href="#DejaVuSans-6e" x="974.525391"/>
     <use xlink:href="#DejaVuSans-74" x="1037.904297"/>
     <use xlink:href="#DejaVuSans-65" x="1077.113281"/>
     <use xlink:href="#DejaVuSans-6e" x="1138.636719"/>
     <use xlink:href="#DejaVuSans-74" x="1202.015625"/>
    </g>
   </g>
  </g>
 </g>
 <defs>
  <clipPath id="p6455b574b0">
   <rect x="45.690625" y="35.2559" width="947.41" height="317.968"/>
  </clipPath>
 </defs>
</svg>
