<?xml version="1.0" encoding="utf-8" standalone="no"?>
<!DOCTYPE svg PUBLIC "-//W3C//DTD SVG 1.1//EN"
  "http://www.w3.org/Graphics/SVG/1.1/DTD/svg11.dtd">
<svg xmlns:xlink="http://www.w3.org/1999/xlink" width="1000.158125pt" height="388.844525pt" viewBox="0 0 1000.158125 388.844525" xmlns="http://www.w3.org/2000/svg" version="1.1">
 <metadata>
  <rdf:RDF xmlns:dc="http://purl.org/dc/elements/1.1/" xmlns:cc="http://creativecommons.org/ns#" xmlns:rdf="http://www.w3.org/1999/02/22-rdf-syntax-ns#">
   <cc:Work>
    <dc:type rdf:resource="http://purl.org/dc/dcmitype/StillImage"/>
    <dc:date>2024-06-28T13:31:44.671207</dc:date>
    <dc:format>image/svg+xml</dc:format>
    <dc:creator>
     <cc:Agent>
      <dc:title>Matplotlib v3.7.1, https://matplotlib.org/</dc:title>
     </cc:Agent>
    </dc:creator>
   </cc:Work>
  </rdf:RDF>
 </metadata>
 <defs>
  <style type="text/css">*{stroke-linejoin: round; stroke-linecap: butt}</style>
 </defs>
 <g id="figure_1">
  <g id="axes_1">
   <g id="patch_1">
    <path d="M 58.418125 353.2239 
L 992.958125 353.2239 
L 992.958125 35.2559 
L 58.418125 35.2559 
z
" style="fill: #ffffff"/>
   </g>
   <g id="patch_2">
    <path d="M 725.946696 353.2239 
L 2442.448737 353.2239 
L 2442.448737 35.2559 
L 725.946696 35.2559 
z
" clip-path="url(#p063c10248d)" style="fill: #c3e6c3"/>
   </g>
   <g id="patch_3">
    <path d="M 535.224247 353.2239 
L 725.946696 353.2239 
L 725.946696 35.2559 
L 535.224247 35.2559 
z
" clip-path="url(#p063c10248d)" style="fill: #e6dcc3"/>
   </g>
   <g id="patch_4">
    <path d="M 58.418125 353.2239 
L 535.224247 353.2239 
L 535.224247 35.2559 
L 58.418125 35.2559 
z
" clip-path="url(#p063c10248d)" style="fill: #e6c3c3"/>
   </g>
   <g id="matplotlib.axis_1">
    <g id="xtick_1">
     <g id="text_1">
      <!-- 0 -->
      <g transform="translate(55.873125 366.30265) scale(0.08 -0.08)">
       <defs>
        <path id="DejaVuSans-30" d="M 2034 4250 
Q 1547 4250 1301 3770 
Q 1056 3291 1056 2328 
Q 1056 1369 1301 889 
Q 1547 409 2034 409 
Q 2525 409 2770 889 
Q 3016 1369 3016 2328 
Q 3016 3291 2770 3770 
Q 2525 4250 2034 4250 
z
M 2034 4750 
Q 2819 4750 3233 4129 
Q 3647 3509 3647 2328 
Q 3647 1150 3233 529 
Q 2819 -91 2034 -91 
Q 1250 -91 836 529 
Q 422 1150 422 2328 
Q 422 3509 836 4129 
Q 1250 4750 2034 4750 
z
" transform="scale(0.015625)"/>
       </defs>
       <use xlink:href="#DejaVuSans-30"/>
      </g>
     </g>
    </g>
    <g id="xtick_2">
     <g id="text_2">
      <!-- 5 -->
      <g transform="translate(175.074656 366.30265) scale(0.08 -0.08)">
       <defs>
        <path id="DejaVuSans-35" d="M 691 4666 
L 3169 4666 
L 3169 4134 
L 1269 4134 
L 1269 2991 
Q 1406 3038 1543 3061 
Q 1681 3084 1819 3084 
Q 2600 3084 3056 2656 
Q 3513 2228 3513 1497 
Q 3513 744 3044 326 
Q 2575 -91 1722 -91 
Q 1428 -91 1123 -41 
Q 819 9 494 109 
L 494 744 
Q 775 591 1075 516 
Q 1375 441 1709 441 
Q 2250 441 2565 725 
Q 2881 1009 2881 1497 
Q 2881 1984 2565 2268 
Q 2250 2553 1709 2553 
Q 1456 2553 1204 2497 
Q 953 2441 691 2322 
L 691 4666 
z
" transform="scale(0.015625)"/>
       </defs>
       <use xlink:href="#DejaVuSans-35"/>
      </g>
     </g>
    </g>
    <g id="xtick_3">
     <g id="text_3">
      <!-- 10 -->
      <g transform="translate(291.731186 366.30265) scale(0.08 -0.08)">
       <defs>
        <path id="DejaVuSans-31" d="M 794 531 
L 1825 531 
L 1825 4091 
L 703 3866 
L 703 4441 
L 1819 4666 
L 2450 4666 
L 2450 531 
L 3481 531 
L 3481 0 
L 794 0 
L 794 531 
z
" transform="scale(0.015625)"/>
       </defs>
       <use xlink:href="#DejaVuSans-31"/>
       <use xlink:href="#DejaVuSans-30" x="63.623047"/>
      </g>
     </g>
    </g>
    <g id="xtick_4">
     <g id="text_4">
      <!-- 15 -->
      <g transform="translate(410.932717 366.30265) scale(0.08 -0.08)">
       <use xlink:href="#DejaVuSans-31"/>
       <use xlink:href="#DejaVuSans-35" x="63.623047"/>
      </g>
     </g>
    </g>
    <g id="xtick_5">
     <g id="text_5">
      <!-- 20 -->
      <g transform="translate(530.134247 366.30265) scale(0.08 -0.08)">
       <defs>
        <path id="DejaVuSans-32" d="M 1228 531 
L 3431 531 
L 3431 0 
L 469 0 
L 469 531 
Q 828 903 1448 1529 
Q 2069 2156 2228 2338 
Q 2531 2678 2651 2914 
Q 2772 3150 2772 3378 
Q 2772 3750 2511 3984 
Q 2250 4219 1831 4219 
Q 1534 4219 1204 4116 
Q 875 4013 500 3803 
L 500 4441 
Q 881 4594 1212 4672 
Q 1544 4750 1819 4750 
Q 2544 4750 2975 4387 
Q 3406 4025 3406 3419 
Q 3406 3131 3298 2873 
Q 3191 2616 2906 2266 
Q 2828 2175 2409 1742 
Q 1991 1309 1228 531 
z
" transform="scale(0.015625)"/>
       </defs>
       <use xlink:href="#DejaVuSans-32"/>
       <use xlink:href="#DejaVuSans-30" x="63.623047"/>
      </g>
     </g>
    </g>
    <g id="xtick_6">
     <g id="text_6">
      <!-- 25 -->
      <g transform="translate(649.335778 366.30265) scale(0.08 -0.08)">
       <use xlink:href="#DejaVuSans-32"/>
       <use xlink:href="#DejaVuSans-35" x="63.623047"/>
      </g>
     </g>
    </g>
    <g id="xtick_7">
     <g id="text_7">
      <!-- 30 -->
      <g transform="translate(768.537309 366.30265) scale(0.08 -0.08)">
       <defs>
        <path id="DejaVuSans-33" d="M 2597 2516 
Q 3050 2419 3304 2112 
Q 3559 1806 3559 1356 
Q 3559 666 3084 287 
Q 2609 -91 1734 -91 
Q 1441 -91 1130 -33 
Q 819 25 488 141 
L 488 750 
Q 750 597 1062 519 
Q 1375 441 1716 441 
Q 2309 441 2620 675 
Q 2931 909 2931 1356 
Q 2931 1769 2642 2001 
Q 2353 2234 1838 2234 
L 1294 2234 
L 1294 2753 
L 1863 2753 
Q 2328 2753 2575 2939 
Q 2822 3125 2822 3475 
Q 2822 3834 2567 4026 
Q 2313 4219 1838 4219 
Q 1578 4219 1281 4162 
Q 984 4106 628 3988 
L 628 4550 
Q 988 4650 1302 4700 
Q 1616 4750 1894 4750 
Q 2613 4750 3031 4423 
Q 3450 4097 3450 3541 
Q 3450 3153 3228 2886 
Q 3006 2619 2597 2516 
z
" transform="scale(0.015625)"/>
       </defs>
       <use xlink:href="#DejaVuSans-33"/>
       <use xlink:href="#DejaVuSans-30" x="63.623047"/>
      </g>
     </g>
    </g>
    <g id="xtick_8">
     <g id="text_8">
      <!-- 35 -->
      <g transform="translate(887.738839 366.30265) scale(0.08 -0.08)">
       <use xlink:href="#DejaVuSans-33"/>
       <use xlink:href="#DejaVuSans-35" x="63.623047"/>
      </g>
     </g>
    </g>
    <g id="text_9">
     <!-- Mean Sequence Quality (Phred Score) -->
     <g transform="translate(430.895938 379.564837) scale(0.1 -0.1)">
      <defs>
       <path id="DejaVuSans-4d" d="M 628 4666 
L 1569 4666 
L 2759 1491 
L 3956 4666 
L 4897 4666 
L 4897 0 
L 4281 0 
L 4281 4097 
L 3078 897 
L 2444 897 
L 1241 4097 
L 1241 0 
L 628 0 
L 628 4666 
z
" transform="scale(0.015625)"/>
       <path id="DejaVuSans-65" d="M 3597 1894 
L 3597 1613 
L 953 1613 
Q 991 1019 1311 708 
Q 1631 397 2203 397 
Q 2534 397 2845 478 
Q 3156 559 3463 722 
L 3463 178 
Q 3153 47 2828 -22 
Q 2503 -91 2169 -91 
Q 1331 -91 842 396 
Q 353 884 353 1716 
Q 353 2575 817 3079 
Q 1281 3584 2069 3584 
Q 2775 3584 3186 3129 
Q 3597 2675 3597 1894 
z
M 3022 2063 
Q 3016 2534 2758 2815 
Q 2500 3097 2075 3097 
Q 1594 3097 1305 2825 
Q 1016 2553 972 2059 
L 3022 2063 
z
" transform="scale(0.015625)"/>
       <path id="DejaVuSans-61" d="M 2194 1759 
Q 1497 1759 1228 1600 
Q 959 1441 959 1056 
Q 959 750 1161 570 
Q 1363 391 1709 391 
Q 2188 391 2477 730 
Q 2766 1069 2766 1631 
L 2766 1759 
L 2194 1759 
z
M 3341 1997 
L 3341 0 
L 2766 0 
L 2766 531 
Q 2569 213 2275 61 
Q 1981 -91 1556 -91 
Q 1019 -91 701 211 
Q 384 513 384 1019 
Q 384 1609 779 1909 
Q 1175 2209 1959 2209 
L 2766 2209 
L 2766 2266 
Q 2766 2663 2505 2880 
Q 2244 3097 1772 3097 
Q 1472 3097 1187 3025 
Q 903 2953 641 2809 
L 641 3341 
Q 956 3463 1253 3523 
Q 1550 3584 1831 3584 
Q 2591 3584 2966 3190 
Q 3341 2797 3341 1997 
z
" transform="scale(0.015625)"/>
       <path id="DejaVuSans-6e" d="M 3513 2113 
L 3513 0 
L 2938 0 
L 2938 2094 
Q 2938 2591 2744 2837 
Q 2550 3084 2163 3084 
Q 1697 3084 1428 2787 
Q 1159 2491 1159 1978 
L 1159 0 
L 581 0 
L 581 3500 
L 1159 3500 
L 1159 2956 
Q 1366 3272 1645 3428 
Q 1925 3584 2291 3584 
Q 2894 3584 3203 3211 
Q 3513 2838 3513 2113 
z
" transform="scale(0.015625)"/>
       <path id="DejaVuSans-20" transform="scale(0.015625)"/>
       <path id="DejaVuSans-53" d="M 3425 4513 
L 3425 3897 
Q 3066 4069 2747 4153 
Q 2428 4238 2131 4238 
Q 1616 4238 1336 4038 
Q 1056 3838 1056 3469 
Q 1056 3159 1242 3001 
Q 1428 2844 1947 2747 
L 2328 2669 
Q 3034 2534 3370 2195 
Q 3706 1856 3706 1288 
Q 3706 609 3251 259 
Q 2797 -91 1919 -91 
Q 1588 -91 1214 -16 
Q 841 59 441 206 
L 441 856 
Q 825 641 1194 531 
Q 1563 422 1919 422 
Q 2459 422 2753 634 
Q 3047 847 3047 1241 
Q 3047 1584 2836 1778 
Q 2625 1972 2144 2069 
L 1759 2144 
Q 1053 2284 737 2584 
Q 422 2884 422 3419 
Q 422 4038 858 4394 
Q 1294 4750 2059 4750 
Q 2388 4750 2728 4690 
Q 3069 4631 3425 4513 
z
" transform="scale(0.015625)"/>
       <path id="DejaVuSans-71" d="M 947 1747 
Q 947 1113 1208 752 
Q 1469 391 1925 391 
Q 2381 391 2643 752 
Q 2906 1113 2906 1747 
Q 2906 2381 2643 2742 
Q 2381 3103 1925 3103 
Q 1469 3103 1208 2742 
Q 947 2381 947 1747 
z
M 2906 525 
Q 2725 213 2448 61 
Q 2172 -91 1784 -91 
Q 1150 -91 751 415 
Q 353 922 353 1747 
Q 353 2572 751 3078 
Q 1150 3584 1784 3584 
Q 2172 3584 2448 3432 
Q 2725 3281 2906 2969 
L 2906 3500 
L 3481 3500 
L 3481 -1331 
L 2906 -1331 
L 2906 525 
z
" transform="scale(0.015625)"/>
       <path id="DejaVuSans-75" d="M 544 1381 
L 544 3500 
L 1119 3500 
L 1119 1403 
Q 1119 906 1312 657 
Q 1506 409 1894 409 
Q 2359 409 2629 706 
Q 2900 1003 2900 1516 
L 2900 3500 
L 3475 3500 
L 3475 0 
L 2900 0 
L 2900 538 
Q 2691 219 2414 64 
Q 2138 -91 1772 -91 
Q 1169 -91 856 284 
Q 544 659 544 1381 
z
M 1991 3584 
L 1991 3584 
z
" transform="scale(0.015625)"/>
       <path id="DejaVuSans-63" d="M 3122 3366 
L 3122 2828 
Q 2878 2963 2633 3030 
Q 2388 3097 2138 3097 
Q 1578 3097 1268 2742 
Q 959 2388 959 1747 
Q 959 1106 1268 751 
Q 1578 397 2138 397 
Q 2388 397 2633 464 
Q 2878 531 3122 666 
L 3122 134 
Q 2881 22 2623 -34 
Q 2366 -91 2075 -91 
Q 1284 -91 818 406 
Q 353 903 353 1747 
Q 353 2603 823 3093 
Q 1294 3584 2113 3584 
Q 2378 3584 2631 3529 
Q 2884 3475 3122 3366 
z
" transform="scale(0.015625)"/>
       <path id="DejaVuSans-51" d="M 2522 4238 
Q 1834 4238 1429 3725 
Q 1025 3213 1025 2328 
Q 1025 1447 1429 934 
Q 1834 422 2522 422 
Q 3209 422 3611 934 
Q 4013 1447 4013 2328 
Q 4013 3213 3611 3725 
Q 3209 4238 2522 4238 
z
M 3406 84 
L 4238 -825 
L 3475 -825 
L 2784 -78 
Q 2681 -84 2626 -87 
Q 2572 -91 2522 -91 
Q 1538 -91 948 567 
Q 359 1225 359 2328 
Q 359 3434 948 4092 
Q 1538 4750 2522 4750 
Q 3503 4750 4090 4092 
Q 4678 3434 4678 2328 
Q 4678 1516 4351 937 
Q 4025 359 3406 84 
z
" transform="scale(0.015625)"/>
       <path id="DejaVuSans-6c" d="M 603 4863 
L 1178 4863 
L 1178 0 
L 603 0 
L 603 4863 
z
" transform="scale(0.015625)"/>
       <path id="DejaVuSans-69" d="M 603 3500 
L 1178 3500 
L 1178 0 
L 603 0 
L 603 3500 
z
M 603 4863 
L 1178 4863 
L 1178 4134 
L 603 4134 
L 603 4863 
z
" transform="scale(0.015625)"/>
       <path id="DejaVuSans-74" d="M 1172 4494 
L 1172 3500 
L 2356 3500 
L 2356 3053 
L 1172 3053 
L 1172 1153 
Q 1172 725 1289 603 
Q 1406 481 1766 481 
L 2356 481 
L 2356 0 
L 1766 0 
Q 1100 0 847 248 
Q 594 497 594 1153 
L 594 3053 
L 172 3053 
L 172 3500 
L 594 3500 
L 594 4494 
L 1172 4494 
z
" transform="scale(0.015625)"/>
       <path id="DejaVuSans-79" d="M 2059 -325 
Q 1816 -950 1584 -1140 
Q 1353 -1331 966 -1331 
L 506 -1331 
L 506 -850 
L 844 -850 
Q 1081 -850 1212 -737 
Q 1344 -625 1503 -206 
L 1606 56 
L 191 3500 
L 800 3500 
L 1894 763 
L 2988 3500 
L 3597 3500 
L 2059 -325 
z
" transform="scale(0.015625)"/>
       <path id="DejaVuSans-28" d="M 1984 4856 
Q 1566 4138 1362 3434 
Q 1159 2731 1159 2009 
Q 1159 1288 1364 580 
Q 1569 -128 1984 -844 
L 1484 -844 
Q 1016 -109 783 600 
Q 550 1309 550 2009 
Q 550 2706 781 3412 
Q 1013 4119 1484 4856 
L 1984 4856 
z
" transform="scale(0.015625)"/>
       <path id="DejaVuSans-50" d="M 1259 4147 
L 1259 2394 
L 2053 2394 
Q 2494 2394 2734 2622 
Q 2975 2850 2975 3272 
Q 2975 3691 2734 3919 
Q 2494 4147 2053 4147 
L 1259 4147 
z
M 628 4666 
L 2053 4666 
Q 2838 4666 3239 4311 
Q 3641 3956 3641 3272 
Q 3641 2581 3239 2228 
Q 2838 1875 2053 1875 
L 1259 1875 
L 1259 0 
L 628 0 
L 628 4666 
z
" transform="scale(0.015625)"/>
       <path id="DejaVuSans-68" d="M 3513 2113 
L 3513 0 
L 2938 0 
L 2938 2094 
Q 2938 2591 2744 2837 
Q 2550 3084 2163 3084 
Q 1697 3084 1428 2787 
Q 1159 2491 1159 1978 
L 1159 0 
L 581 0 
L 581 4863 
L 1159 4863 
L 1159 2956 
Q 1366 3272 1645 3428 
Q 1925 3584 2291 3584 
Q 2894 3584 3203 3211 
Q 3513 2838 3513 2113 
z
" transform="scale(0.015625)"/>
       <path id="DejaVuSans-72" d="M 2631 2963 
Q 2534 3019 2420 3045 
Q 2306 3072 2169 3072 
Q 1681 3072 1420 2755 
Q 1159 2438 1159 1844 
L 1159 0 
L 581 0 
L 581 3500 
L 1159 3500 
L 1159 2956 
Q 1341 3275 1631 3429 
Q 1922 3584 2338 3584 
Q 2397 3584 2469 3576 
Q 2541 3569 2628 3553 
L 2631 2963 
z
" transform="scale(0.015625)"/>
       <path id="DejaVuSans-64" d="M 2906 2969 
L 2906 4863 
L 3481 4863 
L 3481 0 
L 2906 0 
L 2906 525 
Q 2725 213 2448 61 
Q 2172 -91 1784 -91 
Q 1150 -91 751 415 
Q 353 922 353 1747 
Q 353 2572 751 3078 
Q 1150 3584 1784 3584 
Q 2172 3584 2448 3432 
Q 2725 3281 2906 2969 
z
M 947 1747 
Q 947 1113 1208 752 
Q 1469 391 1925 391 
Q 2381 391 2643 752 
Q 2906 1113 2906 1747 
Q 2906 2381 2643 2742 
Q 2381 3103 1925 3103 
Q 1469 3103 1208 2742 
Q 947 2381 947 1747 
z
" transform="scale(0.015625)"/>
       <path id="DejaVuSans-6f" d="M 1959 3097 
Q 1497 3097 1228 2736 
Q 959 2375 959 1747 
Q 959 1119 1226 758 
Q 1494 397 1959 397 
Q 2419 397 2687 759 
Q 2956 1122 2956 1747 
Q 2956 2369 2687 2733 
Q 2419 3097 1959 3097 
z
M 1959 3584 
Q 2709 3584 3137 3096 
Q 3566 2609 3566 1747 
Q 3566 888 3137 398 
Q 2709 -91 1959 -91 
Q 1206 -91 779 398 
Q 353 888 353 1747 
Q 353 2609 779 3096 
Q 1206 3584 1959 3584 
z
" transform="scale(0.015625)"/>
       <path id="DejaVuSans-29" d="M 513 4856 
L 1013 4856 
Q 1481 4119 1714 3412 
Q 1947 2706 1947 2009 
Q 1947 1309 1714 600 
Q 1481 -109 1013 -844 
L 513 -844 
Q 928 -128 1133 580 
Q 1338 1288 1338 2009 
Q 1338 2731 1133 3434 
Q 928 4138 513 4856 
z
" transform="scale(0.015625)"/>
      </defs>
      <use xlink:href="#DejaVuSans-4d"/>
      <use xlink:href="#DejaVuSans-65" x="86.279297"/>
      <use xlink:href="#DejaVuSans-61" x="147.802734"/>
      <use xlink:href="#DejaVuSans-6e" x="209.082031"/>
      <use xlink:href="#DejaVuSans-20" x="272.460938"/>
      <use xlink:href="#DejaVuSans-53" x="304.248047"/>
      <use xlink:href="#DejaVuSans-65" x="367.724609"/>
      <use xlink:href="#DejaVuSans-71" x="429.248047"/>
      <use xlink:href="#DejaVuSans-75" x="492.724609"/>
      <use xlink:href="#DejaVuSans-65" x="556.103516"/>
      <use xlink:href="#DejaVuSans-6e" x="617.626953"/>
      <use xlink:href="#DejaVuSans-63" x="681.005859"/>
      <use xlink:href="#DejaVuSans-65" x="735.986328"/>
      <use xlink:href="#DejaVuSans-20" x="797.509766"/>
      <use xlink:href="#DejaVuSans-51" x="829.296875"/>
      <use xlink:href="#DejaVuSans-75" x="908.007812"/>
      <use xlink:href="#DejaVuSans-61" x="971.386719"/>
      <use xlink:href="#DejaVuSans-6c" x="1032.666016"/>
      <use xlink:href="#DejaVuSans-69" x="1060.449219"/>
      <use xlink:href="#DejaVuSans-74" x="1088.232422"/>
      <use xlink:href="#DejaVuSans-79" x="1127.441406"/>
      <use xlink:href="#DejaVuSans-20" x="1186.621094"/>
      <use xlink:href="#DejaVuSans-28" x="1218.408203"/>
      <use xlink:href="#DejaVuSans-50" x="1257.421875"/>
      <use xlink:href="#DejaVuSans-68" x="1317.724609"/>
      <use xlink:href="#DejaVuSans-72" x="1381.103516"/>
      <use xlink:href="#DejaVuSans-65" x="1419.966797"/>
      <use xlink:href="#DejaVuSans-64" x="1481.490234"/>
      <use xlink:href="#DejaVuSans-20" x="1544.966797"/>
      <use xlink:href="#DejaVuSans-53" x="1576.753906"/>
      <use xlink:href="#DejaVuSans-63" x="1640.230469"/>
      <use xlink:href="#DejaVuSans-6f" x="1695.210938"/>
      <use xlink:href="#DejaVuSans-72" x="1756.392578"/>
      <use xlink:href="#DejaVuSans-65" x="1795.255859"/>
      <use xlink:href="#DejaVuSans-29" x="1856.779297"/>
     </g>
    </g>
   </g>
   <g id="matplotlib.axis_2">
    <g id="ytick_1">
     <g id="line2d_1">
      <path d="M 58.418125 353.2239 
L 992.958125 353.2239 
" clip-path="url(#p063c10248d)" style="fill: none; stroke: #dedede; stroke-linecap: square"/>
     </g>
     <g id="text_10">
      <!-- 0 -->
      <g transform="translate(46.328125 356.263275) scale(0.08 -0.08)">
       <use xlink:href="#DejaVuSans-30"/>
      </g>
     </g>
    </g>
    <g id="ytick_2">
     <g id="line2d_2">
      <path d="M 58.418125 310.615765 
L 992.958125 310.615765 
" clip-path="url(#p063c10248d)" style="fill: none; stroke: #dedede; stroke-linecap: square"/>
     </g>
     <g id="text_11">
      <!-- 20000 -->
      <g transform="translate(25.968125 313.65514) scale(0.08 -0.08)">
       <use xlink:href="#DejaVuSans-32"/>
       <use xlink:href="#DejaVuSans-30" x="63.623047"/>
       <use xlink:href="#DejaVuSans-30" x="127.246094"/>
       <use xlink:href="#DejaVuSans-30" x="190.869141"/>
       <use xlink:href="#DejaVuSans-30" x="254.492188"/>
      </g>
     </g>
    </g>
    <g id="ytick_3">
     <g id="line2d_3">
      <path d="M 58.418125 268.00763 
L 992.958125 268.00763 
" clip-path="url(#p063c10248d)" style="fill: none; stroke: #dedede; stroke-linecap: square"/>
     </g>
     <g id="text_12">
      <!-- 40000 -->
      <g transform="translate(25.968125 271.047005) scale(0.08 -0.08)">
       <defs>
        <path id="DejaVuSans-34" d="M 2419 4116 
L 825 1625 
L 2419 1625 
L 2419 4116 
z
M 2253 4666 
L 3047 4666 
L 3047 1625 
L 3713 1625 
L 3713 1100 
L 3047 1100 
L 3047 0 
L 2419 0 
L 2419 1100 
L 313 1100 
L 313 1709 
L 2253 4666 
z
" transform="scale(0.015625)"/>
       </defs>
       <use xlink:href="#DejaVuSans-34"/>
       <use xlink:href="#DejaVuSans-30" x="63.623047"/>
       <use xlink:href="#DejaVuSans-30" x="127.246094"/>
       <use xlink:href="#DejaVuSans-30" x="190.869141"/>
       <use xlink:href="#DejaVuSans-30" x="254.492188"/>
      </g>
     </g>
    </g>
    <g id="ytick_4">
     <g id="line2d_4">
      <path d="M 58.418125 225.399495 
L 992.958125 225.399495 
" clip-path="url(#p063c10248d)" style="fill: none; stroke: #dedede; stroke-linecap: square"/>
     </g>
     <g id="text_13">
      <!-- 60000 -->
      <g transform="translate(25.968125 228.43887) scale(0.08 -0.08)">
       <defs>
        <path id="DejaVuSans-36" d="M 2113 2584 
Q 1688 2584 1439 2293 
Q 1191 2003 1191 1497 
Q 1191 994 1439 701 
Q 1688 409 2113 409 
Q 2538 409 2786 701 
Q 3034 994 3034 1497 
Q 3034 2003 2786 2293 
Q 2538 2584 2113 2584 
z
M 3366 4563 
L 3366 3988 
Q 3128 4100 2886 4159 
Q 2644 4219 2406 4219 
Q 1781 4219 1451 3797 
Q 1122 3375 1075 2522 
Q 1259 2794 1537 2939 
Q 1816 3084 2150 3084 
Q 2853 3084 3261 2657 
Q 3669 2231 3669 1497 
Q 3669 778 3244 343 
Q 2819 -91 2113 -91 
Q 1303 -91 875 529 
Q 447 1150 447 2328 
Q 447 3434 972 4092 
Q 1497 4750 2381 4750 
Q 2619 4750 2861 4703 
Q 3103 4656 3366 4563 
z
" transform="scale(0.015625)"/>
       </defs>
       <use xlink:href="#DejaVuSans-36"/>
       <use xlink:href="#DejaVuSans-30" x="63.623047"/>
       <use xlink:href="#DejaVuSans-30" x="127.246094"/>
       <use xlink:href="#DejaVuSans-30" x="190.869141"/>
       <use xlink:href="#DejaVuSans-30" x="254.492188"/>
      </g>
     </g>
    </g>
    <g id="ytick_5">
     <g id="line2d_5">
      <path d="M 58.418125 182.79136 
L 992.958125 182.79136 
" clip-path="url(#p063c10248d)" style="fill: none; stroke: #dedede; stroke-linecap: square"/>
     </g>
     <g id="text_14">
      <!-- 80000 -->
      <g transform="translate(25.968125 185.830735) scale(0.08 -0.08)">
       <defs>
        <path id="DejaVuSans-38" d="M 2034 2216 
Q 1584 2216 1326 1975 
Q 1069 1734 1069 1313 
Q 1069 891 1326 650 
Q 1584 409 2034 409 
Q 2484 409 2743 651 
Q 3003 894 3003 1313 
Q 3003 1734 2745 1975 
Q 2488 2216 2034 2216 
z
M 1403 2484 
Q 997 2584 770 2862 
Q 544 3141 544 3541 
Q 544 4100 942 4425 
Q 1341 4750 2034 4750 
Q 2731 4750 3128 4425 
Q 3525 4100 3525 3541 
Q 3525 3141 3298 2862 
Q 3072 2584 2669 2484 
Q 3125 2378 3379 2068 
Q 3634 1759 3634 1313 
Q 3634 634 3220 271 
Q 2806 -91 2034 -91 
Q 1263 -91 848 271 
Q 434 634 434 1313 
Q 434 1759 690 2068 
Q 947 2378 1403 2484 
z
M 1172 3481 
Q 1172 3119 1398 2916 
Q 1625 2713 2034 2713 
Q 2441 2713 2670 2916 
Q 2900 3119 2900 3481 
Q 2900 3844 2670 4047 
Q 2441 4250 2034 4250 
Q 1625 4250 1398 4047 
Q 1172 3844 1172 3481 
z
" transform="scale(0.015625)"/>
       </defs>
       <use xlink:href="#DejaVuSans-38"/>
       <use xlink:href="#DejaVuSans-30" x="63.623047"/>
       <use xlink:href="#DejaVuSans-30" x="127.246094"/>
       <use xlink:href="#DejaVuSans-30" x="190.869141"/>
       <use xlink:href="#DejaVuSans-30" x="254.492188"/>
      </g>
     </g>
    </g>
    <g id="ytick_6">
     <g id="line2d_6">
      <path d="M 58.418125 140.183226 
L 992.958125 140.183226 
" clip-path="url(#p063c10248d)" style="fill: none; stroke: #dedede; stroke-linecap: square"/>
     </g>
     <g id="text_15">
      <!-- 100000 -->
      <g transform="translate(20.878125 143.222601) scale(0.08 -0.08)">
       <use xlink:href="#DejaVuSans-31"/>
       <use xlink:href="#DejaVuSans-30" x="63.623047"/>
       <use xlink:href="#DejaVuSans-30" x="127.246094"/>
       <use xlink:href="#DejaVuSans-30" x="190.869141"/>
       <use xlink:href="#DejaVuSans-30" x="254.492188"/>
       <use xlink:href="#DejaVuSans-30" x="318.115234"/>
      </g>
     </g>
    </g>
    <g id="ytick_7">
     <g id="line2d_7">
      <path d="M 58.418125 97.575091 
L 992.958125 97.575091 
" clip-path="url(#p063c10248d)" style="fill: none; stroke: #dedede; stroke-linecap: square"/>
     </g>
     <g id="text_16">
      <!-- 120000 -->
      <g transform="translate(20.878125 100.614466) scale(0.08 -0.08)">
       <use xlink:href="#DejaVuSans-31"/>
       <use xlink:href="#DejaVuSans-32" x="63.623047"/>
       <use xlink:href="#DejaVuSans-30" x="127.246094"/>
       <use xlink:href="#DejaVuSans-30" x="190.869141"/>
       <use xlink:href="#DejaVuSans-30" x="254.492188"/>
       <use xlink:href="#DejaVuSans-30" x="318.115234"/>
      </g>
     </g>
    </g>
    <g id="ytick_8">
     <g id="line2d_8">
      <path d="M 58.418125 54.966956 
L 992.958125 54.966956 
" clip-path="url(#p063c10248d)" style="fill: none; stroke: #dedede; stroke-linecap: square"/>
     </g>
     <g id="text_17">
      <!-- 140000 -->
      <g transform="translate(20.878125 58.006331) scale(0.08 -0.08)">
       <use xlink:href="#DejaVuSans-31"/>
       <use xlink:href="#DejaVuSans-34" x="63.623047"/>
       <use xlink:href="#DejaVuSans-30" x="127.246094"/>
       <use xlink:href="#DejaVuSans-30" x="190.869141"/>
       <use xlink:href="#DejaVuSans-30" x="254.492188"/>
       <use xlink:href="#DejaVuSans-30" x="318.115234"/>
      </g>
     </g>
    </g>
    <g id="text_18">
     <!-- Count -->
     <g transform="translate(14.798438 209.088338) rotate(-90) scale(0.1 -0.1)">
      <defs>
       <path id="DejaVuSans-43" d="M 4122 4306 
L 4122 3641 
Q 3803 3938 3442 4084 
Q 3081 4231 2675 4231 
Q 1875 4231 1450 3742 
Q 1025 3253 1025 2328 
Q 1025 1406 1450 917 
Q 1875 428 2675 428 
Q 3081 428 3442 575 
Q 3803 722 4122 1019 
L 4122 359 
Q 3791 134 3420 21 
Q 3050 -91 2638 -91 
Q 1578 -91 968 557 
Q 359 1206 359 2328 
Q 359 3453 968 4101 
Q 1578 4750 2638 4750 
Q 3056 4750 3426 4639 
Q 3797 4528 4122 4306 
z
" transform="scale(0.015625)"/>
      </defs>
      <use xlink:href="#DejaVuSans-43"/>
      <use xlink:href="#DejaVuSans-6f" x="69.824219"/>
      <use xlink:href="#DejaVuSans-75" x="131.005859"/>
      <use xlink:href="#DejaVuSans-6e" x="194.384766"/>
      <use xlink:href="#DejaVuSans-74" x="257.763672"/>
     </g>
    </g>
   </g>
   <g id="line2d_9">
    <path d="M 487.543635 353.22177 
L 511.383941 353.213248 
L 535.224247 353.198335 
L 559.064554 353.198335 
L 582.90486 353.191944 
L 606.745166 353.202596 
L 630.585472 353.196205 
L 654.425778 353.194074 
L 678.266084 353.200466 
L 702.10639 353.208987 
L 725.946696 353.191944 
L 749.787003 353.187683 
L 773.627309 353.177031 
L 797.467615 353.179161 
L 821.307921 353.157857 
L 845.148227 353.138684 
L 868.988533 353.042815 
L 892.828839 352.940556 
L 916.669145 352.678516 
L 940.509452 352.442041 
L 964.349758 353.187683 
" clip-path="url(#p063c10248d)" style="fill: none; stroke: #5cb85c; stroke-linecap: square"/>
   </g>
   <g id="line2d_10">
    <path d="M 487.543635 353.213248 
L 511.383941 353.213248 
L 535.224247 353.213248 
L 559.064554 353.208987 
L 582.90486 353.217509 
L 606.745166 353.219639 
L 630.585472 353.211118 
L 654.425778 353.217509 
L 678.266084 353.217509 
L 702.10639 353.219639 
L 725.946696 353.22177 
L 749.787003 353.2239 
L 773.627309 353.219639 
L 797.467615 353.215378 
L 821.307921 353.215378 
L 845.148227 353.215378 
L 868.988533 353.219639 
L 892.828839 353.215378 
L 916.669145 353.219639 
L 940.509452 353.217509 
L 964.349758 353.191944 
" clip-path="url(#p063c10248d)" style="fill: none; stroke: #5cb85c; stroke-linecap: square"/>
   </g>
   <g id="line2d_11">
    <path d="M 463.703329 353.22177 
L 487.543635 353.215378 
L 511.383941 353.204726 
L 535.224247 353.198335 
L 559.064554 353.191944 
L 582.90486 353.183422 
L 606.745166 353.166379 
L 630.585472 353.166379 
L 654.425778 353.177031 
L 678.266084 353.168509 
L 702.10639 353.155727 
L 725.946696 353.153597 
L 749.787003 353.115249 
L 773.627309 353.11738 
L 797.467615 353.12164 
L 821.307921 353.032163 
L 845.148227 352.976773 
L 868.988533 352.793558 
L 892.828839 352.516605 
L 916.669145 351.638877 
L 940.509452 349.947334 
L 964.349758 352.848948 
" clip-path="url(#p063c10248d)" style="fill: none; stroke: #5cb85c; stroke-linecap: square"/>
   </g>
   <g id="line2d_12">
    <path d="M 439.863023 353.22177 
L 463.703329 353.215378 
L 487.543635 353.211118 
L 511.383941 353.191944 
L 535.224247 353.177031 
L 559.064554 353.179161 
L 582.90486 353.187683 
L 606.745166 353.187683 
L 630.585472 353.196205 
L 654.425778 353.202596 
L 678.266084 353.202596 
L 702.10639 353.213248 
L 725.946696 353.215378 
L 749.787003 353.2239 
L 773.627309 353.213248 
L 797.467615 353.213248 
L 821.307921 353.213248 
L 845.148227 353.215378 
L 868.988533 353.22177 
L 892.828839 353.215378 
L 916.669145 353.213248 
L 940.509452 353.215378 
" clip-path="url(#p063c10248d)" style="fill: none; stroke: #d9534f; stroke-linecap: square"/>
   </g>
   <g id="line2d_13">
    <path d="M 463.703329 353.22177 
L 487.543635 353.206857 
L 511.383941 353.200466 
L 535.224247 353.202596 
L 559.064554 353.162118 
L 582.90486 353.202596 
L 606.745166 353.181292 
L 630.585472 353.204726 
L 654.425778 353.200466 
L 678.266084 353.206857 
L 702.10639 353.202596 
L 725.946696 353.202596 
L 749.787003 353.204726 
L 773.627309 353.213248 
L 797.467615 353.219639 
L 821.307921 353.208987 
L 845.148227 353.204726 
L 868.988533 353.204726 
L 892.828839 353.213248 
L 916.669145 353.213248 
L 940.509452 353.22177 
L 964.349758 353.217509 
" clip-path="url(#p063c10248d)" style="fill: none; stroke: #f0ad4e; stroke-linecap: square"/>
   </g>
   <g id="line2d_14">
    <path d="M 535.224247 353.213248 
L 559.064554 353.215378 
L 582.90486 353.215378 
L 606.745166 353.217509 
L 630.585472 353.211118 
L 654.425778 353.219639 
L 678.266084 353.219639 
L 702.10639 353.219639 
L 725.946696 353.2239 
L 749.787003 353.22177 
L 773.627309 353.219639 
L 797.467615 353.2239 
L 821.307921 353.2239 
L 845.148227 353.22177 
L 868.988533 353.22177 
L 892.828839 353.219639 
L 916.669145 353.219639 
L 940.509452 353.211118 
L 964.349758 353.208987 
" clip-path="url(#p063c10248d)" style="fill: none; stroke: #5cb85c; stroke-linecap: square"/>
   </g>
   <g id="line2d_15">
    <path d="M 535.224247 353.219639 
L 559.064554 353.217509 
L 582.90486 353.219639 
L 606.745166 353.2239 
L 630.585472 353.22177 
L 654.425778 353.2239 
L 678.266084 353.22177 
L 702.10639 353.219639 
L 725.946696 353.2239 
L 749.787003 353.22177 
L 773.627309 353.2239 
L 797.467615 353.2239 
L 821.307921 353.2239 
L 845.148227 353.2239 
L 868.988533 353.22177 
L 892.828839 353.22177 
L 916.669145 353.22177 
L 940.509452 353.211118 
L 964.349758 353.215378 
" clip-path="url(#p063c10248d)" style="fill: none; stroke: #5cb85c; stroke-linecap: square"/>
   </g>
   <g id="line2d_16">
    <path d="M 439.863023 353.22177 
L 463.703329 353.198335 
L 487.543635 353.130162 
L 511.383941 352.944817 
L 535.224247 352.608212 
L 559.064554 351.973351 
L 582.90486 351.229839 
L 606.745166 351.061537 
L 630.585472 350.986973 
L 654.425778 350.588587 
L 678.266084 350.249852 
L 702.10639 349.563861 
L 725.946696 348.852305 
L 749.787003 348.264313 
L 773.627309 347.350369 
L 797.467615 345.873997 
L 821.307921 343.707373 
L 845.148227 340.582066 
L 868.988533 334.114152 
L 892.828839 321.911182 
L 916.669145 294.424674 
L 940.509452 204.012342 
L 964.349758 50.397233 
" clip-path="url(#p063c10248d)" style="fill: none; stroke: #5cb85c; stroke-linecap: square"/>
   </g>
   <g id="line2d_17">
    <path d="M 392.182411 353.22177 
L 416.022717 352.981034 
L 439.863023 350.077289 
L 463.703329 346.52164 
L 487.543635 346.20634 
L 511.383941 346.3086 
L 535.224247 343.703112 
L 559.064554 341.715443 
L 582.90486 339.836424 
L 606.745166 338.847915 
L 630.585472 336.065604 
L 654.425778 333.242815 
L 678.266084 327.275546 
L 702.10639 322.26909 
L 725.946696 328.481356 
L 749.787003 334.197237 
L 773.627309 332.405565 
L 797.467615 328.313054 
L 821.307921 323.57716 
L 845.148227 319.018089 
L 868.988533 311.659664 
L 892.828839 302.215571 
L 916.669145 281.708276 
L 940.509452 274.247592 
L 964.349758 340.228419 
" clip-path="url(#p063c10248d)" style="fill: none; stroke: #5cb85c; stroke-linecap: square"/>
   </g>
   <g id="line2d_18">
    <path d="M 416.022717 353.219639 
L 439.863023 353.217509 
L 463.703329 353.17277 
L 487.543635 353.01299 
L 511.383941 352.412215 
L 535.224247 351.419445 
L 559.064554 350.413894 
L 582.90486 349.529775 
L 606.745166 348.617961 
L 630.585472 347.808406 
L 654.425778 346.902983 
L 678.266084 346.283035 
L 702.10639 345.616218 
L 725.946696 343.438942 
L 749.787003 341.6494 
L 773.627309 339.109955 
L 797.467615 336.071995 
L 821.307921 331.794139 
L 845.148227 324.702015 
L 868.988533 313.270252 
L 892.828839 291.565668 
L 916.669145 247.496074 
L 940.509452 120.6197 
L 964.349758 116.725317 
" clip-path="url(#p063c10248d)" style="fill: none; stroke: #5cb85c; stroke-linecap: square"/>
   </g>
   <g id="line2d_19">
    <path d="M 439.863023 353.217509 
L 463.703329 353.179161 
L 487.543635 353.104597 
L 511.383941 352.774384 
L 535.224247 352.052176 
L 559.064554 351.18297 
L 582.90486 350.654629 
L 606.745166 350.273287 
L 630.585472 349.815249 
L 654.425778 349.180388 
L 678.266084 348.502919 
L 702.10639 345.654565 
L 725.946696 344.974965 
L 749.787003 346.04656 
L 773.627309 345.814345 
L 797.467615 344.176063 
L 821.307921 341.634487 
L 845.148227 338.60931 
L 868.988533 333.487812 
L 892.828839 323.334293 
L 916.669145 299.105177 
L 940.509452 230.631774 
L 964.349758 233.537649 
" clip-path="url(#p063c10248d)" style="fill: none; stroke: #5cb85c; stroke-linecap: square"/>
   </g>
   <g id="line2d_20">
    <path d="M 439.863023 353.217509 
L 463.703329 353.191944 
L 487.543635 353.128032 
L 511.383941 352.949078 
L 535.224247 352.395172 
L 559.064554 351.681486 
L 582.90486 350.999755 
L 606.745166 350.788845 
L 630.585472 350.584326 
L 654.425778 350.053855 
L 678.266084 348.643525 
L 702.10639 343.886327 
L 725.946696 342.669865 
L 749.787003 347.314152 
L 773.627309 347.957535 
L 797.467615 346.83268 
L 821.307921 345.439394 
L 845.148227 343.705243 
L 868.988533 340.720543 
L 892.828839 334.685101 
L 916.669145 320.051337 
L 940.509452 271.277805 
L 964.349758 203.187875 
" clip-path="url(#p063c10248d)" style="fill: none; stroke: #5cb85c; stroke-linecap: square"/>
   </g>
   <g id="line2d_21">
    <path d="M 439.863023 353.22177 
L 463.703329 353.179161 
L 487.543635 353.042815 
L 511.383941 352.48891 
L 535.224247 350.863409 
L 559.064554 349.516992 
L 582.90486 348.287748 
L 606.745166 346.949852 
L 630.585472 345.401046 
L 654.425778 343.445333 
L 678.266084 338.658309 
L 702.10639 324.410149 
L 725.946696 324.608277 
L 749.787003 336.487425 
L 773.627309 338.240749 
L 797.467615 335.330614 
L 821.307921 330.379548 
L 845.148227 325.138748 
L 868.988533 316.913247 
L 892.828839 303.417121 
L 916.669145 275.412924 
L 940.509452 223.808082 
L 964.349758 318.5004 
" clip-path="url(#p063c10248d)" style="fill: none; stroke: #5cb85c; stroke-linecap: square"/>
   </g>
   <g id="line2d_22">
    <path d="M 439.863023 353.22177 
L 463.703329 353.200466 
L 487.543635 353.134423 
L 511.383941 352.95973 
L 535.224247 352.614604 
L 559.064554 352.015959 
L 582.90486 351.332099 
L 606.745166 351.070059 
L 630.585472 350.916669 
L 654.425778 350.690846 
L 678.266084 350.23707 
L 702.10639 349.510601 
L 725.946696 349.03552 
L 749.787003 348.323964 
L 773.627309 347.439846 
L 797.467615 345.482002 
L 821.307921 343.984326 
L 845.148227 340.726934 
L 868.988533 335.582002 
L 892.828839 325.09827 
L 916.669145 301.31867 
L 940.509452 223.239263 
L 964.349758 137.596912 
" clip-path="url(#p063c10248d)" style="fill: none; stroke: #5cb85c; stroke-linecap: square"/>
   </g>
   <g id="line2d_23">
    <path d="M 463.703329 353.168509 
L 487.543635 352.966121 
L 511.383941 352.309956 
L 535.224247 350.543848 
L 559.064554 349.107954 
L 582.90486 349.095172 
L 606.745166 349.448819 
L 630.585472 349.099433 
L 654.425778 348.735133 
L 678.266084 349.122867 
L 702.10639 348.960956 
L 725.946696 348.470963 
L 749.787003 348.076837 
L 773.627309 346.998851 
L 797.467615 345.767476 
L 821.307921 344.133454 
L 845.148227 341.666443 
L 868.988533 337.835972 
L 892.828839 331.233842 
L 916.669145 319.976772 
L 940.509452 298.890006 
L 964.349758 248.424931 
" clip-path="url(#p063c10248d)" style="fill: none; stroke: #5cb85c; stroke-linecap: square"/>
   </g>
   <g id="line2d_24">
    <path d="M 439.863023 353.219639 
L 463.703329 353.17277 
L 487.543635 353.11951 
L 511.383941 352.846818 
L 535.224247 352.369607 
L 559.064554 351.873222 
L 582.90486 351.263926 
L 606.745166 350.989103 
L 630.585472 350.86554 
L 654.425778 350.701498 
L 678.266084 350.300982 
L 702.10639 349.433906 
L 725.946696 348.856566 
L 749.787003 348.078968 
L 773.627309 346.513119 
L 797.467615 344.523319 
L 821.307921 342.614474 
L 845.148227 339.197302 
L 868.988533 333.419639 
L 892.828839 320.741588 
L 916.669145 291.812795 
L 940.509452 197.904466 
L 964.349758 90.012147 
" clip-path="url(#p063c10248d)" style="fill: none; stroke: #5cb85c; stroke-linecap: square"/>
   </g>
   <g id="line2d_25">
    <path d="M 439.863023 353.125901 
L 463.703329 351.690007 
L 487.543635 346.291556 
L 511.383941 338.624223 
L 535.224247 334.378322 
L 559.064554 332.729387 
L 582.90486 337.35237 
L 606.745166 339.065217 
L 630.585472 339.864119 
L 654.425778 340.028161 
L 678.266084 339.29104 
L 702.10639 337.049852 
L 725.946696 337.654888 
L 749.787003 339.457212 
L 773.627309 339.316605 
L 797.467615 337.740104 
L 821.307921 336.069865 
L 845.148227 333.394074 
L 868.988533 329.791556 
L 892.828839 322.776127 
L 916.669145 310.121511 
L 940.509452 281.987359 
L 964.349758 305.330226 
" clip-path="url(#p063c10248d)" style="fill: none; stroke: #5cb85c; stroke-linecap: square"/>
   </g>
   <g id="line2d_26">
    <path d="M 439.863023 353.215378 
L 463.703329 353.189813 
L 487.543635 353.085424 
L 511.383941 352.799949 
L 535.224247 352.077741 
L 559.064554 351.176579 
L 582.90486 350.577935 
L 606.745166 350.202983 
L 630.585472 349.678903 
L 654.425778 349.301821 
L 678.266084 348.313312 
L 702.10639 347.486715 
L 725.946696 347.116024 
L 749.787003 346.040168 
L 773.627309 344.693751 
L 797.467615 342.510084 
L 821.307921 339.898206 
L 845.148227 335.498916 
L 868.988533 328.033971 
L 892.828839 314.367411 
L 916.669145 284.486326 
L 940.509452 201.104337 
L 964.349758 259.613828 
" clip-path="url(#p063c10248d)" style="fill: none; stroke: #5cb85c; stroke-linecap: square"/>
   </g>
   <g id="line2d_27">
    <path d="M 463.703329 353.202596 
L 487.543635 353.151466 
L 511.383941 353.093945 
L 535.224247 352.799949 
L 559.064554 352.450562 
L 582.90486 352.182131 
L 606.745166 352.052176 
L 630.585472 351.873222 
L 654.425778 351.700659 
L 678.266084 351.276708 
L 702.10639 350.827192 
L 725.946696 350.661021 
L 749.787003 350.322286 
L 773.627309 349.828032 
L 797.467615 348.990782 
L 821.307921 347.316282 
L 845.148227 345.139006 
L 868.988533 341.248884 
L 892.828839 333.58368 
L 916.669145 316.855726 
L 940.509452 272.873479 
L 964.349758 234.387681 
" clip-path="url(#p063c10248d)" style="fill: none; stroke: #5cb85c; stroke-linecap: square"/>
   </g>
   <g id="line2d_28">
    <path d="M 416.022717 353.22177 
L 439.863023 353.217509 
L 463.703329 353.208987 
L 487.543635 353.151466 
L 511.383941 353.085424 
L 535.224247 352.865992 
L 559.064554 352.463345 
L 582.90486 352.263087 
L 606.745166 352.116088 
L 630.585472 351.819962 
L 654.425778 351.677225 
L 678.266084 351.329968 
L 702.10639 350.801628 
L 725.946696 350.479936 
L 749.787003 350.177418 
L 773.627309 349.955856 
L 797.467615 349.039781 
L 821.307921 347.616669 
L 845.148227 345.991169 
L 868.988533 342.527128 
L 892.828839 335.724739 
L 916.669145 318.617573 
L 940.509452 259.287875 
L 964.349758 168.434549 
" clip-path="url(#p063c10248d)" style="fill: none; stroke: #5cb85c; stroke-linecap: square"/>
   </g>
   <g id="line2d_29">
    <path d="M 439.863023 353.22177 
L 463.703329 353.196205 
L 487.543635 353.147205 
L 511.383941 352.932034 
L 535.224247 352.316347 
L 559.064554 351.717702 
L 582.90486 351.227709 
L 606.745166 350.652499 
L 630.585472 350.243461 
L 654.425778 349.467993 
L 678.266084 347.77432 
L 702.10639 343.515636 
L 725.946696 343.351595 
L 749.787003 345.954952 
L 773.627309 346.242557 
L 797.467615 344.678839 
L 821.307921 342.081873 
L 845.148227 339.580775 
L 868.988533 335.592654 
L 892.828839 327.763409 
L 916.669145 311.21654 
L 940.509452 275.072059 
L 964.349758 301.808664 
" clip-path="url(#p063c10248d)" style="fill: none; stroke: #5cb85c; stroke-linecap: square"/>
   </g>
   <g id="line2d_30">
    <path d="M 439.863023 353.22177 
L 463.703329 353.208987 
L 487.543635 353.151466 
L 511.383941 353.034294 
L 535.224247 352.767993 
L 559.064554 352.260956 
L 582.90486 351.979742 
L 606.745166 351.868961 
L 630.585472 351.368316 
L 654.425778 351.161666 
L 678.266084 350.558761 
L 702.10639 349.815249 
L 725.946696 349.314604 
L 749.787003 348.786263 
L 773.627309 347.908535 
L 797.467615 346.858245 
L 821.307921 344.73636 
L 845.148227 341.721834 
L 868.988533 336.532163 
L 892.828839 326.915507 
L 916.669145 304.716669 
L 940.509452 239.51344 
L 964.349758 161.483032 
" clip-path="url(#p063c10248d)" style="fill: none; stroke: #5cb85c; stroke-linecap: square"/>
   </g>
   <g id="line2d_31">
    <path d="M 439.863023 353.22177 
L 463.703329 353.213248 
L 487.543635 353.179161 
L 511.383941 353.081163 
L 535.224247 352.846818 
L 559.064554 352.550691 
L 582.90486 352.288651 
L 606.745166 352.190653 
L 630.585472 352.028742 
L 654.425778 351.681486 
L 678.266084 351.470575 
L 702.10639 350.650369 
L 725.946696 350.115637 
L 749.787003 350.102854 
L 773.627309 349.632034 
L 797.467615 348.705307 
L 821.307921 347.343977 
L 845.148227 345.21144 
L 868.988533 342.203306 
L 892.828839 335.733261 
L 916.669145 320.511504 
L 940.509452 271.765668 
L 964.349758 165.905757 
" clip-path="url(#p063c10248d)" style="fill: none; stroke: #5cb85c; stroke-linecap: square"/>
   </g>
   <g id="line2d_32">
    <path d="M 439.863023 353.22177 
L 463.703329 353.196205 
L 487.543635 353.087554 
L 511.383941 352.774384 
L 535.224247 351.939265 
L 559.064554 351.396011 
L 582.90486 351.027451 
L 606.745166 350.390459 
L 630.585472 349.698077 
L 654.425778 348.705307 
L 678.266084 346.031647 
L 702.10639 339.940814 
L 725.946696 340.562893 
L 749.787003 345.362699 
L 773.627309 345.927257 
L 797.467615 344.092977 
L 821.307921 341.885875 
L 845.148227 338.958696 
L 868.988533 335.792912 
L 892.828839 329.048044 
L 916.669145 314.874448 
L 940.509452 289.53326 
L 964.349758 311.001369 
" clip-path="url(#p063c10248d)" style="fill: none; stroke: #5cb85c; stroke-linecap: square"/>
   </g>
   <g id="line2d_33">
    <path d="M 439.863023 353.215378 
L 463.703329 353.17064 
L 487.543635 353.072641 
L 511.383941 352.599691 
L 535.224247 351.487619 
L 559.064554 350.441589 
L 582.90486 349.632034 
L 606.745166 349.491427 
L 630.585472 348.681873 
L 654.425778 347.795624 
L 678.266084 346.202079 
L 702.10639 344.235714 
L 725.946696 344.367799 
L 749.787003 344.934487 
L 773.627309 343.304726 
L 797.467615 341.295753 
L 821.307921 338.703048 
L 845.148227 334.855533 
L 868.988533 329.435778 
L 892.828839 319.959729 
L 916.669145 303.553467 
L 940.509452 271.314021 
L 964.349758 272.999173 
" clip-path="url(#p063c10248d)" style="fill: none; stroke: #5cb85c; stroke-linecap: square"/>
   </g>
   <g id="line2d_34">
    <path d="M 439.863023 353.215378 
L 463.703329 353.183422 
L 487.543635 353.085424 
L 511.383941 352.712602 
L 535.224247 351.623965 
L 559.064554 350.718542 
L 582.90486 349.951595 
L 606.745166 348.952434 
L 630.585472 348.108793 
L 654.425778 346.41299 
L 678.266084 343.191815 
L 702.10639 336.519381 
L 725.946696 339.020478 
L 749.787003 343.816024 
L 773.627309 343.626418 
L 797.467615 341.287231 
L 821.307921 338.14062 
L 845.148227 335.221963 
L 868.988533 331.06767 
L 892.828839 324.367541 
L 916.669145 313.178644 
L 940.509452 305.735003 
L 964.349758 334.533842 
" clip-path="url(#p063c10248d)" style="fill: none; stroke: #5cb85c; stroke-linecap: square"/>
   </g>
   <g id="line2d_35">
    <path d="M 439.863023 353.22177 
L 463.703329 353.208987 
L 487.543635 353.162118 
L 511.383941 353.059859 
L 535.224247 352.795688 
L 559.064554 352.301434 
L 582.90486 352.013829 
L 606.745166 351.711311 
L 630.585472 351.451402 
L 654.425778 351.217057 
L 678.266084 350.961408 
L 702.10639 350.539588 
L 725.946696 350.017638 
L 749.787003 349.276256 
L 773.627309 349.071737 
L 797.467615 347.542105 
L 821.307921 346.106211 
L 845.148227 343.541201 
L 868.988533 339.433777 
L 892.828839 331.33184 
L 916.669145 311.985617 
L 940.509452 251.198721 
L 964.349758 254.449722 
" clip-path="url(#p063c10248d)" style="fill: none; stroke: #5cb85c; stroke-linecap: square"/>
   </g>
   <g id="line2d_36">
    <path d="M 439.863023 353.22177 
L 463.703329 353.206857 
L 487.543635 353.128032 
L 511.383941 352.989555 
L 535.224247 352.723254 
L 559.064554 352.318477 
L 582.90486 352.011699 
L 606.745166 351.858309 
L 630.585472 351.709181 
L 654.425778 351.455662 
L 678.266084 351.072189 
L 702.10639 350.260504 
L 725.946696 349.887683 
L 749.787003 349.972899 
L 773.627309 349.527644 
L 797.467615 348.692525 
L 821.307921 347.301369 
L 845.148227 345.111311 
L 868.988533 341.553532 
L 892.828839 334.056631 
L 916.669145 315.703176 
L 940.509452 258.829838 
L 964.349758 171.523639 
" clip-path="url(#p063c10248d)" style="fill: none; stroke: #5cb85c; stroke-linecap: square"/>
   </g>
   <g id="line2d_37">
    <path d="M 463.703329 353.215378 
L 487.543635 353.215378 
L 511.383941 353.198335 
L 535.224247 353.17277 
L 559.064554 353.194074 
L 582.90486 353.17277 
L 606.745166 353.191944 
L 630.585472 353.185553 
L 654.425778 353.198335 
L 678.266084 353.198335 
L 702.10639 353.215378 
L 725.946696 353.202596 
L 749.787003 353.196205 
L 773.627309 353.206857 
L 797.467615 353.211118 
L 821.307921 353.208987 
L 845.148227 353.213248 
L 868.988533 353.211118 
L 892.828839 353.200466 
L 916.669145 353.200466 
L 940.509452 353.191944 
L 964.349758 353.198335 
" clip-path="url(#p063c10248d)" style="fill: none; stroke: #d9534f; stroke-linecap: square"/>
   </g>
   <g id="line2d_38">
    <path d="M 58.418125 353.2239 
L 992.958125 353.2239 
" clip-path="url(#p063c10248d)" style="fill: none; stroke: #dedede; stroke-width: 2; stroke-linecap: square"/>
   </g>
   <g id="text_19">
    <!-- FastQC: Per Sequence Quality Scores -->
    <g transform="translate(377.495625 19.3575) scale(0.16 -0.16)">
     <defs>
      <path id="DejaVuSans-46" d="M 628 4666 
L 3309 4666 
L 3309 4134 
L 1259 4134 
L 1259 2759 
L 3109 2759 
L 3109 2228 
L 1259 2228 
L 1259 0 
L 628 0 
L 628 4666 
z
" transform="scale(0.015625)"/>
      <path id="DejaVuSans-73" d="M 2834 3397 
L 2834 2853 
Q 2591 2978 2328 3040 
Q 2066 3103 1784 3103 
Q 1356 3103 1142 2972 
Q 928 2841 928 2578 
Q 928 2378 1081 2264 
Q 1234 2150 1697 2047 
L 1894 2003 
Q 2506 1872 2764 1633 
Q 3022 1394 3022 966 
Q 3022 478 2636 193 
Q 2250 -91 1575 -91 
Q 1294 -91 989 -36 
Q 684 19 347 128 
L 347 722 
Q 666 556 975 473 
Q 1284 391 1588 391 
Q 1994 391 2212 530 
Q 2431 669 2431 922 
Q 2431 1156 2273 1281 
Q 2116 1406 1581 1522 
L 1381 1569 
Q 847 1681 609 1914 
Q 372 2147 372 2553 
Q 372 3047 722 3315 
Q 1072 3584 1716 3584 
Q 2034 3584 2315 3537 
Q 2597 3491 2834 3397 
z
" transform="scale(0.015625)"/>
      <path id="DejaVuSans-3a" d="M 750 794 
L 1409 794 
L 1409 0 
L 750 0 
L 750 794 
z
M 750 3309 
L 1409 3309 
L 1409 2516 
L 750 2516 
L 750 3309 
z
" transform="scale(0.015625)"/>
     </defs>
     <use xlink:href="#DejaVuSans-46"/>
     <use xlink:href="#DejaVuSans-61" x="48.394531"/>
     <use xlink:href="#DejaVuSans-73" x="109.673828"/>
     <use xlink:href="#DejaVuSans-74" x="161.773438"/>
     <use xlink:href="#DejaVuSans-51" x="200.982422"/>
     <use xlink:href="#DejaVuSans-43" x="279.693359"/>
     <use xlink:href="#DejaVuSans-3a" x="349.517578"/>
     <use xlink:href="#DejaVuSans-20" x="383.208984"/>
     <use xlink:href="#DejaVuSans-50" x="414.996094"/>
     <use xlink:href="#DejaVuSans-65" x="471.673828"/>
     <use xlink:href="#DejaVuSans-72" x="533.197266"/>
     <use xlink:href="#DejaVuSans-20" x="574.310547"/>
     <use xlink:href="#DejaVuSans-53" x="606.097656"/>
     <use xlink:href="#DejaVuSans-65" x="669.574219"/>
     <use xlink:href="#DejaVuSans-71" x="731.097656"/>
     <use xlink:href="#DejaVuSans-75" x="794.574219"/>
     <use xlink:href="#DejaVuSans-65" x="857.953125"/>
     <use xlink:href="#DejaVuSans-6e" x="919.476562"/>
     <use xlink:href="#DejaVuSans-63" x="982.855469"/>
     <use xlink:href="#DejaVuSans-65" x="1037.835938"/>
     <use xlink:href="#DejaVuSans-20" x="1099.359375"/>
     <use xlink:href="#DejaVuSans-51" x="1131.146484"/>
     <use xlink:href="#DejaVuSans-75" x="1209.857422"/>
     <use xlink:href="#DejaVuSans-61" x="1273.236328"/>
     <use xlink:href="#DejaVuSans-6c" x="1334.515625"/>
     <use xlink:href="#DejaVuSans-69" x="1362.298828"/>
     <use xlink:href="#DejaVuSans-74" x="1390.082031"/>
     <use xlink:href="#DejaVuSans-79" x="1429.291016"/>
     <use xlink:href="#DejaVuSans-20" x="1488.470703"/>
     <use xlink:href="#DejaVuSans-53" x="1520.257812"/>
     <use xlink:href="#DejaVuSans-63" x="1583.734375"/>
     <use xlink:href="#DejaVuSans-6f" x="1638.714844"/>
     <use xlink:href="#DejaVuSans-72" x="1699.896484"/>
     <use xlink:href="#DejaVuSans-65" x="1738.759766"/>
     <use xlink:href="#DejaVuSans-73" x="1800.283203"/>
    </g>
   </g>
  </g>
 </g>
 <defs>
  <clipPath id="p063c10248d">
   <rect x="58.418125" y="35.2559" width="934.54" height="317.968"/>
  </clipPath>
 </defs>
</svg>
