<?xml version="1.0" encoding="utf-8" standalone="no"?>
<!DOCTYPE svg PUBLIC "-//W3C//DTD SVG 1.1//EN"
  "http://www.w3.org/Graphics/SVG/1.1/DTD/svg11.dtd">
<svg xmlns:xlink="http://www.w3.org/1999/xlink" width="999.012586pt" height="388.844525pt" viewBox="0 0 999.012586 388.844525" xmlns="http://www.w3.org/2000/svg" version="1.1">
 <metadata>
  <rdf:RDF xmlns:dc="http://purl.org/dc/elements/1.1/" xmlns:cc="http://creativecommons.org/ns#" xmlns:rdf="http://www.w3.org/1999/02/22-rdf-syntax-ns#">
   <cc:Work>
    <dc:type rdf:resource="http://purl.org/dc/dcmitype/StillImage"/>
    <dc:date>2024-06-28T13:31:46.339192</dc:date>
    <dc:format>image/svg+xml</dc:format>
    <dc:creator>
     <cc:Agent>
      <dc:title>Matplotlib v3.7.1, https://matplotlib.org/</dc:title>
     </cc:Agent>
    </dc:creator>
   </cc:Work>
  </rdf:RDF>
 </metadata>
 <defs>
  <style type="text/css">*{stroke-linejoin: round; stroke-linecap: butt}</style>
 </defs>
 <g id="figure_1">
  <g id="axes_1">
   <g id="patch_1">
    <path d="M 58.418125 353.2239 
L 990.869824 353.2239 
L 990.869824 35.2559 
L 58.418125 35.2559 
z
" style="fill: #ffffff"/>
   </g>
   <g id="matplotlib.axis_1">
    <g id="xtick_1">
     <g id="text_1">
      <!-- 50 -->
      <g transform="translate(86.78931 366.30265) scale(0.08 -0.08)">
       <defs>
        <path id="DejaVuSans-35" d="M 691 4666 
L 3169 4666 
L 3169 4134 
L 1269 4134 
L 1269 2991 
Q 1406 3038 1543 3061 
Q 1681 3084 1819 3084 
Q 2600 3084 3056 2656 
Q 3513 2228 3513 1497 
Q 3513 744 3044 326 
Q 2575 -91 1722 -91 
Q 1428 -91 1123 -41 
Q 819 9 494 109 
L 494 744 
Q 775 591 1075 516 
Q 1375 441 1709 441 
Q 2250 441 2565 725 
Q 2881 1009 2881 1497 
Q 2881 1984 2565 2268 
Q 2250 2553 1709 2553 
Q 1456 2553 1204 2497 
Q 953 2441 691 2322 
L 691 4666 
z
" transform="scale(0.015625)"/>
        <path id="DejaVuSans-30" d="M 2034 4250 
Q 1547 4250 1301 3770 
Q 1056 3291 1056 2328 
Q 1056 1369 1301 889 
Q 1547 409 2034 409 
Q 2525 409 2770 889 
Q 3016 1369 3016 2328 
Q 3016 3291 2770 3770 
Q 2525 4250 2034 4250 
z
M 2034 4750 
Q 2819 4750 3233 4129 
Q 3647 3509 3647 2328 
Q 3647 1150 3233 529 
Q 2819 -91 2034 -91 
Q 1250 -91 836 529 
Q 422 1150 422 2328 
Q 422 3509 836 4129 
Q 1250 4750 2034 4750 
z
" transform="scale(0.015625)"/>
       </defs>
       <use xlink:href="#DejaVuSans-35"/>
       <use xlink:href="#DejaVuSans-30" x="63.623047"/>
      </g>
     </g>
    </g>
    <g id="xtick_2">
     <g id="text_2">
      <!-- 75 -->
      <g transform="translate(198.326595 366.30265) scale(0.08 -0.08)">
       <defs>
        <path id="DejaVuSans-37" d="M 525 4666 
L 3525 4666 
L 3525 4397 
L 1831 0 
L 1172 0 
L 2766 4134 
L 525 4134 
L 525 4666 
z
" transform="scale(0.015625)"/>
       </defs>
       <use xlink:href="#DejaVuSans-37"/>
       <use xlink:href="#DejaVuSans-35" x="63.623047"/>
      </g>
     </g>
    </g>
    <g id="xtick_3">
     <g id="text_3">
      <!-- 100 -->
      <g transform="translate(307.318879 366.30265) scale(0.08 -0.08)">
       <defs>
        <path id="DejaVuSans-31" d="M 794 531 
L 1825 531 
L 1825 4091 
L 703 3866 
L 703 4441 
L 1819 4666 
L 2450 4666 
L 2450 531 
L 3481 531 
L 3481 0 
L 794 0 
L 794 531 
z
" transform="scale(0.015625)"/>
       </defs>
       <use xlink:href="#DejaVuSans-31"/>
       <use xlink:href="#DejaVuSans-30" x="63.623047"/>
       <use xlink:href="#DejaVuSans-30" x="127.246094"/>
      </g>
     </g>
    </g>
    <g id="xtick_4">
     <g id="text_4">
      <!-- 125 -->
      <g transform="translate(418.856164 366.30265) scale(0.08 -0.08)">
       <defs>
        <path id="DejaVuSans-32" d="M 1228 531 
L 3431 531 
L 3431 0 
L 469 0 
L 469 531 
Q 828 903 1448 1529 
Q 2069 2156 2228 2338 
Q 2531 2678 2651 2914 
Q 2772 3150 2772 3378 
Q 2772 3750 2511 3984 
Q 2250 4219 1831 4219 
Q 1534 4219 1204 4116 
Q 875 4013 500 3803 
L 500 4441 
Q 881 4594 1212 4672 
Q 1544 4750 1819 4750 
Q 2544 4750 2975 4387 
Q 3406 4025 3406 3419 
Q 3406 3131 3298 2873 
Q 3191 2616 2906 2266 
Q 2828 2175 2409 1742 
Q 1991 1309 1228 531 
z
" transform="scale(0.015625)"/>
       </defs>
       <use xlink:href="#DejaVuSans-31"/>
       <use xlink:href="#DejaVuSans-32" x="63.623047"/>
       <use xlink:href="#DejaVuSans-35" x="127.246094"/>
      </g>
     </g>
    </g>
    <g id="xtick_5">
     <g id="text_5">
      <!-- 150 -->
      <g transform="translate(530.393448 366.30265) scale(0.08 -0.08)">
       <use xlink:href="#DejaVuSans-31"/>
       <use xlink:href="#DejaVuSans-35" x="63.623047"/>
       <use xlink:href="#DejaVuSans-30" x="127.246094"/>
      </g>
     </g>
    </g>
    <g id="xtick_6">
     <g id="text_6">
      <!-- 175 -->
      <g transform="translate(641.930733 366.30265) scale(0.08 -0.08)">
       <use xlink:href="#DejaVuSans-31"/>
       <use xlink:href="#DejaVuSans-37" x="63.623047"/>
       <use xlink:href="#DejaVuSans-35" x="127.246094"/>
      </g>
     </g>
    </g>
    <g id="xtick_7">
     <g id="text_7">
      <!-- 200 -->
      <g transform="translate(753.468017 366.30265) scale(0.08 -0.08)">
       <use xlink:href="#DejaVuSans-32"/>
       <use xlink:href="#DejaVuSans-30" x="63.623047"/>
       <use xlink:href="#DejaVuSans-30" x="127.246094"/>
      </g>
     </g>
    </g>
    <g id="xtick_8">
     <g id="text_8">
      <!-- 225 -->
      <g transform="translate(865.005302 366.30265) scale(0.08 -0.08)">
       <use xlink:href="#DejaVuSans-32"/>
       <use xlink:href="#DejaVuSans-32" x="63.623047"/>
       <use xlink:href="#DejaVuSans-35" x="127.246094"/>
      </g>
     </g>
    </g>
    <g id="xtick_9">
     <g id="text_9">
      <!-- 250 -->
      <g transform="translate(976.542586 366.30265) scale(0.08 -0.08)">
       <use xlink:href="#DejaVuSans-32"/>
       <use xlink:href="#DejaVuSans-35" x="63.623047"/>
       <use xlink:href="#DejaVuSans-30" x="127.246094"/>
      </g>
     </g>
    </g>
    <g id="text_10">
     <!-- Sequence Length (bp) -->
     <g transform="translate(469.304131 379.564837) scale(0.1 -0.1)">
      <defs>
       <path id="DejaVuSans-53" d="M 3425 4513 
L 3425 3897 
Q 3066 4069 2747 4153 
Q 2428 4238 2131 4238 
Q 1616 4238 1336 4038 
Q 1056 3838 1056 3469 
Q 1056 3159 1242 3001 
Q 1428 2844 1947 2747 
L 2328 2669 
Q 3034 2534 3370 2195 
Q 3706 1856 3706 1288 
Q 3706 609 3251 259 
Q 2797 -91 1919 -91 
Q 1588 -91 1214 -16 
Q 841 59 441 206 
L 441 856 
Q 825 641 1194 531 
Q 1563 422 1919 422 
Q 2459 422 2753 634 
Q 3047 847 3047 1241 
Q 3047 1584 2836 1778 
Q 2625 1972 2144 2069 
L 1759 2144 
Q 1053 2284 737 2584 
Q 422 2884 422 3419 
Q 422 4038 858 4394 
Q 1294 4750 2059 4750 
Q 2388 4750 2728 4690 
Q 3069 4631 3425 4513 
z
" transform="scale(0.015625)"/>
       <path id="DejaVuSans-65" d="M 3597 1894 
L 3597 1613 
L 953 1613 
Q 991 1019 1311 708 
Q 1631 397 2203 397 
Q 2534 397 2845 478 
Q 3156 559 3463 722 
L 3463 178 
Q 3153 47 2828 -22 
Q 2503 -91 2169 -91 
Q 1331 -91 842 396 
Q 353 884 353 1716 
Q 353 2575 817 3079 
Q 1281 3584 2069 3584 
Q 2775 3584 3186 3129 
Q 3597 2675 3597 1894 
z
M 3022 2063 
Q 3016 2534 2758 2815 
Q 2500 3097 2075 3097 
Q 1594 3097 1305 2825 
Q 1016 2553 972 2059 
L 3022 2063 
z
" transform="scale(0.015625)"/>
       <path id="DejaVuSans-71" d="M 947 1747 
Q 947 1113 1208 752 
Q 1469 391 1925 391 
Q 2381 391 2643 752 
Q 2906 1113 2906 1747 
Q 2906 2381 2643 2742 
Q 2381 3103 1925 3103 
Q 1469 3103 1208 2742 
Q 947 2381 947 1747 
z
M 2906 525 
Q 2725 213 2448 61 
Q 2172 -91 1784 -91 
Q 1150 -91 751 415 
Q 353 922 353 1747 
Q 353 2572 751 3078 
Q 1150 3584 1784 3584 
Q 2172 3584 2448 3432 
Q 2725 3281 2906 2969 
L 2906 3500 
L 3481 3500 
L 3481 -1331 
L 2906 -1331 
L 2906 525 
z
" transform="scale(0.015625)"/>
       <path id="DejaVuSans-75" d="M 544 1381 
L 544 3500 
L 1119 3500 
L 1119 1403 
Q 1119 906 1312 657 
Q 1506 409 1894 409 
Q 2359 409 2629 706 
Q 2900 1003 2900 1516 
L 2900 3500 
L 3475 3500 
L 3475 0 
L 2900 0 
L 2900 538 
Q 2691 219 2414 64 
Q 2138 -91 1772 -91 
Q 1169 -91 856 284 
Q 544 659 544 1381 
z
M 1991 3584 
L 1991 3584 
z
" transform="scale(0.015625)"/>
       <path id="DejaVuSans-6e" d="M 3513 2113 
L 3513 0 
L 2938 0 
L 2938 2094 
Q 2938 2591 2744 2837 
Q 2550 3084 2163 3084 
Q 1697 3084 1428 2787 
Q 1159 2491 1159 1978 
L 1159 0 
L 581 0 
L 581 3500 
L 1159 3500 
L 1159 2956 
Q 1366 3272 1645 3428 
Q 1925 3584 2291 3584 
Q 2894 3584 3203 3211 
Q 3513 2838 3513 2113 
z
" transform="scale(0.015625)"/>
       <path id="DejaVuSans-63" d="M 3122 3366 
L 3122 2828 
Q 2878 2963 2633 3030 
Q 2388 3097 2138 3097 
Q 1578 3097 1268 2742 
Q 959 2388 959 1747 
Q 959 1106 1268 751 
Q 1578 397 2138 397 
Q 2388 397 2633 464 
Q 2878 531 3122 666 
L 3122 134 
Q 2881 22 2623 -34 
Q 2366 -91 2075 -91 
Q 1284 -91 818 406 
Q 353 903 353 1747 
Q 353 2603 823 3093 
Q 1294 3584 2113 3584 
Q 2378 3584 2631 3529 
Q 2884 3475 3122 3366 
z
" transform="scale(0.015625)"/>
       <path id="DejaVuSans-20" transform="scale(0.015625)"/>
       <path id="DejaVuSans-4c" d="M 628 4666 
L 1259 4666 
L 1259 531 
L 3531 531 
L 3531 0 
L 628 0 
L 628 4666 
z
" transform="scale(0.015625)"/>
       <path id="DejaVuSans-67" d="M 2906 1791 
Q 2906 2416 2648 2759 
Q 2391 3103 1925 3103 
Q 1463 3103 1205 2759 
Q 947 2416 947 1791 
Q 947 1169 1205 825 
Q 1463 481 1925 481 
Q 2391 481 2648 825 
Q 2906 1169 2906 1791 
z
M 3481 434 
Q 3481 -459 3084 -895 
Q 2688 -1331 1869 -1331 
Q 1566 -1331 1297 -1286 
Q 1028 -1241 775 -1147 
L 775 -588 
Q 1028 -725 1275 -790 
Q 1522 -856 1778 -856 
Q 2344 -856 2625 -561 
Q 2906 -266 2906 331 
L 2906 616 
Q 2728 306 2450 153 
Q 2172 0 1784 0 
Q 1141 0 747 490 
Q 353 981 353 1791 
Q 353 2603 747 3093 
Q 1141 3584 1784 3584 
Q 2172 3584 2450 3431 
Q 2728 3278 2906 2969 
L 2906 3500 
L 3481 3500 
L 3481 434 
z
" transform="scale(0.015625)"/>
       <path id="DejaVuSans-74" d="M 1172 4494 
L 1172 3500 
L 2356 3500 
L 2356 3053 
L 1172 3053 
L 1172 1153 
Q 1172 725 1289 603 
Q 1406 481 1766 481 
L 2356 481 
L 2356 0 
L 1766 0 
Q 1100 0 847 248 
Q 594 497 594 1153 
L 594 3053 
L 172 3053 
L 172 3500 
L 594 3500 
L 594 4494 
L 1172 4494 
z
" transform="scale(0.015625)"/>
       <path id="DejaVuSans-68" d="M 3513 2113 
L 3513 0 
L 2938 0 
L 2938 2094 
Q 2938 2591 2744 2837 
Q 2550 3084 2163 3084 
Q 1697 3084 1428 2787 
Q 1159 2491 1159 1978 
L 1159 0 
L 581 0 
L 581 4863 
L 1159 4863 
L 1159 2956 
Q 1366 3272 1645 3428 
Q 1925 3584 2291 3584 
Q 2894 3584 3203 3211 
Q 3513 2838 3513 2113 
z
" transform="scale(0.015625)"/>
       <path id="DejaVuSans-28" d="M 1984 4856 
Q 1566 4138 1362 3434 
Q 1159 2731 1159 2009 
Q 1159 1288 1364 580 
Q 1569 -128 1984 -844 
L 1484 -844 
Q 1016 -109 783 600 
Q 550 1309 550 2009 
Q 550 2706 781 3412 
Q 1013 4119 1484 4856 
L 1984 4856 
z
" transform="scale(0.015625)"/>
       <path id="DejaVuSans-62" d="M 3116 1747 
Q 3116 2381 2855 2742 
Q 2594 3103 2138 3103 
Q 1681 3103 1420 2742 
Q 1159 2381 1159 1747 
Q 1159 1113 1420 752 
Q 1681 391 2138 391 
Q 2594 391 2855 752 
Q 3116 1113 3116 1747 
z
M 1159 2969 
Q 1341 3281 1617 3432 
Q 1894 3584 2278 3584 
Q 2916 3584 3314 3078 
Q 3713 2572 3713 1747 
Q 3713 922 3314 415 
Q 2916 -91 2278 -91 
Q 1894 -91 1617 61 
Q 1341 213 1159 525 
L 1159 0 
L 581 0 
L 581 4863 
L 1159 4863 
L 1159 2969 
z
" transform="scale(0.015625)"/>
       <path id="DejaVuSans-70" d="M 1159 525 
L 1159 -1331 
L 581 -1331 
L 581 3500 
L 1159 3500 
L 1159 2969 
Q 1341 3281 1617 3432 
Q 1894 3584 2278 3584 
Q 2916 3584 3314 3078 
Q 3713 2572 3713 1747 
Q 3713 922 3314 415 
Q 2916 -91 2278 -91 
Q 1894 -91 1617 61 
Q 1341 213 1159 525 
z
M 3116 1747 
Q 3116 2381 2855 2742 
Q 2594 3103 2138 3103 
Q 1681 3103 1420 2742 
Q 1159 2381 1159 1747 
Q 1159 1113 1420 752 
Q 1681 391 2138 391 
Q 2594 391 2855 752 
Q 3116 1113 3116 1747 
z
" transform="scale(0.015625)"/>
       <path id="DejaVuSans-29" d="M 513 4856 
L 1013 4856 
Q 1481 4119 1714 3412 
Q 1947 2706 1947 2009 
Q 1947 1309 1714 600 
Q 1481 -109 1013 -844 
L 513 -844 
Q 928 -128 1133 580 
Q 1338 1288 1338 2009 
Q 1338 2731 1133 3434 
Q 928 4138 513 4856 
z
" transform="scale(0.015625)"/>
      </defs>
      <use xlink:href="#DejaVuSans-53"/>
      <use xlink:href="#DejaVuSans-65" x="63.476562"/>
      <use xlink:href="#DejaVuSans-71" x="125"/>
      <use xlink:href="#DejaVuSans-75" x="188.476562"/>
      <use xlink:href="#DejaVuSans-65" x="251.855469"/>
      <use xlink:href="#DejaVuSans-6e" x="313.378906"/>
      <use xlink:href="#DejaVuSans-63" x="376.757812"/>
      <use xlink:href="#DejaVuSans-65" x="431.738281"/>
      <use xlink:href="#DejaVuSans-20" x="493.261719"/>
      <use xlink:href="#DejaVuSans-4c" x="525.048828"/>
      <use xlink:href="#DejaVuSans-65" x="579.011719"/>
      <use xlink:href="#DejaVuSans-6e" x="640.535156"/>
      <use xlink:href="#DejaVuSans-67" x="703.914062"/>
      <use xlink:href="#DejaVuSans-74" x="767.390625"/>
      <use xlink:href="#DejaVuSans-68" x="806.599609"/>
      <use xlink:href="#DejaVuSans-20" x="869.978516"/>
      <use xlink:href="#DejaVuSans-28" x="901.765625"/>
      <use xlink:href="#DejaVuSans-62" x="940.779297"/>
      <use xlink:href="#DejaVuSans-70" x="1004.255859"/>
      <use xlink:href="#DejaVuSans-29" x="1067.732422"/>
     </g>
    </g>
   </g>
   <g id="matplotlib.axis_2">
    <g id="ytick_1">
     <g id="line2d_1">
      <path d="M 58.418125 353.2239 
L 990.869824 353.2239 
" clip-path="url(#pc784b85d93)" style="fill: none; stroke: #dedede; stroke-linecap: square"/>
     </g>
     <g id="text_11">
      <!-- 0 -->
      <g transform="translate(46.328125 356.263275) scale(0.08 -0.08)">
       <use xlink:href="#DejaVuSans-30"/>
      </g>
     </g>
    </g>
    <g id="ytick_2">
     <g id="line2d_2">
      <path d="M 58.418125 298.327001 
L 990.869824 298.327001 
" clip-path="url(#pc784b85d93)" style="fill: none; stroke: #dedede; stroke-linecap: square"/>
     </g>
     <g id="text_12">
      <!-- 50000 -->
      <g transform="translate(25.968125 301.366376) scale(0.08 -0.08)">
       <use xlink:href="#DejaVuSans-35"/>
       <use xlink:href="#DejaVuSans-30" x="63.623047"/>
       <use xlink:href="#DejaVuSans-30" x="127.246094"/>
       <use xlink:href="#DejaVuSans-30" x="190.869141"/>
       <use xlink:href="#DejaVuSans-30" x="254.492188"/>
      </g>
     </g>
    </g>
    <g id="ytick_3">
     <g id="line2d_3">
      <path d="M 58.418125 243.430102 
L 990.869824 243.430102 
" clip-path="url(#pc784b85d93)" style="fill: none; stroke: #dedede; stroke-linecap: square"/>
     </g>
     <g id="text_13">
      <!-- 100000 -->
      <g transform="translate(20.878125 246.469477) scale(0.08 -0.08)">
       <use xlink:href="#DejaVuSans-31"/>
       <use xlink:href="#DejaVuSans-30" x="63.623047"/>
       <use xlink:href="#DejaVuSans-30" x="127.246094"/>
       <use xlink:href="#DejaVuSans-30" x="190.869141"/>
       <use xlink:href="#DejaVuSans-30" x="254.492188"/>
       <use xlink:href="#DejaVuSans-30" x="318.115234"/>
      </g>
     </g>
    </g>
    <g id="ytick_4">
     <g id="line2d_4">
      <path d="M 58.418125 188.533203 
L 990.869824 188.533203 
" clip-path="url(#pc784b85d93)" style="fill: none; stroke: #dedede; stroke-linecap: square"/>
     </g>
     <g id="text_14">
      <!-- 150000 -->
      <g transform="translate(20.878125 191.572578) scale(0.08 -0.08)">
       <use xlink:href="#DejaVuSans-31"/>
       <use xlink:href="#DejaVuSans-35" x="63.623047"/>
       <use xlink:href="#DejaVuSans-30" x="127.246094"/>
       <use xlink:href="#DejaVuSans-30" x="190.869141"/>
       <use xlink:href="#DejaVuSans-30" x="254.492188"/>
       <use xlink:href="#DejaVuSans-30" x="318.115234"/>
      </g>
     </g>
    </g>
    <g id="ytick_5">
     <g id="line2d_5">
      <path d="M 58.418125 133.636304 
L 990.869824 133.636304 
" clip-path="url(#pc784b85d93)" style="fill: none; stroke: #dedede; stroke-linecap: square"/>
     </g>
     <g id="text_15">
      <!-- 200000 -->
      <g transform="translate(20.878125 136.675679) scale(0.08 -0.08)">
       <use xlink:href="#DejaVuSans-32"/>
       <use xlink:href="#DejaVuSans-30" x="63.623047"/>
       <use xlink:href="#DejaVuSans-30" x="127.246094"/>
       <use xlink:href="#DejaVuSans-30" x="190.869141"/>
       <use xlink:href="#DejaVuSans-30" x="254.492188"/>
       <use xlink:href="#DejaVuSans-30" x="318.115234"/>
      </g>
     </g>
    </g>
    <g id="ytick_6">
     <g id="line2d_6">
      <path d="M 58.418125 78.739404 
L 990.869824 78.739404 
" clip-path="url(#pc784b85d93)" style="fill: none; stroke: #dedede; stroke-linecap: square"/>
     </g>
     <g id="text_16">
      <!-- 250000 -->
      <g transform="translate(20.878125 81.778779) scale(0.08 -0.08)">
       <use xlink:href="#DejaVuSans-32"/>
       <use xlink:href="#DejaVuSans-35" x="63.623047"/>
       <use xlink:href="#DejaVuSans-30" x="127.246094"/>
       <use xlink:href="#DejaVuSans-30" x="190.869141"/>
       <use xlink:href="#DejaVuSans-30" x="254.492188"/>
       <use xlink:href="#DejaVuSans-30" x="318.115234"/>
      </g>
     </g>
    </g>
    <g id="text_17">
     <!-- Read Count -->
     <g transform="translate(14.798438 223.241463) rotate(-90) scale(0.1 -0.1)">
      <defs>
       <path id="DejaVuSans-52" d="M 2841 2188 
Q 3044 2119 3236 1894 
Q 3428 1669 3622 1275 
L 4263 0 
L 3584 0 
L 2988 1197 
Q 2756 1666 2539 1819 
Q 2322 1972 1947 1972 
L 1259 1972 
L 1259 0 
L 628 0 
L 628 4666 
L 2053 4666 
Q 2853 4666 3247 4331 
Q 3641 3997 3641 3322 
Q 3641 2881 3436 2590 
Q 3231 2300 2841 2188 
z
M 1259 4147 
L 1259 2491 
L 2053 2491 
Q 2509 2491 2742 2702 
Q 2975 2913 2975 3322 
Q 2975 3731 2742 3939 
Q 2509 4147 2053 4147 
L 1259 4147 
z
" transform="scale(0.015625)"/>
       <path id="DejaVuSans-61" d="M 2194 1759 
Q 1497 1759 1228 1600 
Q 959 1441 959 1056 
Q 959 750 1161 570 
Q 1363 391 1709 391 
Q 2188 391 2477 730 
Q 2766 1069 2766 1631 
L 2766 1759 
L 2194 1759 
z
M 3341 1997 
L 3341 0 
L 2766 0 
L 2766 531 
Q 2569 213 2275 61 
Q 1981 -91 1556 -91 
Q 1019 -91 701 211 
Q 384 513 384 1019 
Q 384 1609 779 1909 
Q 1175 2209 1959 2209 
L 2766 2209 
L 2766 2266 
Q 2766 2663 2505 2880 
Q 2244 3097 1772 3097 
Q 1472 3097 1187 3025 
Q 903 2953 641 2809 
L 641 3341 
Q 956 3463 1253 3523 
Q 1550 3584 1831 3584 
Q 2591 3584 2966 3190 
Q 3341 2797 3341 1997 
z
" transform="scale(0.015625)"/>
       <path id="DejaVuSans-64" d="M 2906 2969 
L 2906 4863 
L 3481 4863 
L 3481 0 
L 2906 0 
L 2906 525 
Q 2725 213 2448 61 
Q 2172 -91 1784 -91 
Q 1150 -91 751 415 
Q 353 922 353 1747 
Q 353 2572 751 3078 
Q 1150 3584 1784 3584 
Q 2172 3584 2448 3432 
Q 2725 3281 2906 2969 
z
M 947 1747 
Q 947 1113 1208 752 
Q 1469 391 1925 391 
Q 2381 391 2643 752 
Q 2906 1113 2906 1747 
Q 2906 2381 2643 2742 
Q 2381 3103 1925 3103 
Q 1469 3103 1208 2742 
Q 947 2381 947 1747 
z
" transform="scale(0.015625)"/>
       <path id="DejaVuSans-43" d="M 4122 4306 
L 4122 3641 
Q 3803 3938 3442 4084 
Q 3081 4231 2675 4231 
Q 1875 4231 1450 3742 
Q 1025 3253 1025 2328 
Q 1025 1406 1450 917 
Q 1875 428 2675 428 
Q 3081 428 3442 575 
Q 3803 722 4122 1019 
L 4122 359 
Q 3791 134 3420 21 
Q 3050 -91 2638 -91 
Q 1578 -91 968 557 
Q 359 1206 359 2328 
Q 359 3453 968 4101 
Q 1578 4750 2638 4750 
Q 3056 4750 3426 4639 
Q 3797 4528 4122 4306 
z
" transform="scale(0.015625)"/>
       <path id="DejaVuSans-6f" d="M 1959 3097 
Q 1497 3097 1228 2736 
Q 959 2375 959 1747 
Q 959 1119 1226 758 
Q 1494 397 1959 397 
Q 2419 397 2687 759 
Q 2956 1122 2956 1747 
Q 2956 2369 2687 2733 
Q 2419 3097 1959 3097 
z
M 1959 3584 
Q 2709 3584 3137 3096 
Q 3566 2609 3566 1747 
Q 3566 888 3137 398 
Q 2709 -91 1959 -91 
Q 1206 -91 779 398 
Q 353 888 353 1747 
Q 353 2609 779 3096 
Q 1206 3584 1959 3584 
z
" transform="scale(0.015625)"/>
      </defs>
      <use xlink:href="#DejaVuSans-52"/>
      <use xlink:href="#DejaVuSans-65" x="64.982422"/>
      <use xlink:href="#DejaVuSans-61" x="126.505859"/>
      <use xlink:href="#DejaVuSans-64" x="187.785156"/>
      <use xlink:href="#DejaVuSans-20" x="251.261719"/>
      <use xlink:href="#DejaVuSans-43" x="283.048828"/>
      <use xlink:href="#DejaVuSans-6f" x="352.873047"/>
      <use xlink:href="#DejaVuSans-75" x="414.054688"/>
      <use xlink:href="#DejaVuSans-6e" x="477.433594"/>
      <use xlink:href="#DejaVuSans-74" x="540.8125"/>
     </g>
    </g>
   </g>
   <g id="line2d_7">
    <path d="M 600.489328 353.221704 
L 609.412311 353.222802 
L 618.335293 353.167905 
L 627.258276 353.211823 
L 636.181259 353.220606 
L 645.104242 353.2239 
L 654.027224 353.2239 
L 662.950207 353.2239 
L 671.87319 353.2239 
L 680.796173 353.2239 
L 689.719155 353.2239 
L 698.642138 353.2239 
L 707.565121 353.2239 
L 716.488104 353.2239 
L 725.411086 353.2239 
L 734.334069 353.2239 
L 743.257052 353.2239 
L 752.180035 353.2239 
L 761.103017 353.2239 
L 770.026 353.2239 
L 778.948983 353.2239 
L 787.871966 353.2239 
L 796.794949 353.2239 
L 805.717931 353.2239 
L 814.640914 353.2239 
L 823.563897 353.2239 
L 832.48688 353.2239 
L 841.409862 353.2239 
L 850.332845 353.2239 
L 859.255828 352.191838 
L 868.178811 353.118498 
" clip-path="url(#pc784b85d93)" style="fill: none; stroke: #f0ad4e; stroke-linecap: square"/>
   </g>
   <g id="line2d_8">
    <path d="M 609.412311 353.222802 
L 618.335293 353.172297 
L 627.258276 353.221704 
L 636.181259 353.2239 
L 645.104242 353.2239 
L 654.027224 353.2239 
L 662.950207 353.2239 
L 671.87319 353.2239 
L 680.796173 353.2239 
L 689.719155 353.2239 
L 698.642138 353.2239 
L 707.565121 353.2239 
L 716.488104 353.2239 
L 725.411086 353.2239 
L 734.334069 353.2239 
L 743.257052 353.2239 
L 752.180035 353.2239 
L 761.103017 353.2239 
L 770.026 353.2239 
L 778.948983 353.2239 
L 787.871966 353.2239 
L 796.794949 353.2239 
L 805.717931 353.2239 
L 814.640914 353.2239 
L 823.563897 353.2239 
L 832.48688 353.2239 
L 841.409862 353.2239 
L 850.332845 353.2239 
L 859.255828 353.189864 
L 868.178811 353.222802 
" clip-path="url(#pc784b85d93)" style="fill: none; stroke: #f0ad4e; stroke-linecap: square"/>
   </g>
   <g id="line2d_9">
    <path d="M 100.802293 353.222802 
L 123.10975 353.2239 
L 145.417207 353.2239 
L 167.724664 353.2239 
L 190.032121 353.2239 
L 212.339578 353.2239 
L 234.647035 353.2239 
L 256.954491 353.2239 
L 279.261948 353.2239 
L 301.569405 353.2239 
L 323.876862 353.2239 
L 346.184319 353.2239 
L 368.491776 353.2239 
L 390.799233 353.2239 
L 413.10669 353.2239 
L 435.414147 353.2239 
L 457.721604 353.2239 
L 480.02906 353.2239 
L 502.336517 353.2239 
L 524.643974 353.2239 
L 546.951431 353.2239 
L 569.258888 353.2239 
L 591.566345 353.2239 
L 613.873802 353.195354 
L 636.181259 353.208529 
L 658.488716 353.209627 
L 680.796173 353.2239 
L 703.10363 353.2239 
L 725.411086 353.2239 
L 747.718543 353.2239 
L 770.026 353.2239 
L 792.333457 353.2239 
L 814.640914 353.2239 
L 836.948371 353.2239 
L 859.255828 349.359158 
" clip-path="url(#pc784b85d93)" style="fill: none; stroke: #f0ad4e; stroke-linecap: square"/>
   </g>
   <g id="line2d_10">
    <path d="M 618.335293 353.175591 
L 627.258276 353.21841 
L 636.181259 353.221704 
L 645.104242 353.221704 
L 654.027224 353.216214 
L 662.950207 353.222802 
L 671.87319 353.2239 
L 680.796173 353.2239 
L 689.719155 353.2239 
L 698.642138 353.2239 
L 707.565121 353.2239 
L 716.488104 353.2239 
L 725.411086 353.2239 
L 734.334069 353.2239 
L 743.257052 353.2239 
L 752.180035 353.2239 
L 761.103017 353.2239 
L 770.026 353.2239 
L 778.948983 353.2239 
L 787.871966 353.2239 
L 796.794949 353.2239 
L 805.717931 353.2239 
L 814.640914 353.2239 
L 823.563897 353.2239 
L 832.48688 353.2239 
L 841.409862 353.2239 
L 850.332845 353.2239 
L 859.255828 353.102029 
L 868.178811 353.217312 
" clip-path="url(#pc784b85d93)" style="fill: none; stroke: #f0ad4e; stroke-linecap: square"/>
   </g>
   <g id="line2d_11">
    <path d="M 600.489328 353.221704 
L 609.412311 353.2239 
L 618.335293 353.161318 
L 627.258276 353.219508 
L 636.181259 353.214019 
L 645.104242 353.221704 
L 654.027224 353.215116 
L 662.950207 353.222802 
L 671.87319 353.2239 
L 680.796173 353.2239 
L 689.719155 353.2239 
L 698.642138 353.2239 
L 707.565121 353.2239 
L 716.488104 353.2239 
L 725.411086 353.2239 
L 734.334069 353.2239 
L 743.257052 353.2239 
L 752.180035 353.2239 
L 761.103017 353.2239 
L 770.026 353.2239 
L 778.948983 353.2239 
L 787.871966 353.2239 
L 796.794949 353.2239 
L 805.717931 353.2239 
L 814.640914 353.2239 
L 823.563897 353.2239 
L 832.48688 353.2239 
L 841.409862 353.2239 
L 850.332845 353.221704 
L 859.255828 353.114106 
L 868.178811 353.216214 
" clip-path="url(#pc784b85d93)" style="fill: none; stroke: #f0ad4e; stroke-linecap: square"/>
   </g>
   <g id="line2d_12">
    <path d="M 123.10975 353.222802 
L 145.417207 353.2239 
L 167.724664 353.2239 
L 190.032121 353.2239 
L 212.339578 353.2239 
L 234.647035 353.2239 
L 256.954491 353.2239 
L 279.261948 353.2239 
L 301.569405 353.2239 
L 323.876862 353.2239 
L 346.184319 353.2239 
L 368.491776 353.2239 
L 390.799233 353.2239 
L 413.10669 353.2239 
L 435.414147 353.2239 
L 457.721604 353.2239 
L 480.02906 353.2239 
L 502.336517 353.2239 
L 524.643974 353.2239 
L 546.951431 353.2239 
L 569.258888 353.2239 
L 591.566345 353.2239 
L 613.873802 353.199745 
L 636.181259 353.220606 
L 658.488716 353.217312 
L 680.796173 353.2239 
L 703.10363 353.2239 
L 725.411086 353.2239 
L 747.718543 353.2239 
L 770.026 353.2239 
L 792.333457 353.2239 
L 814.640914 353.2239 
L 836.948371 353.2239 
L 859.255828 353.204137 
" clip-path="url(#pc784b85d93)" style="fill: none; stroke: #f0ad4e; stroke-linecap: square"/>
   </g>
   <g id="line2d_13">
    <path d="M 618.335293 353.209627 
L 627.258276 353.220606 
L 636.181259 353.2239 
L 645.104242 353.2239 
L 654.027224 353.221704 
L 662.950207 353.2239 
L 671.87319 353.2239 
L 680.796173 353.2239 
L 689.719155 353.2239 
L 698.642138 353.2239 
L 707.565121 353.2239 
L 716.488104 353.2239 
L 725.411086 353.2239 
L 734.334069 353.2239 
L 743.257052 353.2239 
L 752.180035 353.2239 
L 761.103017 353.2239 
L 770.026 353.2239 
L 778.948983 353.2239 
L 787.871966 353.2239 
L 796.794949 353.2239 
L 805.717931 353.2239 
L 814.640914 353.2239 
L 823.563897 353.2239 
L 832.48688 353.2239 
L 841.409862 353.2239 
L 850.332845 353.2239 
L 859.255828 353.219508 
L 868.178811 353.220606 
" clip-path="url(#pc784b85d93)" style="fill: none; stroke: #f0ad4e; stroke-linecap: square"/>
   </g>
   <g id="line2d_14">
    <path d="M 600.489328 353.216214 
L 609.412311 353.120694 
L 618.335293 50.397233 
L 627.258276 352.991137 
L 636.181259 346.922834 
L 645.104242 348.317215 
L 654.027224 353.137163 
L 662.950207 353.222802 
L 671.87319 353.2239 
L 680.796173 353.2239 
L 689.719155 353.2239 
L 698.642138 353.2239 
L 707.565121 353.222802 
L 716.488104 353.222802 
L 725.411086 353.188766 
L 734.334069 353.219508 
L 743.257052 353.2239 
L 752.180035 353.2239 
L 761.103017 353.2239 
L 770.026 353.2239 
L 778.948983 353.2239 
L 787.871966 353.2239 
L 796.794949 353.2239 
L 805.717931 353.2239 
L 814.640914 353.2239 
L 823.563897 353.2239 
L 832.48688 353.2239 
L 841.409862 353.153632 
L 850.332845 353.194256 
L 859.255828 346.405705 
L 868.178811 353.11191 
" clip-path="url(#pc784b85d93)" style="fill: none; stroke: #f0ad4e; stroke-linecap: square"/>
   </g>
   <g id="line2d_15">
    <path d="M 346.184319 353.216214 
L 368.491776 353.2239 
L 390.799233 353.2239 
L 413.10669 353.2239 
L 435.414147 353.2239 
L 457.721604 353.2239 
L 480.02906 353.2239 
L 502.336517 353.2239 
L 524.643974 353.222802 
L 546.951431 353.2239 
L 569.258888 353.2239 
L 591.566345 353.2239 
L 613.873802 306.739402 
L 636.181259 335.354959 
L 658.488716 217.103745 
L 680.796173 352.140235 
L 703.10363 353.2239 
L 725.411086 353.217312 
L 747.718543 353.2239 
L 770.026 353.2239 
L 792.333457 353.2239 
L 814.640914 353.217312 
L 836.948371 353.131673 
L 859.255828 257.933863 
L 881.563285 353.195354 
L 903.870742 353.2239 
L 921.716707 353.222802 
" clip-path="url(#pc784b85d93)" style="fill: none; stroke: #f0ad4e; stroke-linecap: square"/>
   </g>
   <g id="line2d_16">
    <path d="M 582.643362 353.222802 
L 591.566345 353.220606 
L 600.489328 353.2239 
L 609.412311 352.965885 
L 618.335293 52.974094 
L 627.258276 288.625621 
L 636.181259 317.153343 
L 645.104242 352.764962 
L 654.027224 350.206766 
L 662.950207 353.04823 
L 671.87319 353.222802 
L 680.796173 353.2239 
L 689.719155 353.2239 
L 698.642138 353.2239 
L 707.565121 353.2239 
L 716.488104 353.2239 
L 725.411086 353.193158 
L 734.334069 353.221704 
L 743.257052 353.2239 
L 752.180035 353.2239 
L 761.103017 353.2239 
L 770.026 353.2239 
L 778.948983 353.2239 
L 787.871966 353.2239 
L 796.794949 353.2239 
L 805.717931 353.2239 
L 814.640914 353.2239 
L 823.563897 353.2239 
L 832.48688 353.221704 
L 841.409862 353.18657 
L 850.332845 353.18657 
L 859.255828 336.300284 
L 868.178811 352.850601 
" clip-path="url(#pc784b85d93)" style="fill: none; stroke: #f0ad4e; stroke-linecap: square"/>
   </g>
   <g id="line2d_17">
    <path d="M 346.184319 353.222802 
L 368.491776 353.2239 
L 390.799233 353.2239 
L 413.10669 353.2239 
L 435.414147 353.2239 
L 457.721604 353.2239 
L 480.02906 353.2239 
L 502.336517 353.2239 
L 524.643974 353.2239 
L 546.951431 353.2239 
L 569.258888 353.2239 
L 591.566345 353.221704 
L 613.873802 250.328446 
L 636.181259 282.30589 
L 658.488716 322.576059 
L 680.796173 352.858287 
L 703.10363 353.2239 
L 725.411086 353.204137 
L 747.718543 353.2239 
L 770.026 353.2239 
L 792.333457 353.2239 
L 814.640914 353.222802 
L 836.948371 353.173395 
L 859.255828 334.870769 
L 877.101793 353.219508 
" clip-path="url(#pc784b85d93)" style="fill: none; stroke: #f0ad4e; stroke-linecap: square"/>
   </g>
   <g id="line2d_18">
    <path d="M 368.491776 353.222802 
L 390.799233 353.2239 
L 413.10669 353.2239 
L 435.414147 353.2239 
L 457.721604 353.2239 
L 480.02906 353.2239 
L 502.336517 353.2239 
L 524.643974 353.2239 
L 546.951431 353.2239 
L 569.258888 353.2239 
L 591.566345 353.2239 
L 613.873802 234.223892 
L 636.181259 316.503364 
L 658.488716 338.833227 
L 680.796173 351.970055 
L 703.10363 353.222802 
L 725.411086 353.204137 
L 747.718543 353.2239 
L 770.026 353.2239 
L 792.333457 353.2239 
L 814.640914 353.221704 
L 836.948371 353.208529 
L 859.255828 334.574325 
L 881.563285 353.219508 
L 903.870742 353.2239 
L 917.255216 353.221704 
" clip-path="url(#pc784b85d93)" style="fill: none; stroke: #f0ad4e; stroke-linecap: square"/>
   </g>
   <g id="line2d_19">
    <path d="M 520.182483 353.222802 
L 529.105466 353.2239 
L 538.028448 353.2239 
L 546.951431 353.2239 
L 555.874414 353.2239 
L 564.797397 353.2239 
L 573.720379 353.2239 
L 582.643362 353.2239 
L 591.566345 353.2239 
L 600.489328 353.1174 
L 609.412311 353.11191 
L 618.335293 317.145658 
L 627.258276 330.2748 
L 636.181259 349.279009 
L 645.104242 325.789724 
L 654.027224 252.630822 
L 662.950207 332.449815 
L 671.87319 351.931627 
L 680.796173 353.187668 
L 689.719155 353.221704 
L 698.642138 353.2239 
L 707.565121 353.2239 
L 716.488104 353.2239 
L 725.411086 353.190962 
L 734.334069 353.2239 
L 743.257052 353.2239 
L 752.180035 353.2239 
L 761.103017 353.2239 
L 770.026 353.2239 
L 778.948983 353.2239 
L 787.871966 353.2239 
L 796.794949 353.2239 
L 805.717931 353.2239 
L 814.640914 353.221704 
L 823.563897 353.222802 
L 832.48688 353.221704 
L 841.409862 353.176689 
L 850.332845 353.093245 
L 859.255828 290.694136 
L 868.178811 352.837426 
L 877.101793 353.21841 
L 886.024776 353.222802 
L 894.947759 353.2239 
L 903.870742 353.2239 
L 912.793724 353.2239 
L 921.716707 353.222802 
L 930.63969 353.221704 
" clip-path="url(#pc784b85d93)" style="fill: none; stroke: #f0ad4e; stroke-linecap: square"/>
   </g>
   <g id="line2d_20">
    <path d="M 323.876862 353.221704 
L 346.184319 353.2239 
L 368.491776 353.2239 
L 390.799233 353.2239 
L 413.10669 353.2239 
L 435.414147 353.2239 
L 457.721604 353.2239 
L 480.02906 353.2239 
L 502.336517 353.2239 
L 524.643974 353.2239 
L 546.951431 353.2239 
L 569.258888 353.2239 
L 591.566345 353.2239 
L 613.873802 168.556221 
L 636.181259 288.084337 
L 658.488716 349.244973 
L 680.796173 353.219508 
L 703.10363 353.2239 
L 725.411086 353.197549 
L 747.718543 353.2239 
L 770.026 353.2239 
L 792.333457 353.2239 
L 814.640914 353.2239 
L 836.948371 353.197549 
L 859.255828 346.596746 
L 877.101793 353.221704 
" clip-path="url(#pc784b85d93)" style="fill: none; stroke: #f0ad4e; stroke-linecap: square"/>
   </g>
   <g id="line2d_21">
    <path d="M 346.184319 353.222802 
L 368.491776 353.220606 
L 390.799233 353.2239 
L 413.10669 353.2239 
L 435.414147 353.2239 
L 457.721604 353.2239 
L 480.02906 353.2239 
L 502.336517 353.2239 
L 524.643974 353.2239 
L 546.951431 353.2239 
L 569.258888 353.2239 
L 591.566345 353.21841 
L 613.873802 212.150947 
L 636.181259 349.941065 
L 658.488716 353.164611 
L 680.796173 353.2239 
L 703.10363 353.2239 
L 725.411086 353.208529 
L 747.718543 353.21841 
L 770.026 353.2239 
L 792.333457 353.2239 
L 814.640914 353.2239 
L 836.948371 353.205235 
L 859.255828 339.531515 
L 872.640302 353.219508 
" clip-path="url(#pc784b85d93)" style="fill: none; stroke: #f0ad4e; stroke-linecap: square"/>
   </g>
   <g id="line2d_22">
    <path d="M 591.566345 353.222802 
L 600.489328 336.539634 
L 609.412311 348.669653 
L 618.335293 97.423015 
L 627.258276 342.470695 
L 636.181259 346.707638 
L 645.104242 350.266055 
L 654.027224 348.876066 
L 662.950207 353.142653 
L 671.87319 353.2239 
L 680.796173 353.2239 
L 689.719155 353.2239 
L 698.642138 353.2239 
L 707.565121 353.2239 
L 716.488104 353.2239 
L 725.411086 353.200843 
L 734.334069 353.222802 
L 743.257052 353.2239 
L 752.180035 353.2239 
L 761.103017 353.2239 
L 770.026 353.2239 
L 778.948983 353.2239 
L 787.871966 353.2239 
L 796.794949 353.2239 
L 805.717931 353.2239 
L 814.640914 353.2239 
L 823.563897 353.2239 
L 832.48688 353.2239 
L 841.409862 353.184374 
L 850.332845 353.195354 
L 859.255828 345.705221 
L 868.178811 353.151436 
L 877.101793 353.220606 
" clip-path="url(#pc784b85d93)" style="fill: none; stroke: #f0ad4e; stroke-linecap: square"/>
   </g>
   <g id="line2d_23">
    <path d="M 279.261948 353.222802 
L 301.569405 353.222802 
L 323.876862 353.2239 
L 346.184319 353.220606 
L 368.491776 353.2239 
L 390.799233 353.2239 
L 413.10669 353.2239 
L 435.414147 353.2239 
L 457.721604 353.2239 
L 480.02906 353.2239 
L 502.336517 353.2239 
L 524.643974 353.2239 
L 546.951431 353.2239 
L 569.258888 353.2239 
L 591.566345 353.2239 
L 613.873802 268.145784 
L 636.181259 292.700069 
L 658.488716 326.56926 
L 680.796173 352.925261 
L 703.10363 353.222802 
L 725.411086 353.214019 
L 747.718543 353.222802 
L 770.026 353.222802 
L 792.333457 353.222802 
L 814.640914 353.2239 
L 836.948371 353.166807 
L 859.255828 288.288554 
L 881.563285 353.197549 
" clip-path="url(#pc784b85d93)" style="fill: none; stroke: #f0ad4e; stroke-linecap: square"/>
   </g>
   <g id="line2d_24">
    <path d="M 346.184319 353.222802 
L 368.491776 353.2239 
L 390.799233 353.2239 
L 413.10669 353.2239 
L 435.414147 353.2239 
L 457.721604 353.2239 
L 480.02906 353.2239 
L 502.336517 353.220606 
L 524.643974 353.2239 
L 546.951431 353.2239 
L 569.258888 353.2239 
L 591.566345 353.2239 
L 613.873802 250.018828 
L 636.181259 237.421087 
L 658.488716 343.723443 
L 680.796173 353.207431 
L 703.10363 353.2239 
L 725.411086 353.201941 
L 747.718543 353.222802 
L 770.026 353.2239 
L 792.333457 353.2239 
L 814.640914 353.2239 
L 836.948371 353.211823 
L 859.255828 339.734634 
L 872.640302 353.220606 
" clip-path="url(#pc784b85d93)" style="fill: none; stroke: #f0ad4e; stroke-linecap: square"/>
   </g>
   <g id="line2d_25">
    <path d="M 591.566345 353.220606 
L 600.489328 353.216214 
L 609.412311 348.088844 
L 618.335293 233.119366 
L 627.258276 340.147459 
L 636.181259 346.952478 
L 645.104242 352.844013 
L 654.027224 345.89736 
L 662.950207 353.095441 
L 671.87319 353.222802 
L 680.796173 353.2239 
L 689.719155 353.2239 
L 698.642138 353.2239 
L 707.565121 353.2239 
L 716.488104 353.2239 
L 725.411086 353.211823 
L 734.334069 353.222802 
L 743.257052 353.2239 
L 752.180035 353.2239 
L 761.103017 353.2239 
L 770.026 353.2239 
L 778.948983 353.2239 
L 787.871966 353.2239 
L 796.794949 353.2239 
L 805.717931 353.2239 
L 814.640914 353.2239 
L 823.563897 353.2239 
L 832.48688 353.2239 
L 841.409862 353.219508 
L 850.332845 353.201941 
L 859.255828 348.501669 
L 868.178811 353.177787 
" clip-path="url(#pc784b85d93)" style="fill: none; stroke: #f0ad4e; stroke-linecap: square"/>
   </g>
   <g id="line2d_26">
    <path d="M 600.489328 353.222802 
L 609.412311 347.641983 
L 618.335293 180.460065 
L 627.258276 345.823798 
L 636.181259 348.865086 
L 645.104242 353.221704 
L 654.027224 353.179982 
L 662.950207 352.953807 
L 671.87319 353.094343 
L 680.796173 353.2239 
L 689.719155 353.2239 
L 698.642138 353.2239 
L 707.565121 353.2239 
L 716.488104 353.2239 
L 725.411086 353.201941 
L 734.334069 353.221704 
L 743.257052 353.222802 
L 752.180035 353.2239 
L 761.103017 353.2239 
L 770.026 353.2239 
L 778.948983 353.2239 
L 787.871966 353.2239 
L 796.794949 353.2239 
L 805.717931 353.2239 
L 814.640914 353.2239 
L 823.563897 353.2239 
L 832.48688 353.2239 
L 841.409862 353.222802 
L 850.332845 353.210725 
L 859.255828 348.925473 
L 868.178811 353.151436 
" clip-path="url(#pc784b85d93)" style="fill: none; stroke: #f0ad4e; stroke-linecap: square"/>
   </g>
   <g id="line2d_27">
    <path d="M 538.028448 353.222802 
L 546.951431 353.2239 
L 555.874414 353.2239 
L 564.797397 353.2239 
L 573.720379 353.2239 
L 582.643362 353.2239 
L 591.566345 353.2239 
L 600.489328 351.492452 
L 609.412311 343.41053 
L 618.335293 298.440088 
L 627.258276 339.70499 
L 636.181259 343.676231 
L 645.104242 343.532401 
L 654.027224 328.600445 
L 662.950207 343.524716 
L 671.87319 352.725436 
L 680.796173 353.216214 
L 689.719155 353.2239 
L 698.642138 353.2239 
L 707.565121 353.2239 
L 716.488104 353.2239 
L 725.411086 353.207431 
L 734.334069 353.221704 
L 743.257052 353.2239 
L 752.180035 353.2239 
L 761.103017 353.2239 
L 770.026 353.2239 
L 778.948983 353.2239 
L 787.871966 353.2239 
L 796.794949 353.2239 
L 805.717931 353.2239 
L 814.640914 353.2239 
L 823.563897 353.2239 
L 832.48688 353.221704 
L 841.409862 353.208529 
L 850.332845 353.170101 
L 859.255828 332.103965 
L 868.178811 353.026271 
L 877.101793 353.221704 
L 886.024776 353.2239 
L 894.947759 353.2239 
L 903.870742 353.2239 
L 912.793724 353.2239 
L 921.716707 353.222802 
" clip-path="url(#pc784b85d93)" style="fill: none; stroke: #f0ad4e; stroke-linecap: square"/>
   </g>
   <g id="line2d_28">
    <path d="M 323.876862 352.255519 
L 346.184319 353.2239 
L 368.491776 353.2239 
L 390.799233 353.2239 
L 413.10669 353.2239 
L 435.414147 353.2239 
L 457.721604 353.2239 
L 480.02906 353.2239 
L 502.336517 353.2239 
L 524.643974 353.2239 
L 546.951431 353.2239 
L 569.258888 353.2239 
L 591.566345 353.212921 
L 613.873802 138.938246 
L 636.181259 341.483649 
L 658.488716 352.94722 
L 680.796173 353.220606 
L 703.10363 353.2239 
L 725.411086 353.190962 
L 747.718543 353.2239 
L 770.026 353.2239 
L 792.333457 353.2239 
L 814.640914 353.2239 
L 836.948371 353.203039 
L 859.255828 347.998813 
L 872.640302 353.221704 
" clip-path="url(#pc784b85d93)" style="fill: none; stroke: #f0ad4e; stroke-linecap: square"/>
   </g>
   <g id="line2d_29">
    <path d="M 600.489328 353.222802 
L 609.412311 352.075457 
L 618.335293 177.235421 
L 627.258276 347.850592 
L 636.181259 353.129477 
L 645.104242 352.777039 
L 654.027224 352.155606 
L 662.950207 352.023854 
L 671.87319 353.166807 
L 680.796173 353.2239 
L 689.719155 353.2239 
L 698.642138 353.2239 
L 707.565121 353.2239 
L 716.488104 353.2239 
L 725.411086 353.200843 
L 734.334069 353.2239 
L 743.257052 353.2239 
L 752.180035 353.2239 
L 761.103017 353.2239 
L 770.026 353.2239 
L 778.948983 353.2239 
L 787.871966 353.2239 
L 796.794949 353.2239 
L 805.717931 353.2239 
L 814.640914 353.2239 
L 823.563897 353.2239 
L 832.48688 353.2239 
L 841.409862 353.216214 
L 850.332845 353.167905 
L 859.255828 348.806895 
L 868.178811 353.185472 
" clip-path="url(#pc784b85d93)" style="fill: none; stroke: #f0ad4e; stroke-linecap: square"/>
   </g>
   <g id="line2d_30">
    <path d="M 323.876862 353.222802 
L 346.184319 353.2239 
L 368.491776 353.2239 
L 390.799233 353.2239 
L 413.10669 353.2239 
L 435.414147 353.2239 
L 457.721604 353.2239 
L 480.02906 353.2239 
L 502.336517 353.2239 
L 524.643974 353.2239 
L 546.951431 353.2239 
L 569.258888 353.2239 
L 591.566345 353.2239 
L 613.873802 310.777618 
L 636.181259 339.004505 
L 658.488716 292.137924 
L 680.796173 352.166586 
L 703.10363 353.2239 
L 725.411086 353.203039 
L 747.718543 353.2239 
L 770.026 353.221704 
L 792.333457 353.2239 
L 814.640914 353.2239 
L 836.948371 353.205235 
L 859.255828 324.841105 
L 877.101793 353.21841 
" clip-path="url(#pc784b85d93)" style="fill: none; stroke: #f0ad4e; stroke-linecap: square"/>
   </g>
   <g id="line2d_31">
    <path d="M 123.10975 353.220606 
L 145.417207 353.2239 
L 167.724664 353.2239 
L 190.032121 353.2239 
L 212.339578 353.2239 
L 234.647035 353.2239 
L 256.954491 353.2239 
L 279.261948 353.2239 
L 301.569405 353.2239 
L 323.876862 353.2239 
L 346.184319 353.222802 
L 368.491776 353.2239 
L 390.799233 353.2239 
L 413.10669 353.2239 
L 435.414147 353.2239 
L 457.721604 353.2239 
L 480.02906 353.2239 
L 502.336517 353.2239 
L 524.643974 353.2239 
L 546.951431 353.2239 
L 569.258888 353.2239 
L 591.566345 353.2239 
L 613.873802 217.211343 
L 636.181259 340.766696 
L 658.488716 326.076285 
L 680.796173 352.882441 
L 703.10363 353.2239 
L 725.411086 353.220606 
L 747.718543 353.2239 
L 770.026 353.222802 
L 792.333457 353.2239 
L 814.640914 353.2239 
L 836.948371 353.217312 
L 859.255828 333.676212 
L 881.563285 353.217312 
L 903.870742 353.2239 
L 921.716707 353.222802 
" clip-path="url(#pc784b85d93)" style="fill: none; stroke: #f0ad4e; stroke-linecap: square"/>
   </g>
   <g id="line2d_32">
    <path d="M 600.489328 353.222802 
L 609.412311 353.200843 
L 618.335293 332.785784 
L 627.258276 339.101124 
L 636.181259 345.482339 
L 645.104242 340.266036 
L 654.027224 307.644103 
L 662.950207 342.257695 
L 671.87319 352.634307 
L 680.796173 353.187668 
L 689.719155 353.222802 
L 698.642138 353.222802 
L 707.565121 353.2239 
L 716.488104 353.2239 
L 725.411086 353.205235 
L 734.334069 353.222802 
L 743.257052 353.2239 
L 752.180035 353.222802 
L 761.103017 353.2239 
L 770.026 353.2239 
L 778.948983 353.2239 
L 787.871966 353.2239 
L 796.794949 353.2239 
L 805.717931 353.2239 
L 814.640914 353.2239 
L 823.563897 353.2239 
L 832.48688 353.222802 
L 841.409862 353.189864 
L 850.332845 353.185472 
L 859.255828 318.319354 
L 868.178811 353.043838 
L 877.101793 353.221704 
L 886.024776 353.2239 
L 894.947759 353.2239 
L 903.870742 353.2239 
L 912.793724 353.2239 
L 921.716707 353.2239 
L 930.63969 353.222802 
" clip-path="url(#pc784b85d93)" style="fill: none; stroke: #f0ad4e; stroke-linecap: square"/>
   </g>
   <g id="line2d_33">
    <path d="M 591.566345 353.217312 
L 600.489328 343.134948 
L 609.412311 352.892323 
L 618.335293 238.654072 
L 627.258276 319.019838 
L 636.181259 353.037251 
L 645.104242 353.2239 
L 654.027224 353.2239 
L 662.950207 353.2239 
L 671.87319 353.21841 
L 680.796173 352.839622 
L 689.719155 351.678003 
L 698.642138 353.220606 
L 707.565121 353.222802 
L 716.488104 353.2239 
L 725.411086 353.199745 
L 734.334069 353.203039 
L 743.257052 353.2239 
L 752.180035 353.2239 
L 761.103017 353.2239 
L 770.026 353.2239 
L 778.948983 353.2239 
L 787.871966 353.2239 
L 796.794949 353.2239 
L 805.717931 353.2239 
L 814.640914 353.2239 
L 823.563897 353.2239 
L 832.48688 353.2239 
L 841.409862 353.208529 
L 850.332845 353.216214 
L 859.255828 347.424592 
L 868.178811 353.156926 
" clip-path="url(#pc784b85d93)" style="fill: none; stroke: #f0ad4e; stroke-linecap: square"/>
   </g>
   <g id="line2d_34">
    <path d="M 600.489328 349.050638 
L 609.412311 352.97906 
L 618.335293 190.251476 
L 627.258276 334.479903 
L 636.181259 352.986745 
L 645.104242 353.153632 
L 654.027224 346.920638 
L 662.950207 352.828642 
L 671.87319 353.187668 
L 680.796173 353.222802 
L 689.719155 353.2239 
L 698.642138 353.2239 
L 707.565121 353.222802 
L 716.488104 353.2239 
L 725.411086 353.176689 
L 734.334069 353.193158 
L 743.257052 353.222802 
L 752.180035 353.2239 
L 761.103017 353.2239 
L 770.026 353.2239 
L 778.948983 353.2239 
L 787.871966 353.2239 
L 796.794949 353.2239 
L 805.717931 353.2239 
L 814.640914 353.2239 
L 823.563897 353.2239 
L 832.48688 353.2239 
L 841.409862 353.214019 
L 850.332845 353.214019 
L 859.255828 347.660648 
L 868.178811 353.119596 
L 877.101793 353.221704 
L 886.024776 353.2239 
L 894.947759 353.2239 
L 903.870742 353.2239 
L 912.793724 353.2239 
L 921.716707 353.2239 
L 930.63969 353.2239 
L 939.562673 353.2239 
L 948.485655 353.222802 
" clip-path="url(#pc784b85d93)" style="fill: none; stroke: #f0ad4e; stroke-linecap: square"/>
   </g>
   <g id="line2d_35">
    <path d="M 600.489328 353.221704 
L 609.412311 353.222802 
L 618.335293 353.108617 
L 627.258276 353.216214 
L 636.181259 353.220606 
L 645.104242 353.220606 
L 654.027224 353.21841 
L 662.950207 353.221704 
L 671.87319 353.2239 
L 680.796173 353.2239 
L 689.719155 353.2239 
L 698.642138 353.2239 
L 707.565121 353.2239 
L 716.488104 353.2239 
L 725.411086 353.2239 
L 734.334069 353.2239 
L 743.257052 353.2239 
L 752.180035 353.2239 
L 761.103017 353.2239 
L 770.026 353.2239 
L 778.948983 353.2239 
L 787.871966 353.2239 
L 796.794949 353.2239 
L 805.717931 353.2239 
L 814.640914 353.2239 
L 823.563897 353.2239 
L 832.48688 353.2239 
L 841.409862 353.2239 
L 850.332845 353.221704 
L 859.255828 353.107519 
L 868.178811 353.211823 
" clip-path="url(#pc784b85d93)" style="fill: none; stroke: #f0ad4e; stroke-linecap: square"/>
   </g>
   <g id="line2d_36">
    <path d="M 58.418125 353.2239 
L 990.869824 353.2239 
" clip-path="url(#pc784b85d93)" style="fill: none; stroke: #dedede; stroke-width: 2; stroke-linecap: square"/>
   </g>
   <g id="text_18">
    <!-- FastQC: Sequence Length Distribution -->
    <g transform="translate(372.631474 19.3575) scale(0.16 -0.16)">
     <defs>
      <path id="DejaVuSans-46" d="M 628 4666 
L 3309 4666 
L 3309 4134 
L 1259 4134 
L 1259 2759 
L 3109 2759 
L 3109 2228 
L 1259 2228 
L 1259 0 
L 628 0 
L 628 4666 
z
" transform="scale(0.015625)"/>
      <path id="DejaVuSans-73" d="M 2834 3397 
L 2834 2853 
Q 2591 2978 2328 3040 
Q 2066 3103 1784 3103 
Q 1356 3103 1142 2972 
Q 928 2841 928 2578 
Q 928 2378 1081 2264 
Q 1234 2150 1697 2047 
L 1894 2003 
Q 2506 1872 2764 1633 
Q 3022 1394 3022 966 
Q 3022 478 2636 193 
Q 2250 -91 1575 -91 
Q 1294 -91 989 -36 
Q 684 19 347 128 
L 347 722 
Q 666 556 975 473 
Q 1284 391 1588 391 
Q 1994 391 2212 530 
Q 2431 669 2431 922 
Q 2431 1156 2273 1281 
Q 2116 1406 1581 1522 
L 1381 1569 
Q 847 1681 609 1914 
Q 372 2147 372 2553 
Q 372 3047 722 3315 
Q 1072 3584 1716 3584 
Q 2034 3584 2315 3537 
Q 2597 3491 2834 3397 
z
" transform="scale(0.015625)"/>
      <path id="DejaVuSans-51" d="M 2522 4238 
Q 1834 4238 1429 3725 
Q 1025 3213 1025 2328 
Q 1025 1447 1429 934 
Q 1834 422 2522 422 
Q 3209 422 3611 934 
Q 4013 1447 4013 2328 
Q 4013 3213 3611 3725 
Q 3209 4238 2522 4238 
z
M 3406 84 
L 4238 -825 
L 3475 -825 
L 2784 -78 
Q 2681 -84 2626 -87 
Q 2572 -91 2522 -91 
Q 1538 -91 948 567 
Q 359 1225 359 2328 
Q 359 3434 948 4092 
Q 1538 4750 2522 4750 
Q 3503 4750 4090 4092 
Q 4678 3434 4678 2328 
Q 4678 1516 4351 937 
Q 4025 359 3406 84 
z
" transform="scale(0.015625)"/>
      <path id="DejaVuSans-3a" d="M 750 794 
L 1409 794 
L 1409 0 
L 750 0 
L 750 794 
z
M 750 3309 
L 1409 3309 
L 1409 2516 
L 750 2516 
L 750 3309 
z
" transform="scale(0.015625)"/>
      <path id="DejaVuSans-44" d="M 1259 4147 
L 1259 519 
L 2022 519 
Q 2988 519 3436 956 
Q 3884 1394 3884 2338 
Q 3884 3275 3436 3711 
Q 2988 4147 2022 4147 
L 1259 4147 
z
M 628 4666 
L 1925 4666 
Q 3281 4666 3915 4102 
Q 4550 3538 4550 2338 
Q 4550 1131 3912 565 
Q 3275 0 1925 0 
L 628 0 
L 628 4666 
z
" transform="scale(0.015625)"/>
      <path id="DejaVuSans-69" d="M 603 3500 
L 1178 3500 
L 1178 0 
L 603 0 
L 603 3500 
z
M 603 4863 
L 1178 4863 
L 1178 4134 
L 603 4134 
L 603 4863 
z
" transform="scale(0.015625)"/>
      <path id="DejaVuSans-72" d="M 2631 2963 
Q 2534 3019 2420 3045 
Q 2306 3072 2169 3072 
Q 1681 3072 1420 2755 
Q 1159 2438 1159 1844 
L 1159 0 
L 581 0 
L 581 3500 
L 1159 3500 
L 1159 2956 
Q 1341 3275 1631 3429 
Q 1922 3584 2338 3584 
Q 2397 3584 2469 3576 
Q 2541 3569 2628 3553 
L 2631 2963 
z
" transform="scale(0.015625)"/>
     </defs>
     <use xlink:href="#DejaVuSans-46"/>
     <use xlink:href="#DejaVuSans-61" x="48.394531"/>
     <use xlink:href="#DejaVuSans-73" x="109.673828"/>
     <use xlink:href="#DejaVuSans-74" x="161.773438"/>
     <use xlink:href="#DejaVuSans-51" x="200.982422"/>
     <use xlink:href="#DejaVuSans-43" x="279.693359"/>
     <use xlink:href="#DejaVuSans-3a" x="349.517578"/>
     <use xlink:href="#DejaVuSans-20" x="383.208984"/>
     <use xlink:href="#DejaVuSans-53" x="414.996094"/>
     <use xlink:href="#DejaVuSans-65" x="478.472656"/>
     <use xlink:href="#DejaVuSans-71" x="539.996094"/>
     <use xlink:href="#DejaVuSans-75" x="603.472656"/>
     <use xlink:href="#DejaVuSans-65" x="666.851562"/>
     <use xlink:href="#DejaVuSans-6e" x="728.375"/>
     <use xlink:href="#DejaVuSans-63" x="791.753906"/>
     <use xlink:href="#DejaVuSans-65" x="846.734375"/>
     <use xlink:href="#DejaVuSans-20" x="908.257812"/>
     <use xlink:href="#DejaVuSans-4c" x="940.044922"/>
     <use xlink:href="#DejaVuSans-65" x="994.007812"/>
     <use xlink:href="#DejaVuSans-6e" x="1055.53125"/>
     <use xlink:href="#DejaVuSans-67" x="1118.910156"/>
     <use xlink:href="#DejaVuSans-74" x="1182.386719"/>
     <use xlink:href="#DejaVuSans-68" x="1221.595703"/>
     <use xlink:href="#DejaVuSans-20" x="1284.974609"/>
     <use xlink:href="#DejaVuSans-44" x="1316.761719"/>
     <use xlink:href="#DejaVuSans-69" x="1393.763672"/>
     <use xlink:href="#DejaVuSans-73" x="1421.546875"/>
     <use xlink:href="#DejaVuSans-74" x="1473.646484"/>
     <use xlink:href="#DejaVuSans-72" x="1512.855469"/>
     <use xlink:href="#DejaVuSans-69" x="1553.96875"/>
     <use xlink:href="#DejaVuSans-62" x="1581.751953"/>
     <use xlink:href="#DejaVuSans-75" x="1645.228516"/>
     <use xlink:href="#DejaVuSans-74" x="1708.607422"/>
     <use xlink:href="#DejaVuSans-69" x="1747.816406"/>
     <use xlink:href="#DejaVuSans-6f" x="1775.599609"/>
     <use xlink:href="#DejaVuSans-6e" x="1836.78125"/>
    </g>
   </g>
  </g>
 </g>
 <defs>
  <clipPath id="pc784b85d93">
   <rect x="58.418125" y="35.2559" width="932.451699" height="317.968"/>
  </clipPath>
 </defs>
</svg>
