<?xml version="1.0" encoding="utf-8" standalone="no"?>
<!DOCTYPE svg PUBLIC "-//W3C//DTD SVG 1.1//EN"
  "http://www.w3.org/Graphics/SVG/1.1/DTD/svg11.dtd">
<svg xmlns:xlink="http://www.w3.org/1999/xlink" width="1000.098125pt" height="388.844525pt" viewBox="0 0 1000.098125 388.844525" xmlns="http://www.w3.org/2000/svg" version="1.1">
 <metadata>
  <rdf:RDF xmlns:dc="http://purl.org/dc/elements/1.1/" xmlns:cc="http://creativecommons.org/ns#" xmlns:rdf="http://www.w3.org/1999/02/22-rdf-syntax-ns#">
   <cc:Work>
    <dc:type rdf:resource="http://purl.org/dc/dcmitype/StillImage"/>
    <dc:date>2024-06-28T13:31:45.511890</dc:date>
    <dc:format>image/svg+xml</dc:format>
    <dc:creator>
     <cc:Agent>
      <dc:title>Matplotlib v3.7.1, https://matplotlib.org/</dc:title>
     </cc:Agent>
    </dc:creator>
   </cc:Work>
  </rdf:RDF>
 </metadata>
 <defs>
  <style type="text/css">*{stroke-linejoin: round; stroke-linecap: butt}</style>
 </defs>
 <g id="figure_1">
  <g id="axes_1">
   <g id="patch_1">
    <path d="M 58.418125 353.2239 
L 985.263125 353.2239 
L 985.263125 35.2559 
L 58.418125 35.2559 
z
" style="fill: #ffffff"/>
   </g>
   <g id="matplotlib.axis_1">
    <g id="xtick_1">
     <g id="text_1">
      <!-- 0 -->
      <g transform="translate(55.873125 366.30265) scale(0.08 -0.08)">
       <defs>
        <path id="DejaVuSans-30" d="M 2034 4250 
Q 1547 4250 1301 3770 
Q 1056 3291 1056 2328 
Q 1056 1369 1301 889 
Q 1547 409 2034 409 
Q 2525 409 2770 889 
Q 3016 1369 3016 2328 
Q 3016 3291 2770 3770 
Q 2525 4250 2034 4250 
z
M 2034 4750 
Q 2819 4750 3233 4129 
Q 3647 3509 3647 2328 
Q 3647 1150 3233 529 
Q 2819 -91 2034 -91 
Q 1250 -91 836 529 
Q 422 1150 422 2328 
Q 422 3509 836 4129 
Q 1250 4750 2034 4750 
z
" transform="scale(0.015625)"/>
       </defs>
       <use xlink:href="#DejaVuSans-30"/>
      </g>
     </g>
    </g>
    <g id="xtick_2">
     <g id="text_2">
      <!-- 20 -->
      <g transform="translate(238.697125 366.30265) scale(0.08 -0.08)">
       <defs>
        <path id="DejaVuSans-32" d="M 1228 531 
L 3431 531 
L 3431 0 
L 469 0 
L 469 531 
Q 828 903 1448 1529 
Q 2069 2156 2228 2338 
Q 2531 2678 2651 2914 
Q 2772 3150 2772 3378 
Q 2772 3750 2511 3984 
Q 2250 4219 1831 4219 
Q 1534 4219 1204 4116 
Q 875 4013 500 3803 
L 500 4441 
Q 881 4594 1212 4672 
Q 1544 4750 1819 4750 
Q 2544 4750 2975 4387 
Q 3406 4025 3406 3419 
Q 3406 3131 3298 2873 
Q 3191 2616 2906 2266 
Q 2828 2175 2409 1742 
Q 1991 1309 1228 531 
z
" transform="scale(0.015625)"/>
       </defs>
       <use xlink:href="#DejaVuSans-32"/>
       <use xlink:href="#DejaVuSans-30" x="63.623047"/>
      </g>
     </g>
    </g>
    <g id="xtick_3">
     <g id="text_3">
      <!-- 40 -->
      <g transform="translate(424.066125 366.30265) scale(0.08 -0.08)">
       <defs>
        <path id="DejaVuSans-34" d="M 2419 4116 
L 825 1625 
L 2419 1625 
L 2419 4116 
z
M 2253 4666 
L 3047 4666 
L 3047 1625 
L 3713 1625 
L 3713 1100 
L 3047 1100 
L 3047 0 
L 2419 0 
L 2419 1100 
L 313 1100 
L 313 1709 
L 2253 4666 
z
" transform="scale(0.015625)"/>
       </defs>
       <use xlink:href="#DejaVuSans-34"/>
       <use xlink:href="#DejaVuSans-30" x="63.623047"/>
      </g>
     </g>
    </g>
    <g id="xtick_4">
     <g id="text_4">
      <!-- 60 -->
      <g transform="translate(609.435125 366.30265) scale(0.08 -0.08)">
       <defs>
        <path id="DejaVuSans-36" d="M 2113 2584 
Q 1688 2584 1439 2293 
Q 1191 2003 1191 1497 
Q 1191 994 1439 701 
Q 1688 409 2113 409 
Q 2538 409 2786 701 
Q 3034 994 3034 1497 
Q 3034 2003 2786 2293 
Q 2538 2584 2113 2584 
z
M 3366 4563 
L 3366 3988 
Q 3128 4100 2886 4159 
Q 2644 4219 2406 4219 
Q 1781 4219 1451 3797 
Q 1122 3375 1075 2522 
Q 1259 2794 1537 2939 
Q 1816 3084 2150 3084 
Q 2853 3084 3261 2657 
Q 3669 2231 3669 1497 
Q 3669 778 3244 343 
Q 2819 -91 2113 -91 
Q 1303 -91 875 529 
Q 447 1150 447 2328 
Q 447 3434 972 4092 
Q 1497 4750 2381 4750 
Q 2619 4750 2861 4703 
Q 3103 4656 3366 4563 
z
" transform="scale(0.015625)"/>
       </defs>
       <use xlink:href="#DejaVuSans-36"/>
       <use xlink:href="#DejaVuSans-30" x="63.623047"/>
      </g>
     </g>
    </g>
    <g id="xtick_5">
     <g id="text_5">
      <!-- 80 -->
      <g transform="translate(794.804125 366.30265) scale(0.08 -0.08)">
       <defs>
        <path id="DejaVuSans-38" d="M 2034 2216 
Q 1584 2216 1326 1975 
Q 1069 1734 1069 1313 
Q 1069 891 1326 650 
Q 1584 409 2034 409 
Q 2484 409 2743 651 
Q 3003 894 3003 1313 
Q 3003 1734 2745 1975 
Q 2488 2216 2034 2216 
z
M 1403 2484 
Q 997 2584 770 2862 
Q 544 3141 544 3541 
Q 544 4100 942 4425 
Q 1341 4750 2034 4750 
Q 2731 4750 3128 4425 
Q 3525 4100 3525 3541 
Q 3525 3141 3298 2862 
Q 3072 2584 2669 2484 
Q 3125 2378 3379 2068 
Q 3634 1759 3634 1313 
Q 3634 634 3220 271 
Q 2806 -91 2034 -91 
Q 1263 -91 848 271 
Q 434 634 434 1313 
Q 434 1759 690 2068 
Q 947 2378 1403 2484 
z
M 1172 3481 
Q 1172 3119 1398 2916 
Q 1625 2713 2034 2713 
Q 2441 2713 2670 2916 
Q 2900 3119 2900 3481 
Q 2900 3844 2670 4047 
Q 2441 4250 2034 4250 
Q 1625 4250 1398 4047 
Q 1172 3844 1172 3481 
z
" transform="scale(0.015625)"/>
       </defs>
       <use xlink:href="#DejaVuSans-38"/>
       <use xlink:href="#DejaVuSans-30" x="63.623047"/>
      </g>
     </g>
    </g>
    <g id="xtick_6">
     <g id="text_6">
      <!-- 100 -->
      <g transform="translate(977.628125 366.30265) scale(0.08 -0.08)">
       <defs>
        <path id="DejaVuSans-31" d="M 794 531 
L 1825 531 
L 1825 4091 
L 703 3866 
L 703 4441 
L 1819 4666 
L 2450 4666 
L 2450 531 
L 3481 531 
L 3481 0 
L 794 0 
L 794 531 
z
" transform="scale(0.015625)"/>
       </defs>
       <use xlink:href="#DejaVuSans-31"/>
       <use xlink:href="#DejaVuSans-30" x="63.623047"/>
       <use xlink:href="#DejaVuSans-30" x="127.246094"/>
      </g>
     </g>
    </g>
    <g id="text_7">
     <!-- % GC -->
     <g transform="translate(508.135156 379.564837) scale(0.1 -0.1)">
      <defs>
       <path id="DejaVuSans-25" d="M 4653 2053 
Q 4381 2053 4226 1822 
Q 4072 1591 4072 1178 
Q 4072 772 4226 539 
Q 4381 306 4653 306 
Q 4919 306 5073 539 
Q 5228 772 5228 1178 
Q 5228 1588 5073 1820 
Q 4919 2053 4653 2053 
z
M 4653 2450 
Q 5147 2450 5437 2106 
Q 5728 1763 5728 1178 
Q 5728 594 5436 251 
Q 5144 -91 4653 -91 
Q 4153 -91 3862 251 
Q 3572 594 3572 1178 
Q 3572 1766 3864 2108 
Q 4156 2450 4653 2450 
z
M 1428 4353 
Q 1159 4353 1004 4120 
Q 850 3888 850 3481 
Q 850 3069 1003 2837 
Q 1156 2606 1428 2606 
Q 1700 2606 1854 2837 
Q 2009 3069 2009 3481 
Q 2009 3884 1853 4118 
Q 1697 4353 1428 4353 
z
M 4250 4750 
L 4750 4750 
L 1831 -91 
L 1331 -91 
L 4250 4750 
z
M 1428 4750 
Q 1922 4750 2215 4408 
Q 2509 4066 2509 3481 
Q 2509 2891 2217 2550 
Q 1925 2209 1428 2209 
Q 931 2209 642 2551 
Q 353 2894 353 3481 
Q 353 4063 643 4406 
Q 934 4750 1428 4750 
z
" transform="scale(0.015625)"/>
       <path id="DejaVuSans-20" transform="scale(0.015625)"/>
       <path id="DejaVuSans-47" d="M 3809 666 
L 3809 1919 
L 2778 1919 
L 2778 2438 
L 4434 2438 
L 4434 434 
Q 4069 175 3628 42 
Q 3188 -91 2688 -91 
Q 1594 -91 976 548 
Q 359 1188 359 2328 
Q 359 3472 976 4111 
Q 1594 4750 2688 4750 
Q 3144 4750 3555 4637 
Q 3966 4525 4313 4306 
L 4313 3634 
Q 3963 3931 3569 4081 
Q 3175 4231 2741 4231 
Q 1884 4231 1454 3753 
Q 1025 3275 1025 2328 
Q 1025 1384 1454 906 
Q 1884 428 2741 428 
Q 3075 428 3337 486 
Q 3600 544 3809 666 
z
" transform="scale(0.015625)"/>
       <path id="DejaVuSans-43" d="M 4122 4306 
L 4122 3641 
Q 3803 3938 3442 4084 
Q 3081 4231 2675 4231 
Q 1875 4231 1450 3742 
Q 1025 3253 1025 2328 
Q 1025 1406 1450 917 
Q 1875 428 2675 428 
Q 3081 428 3442 575 
Q 3803 722 4122 1019 
L 4122 359 
Q 3791 134 3420 21 
Q 3050 -91 2638 -91 
Q 1578 -91 968 557 
Q 359 1206 359 2328 
Q 359 3453 968 4101 
Q 1578 4750 2638 4750 
Q 3056 4750 3426 4639 
Q 3797 4528 4122 4306 
z
" transform="scale(0.015625)"/>
      </defs>
      <use xlink:href="#DejaVuSans-25"/>
      <use xlink:href="#DejaVuSans-20" x="95.019531"/>
      <use xlink:href="#DejaVuSans-47" x="126.806641"/>
      <use xlink:href="#DejaVuSans-43" x="204.296875"/>
     </g>
    </g>
   </g>
   <g id="matplotlib.axis_2">
    <g id="ytick_1">
     <g id="line2d_1">
      <path d="M 58.418125 353.2239 
L 985.263125 353.2239 
" clip-path="url(#p9a4ac7b8a2)" style="fill: none; stroke: #dedede; stroke-linecap: square"/>
     </g>
     <g id="text_8">
      <!-- 0 -->
      <g transform="translate(46.328125 356.263275) scale(0.08 -0.08)">
       <use xlink:href="#DejaVuSans-30"/>
      </g>
     </g>
    </g>
    <g id="ytick_2">
     <g id="line2d_2">
      <path d="M 58.418125 305.209588 
L 985.263125 305.209588 
" clip-path="url(#p9a4ac7b8a2)" style="fill: none; stroke: #dedede; stroke-linecap: square"/>
     </g>
     <g id="text_9">
      <!-- 20000 -->
      <g transform="translate(25.968125 308.248963) scale(0.08 -0.08)">
       <use xlink:href="#DejaVuSans-32"/>
       <use xlink:href="#DejaVuSans-30" x="63.623047"/>
       <use xlink:href="#DejaVuSans-30" x="127.246094"/>
       <use xlink:href="#DejaVuSans-30" x="190.869141"/>
       <use xlink:href="#DejaVuSans-30" x="254.492188"/>
      </g>
     </g>
    </g>
    <g id="ytick_3">
     <g id="line2d_3">
      <path d="M 58.418125 257.195276 
L 985.263125 257.195276 
" clip-path="url(#p9a4ac7b8a2)" style="fill: none; stroke: #dedede; stroke-linecap: square"/>
     </g>
     <g id="text_10">
      <!-- 40000 -->
      <g transform="translate(25.968125 260.234651) scale(0.08 -0.08)">
       <use xlink:href="#DejaVuSans-34"/>
       <use xlink:href="#DejaVuSans-30" x="63.623047"/>
       <use xlink:href="#DejaVuSans-30" x="127.246094"/>
       <use xlink:href="#DejaVuSans-30" x="190.869141"/>
       <use xlink:href="#DejaVuSans-30" x="254.492188"/>
      </g>
     </g>
    </g>
    <g id="ytick_4">
     <g id="line2d_4">
      <path d="M 58.418125 209.180964 
L 985.263125 209.180964 
" clip-path="url(#p9a4ac7b8a2)" style="fill: none; stroke: #dedede; stroke-linecap: square"/>
     </g>
     <g id="text_11">
      <!-- 60000 -->
      <g transform="translate(25.968125 212.220339) scale(0.08 -0.08)">
       <use xlink:href="#DejaVuSans-36"/>
       <use xlink:href="#DejaVuSans-30" x="63.623047"/>
       <use xlink:href="#DejaVuSans-30" x="127.246094"/>
       <use xlink:href="#DejaVuSans-30" x="190.869141"/>
       <use xlink:href="#DejaVuSans-30" x="254.492188"/>
      </g>
     </g>
    </g>
    <g id="ytick_5">
     <g id="line2d_5">
      <path d="M 58.418125 161.166652 
L 985.263125 161.166652 
" clip-path="url(#p9a4ac7b8a2)" style="fill: none; stroke: #dedede; stroke-linecap: square"/>
     </g>
     <g id="text_12">
      <!-- 80000 -->
      <g transform="translate(25.968125 164.206027) scale(0.08 -0.08)">
       <use xlink:href="#DejaVuSans-38"/>
       <use xlink:href="#DejaVuSans-30" x="63.623047"/>
       <use xlink:href="#DejaVuSans-30" x="127.246094"/>
       <use xlink:href="#DejaVuSans-30" x="190.869141"/>
       <use xlink:href="#DejaVuSans-30" x="254.492188"/>
      </g>
     </g>
    </g>
    <g id="ytick_6">
     <g id="line2d_6">
      <path d="M 58.418125 113.152339 
L 985.263125 113.152339 
" clip-path="url(#p9a4ac7b8a2)" style="fill: none; stroke: #dedede; stroke-linecap: square"/>
     </g>
     <g id="text_13">
      <!-- 100000 -->
      <g transform="translate(20.878125 116.191714) scale(0.08 -0.08)">
       <use xlink:href="#DejaVuSans-31"/>
       <use xlink:href="#DejaVuSans-30" x="63.623047"/>
       <use xlink:href="#DejaVuSans-30" x="127.246094"/>
       <use xlink:href="#DejaVuSans-30" x="190.869141"/>
       <use xlink:href="#DejaVuSans-30" x="254.492188"/>
       <use xlink:href="#DejaVuSans-30" x="318.115234"/>
      </g>
     </g>
    </g>
    <g id="ytick_7">
     <g id="line2d_7">
      <path d="M 58.418125 65.138027 
L 985.263125 65.138027 
" clip-path="url(#p9a4ac7b8a2)" style="fill: none; stroke: #dedede; stroke-linecap: square"/>
     </g>
     <g id="text_14">
      <!-- 120000 -->
      <g transform="translate(20.878125 68.177402) scale(0.08 -0.08)">
       <use xlink:href="#DejaVuSans-31"/>
       <use xlink:href="#DejaVuSans-32" x="63.623047"/>
       <use xlink:href="#DejaVuSans-30" x="127.246094"/>
       <use xlink:href="#DejaVuSans-30" x="190.869141"/>
       <use xlink:href="#DejaVuSans-30" x="254.492188"/>
       <use xlink:href="#DejaVuSans-30" x="318.115234"/>
      </g>
     </g>
    </g>
    <g id="text_15">
     <!-- Count -->
     <g transform="translate(14.798438 209.088338) rotate(-90) scale(0.1 -0.1)">
      <defs>
       <path id="DejaVuSans-6f" d="M 1959 3097 
Q 1497 3097 1228 2736 
Q 959 2375 959 1747 
Q 959 1119 1226 758 
Q 1494 397 1959 397 
Q 2419 397 2687 759 
Q 2956 1122 2956 1747 
Q 2956 2369 2687 2733 
Q 2419 3097 1959 3097 
z
M 1959 3584 
Q 2709 3584 3137 3096 
Q 3566 2609 3566 1747 
Q 3566 888 3137 398 
Q 2709 -91 1959 -91 
Q 1206 -91 779 398 
Q 353 888 353 1747 
Q 353 2609 779 3096 
Q 1206 3584 1959 3584 
z
" transform="scale(0.015625)"/>
       <path id="DejaVuSans-75" d="M 544 1381 
L 544 3500 
L 1119 3500 
L 1119 1403 
Q 1119 906 1312 657 
Q 1506 409 1894 409 
Q 2359 409 2629 706 
Q 2900 1003 2900 1516 
L 2900 3500 
L 3475 3500 
L 3475 0 
L 2900 0 
L 2900 538 
Q 2691 219 2414 64 
Q 2138 -91 1772 -91 
Q 1169 -91 856 284 
Q 544 659 544 1381 
z
M 1991 3584 
L 1991 3584 
z
" transform="scale(0.015625)"/>
       <path id="DejaVuSans-6e" d="M 3513 2113 
L 3513 0 
L 2938 0 
L 2938 2094 
Q 2938 2591 2744 2837 
Q 2550 3084 2163 3084 
Q 1697 3084 1428 2787 
Q 1159 2491 1159 1978 
L 1159 0 
L 581 0 
L 581 3500 
L 1159 3500 
L 1159 2956 
Q 1366 3272 1645 3428 
Q 1925 3584 2291 3584 
Q 2894 3584 3203 3211 
Q 3513 2838 3513 2113 
z
" transform="scale(0.015625)"/>
       <path id="DejaVuSans-74" d="M 1172 4494 
L 1172 3500 
L 2356 3500 
L 2356 3053 
L 1172 3053 
L 1172 1153 
Q 1172 725 1289 603 
Q 1406 481 1766 481 
L 2356 481 
L 2356 0 
L 1766 0 
Q 1100 0 847 248 
Q 594 497 594 1153 
L 594 3053 
L 172 3053 
L 172 3500 
L 594 3500 
L 594 4494 
L 1172 4494 
z
" transform="scale(0.015625)"/>
      </defs>
      <use xlink:href="#DejaVuSans-43"/>
      <use xlink:href="#DejaVuSans-6f" x="69.824219"/>
      <use xlink:href="#DejaVuSans-75" x="131.005859"/>
      <use xlink:href="#DejaVuSans-6e" x="194.384766"/>
      <use xlink:href="#DejaVuSans-74" x="257.763672"/>
     </g>
    </g>
   </g>
   <g id="line2d_8">
    <path d="M 58.418125 353.2239 
L 67.686575 353.2239 
L 76.955025 353.2239 
L 86.223475 353.2239 
L 95.491925 353.2239 
L 104.760375 353.2239 
L 114.028825 353.2239 
L 123.297275 353.2239 
L 132.565725 353.2239 
L 141.834175 353.2239 
L 151.102625 353.2239 
L 160.371075 353.2239 
L 169.639525 353.2239 
L 178.907975 353.2239 
L 188.176425 353.2239 
L 197.444875 353.2239 
L 206.713325 353.2239 
L 215.981775 353.2239 
L 225.250225 353.2239 
L 234.518675 353.2239 
L 243.787125 353.2239 
L 253.055575 353.2239 
L 262.324025 353.2239 
L 271.592475 353.2239 
L 280.860925 353.2239 
L 290.129375 353.2239 
L 299.397825 353.2239 
L 308.666275 353.2239 
L 317.934725 353.2239 
L 327.203175 353.2239 
L 336.471625 353.2239 
L 345.740075 353.2239 
L 355.008525 353.2239 
L 364.276975 353.2239 
L 373.545425 353.2239 
L 382.813875 353.2239 
L 392.082325 353.2239 
L 401.350775 353.2239 
L 410.619225 353.2223 
L 419.887675 353.221499 
L 429.156125 353.220699 
L 438.424575 353.221099 
L 447.693025 353.218298 
L 456.961475 353.204694 
L 466.229925 353.159081 
L 475.498375 353.170284 
L 484.766825 353.209096 
L 494.035275 353.211096 
L 503.303725 353.213497 
L 512.572175 353.212297 
L 521.840625 353.216698 
L 531.109075 353.181487 
L 540.377525 353.168684 
L 549.645975 353.205495 
L 558.914425 353.162682 
L 568.182875 352.528493 
L 577.451325 353.144676 
L 586.719775 353.213497 
L 595.988225 353.219099 
L 605.256675 353.2223 
L 614.525125 353.2239 
L 623.793575 353.2231 
L 633.062025 353.2231 
L 642.330475 353.2239 
L 651.598925 353.2239 
L 660.867375 353.2239 
L 670.135825 353.2239 
L 679.404275 353.2239 
L 688.672725 353.2239 
L 697.941175 353.2239 
L 707.209625 353.2239 
L 716.478075 353.2239 
L 725.746525 353.2239 
L 735.014975 353.2239 
L 744.283425 353.2239 
L 753.551875 353.2239 
L 762.820325 353.2239 
L 772.088775 353.2239 
L 781.357225 353.2239 
L 790.625675 353.2239 
L 799.894125 353.2239 
L 809.162575 353.2239 
L 818.431025 353.2239 
L 827.699475 353.2239 
L 836.967925 353.2239 
L 846.236375 353.2239 
L 855.504825 353.2239 
L 864.773275 353.2239 
L 874.041725 353.2239 
L 883.310175 353.2239 
L 892.578625 353.2239 
L 901.847075 353.2239 
L 911.115525 353.2239 
L 920.383975 353.2239 
L 929.652425 353.2239 
L 938.920875 353.2239 
L 948.189325 353.2239 
L 957.457775 353.2239 
L 966.726225 353.2239 
L 975.994675 353.2239 
L 985.263125 353.2239 
" clip-path="url(#p9a4ac7b8a2)" style="fill: none; stroke: #d9534f; stroke-linecap: square"/>
   </g>
   <g id="line2d_9">
    <path d="M 58.418125 353.2239 
L 67.686575 353.2239 
L 76.955025 353.2239 
L 86.223475 353.2239 
L 95.491925 353.2239 
L 104.760375 353.2239 
L 114.028825 353.2239 
L 123.297275 353.2239 
L 132.565725 353.2239 
L 141.834175 353.2239 
L 151.102625 353.2239 
L 160.371075 353.2239 
L 169.639525 353.2239 
L 178.907975 353.2239 
L 188.176425 353.2239 
L 197.444875 353.2239 
L 206.713325 353.2239 
L 215.981775 353.2239 
L 225.250225 353.2239 
L 234.518675 353.2239 
L 243.787125 353.2239 
L 253.055575 353.2239 
L 262.324025 353.2239 
L 271.592475 353.2239 
L 280.860925 353.2239 
L 290.129375 353.2239 
L 299.397825 353.2239 
L 308.666275 353.2239 
L 317.934725 353.2239 
L 327.203175 353.2239 
L 336.471625 353.2239 
L 345.740075 353.2239 
L 355.008525 353.2239 
L 364.276975 353.2239 
L 373.545425 353.2239 
L 382.813875 353.2239 
L 392.082325 353.2239 
L 401.350775 353.2227 
L 410.619225 353.2227 
L 419.887675 353.2231 
L 429.156125 353.2231 
L 438.424575 353.221099 
L 447.693025 353.221499 
L 456.961475 353.219099 
L 466.229925 353.179487 
L 475.498375 353.178286 
L 484.766825 353.217498 
L 494.035275 353.218698 
L 503.303725 353.215898 
L 512.572175 353.219899 
L 521.840625 353.218698 
L 531.109075 353.217498 
L 540.377525 353.218298 
L 549.645975 353.220699 
L 558.914425 353.219899 
L 568.182875 353.217098 
L 577.451325 353.220299 
L 586.719775 353.2239 
L 595.988225 353.2239 
L 605.256675 353.2239 
L 614.525125 353.2239 
L 623.793575 353.2239 
L 633.062025 353.2239 
L 642.330475 353.2239 
L 651.598925 353.2239 
L 660.867375 353.2239 
L 670.135825 353.2239 
L 679.404275 353.2239 
L 688.672725 353.2239 
L 697.941175 353.2239 
L 707.209625 353.2239 
L 716.478075 353.2239 
L 725.746525 353.2239 
L 735.014975 353.2239 
L 744.283425 353.2239 
L 753.551875 353.2239 
L 762.820325 353.2239 
L 772.088775 353.2239 
L 781.357225 353.2239 
L 790.625675 353.2239 
L 799.894125 353.2239 
L 809.162575 353.2239 
L 818.431025 353.2239 
L 827.699475 353.2239 
L 836.967925 353.2239 
L 846.236375 353.2239 
L 855.504825 353.2239 
L 864.773275 353.2239 
L 874.041725 353.2239 
L 883.310175 353.2239 
L 892.578625 353.2239 
L 901.847075 353.2239 
L 911.115525 353.2239 
L 920.383975 353.2239 
L 929.652425 353.2239 
L 938.920875 353.2239 
L 948.189325 353.2239 
L 957.457775 353.2239 
L 966.726225 353.2239 
L 975.994675 353.2239 
L 985.263125 353.2239 
" clip-path="url(#p9a4ac7b8a2)" style="fill: none; stroke: #d9534f; stroke-linecap: square"/>
   </g>
   <g id="line2d_10">
    <path d="M 58.418125 353.2239 
L 67.686575 353.2239 
L 76.955025 353.2239 
L 86.223475 353.2239 
L 95.491925 353.2239 
L 104.760375 353.2239 
L 114.028825 353.2239 
L 123.297275 353.2239 
L 132.565725 353.2239 
L 141.834175 353.2239 
L 151.102625 353.2239 
L 160.371075 353.2239 
L 169.639525 353.2239 
L 178.907975 353.2239 
L 188.176425 353.2239 
L 197.444875 353.2239 
L 206.713325 353.2239 
L 215.981775 353.2239 
L 225.250225 353.2239 
L 234.518675 353.2239 
L 243.787125 353.2239 
L 253.055575 353.2239 
L 262.324025 353.2239 
L 271.592475 353.2239 
L 280.860925 353.2239 
L 290.129375 353.2239 
L 299.397825 353.2239 
L 308.666275 353.2239 
L 317.934725 353.2239 
L 327.203175 353.2239 
L 336.471625 353.2239 
L 345.740075 353.2239 
L 355.008525 353.2239 
L 364.276975 353.2227 
L 373.545425 353.2227 
L 382.813875 353.2239 
L 392.082325 353.2239 
L 401.350775 353.2239 
L 410.619225 353.2239 
L 419.887675 353.220699 
L 429.156125 353.219499 
L 438.424575 353.219499 
L 447.693025 353.217498 
L 456.961475 353.220699 
L 466.229925 353.210696 
L 475.498375 353.210296 
L 484.766825 353.213897 
L 494.035275 353.210696 
L 503.303725 353.209896 
L 512.572175 353.199893 
L 521.840625 353.19189 
L 531.109075 353.163482 
L 540.377525 353.199893 
L 549.645975 353.154679 
L 558.914425 353.076256 
L 568.182875 350.658335 
L 577.451325 352.973425 
L 586.719775 353.181087 
L 595.988225 353.211496 
L 605.256675 353.220299 
L 614.525125 353.2231 
L 623.793575 353.2231 
L 633.062025 353.2223 
L 642.330475 353.2223 
L 651.598925 353.2239 
L 660.867375 353.2239 
L 670.135825 353.2239 
L 679.404275 353.2239 
L 688.672725 353.2239 
L 697.941175 353.2239 
L 707.209625 353.2239 
L 716.478075 353.2239 
L 725.746525 353.2239 
L 735.014975 353.2239 
L 744.283425 353.2239 
L 753.551875 353.2239 
L 762.820325 353.2239 
L 772.088775 353.2239 
L 781.357225 353.2239 
L 790.625675 353.2239 
L 799.894125 353.2239 
L 809.162575 353.2239 
L 818.431025 353.2239 
L 827.699475 353.2239 
L 836.967925 353.2239 
L 846.236375 353.2239 
L 855.504825 353.2239 
L 864.773275 353.2239 
L 874.041725 353.2239 
L 883.310175 353.2239 
L 892.578625 353.2239 
L 901.847075 353.2239 
L 911.115525 353.2239 
L 920.383975 353.2239 
L 929.652425 353.2239 
L 938.920875 353.2239 
L 948.189325 353.2239 
L 957.457775 353.2239 
L 966.726225 353.2239 
L 975.994675 353.2239 
L 985.263125 353.2239 
" clip-path="url(#p9a4ac7b8a2)" style="fill: none; stroke: #d9534f; stroke-linecap: square"/>
   </g>
   <g id="line2d_11">
    <path d="M 58.418125 353.2239 
L 67.686575 353.2239 
L 76.955025 353.2239 
L 86.223475 353.2239 
L 95.491925 353.2239 
L 104.760375 353.2239 
L 114.028825 353.2239 
L 123.297275 353.2239 
L 132.565725 353.2239 
L 141.834175 353.2239 
L 151.102625 353.2239 
L 160.371075 353.2239 
L 169.639525 353.2239 
L 178.907975 353.2239 
L 188.176425 353.2239 
L 197.444875 353.2239 
L 206.713325 353.2239 
L 215.981775 353.2239 
L 225.250225 353.2239 
L 234.518675 353.2239 
L 243.787125 353.2239 
L 253.055575 353.2239 
L 262.324025 353.2239 
L 271.592475 353.2239 
L 280.860925 353.2239 
L 290.129375 353.2239 
L 299.397825 353.2239 
L 308.666275 353.2239 
L 317.934725 353.2239 
L 327.203175 353.2239 
L 336.471625 353.2239 
L 345.740075 353.2239 
L 355.008525 353.2239 
L 364.276975 353.2239 
L 373.545425 353.2239 
L 382.813875 353.2239 
L 392.082325 353.2239 
L 401.350775 353.2231 
L 410.619225 353.2227 
L 419.887675 353.221499 
L 429.156125 353.219899 
L 438.424575 353.219499 
L 447.693025 353.216298 
L 456.961475 353.213897 
L 466.229925 353.19189 
L 475.498375 353.18869 
L 484.766825 353.209496 
L 494.035275 353.206295 
L 503.303725 353.201893 
L 512.572175 353.197092 
L 521.840625 353.197892 
L 531.109075 353.207495 
L 540.377525 353.211096 
L 549.645975 353.212697 
L 558.914425 353.212697 
L 568.182875 353.212297 
L 577.451325 353.217898 
L 586.719775 353.219899 
L 595.988225 353.221499 
L 605.256675 353.2239 
L 614.525125 353.2239 
L 623.793575 353.2239 
L 633.062025 353.2239 
L 642.330475 353.2239 
L 651.598925 353.2239 
L 660.867375 353.2239 
L 670.135825 353.2239 
L 679.404275 353.2239 
L 688.672725 353.2239 
L 697.941175 353.2239 
L 707.209625 353.2239 
L 716.478075 353.2239 
L 725.746525 353.2239 
L 735.014975 353.2239 
L 744.283425 353.2239 
L 753.551875 353.2239 
L 762.820325 353.2239 
L 772.088775 353.2239 
L 781.357225 353.2239 
L 790.625675 353.2239 
L 799.894125 353.2239 
L 809.162575 353.2239 
L 818.431025 353.2239 
L 827.699475 353.2239 
L 836.967925 353.2239 
L 846.236375 353.2239 
L 855.504825 353.2239 
L 864.773275 353.2239 
L 874.041725 353.2239 
L 883.310175 353.2239 
L 892.578625 353.2239 
L 901.847075 353.2239 
L 911.115525 353.2239 
L 920.383975 353.2239 
L 929.652425 353.2239 
L 938.920875 353.2239 
L 948.189325 353.2239 
L 957.457775 353.2239 
L 966.726225 353.2239 
L 975.994675 353.2239 
L 985.263125 353.2239 
" clip-path="url(#p9a4ac7b8a2)" style="fill: none; stroke: #d9534f; stroke-linecap: square"/>
   </g>
   <g id="line2d_12">
    <path d="M 58.418125 353.2239 
L 67.686575 353.2239 
L 76.955025 353.2239 
L 86.223475 353.2239 
L 95.491925 353.2239 
L 104.760375 353.2239 
L 114.028825 353.2239 
L 123.297275 353.2239 
L 132.565725 353.2239 
L 141.834175 353.2239 
L 151.102625 353.2239 
L 160.371075 353.2239 
L 169.639525 353.2239 
L 178.907975 353.2239 
L 188.176425 353.2239 
L 197.444875 353.2239 
L 206.713325 353.2239 
L 215.981775 353.2239 
L 225.250225 353.2239 
L 234.518675 353.2239 
L 243.787125 353.2239 
L 253.055575 353.2239 
L 262.324025 353.2239 
L 271.592475 353.2239 
L 280.860925 353.2239 
L 290.129375 353.2239 
L 299.397825 353.2239 
L 308.666275 353.2239 
L 317.934725 353.2239 
L 327.203175 353.2239 
L 336.471625 353.2239 
L 345.740075 353.2239 
L 355.008525 353.2239 
L 364.276975 353.2239 
L 373.545425 353.2239 
L 382.813875 353.2231 
L 392.082325 353.2231 
L 401.350775 353.221499 
L 410.619225 353.219099 
L 419.887675 353.214297 
L 429.156125 353.207895 
L 438.424575 353.214697 
L 447.693025 353.213097 
L 456.961475 353.212697 
L 466.229925 353.208295 
L 475.498375 353.208295 
L 484.766825 353.203094 
L 494.035275 353.19069 
L 503.303725 353.18989 
L 512.572175 353.18989 
L 521.840625 353.195892 
L 531.109075 353.211496 
L 540.377525 353.212697 
L 549.645975 353.210296 
L 558.914425 353.204294 
L 568.182875 353.213097 
L 577.451325 353.219899 
L 586.719775 353.219499 
L 595.988225 353.2227 
L 605.256675 353.2231 
L 614.525125 353.2231 
L 623.793575 353.2239 
L 633.062025 353.2239 
L 642.330475 353.2239 
L 651.598925 353.2239 
L 660.867375 353.2239 
L 670.135825 353.2239 
L 679.404275 353.2239 
L 688.672725 353.2239 
L 697.941175 353.2239 
L 707.209625 353.2239 
L 716.478075 353.2239 
L 725.746525 353.2239 
L 735.014975 353.2239 
L 744.283425 353.2239 
L 753.551875 353.2239 
L 762.820325 353.2239 
L 772.088775 353.2239 
L 781.357225 353.2239 
L 790.625675 353.2239 
L 799.894125 353.2239 
L 809.162575 353.2239 
L 818.431025 353.2239 
L 827.699475 353.2239 
L 836.967925 353.2239 
L 846.236375 353.2239 
L 855.504825 353.2239 
L 864.773275 353.2239 
L 874.041725 353.2239 
L 883.310175 353.2239 
L 892.578625 353.2239 
L 901.847075 353.2239 
L 911.115525 353.2239 
L 920.383975 353.2239 
L 929.652425 353.2239 
L 938.920875 353.2239 
L 948.189325 353.2239 
L 957.457775 353.2239 
L 966.726225 353.2239 
L 975.994675 353.2239 
L 985.263125 353.2239 
" clip-path="url(#p9a4ac7b8a2)" style="fill: none; stroke: #d9534f; stroke-linecap: square"/>
   </g>
   <g id="line2d_13">
    <path d="M 58.418125 353.2239 
L 67.686575 353.2239 
L 76.955025 353.2239 
L 86.223475 353.2239 
L 95.491925 353.2239 
L 104.760375 353.2239 
L 114.028825 353.2239 
L 123.297275 353.2239 
L 132.565725 353.2239 
L 141.834175 353.2239 
L 151.102625 353.2239 
L 160.371075 353.2239 
L 169.639525 353.2239 
L 178.907975 353.2239 
L 188.176425 353.2239 
L 197.444875 353.2239 
L 206.713325 353.2239 
L 215.981775 353.2239 
L 225.250225 353.2239 
L 234.518675 353.2239 
L 243.787125 353.2239 
L 253.055575 353.2231 
L 262.324025 353.2239 
L 271.592475 353.2239 
L 280.860925 353.2239 
L 290.129375 353.2239 
L 299.397825 353.2239 
L 308.666275 353.2239 
L 317.934725 353.2239 
L 327.203175 353.2239 
L 336.471625 353.2239 
L 345.740075 353.2239 
L 355.008525 353.2239 
L 364.276975 353.2239 
L 373.545425 353.2239 
L 382.813875 353.2239 
L 392.082325 353.2239 
L 401.350775 353.2239 
L 410.619225 353.2239 
L 419.887675 353.2239 
L 429.156125 353.2239 
L 438.424575 353.2239 
L 447.693025 353.2239 
L 456.961475 353.2231 
L 466.229925 353.220699 
L 475.498375 353.220299 
L 484.766825 353.202294 
L 494.035275 353.200693 
L 503.303725 353.217498 
L 512.572175 353.219899 
L 521.840625 353.220299 
L 531.109075 353.217098 
L 540.377525 353.215898 
L 549.645975 353.219899 
L 558.914425 353.220299 
L 568.182875 353.219499 
L 577.451325 353.221899 
L 586.719775 353.2239 
L 595.988225 353.2227 
L 605.256675 353.2227 
L 614.525125 353.2239 
L 623.793575 353.2231 
L 633.062025 353.2231 
L 642.330475 353.2239 
L 651.598925 353.2239 
L 660.867375 353.2227 
L 670.135825 353.2227 
L 679.404275 353.2239 
L 688.672725 353.2239 
L 697.941175 353.2239 
L 707.209625 353.2239 
L 716.478075 353.2239 
L 725.746525 353.2239 
L 735.014975 353.2239 
L 744.283425 353.2239 
L 753.551875 353.2239 
L 762.820325 353.2239 
L 772.088775 353.2239 
L 781.357225 353.2239 
L 790.625675 353.2239 
L 799.894125 353.2239 
L 809.162575 353.2239 
L 818.431025 353.2239 
L 827.699475 353.2239 
L 836.967925 353.2239 
L 846.236375 353.2239 
L 855.504825 353.2239 
L 864.773275 353.2239 
L 874.041725 353.2239 
L 883.310175 353.2239 
L 892.578625 353.2239 
L 901.847075 353.2239 
L 911.115525 353.2239 
L 920.383975 353.2239 
L 929.652425 353.2239 
L 938.920875 353.2239 
L 948.189325 353.2239 
L 957.457775 353.2239 
L 966.726225 353.2239 
L 975.994675 353.2239 
L 985.263125 353.2239 
" clip-path="url(#p9a4ac7b8a2)" style="fill: none; stroke: #d9534f; stroke-linecap: square"/>
   </g>
   <g id="line2d_14">
    <path d="M 58.418125 353.2239 
L 67.686575 353.2239 
L 76.955025 353.2239 
L 86.223475 353.2239 
L 95.491925 353.2239 
L 104.760375 353.2239 
L 114.028825 353.2239 
L 123.297275 353.2239 
L 132.565725 353.2239 
L 141.834175 353.2239 
L 151.102625 353.2239 
L 160.371075 353.2239 
L 169.639525 353.2239 
L 178.907975 353.2239 
L 188.176425 353.2239 
L 197.444875 353.2239 
L 206.713325 353.2239 
L 215.981775 353.2239 
L 225.250225 353.2239 
L 234.518675 353.2239 
L 243.787125 353.2239 
L 253.055575 353.2239 
L 262.324025 353.2239 
L 271.592475 353.2239 
L 280.860925 353.2239 
L 290.129375 353.2239 
L 299.397825 353.2239 
L 308.666275 353.2239 
L 317.934725 353.2239 
L 327.203175 353.2239 
L 336.471625 353.2239 
L 345.740075 353.2239 
L 355.008525 353.2239 
L 364.276975 353.2239 
L 373.545425 353.2239 
L 382.813875 353.2239 
L 392.082325 353.2239 
L 401.350775 353.2239 
L 410.619225 353.2239 
L 419.887675 353.2239 
L 429.156125 353.221499 
L 438.424575 353.220699 
L 447.693025 353.2239 
L 456.961475 353.221499 
L 466.229925 353.211096 
L 475.498375 353.213497 
L 484.766825 353.2227 
L 494.035275 353.221899 
L 503.303725 353.2239 
L 512.572175 353.2239 
L 521.840625 353.221499 
L 531.109075 353.219499 
L 540.377525 353.2227 
L 549.645975 353.2239 
L 558.914425 353.2239 
L 568.182875 353.220699 
L 577.451325 353.221499 
L 586.719775 353.2239 
L 595.988225 353.2223 
L 605.256675 353.2231 
L 614.525125 353.2239 
L 623.793575 353.2239 
L 633.062025 353.2239 
L 642.330475 353.2239 
L 651.598925 353.2239 
L 660.867375 353.2239 
L 670.135825 353.2239 
L 679.404275 353.2239 
L 688.672725 353.2239 
L 697.941175 353.2239 
L 707.209625 353.2239 
L 716.478075 353.2239 
L 725.746525 353.2239 
L 735.014975 353.2239 
L 744.283425 353.2239 
L 753.551875 353.2239 
L 762.820325 353.2239 
L 772.088775 353.2239 
L 781.357225 353.2239 
L 790.625675 353.2239 
L 799.894125 353.2239 
L 809.162575 353.2239 
L 818.431025 353.2239 
L 827.699475 353.2239 
L 836.967925 353.2239 
L 846.236375 353.2239 
L 855.504825 353.2239 
L 864.773275 353.2239 
L 874.041725 353.2239 
L 883.310175 353.2239 
L 892.578625 353.2239 
L 901.847075 353.2239 
L 911.115525 353.2239 
L 920.383975 353.2239 
L 929.652425 353.2239 
L 938.920875 353.2239 
L 948.189325 353.2239 
L 957.457775 353.2239 
L 966.726225 353.2239 
L 975.994675 353.2239 
L 985.263125 353.2239 
" clip-path="url(#p9a4ac7b8a2)" style="fill: none; stroke: #d9534f; stroke-linecap: square"/>
   </g>
   <g id="line2d_15">
    <path d="M 58.418125 353.2239 
L 67.686575 353.2239 
L 76.955025 353.2239 
L 86.223475 353.2239 
L 95.491925 353.2239 
L 104.760375 353.2239 
L 114.028825 353.2239 
L 123.297275 353.2239 
L 132.565725 353.2239 
L 141.834175 353.2239 
L 151.102625 353.2239 
L 160.371075 353.2239 
L 169.639525 353.2239 
L 178.907975 353.2239 
L 188.176425 353.2239 
L 197.444875 353.2239 
L 206.713325 353.2239 
L 215.981775 353.2239 
L 225.250225 353.2239 
L 234.518675 353.2239 
L 243.787125 353.2239 
L 253.055575 353.2239 
L 262.324025 353.2239 
L 271.592475 353.2239 
L 280.860925 353.2239 
L 290.129375 353.2239 
L 299.397825 353.2239 
L 308.666275 353.2239 
L 317.934725 353.2239 
L 327.203175 353.2239 
L 336.471625 353.2239 
L 345.740075 353.2239 
L 355.008525 353.221899 
L 364.276975 353.221899 
L 373.545425 353.220299 
L 382.813875 353.217898 
L 392.082325 353.213897 
L 401.350775 353.199493 
L 410.619225 353.183088 
L 419.887675 353.141876 
L 429.156125 353.042246 
L 438.424575 352.807776 
L 447.693025 352.112369 
L 456.961475 347.393762 
L 466.229925 55.782439 
L 475.498375 50.397233 
L 484.766825 327.447817 
L 494.035275 335.803907 
L 503.303725 350.07136 
L 512.572175 339.97315 
L 521.840625 340.351263 
L 531.109075 352.120371 
L 540.377525 352.679738 
L 549.645975 352.644527 
L 558.914425 347.338946 
L 568.182875 347.213708 
L 577.451325 352.642127 
L 586.719775 353.069854 
L 595.988225 353.169884 
L 605.256675 353.204294 
L 614.525125 353.213497 
L 623.793575 353.221099 
L 633.062025 353.221099 
L 642.330475 353.2227 
L 651.598925 353.2239 
L 660.867375 353.2231 
L 670.135825 353.2223 
L 679.404275 353.2231 
L 688.672725 353.2231 
L 697.941175 353.2223 
L 707.209625 353.2239 
L 716.478075 353.2239 
L 725.746525 353.2239 
L 735.014975 353.2231 
L 744.283425 353.2239 
L 753.551875 353.2231 
L 762.820325 353.2239 
L 772.088775 353.2239 
L 781.357225 353.2231 
L 790.625675 353.2231 
L 799.894125 353.2231 
L 809.162575 353.2239 
L 818.431025 353.2239 
L 827.699475 353.2231 
L 836.967925 353.2239 
L 846.236375 353.2239 
L 855.504825 353.2239 
L 864.773275 353.2239 
L 874.041725 353.2239 
L 883.310175 353.2239 
L 892.578625 353.2239 
L 901.847075 353.2239 
L 911.115525 353.2239 
L 920.383975 353.2239 
L 929.652425 353.2239 
L 938.920875 353.2239 
L 948.189325 353.2239 
L 957.457775 353.2223 
L 966.726225 353.2223 
L 975.994675 353.2239 
L 985.263125 353.2239 
" clip-path="url(#p9a4ac7b8a2)" style="fill: none; stroke: #d9534f; stroke-linecap: square"/>
   </g>
   <g id="line2d_16">
    <path d="M 58.418125 353.2239 
L 67.686575 353.2239 
L 76.955025 353.2239 
L 86.223475 353.2239 
L 95.491925 353.2239 
L 104.760375 353.2239 
L 114.028825 353.2239 
L 123.297275 353.2239 
L 132.565725 353.2239 
L 141.834175 353.2239 
L 151.102625 353.2239 
L 160.371075 353.2239 
L 169.639525 353.2239 
L 178.907975 353.2239 
L 188.176425 353.2239 
L 197.444875 353.2239 
L 206.713325 353.2239 
L 215.981775 353.2239 
L 225.250225 353.2239 
L 234.518675 353.2239 
L 243.787125 353.2239 
L 253.055575 353.2239 
L 262.324025 353.2239 
L 271.592475 353.2239 
L 280.860925 353.2239 
L 290.129375 353.2239 
L 299.397825 353.2239 
L 308.666275 353.2239 
L 317.934725 353.2239 
L 327.203175 353.2239 
L 336.471625 353.2239 
L 345.740075 353.2239 
L 355.008525 353.221499 
L 364.276975 353.221499 
L 373.545425 353.2223 
L 382.813875 353.221899 
L 392.082325 353.217898 
L 401.350775 353.217498 
L 410.619225 353.208295 
L 419.887675 353.186289 
L 429.156125 353.144276 
L 438.424575 353.107065 
L 447.693025 353.02304 
L 456.961475 352.897003 
L 466.229925 352.555301 
L 475.498375 352.334035 
L 484.766825 352.192793 
L 494.035275 351.198896 
L 503.303725 321.075517 
L 512.572175 175.698183 
L 521.840625 195.965824 
L 531.109075 338.436292 
L 540.377525 343.347356 
L 549.645975 338.941243 
L 558.914425 311.707125 
L 568.182875 310.287502 
L 577.451325 336.967854 
L 586.719775 342.608336 
L 595.988225 346.335847 
L 605.256675 348.779775 
L 614.525125 350.247413 
L 623.793575 351.125274 
L 633.062025 351.632626 
L 642.330475 352.000735 
L 651.598925 352.268815 
L 660.867375 352.522891 
L 670.135825 352.732954 
L 679.404275 352.887 
L 688.672725 352.970625 
L 697.941175 353.05665 
L 707.209625 353.12347 
L 716.478075 353.174285 
L 725.746525 353.197492 
L 735.014975 353.210296 
L 744.283425 353.215097 
L 753.551875 353.217498 
L 762.820325 353.221499 
L 772.088775 353.221499 
L 781.357225 353.2223 
L 790.625675 353.2231 
L 799.894125 353.2239 
L 809.162575 353.2239 
L 818.431025 353.2239 
L 827.699475 353.2231 
L 836.967925 353.2231 
L 846.236375 353.2239 
L 855.504825 353.2239 
L 864.773275 353.2239 
L 874.041725 353.2231 
L 883.310175 353.2239 
L 892.578625 353.2239 
L 901.847075 353.2239 
L 911.115525 353.2239 
L 920.383975 353.2231 
L 929.652425 353.2239 
L 938.920875 353.2239 
L 948.189325 353.2239 
L 957.457775 353.2239 
L 966.726225 353.2239 
L 975.994675 353.2239 
L 985.263125 353.2239 
" clip-path="url(#p9a4ac7b8a2)" style="fill: none; stroke: #d9534f; stroke-linecap: square"/>
   </g>
   <g id="line2d_17">
    <path d="M 58.418125 353.2239 
L 67.686575 353.2239 
L 76.955025 353.2239 
L 86.223475 353.2239 
L 95.491925 353.2239 
L 104.760375 353.2239 
L 114.028825 353.2239 
L 123.297275 353.2239 
L 132.565725 353.2239 
L 141.834175 353.2239 
L 151.102625 353.2239 
L 160.371075 353.2239 
L 169.639525 353.2239 
L 178.907975 353.2239 
L 188.176425 353.2239 
L 197.444875 353.2239 
L 206.713325 353.2239 
L 215.981775 353.2239 
L 225.250225 353.2239 
L 234.518675 353.2239 
L 243.787125 353.2239 
L 253.055575 353.2239 
L 262.324025 353.2239 
L 271.592475 353.2239 
L 280.860925 353.2239 
L 290.129375 353.2239 
L 299.397825 353.2227 
L 308.666275 353.2227 
L 317.934725 353.2239 
L 327.203175 353.2239 
L 336.471625 353.2227 
L 345.740075 353.219099 
L 355.008525 353.217098 
L 364.276975 353.211896 
L 373.545425 353.198692 
L 382.813875 353.176686 
L 392.082325 353.115068 
L 401.350775 352.940215 
L 410.619225 351.662635 
L 419.887675 274.617269 
L 429.156125 269.866653 
L 438.424575 345.799287 
L 447.693025 350.831587 
L 456.961475 341.092684 
L 466.229925 339.140902 
L 475.498375 347.55381 
L 484.766825 312.606993 
L 494.035275 227.704885 
L 503.303725 242.740167 
L 512.572175 274.337986 
L 521.840625 248.341036 
L 531.109075 296.395361 
L 540.377525 341.237527 
L 549.645975 319.577071 
L 558.914425 290.283139 
L 568.182875 316.45414 
L 577.451325 344.555316 
L 586.719775 347.000845 
L 595.988225 351.844689 
L 605.256675 350.622325 
L 614.525125 345.420374 
L 623.793575 346.441878 
L 633.062025 351.735456 
L 642.330475 352.629723 
L 651.598925 352.969424 
L 660.867375 353.115468 
L 670.135825 353.164682 
L 679.404275 353.200693 
L 688.672725 353.213097 
L 697.941175 353.215898 
L 707.209625 353.221899 
L 716.478075 353.219499 
L 725.746525 353.221499 
L 735.014975 353.2239 
L 744.283425 353.2239 
L 753.551875 353.2239 
L 762.820325 353.2239 
L 772.088775 353.2239 
L 781.357225 353.2239 
L 790.625675 353.2231 
L 799.894125 353.2223 
L 809.162575 353.2239 
L 818.431025 353.2231 
L 827.699475 353.2231 
L 836.967925 353.2231 
L 846.236375 353.2239 
L 855.504825 353.2231 
L 864.773275 353.2223 
L 874.041725 353.2239 
L 883.310175 353.2231 
L 892.578625 353.2239 
L 901.847075 353.2239 
L 911.115525 353.2239 
L 920.383975 353.2239 
L 929.652425 353.2223 
L 938.920875 353.2223 
L 948.189325 353.2239 
L 957.457775 353.2231 
L 966.726225 353.2231 
L 975.994675 353.2239 
L 985.263125 353.2239 
" clip-path="url(#p9a4ac7b8a2)" style="fill: none; stroke: #d9534f; stroke-linecap: square"/>
   </g>
   <g id="line2d_18">
    <path d="M 58.418125 353.2239 
L 67.686575 353.2239 
L 76.955025 353.2239 
L 86.223475 353.2239 
L 95.491925 353.2239 
L 104.760375 353.2239 
L 114.028825 353.2239 
L 123.297275 353.2239 
L 132.565725 353.2239 
L 141.834175 353.2239 
L 151.102625 353.2239 
L 160.371075 353.2239 
L 169.639525 353.2239 
L 178.907975 353.2239 
L 188.176425 353.2239 
L 197.444875 353.2239 
L 206.713325 353.2239 
L 215.981775 353.2239 
L 225.250225 353.2239 
L 234.518675 353.2239 
L 243.787125 353.2239 
L 253.055575 353.2239 
L 262.324025 353.2239 
L 271.592475 353.2239 
L 280.860925 353.2239 
L 290.129375 353.2239 
L 299.397825 353.2239 
L 308.666275 353.2239 
L 317.934725 353.2239 
L 327.203175 353.2239 
L 336.471625 353.2239 
L 345.740075 353.2239 
L 355.008525 353.2223 
L 364.276975 353.2231 
L 373.545425 353.221899 
L 382.813875 353.216298 
L 392.082325 353.202694 
L 401.350775 353.183888 
L 410.619225 353.075456 
L 419.887675 345.852103 
L 429.156125 345.335949 
L 438.424575 352.097964 
L 447.693025 338.770792 
L 456.961475 333.606452 
L 466.229925 320.202057 
L 475.498375 323.739111 
L 484.766825 332.381287 
L 494.035275 328.142024 
L 503.303725 322.86325 
L 512.572175 297.016346 
L 521.840625 280.494621 
L 531.109075 307.730339 
L 540.377525 344.657747 
L 549.645975 342.952438 
L 558.914425 313.913782 
L 568.182875 316.980697 
L 577.451325 348.244816 
L 586.719775 351.296525 
L 595.988225 352.322031 
L 605.256675 352.830983 
L 614.525125 352.983428 
L 623.793575 352.953019 
L 633.062025 352.931413 
L 642.330475 352.999833 
L 651.598925 353.060651 
L 660.867375 353.119869 
L 670.135825 353.164682 
L 679.404275 353.18949 
L 688.672725 353.208295 
L 697.941175 353.220699 
L 707.209625 353.219499 
L 716.478075 353.220699 
L 725.746525 353.2231 
L 735.014975 353.2239 
L 744.283425 353.2239 
L 753.551875 353.2239 
L 762.820325 353.2239 
L 772.088775 353.2239 
L 781.357225 353.2239 
L 790.625675 353.2239 
L 799.894125 353.2231 
L 809.162575 353.2239 
L 818.431025 353.2239 
L 827.699475 353.2239 
L 836.967925 353.2239 
L 846.236375 353.2239 
L 855.504825 353.2239 
L 864.773275 353.2223 
L 874.041725 353.2231 
L 883.310175 353.2239 
L 892.578625 353.2239 
L 901.847075 353.2239 
L 911.115525 353.2239 
L 920.383975 353.2239 
L 929.652425 353.2239 
L 938.920875 353.2239 
L 948.189325 353.2239 
L 957.457775 353.2239 
L 966.726225 353.2239 
L 975.994675 353.2239 
L 985.263125 353.2239 
" clip-path="url(#p9a4ac7b8a2)" style="fill: none; stroke: #d9534f; stroke-linecap: square"/>
   </g>
   <g id="line2d_19">
    <path d="M 58.418125 353.2239 
L 67.686575 353.2239 
L 76.955025 353.2239 
L 86.223475 353.2239 
L 95.491925 353.2239 
L 104.760375 353.2239 
L 114.028825 353.2239 
L 123.297275 353.2239 
L 132.565725 353.2239 
L 141.834175 353.2239 
L 151.102625 353.2239 
L 160.371075 353.2239 
L 169.639525 353.2239 
L 178.907975 353.2239 
L 188.176425 353.2239 
L 197.444875 353.2239 
L 206.713325 353.2239 
L 215.981775 353.2239 
L 225.250225 353.2239 
L 234.518675 353.2239 
L 243.787125 353.2231 
L 253.055575 353.2239 
L 262.324025 353.2239 
L 271.592475 353.2239 
L 280.860925 353.2239 
L 290.129375 353.2239 
L 299.397825 353.2239 
L 308.666275 353.2239 
L 317.934725 353.2239 
L 327.203175 353.2231 
L 336.471625 353.2227 
L 345.740075 353.221899 
L 355.008525 353.2231 
L 364.276975 353.2239 
L 373.545425 353.218298 
L 382.813875 353.206295 
L 392.082325 353.195892 
L 401.350775 353.178286 
L 410.619225 353.116668 
L 419.887675 352.737355 
L 429.156125 331.613458 
L 438.424575 329.57365 
L 447.693025 350.033349 
L 456.961475 350.743161 
L 466.229925 253.470165 
L 475.498375 251.913301 
L 484.766825 334.642361 
L 494.035275 336.708177 
L 503.303725 346.896814 
L 512.572175 319.391015 
L 521.840625 314.705618 
L 531.109075 342.212618 
L 540.377525 351.332936 
L 549.645975 351.538998 
L 558.914425 350.449873 
L 568.182875 349.46598 
L 577.451325 349.818885 
L 586.719775 350.999237 
L 595.988225 352.034746 
L 605.256675 352.744157 
L 614.525125 353.053849 
L 623.793575 353.161882 
L 633.062025 353.203894 
L 642.330475 353.212697 
L 651.598925 353.218298 
L 660.867375 353.2223 
L 670.135825 353.2239 
L 679.404275 353.2231 
L 688.672725 353.2239 
L 697.941175 353.2239 
L 707.209625 353.2239 
L 716.478075 353.2239 
L 725.746525 353.2239 
L 735.014975 353.2239 
L 744.283425 353.2239 
L 753.551875 353.2239 
L 762.820325 353.2239 
L 772.088775 353.2239 
L 781.357225 353.2239 
L 790.625675 353.2231 
L 799.894125 353.2239 
L 809.162575 353.2239 
L 818.431025 353.2239 
L 827.699475 353.2239 
L 836.967925 353.2231 
L 846.236375 353.2239 
L 855.504825 353.2239 
L 864.773275 353.2239 
L 874.041725 353.2231 
L 883.310175 353.2239 
L 892.578625 353.2239 
L 901.847075 353.2239 
L 911.115525 353.2239 
L 920.383975 353.2231 
L 929.652425 353.2231 
L 938.920875 353.2239 
L 948.189325 353.2239 
L 957.457775 353.2239 
L 966.726225 353.2239 
L 975.994675 353.2239 
L 985.263125 353.2239 
" clip-path="url(#p9a4ac7b8a2)" style="fill: none; stroke: #d9534f; stroke-linecap: square"/>
   </g>
   <g id="line2d_20">
    <path d="M 58.418125 353.2239 
L 67.686575 353.2239 
L 76.955025 353.2239 
L 86.223475 353.2239 
L 95.491925 353.2239 
L 104.760375 353.2239 
L 114.028825 353.2239 
L 123.297275 353.2239 
L 132.565725 353.2239 
L 141.834175 353.2239 
L 151.102625 353.2239 
L 160.371075 353.2239 
L 169.639525 353.2239 
L 178.907975 353.2239 
L 188.176425 353.2239 
L 197.444875 353.2239 
L 206.713325 353.2239 
L 215.981775 353.2239 
L 225.250225 353.2239 
L 234.518675 353.2239 
L 243.787125 353.2239 
L 253.055575 353.2239 
L 262.324025 353.2239 
L 271.592475 353.2239 
L 280.860925 353.2239 
L 290.129375 353.2239 
L 299.397825 353.2239 
L 308.666275 353.2231 
L 317.934725 353.2231 
L 327.203175 353.2239 
L 336.471625 353.2227 
L 345.740075 353.2227 
L 355.008525 353.2239 
L 364.276975 353.221499 
L 373.545425 353.219099 
L 382.813875 353.220299 
L 392.082325 353.2227 
L 401.350775 353.215097 
L 410.619225 353.215898 
L 419.887675 353.19029 
L 429.156125 352.894602 
L 438.424575 331.503826 
L 447.693025 329.850933 
L 456.961475 349.519996 
L 466.229925 345.862906 
L 475.498375 346.959633 
L 484.766825 352.269616 
L 494.035275 352.038347 
L 503.303725 314.429936 
L 512.572175 189.74357 
L 521.840625 217.539055 
L 531.109075 340.569728 
L 540.377525 347.746667 
L 549.645975 341.086282 
L 558.914425 317.401622 
L 568.182875 318.53556 
L 577.451325 339.617044 
L 586.719775 344.217215 
L 595.988225 348.206805 
L 605.256675 350.751163 
L 614.525125 352.155582 
L 623.793575 352.82058 
L 633.062025 353.081858 
L 642.330475 353.164682 
L 651.598925 353.197092 
L 660.867375 353.212697 
L 670.135825 353.218298 
L 679.404275 353.219899 
L 688.672725 353.219099 
L 697.941175 353.221499 
L 707.209625 353.2231 
L 716.478075 353.2239 
L 725.746525 353.2223 
L 735.014975 353.2231 
L 744.283425 353.2239 
L 753.551875 353.2231 
L 762.820325 353.2239 
L 772.088775 353.2239 
L 781.357225 353.2239 
L 790.625675 353.2239 
L 799.894125 353.2223 
L 809.162575 353.2223 
L 818.431025 353.2239 
L 827.699475 353.2239 
L 836.967925 353.2239 
L 846.236375 353.2239 
L 855.504825 353.2239 
L 864.773275 353.2239 
L 874.041725 353.2239 
L 883.310175 353.2239 
L 892.578625 353.2239 
L 901.847075 353.2239 
L 911.115525 353.2239 
L 920.383975 353.2239 
L 929.652425 353.2239 
L 938.920875 353.2239 
L 948.189325 353.2239 
L 957.457775 353.2239 
L 966.726225 353.2239 
L 975.994675 353.2239 
L 985.263125 353.2239 
" clip-path="url(#p9a4ac7b8a2)" style="fill: none; stroke: #d9534f; stroke-linecap: square"/>
   </g>
   <g id="line2d_21">
    <path d="M 58.418125 353.2239 
L 67.686575 353.2239 
L 76.955025 353.2239 
L 86.223475 353.2239 
L 95.491925 353.2239 
L 104.760375 353.2239 
L 114.028825 353.2239 
L 123.297275 353.2239 
L 132.565725 353.2239 
L 141.834175 353.2239 
L 151.102625 353.2239 
L 160.371075 353.2239 
L 169.639525 353.2239 
L 178.907975 353.2239 
L 188.176425 353.2239 
L 197.444875 353.2239 
L 206.713325 353.2239 
L 215.981775 353.2239 
L 225.250225 353.2239 
L 234.518675 353.2239 
L 243.787125 353.2239 
L 253.055575 353.2239 
L 262.324025 353.2239 
L 271.592475 353.2239 
L 280.860925 353.2239 
L 290.129375 353.2239 
L 299.397825 353.2239 
L 308.666275 353.2239 
L 317.934725 353.2227 
L 327.203175 353.2227 
L 336.471625 353.2239 
L 345.740075 353.2239 
L 355.008525 353.2231 
L 364.276975 353.2239 
L 373.545425 353.221099 
L 382.813875 353.219499 
L 392.082325 353.217498 
L 401.350775 353.207095 
L 410.619225 353.177886 
L 419.887675 353.096262 
L 429.156125 352.961022 
L 438.424575 352.179989 
L 447.693025 349.570011 
L 456.961475 295.016149 
L 466.229925 126.048183 
L 475.498375 170.046498 
L 484.766825 332.504924 
L 494.035275 338.044575 
L 503.303725 343.404573 
L 512.572175 341.690062 
L 521.840625 344.933429 
L 531.109075 352.101966 
L 540.377525 352.42006 
L 549.645975 352.443667 
L 558.914425 349.809282 
L 568.182875 349.739661 
L 577.451325 352.474477 
L 586.719775 347.775076 
L 595.988225 347.577017 
L 605.256675 352.305626 
L 614.525125 352.71935 
L 623.793575 353.126271 
L 633.062025 353.195492 
L 642.330475 353.213897 
L 651.598925 353.220699 
L 660.867375 353.2231 
L 670.135825 353.2223 
L 679.404275 353.2231 
L 688.672725 353.2223 
L 697.941175 353.2239 
L 707.209625 353.2239 
L 716.478075 353.2231 
L 725.746525 353.2231 
L 735.014975 353.2239 
L 744.283425 353.2239 
L 753.551875 353.2239 
L 762.820325 353.2239 
L 772.088775 353.2239 
L 781.357225 353.2239 
L 790.625675 353.2231 
L 799.894125 353.2231 
L 809.162575 353.2239 
L 818.431025 353.2239 
L 827.699475 353.2239 
L 836.967925 353.2239 
L 846.236375 353.2239 
L 855.504825 353.2239 
L 864.773275 353.2239 
L 874.041725 353.2239 
L 883.310175 353.2231 
L 892.578625 353.2231 
L 901.847075 353.2239 
L 911.115525 353.2239 
L 920.383975 353.2239 
L 929.652425 353.2239 
L 938.920875 353.2239 
L 948.189325 353.2239 
L 957.457775 353.2239 
L 966.726225 353.2239 
L 975.994675 353.2239 
L 985.263125 353.2239 
" clip-path="url(#p9a4ac7b8a2)" style="fill: none; stroke: #d9534f; stroke-linecap: square"/>
   </g>
   <g id="line2d_22">
    <path d="M 58.418125 353.2239 
L 67.686575 353.2239 
L 76.955025 353.2239 
L 86.223475 353.2239 
L 95.491925 353.2239 
L 104.760375 353.2239 
L 114.028825 353.2239 
L 123.297275 353.2239 
L 132.565725 353.2239 
L 141.834175 353.2239 
L 151.102625 353.2239 
L 160.371075 353.2239 
L 169.639525 353.2239 
L 178.907975 353.2239 
L 188.176425 353.2239 
L 197.444875 353.2239 
L 206.713325 353.2239 
L 215.981775 353.2239 
L 225.250225 353.2239 
L 234.518675 353.2239 
L 243.787125 353.2239 
L 253.055575 353.2239 
L 262.324025 353.2239 
L 271.592475 353.2239 
L 280.860925 353.2239 
L 290.129375 353.2239 
L 299.397825 353.2239 
L 308.666275 353.2239 
L 317.934725 353.2239 
L 327.203175 353.2239 
L 336.471625 353.2239 
L 345.740075 353.2239 
L 355.008525 353.2239 
L 364.276975 353.2239 
L 373.545425 353.2239 
L 382.813875 353.221899 
L 392.082325 353.221899 
L 401.350775 353.219499 
L 410.619225 353.209496 
L 419.887675 353.194291 
L 429.156125 353.176686 
L 438.424575 353.101864 
L 447.693025 352.925011 
L 456.961475 351.701046 
L 466.229925 278.287163 
L 475.498375 263.943287 
L 484.766825 336.370076 
L 494.035275 351.577009 
L 503.303725 352.326032 
L 512.572175 349.288327 
L 521.840625 349.206302 
L 531.109075 352.25201 
L 540.377525 351.929514 
L 549.645975 350.698747 
L 558.914425 329.095108 
L 568.182875 323.519046 
L 577.451325 322.751217 
L 586.719775 321.115529 
L 595.988225 341.892522 
L 605.256675 350.094967 
L 614.525125 352.266815 
L 623.793575 352.880198 
L 633.062025 353.086659 
L 642.330475 353.15748 
L 651.598925 353.18949 
L 660.867375 353.214297 
L 670.135825 353.219899 
L 679.404275 353.220299 
L 688.672725 353.2227 
L 697.941175 353.2231 
L 707.209625 353.2223 
L 716.478075 353.2239 
L 725.746525 353.2231 
L 735.014975 353.2239 
L 744.283425 353.2239 
L 753.551875 353.2239 
L 762.820325 353.2239 
L 772.088775 353.2239 
L 781.357225 353.2239 
L 790.625675 353.2231 
L 799.894125 353.2239 
L 809.162575 353.2239 
L 818.431025 353.2231 
L 827.699475 353.2239 
L 836.967925 353.2239 
L 846.236375 353.2239 
L 855.504825 353.2239 
L 864.773275 353.2239 
L 874.041725 353.2239 
L 883.310175 353.2239 
L 892.578625 353.2239 
L 901.847075 353.2239 
L 911.115525 353.2239 
L 920.383975 353.2239 
L 929.652425 353.2239 
L 938.920875 353.2239 
L 948.189325 353.2239 
L 957.457775 353.2239 
L 966.726225 353.2239 
L 975.994675 353.2239 
L 985.263125 353.2239 
" clip-path="url(#p9a4ac7b8a2)" style="fill: none; stroke: #d9534f; stroke-linecap: square"/>
   </g>
   <g id="line2d_23">
    <path d="M 58.418125 353.2239 
L 67.686575 353.2239 
L 76.955025 353.2239 
L 86.223475 353.2239 
L 95.491925 353.2239 
L 104.760375 353.2239 
L 114.028825 353.2239 
L 123.297275 353.2239 
L 132.565725 353.2239 
L 141.834175 353.2239 
L 151.102625 353.2239 
L 160.371075 353.2239 
L 169.639525 353.2239 
L 178.907975 353.2239 
L 188.176425 353.2239 
L 197.444875 353.2239 
L 206.713325 353.2239 
L 215.981775 353.2239 
L 225.250225 353.2239 
L 234.518675 353.2239 
L 243.787125 353.2239 
L 253.055575 353.2239 
L 262.324025 353.2239 
L 271.592475 353.2239 
L 280.860925 353.2239 
L 290.129375 353.2239 
L 299.397825 353.2239 
L 308.666275 353.2239 
L 317.934725 353.2239 
L 327.203175 353.2239 
L 336.471625 353.2239 
L 345.740075 353.2239 
L 355.008525 353.2239 
L 364.276975 353.2231 
L 373.545425 353.2223 
L 382.813875 353.2231 
L 392.082325 353.212297 
L 401.350775 353.213497 
L 410.619225 353.199493 
L 419.887675 353.171884 
L 429.156125 353.09106 
L 438.424575 352.595713 
L 447.693025 351.934716 
L 456.961475 337.316758 
L 466.229925 223.966971 
L 475.498375 229.507823 
L 484.766825 325.918161 
L 494.035275 324.464928 
L 503.303725 235.40278 
L 512.572175 230.769399 
L 521.840625 334.587545 
L 531.109075 321.460432 
L 540.377525 321.913767 
L 549.645975 349.629629 
L 558.914425 348.026351 
L 568.182875 346.685151 
L 577.451325 350.345442 
L 586.719775 352.647728 
L 595.988225 353.051048 
L 605.256675 353.162282 
L 614.525125 353.205495 
L 623.793575 353.217098 
L 633.062025 353.2223 
L 642.330475 353.220699 
L 651.598925 353.221099 
L 660.867375 353.2227 
L 670.135825 353.2239 
L 679.404275 353.2239 
L 688.672725 353.2239 
L 697.941175 353.2223 
L 707.209625 353.221499 
L 716.478075 353.2239 
L 725.746525 353.2231 
L 735.014975 353.2239 
L 744.283425 353.2239 
L 753.551875 353.2223 
L 762.820325 353.2223 
L 772.088775 353.2231 
L 781.357225 353.2223 
L 790.625675 353.2231 
L 799.894125 353.2239 
L 809.162575 353.2239 
L 818.431025 353.2239 
L 827.699475 353.2239 
L 836.967925 353.2239 
L 846.236375 353.2239 
L 855.504825 353.2239 
L 864.773275 353.2239 
L 874.041725 353.2239 
L 883.310175 353.2231 
L 892.578625 353.2231 
L 901.847075 353.2239 
L 911.115525 353.2239 
L 920.383975 353.2239 
L 929.652425 353.2231 
L 938.920875 353.2231 
L 948.189325 353.2231 
L 957.457775 353.2239 
L 966.726225 353.2239 
L 975.994675 353.2239 
L 985.263125 353.2239 
" clip-path="url(#p9a4ac7b8a2)" style="fill: none; stroke: #d9534f; stroke-linecap: square"/>
   </g>
   <g id="line2d_24">
    <path d="M 58.418125 353.2239 
L 67.686575 353.2239 
L 76.955025 353.2239 
L 86.223475 353.2239 
L 95.491925 353.2239 
L 104.760375 353.2239 
L 114.028825 353.2239 
L 123.297275 353.2239 
L 132.565725 353.2239 
L 141.834175 353.2239 
L 151.102625 353.2239 
L 160.371075 353.2239 
L 169.639525 353.2239 
L 178.907975 353.2239 
L 188.176425 353.2239 
L 197.444875 353.2239 
L 206.713325 353.2239 
L 215.981775 353.2239 
L 225.250225 353.2239 
L 234.518675 353.2239 
L 243.787125 353.2239 
L 253.055575 353.2239 
L 262.324025 353.2239 
L 271.592475 353.2239 
L 280.860925 353.2239 
L 290.129375 353.2231 
L 299.397825 353.2239 
L 308.666275 353.2239 
L 317.934725 353.2239 
L 327.203175 353.2239 
L 336.471625 353.2227 
L 345.740075 353.221899 
L 355.008525 353.2231 
L 364.276975 353.2231 
L 373.545425 353.220299 
L 382.813875 353.220699 
L 392.082325 353.215097 
L 401.350775 353.203094 
L 410.619225 353.184688 
L 419.887675 353.153479 
L 429.156125 353.009836 
L 438.424575 350.767968 
L 447.693025 339.833909 
L 456.961475 339.835109 
L 466.229925 332.254049 
L 475.498375 332.079197 
L 484.766825 325.995384 
L 494.035275 318.253076 
L 503.303725 332.896641 
L 512.572175 304.791863 
L 521.840625 307.06134 
L 531.109075 339.114094 
L 540.377525 341.977348 
L 549.645975 341.257933 
L 558.914425 317.666901 
L 568.182875 317.636892 
L 577.451325 342.769984 
L 586.719775 347.899113 
L 595.988225 350.280623 
L 605.256675 350.664737 
L 614.525125 347.214109 
L 623.793575 340.338459 
L 633.062025 337.1223 
L 642.330475 340.204819 
L 651.598925 344.304841 
L 660.867375 347.376557 
L 670.135825 349.762468 
L 679.404275 351.306128 
L 688.672725 352.280819 
L 697.941175 352.794572 
L 707.209625 353.042246 
L 716.478075 353.151078 
L 725.746525 353.195892 
L 735.014975 353.214297 
L 744.283425 353.218298 
L 753.551875 353.221499 
L 762.820325 353.220699 
L 772.088775 353.2231 
L 781.357225 353.2239 
L 790.625675 353.2239 
L 799.894125 353.2231 
L 809.162575 353.2239 
L 818.431025 353.2231 
L 827.699475 353.2239 
L 836.967925 353.2223 
L 846.236375 353.2231 
L 855.504825 353.2239 
L 864.773275 353.2231 
L 874.041725 353.2239 
L 883.310175 353.2239 
L 892.578625 353.2231 
L 901.847075 353.2239 
L 911.115525 353.2239 
L 920.383975 353.2239 
L 929.652425 353.2239 
L 938.920875 353.2239 
L 948.189325 353.2231 
L 957.457775 353.2239 
L 966.726225 353.2239 
L 975.994675 353.2239 
L 985.263125 353.2239 
" clip-path="url(#p9a4ac7b8a2)" style="fill: none; stroke: #d9534f; stroke-linecap: square"/>
   </g>
   <g id="line2d_25">
    <path d="M 58.418125 353.2239 
L 67.686575 353.2239 
L 76.955025 353.2239 
L 86.223475 353.2239 
L 95.491925 353.2239 
L 104.760375 353.2239 
L 114.028825 353.2239 
L 123.297275 353.2239 
L 132.565725 353.2239 
L 141.834175 353.2239 
L 151.102625 353.2239 
L 160.371075 353.2239 
L 169.639525 353.2239 
L 178.907975 353.2239 
L 188.176425 353.2239 
L 197.444875 353.2239 
L 206.713325 353.2239 
L 215.981775 353.2239 
L 225.250225 353.2239 
L 234.518675 353.2239 
L 243.787125 353.2239 
L 253.055575 353.2239 
L 262.324025 353.2239 
L 271.592475 353.2239 
L 280.860925 353.2239 
L 290.129375 353.2239 
L 299.397825 353.2239 
L 308.666275 353.2239 
L 317.934725 353.2239 
L 327.203175 353.2239 
L 336.471625 353.2239 
L 345.740075 353.2231 
L 355.008525 353.2239 
L 364.276975 353.2239 
L 373.545425 353.220299 
L 382.813875 353.217498 
L 392.082325 353.206695 
L 401.350775 353.166683 
L 410.619225 352.946617 
L 419.887675 342.439885 
L 429.156125 335.517822 
L 438.424575 345.354754 
L 447.693025 352.18279 
L 456.961475 352.45367 
L 466.229925 346.824392 
L 475.498375 345.328346 
L 484.766825 308.582593 
L 494.035275 303.369439 
L 503.303725 334.340271 
L 512.572175 330.804417 
L 521.840625 336.025574 
L 531.109075 334.545932 
L 540.377525 329.589255 
L 549.645975 286.678464 
L 558.914425 242.321642 
L 568.182875 292.694257 
L 577.451325 339.136101 
L 586.719775 342.18541 
L 595.988225 351.203298 
L 605.256675 352.480879 
L 614.525125 352.936214 
L 623.793575 353.083058 
L 633.062025 353.151879 
L 642.330475 353.18949 
L 651.598925 353.209496 
L 660.867375 353.214697 
L 670.135825 353.215898 
L 679.404275 353.217498 
L 688.672725 353.2231 
L 697.941175 353.2223 
L 707.209625 353.2231 
L 716.478075 353.2231 
L 725.746525 353.2223 
L 735.014975 353.220699 
L 744.283425 353.2239 
L 753.551875 353.2239 
L 762.820325 353.2239 
L 772.088775 353.2239 
L 781.357225 353.2239 
L 790.625675 353.2231 
L 799.894125 353.2239 
L 809.162575 353.2239 
L 818.431025 353.2239 
L 827.699475 353.2239 
L 836.967925 353.2231 
L 846.236375 353.2239 
L 855.504825 353.2239 
L 864.773275 353.2239 
L 874.041725 353.2239 
L 883.310175 353.2239 
L 892.578625 353.2239 
L 901.847075 353.2239 
L 911.115525 353.2231 
L 920.383975 353.2239 
L 929.652425 353.2239 
L 938.920875 353.2239 
L 948.189325 353.2239 
L 957.457775 353.2239 
L 966.726225 353.2239 
L 975.994675 353.2239 
L 985.263125 353.2239 
" clip-path="url(#p9a4ac7b8a2)" style="fill: none; stroke: #d9534f; stroke-linecap: square"/>
   </g>
   <g id="line2d_26">
    <path d="M 58.418125 353.2239 
L 67.686575 353.2239 
L 76.955025 353.2239 
L 86.223475 353.2239 
L 95.491925 353.2239 
L 104.760375 353.2239 
L 114.028825 353.2239 
L 123.297275 353.2239 
L 132.565725 353.2239 
L 141.834175 353.2239 
L 151.102625 353.2239 
L 160.371075 353.2239 
L 169.639525 353.2239 
L 178.907975 353.2239 
L 188.176425 353.2239 
L 197.444875 353.2239 
L 206.713325 353.2239 
L 215.981775 353.2239 
L 225.250225 353.2239 
L 234.518675 353.2239 
L 243.787125 353.2239 
L 253.055575 353.2239 
L 262.324025 353.2239 
L 271.592475 353.2239 
L 280.860925 353.2239 
L 290.129375 353.2239 
L 299.397825 353.2239 
L 308.666275 353.2239 
L 317.934725 353.2239 
L 327.203175 353.2239 
L 336.471625 353.2239 
L 345.740075 353.2239 
L 355.008525 353.2239 
L 364.276975 353.2227 
L 373.545425 353.221099 
L 382.813875 353.219099 
L 392.082325 353.221099 
L 401.350775 353.205495 
L 410.619225 353.174685 
L 419.887675 353.079857 
L 429.156125 347.981937 
L 438.424575 347.294533 
L 447.693025 351.869096 
L 456.961475 343.095281 
L 466.229925 228.080197 
L 475.498375 232.713978 
L 484.766825 347.360552 
L 494.035275 351.903907 
L 503.303725 352.411658 
L 512.572175 344.600129 
L 521.840625 344.432079 
L 531.109075 352.260413 
L 540.377525 346.483891 
L 549.645975 345.829696 
L 558.914425 339.406181 
L 568.182875 339.376572 
L 577.451325 351.91551 
L 586.719775 352.926611 
L 595.988225 353.108266 
L 605.256675 353.171484 
L 614.525125 353.193891 
L 623.793575 353.204694 
L 633.062025 353.212697 
L 642.330475 353.217898 
L 651.598925 353.221099 
L 660.867375 353.221899 
L 670.135825 353.2239 
L 679.404275 353.2239 
L 688.672725 353.2231 
L 697.941175 353.2239 
L 707.209625 353.2239 
L 716.478075 353.2239 
L 725.746525 353.2239 
L 735.014975 353.2239 
L 744.283425 353.2239 
L 753.551875 353.2239 
L 762.820325 353.2239 
L 772.088775 353.2239 
L 781.357225 353.2239 
L 790.625675 353.2239 
L 799.894125 353.2239 
L 809.162575 353.2239 
L 818.431025 353.2239 
L 827.699475 353.2239 
L 836.967925 353.2239 
L 846.236375 353.2239 
L 855.504825 353.2231 
L 864.773275 353.2239 
L 874.041725 353.2239 
L 883.310175 353.2239 
L 892.578625 353.2239 
L 901.847075 353.2239 
L 911.115525 353.2239 
L 920.383975 353.2239 
L 929.652425 353.2239 
L 938.920875 353.2239 
L 948.189325 353.2239 
L 957.457775 353.2239 
L 966.726225 353.2239 
L 975.994675 353.2239 
L 985.263125 353.2239 
" clip-path="url(#p9a4ac7b8a2)" style="fill: none; stroke: #d9534f; stroke-linecap: square"/>
   </g>
   <g id="line2d_27">
    <path d="M 58.418125 353.2239 
L 67.686575 353.2239 
L 76.955025 353.2239 
L 86.223475 353.2239 
L 95.491925 353.2239 
L 104.760375 353.2239 
L 114.028825 353.2239 
L 123.297275 353.2239 
L 132.565725 353.2239 
L 141.834175 353.2239 
L 151.102625 353.2239 
L 160.371075 353.2239 
L 169.639525 353.2239 
L 178.907975 353.2239 
L 188.176425 353.2239 
L 197.444875 353.2239 
L 206.713325 353.2239 
L 215.981775 353.2239 
L 225.250225 353.2239 
L 234.518675 353.2239 
L 243.787125 353.2239 
L 253.055575 353.2239 
L 262.324025 353.2239 
L 271.592475 353.2239 
L 280.860925 353.2239 
L 290.129375 353.2239 
L 299.397825 353.2239 
L 308.666275 353.2239 
L 317.934725 353.2239 
L 327.203175 353.2239 
L 336.471625 353.2239 
L 345.740075 353.2231 
L 355.008525 353.221499 
L 364.276975 353.220699 
L 373.545425 353.2239 
L 382.813875 353.219899 
L 392.082325 353.209896 
L 401.350775 353.210296 
L 410.619225 353.202294 
L 419.887675 353.154279 
L 429.156125 351.928314 
L 438.424575 351.672237 
L 447.693025 349.730459 
L 456.961475 345.433978 
L 466.229925 194.177291 
L 475.498375 188.863707 
L 484.766825 333.123508 
L 494.035275 334.366279 
L 503.303725 337.626051 
L 512.572175 344.087177 
L 521.840625 350.584713 
L 531.109075 349.893307 
L 540.377525 349.982934 
L 549.645975 348.36045 
L 558.914425 348.368453 
L 568.182875 352.735354 
L 577.451325 352.909806 
L 586.719775 353.032243 
L 595.988225 353.101864 
L 605.256675 353.165082 
L 614.525125 353.198292 
L 623.793575 353.214697 
L 633.062025 353.217098 
L 642.330475 353.221099 
L 651.598925 353.220699 
L 660.867375 353.221099 
L 670.135825 353.2239 
L 679.404275 353.2231 
L 688.672725 353.2239 
L 697.941175 353.2223 
L 707.209625 353.2231 
L 716.478075 353.2239 
L 725.746525 353.2239 
L 735.014975 353.2239 
L 744.283425 353.2239 
L 753.551875 353.2239 
L 762.820325 353.2231 
L 772.088775 353.2231 
L 781.357225 353.2239 
L 790.625675 353.2239 
L 799.894125 353.2239 
L 809.162575 353.2239 
L 818.431025 353.2239 
L 827.699475 353.2239 
L 836.967925 353.2239 
L 846.236375 353.2239 
L 855.504825 353.2239 
L 864.773275 353.2239 
L 874.041725 353.2239 
L 883.310175 353.2239 
L 892.578625 353.2239 
L 901.847075 353.2239 
L 911.115525 353.2239 
L 920.383975 353.2239 
L 929.652425 353.2239 
L 938.920875 353.2239 
L 948.189325 353.2239 
L 957.457775 353.2239 
L 966.726225 353.2239 
L 975.994675 353.2239 
L 985.263125 353.2239 
" clip-path="url(#p9a4ac7b8a2)" style="fill: none; stroke: #d9534f; stroke-linecap: square"/>
   </g>
   <g id="line2d_28">
    <path d="M 58.418125 353.2239 
L 67.686575 353.2239 
L 76.955025 353.2239 
L 86.223475 353.2239 
L 95.491925 353.2239 
L 104.760375 353.2239 
L 114.028825 353.2239 
L 123.297275 353.2239 
L 132.565725 353.2239 
L 141.834175 353.2239 
L 151.102625 353.2239 
L 160.371075 353.2239 
L 169.639525 353.2239 
L 178.907975 353.2239 
L 188.176425 353.2239 
L 197.444875 353.2239 
L 206.713325 353.2239 
L 215.981775 353.2239 
L 225.250225 353.2239 
L 234.518675 353.2239 
L 243.787125 353.2239 
L 253.055575 353.2239 
L 262.324025 353.2239 
L 271.592475 353.2239 
L 280.860925 353.2239 
L 290.129375 353.2239 
L 299.397825 353.2239 
L 308.666275 353.2239 
L 317.934725 353.2239 
L 327.203175 353.2239 
L 336.471625 353.2239 
L 345.740075 353.2239 
L 355.008525 353.2239 
L 364.276975 353.2239 
L 373.545425 353.2239 
L 382.813875 353.220299 
L 392.082325 353.213097 
L 401.350775 353.19069 
L 410.619225 353.02384 
L 419.887675 341.237127 
L 429.156125 340.535318 
L 438.424575 352.034746 
L 447.693025 350.530697 
L 456.961475 350.307831 
L 466.229925 346.056564 
L 475.498375 344.520506 
L 484.766825 341.014661 
L 494.035275 335.297356 
L 503.303725 323.942772 
L 512.572175 285.69337 
L 521.840625 299.11017 
L 531.109075 341.169507 
L 540.377525 345.376361 
L 549.645975 333.911743 
L 558.914425 327.917557 
L 568.182875 340.327256 
L 577.451325 348.45968 
L 586.719775 350.349443 
L 595.988225 351.720252 
L 605.256675 352.550099 
L 614.525125 352.961822 
L 623.793575 353.12187 
L 633.062025 353.177886 
L 642.330475 353.208695 
L 651.598925 353.215097 
L 660.867375 353.219899 
L 670.135825 353.219899 
L 679.404275 353.221499 
L 688.672725 353.221899 
L 697.941175 353.221899 
L 707.209625 353.221499 
L 716.478075 353.221499 
L 725.746525 353.2239 
L 735.014975 353.2231 
L 744.283425 353.2231 
L 753.551875 353.2231 
L 762.820325 353.221499 
L 772.088775 353.2239 
L 781.357225 353.2239 
L 790.625675 353.2239 
L 799.894125 353.2239 
L 809.162575 353.2239 
L 818.431025 353.2239 
L 827.699475 353.2239 
L 836.967925 353.2239 
L 846.236375 353.2239 
L 855.504825 353.2239 
L 864.773275 353.2239 
L 874.041725 353.2239 
L 883.310175 353.2239 
L 892.578625 353.2239 
L 901.847075 353.2231 
L 911.115525 353.2231 
L 920.383975 353.2239 
L 929.652425 353.2239 
L 938.920875 353.2239 
L 948.189325 353.2239 
L 957.457775 353.2239 
L 966.726225 353.2239 
L 975.994675 353.2239 
L 985.263125 353.2239 
" clip-path="url(#p9a4ac7b8a2)" style="fill: none; stroke: #d9534f; stroke-linecap: square"/>
   </g>
   <g id="line2d_29">
    <path d="M 58.418125 353.2239 
L 67.686575 353.2239 
L 76.955025 353.2239 
L 86.223475 353.2239 
L 95.491925 353.2239 
L 104.760375 353.2239 
L 114.028825 353.2239 
L 123.297275 353.2239 
L 132.565725 353.2239 
L 141.834175 353.2239 
L 151.102625 353.2239 
L 160.371075 353.2239 
L 169.639525 353.2239 
L 178.907975 353.2239 
L 188.176425 353.2239 
L 197.444875 353.2239 
L 206.713325 353.2239 
L 215.981775 353.2239 
L 225.250225 353.2239 
L 234.518675 353.2239 
L 243.787125 353.2239 
L 253.055575 353.2239 
L 262.324025 353.2239 
L 271.592475 353.2239 
L 280.860925 353.2239 
L 290.129375 353.2239 
L 299.397825 353.2239 
L 308.666275 353.2239 
L 317.934725 353.2239 
L 327.203175 353.2239 
L 336.471625 353.2227 
L 345.740075 353.2227 
L 355.008525 353.2227 
L 364.276975 353.2227 
L 373.545425 353.2239 
L 382.813875 353.221499 
L 392.082325 353.216698 
L 401.350775 353.215898 
L 410.619225 353.198292 
L 419.887675 353.159881 
L 429.156125 353.107465 
L 438.424575 352.945417 
L 447.693025 352.282819 
L 456.961475 346.475088 
L 466.229925 163.783432 
L 475.498375 157.688015 
L 484.766825 332.943455 
L 494.035275 333.280755 
L 503.303725 340.067978 
L 512.572175 347.228913 
L 521.840625 341.686461 
L 531.109075 337.116699 
L 540.377525 343.139694 
L 549.645975 348.925419 
L 558.914425 348.143986 
L 568.182875 351.24451 
L 577.451325 352.708546 
L 586.719775 352.917009 
L 595.988225 353.030242 
L 605.256675 353.12307 
L 614.525125 353.19149 
L 623.793575 353.207495 
L 633.062025 353.213097 
L 642.330475 353.219099 
L 651.598925 353.2223 
L 660.867375 353.221499 
L 670.135825 353.2223 
L 679.404275 353.2223 
L 688.672725 353.2239 
L 697.941175 353.2231 
L 707.209625 353.2223 
L 716.478075 353.2223 
L 725.746525 353.2239 
L 735.014975 353.2239 
L 744.283425 353.2239 
L 753.551875 353.2239 
L 762.820325 353.2239 
L 772.088775 353.2239 
L 781.357225 353.2239 
L 790.625675 353.2239 
L 799.894125 353.2239 
L 809.162575 353.2239 
L 818.431025 353.2239 
L 827.699475 353.2239 
L 836.967925 353.2239 
L 846.236375 353.2239 
L 855.504825 353.2239 
L 864.773275 353.2239 
L 874.041725 353.2231 
L 883.310175 353.2231 
L 892.578625 353.2239 
L 901.847075 353.2239 
L 911.115525 353.2239 
L 920.383975 353.2239 
L 929.652425 353.2239 
L 938.920875 353.2239 
L 948.189325 353.2239 
L 957.457775 353.2239 
L 966.726225 353.2239 
L 975.994675 353.2239 
L 985.263125 353.2239 
" clip-path="url(#p9a4ac7b8a2)" style="fill: none; stroke: #d9534f; stroke-linecap: square"/>
   </g>
   <g id="line2d_30">
    <path d="M 58.418125 353.2239 
L 67.686575 353.2239 
L 76.955025 353.2239 
L 86.223475 353.2239 
L 95.491925 353.2239 
L 104.760375 353.2239 
L 114.028825 353.2239 
L 123.297275 353.2239 
L 132.565725 353.2239 
L 141.834175 353.2239 
L 151.102625 353.2239 
L 160.371075 353.2239 
L 169.639525 353.2239 
L 178.907975 353.2239 
L 188.176425 353.2239 
L 197.444875 353.2239 
L 206.713325 353.2239 
L 215.981775 353.2239 
L 225.250225 353.2239 
L 234.518675 353.2239 
L 243.787125 353.2239 
L 253.055575 353.2239 
L 262.324025 353.2239 
L 271.592475 353.2239 
L 280.860925 353.2239 
L 290.129375 353.2239 
L 299.397825 353.2239 
L 308.666275 353.2239 
L 317.934725 353.2227 
L 327.203175 353.2227 
L 336.471625 353.2239 
L 345.740075 353.2239 
L 355.008525 353.2239 
L 364.276975 353.2239 
L 373.545425 353.2239 
L 382.813875 353.2239 
L 392.082325 353.2227 
L 401.350775 353.215898 
L 410.619225 353.209896 
L 419.887675 353.135474 
L 429.156125 352.68614 
L 438.424575 352.559302 
L 447.693025 352.607716 
L 456.961475 347.614228 
L 466.229925 174.940357 
L 475.498375 173.57275 
L 484.766825 344.387266 
L 494.035275 350.281823 
L 503.303725 350.120175 
L 512.572175 344.656546 
L 521.840625 346.697555 
L 531.109075 352.669735 
L 540.377525 352.870595 
L 549.645975 352.636125 
L 558.914425 347.257321 
L 568.182875 347.138086 
L 577.451325 352.474076 
L 586.719775 352.901404 
L 595.988225 353.068254 
L 605.256675 353.158681 
L 614.525125 353.195492 
L 623.793575 353.217498 
L 633.062025 353.220699 
L 642.330475 353.221499 
L 651.598925 353.2231 
L 660.867375 353.2231 
L 670.135825 353.2239 
L 679.404275 353.2239 
L 688.672725 353.2239 
L 697.941175 353.2223 
L 707.209625 353.2223 
L 716.478075 353.2239 
L 725.746525 353.2239 
L 735.014975 353.2239 
L 744.283425 353.2239 
L 753.551875 353.2239 
L 762.820325 353.2231 
L 772.088775 353.2231 
L 781.357225 353.2239 
L 790.625675 353.2239 
L 799.894125 353.2231 
L 809.162575 353.2231 
L 818.431025 353.2239 
L 827.699475 353.2239 
L 836.967925 353.2239 
L 846.236375 353.2239 
L 855.504825 353.2239 
L 864.773275 353.2239 
L 874.041725 353.2239 
L 883.310175 353.2239 
L 892.578625 353.2239 
L 901.847075 353.2239 
L 911.115525 353.2239 
L 920.383975 353.2239 
L 929.652425 353.2239 
L 938.920875 353.2231 
L 948.189325 353.2239 
L 957.457775 353.2239 
L 966.726225 353.2239 
L 975.994675 353.2239 
L 985.263125 353.2239 
" clip-path="url(#p9a4ac7b8a2)" style="fill: none; stroke: #d9534f; stroke-linecap: square"/>
   </g>
   <g id="line2d_31">
    <path d="M 58.418125 353.2239 
L 67.686575 353.2239 
L 76.955025 353.2239 
L 86.223475 353.2239 
L 95.491925 353.2239 
L 104.760375 353.2239 
L 114.028825 353.2239 
L 123.297275 353.2239 
L 132.565725 353.2239 
L 141.834175 353.2239 
L 151.102625 353.2239 
L 160.371075 353.2239 
L 169.639525 353.2239 
L 178.907975 353.2239 
L 188.176425 353.2239 
L 197.444875 353.2239 
L 206.713325 353.2239 
L 215.981775 353.2239 
L 225.250225 353.2239 
L 234.518675 353.2239 
L 243.787125 353.2239 
L 253.055575 353.2239 
L 262.324025 353.2239 
L 271.592475 353.2239 
L 280.860925 353.2239 
L 290.129375 353.2239 
L 299.397825 353.2239 
L 308.666275 353.2239 
L 317.934725 353.2227 
L 327.203175 353.2227 
L 336.471625 353.2239 
L 345.740075 353.2239 
L 355.008525 353.2239 
L 364.276975 353.2239 
L 373.545425 353.2227 
L 382.813875 353.2227 
L 392.082325 353.2227 
L 401.350775 353.217098 
L 410.619225 353.209496 
L 419.887675 353.160681 
L 429.156125 350.845191 
L 438.424575 350.547902 
L 447.693025 352.724151 
L 456.961475 351.727454 
L 466.229925 327.200143 
L 475.498375 327.282968 
L 484.766825 350.382653 
L 494.035275 346.271428 
L 503.303725 319.527856 
L 512.572175 277.325676 
L 521.840625 297.1992 
L 531.109075 342.160602 
L 540.377525 349.16429 
L 549.645975 344.66855 
L 558.914425 342.817598 
L 568.182875 345.561616 
L 577.451325 346.526304 
L 586.719775 349.39956 
L 595.988225 350.997236 
L 605.256675 352.099165 
L 614.525125 352.790571 
L 623.793575 353.038645 
L 633.062025 353.145877 
L 642.330475 353.193491 
L 651.598925 353.208695 
L 660.867375 353.216698 
L 670.135825 353.2223 
L 679.404275 353.2231 
L 688.672725 353.2239 
L 697.941175 353.2239 
L 707.209625 353.2231 
L 716.478075 353.2231 
L 725.746525 353.2239 
L 735.014975 353.2239 
L 744.283425 353.2231 
L 753.551875 353.2231 
L 762.820325 353.2223 
L 772.088775 353.2239 
L 781.357225 353.2239 
L 790.625675 353.2239 
L 799.894125 353.2231 
L 809.162575 353.2239 
L 818.431025 353.2239 
L 827.699475 353.2239 
L 836.967925 353.2239 
L 846.236375 353.2239 
L 855.504825 353.2239 
L 864.773275 353.2239 
L 874.041725 353.2239 
L 883.310175 353.2239 
L 892.578625 353.2239 
L 901.847075 353.2239 
L 911.115525 353.2239 
L 920.383975 353.2239 
L 929.652425 353.2239 
L 938.920875 353.2239 
L 948.189325 353.2239 
L 957.457775 353.2239 
L 966.726225 353.2239 
L 975.994675 353.2239 
L 985.263125 353.2239 
" clip-path="url(#p9a4ac7b8a2)" style="fill: none; stroke: #d9534f; stroke-linecap: square"/>
   </g>
   <g id="line2d_32">
    <path d="M 58.418125 353.2239 
L 67.686575 353.2239 
L 76.955025 353.2239 
L 86.223475 353.2239 
L 95.491925 353.2239 
L 104.760375 353.2239 
L 114.028825 353.2239 
L 123.297275 353.2239 
L 132.565725 353.2239 
L 141.834175 353.2239 
L 151.102625 353.2239 
L 160.371075 353.2239 
L 169.639525 353.2239 
L 178.907975 353.2239 
L 188.176425 353.2239 
L 197.444875 353.2239 
L 206.713325 353.2239 
L 215.981775 353.2239 
L 225.250225 353.2239 
L 234.518675 353.2239 
L 243.787125 353.2239 
L 253.055575 353.2239 
L 262.324025 353.2239 
L 271.592475 353.2239 
L 280.860925 353.2239 
L 290.129375 353.2239 
L 299.397825 353.2239 
L 308.666275 353.2239 
L 317.934725 353.2239 
L 327.203175 353.2239 
L 336.471625 353.2239 
L 345.740075 353.2239 
L 355.008525 353.2239 
L 364.276975 353.2227 
L 373.545425 353.193091 
L 382.813875 353.18989 
L 392.082325 353.210696 
L 401.350775 353.199093 
L 410.619225 353.171084 
L 419.887675 353.093061 
L 429.156125 351.504988 
L 438.424575 351.032447 
L 447.693025 350.765567 
L 456.961475 347.665843 
L 466.229925 223.7273 
L 475.498375 219.759717 
L 484.766825 337.527621 
L 494.035275 340.789794 
L 503.303725 340.126396 
L 512.572175 317.46284 
L 521.840625 323.364199 
L 531.109075 349.552005 
L 540.377525 351.401357 
L 549.645975 350.924415 
L 558.914425 347.770274 
L 568.182875 347.68745 
L 577.451325 350.735558 
L 586.719775 351.716651 
L 595.988225 352.410858 
L 605.256675 352.885799 
L 614.525125 353.109466 
L 623.793575 353.182288 
L 633.062025 353.202294 
L 642.330475 353.210696 
L 651.598925 353.217898 
L 660.867375 353.218298 
L 670.135825 353.219099 
L 679.404275 353.2223 
L 688.672725 353.2239 
L 697.941175 353.2231 
L 707.209625 353.2239 
L 716.478075 353.2239 
L 725.746525 353.2239 
L 735.014975 353.2239 
L 744.283425 353.2239 
L 753.551875 353.2239 
L 762.820325 353.2239 
L 772.088775 353.2231 
L 781.357225 353.2239 
L 790.625675 353.2239 
L 799.894125 353.2239 
L 809.162575 353.2239 
L 818.431025 353.2239 
L 827.699475 353.2231 
L 836.967925 353.2223 
L 846.236375 353.2231 
L 855.504825 353.2239 
L 864.773275 353.2239 
L 874.041725 353.2239 
L 883.310175 353.2239 
L 892.578625 353.2239 
L 901.847075 353.2239 
L 911.115525 353.2239 
L 920.383975 353.2231 
L 929.652425 353.2231 
L 938.920875 353.2239 
L 948.189325 353.2239 
L 957.457775 353.2239 
L 966.726225 353.2239 
L 975.994675 353.2239 
L 985.263125 353.2239 
" clip-path="url(#p9a4ac7b8a2)" style="fill: none; stroke: #d9534f; stroke-linecap: square"/>
   </g>
   <g id="line2d_33">
    <path d="M 58.418125 353.2239 
L 67.686575 353.2239 
L 76.955025 353.2239 
L 86.223475 353.2239 
L 95.491925 353.2239 
L 104.760375 353.2239 
L 114.028825 353.2239 
L 123.297275 353.2239 
L 132.565725 353.2239 
L 141.834175 353.2239 
L 151.102625 353.2239 
L 160.371075 353.2239 
L 169.639525 353.2239 
L 178.907975 353.2239 
L 188.176425 353.2239 
L 197.444875 353.2239 
L 206.713325 353.2239 
L 215.981775 353.2239 
L 225.250225 353.2239 
L 234.518675 353.2239 
L 243.787125 353.2239 
L 253.055575 353.2239 
L 262.324025 353.2239 
L 271.592475 353.2239 
L 280.860925 353.2239 
L 290.129375 353.2239 
L 299.397825 353.2239 
L 308.666275 353.2239 
L 317.934725 353.2239 
L 327.203175 353.2239 
L 336.471625 353.2239 
L 345.740075 353.2239 
L 355.008525 353.2239 
L 364.276975 353.2239 
L 373.545425 353.2231 
L 382.813875 353.219899 
L 392.082325 353.213497 
L 401.350775 353.197092 
L 410.619225 353.161882 
L 419.887675 352.985829 
L 429.156125 346.475488 
L 438.424575 345.904118 
L 447.693025 344.344053 
L 456.961475 343.821497 
L 466.229925 344.925026 
L 475.498375 345.436779 
L 484.766825 341.243529 
L 494.035275 340.87942 
L 503.303725 341.051472 
L 512.572175 278.620062 
L 521.840625 278.643669 
L 531.109075 340.527315 
L 540.377525 349.938121 
L 549.645975 348.899411 
L 558.914425 346.699155 
L 568.182875 345.714061 
L 577.451325 346.78118 
L 586.719775 348.722558 
L 595.988225 350.677541 
L 605.256675 352.035946 
L 614.525125 352.670935 
L 623.793575 353.011837 
L 633.062025 353.147077 
L 642.330475 353.193891 
L 651.598925 353.210696 
L 660.867375 353.217498 
L 670.135825 353.221499 
L 679.404275 353.220699 
L 688.672725 353.220699 
L 697.941175 353.220699 
L 707.209625 353.2231 
L 716.478075 353.2231 
L 725.746525 353.2239 
L 735.014975 353.2239 
L 744.283425 353.2239 
L 753.551875 353.2239 
L 762.820325 353.2239 
L 772.088775 353.2239 
L 781.357225 353.2239 
L 790.625675 353.2239 
L 799.894125 353.2231 
L 809.162575 353.2231 
L 818.431025 353.2239 
L 827.699475 353.2239 
L 836.967925 353.2239 
L 846.236375 353.2239 
L 855.504825 353.2239 
L 864.773275 353.2239 
L 874.041725 353.2239 
L 883.310175 353.2239 
L 892.578625 353.2239 
L 901.847075 353.2239 
L 911.115525 353.2239 
L 920.383975 353.2239 
L 929.652425 353.2239 
L 938.920875 353.2239 
L 948.189325 353.2239 
L 957.457775 353.2239 
L 966.726225 353.2239 
L 975.994675 353.2239 
L 985.263125 353.2239 
" clip-path="url(#p9a4ac7b8a2)" style="fill: none; stroke: #d9534f; stroke-linecap: square"/>
   </g>
   <g id="line2d_34">
    <path d="M 58.418125 353.2239 
L 67.686575 353.2239 
L 76.955025 353.2239 
L 86.223475 353.2239 
L 95.491925 353.2239 
L 104.760375 353.2239 
L 114.028825 353.2239 
L 123.297275 353.2239 
L 132.565725 353.2239 
L 141.834175 353.2239 
L 151.102625 353.2239 
L 160.371075 353.2239 
L 169.639525 353.2239 
L 178.907975 353.2239 
L 188.176425 353.2239 
L 197.444875 353.2239 
L 206.713325 353.2239 
L 215.981775 353.2239 
L 225.250225 353.2239 
L 234.518675 353.2239 
L 243.787125 353.2239 
L 253.055575 353.2239 
L 262.324025 353.2239 
L 271.592475 353.2239 
L 280.860925 353.2239 
L 290.129375 353.2239 
L 299.397825 353.2239 
L 308.666275 353.2239 
L 317.934725 353.2239 
L 327.203175 353.2239 
L 336.471625 353.2239 
L 345.740075 353.2231 
L 355.008525 353.221499 
L 364.276975 353.2231 
L 373.545425 353.2223 
L 382.813875 353.219499 
L 392.082325 353.213497 
L 401.350775 353.215497 
L 410.619225 353.202294 
L 419.887675 353.171484 
L 429.156125 353.077856 
L 438.424575 352.463673 
L 447.693025 328.134821 
L 456.961475 321.344797 
L 466.229925 315.425033 
L 475.498375 320.728214 
L 484.766825 317.800141 
L 494.035275 316.851858 
L 503.303725 336.540527 
L 512.572175 327.066103 
L 521.840625 330.018183 
L 531.109075 331.409798 
L 540.377525 340.894225 
L 549.645975 350.836788 
L 558.914425 326.611167 
L 568.182875 326.070206 
L 577.451325 351.069658 
L 586.719775 352.727352 
L 595.988225 353.039045 
L 605.256675 353.140675 
L 614.525125 353.197092 
L 623.793575 353.211496 
L 633.062025 353.218298 
L 642.330475 353.221099 
L 651.598925 353.2239 
L 660.867375 353.2239 
L 670.135825 353.2231 
L 679.404275 353.2231 
L 688.672725 353.2239 
L 697.941175 353.2239 
L 707.209625 353.2239 
L 716.478075 353.2239 
L 725.746525 353.2239 
L 735.014975 353.2239 
L 744.283425 353.2231 
L 753.551875 353.2239 
L 762.820325 353.2239 
L 772.088775 353.2239 
L 781.357225 353.2239 
L 790.625675 353.2239 
L 799.894125 353.2239 
L 809.162575 353.2239 
L 818.431025 353.2239 
L 827.699475 353.2239 
L 836.967925 353.2239 
L 846.236375 353.2239 
L 855.504825 353.2239 
L 864.773275 353.2239 
L 874.041725 353.2239 
L 883.310175 353.2239 
L 892.578625 353.2239 
L 901.847075 353.2239 
L 911.115525 353.2239 
L 920.383975 353.2239 
L 929.652425 353.2239 
L 938.920875 353.2239 
L 948.189325 353.2239 
L 957.457775 353.2239 
L 966.726225 353.2239 
L 975.994675 353.2239 
L 985.263125 353.2239 
" clip-path="url(#p9a4ac7b8a2)" style="fill: none; stroke: #d9534f; stroke-linecap: square"/>
   </g>
   <g id="line2d_35">
    <path d="M 58.418125 353.2239 
L 67.686575 353.2239 
L 76.955025 353.2239 
L 86.223475 353.2239 
L 95.491925 353.2239 
L 104.760375 353.2239 
L 114.028825 353.2239 
L 123.297275 353.2239 
L 132.565725 353.2239 
L 141.834175 353.2239 
L 151.102625 353.2239 
L 160.371075 353.2239 
L 169.639525 353.2239 
L 178.907975 353.2239 
L 188.176425 353.2239 
L 197.444875 353.2239 
L 206.713325 353.2239 
L 215.981775 353.2239 
L 225.250225 353.2239 
L 234.518675 353.2239 
L 243.787125 353.2239 
L 253.055575 353.2239 
L 262.324025 353.2239 
L 271.592475 353.2239 
L 280.860925 353.2239 
L 290.129375 353.2239 
L 299.397825 353.2239 
L 308.666275 353.2239 
L 317.934725 353.2239 
L 327.203175 353.2239 
L 336.471625 353.2239 
L 345.740075 353.2239 
L 355.008525 353.2231 
L 364.276975 353.2223 
L 373.545425 353.218298 
L 382.813875 353.215497 
L 392.082325 353.211096 
L 401.350775 353.194291 
L 410.619225 353.167883 
L 419.887675 353.036244 
L 429.156125 345.859305 
L 438.424575 344.934229 
L 447.693025 344.027159 
L 456.961475 341.578029 
L 466.229925 190.127684 
L 475.498375 188.60523 
L 484.766825 347.11728 
L 494.035275 351.477379 
L 503.303725 344.580524 
L 512.572175 344.022757 
L 521.840625 348.243215 
L 531.109075 344.754175 
L 540.377525 348.053159 
L 549.645975 352.328433 
L 558.914425 348.791779 
L 568.182875 344.857006 
L 577.451325 348.173194 
L 586.719775 352.414459 
L 595.988225 352.975426 
L 605.256675 353.137074 
L 614.525125 353.187089 
L 623.793575 353.207095 
L 633.062025 353.219099 
L 642.330475 353.218298 
L 651.598925 353.220699 
L 660.867375 353.2231 
L 670.135825 353.2227 
L 679.404275 353.2227 
L 688.672725 353.2239 
L 697.941175 353.2239 
L 707.209625 353.2239 
L 716.478075 353.2239 
L 725.746525 353.2239 
L 735.014975 353.2239 
L 744.283425 353.2239 
L 753.551875 353.2223 
L 762.820325 353.2223 
L 772.088775 353.2231 
L 781.357225 353.2239 
L 790.625675 353.2239 
L 799.894125 353.2239 
L 809.162575 353.2239 
L 818.431025 353.2239 
L 827.699475 353.2239 
L 836.967925 353.2239 
L 846.236375 353.2239 
L 855.504825 353.2239 
L 864.773275 353.2239 
L 874.041725 353.2239 
L 883.310175 353.2239 
L 892.578625 353.2239 
L 901.847075 353.2239 
L 911.115525 353.2239 
L 920.383975 353.2239 
L 929.652425 353.2231 
L 938.920875 353.2231 
L 948.189325 353.2239 
L 957.457775 353.2231 
L 966.726225 353.2231 
L 975.994675 353.2239 
L 985.263125 353.2239 
" clip-path="url(#p9a4ac7b8a2)" style="fill: none; stroke: #d9534f; stroke-linecap: square"/>
   </g>
   <g id="line2d_36">
    <path d="M 58.418125 353.2239 
L 67.686575 353.2239 
L 76.955025 353.2239 
L 86.223475 353.2239 
L 95.491925 353.2239 
L 104.760375 353.2239 
L 114.028825 353.2239 
L 123.297275 353.2239 
L 132.565725 353.2239 
L 141.834175 353.2239 
L 151.102625 353.2239 
L 160.371075 353.2239 
L 169.639525 353.2239 
L 178.907975 353.2239 
L 188.176425 353.2239 
L 197.444875 353.2239 
L 206.713325 353.2239 
L 215.981775 353.2239 
L 225.250225 353.2239 
L 234.518675 353.2239 
L 243.787125 353.2239 
L 253.055575 353.2239 
L 262.324025 353.2239 
L 271.592475 353.2239 
L 280.860925 353.2239 
L 290.129375 353.2239 
L 299.397825 353.2239 
L 308.666275 353.2239 
L 317.934725 353.2239 
L 327.203175 353.2239 
L 336.471625 353.2239 
L 345.740075 353.2239 
L 355.008525 353.2231 
L 364.276975 353.2231 
L 373.545425 353.2239 
L 382.813875 353.2239 
L 392.082325 353.2239 
L 401.350775 353.2223 
L 410.619225 353.221899 
L 419.887675 353.221099 
L 429.156125 353.218298 
L 438.424575 353.217098 
L 447.693025 353.216698 
L 456.961475 353.211496 
L 466.229925 353.15788 
L 475.498375 353.140275 
L 484.766825 353.18869 
L 494.035275 353.19109 
L 503.303725 353.195492 
L 512.572175 353.19029 
L 521.840625 353.194291 
L 531.109075 353.199893 
L 540.377525 353.207895 
L 549.645975 353.213097 
L 558.914425 353.208295 
L 568.182875 353.210696 
L 577.451325 353.216698 
L 586.719775 353.217498 
L 595.988225 353.220699 
L 605.256675 353.2227 
L 614.525125 353.2227 
L 623.793575 353.2239 
L 633.062025 353.2227 
L 642.330475 353.2227 
L 651.598925 353.2239 
L 660.867375 353.2239 
L 670.135825 353.2239 
L 679.404275 353.2239 
L 688.672725 353.2239 
L 697.941175 353.2239 
L 707.209625 353.2239 
L 716.478075 353.2239 
L 725.746525 353.2239 
L 735.014975 353.2239 
L 744.283425 353.2239 
L 753.551875 353.2239 
L 762.820325 353.2239 
L 772.088775 353.2239 
L 781.357225 353.2239 
L 790.625675 353.2239 
L 799.894125 353.2239 
L 809.162575 353.2239 
L 818.431025 353.2239 
L 827.699475 353.2239 
L 836.967925 353.2239 
L 846.236375 353.2239 
L 855.504825 353.2239 
L 864.773275 353.2239 
L 874.041725 353.2239 
L 883.310175 353.2239 
L 892.578625 353.2239 
L 901.847075 353.2239 
L 911.115525 353.2239 
L 920.383975 353.2239 
L 929.652425 353.2239 
L 938.920875 353.2239 
L 948.189325 353.2239 
L 957.457775 353.2239 
L 966.726225 353.2239 
L 975.994675 353.2239 
L 985.263125 353.2239 
" clip-path="url(#p9a4ac7b8a2)" style="fill: none; stroke: #d9534f; stroke-linecap: square"/>
   </g>
   <g id="line2d_37">
    <path d="M 58.418125 353.2239 
L 985.263125 353.2239 
" clip-path="url(#p9a4ac7b8a2)" style="fill: none; stroke: #dedede; stroke-width: 2; stroke-linecap: square"/>
   </g>
   <g id="text_16">
    <!-- FastQC: Per Sequence GC Content -->
    <g transform="translate(385.204375 19.3575) scale(0.16 -0.16)">
     <defs>
      <path id="DejaVuSans-46" d="M 628 4666 
L 3309 4666 
L 3309 4134 
L 1259 4134 
L 1259 2759 
L 3109 2759 
L 3109 2228 
L 1259 2228 
L 1259 0 
L 628 0 
L 628 4666 
z
" transform="scale(0.015625)"/>
      <path id="DejaVuSans-61" d="M 2194 1759 
Q 1497 1759 1228 1600 
Q 959 1441 959 1056 
Q 959 750 1161 570 
Q 1363 391 1709 391 
Q 2188 391 2477 730 
Q 2766 1069 2766 1631 
L 2766 1759 
L 2194 1759 
z
M 3341 1997 
L 3341 0 
L 2766 0 
L 2766 531 
Q 2569 213 2275 61 
Q 1981 -91 1556 -91 
Q 1019 -91 701 211 
Q 384 513 384 1019 
Q 384 1609 779 1909 
Q 1175 2209 1959 2209 
L 2766 2209 
L 2766 2266 
Q 2766 2663 2505 2880 
Q 2244 3097 1772 3097 
Q 1472 3097 1187 3025 
Q 903 2953 641 2809 
L 641 3341 
Q 956 3463 1253 3523 
Q 1550 3584 1831 3584 
Q 2591 3584 2966 3190 
Q 3341 2797 3341 1997 
z
" transform="scale(0.015625)"/>
      <path id="DejaVuSans-73" d="M 2834 3397 
L 2834 2853 
Q 2591 2978 2328 3040 
Q 2066 3103 1784 3103 
Q 1356 3103 1142 2972 
Q 928 2841 928 2578 
Q 928 2378 1081 2264 
Q 1234 2150 1697 2047 
L 1894 2003 
Q 2506 1872 2764 1633 
Q 3022 1394 3022 966 
Q 3022 478 2636 193 
Q 2250 -91 1575 -91 
Q 1294 -91 989 -36 
Q 684 19 347 128 
L 347 722 
Q 666 556 975 473 
Q 1284 391 1588 391 
Q 1994 391 2212 530 
Q 2431 669 2431 922 
Q 2431 1156 2273 1281 
Q 2116 1406 1581 1522 
L 1381 1569 
Q 847 1681 609 1914 
Q 372 2147 372 2553 
Q 372 3047 722 3315 
Q 1072 3584 1716 3584 
Q 2034 3584 2315 3537 
Q 2597 3491 2834 3397 
z
" transform="scale(0.015625)"/>
      <path id="DejaVuSans-51" d="M 2522 4238 
Q 1834 4238 1429 3725 
Q 1025 3213 1025 2328 
Q 1025 1447 1429 934 
Q 1834 422 2522 422 
Q 3209 422 3611 934 
Q 4013 1447 4013 2328 
Q 4013 3213 3611 3725 
Q 3209 4238 2522 4238 
z
M 3406 84 
L 4238 -825 
L 3475 -825 
L 2784 -78 
Q 2681 -84 2626 -87 
Q 2572 -91 2522 -91 
Q 1538 -91 948 567 
Q 359 1225 359 2328 
Q 359 3434 948 4092 
Q 1538 4750 2522 4750 
Q 3503 4750 4090 4092 
Q 4678 3434 4678 2328 
Q 4678 1516 4351 937 
Q 4025 359 3406 84 
z
" transform="scale(0.015625)"/>
      <path id="DejaVuSans-3a" d="M 750 794 
L 1409 794 
L 1409 0 
L 750 0 
L 750 794 
z
M 750 3309 
L 1409 3309 
L 1409 2516 
L 750 2516 
L 750 3309 
z
" transform="scale(0.015625)"/>
      <path id="DejaVuSans-50" d="M 1259 4147 
L 1259 2394 
L 2053 2394 
Q 2494 2394 2734 2622 
Q 2975 2850 2975 3272 
Q 2975 3691 2734 3919 
Q 2494 4147 2053 4147 
L 1259 4147 
z
M 628 4666 
L 2053 4666 
Q 2838 4666 3239 4311 
Q 3641 3956 3641 3272 
Q 3641 2581 3239 2228 
Q 2838 1875 2053 1875 
L 1259 1875 
L 1259 0 
L 628 0 
L 628 4666 
z
" transform="scale(0.015625)"/>
      <path id="DejaVuSans-65" d="M 3597 1894 
L 3597 1613 
L 953 1613 
Q 991 1019 1311 708 
Q 1631 397 2203 397 
Q 2534 397 2845 478 
Q 3156 559 3463 722 
L 3463 178 
Q 3153 47 2828 -22 
Q 2503 -91 2169 -91 
Q 1331 -91 842 396 
Q 353 884 353 1716 
Q 353 2575 817 3079 
Q 1281 3584 2069 3584 
Q 2775 3584 3186 3129 
Q 3597 2675 3597 1894 
z
M 3022 2063 
Q 3016 2534 2758 2815 
Q 2500 3097 2075 3097 
Q 1594 3097 1305 2825 
Q 1016 2553 972 2059 
L 3022 2063 
z
" transform="scale(0.015625)"/>
      <path id="DejaVuSans-72" d="M 2631 2963 
Q 2534 3019 2420 3045 
Q 2306 3072 2169 3072 
Q 1681 3072 1420 2755 
Q 1159 2438 1159 1844 
L 1159 0 
L 581 0 
L 581 3500 
L 1159 3500 
L 1159 2956 
Q 1341 3275 1631 3429 
Q 1922 3584 2338 3584 
Q 2397 3584 2469 3576 
Q 2541 3569 2628 3553 
L 2631 2963 
z
" transform="scale(0.015625)"/>
      <path id="DejaVuSans-53" d="M 3425 4513 
L 3425 3897 
Q 3066 4069 2747 4153 
Q 2428 4238 2131 4238 
Q 1616 4238 1336 4038 
Q 1056 3838 1056 3469 
Q 1056 3159 1242 3001 
Q 1428 2844 1947 2747 
L 2328 2669 
Q 3034 2534 3370 2195 
Q 3706 1856 3706 1288 
Q 3706 609 3251 259 
Q 2797 -91 1919 -91 
Q 1588 -91 1214 -16 
Q 841 59 441 206 
L 441 856 
Q 825 641 1194 531 
Q 1563 422 1919 422 
Q 2459 422 2753 634 
Q 3047 847 3047 1241 
Q 3047 1584 2836 1778 
Q 2625 1972 2144 2069 
L 1759 2144 
Q 1053 2284 737 2584 
Q 422 2884 422 3419 
Q 422 4038 858 4394 
Q 1294 4750 2059 4750 
Q 2388 4750 2728 4690 
Q 3069 4631 3425 4513 
z
" transform="scale(0.015625)"/>
      <path id="DejaVuSans-71" d="M 947 1747 
Q 947 1113 1208 752 
Q 1469 391 1925 391 
Q 2381 391 2643 752 
Q 2906 1113 2906 1747 
Q 2906 2381 2643 2742 
Q 2381 3103 1925 3103 
Q 1469 3103 1208 2742 
Q 947 2381 947 1747 
z
M 2906 525 
Q 2725 213 2448 61 
Q 2172 -91 1784 -91 
Q 1150 -91 751 415 
Q 353 922 353 1747 
Q 353 2572 751 3078 
Q 1150 3584 1784 3584 
Q 2172 3584 2448 3432 
Q 2725 3281 2906 2969 
L 2906 3500 
L 3481 3500 
L 3481 -1331 
L 2906 -1331 
L 2906 525 
z
" transform="scale(0.015625)"/>
      <path id="DejaVuSans-63" d="M 3122 3366 
L 3122 2828 
Q 2878 2963 2633 3030 
Q 2388 3097 2138 3097 
Q 1578 3097 1268 2742 
Q 959 2388 959 1747 
Q 959 1106 1268 751 
Q 1578 397 2138 397 
Q 2388 397 2633 464 
Q 2878 531 3122 666 
L 3122 134 
Q 2881 22 2623 -34 
Q 2366 -91 2075 -91 
Q 1284 -91 818 406 
Q 353 903 353 1747 
Q 353 2603 823 3093 
Q 1294 3584 2113 3584 
Q 2378 3584 2631 3529 
Q 2884 3475 3122 3366 
z
" transform="scale(0.015625)"/>
     </defs>
     <use xlink:href="#DejaVuSans-46"/>
     <use xlink:href="#DejaVuSans-61" x="48.394531"/>
     <use xlink:href="#DejaVuSans-73" x="109.673828"/>
     <use xlink:href="#DejaVuSans-74" x="161.773438"/>
     <use xlink:href="#DejaVuSans-51" x="200.982422"/>
     <use xlink:href="#DejaVuSans-43" x="279.693359"/>
     <use xlink:href="#DejaVuSans-3a" x="349.517578"/>
     <use xlink:href="#DejaVuSans-20" x="383.208984"/>
     <use xlink:href="#DejaVuSans-50" x="414.996094"/>
     <use xlink:href="#DejaVuSans-65" x="471.673828"/>
     <use xlink:href="#DejaVuSans-72" x="533.197266"/>
     <use xlink:href="#DejaVuSans-20" x="574.310547"/>
     <use xlink:href="#DejaVuSans-53" x="606.097656"/>
     <use xlink:href="#DejaVuSans-65" x="669.574219"/>
     <use xlink:href="#DejaVuSans-71" x="731.097656"/>
     <use xlink:href="#DejaVuSans-75" x="794.574219"/>
     <use xlink:href="#DejaVuSans-65" x="857.953125"/>
     <use xlink:href="#DejaVuSans-6e" x="919.476562"/>
     <use xlink:href="#DejaVuSans-63" x="982.855469"/>
     <use xlink:href="#DejaVuSans-65" x="1037.835938"/>
     <use xlink:href="#DejaVuSans-20" x="1099.359375"/>
     <use xlink:href="#DejaVuSans-47" x="1131.146484"/>
     <use xlink:href="#DejaVuSans-43" x="1208.636719"/>
     <use xlink:href="#DejaVuSans-20" x="1278.460938"/>
     <use xlink:href="#DejaVuSans-43" x="1310.248047"/>
     <use xlink:href="#DejaVuSans-6f" x="1380.072266"/>
     <use xlink:href="#DejaVuSans-6e" x="1441.253906"/>
     <use xlink:href="#DejaVuSans-74" x="1504.632812"/>
     <use xlink:href="#DejaVuSans-65" x="1543.841797"/>
     <use xlink:href="#DejaVuSans-6e" x="1605.365234"/>
     <use xlink:href="#DejaVuSans-74" x="1668.744141"/>
    </g>
   </g>
  </g>
 </g>
 <defs>
  <clipPath id="p9a4ac7b8a2">
   <rect x="58.418125" y="35.2559" width="926.845" height="317.968"/>
  </clipPath>
 </defs>
</svg>
