<?xml version="1.0" encoding="utf-8" standalone="no"?>
<!DOCTYPE svg PUBLIC "-//W3C//DTD SVG 1.1//EN"
  "http://www.w3.org/Graphics/SVG/1.1/DTD/svg11.dtd">
<!-- Created with matplotlib (https://matplotlib.org/) -->
<svg height="388.844525pt" version="1.1" viewBox="0 0 1000.218125 388.844525" width="1000.218125pt" xmlns="http://www.w3.org/2000/svg" xmlns:xlink="http://www.w3.org/1999/xlink">
 <defs>
  <style type="text/css">
*{stroke-linecap:butt;stroke-linejoin:round;}
  </style>
 </defs>
 <g id="figure_1">
  <g id="axes_1">
   <g id="patch_1">
    <path d="M 43.148125 353.2239 
L 985.383125 353.2239 
L 985.383125 35.2559 
L 43.148125 35.2559 
z
" style="fill:#ffffff;"/>
   </g>
   <g id="matplotlib.axis_1">
    <g id="xtick_1">
     <g id="text_1">
      <!-- 0 -->
      <defs>
       <path d="M 31.78125 66.40625 
Q 24.171875 66.40625 20.328125 58.90625 
Q 16.5 51.421875 16.5 36.375 
Q 16.5 21.390625 20.328125 13.890625 
Q 24.171875 6.390625 31.78125 6.390625 
Q 39.453125 6.390625 43.28125 13.890625 
Q 47.125 21.390625 47.125 36.375 
Q 47.125 51.421875 43.28125 58.90625 
Q 39.453125 66.40625 31.78125 66.40625 
z
M 31.78125 74.21875 
Q 44.046875 74.21875 50.515625 64.515625 
Q 56.984375 54.828125 56.984375 36.375 
Q 56.984375 17.96875 50.515625 8.265625 
Q 44.046875 -1.421875 31.78125 -1.421875 
Q 19.53125 -1.421875 13.0625 8.265625 
Q 6.59375 17.96875 6.59375 36.375 
Q 6.59375 54.828125 13.0625 64.515625 
Q 19.53125 74.21875 31.78125 74.21875 
z
" id="DejaVuSans-48"/>
      </defs>
      <g transform="translate(40.603125 366.30265)scale(0.08 -0.08)">
       <use xlink:href="#DejaVuSans-48"/>
      </g>
     </g>
    </g>
    <g id="xtick_2">
     <g id="text_2">
      <!-- 20 -->
      <defs>
       <path d="M 19.1875 8.296875 
L 53.609375 8.296875 
L 53.609375 0 
L 7.328125 0 
L 7.328125 8.296875 
Q 12.9375 14.109375 22.625 23.890625 
Q 32.328125 33.6875 34.8125 36.53125 
Q 39.546875 41.84375 41.421875 45.53125 
Q 43.3125 49.21875 43.3125 52.78125 
Q 43.3125 58.59375 39.234375 62.25 
Q 35.15625 65.921875 28.609375 65.921875 
Q 23.96875 65.921875 18.8125 64.3125 
Q 13.671875 62.703125 7.8125 59.421875 
L 7.8125 69.390625 
Q 13.765625 71.78125 18.9375 73 
Q 24.125 74.21875 28.421875 74.21875 
Q 39.75 74.21875 46.484375 68.546875 
Q 53.21875 62.890625 53.21875 53.421875 
Q 53.21875 48.921875 51.53125 44.890625 
Q 49.859375 40.875 45.40625 35.40625 
Q 44.1875 33.984375 37.640625 27.21875 
Q 31.109375 20.453125 19.1875 8.296875 
z
" id="DejaVuSans-50"/>
      </defs>
      <g transform="translate(226.505125 366.30265)scale(0.08 -0.08)">
       <use xlink:href="#DejaVuSans-50"/>
       <use x="63.623047" xlink:href="#DejaVuSans-48"/>
      </g>
     </g>
    </g>
    <g id="xtick_3">
     <g id="text_3">
      <!-- 40 -->
      <defs>
       <path d="M 37.796875 64.3125 
L 12.890625 25.390625 
L 37.796875 25.390625 
z
M 35.203125 72.90625 
L 47.609375 72.90625 
L 47.609375 25.390625 
L 58.015625 25.390625 
L 58.015625 17.1875 
L 47.609375 17.1875 
L 47.609375 0 
L 37.796875 0 
L 37.796875 17.1875 
L 4.890625 17.1875 
L 4.890625 26.703125 
z
" id="DejaVuSans-52"/>
      </defs>
      <g transform="translate(414.952125 366.30265)scale(0.08 -0.08)">
       <use xlink:href="#DejaVuSans-52"/>
       <use x="63.623047" xlink:href="#DejaVuSans-48"/>
      </g>
     </g>
    </g>
    <g id="xtick_4">
     <g id="text_4">
      <!-- 60 -->
      <defs>
       <path d="M 33.015625 40.375 
Q 26.375 40.375 22.484375 35.828125 
Q 18.609375 31.296875 18.609375 23.390625 
Q 18.609375 15.53125 22.484375 10.953125 
Q 26.375 6.390625 33.015625 6.390625 
Q 39.65625 6.390625 43.53125 10.953125 
Q 47.40625 15.53125 47.40625 23.390625 
Q 47.40625 31.296875 43.53125 35.828125 
Q 39.65625 40.375 33.015625 40.375 
z
M 52.59375 71.296875 
L 52.59375 62.3125 
Q 48.875 64.0625 45.09375 64.984375 
Q 41.3125 65.921875 37.59375 65.921875 
Q 27.828125 65.921875 22.671875 59.328125 
Q 17.53125 52.734375 16.796875 39.40625 
Q 19.671875 43.65625 24.015625 45.921875 
Q 28.375 48.1875 33.59375 48.1875 
Q 44.578125 48.1875 50.953125 41.515625 
Q 57.328125 34.859375 57.328125 23.390625 
Q 57.328125 12.15625 50.6875 5.359375 
Q 44.046875 -1.421875 33.015625 -1.421875 
Q 20.359375 -1.421875 13.671875 8.265625 
Q 6.984375 17.96875 6.984375 36.375 
Q 6.984375 53.65625 15.1875 63.9375 
Q 23.390625 74.21875 37.203125 74.21875 
Q 40.921875 74.21875 44.703125 73.484375 
Q 48.484375 72.75 52.59375 71.296875 
z
" id="DejaVuSans-54"/>
      </defs>
      <g transform="translate(603.399125 366.30265)scale(0.08 -0.08)">
       <use xlink:href="#DejaVuSans-54"/>
       <use x="63.623047" xlink:href="#DejaVuSans-48"/>
      </g>
     </g>
    </g>
    <g id="xtick_5">
     <g id="text_5">
      <!-- 80 -->
      <defs>
       <path d="M 31.78125 34.625 
Q 24.75 34.625 20.71875 30.859375 
Q 16.703125 27.09375 16.703125 20.515625 
Q 16.703125 13.921875 20.71875 10.15625 
Q 24.75 6.390625 31.78125 6.390625 
Q 38.8125 6.390625 42.859375 10.171875 
Q 46.921875 13.96875 46.921875 20.515625 
Q 46.921875 27.09375 42.890625 30.859375 
Q 38.875 34.625 31.78125 34.625 
z
M 21.921875 38.8125 
Q 15.578125 40.375 12.03125 44.71875 
Q 8.5 49.078125 8.5 55.328125 
Q 8.5 64.0625 14.71875 69.140625 
Q 20.953125 74.21875 31.78125 74.21875 
Q 42.671875 74.21875 48.875 69.140625 
Q 55.078125 64.0625 55.078125 55.328125 
Q 55.078125 49.078125 51.53125 44.71875 
Q 48 40.375 41.703125 38.8125 
Q 48.828125 37.15625 52.796875 32.3125 
Q 56.78125 27.484375 56.78125 20.515625 
Q 56.78125 9.90625 50.3125 4.234375 
Q 43.84375 -1.421875 31.78125 -1.421875 
Q 19.734375 -1.421875 13.25 4.234375 
Q 6.78125 9.90625 6.78125 20.515625 
Q 6.78125 27.484375 10.78125 32.3125 
Q 14.796875 37.15625 21.921875 38.8125 
z
M 18.3125 54.390625 
Q 18.3125 48.734375 21.84375 45.5625 
Q 25.390625 42.390625 31.78125 42.390625 
Q 38.140625 42.390625 41.71875 45.5625 
Q 45.3125 48.734375 45.3125 54.390625 
Q 45.3125 60.0625 41.71875 63.234375 
Q 38.140625 66.40625 31.78125 66.40625 
Q 25.390625 66.40625 21.84375 63.234375 
Q 18.3125 60.0625 18.3125 54.390625 
z
" id="DejaVuSans-56"/>
      </defs>
      <g transform="translate(791.846125 366.30265)scale(0.08 -0.08)">
       <use xlink:href="#DejaVuSans-56"/>
       <use x="63.623047" xlink:href="#DejaVuSans-48"/>
      </g>
     </g>
    </g>
    <g id="xtick_6">
     <g id="text_6">
      <!-- 100 -->
      <defs>
       <path d="M 12.40625 8.296875 
L 28.515625 8.296875 
L 28.515625 63.921875 
L 10.984375 60.40625 
L 10.984375 69.390625 
L 28.421875 72.90625 
L 38.28125 72.90625 
L 38.28125 8.296875 
L 54.390625 8.296875 
L 54.390625 0 
L 12.40625 0 
z
" id="DejaVuSans-49"/>
      </defs>
      <g transform="translate(977.748125 366.30265)scale(0.08 -0.08)">
       <use xlink:href="#DejaVuSans-49"/>
       <use x="63.623047" xlink:href="#DejaVuSans-48"/>
       <use x="127.246094" xlink:href="#DejaVuSans-48"/>
      </g>
     </g>
    </g>
    <g id="text_7">
     <!-- % GC -->
     <defs>
      <path d="M 72.703125 32.078125 
Q 68.453125 32.078125 66.03125 28.46875 
Q 63.625 24.859375 63.625 18.40625 
Q 63.625 12.0625 66.03125 8.421875 
Q 68.453125 4.78125 72.703125 4.78125 
Q 76.859375 4.78125 79.265625 8.421875 
Q 81.6875 12.0625 81.6875 18.40625 
Q 81.6875 24.8125 79.265625 28.4375 
Q 76.859375 32.078125 72.703125 32.078125 
z
M 72.703125 38.28125 
Q 80.421875 38.28125 84.953125 32.90625 
Q 89.5 27.546875 89.5 18.40625 
Q 89.5 9.28125 84.9375 3.921875 
Q 80.375 -1.421875 72.703125 -1.421875 
Q 64.890625 -1.421875 60.34375 3.921875 
Q 55.8125 9.28125 55.8125 18.40625 
Q 55.8125 27.59375 60.375 32.9375 
Q 64.9375 38.28125 72.703125 38.28125 
z
M 22.3125 68.015625 
Q 18.109375 68.015625 15.6875 64.375 
Q 13.28125 60.75 13.28125 54.390625 
Q 13.28125 47.953125 15.671875 44.328125 
Q 18.0625 40.71875 22.3125 40.71875 
Q 26.5625 40.71875 28.96875 44.328125 
Q 31.390625 47.953125 31.390625 54.390625 
Q 31.390625 60.6875 28.953125 64.34375 
Q 26.515625 68.015625 22.3125 68.015625 
z
M 66.40625 74.21875 
L 74.21875 74.21875 
L 28.609375 -1.421875 
L 20.796875 -1.421875 
z
M 22.3125 74.21875 
Q 30.03125 74.21875 34.609375 68.875 
Q 39.203125 63.53125 39.203125 54.390625 
Q 39.203125 45.171875 34.640625 39.84375 
Q 30.078125 34.515625 22.3125 34.515625 
Q 14.546875 34.515625 10.03125 39.859375 
Q 5.515625 45.21875 5.515625 54.390625 
Q 5.515625 63.484375 10.046875 68.84375 
Q 14.59375 74.21875 22.3125 74.21875 
z
" id="DejaVuSans-37"/>
      <path id="DejaVuSans-32"/>
      <path d="M 59.515625 10.40625 
L 59.515625 29.984375 
L 43.40625 29.984375 
L 43.40625 38.09375 
L 69.28125 38.09375 
L 69.28125 6.78125 
Q 63.578125 2.734375 56.6875 0.65625 
Q 49.8125 -1.421875 42 -1.421875 
Q 24.90625 -1.421875 15.25 8.5625 
Q 5.609375 18.5625 5.609375 36.375 
Q 5.609375 54.25 15.25 64.234375 
Q 24.90625 74.21875 42 74.21875 
Q 49.125 74.21875 55.546875 72.453125 
Q 61.96875 70.703125 67.390625 67.28125 
L 67.390625 56.78125 
Q 61.921875 61.421875 55.765625 63.765625 
Q 49.609375 66.109375 42.828125 66.109375 
Q 29.4375 66.109375 22.71875 58.640625 
Q 16.015625 51.171875 16.015625 36.375 
Q 16.015625 21.625 22.71875 14.15625 
Q 29.4375 6.6875 42.828125 6.6875 
Q 48.046875 6.6875 52.140625 7.59375 
Q 56.25 8.5 59.515625 10.40625 
z
" id="DejaVuSans-71"/>
      <path d="M 64.40625 67.28125 
L 64.40625 56.890625 
Q 59.421875 61.53125 53.78125 63.8125 
Q 48.140625 66.109375 41.796875 66.109375 
Q 29.296875 66.109375 22.65625 58.46875 
Q 16.015625 50.828125 16.015625 36.375 
Q 16.015625 21.96875 22.65625 14.328125 
Q 29.296875 6.6875 41.796875 6.6875 
Q 48.140625 6.6875 53.78125 8.984375 
Q 59.421875 11.28125 64.40625 15.921875 
L 64.40625 5.609375 
Q 59.234375 2.09375 53.4375 0.328125 
Q 47.65625 -1.421875 41.21875 -1.421875 
Q 24.65625 -1.421875 15.125 8.703125 
Q 5.609375 18.84375 5.609375 36.375 
Q 5.609375 53.953125 15.125 64.078125 
Q 24.65625 74.21875 41.21875 74.21875 
Q 47.75 74.21875 53.53125 72.484375 
Q 59.328125 70.75 64.40625 67.28125 
z
" id="DejaVuSans-67"/>
     </defs>
     <g transform="translate(500.560156 379.564837)scale(0.1 -0.1)">
      <use xlink:href="#DejaVuSans-37"/>
      <use x="95.019531" xlink:href="#DejaVuSans-32"/>
      <use x="126.806641" xlink:href="#DejaVuSans-71"/>
      <use x="204.296875" xlink:href="#DejaVuSans-67"/>
     </g>
    </g>
   </g>
   <g id="matplotlib.axis_2">
    <g id="ytick_1">
     <g id="line2d_1">
      <path clip-path="url(#p093e13d87e)" d="M 43.148125 353.2239 
L 985.383125 353.2239 
" style="fill:none;stroke:#dedede;stroke-linecap:square;"/>
     </g>
     <g id="text_8">
      <!-- 0 -->
      <g transform="translate(31.058125 356.263275)scale(0.08 -0.08)">
       <use xlink:href="#DejaVuSans-48"/>
      </g>
     </g>
    </g>
    <g id="ytick_2">
     <g id="line2d_2">
      <path clip-path="url(#p093e13d87e)" d="M 43.148125 297.828778 
L 985.383125 297.828778 
" style="fill:none;stroke:#dedede;stroke-linecap:square;"/>
     </g>
     <g id="text_9">
      <!-- 20 -->
      <g transform="translate(25.968125 300.868153)scale(0.08 -0.08)">
       <use xlink:href="#DejaVuSans-50"/>
       <use x="63.623047" xlink:href="#DejaVuSans-48"/>
      </g>
     </g>
    </g>
    <g id="ytick_3">
     <g id="line2d_3">
      <path clip-path="url(#p093e13d87e)" d="M 43.148125 242.433656 
L 985.383125 242.433656 
" style="fill:none;stroke:#dedede;stroke-linecap:square;"/>
     </g>
     <g id="text_10">
      <!-- 40 -->
      <g transform="translate(25.968125 245.473031)scale(0.08 -0.08)">
       <use xlink:href="#DejaVuSans-52"/>
       <use x="63.623047" xlink:href="#DejaVuSans-48"/>
      </g>
     </g>
    </g>
    <g id="ytick_4">
     <g id="line2d_4">
      <path clip-path="url(#p093e13d87e)" d="M 43.148125 187.038534 
L 985.383125 187.038534 
" style="fill:none;stroke:#dedede;stroke-linecap:square;"/>
     </g>
     <g id="text_11">
      <!-- 60 -->
      <g transform="translate(25.968125 190.077909)scale(0.08 -0.08)">
       <use xlink:href="#DejaVuSans-54"/>
       <use x="63.623047" xlink:href="#DejaVuSans-48"/>
      </g>
     </g>
    </g>
    <g id="ytick_5">
     <g id="line2d_5">
      <path clip-path="url(#p093e13d87e)" d="M 43.148125 131.643412 
L 985.383125 131.643412 
" style="fill:none;stroke:#dedede;stroke-linecap:square;"/>
     </g>
     <g id="text_12">
      <!-- 80 -->
      <g transform="translate(25.968125 134.682787)scale(0.08 -0.08)">
       <use xlink:href="#DejaVuSans-56"/>
       <use x="63.623047" xlink:href="#DejaVuSans-48"/>
      </g>
     </g>
    </g>
    <g id="ytick_6">
     <g id="line2d_6">
      <path clip-path="url(#p093e13d87e)" d="M 43.148125 76.24829 
L 985.383125 76.24829 
" style="fill:none;stroke:#dedede;stroke-linecap:square;"/>
     </g>
     <g id="text_13">
      <!-- 100 -->
      <g transform="translate(20.878125 79.287665)scale(0.08 -0.08)">
       <use xlink:href="#DejaVuSans-49"/>
       <use x="63.623047" xlink:href="#DejaVuSans-48"/>
       <use x="127.246094" xlink:href="#DejaVuSans-48"/>
      </g>
     </g>
    </g>
    <g id="text_14">
     <!-- Count -->
     <defs>
      <path d="M 30.609375 48.390625 
Q 23.390625 48.390625 19.1875 42.75 
Q 14.984375 37.109375 14.984375 27.296875 
Q 14.984375 17.484375 19.15625 11.84375 
Q 23.34375 6.203125 30.609375 6.203125 
Q 37.796875 6.203125 41.984375 11.859375 
Q 46.1875 17.53125 46.1875 27.296875 
Q 46.1875 37.015625 41.984375 42.703125 
Q 37.796875 48.390625 30.609375 48.390625 
z
M 30.609375 56 
Q 42.328125 56 49.015625 48.375 
Q 55.71875 40.765625 55.71875 27.296875 
Q 55.71875 13.875 49.015625 6.21875 
Q 42.328125 -1.421875 30.609375 -1.421875 
Q 18.84375 -1.421875 12.171875 6.21875 
Q 5.515625 13.875 5.515625 27.296875 
Q 5.515625 40.765625 12.171875 48.375 
Q 18.84375 56 30.609375 56 
z
" id="DejaVuSans-111"/>
      <path d="M 8.5 21.578125 
L 8.5 54.6875 
L 17.484375 54.6875 
L 17.484375 21.921875 
Q 17.484375 14.15625 20.5 10.265625 
Q 23.53125 6.390625 29.59375 6.390625 
Q 36.859375 6.390625 41.078125 11.03125 
Q 45.3125 15.671875 45.3125 23.6875 
L 45.3125 54.6875 
L 54.296875 54.6875 
L 54.296875 0 
L 45.3125 0 
L 45.3125 8.40625 
Q 42.046875 3.421875 37.71875 1 
Q 33.40625 -1.421875 27.6875 -1.421875 
Q 18.265625 -1.421875 13.375 4.4375 
Q 8.5 10.296875 8.5 21.578125 
z
M 31.109375 56 
z
" id="DejaVuSans-117"/>
      <path d="M 54.890625 33.015625 
L 54.890625 0 
L 45.90625 0 
L 45.90625 32.71875 
Q 45.90625 40.484375 42.875 44.328125 
Q 39.84375 48.1875 33.796875 48.1875 
Q 26.515625 48.1875 22.3125 43.546875 
Q 18.109375 38.921875 18.109375 30.90625 
L 18.109375 0 
L 9.078125 0 
L 9.078125 54.6875 
L 18.109375 54.6875 
L 18.109375 46.1875 
Q 21.34375 51.125 25.703125 53.5625 
Q 30.078125 56 35.796875 56 
Q 45.21875 56 50.046875 50.171875 
Q 54.890625 44.34375 54.890625 33.015625 
z
" id="DejaVuSans-110"/>
      <path d="M 18.3125 70.21875 
L 18.3125 54.6875 
L 36.8125 54.6875 
L 36.8125 47.703125 
L 18.3125 47.703125 
L 18.3125 18.015625 
Q 18.3125 11.328125 20.140625 9.421875 
Q 21.96875 7.515625 27.59375 7.515625 
L 36.8125 7.515625 
L 36.8125 0 
L 27.59375 0 
Q 17.1875 0 13.234375 3.875 
Q 9.28125 7.765625 9.28125 18.015625 
L 9.28125 47.703125 
L 2.6875 47.703125 
L 2.6875 54.6875 
L 9.28125 54.6875 
L 9.28125 70.21875 
z
" id="DejaVuSans-116"/>
     </defs>
     <g transform="translate(14.798437 209.088338)rotate(-90)scale(0.1 -0.1)">
      <use xlink:href="#DejaVuSans-67"/>
      <use x="69.824219" xlink:href="#DejaVuSans-111"/>
      <use x="131.005859" xlink:href="#DejaVuSans-117"/>
      <use x="194.384766" xlink:href="#DejaVuSans-110"/>
      <use x="257.763672" xlink:href="#DejaVuSans-116"/>
     </g>
    </g>
   </g>
   <g id="line2d_7">
    <path clip-path="url(#p093e13d87e)" d="M 43.148125 353.2239 
L 52.570475 353.2239 
L 61.992825 353.2239 
L 71.415175 353.2239 
L 80.837525 353.2239 
L 90.259875 353.2239 
L 99.682225 353.2239 
L 109.104575 353.2239 
L 118.526925 353.2239 
L 127.949275 353.2239 
L 137.371625 353.2239 
L 146.793975 353.2239 
L 156.216325 353.2239 
L 165.638675 353.2239 
L 175.061025 353.2239 
L 184.483375 353.2239 
L 193.905725 353.2239 
L 203.328075 353.2239 
L 212.750425 353.2239 
L 222.172775 353.2239 
L 231.595125 353.2239 
L 241.017475 353.2239 
L 250.439825 353.2239 
L 259.862175 353.2239 
L 269.284525 353.2239 
L 278.706875 353.2239 
L 288.129225 353.2239 
L 297.551575 353.2239 
L 306.973925 351.377396 
L 316.396275 352.300648 
L 325.818625 352.300648 
L 335.240975 347.684388 
L 344.663325 351.377396 
L 354.085675 352.300648 
L 363.508025 348.60764 
L 372.930375 346.761136 
L 382.352725 349.530892 
L 391.775075 350.454144 
L 401.197425 350.684957 
L 410.619775 352.531461 
L 420.042125 350.454144 
L 429.464475 344.453006 
L 438.886825 334.06642 
L 448.309175 268.284713 
L 457.731525 252.127802 
L 467.153875 300.598534 
L 476.576225 272.439347 
L 485.998575 257.898128 
L 495.420925 264.591705 
L 504.843275 260.898697 
L 514.265625 309.831054 
L 523.687975 287.442193 
L 533.110325 241.741217 
L 542.532675 195.347802 
L 551.955025 223.968615 
L 561.377375 283.056746 
L 570.799725 294.13577 
L 580.222075 330.604225 
L 589.644425 345.837884 
L 599.066775 346.991949 
L 608.489125 351.377396 
L 617.911475 346.991949 
L 627.333825 351.608209 
L 636.756175 351.608209 
L 646.178525 352.300648 
L 655.600875 353.2239 
L 665.023225 353.2239 
L 674.445575 353.2239 
L 683.867925 353.2239 
L 693.290275 353.2239 
L 702.712625 353.2239 
L 712.134975 353.2239 
L 721.557325 353.2239 
L 730.979675 353.2239 
L 740.402025 353.2239 
L 749.824375 353.2239 
L 759.246725 353.2239 
L 768.669075 353.2239 
L 778.091425 353.2239 
L 787.513775 353.2239 
L 796.936125 353.2239 
L 806.358475 353.2239 
L 815.780825 353.2239 
L 825.203175 353.2239 
L 834.625525 353.2239 
L 844.047875 353.2239 
L 853.470225 353.2239 
L 862.892575 353.2239 
L 872.314925 353.2239 
L 881.737275 353.2239 
L 891.159625 353.2239 
L 900.581975 353.2239 
L 910.004325 353.2239 
L 919.426675 353.2239 
L 928.849025 353.2239 
L 938.271375 353.2239 
L 947.693725 353.2239 
L 957.116075 353.2239 
L 966.538425 353.2239 
L 975.960775 353.2239 
L 985.383125 353.2239 
" style="fill:none;stroke:#d9534f;stroke-linecap:square;"/>
   </g>
   <g id="line2d_8">
    <path clip-path="url(#p093e13d87e)" d="M 43.148125 353.2239 
L 52.570475 353.2239 
L 61.992825 353.2239 
L 71.415175 353.2239 
L 80.837525 353.2239 
L 90.259875 353.2239 
L 99.682225 353.2239 
L 109.104575 353.2239 
L 118.526925 353.2239 
L 127.949275 353.2239 
L 137.371625 353.2239 
L 146.793975 353.2239 
L 156.216325 353.2239 
L 165.638675 353.2239 
L 175.061025 353.2239 
L 184.483375 353.2239 
L 193.905725 353.2239 
L 203.328075 353.2239 
L 212.750425 353.2239 
L 222.172775 353.2239 
L 231.595125 353.2239 
L 241.017475 353.2239 
L 250.439825 353.2239 
L 259.862175 353.2239 
L 269.284525 353.2239 
L 278.706875 353.2239 
L 288.129225 353.2239 
L 297.551575 353.2239 
L 306.973925 352.300648 
L 316.396275 353.2239 
L 325.818625 353.2239 
L 335.240975 353.2239 
L 344.663325 353.2239 
L 354.085675 353.2239 
L 363.508025 353.2239 
L 372.930375 353.2239 
L 382.352725 352.300648 
L 391.775075 352.300648 
L 401.197425 353.2239 
L 410.619775 352.300648 
L 420.042125 350.91577 
L 429.464475 349.530892 
L 438.886825 346.761136 
L 448.309175 210.581461 
L 457.731525 198.348372 
L 467.153875 331.527477 
L 476.576225 314.216502 
L 485.998575 312.139185 
L 495.420925 325.987965 
L 504.843275 313.524063 
L 514.265625 320.21764 
L 523.687975 213.812843 
L 533.110325 162.110729 
L 542.532675 94.713331 
L 551.955025 123.334144 
L 561.377375 281.210241 
L 570.799725 328.296095 
L 580.222075 343.068128 
L 589.644425 343.068128 
L 599.066775 349.761705 
L 608.489125 352.300648 
L 617.911475 353.2239 
L 627.333825 353.2239 
L 636.756175 353.2239 
L 646.178525 353.2239 
L 655.600875 353.2239 
L 665.023225 353.2239 
L 674.445575 353.2239 
L 683.867925 353.2239 
L 693.290275 353.2239 
L 702.712625 353.2239 
L 712.134975 353.2239 
L 721.557325 353.2239 
L 730.979675 353.2239 
L 740.402025 353.2239 
L 749.824375 353.2239 
L 759.246725 353.2239 
L 768.669075 353.2239 
L 778.091425 353.2239 
L 787.513775 353.2239 
L 796.936125 353.2239 
L 806.358475 353.2239 
L 815.780825 353.2239 
L 825.203175 353.2239 
L 834.625525 353.2239 
L 844.047875 353.2239 
L 853.470225 353.2239 
L 862.892575 353.2239 
L 872.314925 353.2239 
L 881.737275 353.2239 
L 891.159625 353.2239 
L 900.581975 353.2239 
L 910.004325 353.2239 
L 919.426675 353.2239 
L 928.849025 353.2239 
L 938.271375 353.2239 
L 947.693725 353.2239 
L 957.116075 353.2239 
L 966.538425 353.2239 
L 975.960775 353.2239 
L 985.383125 353.2239 
" style="fill:none;stroke:#d9534f;stroke-linecap:square;"/>
   </g>
   <g id="line2d_9">
    <path clip-path="url(#p093e13d87e)" d="M 43.148125 353.2239 
L 52.570475 353.2239 
L 61.992825 353.2239 
L 71.415175 353.2239 
L 80.837525 353.2239 
L 90.259875 353.2239 
L 99.682225 353.2239 
L 109.104575 353.2239 
L 118.526925 353.2239 
L 127.949275 353.2239 
L 137.371625 353.2239 
L 146.793975 353.2239 
L 156.216325 353.2239 
L 165.638675 353.2239 
L 175.061025 353.2239 
L 184.483375 353.2239 
L 193.905725 353.2239 
L 203.328075 353.2239 
L 212.750425 353.2239 
L 222.172775 353.2239 
L 231.595125 353.2239 
L 241.017475 353.2239 
L 250.439825 353.2239 
L 259.862175 353.2239 
L 269.284525 353.2239 
L 278.706875 353.2239 
L 288.129225 353.2239 
L 297.551575 353.2239 
L 306.973925 353.2239 
L 316.396275 352.300648 
L 325.818625 347.684388 
L 335.240975 343.068128 
L 344.663325 348.60764 
L 354.085675 349.992518 
L 363.508025 348.146014 
L 372.930375 347.684388 
L 382.352725 349.530892 
L 391.775075 351.377396 
L 401.197425 351.377396 
L 410.619775 353.2239 
L 420.042125 350.91577 
L 429.464475 346.991949 
L 438.886825 343.529754 
L 448.309175 309.138615 
L 457.731525 248.434794 
L 467.153875 288.827071 
L 476.576225 291.82764 
L 485.998575 270.592843 
L 495.420925 281.90268 
L 504.843275 265.284144 
L 514.265625 318.371136 
L 523.687975 292.058453 
L 533.110325 228.12325 
L 542.532675 167.650241 
L 551.955025 191.654794 
L 561.377375 245.203412 
L 570.799725 293.212518 
L 580.222075 335.682111 
L 589.644425 335.912924 
L 599.066775 344.914632 
L 608.489125 352.300648 
L 617.911475 353.2239 
L 627.333825 353.2239 
L 636.756175 353.2239 
L 646.178525 353.2239 
L 655.600875 353.2239 
L 665.023225 353.2239 
L 674.445575 353.2239 
L 683.867925 353.2239 
L 693.290275 353.2239 
L 702.712625 353.2239 
L 712.134975 353.2239 
L 721.557325 353.2239 
L 730.979675 353.2239 
L 740.402025 353.2239 
L 749.824375 353.2239 
L 759.246725 353.2239 
L 768.669075 353.2239 
L 778.091425 353.2239 
L 787.513775 353.2239 
L 796.936125 353.2239 
L 806.358475 353.2239 
L 815.780825 353.2239 
L 825.203175 353.2239 
L 834.625525 353.2239 
L 844.047875 353.2239 
L 853.470225 353.2239 
L 862.892575 353.2239 
L 872.314925 353.2239 
L 881.737275 353.2239 
L 891.159625 353.2239 
L 900.581975 353.2239 
L 910.004325 353.2239 
L 919.426675 353.2239 
L 928.849025 353.2239 
L 938.271375 353.2239 
L 947.693725 353.2239 
L 957.116075 353.2239 
L 966.538425 353.2239 
L 975.960775 353.2239 
L 985.383125 353.2239 
" style="fill:none;stroke:#d9534f;stroke-linecap:square;"/>
   </g>
   <g id="line2d_10">
    <path clip-path="url(#p093e13d87e)" d="M 43.148125 353.2239 
L 52.570475 353.2239 
L 61.992825 353.2239 
L 71.415175 353.2239 
L 80.837525 353.2239 
L 90.259875 353.2239 
L 99.682225 353.2239 
L 109.104575 353.2239 
L 118.526925 353.2239 
L 127.949275 353.2239 
L 137.371625 353.2239 
L 146.793975 353.2239 
L 156.216325 353.2239 
L 165.638675 353.2239 
L 175.061025 353.2239 
L 184.483375 353.2239 
L 193.905725 353.2239 
L 203.328075 353.2239 
L 212.750425 353.2239 
L 222.172775 353.2239 
L 231.595125 353.2239 
L 241.017475 353.2239 
L 250.439825 353.2239 
L 259.862175 353.2239 
L 269.284525 353.2239 
L 278.706875 353.2239 
L 288.129225 353.2239 
L 297.551575 353.2239 
L 306.973925 353.2239 
L 316.396275 353.2239 
L 325.818625 353.2239 
L 335.240975 352.300648 
L 344.663325 351.377396 
L 354.085675 350.91577 
L 363.508025 351.839022 
L 372.930375 353.2239 
L 382.352725 353.2239 
L 391.775075 353.2239 
L 401.197425 353.2239 
L 410.619775 352.531461 
L 420.042125 352.531461 
L 429.464475 349.530892 
L 438.886825 349.530892 
L 448.309175 290.211949 
L 457.731525 286.288128 
L 467.153875 334.297233 
L 476.576225 303.137477 
L 485.998575 304.522355 
L 495.420925 325.064713 
L 504.843275 320.679266 
L 514.265625 330.835038 
L 523.687975 218.890729 
L 533.110325 151.954957 
L 542.532675 50.397233 
L 551.955025 100.483656 
L 561.377375 247.049916 
L 570.799725 312.600811 
L 580.222075 342.144876 
L 589.644425 343.99138 
L 599.066775 351.377396 
L 608.489125 353.2239 
L 617.911475 353.2239 
L 627.333825 353.2239 
L 636.756175 353.2239 
L 646.178525 353.2239 
L 655.600875 353.2239 
L 665.023225 353.2239 
L 674.445575 353.2239 
L 683.867925 353.2239 
L 693.290275 353.2239 
L 702.712625 353.2239 
L 712.134975 353.2239 
L 721.557325 353.2239 
L 730.979675 353.2239 
L 740.402025 353.2239 
L 749.824375 353.2239 
L 759.246725 353.2239 
L 768.669075 353.2239 
L 778.091425 353.2239 
L 787.513775 353.2239 
L 796.936125 353.2239 
L 806.358475 353.2239 
L 815.780825 353.2239 
L 825.203175 353.2239 
L 834.625525 353.2239 
L 844.047875 353.2239 
L 853.470225 353.2239 
L 862.892575 353.2239 
L 872.314925 353.2239 
L 881.737275 353.2239 
L 891.159625 353.2239 
L 900.581975 353.2239 
L 910.004325 353.2239 
L 919.426675 353.2239 
L 928.849025 353.2239 
L 938.271375 353.2239 
L 947.693725 353.2239 
L 957.116075 353.2239 
L 966.538425 353.2239 
L 975.960775 353.2239 
L 985.383125 353.2239 
" style="fill:none;stroke:#d9534f;stroke-linecap:square;"/>
   </g>
   <g id="line2d_11">
    <path clip-path="url(#p093e13d87e)" d="M 43.148125 353.2239 
L 52.570475 353.2239 
L 61.992825 353.2239 
L 71.415175 353.2239 
L 80.837525 353.2239 
L 90.259875 353.2239 
L 99.682225 353.2239 
L 109.104575 353.2239 
L 118.526925 353.2239 
L 127.949275 353.2239 
L 137.371625 353.2239 
L 146.793975 353.2239 
L 156.216325 353.2239 
L 165.638675 353.2239 
L 175.061025 353.2239 
L 184.483375 353.2239 
L 193.905725 353.2239 
L 203.328075 353.2239 
L 212.750425 353.2239 
L 222.172775 353.2239 
L 231.595125 353.2239 
L 241.017475 353.2239 
L 250.439825 353.2239 
L 259.862175 353.2239 
L 269.284525 348.60764 
L 278.706875 353.2239 
L 288.129225 353.2239 
L 297.551575 353.2239 
L 306.973925 353.2239 
L 316.396275 353.2239 
L 325.818625 349.530892 
L 335.240975 348.60764 
L 344.663325 348.60764 
L 354.085675 350.454144 
L 363.508025 353.2239 
L 372.930375 349.530892 
L 382.352725 351.377396 
L 391.775075 353.2239 
L 401.197425 352.300648 
L 410.619775 350.454144 
L 420.042125 349.530892 
L 429.464475 345.837884 
L 438.886825 342.606502 
L 448.309175 290.904388 
L 457.731525 267.823087 
L 467.153875 287.673006 
L 476.576225 278.440485 
L 485.998575 205.734388 
L 495.420925 150.339266 
L 504.843275 68.169835 
L 514.265625 312.831624 
L 523.687975 309.831054 
L 533.110325 269.438778 
L 542.532675 273.824225 
L 551.955025 287.673006 
L 561.377375 310.754307 
L 570.799725 335.682111 
L 580.222075 341.221624 
L 589.644425 346.761136 
L 599.066775 350.454144 
L 608.489125 352.300648 
L 617.911475 352.300648 
L 627.333825 353.2239 
L 636.756175 352.300648 
L 646.178525 352.300648 
L 655.600875 353.2239 
L 665.023225 353.2239 
L 674.445575 353.2239 
L 683.867925 353.2239 
L 693.290275 353.2239 
L 702.712625 353.2239 
L 712.134975 353.2239 
L 721.557325 353.2239 
L 730.979675 353.2239 
L 740.402025 353.2239 
L 749.824375 353.2239 
L 759.246725 353.2239 
L 768.669075 353.2239 
L 778.091425 353.2239 
L 787.513775 353.2239 
L 796.936125 353.2239 
L 806.358475 353.2239 
L 815.780825 353.2239 
L 825.203175 353.2239 
L 834.625525 353.2239 
L 844.047875 353.2239 
L 853.470225 353.2239 
L 862.892575 353.2239 
L 872.314925 353.2239 
L 881.737275 353.2239 
L 891.159625 353.2239 
L 900.581975 353.2239 
L 910.004325 353.2239 
L 919.426675 353.2239 
L 928.849025 353.2239 
L 938.271375 353.2239 
L 947.693725 353.2239 
L 957.116075 353.2239 
L 966.538425 353.2239 
L 975.960775 353.2239 
L 985.383125 353.2239 
" style="fill:none;stroke:#d9534f;stroke-linecap:square;"/>
   </g>
   <g id="line2d_12">
    <path clip-path="url(#p093e13d87e)" d="M 43.148125 353.2239 
L 52.570475 353.2239 
L 61.992825 353.2239 
L 71.415175 353.2239 
L 80.837525 353.2239 
L 90.259875 353.2239 
L 99.682225 353.2239 
L 109.104575 353.2239 
L 118.526925 353.2239 
L 127.949275 353.2239 
L 137.371625 353.2239 
L 146.793975 353.2239 
L 156.216325 353.2239 
L 165.638675 353.2239 
L 175.061025 353.2239 
L 184.483375 353.2239 
L 193.905725 353.2239 
L 203.328075 353.2239 
L 212.750425 353.2239 
L 222.172775 353.2239 
L 231.595125 353.2239 
L 241.017475 353.2239 
L 250.439825 353.2239 
L 259.862175 353.2239 
L 269.284525 353.2239 
L 278.706875 353.2239 
L 288.129225 353.2239 
L 297.551575 353.2239 
L 306.973925 353.2239 
L 316.396275 353.2239 
L 325.818625 352.300648 
L 335.240975 352.300648 
L 344.663325 351.377396 
L 354.085675 352.300648 
L 363.508025 352.300648 
L 372.930375 352.300648 
L 382.352725 353.2239 
L 391.775075 351.608209 
L 401.197425 349.300079 
L 410.619775 349.530892 
L 420.042125 347.222762 
L 429.464475 345.145445 
L 438.886825 346.068697 
L 448.309175 273.593412 
L 457.731525 267.592274 
L 467.153875 305.907233 
L 476.576225 291.82764 
L 485.998575 280.056176 
L 495.420925 281.671867 
L 504.843275 271.977721 
L 514.265625 314.908941 
L 523.687975 252.127802 
L 533.110325 179.883331 
L 542.532675 144.568941 
L 551.955025 190.269916 
L 561.377375 270.131217 
L 570.799725 319.986827 
L 580.222075 340.529185 
L 589.644425 342.144876 
L 599.066775 347.684388 
L 608.489125 352.531461 
L 617.911475 353.2239 
L 627.333825 353.2239 
L 636.756175 353.2239 
L 646.178525 353.2239 
L 655.600875 353.2239 
L 665.023225 353.2239 
L 674.445575 353.2239 
L 683.867925 353.2239 
L 693.290275 353.2239 
L 702.712625 353.2239 
L 712.134975 353.2239 
L 721.557325 353.2239 
L 730.979675 353.2239 
L 740.402025 353.2239 
L 749.824375 353.2239 
L 759.246725 353.2239 
L 768.669075 353.2239 
L 778.091425 353.2239 
L 787.513775 353.2239 
L 796.936125 353.2239 
L 806.358475 353.2239 
L 815.780825 353.2239 
L 825.203175 353.2239 
L 834.625525 353.2239 
L 844.047875 353.2239 
L 853.470225 353.2239 
L 862.892575 353.2239 
L 872.314925 353.2239 
L 881.737275 353.2239 
L 891.159625 353.2239 
L 900.581975 353.2239 
L 910.004325 353.2239 
L 919.426675 353.2239 
L 928.849025 353.2239 
L 938.271375 353.2239 
L 947.693725 353.2239 
L 957.116075 353.2239 
L 966.538425 353.2239 
L 975.960775 353.2239 
L 985.383125 353.2239 
" style="fill:none;stroke:#d9534f;stroke-linecap:square;"/>
   </g>
   <g id="line2d_13">
    <path clip-path="url(#p093e13d87e)" d="M 43.148125 353.2239 
L 52.570475 353.2239 
L 61.992825 353.2239 
L 71.415175 353.2239 
L 80.837525 353.2239 
L 90.259875 353.2239 
L 99.682225 353.2239 
L 109.104575 353.2239 
L 118.526925 353.2239 
L 127.949275 353.2239 
L 137.371625 353.2239 
L 146.793975 353.2239 
L 156.216325 353.2239 
L 165.638675 353.2239 
L 175.061025 353.2239 
L 184.483375 353.2239 
L 193.905725 353.2239 
L 203.328075 353.2239 
L 212.750425 353.2239 
L 222.172775 353.2239 
L 231.595125 353.2239 
L 241.017475 353.2239 
L 250.439825 353.2239 
L 259.862175 353.2239 
L 269.284525 350.454144 
L 278.706875 352.300648 
L 288.129225 352.300648 
L 297.551575 353.2239 
L 306.973925 353.2239 
L 316.396275 352.300648 
L 325.818625 350.454144 
L 335.240975 352.300648 
L 344.663325 352.300648 
L 354.085675 351.377396 
L 363.508025 351.377396 
L 372.930375 352.300648 
L 382.352725 353.2239 
L 391.775075 353.2239 
L 401.197425 353.2239 
L 410.619775 350.684957 
L 420.042125 349.761705 
L 429.464475 346.530323 
L 438.886825 339.144307 
L 448.309175 293.674144 
L 457.731525 272.208534 
L 467.153875 292.289266 
L 476.576225 277.28642 
L 485.998575 193.501298 
L 495.420925 157.494469 
L 504.843275 121.256827 
L 514.265625 306.599672 
L 523.687975 309.831054 
L 533.110325 273.131786 
L 542.532675 261.12951 
L 551.955025 275.209103 
L 561.377375 309.138615 
L 570.799725 330.142599 
L 580.222075 339.37512 
L 589.644425 341.221624 
L 599.066775 346.761136 
L 608.489125 352.300648 
L 617.911475 353.2239 
L 627.333825 353.2239 
L 636.756175 353.2239 
L 646.178525 353.2239 
L 655.600875 353.2239 
L 665.023225 353.2239 
L 674.445575 353.2239 
L 683.867925 353.2239 
L 693.290275 353.2239 
L 702.712625 353.2239 
L 712.134975 353.2239 
L 721.557325 353.2239 
L 730.979675 353.2239 
L 740.402025 353.2239 
L 749.824375 353.2239 
L 759.246725 353.2239 
L 768.669075 353.2239 
L 778.091425 353.2239 
L 787.513775 353.2239 
L 796.936125 353.2239 
L 806.358475 353.2239 
L 815.780825 353.2239 
L 825.203175 353.2239 
L 834.625525 353.2239 
L 844.047875 353.2239 
L 853.470225 353.2239 
L 862.892575 353.2239 
L 872.314925 353.2239 
L 881.737275 353.2239 
L 891.159625 353.2239 
L 900.581975 353.2239 
L 910.004325 353.2239 
L 919.426675 353.2239 
L 928.849025 353.2239 
L 938.271375 353.2239 
L 947.693725 353.2239 
L 957.116075 353.2239 
L 966.538425 353.2239 
L 975.960775 353.2239 
L 985.383125 353.2239 
" style="fill:none;stroke:#d9534f;stroke-linecap:square;"/>
   </g>
   <g id="line2d_14">
    <path clip-path="url(#p093e13d87e)" d="M 43.148125 353.2239 
L 52.570475 353.2239 
L 61.992825 353.2239 
L 71.415175 353.2239 
L 80.837525 353.2239 
L 90.259875 353.2239 
L 99.682225 353.2239 
L 109.104575 353.2239 
L 118.526925 353.2239 
L 127.949275 353.2239 
L 137.371625 353.2239 
L 146.793975 353.2239 
L 156.216325 353.2239 
L 165.638675 353.2239 
L 175.061025 353.2239 
L 184.483375 353.2239 
L 193.905725 353.2239 
L 203.328075 353.2239 
L 212.750425 353.2239 
L 222.172775 353.2239 
L 231.595125 353.2239 
L 241.017475 353.2239 
L 250.439825 353.2239 
L 259.862175 353.2239 
L 269.284525 353.2239 
L 278.706875 353.2239 
L 288.129225 353.2239 
L 297.551575 353.2239 
L 306.973925 353.2239 
L 316.396275 353.2239 
L 325.818625 353.2239 
L 335.240975 351.377396 
L 344.663325 352.300648 
L 354.085675 353.2239 
L 363.508025 353.2239 
L 372.930375 351.839022 
L 382.352725 351.839022 
L 391.775075 353.2239 
L 401.197425 353.2239 
L 410.619775 352.531461 
L 420.042125 353.2239 
L 429.464475 349.300079 
L 438.886825 350.684957 
L 448.309175 252.358615 
L 457.731525 237.35577 
L 467.153875 320.448453 
L 476.576225 282.59512 
L 485.998575 262.052762 
L 495.420925 290.211949 
L 504.843275 278.209672 
L 514.265625 321.833331 
L 523.687975 247.049916 
L 533.110325 162.110729 
L 542.532675 155.647965 
L 551.955025 175.95951 
L 561.377375 270.131217 
L 570.799725 315.370567 
L 580.222075 344.914632 
L 589.644425 348.838453 
L 599.066775 343.529754 
L 608.489125 349.069266 
L 617.911475 352.300648 
L 627.333825 352.300648 
L 636.756175 353.2239 
L 646.178525 353.2239 
L 655.600875 353.2239 
L 665.023225 353.2239 
L 674.445575 353.2239 
L 683.867925 353.2239 
L 693.290275 353.2239 
L 702.712625 353.2239 
L 712.134975 353.2239 
L 721.557325 353.2239 
L 730.979675 353.2239 
L 740.402025 353.2239 
L 749.824375 353.2239 
L 759.246725 353.2239 
L 768.669075 353.2239 
L 778.091425 353.2239 
L 787.513775 353.2239 
L 796.936125 353.2239 
L 806.358475 353.2239 
L 815.780825 353.2239 
L 825.203175 353.2239 
L 834.625525 353.2239 
L 844.047875 353.2239 
L 853.470225 353.2239 
L 862.892575 353.2239 
L 872.314925 353.2239 
L 881.737275 353.2239 
L 891.159625 353.2239 
L 900.581975 353.2239 
L 910.004325 353.2239 
L 919.426675 353.2239 
L 928.849025 353.2239 
L 938.271375 353.2239 
L 947.693725 353.2239 
L 957.116075 353.2239 
L 966.538425 353.2239 
L 975.960775 353.2239 
L 985.383125 353.2239 
" style="fill:none;stroke:#d9534f;stroke-linecap:square;"/>
   </g>
   <g id="line2d_15">
    <path clip-path="url(#p093e13d87e)" d="M 43.148125 353.2239 
L 52.570475 353.2239 
L 61.992825 353.2239 
L 71.415175 353.2239 
L 80.837525 353.2239 
L 90.259875 353.2239 
L 99.682225 353.2239 
L 109.104575 353.2239 
L 118.526925 353.2239 
L 127.949275 353.2239 
L 137.371625 353.2239 
L 146.793975 353.2239 
L 156.216325 353.2239 
L 165.638675 353.2239 
L 175.061025 353.2239 
L 184.483375 353.2239 
L 193.905725 353.2239 
L 203.328075 353.2239 
L 212.750425 353.2239 
L 222.172775 353.2239 
L 231.595125 353.2239 
L 241.017475 353.2239 
L 250.439825 353.2239 
L 259.862175 353.2239 
L 269.284525 353.2239 
L 278.706875 353.2239 
L 288.129225 353.2239 
L 297.551575 353.2239 
L 306.973925 353.2239 
L 316.396275 351.377396 
L 325.818625 352.300648 
L 335.240975 350.454144 
L 344.663325 351.377396 
L 354.085675 352.300648 
L 363.508025 352.300648 
L 372.930375 353.2239 
L 382.352725 353.2239 
L 391.775075 352.300648 
L 401.197425 350.454144 
L 410.619775 350.684957 
L 420.042125 351.608209 
L 429.464475 340.067559 
L 438.886825 333.143168 
L 448.309175 263.668453 
L 457.731525 297.828778 
L 467.153875 310.29268 
L 476.576225 303.137477 
L 485.998575 279.363737 
L 495.420925 267.130648 
L 504.843275 266.207396 
L 514.265625 282.133493 
L 523.687975 289.057884 
L 533.110325 269.438778 
L 542.532675 199.040811 
L 551.955025 186.576908 
L 561.377375 275.901542 
L 570.799725 285.826502 
L 580.222075 328.296095 
L 589.644425 325.064713 
L 599.066775 339.836746 
L 608.489125 351.377396 
L 617.911475 349.530892 
L 627.333825 351.377396 
L 636.756175 351.377396 
L 646.178525 352.300648 
L 655.600875 353.2239 
L 665.023225 353.2239 
L 674.445575 353.2239 
L 683.867925 353.2239 
L 693.290275 353.2239 
L 702.712625 353.2239 
L 712.134975 353.2239 
L 721.557325 353.2239 
L 730.979675 353.2239 
L 740.402025 353.2239 
L 749.824375 353.2239 
L 759.246725 353.2239 
L 768.669075 353.2239 
L 778.091425 353.2239 
L 787.513775 353.2239 
L 796.936125 353.2239 
L 806.358475 353.2239 
L 815.780825 353.2239 
L 825.203175 353.2239 
L 834.625525 353.2239 
L 844.047875 353.2239 
L 853.470225 353.2239 
L 862.892575 353.2239 
L 872.314925 353.2239 
L 881.737275 353.2239 
L 891.159625 353.2239 
L 900.581975 353.2239 
L 910.004325 353.2239 
L 919.426675 353.2239 
L 928.849025 353.2239 
L 938.271375 353.2239 
L 947.693725 353.2239 
L 957.116075 353.2239 
L 966.538425 353.2239 
L 975.960775 353.2239 
L 985.383125 353.2239 
" style="fill:none;stroke:#d9534f;stroke-linecap:square;"/>
   </g>
   <g id="line2d_16">
    <path clip-path="url(#p093e13d87e)" d="M 43.148125 353.2239 
L 52.570475 353.2239 
L 61.992825 353.2239 
L 71.415175 353.2239 
L 80.837525 353.2239 
L 90.259875 353.2239 
L 99.682225 353.2239 
L 109.104575 353.2239 
L 118.526925 353.2239 
L 127.949275 353.2239 
L 137.371625 353.2239 
L 146.793975 353.2239 
L 156.216325 353.2239 
L 165.638675 353.2239 
L 175.061025 353.2239 
L 184.483375 353.2239 
L 193.905725 353.2239 
L 203.328075 353.2239 
L 212.750425 353.2239 
L 222.172775 353.2239 
L 231.595125 353.2239 
L 241.017475 353.2239 
L 250.439825 353.2239 
L 259.862175 353.2239 
L 269.284525 353.2239 
L 278.706875 353.2239 
L 288.129225 353.2239 
L 297.551575 353.2239 
L 306.973925 353.2239 
L 316.396275 353.2239 
L 325.818625 353.2239 
L 335.240975 353.2239 
L 344.663325 350.454144 
L 354.085675 351.377396 
L 363.508025 353.2239 
L 372.930375 353.2239 
L 382.352725 353.2239 
L 391.775075 351.377396 
L 401.197425 349.761705 
L 410.619775 351.839022 
L 420.042125 349.992518 
L 429.464475 350.91577 
L 438.886825 349.069266 
L 448.309175 221.429672 
L 457.731525 201.810567 
L 467.153875 317.90951 
L 476.576225 316.986258 
L 485.998575 284.441624 
L 495.420925 294.366583 
L 504.843275 282.825933 
L 514.265625 272.208534 
L 523.687975 243.356908 
L 533.110325 138.336989 
L 542.532675 202.04138 
L 551.955025 232.277884 
L 561.377375 290.442762 
L 570.799725 317.217071 
L 580.222075 334.06642 
L 589.644425 341.452437 
L 599.066775 351.377396 
L 608.489125 353.2239 
L 617.911475 353.2239 
L 627.333825 351.839022 
L 636.756175 351.608209 
L 646.178525 352.300648 
L 655.600875 353.2239 
L 665.023225 353.2239 
L 674.445575 353.2239 
L 683.867925 353.2239 
L 693.290275 353.2239 
L 702.712625 353.2239 
L 712.134975 353.2239 
L 721.557325 353.2239 
L 730.979675 353.2239 
L 740.402025 353.2239 
L 749.824375 353.2239 
L 759.246725 353.2239 
L 768.669075 353.2239 
L 778.091425 353.2239 
L 787.513775 353.2239 
L 796.936125 353.2239 
L 806.358475 353.2239 
L 815.780825 353.2239 
L 825.203175 353.2239 
L 834.625525 353.2239 
L 844.047875 353.2239 
L 853.470225 353.2239 
L 862.892575 353.2239 
L 872.314925 353.2239 
L 881.737275 353.2239 
L 891.159625 353.2239 
L 900.581975 353.2239 
L 910.004325 353.2239 
L 919.426675 353.2239 
L 928.849025 353.2239 
L 938.271375 353.2239 
L 947.693725 353.2239 
L 957.116075 353.2239 
L 966.538425 353.2239 
L 975.960775 353.2239 
L 985.383125 353.2239 
" style="fill:none;stroke:#d9534f;stroke-linecap:square;"/>
   </g>
   <g id="line2d_17">
    <path clip-path="url(#p093e13d87e)" d="M 43.148125 353.2239 
L 52.570475 353.2239 
L 61.992825 353.2239 
L 71.415175 353.2239 
L 80.837525 353.2239 
L 90.259875 353.2239 
L 99.682225 353.2239 
L 109.104575 353.2239 
L 118.526925 353.2239 
L 127.949275 353.2239 
L 137.371625 353.2239 
L 146.793975 353.2239 
L 156.216325 353.2239 
L 165.638675 353.2239 
L 175.061025 353.2239 
L 184.483375 353.2239 
L 193.905725 353.2239 
L 203.328075 353.2239 
L 212.750425 353.2239 
L 222.172775 353.2239 
L 231.595125 353.2239 
L 241.017475 353.2239 
L 250.439825 353.2239 
L 259.862175 353.2239 
L 269.284525 353.2239 
L 278.706875 353.2239 
L 288.129225 349.530892 
L 297.551575 353.2239 
L 306.973925 353.2239 
L 316.396275 348.60764 
L 325.818625 348.60764 
L 335.240975 347.684388 
L 344.663325 351.377396 
L 354.085675 345.837884 
L 363.508025 345.837884 
L 372.930375 351.377396 
L 382.352725 349.530892 
L 391.775075 351.377396 
L 401.197425 351.377396 
L 410.619775 348.146014 
L 420.042125 350.223331 
L 429.464475 347.453575 
L 438.886825 335.451298 
L 448.309175 268.284713 
L 457.731525 297.367152 
L 467.153875 298.75203 
L 476.576225 217.044225 
L 485.998575 216.582599 
L 495.420925 255.128372 
L 504.843275 277.978859 
L 514.265625 292.058453 
L 523.687975 287.903819 
L 533.110325 285.826502 
L 542.532675 242.433656 
L 551.955025 242.433656 
L 561.377375 307.061298 
L 570.799725 312.600811 
L 580.222075 331.065851 
L 589.644425 346.761136 
L 599.066775 351.377396 
L 608.489125 353.2239 
L 617.911475 350.454144 
L 627.333825 348.60764 
L 636.756175 351.377396 
L 646.178525 353.2239 
L 655.600875 353.2239 
L 665.023225 353.2239 
L 674.445575 353.2239 
L 683.867925 353.2239 
L 693.290275 353.2239 
L 702.712625 353.2239 
L 712.134975 353.2239 
L 721.557325 353.2239 
L 730.979675 353.2239 
L 740.402025 353.2239 
L 749.824375 353.2239 
L 759.246725 353.2239 
L 768.669075 353.2239 
L 778.091425 353.2239 
L 787.513775 353.2239 
L 796.936125 353.2239 
L 806.358475 353.2239 
L 815.780825 353.2239 
L 825.203175 353.2239 
L 834.625525 353.2239 
L 844.047875 353.2239 
L 853.470225 353.2239 
L 862.892575 353.2239 
L 872.314925 353.2239 
L 881.737275 353.2239 
L 891.159625 353.2239 
L 900.581975 353.2239 
L 910.004325 353.2239 
L 919.426675 353.2239 
L 928.849025 353.2239 
L 938.271375 353.2239 
L 947.693725 353.2239 
L 957.116075 353.2239 
L 966.538425 353.2239 
L 975.960775 353.2239 
L 985.383125 353.2239 
" style="fill:none;stroke:#d9534f;stroke-linecap:square;"/>
   </g>
   <g id="line2d_18">
    <path clip-path="url(#p093e13d87e)" d="M 43.148125 353.2239 
L 52.570475 353.2239 
L 61.992825 353.2239 
L 71.415175 353.2239 
L 80.837525 353.2239 
L 90.259875 353.2239 
L 99.682225 353.2239 
L 109.104575 353.2239 
L 118.526925 353.2239 
L 127.949275 353.2239 
L 137.371625 353.2239 
L 146.793975 353.2239 
L 156.216325 353.2239 
L 165.638675 353.2239 
L 175.061025 353.2239 
L 184.483375 353.2239 
L 193.905725 353.2239 
L 203.328075 353.2239 
L 212.750425 353.2239 
L 222.172775 353.2239 
L 231.595125 353.2239 
L 241.017475 353.2239 
L 250.439825 353.2239 
L 259.862175 353.2239 
L 269.284525 353.2239 
L 278.706875 353.2239 
L 288.129225 353.2239 
L 297.551575 353.2239 
L 306.973925 353.2239 
L 316.396275 353.2239 
L 325.818625 353.2239 
L 335.240975 352.300648 
L 344.663325 353.2239 
L 354.085675 351.377396 
L 363.508025 352.300648 
L 372.930375 353.2239 
L 382.352725 353.2239 
L 391.775075 353.2239 
L 401.197425 353.2239 
L 410.619775 352.300648 
L 420.042125 350.91577 
L 429.464475 348.376827 
L 438.886825 345.837884 
L 448.309175 217.967477 
L 457.731525 203.426258 
L 467.153875 310.061867 
L 476.576225 309.600241 
L 485.998575 283.056746 
L 495.420925 278.209672 
L 504.843275 270.131217 
L 514.265625 285.364876 
L 523.687975 239.894713 
L 533.110325 166.726989 
L 542.532675 206.426827 
L 551.955025 223.045363 
L 561.377375 292.289266 
L 570.799725 310.754307 
L 580.222075 328.296095 
L 589.644425 342.375689 
L 599.066775 352.300648 
L 608.489125 352.300648 
L 617.911475 353.2239 
L 627.333825 352.300648 
L 636.756175 352.300648 
L 646.178525 352.300648 
L 655.600875 352.300648 
L 665.023225 353.2239 
L 674.445575 353.2239 
L 683.867925 353.2239 
L 693.290275 353.2239 
L 702.712625 353.2239 
L 712.134975 353.2239 
L 721.557325 353.2239 
L 730.979675 353.2239 
L 740.402025 353.2239 
L 749.824375 353.2239 
L 759.246725 353.2239 
L 768.669075 353.2239 
L 778.091425 353.2239 
L 787.513775 353.2239 
L 796.936125 353.2239 
L 806.358475 353.2239 
L 815.780825 353.2239 
L 825.203175 353.2239 
L 834.625525 353.2239 
L 844.047875 353.2239 
L 853.470225 353.2239 
L 862.892575 353.2239 
L 872.314925 353.2239 
L 881.737275 353.2239 
L 891.159625 353.2239 
L 900.581975 353.2239 
L 910.004325 353.2239 
L 919.426675 353.2239 
L 928.849025 353.2239 
L 938.271375 353.2239 
L 947.693725 353.2239 
L 957.116075 353.2239 
L 966.538425 353.2239 
L 975.960775 353.2239 
L 985.383125 353.2239 
" style="fill:none;stroke:#d9534f;stroke-linecap:square;"/>
   </g>
   <g id="line2d_19">
    <path clip-path="url(#p093e13d87e)" d="M 43.148125 353.2239 
L 52.570475 353.2239 
L 61.992825 353.2239 
L 71.415175 353.2239 
L 80.837525 353.2239 
L 90.259875 353.2239 
L 99.682225 353.2239 
L 109.104575 353.2239 
L 118.526925 353.2239 
L 127.949275 353.2239 
L 137.371625 353.2239 
L 146.793975 353.2239 
L 156.216325 353.2239 
L 165.638675 353.2239 
L 175.061025 353.2239 
L 184.483375 353.2239 
L 193.905725 353.2239 
L 203.328075 353.2239 
L 212.750425 353.2239 
L 222.172775 353.2239 
L 231.595125 353.2239 
L 241.017475 353.2239 
L 250.439825 353.2239 
L 259.862175 353.2239 
L 269.284525 353.2239 
L 278.706875 353.2239 
L 288.129225 347.684388 
L 297.551575 350.454144 
L 306.973925 352.300648 
L 316.396275 349.530892 
L 325.818625 350.454144 
L 335.240975 351.377396 
L 344.663325 353.2239 
L 354.085675 340.298372 
L 363.508025 339.37512 
L 372.930375 351.608209 
L 382.352725 353.2239 
L 391.775075 353.2239 
L 401.197425 353.2239 
L 410.619775 352.300648 
L 420.042125 350.91577 
L 429.464475 346.761136 
L 438.886825 340.298372 
L 448.309175 304.060729 
L 457.731525 298.059591 
L 467.153875 292.750892 
L 476.576225 191.193168 
L 485.998575 245.203412 
L 495.420925 259.052193 
L 504.843275 245.665038 
L 514.265625 311.677559 
L 523.687975 306.138046 
L 533.110325 281.210241 
L 542.532675 265.514957 
L 551.955025 232.277884 
L 561.377375 292.289266 
L 570.799725 295.982274 
L 580.222075 330.142599 
L 589.644425 343.99138 
L 599.066775 348.60764 
L 608.489125 353.2239 
L 617.911475 350.454144 
L 627.333825 348.60764 
L 636.756175 352.300648 
L 646.178525 352.300648 
L 655.600875 353.2239 
L 665.023225 353.2239 
L 674.445575 353.2239 
L 683.867925 353.2239 
L 693.290275 353.2239 
L 702.712625 353.2239 
L 712.134975 353.2239 
L 721.557325 353.2239 
L 730.979675 353.2239 
L 740.402025 353.2239 
L 749.824375 353.2239 
L 759.246725 353.2239 
L 768.669075 353.2239 
L 778.091425 353.2239 
L 787.513775 353.2239 
L 796.936125 353.2239 
L 806.358475 353.2239 
L 815.780825 353.2239 
L 825.203175 353.2239 
L 834.625525 353.2239 
L 844.047875 353.2239 
L 853.470225 353.2239 
L 862.892575 353.2239 
L 872.314925 353.2239 
L 881.737275 353.2239 
L 891.159625 353.2239 
L 900.581975 353.2239 
L 910.004325 353.2239 
L 919.426675 353.2239 
L 928.849025 353.2239 
L 938.271375 353.2239 
L 947.693725 353.2239 
L 957.116075 353.2239 
L 966.538425 353.2239 
L 975.960775 353.2239 
L 985.383125 353.2239 
" style="fill:none;stroke:#d9534f;stroke-linecap:square;"/>
   </g>
   <g id="line2d_20">
    <path clip-path="url(#p093e13d87e)" d="M 43.148125 353.2239 
L 52.570475 353.2239 
L 61.992825 353.2239 
L 71.415175 353.2239 
L 80.837525 353.2239 
L 90.259875 353.2239 
L 99.682225 353.2239 
L 109.104575 353.2239 
L 118.526925 353.2239 
L 127.949275 353.2239 
L 137.371625 353.2239 
L 146.793975 353.2239 
L 156.216325 353.2239 
L 165.638675 353.2239 
L 175.061025 353.2239 
L 184.483375 353.2239 
L 193.905725 353.2239 
L 203.328075 353.2239 
L 212.750425 353.2239 
L 222.172775 353.2239 
L 231.595125 353.2239 
L 241.017475 353.2239 
L 250.439825 353.2239 
L 259.862175 353.2239 
L 269.284525 353.2239 
L 278.706875 353.2239 
L 288.129225 353.2239 
L 297.551575 353.2239 
L 306.973925 353.2239 
L 316.396275 353.2239 
L 325.818625 352.300648 
L 335.240975 353.2239 
L 344.663325 353.2239 
L 354.085675 353.2239 
L 363.508025 353.2239 
L 372.930375 351.377396 
L 382.352725 351.377396 
L 391.775075 352.300648 
L 401.197425 350.684957 
L 410.619775 350.454144 
L 420.042125 351.608209 
L 429.464475 349.761705 
L 438.886825 350.684957 
L 448.309175 235.970892 
L 457.731525 226.969185 
L 467.153875 318.140323 
L 476.576225 315.60138 
L 485.998575 275.670729 
L 495.420925 293.443331 
L 504.843275 290.211949 
L 514.265625 292.750892 
L 523.687975 237.124957 
L 533.110325 130.027721 
L 542.532675 220.275607 
L 551.955025 230.43138 
L 561.377375 259.052193 
L 570.799725 286.749754 
L 580.222075 329.219347 
L 589.644425 339.37512 
L 599.066775 350.454144 
L 608.489125 352.531461 
L 617.911475 352.531461 
L 627.333825 353.2239 
L 636.756175 353.2239 
L 646.178525 353.2239 
L 655.600875 353.2239 
L 665.023225 353.2239 
L 674.445575 353.2239 
L 683.867925 353.2239 
L 693.290275 353.2239 
L 702.712625 353.2239 
L 712.134975 353.2239 
L 721.557325 353.2239 
L 730.979675 353.2239 
L 740.402025 353.2239 
L 749.824375 353.2239 
L 759.246725 353.2239 
L 768.669075 353.2239 
L 778.091425 353.2239 
L 787.513775 353.2239 
L 796.936125 353.2239 
L 806.358475 353.2239 
L 815.780825 353.2239 
L 825.203175 353.2239 
L 834.625525 353.2239 
L 844.047875 353.2239 
L 853.470225 353.2239 
L 862.892575 353.2239 
L 872.314925 353.2239 
L 881.737275 353.2239 
L 891.159625 353.2239 
L 900.581975 353.2239 
L 910.004325 353.2239 
L 919.426675 353.2239 
L 928.849025 353.2239 
L 938.271375 353.2239 
L 947.693725 353.2239 
L 957.116075 353.2239 
L 966.538425 353.2239 
L 975.960775 353.2239 
L 985.383125 353.2239 
" style="fill:none;stroke:#d9534f;stroke-linecap:square;"/>
   </g>
   <g id="line2d_21">
    <path clip-path="url(#p093e13d87e)" d="M 43.148125 353.2239 
L 52.570475 353.2239 
L 61.992825 353.2239 
L 71.415175 353.2239 
L 80.837525 353.2239 
L 90.259875 353.2239 
L 99.682225 353.2239 
L 109.104575 353.2239 
L 118.526925 353.2239 
L 127.949275 353.2239 
L 137.371625 353.2239 
L 146.793975 353.2239 
L 156.216325 353.2239 
L 165.638675 353.2239 
L 175.061025 353.2239 
L 184.483375 353.2239 
L 193.905725 353.2239 
L 203.328075 353.2239 
L 212.750425 353.2239 
L 222.172775 353.2239 
L 231.595125 353.2239 
L 241.017475 353.2239 
L 250.439825 353.2239 
L 259.862175 353.2239 
L 269.284525 352.300648 
L 278.706875 352.300648 
L 288.129225 351.377396 
L 297.551575 351.377396 
L 306.973925 353.2239 
L 316.396275 348.60764 
L 325.818625 351.377396 
L 335.240975 352.300648 
L 344.663325 352.300648 
L 354.085675 353.2239 
L 363.508025 351.377396 
L 372.930375 351.377396 
L 382.352725 352.300648 
L 391.775075 352.300648 
L 401.197425 350.454144 
L 410.619775 351.377396 
L 420.042125 351.377396 
L 429.464475 347.684388 
L 438.886825 333.604794 
L 448.309175 269.207965 
L 457.731525 272.900973 
L 467.153875 290.442762 
L 476.576225 293.443331 
L 485.998575 269.669591 
L 495.420925 260.667884 
L 504.843275 270.131217 
L 514.265625 287.21138 
L 523.687975 267.592274 
L 533.110325 275.670729 
L 542.532675 242.433656 
L 551.955025 160.264225 
L 561.377375 275.670729 
L 570.799725 292.289266 
L 580.222075 321.833331 
L 589.644425 345.837884 
L 599.066775 351.377396 
L 608.489125 352.300648 
L 617.911475 353.2239 
L 627.333825 353.2239 
L 636.756175 353.2239 
L 646.178525 353.2239 
L 655.600875 353.2239 
L 665.023225 352.531461 
L 674.445575 353.2239 
L 683.867925 353.2239 
L 693.290275 353.2239 
L 702.712625 353.2239 
L 712.134975 353.2239 
L 721.557325 353.2239 
L 730.979675 353.2239 
L 740.402025 353.2239 
L 749.824375 353.2239 
L 759.246725 353.2239 
L 768.669075 353.2239 
L 778.091425 353.2239 
L 787.513775 353.2239 
L 796.936125 353.2239 
L 806.358475 353.2239 
L 815.780825 353.2239 
L 825.203175 353.2239 
L 834.625525 353.2239 
L 844.047875 353.2239 
L 853.470225 353.2239 
L 862.892575 353.2239 
L 872.314925 353.2239 
L 881.737275 353.2239 
L 891.159625 353.2239 
L 900.581975 353.2239 
L 910.004325 353.2239 
L 919.426675 353.2239 
L 928.849025 353.2239 
L 938.271375 353.2239 
L 947.693725 353.2239 
L 957.116075 353.2239 
L 966.538425 353.2239 
L 975.960775 353.2239 
L 985.383125 353.2239 
" style="fill:none;stroke:#d9534f;stroke-linecap:square;"/>
   </g>
   <g id="line2d_22">
    <path clip-path="url(#p093e13d87e)" d="M 43.148125 353.2239 
L 52.570475 353.2239 
L 61.992825 353.2239 
L 71.415175 353.2239 
L 80.837525 353.2239 
L 90.259875 353.2239 
L 99.682225 353.2239 
L 109.104575 353.2239 
L 118.526925 353.2239 
L 127.949275 353.2239 
L 137.371625 353.2239 
L 146.793975 353.2239 
L 156.216325 353.2239 
L 165.638675 353.2239 
L 175.061025 353.2239 
L 184.483375 353.2239 
L 193.905725 353.2239 
L 203.328075 353.2239 
L 212.750425 353.2239 
L 222.172775 353.2239 
L 231.595125 353.2239 
L 241.017475 353.2239 
L 250.439825 353.2239 
L 259.862175 353.2239 
L 269.284525 353.2239 
L 278.706875 353.2239 
L 288.129225 353.2239 
L 297.551575 353.2239 
L 306.973925 353.2239 
L 316.396275 353.2239 
L 325.818625 353.2239 
L 335.240975 353.2239 
L 344.663325 352.300648 
L 354.085675 353.2239 
L 363.508025 353.2239 
L 372.930375 353.2239 
L 382.352725 353.2239 
L 391.775075 352.300648 
L 401.197425 353.2239 
L 410.619775 352.300648 
L 420.042125 352.300648 
L 429.464475 349.069266 
L 438.886825 345.837884 
L 448.309175 258.128941 
L 457.731525 249.127233 
L 467.153875 327.372843 
L 476.576225 333.143168 
L 485.998575 317.90951 
L 495.420925 305.67642 
L 504.843275 284.90325 
L 514.265625 291.82764 
L 523.687975 228.12325 
L 533.110325 86.404063 
L 542.532675 204.811136 
L 551.955025 172.266502 
L 561.377375 258.359754 
L 570.799725 301.521786 
L 580.222075 337.528615 
L 589.644425 351.377396 
L 599.066775 350.684957 
L 608.489125 351.377396 
L 617.911475 353.2239 
L 627.333825 353.2239 
L 636.756175 353.2239 
L 646.178525 352.300648 
L 655.600875 353.2239 
L 665.023225 353.2239 
L 674.445575 353.2239 
L 683.867925 353.2239 
L 693.290275 353.2239 
L 702.712625 353.2239 
L 712.134975 353.2239 
L 721.557325 353.2239 
L 730.979675 353.2239 
L 740.402025 353.2239 
L 749.824375 353.2239 
L 759.246725 353.2239 
L 768.669075 353.2239 
L 778.091425 353.2239 
L 787.513775 353.2239 
L 796.936125 353.2239 
L 806.358475 353.2239 
L 815.780825 353.2239 
L 825.203175 353.2239 
L 834.625525 353.2239 
L 844.047875 353.2239 
L 853.470225 353.2239 
L 862.892575 353.2239 
L 872.314925 353.2239 
L 881.737275 353.2239 
L 891.159625 353.2239 
L 900.581975 353.2239 
L 910.004325 353.2239 
L 919.426675 353.2239 
L 928.849025 353.2239 
L 938.271375 353.2239 
L 947.693725 353.2239 
L 957.116075 353.2239 
L 966.538425 353.2239 
L 975.960775 353.2239 
L 985.383125 353.2239 
" style="fill:none;stroke:#d9534f;stroke-linecap:square;"/>
   </g>
   <g id="line2d_23">
    <path clip-path="url(#p093e13d87e)" d="M 43.148125 353.2239 
L 985.383125 353.2239 
" style="fill:none;stroke:#dedede;stroke-linecap:square;stroke-width:2;"/>
   </g>
   <g id="text_15">
    <!-- FastQC: Per Sequence GC Content -->
    <defs>
     <path d="M 9.8125 72.90625 
L 51.703125 72.90625 
L 51.703125 64.59375 
L 19.671875 64.59375 
L 19.671875 43.109375 
L 48.578125 43.109375 
L 48.578125 34.8125 
L 19.671875 34.8125 
L 19.671875 0 
L 9.8125 0 
z
" id="DejaVuSans-70"/>
     <path d="M 34.28125 27.484375 
Q 23.390625 27.484375 19.1875 25 
Q 14.984375 22.515625 14.984375 16.5 
Q 14.984375 11.71875 18.140625 8.90625 
Q 21.296875 6.109375 26.703125 6.109375 
Q 34.1875 6.109375 38.703125 11.40625 
Q 43.21875 16.703125 43.21875 25.484375 
L 43.21875 27.484375 
z
M 52.203125 31.203125 
L 52.203125 0 
L 43.21875 0 
L 43.21875 8.296875 
Q 40.140625 3.328125 35.546875 0.953125 
Q 30.953125 -1.421875 24.3125 -1.421875 
Q 15.921875 -1.421875 10.953125 3.296875 
Q 6 8.015625 6 15.921875 
Q 6 25.140625 12.171875 29.828125 
Q 18.359375 34.515625 30.609375 34.515625 
L 43.21875 34.515625 
L 43.21875 35.40625 
Q 43.21875 41.609375 39.140625 45 
Q 35.0625 48.390625 27.6875 48.390625 
Q 23 48.390625 18.546875 47.265625 
Q 14.109375 46.140625 10.015625 43.890625 
L 10.015625 52.203125 
Q 14.9375 54.109375 19.578125 55.046875 
Q 24.21875 56 28.609375 56 
Q 40.484375 56 46.34375 49.84375 
Q 52.203125 43.703125 52.203125 31.203125 
z
" id="DejaVuSans-97"/>
     <path d="M 44.28125 53.078125 
L 44.28125 44.578125 
Q 40.484375 46.53125 36.375 47.5 
Q 32.28125 48.484375 27.875 48.484375 
Q 21.1875 48.484375 17.84375 46.4375 
Q 14.5 44.390625 14.5 40.28125 
Q 14.5 37.15625 16.890625 35.375 
Q 19.28125 33.59375 26.515625 31.984375 
L 29.59375 31.296875 
Q 39.15625 29.25 43.1875 25.515625 
Q 47.21875 21.78125 47.21875 15.09375 
Q 47.21875 7.46875 41.1875 3.015625 
Q 35.15625 -1.421875 24.609375 -1.421875 
Q 20.21875 -1.421875 15.453125 -0.5625 
Q 10.6875 0.296875 5.421875 2 
L 5.421875 11.28125 
Q 10.40625 8.6875 15.234375 7.390625 
Q 20.0625 6.109375 24.8125 6.109375 
Q 31.15625 6.109375 34.5625 8.28125 
Q 37.984375 10.453125 37.984375 14.40625 
Q 37.984375 18.0625 35.515625 20.015625 
Q 33.0625 21.96875 24.703125 23.78125 
L 21.578125 24.515625 
Q 13.234375 26.265625 9.515625 29.90625 
Q 5.8125 33.546875 5.8125 39.890625 
Q 5.8125 47.609375 11.28125 51.796875 
Q 16.75 56 26.8125 56 
Q 31.78125 56 36.171875 55.265625 
Q 40.578125 54.546875 44.28125 53.078125 
z
" id="DejaVuSans-115"/>
     <path d="M 39.40625 66.21875 
Q 28.65625 66.21875 22.328125 58.203125 
Q 16.015625 50.203125 16.015625 36.375 
Q 16.015625 22.609375 22.328125 14.59375 
Q 28.65625 6.59375 39.40625 6.59375 
Q 50.140625 6.59375 56.421875 14.59375 
Q 62.703125 22.609375 62.703125 36.375 
Q 62.703125 50.203125 56.421875 58.203125 
Q 50.140625 66.21875 39.40625 66.21875 
z
M 53.21875 1.3125 
L 66.21875 -12.890625 
L 54.296875 -12.890625 
L 43.5 -1.21875 
Q 41.890625 -1.3125 41.03125 -1.359375 
Q 40.1875 -1.421875 39.40625 -1.421875 
Q 24.03125 -1.421875 14.8125 8.859375 
Q 5.609375 19.140625 5.609375 36.375 
Q 5.609375 53.65625 14.8125 63.9375 
Q 24.03125 74.21875 39.40625 74.21875 
Q 54.734375 74.21875 63.90625 63.9375 
Q 73.09375 53.65625 73.09375 36.375 
Q 73.09375 23.6875 67.984375 14.640625 
Q 62.890625 5.609375 53.21875 1.3125 
z
" id="DejaVuSans-81"/>
     <path d="M 11.71875 12.40625 
L 22.015625 12.40625 
L 22.015625 0 
L 11.71875 0 
z
M 11.71875 51.703125 
L 22.015625 51.703125 
L 22.015625 39.3125 
L 11.71875 39.3125 
z
" id="DejaVuSans-58"/>
     <path d="M 19.671875 64.796875 
L 19.671875 37.40625 
L 32.078125 37.40625 
Q 38.96875 37.40625 42.71875 40.96875 
Q 46.484375 44.53125 46.484375 51.125 
Q 46.484375 57.671875 42.71875 61.234375 
Q 38.96875 64.796875 32.078125 64.796875 
z
M 9.8125 72.90625 
L 32.078125 72.90625 
Q 44.34375 72.90625 50.609375 67.359375 
Q 56.890625 61.8125 56.890625 51.125 
Q 56.890625 40.328125 50.609375 34.8125 
Q 44.34375 29.296875 32.078125 29.296875 
L 19.671875 29.296875 
L 19.671875 0 
L 9.8125 0 
z
" id="DejaVuSans-80"/>
     <path d="M 56.203125 29.59375 
L 56.203125 25.203125 
L 14.890625 25.203125 
Q 15.484375 15.921875 20.484375 11.0625 
Q 25.484375 6.203125 34.421875 6.203125 
Q 39.59375 6.203125 44.453125 7.46875 
Q 49.3125 8.734375 54.109375 11.28125 
L 54.109375 2.78125 
Q 49.265625 0.734375 44.1875 -0.34375 
Q 39.109375 -1.421875 33.890625 -1.421875 
Q 20.796875 -1.421875 13.15625 6.1875 
Q 5.515625 13.8125 5.515625 26.8125 
Q 5.515625 40.234375 12.765625 48.109375 
Q 20.015625 56 32.328125 56 
Q 43.359375 56 49.78125 48.890625 
Q 56.203125 41.796875 56.203125 29.59375 
z
M 47.21875 32.234375 
Q 47.125 39.59375 43.09375 43.984375 
Q 39.0625 48.390625 32.421875 48.390625 
Q 24.90625 48.390625 20.390625 44.140625 
Q 15.875 39.890625 15.1875 32.171875 
z
" id="DejaVuSans-101"/>
     <path d="M 41.109375 46.296875 
Q 39.59375 47.171875 37.8125 47.578125 
Q 36.03125 48 33.890625 48 
Q 26.265625 48 22.1875 43.046875 
Q 18.109375 38.09375 18.109375 28.8125 
L 18.109375 0 
L 9.078125 0 
L 9.078125 54.6875 
L 18.109375 54.6875 
L 18.109375 46.1875 
Q 20.953125 51.171875 25.484375 53.578125 
Q 30.03125 56 36.53125 56 
Q 37.453125 56 38.578125 55.875 
Q 39.703125 55.765625 41.0625 55.515625 
z
" id="DejaVuSans-114"/>
     <path d="M 53.515625 70.515625 
L 53.515625 60.890625 
Q 47.90625 63.578125 42.921875 64.890625 
Q 37.9375 66.21875 33.296875 66.21875 
Q 25.25 66.21875 20.875 63.09375 
Q 16.5 59.96875 16.5 54.203125 
Q 16.5 49.359375 19.40625 46.890625 
Q 22.3125 44.4375 30.421875 42.921875 
L 36.375 41.703125 
Q 47.40625 39.59375 52.65625 34.296875 
Q 57.90625 29 57.90625 20.125 
Q 57.90625 9.515625 50.796875 4.046875 
Q 43.703125 -1.421875 29.984375 -1.421875 
Q 24.8125 -1.421875 18.96875 -0.25 
Q 13.140625 0.921875 6.890625 3.21875 
L 6.890625 13.375 
Q 12.890625 10.015625 18.65625 8.296875 
Q 24.421875 6.59375 29.984375 6.59375 
Q 38.421875 6.59375 43.015625 9.90625 
Q 47.609375 13.234375 47.609375 19.390625 
Q 47.609375 24.75 44.3125 27.78125 
Q 41.015625 30.8125 33.5 32.328125 
L 27.484375 33.5 
Q 16.453125 35.6875 11.515625 40.375 
Q 6.59375 45.0625 6.59375 53.421875 
Q 6.59375 63.09375 13.40625 68.65625 
Q 20.21875 74.21875 32.171875 74.21875 
Q 37.3125 74.21875 42.625 73.28125 
Q 47.953125 72.359375 53.515625 70.515625 
z
" id="DejaVuSans-83"/>
     <path d="M 14.796875 27.296875 
Q 14.796875 17.390625 18.875 11.75 
Q 22.953125 6.109375 30.078125 6.109375 
Q 37.203125 6.109375 41.296875 11.75 
Q 45.40625 17.390625 45.40625 27.296875 
Q 45.40625 37.203125 41.296875 42.84375 
Q 37.203125 48.484375 30.078125 48.484375 
Q 22.953125 48.484375 18.875 42.84375 
Q 14.796875 37.203125 14.796875 27.296875 
z
M 45.40625 8.203125 
Q 42.578125 3.328125 38.25 0.953125 
Q 33.9375 -1.421875 27.875 -1.421875 
Q 17.96875 -1.421875 11.734375 6.484375 
Q 5.515625 14.40625 5.515625 27.296875 
Q 5.515625 40.1875 11.734375 48.09375 
Q 17.96875 56 27.875 56 
Q 33.9375 56 38.25 53.625 
Q 42.578125 51.265625 45.40625 46.390625 
L 45.40625 54.6875 
L 54.390625 54.6875 
L 54.390625 -20.796875 
L 45.40625 -20.796875 
z
" id="DejaVuSans-113"/>
     <path d="M 48.78125 52.59375 
L 48.78125 44.1875 
Q 44.96875 46.296875 41.140625 47.34375 
Q 37.3125 48.390625 33.40625 48.390625 
Q 24.65625 48.390625 19.8125 42.84375 
Q 14.984375 37.3125 14.984375 27.296875 
Q 14.984375 17.28125 19.8125 11.734375 
Q 24.65625 6.203125 33.40625 6.203125 
Q 37.3125 6.203125 41.140625 7.25 
Q 44.96875 8.296875 48.78125 10.40625 
L 48.78125 2.09375 
Q 45.015625 0.34375 40.984375 -0.53125 
Q 36.96875 -1.421875 32.421875 -1.421875 
Q 20.0625 -1.421875 12.78125 6.34375 
Q 5.515625 14.109375 5.515625 27.296875 
Q 5.515625 40.671875 12.859375 48.328125 
Q 20.21875 56 33.015625 56 
Q 37.15625 56 41.109375 55.140625 
Q 45.0625 54.296875 48.78125 52.59375 
z
" id="DejaVuSans-99"/>
    </defs>
    <g transform="translate(377.629375 19.3575)scale(0.16 -0.16)">
     <use xlink:href="#DejaVuSans-70"/>
     <use x="48.394531" xlink:href="#DejaVuSans-97"/>
     <use x="109.673828" xlink:href="#DejaVuSans-115"/>
     <use x="161.773438" xlink:href="#DejaVuSans-116"/>
     <use x="200.982422" xlink:href="#DejaVuSans-81"/>
     <use x="279.693359" xlink:href="#DejaVuSans-67"/>
     <use x="349.517578" xlink:href="#DejaVuSans-58"/>
     <use x="383.208984" xlink:href="#DejaVuSans-32"/>
     <use x="414.996094" xlink:href="#DejaVuSans-80"/>
     <use x="471.673828" xlink:href="#DejaVuSans-101"/>
     <use x="533.197266" xlink:href="#DejaVuSans-114"/>
     <use x="574.310547" xlink:href="#DejaVuSans-32"/>
     <use x="606.097656" xlink:href="#DejaVuSans-83"/>
     <use x="669.574219" xlink:href="#DejaVuSans-101"/>
     <use x="731.097656" xlink:href="#DejaVuSans-113"/>
     <use x="794.574219" xlink:href="#DejaVuSans-117"/>
     <use x="857.953125" xlink:href="#DejaVuSans-101"/>
     <use x="919.476562" xlink:href="#DejaVuSans-110"/>
     <use x="982.855469" xlink:href="#DejaVuSans-99"/>
     <use x="1037.835938" xlink:href="#DejaVuSans-101"/>
     <use x="1099.359375" xlink:href="#DejaVuSans-32"/>
     <use x="1131.146484" xlink:href="#DejaVuSans-71"/>
     <use x="1208.636719" xlink:href="#DejaVuSans-67"/>
     <use x="1278.460938" xlink:href="#DejaVuSans-32"/>
     <use x="1310.248047" xlink:href="#DejaVuSans-67"/>
     <use x="1380.072266" xlink:href="#DejaVuSans-111"/>
     <use x="1441.253906" xlink:href="#DejaVuSans-110"/>
     <use x="1504.632812" xlink:href="#DejaVuSans-116"/>
     <use x="1543.841797" xlink:href="#DejaVuSans-101"/>
     <use x="1605.365234" xlink:href="#DejaVuSans-110"/>
     <use x="1668.744141" xlink:href="#DejaVuSans-116"/>
    </g>
   </g>
  </g>
 </g>
 <defs>
  <clipPath id="p093e13d87e">
   <rect height="317.968" width="942.235" x="43.148125" y="35.2559"/>
  </clipPath>
 </defs>
</svg>
