<?xml version="1.0" encoding="utf-8" standalone="no"?>
<!DOCTYPE svg PUBLIC "-//W3C//DTD SVG 1.1//EN"
  "http://www.w3.org/Graphics/SVG/1.1/DTD/svg11.dtd">
<!-- Created with matplotlib (https://matplotlib.org/) -->
<svg height="388.844525pt" version="1.1" viewBox="0 0 1000.318125 388.844525" width="1000.318125pt" xmlns="http://www.w3.org/2000/svg" xmlns:xlink="http://www.w3.org/1999/xlink">
 <defs>
  <style type="text/css">
*{stroke-linecap:butt;stroke-linejoin:round;}
  </style>
 </defs>
 <g id="figure_1">
  <g id="axes_1">
   <g id="patch_1">
    <path d="M 38.058125 353.2239 
L 993.118125 353.2239 
L 993.118125 35.2559 
L 38.058125 35.2559 
z
" style="fill:#ffffff;"/>
   </g>
   <g id="patch_2">
    <path clip-path="url(#p81d8a516b8)" d="M 38.058125 124.101416 
L 952.610107 124.101416 
L 952.610107 -465.070685 
L 38.058125 -465.070685 
z
" style="fill:#c3e6c3;"/>
   </g>
   <g id="patch_3">
    <path clip-path="url(#p81d8a516b8)" d="M 38.058125 189.564983 
L 952.610107 189.564983 
L 952.610107 124.101416 
L 38.058125 124.101416 
z
" style="fill:#e6dcc3;"/>
   </g>
   <g id="patch_4">
    <path clip-path="url(#p81d8a516b8)" d="M 38.058125 353.2239 
L 952.610107 353.2239 
L 952.610107 189.564983 
L 38.058125 189.564983 
z
" style="fill:#e6c3c3;"/>
   </g>
   <g id="matplotlib.axis_1">
    <g id="xtick_1">
     <g id="text_1">
      <!-- 0 -->
      <defs>
       <path d="M 31.78125 66.40625 
Q 24.171875 66.40625 20.328125 58.90625 
Q 16.5 51.421875 16.5 36.375 
Q 16.5 21.390625 20.328125 13.890625 
Q 24.171875 6.390625 31.78125 6.390625 
Q 39.453125 6.390625 43.28125 13.890625 
Q 47.125 21.390625 47.125 36.375 
Q 47.125 51.421875 43.28125 58.90625 
Q 39.453125 66.40625 31.78125 66.40625 
z
M 31.78125 74.21875 
Q 44.046875 74.21875 50.515625 64.515625 
Q 56.984375 54.828125 56.984375 36.375 
Q 56.984375 17.96875 50.515625 8.265625 
Q 44.046875 -1.421875 31.78125 -1.421875 
Q 19.53125 -1.421875 13.0625 8.265625 
Q 6.59375 17.96875 6.59375 36.375 
Q 6.59375 54.828125 13.0625 64.515625 
Q 19.53125 74.21875 31.78125 74.21875 
z
" id="DejaVuSans-48"/>
      </defs>
      <g transform="translate(76.021143 366.30265)scale(0.08 -0.08)">
       <use xlink:href="#DejaVuSans-48"/>
      </g>
     </g>
    </g>
    <g id="xtick_2">
     <g id="text_2">
      <!-- 50 -->
      <defs>
       <path d="M 10.796875 72.90625 
L 49.515625 72.90625 
L 49.515625 64.59375 
L 19.828125 64.59375 
L 19.828125 46.734375 
Q 21.96875 47.46875 24.109375 47.828125 
Q 26.265625 48.1875 28.421875 48.1875 
Q 40.625 48.1875 47.75 41.5 
Q 54.890625 34.8125 54.890625 23.390625 
Q 54.890625 11.625 47.5625 5.09375 
Q 40.234375 -1.421875 26.90625 -1.421875 
Q 22.3125 -1.421875 17.546875 -0.640625 
Q 12.796875 0.140625 7.71875 1.703125 
L 7.71875 11.625 
Q 12.109375 9.234375 16.796875 8.0625 
Q 21.484375 6.890625 26.703125 6.890625 
Q 35.15625 6.890625 40.078125 11.328125 
Q 45.015625 15.765625 45.015625 23.390625 
Q 45.015625 31 40.078125 35.4375 
Q 35.15625 39.890625 26.703125 39.890625 
Q 22.75 39.890625 18.8125 39.015625 
Q 14.890625 38.140625 10.796875 36.28125 
z
" id="DejaVuSans-53"/>
      </defs>
      <g transform="translate(218.66617 366.30265)scale(0.08 -0.08)">
       <use xlink:href="#DejaVuSans-53"/>
       <use x="63.623047" xlink:href="#DejaVuSans-48"/>
      </g>
     </g>
    </g>
    <g id="xtick_3">
     <g id="text_3">
      <!-- 100 -->
      <defs>
       <path d="M 12.40625 8.296875 
L 28.515625 8.296875 
L 28.515625 63.921875 
L 10.984375 60.40625 
L 10.984375 69.390625 
L 28.421875 72.90625 
L 38.28125 72.90625 
L 38.28125 8.296875 
L 54.390625 8.296875 
L 54.390625 0 
L 12.40625 0 
z
" id="DejaVuSans-49"/>
      </defs>
      <g transform="translate(361.311197 366.30265)scale(0.08 -0.08)">
       <use xlink:href="#DejaVuSans-49"/>
       <use x="63.623047" xlink:href="#DejaVuSans-48"/>
       <use x="127.246094" xlink:href="#DejaVuSans-48"/>
      </g>
     </g>
    </g>
    <g id="xtick_4">
     <g id="text_4">
      <!-- 150 -->
      <g transform="translate(506.501225 366.30265)scale(0.08 -0.08)">
       <use xlink:href="#DejaVuSans-49"/>
       <use x="63.623047" xlink:href="#DejaVuSans-53"/>
       <use x="127.246094" xlink:href="#DejaVuSans-48"/>
      </g>
     </g>
    </g>
    <g id="xtick_5">
     <g id="text_5">
      <!-- 200 -->
      <defs>
       <path d="M 19.1875 8.296875 
L 53.609375 8.296875 
L 53.609375 0 
L 7.328125 0 
L 7.328125 8.296875 
Q 12.9375 14.109375 22.625 23.890625 
Q 32.328125 33.6875 34.8125 36.53125 
Q 39.546875 41.84375 41.421875 45.53125 
Q 43.3125 49.21875 43.3125 52.78125 
Q 43.3125 58.59375 39.234375 62.25 
Q 35.15625 65.921875 28.609375 65.921875 
Q 23.96875 65.921875 18.8125 64.3125 
Q 13.671875 62.703125 7.8125 59.421875 
L 7.8125 69.390625 
Q 13.765625 71.78125 18.9375 73 
Q 24.125 74.21875 28.421875 74.21875 
Q 39.75 74.21875 46.484375 68.546875 
Q 53.21875 62.890625 53.21875 53.421875 
Q 53.21875 48.921875 51.53125 44.890625 
Q 49.859375 40.875 45.40625 35.40625 
Q 44.1875 33.984375 37.640625 27.21875 
Q 31.109375 20.453125 19.1875 8.296875 
z
" id="DejaVuSans-50"/>
      </defs>
      <g transform="translate(651.691252 366.30265)scale(0.08 -0.08)">
       <use xlink:href="#DejaVuSans-50"/>
       <use x="63.623047" xlink:href="#DejaVuSans-48"/>
       <use x="127.246094" xlink:href="#DejaVuSans-48"/>
      </g>
     </g>
    </g>
    <g id="xtick_6">
     <g id="text_6">
      <!-- 250 -->
      <g transform="translate(796.881279 366.30265)scale(0.08 -0.08)">
       <use xlink:href="#DejaVuSans-50"/>
       <use x="63.623047" xlink:href="#DejaVuSans-53"/>
       <use x="127.246094" xlink:href="#DejaVuSans-48"/>
      </g>
     </g>
    </g>
    <g id="xtick_7">
     <g id="text_7">
      <!-- 300 -->
      <defs>
       <path d="M 40.578125 39.3125 
Q 47.65625 37.796875 51.625 33 
Q 55.609375 28.21875 55.609375 21.1875 
Q 55.609375 10.40625 48.1875 4.484375 
Q 40.765625 -1.421875 27.09375 -1.421875 
Q 22.515625 -1.421875 17.65625 -0.515625 
Q 12.796875 0.390625 7.625 2.203125 
L 7.625 11.71875 
Q 11.71875 9.328125 16.59375 8.109375 
Q 21.484375 6.890625 26.8125 6.890625 
Q 36.078125 6.890625 40.9375 10.546875 
Q 45.796875 14.203125 45.796875 21.1875 
Q 45.796875 27.640625 41.28125 31.265625 
Q 36.765625 34.90625 28.71875 34.90625 
L 20.21875 34.90625 
L 20.21875 43.015625 
L 29.109375 43.015625 
Q 36.375 43.015625 40.234375 45.921875 
Q 44.09375 48.828125 44.09375 54.296875 
Q 44.09375 59.90625 40.109375 62.90625 
Q 36.140625 65.921875 28.71875 65.921875 
Q 24.65625 65.921875 20.015625 65.03125 
Q 15.375 64.15625 9.8125 62.3125 
L 9.8125 71.09375 
Q 15.4375 72.65625 20.34375 73.4375 
Q 25.25 74.21875 29.59375 74.21875 
Q 40.828125 74.21875 47.359375 69.109375 
Q 53.90625 64.015625 53.90625 55.328125 
Q 53.90625 49.265625 50.4375 45.09375 
Q 46.96875 40.921875 40.578125 39.3125 
z
" id="DejaVuSans-51"/>
      </defs>
      <g transform="translate(942.071307 366.30265)scale(0.08 -0.08)">
       <use xlink:href="#DejaVuSans-51"/>
       <use x="63.623047" xlink:href="#DejaVuSans-48"/>
       <use x="127.246094" xlink:href="#DejaVuSans-48"/>
      </g>
     </g>
    </g>
    <g id="text_8">
     <!-- Position (bp) -->
     <defs>
      <path d="M 19.671875 64.796875 
L 19.671875 37.40625 
L 32.078125 37.40625 
Q 38.96875 37.40625 42.71875 40.96875 
Q 46.484375 44.53125 46.484375 51.125 
Q 46.484375 57.671875 42.71875 61.234375 
Q 38.96875 64.796875 32.078125 64.796875 
z
M 9.8125 72.90625 
L 32.078125 72.90625 
Q 44.34375 72.90625 50.609375 67.359375 
Q 56.890625 61.8125 56.890625 51.125 
Q 56.890625 40.328125 50.609375 34.8125 
Q 44.34375 29.296875 32.078125 29.296875 
L 19.671875 29.296875 
L 19.671875 0 
L 9.8125 0 
z
" id="DejaVuSans-80"/>
      <path d="M 30.609375 48.390625 
Q 23.390625 48.390625 19.1875 42.75 
Q 14.984375 37.109375 14.984375 27.296875 
Q 14.984375 17.484375 19.15625 11.84375 
Q 23.34375 6.203125 30.609375 6.203125 
Q 37.796875 6.203125 41.984375 11.859375 
Q 46.1875 17.53125 46.1875 27.296875 
Q 46.1875 37.015625 41.984375 42.703125 
Q 37.796875 48.390625 30.609375 48.390625 
z
M 30.609375 56 
Q 42.328125 56 49.015625 48.375 
Q 55.71875 40.765625 55.71875 27.296875 
Q 55.71875 13.875 49.015625 6.21875 
Q 42.328125 -1.421875 30.609375 -1.421875 
Q 18.84375 -1.421875 12.171875 6.21875 
Q 5.515625 13.875 5.515625 27.296875 
Q 5.515625 40.765625 12.171875 48.375 
Q 18.84375 56 30.609375 56 
z
" id="DejaVuSans-111"/>
      <path d="M 44.28125 53.078125 
L 44.28125 44.578125 
Q 40.484375 46.53125 36.375 47.5 
Q 32.28125 48.484375 27.875 48.484375 
Q 21.1875 48.484375 17.84375 46.4375 
Q 14.5 44.390625 14.5 40.28125 
Q 14.5 37.15625 16.890625 35.375 
Q 19.28125 33.59375 26.515625 31.984375 
L 29.59375 31.296875 
Q 39.15625 29.25 43.1875 25.515625 
Q 47.21875 21.78125 47.21875 15.09375 
Q 47.21875 7.46875 41.1875 3.015625 
Q 35.15625 -1.421875 24.609375 -1.421875 
Q 20.21875 -1.421875 15.453125 -0.5625 
Q 10.6875 0.296875 5.421875 2 
L 5.421875 11.28125 
Q 10.40625 8.6875 15.234375 7.390625 
Q 20.0625 6.109375 24.8125 6.109375 
Q 31.15625 6.109375 34.5625 8.28125 
Q 37.984375 10.453125 37.984375 14.40625 
Q 37.984375 18.0625 35.515625 20.015625 
Q 33.0625 21.96875 24.703125 23.78125 
L 21.578125 24.515625 
Q 13.234375 26.265625 9.515625 29.90625 
Q 5.8125 33.546875 5.8125 39.890625 
Q 5.8125 47.609375 11.28125 51.796875 
Q 16.75 56 26.8125 56 
Q 31.78125 56 36.171875 55.265625 
Q 40.578125 54.546875 44.28125 53.078125 
z
" id="DejaVuSans-115"/>
      <path d="M 9.421875 54.6875 
L 18.40625 54.6875 
L 18.40625 0 
L 9.421875 0 
z
M 9.421875 75.984375 
L 18.40625 75.984375 
L 18.40625 64.59375 
L 9.421875 64.59375 
z
" id="DejaVuSans-105"/>
      <path d="M 18.3125 70.21875 
L 18.3125 54.6875 
L 36.8125 54.6875 
L 36.8125 47.703125 
L 18.3125 47.703125 
L 18.3125 18.015625 
Q 18.3125 11.328125 20.140625 9.421875 
Q 21.96875 7.515625 27.59375 7.515625 
L 36.8125 7.515625 
L 36.8125 0 
L 27.59375 0 
Q 17.1875 0 13.234375 3.875 
Q 9.28125 7.765625 9.28125 18.015625 
L 9.28125 47.703125 
L 2.6875 47.703125 
L 2.6875 54.6875 
L 9.28125 54.6875 
L 9.28125 70.21875 
z
" id="DejaVuSans-116"/>
      <path d="M 54.890625 33.015625 
L 54.890625 0 
L 45.90625 0 
L 45.90625 32.71875 
Q 45.90625 40.484375 42.875 44.328125 
Q 39.84375 48.1875 33.796875 48.1875 
Q 26.515625 48.1875 22.3125 43.546875 
Q 18.109375 38.921875 18.109375 30.90625 
L 18.109375 0 
L 9.078125 0 
L 9.078125 54.6875 
L 18.109375 54.6875 
L 18.109375 46.1875 
Q 21.34375 51.125 25.703125 53.5625 
Q 30.078125 56 35.796875 56 
Q 45.21875 56 50.046875 50.171875 
Q 54.890625 44.34375 54.890625 33.015625 
z
" id="DejaVuSans-110"/>
      <path id="DejaVuSans-32"/>
      <path d="M 31 75.875 
Q 24.46875 64.65625 21.28125 53.65625 
Q 18.109375 42.671875 18.109375 31.390625 
Q 18.109375 20.125 21.3125 9.0625 
Q 24.515625 -2 31 -13.1875 
L 23.1875 -13.1875 
Q 15.875 -1.703125 12.234375 9.375 
Q 8.59375 20.453125 8.59375 31.390625 
Q 8.59375 42.28125 12.203125 53.3125 
Q 15.828125 64.359375 23.1875 75.875 
z
" id="DejaVuSans-40"/>
      <path d="M 48.6875 27.296875 
Q 48.6875 37.203125 44.609375 42.84375 
Q 40.53125 48.484375 33.40625 48.484375 
Q 26.265625 48.484375 22.1875 42.84375 
Q 18.109375 37.203125 18.109375 27.296875 
Q 18.109375 17.390625 22.1875 11.75 
Q 26.265625 6.109375 33.40625 6.109375 
Q 40.53125 6.109375 44.609375 11.75 
Q 48.6875 17.390625 48.6875 27.296875 
z
M 18.109375 46.390625 
Q 20.953125 51.265625 25.265625 53.625 
Q 29.59375 56 35.59375 56 
Q 45.5625 56 51.78125 48.09375 
Q 58.015625 40.1875 58.015625 27.296875 
Q 58.015625 14.40625 51.78125 6.484375 
Q 45.5625 -1.421875 35.59375 -1.421875 
Q 29.59375 -1.421875 25.265625 0.953125 
Q 20.953125 3.328125 18.109375 8.203125 
L 18.109375 0 
L 9.078125 0 
L 9.078125 75.984375 
L 18.109375 75.984375 
z
" id="DejaVuSans-98"/>
      <path d="M 18.109375 8.203125 
L 18.109375 -20.796875 
L 9.078125 -20.796875 
L 9.078125 54.6875 
L 18.109375 54.6875 
L 18.109375 46.390625 
Q 20.953125 51.265625 25.265625 53.625 
Q 29.59375 56 35.59375 56 
Q 45.5625 56 51.78125 48.09375 
Q 58.015625 40.1875 58.015625 27.296875 
Q 58.015625 14.40625 51.78125 6.484375 
Q 45.5625 -1.421875 35.59375 -1.421875 
Q 29.59375 -1.421875 25.265625 0.953125 
Q 20.953125 3.328125 18.109375 8.203125 
z
M 48.6875 27.296875 
Q 48.6875 37.203125 44.609375 42.84375 
Q 40.53125 48.484375 33.40625 48.484375 
Q 26.265625 48.484375 22.1875 42.84375 
Q 18.109375 37.203125 18.109375 27.296875 
Q 18.109375 17.390625 22.1875 11.75 
Q 26.265625 6.109375 33.40625 6.109375 
Q 40.53125 6.109375 44.609375 11.75 
Q 48.6875 17.390625 48.6875 27.296875 
z
" id="DejaVuSans-112"/>
      <path d="M 8.015625 75.875 
L 15.828125 75.875 
Q 23.140625 64.359375 26.78125 53.3125 
Q 30.421875 42.28125 30.421875 31.390625 
Q 30.421875 20.453125 26.78125 9.375 
Q 23.140625 -1.703125 15.828125 -13.1875 
L 8.015625 -13.1875 
Q 14.5 -2 17.703125 9.0625 
Q 20.90625 20.125 20.90625 31.390625 
Q 20.90625 42.671875 17.703125 53.65625 
Q 14.5 64.65625 8.015625 75.875 
z
" id="DejaVuSans-41"/>
     </defs>
     <g transform="translate(484.285 379.564837)scale(0.1 -0.1)">
      <use xlink:href="#DejaVuSans-80"/>
      <use x="56.677734" xlink:href="#DejaVuSans-111"/>
      <use x="117.859375" xlink:href="#DejaVuSans-115"/>
      <use x="169.958984" xlink:href="#DejaVuSans-105"/>
      <use x="197.742188" xlink:href="#DejaVuSans-116"/>
      <use x="236.951172" xlink:href="#DejaVuSans-105"/>
      <use x="264.734375" xlink:href="#DejaVuSans-111"/>
      <use x="325.916016" xlink:href="#DejaVuSans-110"/>
      <use x="389.294922" xlink:href="#DejaVuSans-32"/>
      <use x="421.082031" xlink:href="#DejaVuSans-40"/>
      <use x="460.095703" xlink:href="#DejaVuSans-98"/>
      <use x="523.572266" xlink:href="#DejaVuSans-112"/>
      <use x="587.048828" xlink:href="#DejaVuSans-41"/>
     </g>
    </g>
   </g>
   <g id="matplotlib.axis_2">
    <g id="ytick_1">
     <g id="line2d_1">
      <path clip-path="url(#p81d8a516b8)" d="M 38.058125 353.2239 
L 993.118125 353.2239 
" style="fill:none;stroke:#dedede;stroke-linecap:square;"/>
     </g>
     <g id="text_9">
      <!-- 0 -->
      <g transform="translate(25.968125 356.263275)scale(0.08 -0.08)">
       <use xlink:href="#DejaVuSans-48"/>
      </g>
     </g>
    </g>
    <g id="ytick_2">
     <g id="line2d_2">
      <path clip-path="url(#p81d8a516b8)" d="M 38.058125 312.309171 
L 993.118125 312.309171 
" style="fill:none;stroke:#dedede;stroke-linecap:square;"/>
     </g>
     <g id="text_10">
      <!-- 5 -->
      <g transform="translate(25.968125 315.348546)scale(0.08 -0.08)">
       <use xlink:href="#DejaVuSans-53"/>
      </g>
     </g>
    </g>
    <g id="ytick_3">
     <g id="line2d_3">
      <path clip-path="url(#p81d8a516b8)" d="M 38.058125 271.394442 
L 993.118125 271.394442 
" style="fill:none;stroke:#dedede;stroke-linecap:square;"/>
     </g>
     <g id="text_11">
      <!-- 10 -->
      <g transform="translate(20.878125 274.433817)scale(0.08 -0.08)">
       <use xlink:href="#DejaVuSans-49"/>
       <use x="63.623047" xlink:href="#DejaVuSans-48"/>
      </g>
     </g>
    </g>
    <g id="ytick_4">
     <g id="line2d_4">
      <path clip-path="url(#p81d8a516b8)" d="M 38.058125 230.479712 
L 993.118125 230.479712 
" style="fill:none;stroke:#dedede;stroke-linecap:square;"/>
     </g>
     <g id="text_12">
      <!-- 15 -->
      <g transform="translate(20.878125 233.519087)scale(0.08 -0.08)">
       <use xlink:href="#DejaVuSans-49"/>
       <use x="63.623047" xlink:href="#DejaVuSans-53"/>
      </g>
     </g>
    </g>
    <g id="ytick_5">
     <g id="line2d_5">
      <path clip-path="url(#p81d8a516b8)" d="M 38.058125 189.564983 
L 993.118125 189.564983 
" style="fill:none;stroke:#dedede;stroke-linecap:square;"/>
     </g>
     <g id="text_13">
      <!-- 20 -->
      <g transform="translate(20.878125 192.604358)scale(0.08 -0.08)">
       <use xlink:href="#DejaVuSans-50"/>
       <use x="63.623047" xlink:href="#DejaVuSans-48"/>
      </g>
     </g>
    </g>
    <g id="ytick_6">
     <g id="line2d_6">
      <path clip-path="url(#p81d8a516b8)" d="M 38.058125 148.650254 
L 993.118125 148.650254 
" style="fill:none;stroke:#dedede;stroke-linecap:square;"/>
     </g>
     <g id="text_14">
      <!-- 25 -->
      <g transform="translate(20.878125 151.689629)scale(0.08 -0.08)">
       <use xlink:href="#DejaVuSans-50"/>
       <use x="63.623047" xlink:href="#DejaVuSans-53"/>
      </g>
     </g>
    </g>
    <g id="ytick_7">
     <g id="line2d_7">
      <path clip-path="url(#p81d8a516b8)" d="M 38.058125 107.735525 
L 993.118125 107.735525 
" style="fill:none;stroke:#dedede;stroke-linecap:square;"/>
     </g>
     <g id="text_15">
      <!-- 30 -->
      <g transform="translate(20.878125 110.7749)scale(0.08 -0.08)">
       <use xlink:href="#DejaVuSans-51"/>
       <use x="63.623047" xlink:href="#DejaVuSans-48"/>
      </g>
     </g>
    </g>
    <g id="ytick_8">
     <g id="line2d_8">
      <path clip-path="url(#p81d8a516b8)" d="M 38.058125 66.820795 
L 993.118125 66.820795 
" style="fill:none;stroke:#dedede;stroke-linecap:square;"/>
     </g>
     <g id="text_16">
      <!-- 35 -->
      <g transform="translate(20.878125 69.86017)scale(0.08 -0.08)">
       <use xlink:href="#DejaVuSans-51"/>
       <use x="63.623047" xlink:href="#DejaVuSans-53"/>
      </g>
     </g>
    </g>
    <g id="text_17">
     <!-- Phred Score -->
     <defs>
      <path d="M 54.890625 33.015625 
L 54.890625 0 
L 45.90625 0 
L 45.90625 32.71875 
Q 45.90625 40.484375 42.875 44.328125 
Q 39.84375 48.1875 33.796875 48.1875 
Q 26.515625 48.1875 22.3125 43.546875 
Q 18.109375 38.921875 18.109375 30.90625 
L 18.109375 0 
L 9.078125 0 
L 9.078125 75.984375 
L 18.109375 75.984375 
L 18.109375 46.1875 
Q 21.34375 51.125 25.703125 53.5625 
Q 30.078125 56 35.796875 56 
Q 45.21875 56 50.046875 50.171875 
Q 54.890625 44.34375 54.890625 33.015625 
z
" id="DejaVuSans-104"/>
      <path d="M 41.109375 46.296875 
Q 39.59375 47.171875 37.8125 47.578125 
Q 36.03125 48 33.890625 48 
Q 26.265625 48 22.1875 43.046875 
Q 18.109375 38.09375 18.109375 28.8125 
L 18.109375 0 
L 9.078125 0 
L 9.078125 54.6875 
L 18.109375 54.6875 
L 18.109375 46.1875 
Q 20.953125 51.171875 25.484375 53.578125 
Q 30.03125 56 36.53125 56 
Q 37.453125 56 38.578125 55.875 
Q 39.703125 55.765625 41.0625 55.515625 
z
" id="DejaVuSans-114"/>
      <path d="M 56.203125 29.59375 
L 56.203125 25.203125 
L 14.890625 25.203125 
Q 15.484375 15.921875 20.484375 11.0625 
Q 25.484375 6.203125 34.421875 6.203125 
Q 39.59375 6.203125 44.453125 7.46875 
Q 49.3125 8.734375 54.109375 11.28125 
L 54.109375 2.78125 
Q 49.265625 0.734375 44.1875 -0.34375 
Q 39.109375 -1.421875 33.890625 -1.421875 
Q 20.796875 -1.421875 13.15625 6.1875 
Q 5.515625 13.8125 5.515625 26.8125 
Q 5.515625 40.234375 12.765625 48.109375 
Q 20.015625 56 32.328125 56 
Q 43.359375 56 49.78125 48.890625 
Q 56.203125 41.796875 56.203125 29.59375 
z
M 47.21875 32.234375 
Q 47.125 39.59375 43.09375 43.984375 
Q 39.0625 48.390625 32.421875 48.390625 
Q 24.90625 48.390625 20.390625 44.140625 
Q 15.875 39.890625 15.1875 32.171875 
z
" id="DejaVuSans-101"/>
      <path d="M 45.40625 46.390625 
L 45.40625 75.984375 
L 54.390625 75.984375 
L 54.390625 0 
L 45.40625 0 
L 45.40625 8.203125 
Q 42.578125 3.328125 38.25 0.953125 
Q 33.9375 -1.421875 27.875 -1.421875 
Q 17.96875 -1.421875 11.734375 6.484375 
Q 5.515625 14.40625 5.515625 27.296875 
Q 5.515625 40.1875 11.734375 48.09375 
Q 17.96875 56 27.875 56 
Q 33.9375 56 38.25 53.625 
Q 42.578125 51.265625 45.40625 46.390625 
z
M 14.796875 27.296875 
Q 14.796875 17.390625 18.875 11.75 
Q 22.953125 6.109375 30.078125 6.109375 
Q 37.203125 6.109375 41.296875 11.75 
Q 45.40625 17.390625 45.40625 27.296875 
Q 45.40625 37.203125 41.296875 42.84375 
Q 37.203125 48.484375 30.078125 48.484375 
Q 22.953125 48.484375 18.875 42.84375 
Q 14.796875 37.203125 14.796875 27.296875 
z
" id="DejaVuSans-100"/>
      <path d="M 53.515625 70.515625 
L 53.515625 60.890625 
Q 47.90625 63.578125 42.921875 64.890625 
Q 37.9375 66.21875 33.296875 66.21875 
Q 25.25 66.21875 20.875 63.09375 
Q 16.5 59.96875 16.5 54.203125 
Q 16.5 49.359375 19.40625 46.890625 
Q 22.3125 44.4375 30.421875 42.921875 
L 36.375 41.703125 
Q 47.40625 39.59375 52.65625 34.296875 
Q 57.90625 29 57.90625 20.125 
Q 57.90625 9.515625 50.796875 4.046875 
Q 43.703125 -1.421875 29.984375 -1.421875 
Q 24.8125 -1.421875 18.96875 -0.25 
Q 13.140625 0.921875 6.890625 3.21875 
L 6.890625 13.375 
Q 12.890625 10.015625 18.65625 8.296875 
Q 24.421875 6.59375 29.984375 6.59375 
Q 38.421875 6.59375 43.015625 9.90625 
Q 47.609375 13.234375 47.609375 19.390625 
Q 47.609375 24.75 44.3125 27.78125 
Q 41.015625 30.8125 33.5 32.328125 
L 27.484375 33.5 
Q 16.453125 35.6875 11.515625 40.375 
Q 6.59375 45.0625 6.59375 53.421875 
Q 6.59375 63.09375 13.40625 68.65625 
Q 20.21875 74.21875 32.171875 74.21875 
Q 37.3125 74.21875 42.625 73.28125 
Q 47.953125 72.359375 53.515625 70.515625 
z
" id="DejaVuSans-83"/>
      <path d="M 48.78125 52.59375 
L 48.78125 44.1875 
Q 44.96875 46.296875 41.140625 47.34375 
Q 37.3125 48.390625 33.40625 48.390625 
Q 24.65625 48.390625 19.8125 42.84375 
Q 14.984375 37.3125 14.984375 27.296875 
Q 14.984375 17.28125 19.8125 11.734375 
Q 24.65625 6.203125 33.40625 6.203125 
Q 37.3125 6.203125 41.140625 7.25 
Q 44.96875 8.296875 48.78125 10.40625 
L 48.78125 2.09375 
Q 45.015625 0.34375 40.984375 -0.53125 
Q 36.96875 -1.421875 32.421875 -1.421875 
Q 20.0625 -1.421875 12.78125 6.34375 
Q 5.515625 14.109375 5.515625 27.296875 
Q 5.515625 40.671875 12.859375 48.328125 
Q 20.21875 56 33.015625 56 
Q 37.15625 56 41.109375 55.140625 
Q 45.0625 54.296875 48.78125 52.59375 
z
" id="DejaVuSans-99"/>
     </defs>
     <g transform="translate(14.798438 224.20865)rotate(-90)scale(0.1 -0.1)">
      <use xlink:href="#DejaVuSans-80"/>
      <use x="60.302734" xlink:href="#DejaVuSans-104"/>
      <use x="123.681641" xlink:href="#DejaVuSans-114"/>
      <use x="162.544922" xlink:href="#DejaVuSans-101"/>
      <use x="224.068359" xlink:href="#DejaVuSans-100"/>
      <use x="287.544922" xlink:href="#DejaVuSans-32"/>
      <use x="319.332031" xlink:href="#DejaVuSans-83"/>
      <use x="382.808594" xlink:href="#DejaVuSans-99"/>
      <use x="437.789062" xlink:href="#DejaVuSans-111"/>
      <use x="498.970703" xlink:href="#DejaVuSans-114"/>
      <use x="537.833984" xlink:href="#DejaVuSans-101"/>
     </g>
    </g>
   </g>
   <g id="line2d_9">
    <path clip-path="url(#p81d8a516b8)" d="M 81.469943 50.970429 
L 84.373744 48.237325 
L 87.277544 47.386299 
L 90.181345 52.279701 
L 93.085145 57.009443 
L 95.988946 50.61038 
L 98.892746 50.700392 
L 101.796547 48.474631 
L 104.700348 56.101136 
L 113.411749 49.324021 
L 127.930752 45.618783 
L 142.449755 49.240554 
L 156.968757 48.545004 
L 171.48776 46.785671 
L 186.006763 47.954195 
L 200.525766 47.124445 
L 215.044768 53.152003 
L 229.563771 47.854363 
L 244.082774 54.102861 
L 258.601777 53.713353 
L 273.120779 54.142139 
L 287.639782 49.896827 
L 302.158785 50.489272 
L 316.677788 60.989628 
L 331.19679 52.965431 
L 345.715793 59.164831 
L 360.234796 61.668813 
L 374.753798 57.64935 
L 389.272801 58.516742 
L 403.791804 57.348217 
L 418.310807 59.701632 
L 432.829809 55.585611 
L 447.348812 61.860294 
L 461.867815 56.436637 
L 476.386818 66.046689 
L 490.90582 53.148729 
L 505.424823 61.896299 
L 519.943826 55.989848 
L 534.462829 55.559425 
L 548.981831 54.171598 
L 563.500834 58.377632 
L 578.019837 56.207515 
L 592.53884 65.190753 
L 607.057842 57.464415 
L 621.576845 58.726225 
L 636.095848 58.837831 
L 650.61485 58.559215 
L 665.133853 71.981212 
L 679.652856 64.43226 
L 694.171859 71.006466 
L 708.690861 69.24701 
L 723.209864 72.618482 
L 737.728867 79.502314 
L 752.24787 81.635286 
L 766.766872 90.655366 
L 781.285875 73.999508 
L 795.804878 88.319518 
L 810.323881 112.277119 
L 824.842883 137.41414 
L 839.361886 138.340855 
L 853.880889 151.197559 
L 868.399891 135.928683 
L 882.918894 149.931446 
L 897.437897 158.100006 
L 911.9569 162.724921 
L 926.475902 154.186195 
L 940.994905 165.251215 
L 949.706307 206.84415 
" style="fill:none;stroke:#d9534f;stroke-linecap:square;"/>
   </g>
   <g id="line2d_10">
    <path clip-path="url(#p81d8a516b8)" d="M 81.469943 47.852727 
L 84.373744 45.430575 
L 87.277544 44.874135 
L 90.181345 48.785583 
L 93.085145 53.155276 
L 95.988946 48.597375 
L 98.892746 48.908327 
L 101.796547 47.239006 
L 104.700348 52.517006 
L 113.411749 47.996747 
L 127.930752 45.091801 
L 142.449755 47.571234 
L 156.968757 46.586007 
L 171.48776 45.404389 
L 186.006763 46.003381 
L 200.525766 45.599144 
L 215.044768 50.52855 
L 229.563771 46.276691 
L 244.082774 51.600516 
L 258.601777 50.291245 
L 273.120779 50.553099 
L 287.639782 47.57287 
L 302.158785 48.463175 
L 316.677788 53.395854 
L 331.19679 46.8004 
L 345.715793 52.335345 
L 360.234796 54.19451 
L 374.753798 50.800224 
L 389.272801 51.603789 
L 403.791804 52.075127 
L 418.310807 54.330347 
L 432.829809 50.346889 
L 447.348812 55.484142 
L 461.867815 49.623516 
L 476.386818 59.577252 
L 490.90582 48.587555 
L 505.424823 55.109363 
L 519.943826 50.340342 
L 534.462829 50.286335 
L 548.981831 49.409123 
L 563.500834 52.587379 
L 578.019837 50.720031 
L 592.53884 58.053587 
L 607.057842 52.517006 
L 621.576845 52.664299 
L 636.095848 52.824685 
L 650.61485 52.530099 
L 665.133853 64.95672 
L 679.652856 58.930663 
L 694.171859 63.672122 
L 708.690861 63.501747 
L 723.209864 67.374516 
L 737.728867 71.019572 
L 752.24787 73.439234 
L 766.766872 87.020139 
L 781.285875 66.204822 
L 795.804878 78.951869 
L 810.323881 99.130351 
L 824.842883 115.970353 
L 839.361886 126.644424 
L 853.880889 139.711959 
L 868.399891 111.333019 
L 882.918894 128.65411 
L 897.437897 144.998446 
L 911.9569 147.635569 
L 926.475902 133.724561 
L 940.994905 161.151791 
L 949.706307 189.648482 
" style="fill:none;stroke:#5cb85c;stroke-linecap:square;"/>
   </g>
   <g id="line2d_11">
    <path clip-path="url(#p81d8a516b8)" d="M 81.469943 48.049118 
L 84.373744 45.66788 
L 87.277544 44.988696 
L 90.181345 48.450082 
L 93.085145 52.656116 
L 95.988946 48.466448 
L 98.892746 48.818314 
L 101.796547 46.036113 
L 104.700348 51.379576 
L 113.411749 47.415758 
L 127.930752 44.155672 
L 142.449755 47.024613 
L 156.968757 46.474719 
L 171.48776 45.857725 
L 186.006763 45.841359 
L 200.525766 44.995242 
L 215.044768 48.495906 
L 229.563771 45.718615 
L 244.082774 50.649658 
L 258.601777 49.474587 
L 273.120779 48.801949 
L 287.639782 46.996791 
L 302.158785 47.477948 
L 316.677788 52.533372 
L 331.19679 46.820039 
L 345.715793 51.463043 
L 360.234796 52.976888 
L 374.753798 50.788768 
L 389.272801 50.723304 
L 403.791804 50.842775 
L 418.310807 51.659433 
L 432.829809 49.191457 
L 447.348812 54.507098 
L 461.867815 49.836273 
L 476.386818 55.921111 
L 490.90582 48.747941 
L 505.424823 53.857373 
L 519.943826 49.744624 
L 534.462829 49.916466 
L 548.981831 49.297835 
L 563.500834 52.492457 
L 578.019837 50.67257 
L 592.53884 58.207427 
L 607.057842 51.003161 
L 621.576845 52.629931 
L 636.095848 53.796335 
L 650.61485 53.225909 
L 665.133853 63.991571 
L 679.652856 57.217165 
L 694.171859 62.99055 
L 708.690861 64.040407 
L 723.209864 67.603655 
L 737.728867 70.76591 
L 752.24787 75.507434 
L 766.766872 86.942089 
L 781.285875 69.230264 
L 795.804878 84.770778 
L 810.323881 103.294899 
L 824.842883 115.272272 
L 839.361886 118.819697 
L 853.880889 134.646258 
L 868.399891 99.83817 
L 882.918894 121.472955 
L 897.437897 126.444328 
L 911.9569 133.60922 
L 926.475902 122.568738 
L 940.994905 141.144855 
L 949.706307 182.45521 
" style="fill:none;stroke:#5cb85c;stroke-linecap:square;"/>
   </g>
   <g id="line2d_12">
    <path clip-path="url(#p81d8a516b8)" d="M 81.469943 48.981973 
L 84.373744 45.536953 
L 87.277544 45.291465 
L 90.181345 49.022888 
L 93.085145 53.089812 
L 95.988946 48.204594 
L 98.892746 48.69557 
L 101.796547 47.132628 
L 104.700348 50.340342 
L 113.411749 47.841271 
L 127.930752 45.041067 
L 142.449755 47.693978 
L 156.968757 46.736573 
L 171.48776 45.432211 
L 186.006763 45.795534 
L 200.525766 45.135989 
L 215.044768 49.27165 
L 229.563771 45.859361 
L 244.082774 51.940927 
L 258.601777 51.165183 
L 273.120779 51.350118 
L 287.639782 47.581053 
L 302.158785 48.525365 
L 316.677788 54.181417 
L 331.19679 46.389616 
L 345.715793 52.173322 
L 360.234796 53.536601 
L 374.753798 50.685663 
L 389.272801 51.44504 
L 403.791804 51.345208 
L 418.310807 53.315661 
L 432.829809 49.34366 
L 447.348812 55.305754 
L 461.867815 49.909919 
L 476.386818 57.90623 
L 490.90582 47.927119 
L 505.424823 54.627469 
L 519.943826 49.676746 
L 534.462829 50.14364 
L 548.981831 48.772444 
L 563.500834 51.811356 
L 578.019837 50.918522 
L 592.53884 59.189932 
L 607.057842 51.957158 
L 621.576845 53.171085 
L 636.095848 53.340763 
L 650.61485 53.091813 
L 665.133853 65.088998 
L 679.652856 59.287889 
L 694.171859 64.800092 
L 708.690861 63.783995 
L 723.209864 67.882855 
L 737.728867 70.584786 
L 752.24787 72.994528 
L 766.766872 85.379749 
L 781.285875 65.143341 
L 795.804878 80.702226 
L 810.323881 100.799361 
L 824.842883 119.440245 
L 839.361886 123.148466 
L 853.880889 135.578257 
L 868.399891 102.650065 
L 882.918894 126.211815 
L 897.437897 135.478977 
L 911.9569 131.686877 
L 926.475902 129.842467 
L 940.994905 148.81651 
L 949.706307 189.905939 
" style="fill:none;stroke:#5cb85c;stroke-linecap:square;"/>
   </g>
   <g id="line2d_13">
    <path clip-path="url(#p81d8a516b8)" d="M 81.469943 49.129266 
L 84.373744 44.710476 
L 87.277544 44.006742 
L 90.181345 49.276559 
L 93.085145 52.901604 
L 95.988946 48.13913 
L 98.892746 47.852727 
L 101.796547 45.078708 
L 104.700348 52.517006 
L 113.411749 46.268509 
L 127.930752 44.433892 
L 142.449755 46.705478 
L 156.968757 46.109759 
L 171.48776 44.96742 
L 186.006763 46.145764 
L 200.525766 44.713749 
L 215.044768 50.197959 
L 229.563771 46.011564 
L 244.082774 51.471225 
L 258.601777 50.746216 
L 273.120779 50.582558 
L 287.639782 47.964015 
L 302.158785 48.328974 
L 316.677788 53.471137 
L 331.19679 47.311016 
L 345.715793 52.913061 
L 360.234796 54.867148 
L 374.753798 50.692209 
L 389.272801 51.265015 
L 403.791804 51.114449 
L 418.310807 52.369713 
L 432.829809 47.782354 
L 447.348812 54.318891 
L 461.867815 49.121083 
L 476.386818 57.91775 
L 490.90582 47.189908 
L 505.424823 55.091361 
L 519.943826 48.980337 
L 534.462829 47.837998 
L 548.981831 46.446897 
L 563.500834 50.346889 
L 578.019837 48.801949 
L 592.53884 58.030675 
L 607.057842 49.783902 
L 621.576845 50.867324 
L 636.095848 51.098727 
L 650.61485 51.783506 
L 665.133853 62.353349 
L 679.652856 55.856139 
L 694.171859 62.867753 
L 708.690861 60.747886 
L 723.209864 62.939835 
L 737.728867 68.336156 
L 752.24787 71.538506 
L 766.766872 78.6646 
L 781.285875 64.949234 
L 795.804878 74.833637 
L 810.323881 97.69067 
L 824.842883 112.067449 
L 839.361886 108.611116 
L 853.880889 123.774098 
L 868.399891 105.782492 
L 882.918894 121.17078 
L 897.437897 118.215404 
L 911.9569 136.690564 
L 926.475902 128.633509 
L 940.994905 151.817955 
L 949.706307 192.661233 
" style="fill:none;stroke:#5cb85c;stroke-linecap:square;"/>
   </g>
   <g id="line2d_14">
    <path clip-path="url(#p81d8a516b8)" d="M 81.469943 50.986795 
L 84.373744 48.400984 
L 87.277544 48.163679 
L 90.181345 53.188008 
L 93.085145 56.673942 
L 95.988946 50.078488 
L 98.892746 50.02939 
L 101.796547 48.13913 
L 104.700348 54.382718 
L 113.411749 49.700436 
L 127.930752 46.492721 
L 142.449755 50.543279 
L 156.968757 47.952559 
L 171.48776 47.039342 
L 186.006763 47.986927 
L 200.525766 47.106442 
L 215.044768 54.911336 
L 229.563771 48.49918 
L 244.082774 53.870465 
L 258.601777 55.119183 
L 273.120779 54.790228 
L 287.639782 49.284742 
L 302.158785 51.120995 
L 316.677788 60.680313 
L 331.19679 55.210832 
L 345.715793 58.755684 
L 360.234796 62.109055 
L 374.753798 58.636213 
L 389.272801 59.914389 
L 403.791804 59.387407 
L 418.310807 61.719547 
L 432.829809 57.993033 
L 447.348812 62.92735 
L 461.867815 59.18938 
L 476.386818 67.349414 
L 490.90582 56.66576 
L 505.424823 63.992769 
L 519.943826 58.218883 
L 534.462829 58.927526 
L 548.981831 58.051951 
L 563.500834 61.212204 
L 578.019837 60.09605 
L 592.53884 67.598175 
L 607.057842 60.642671 
L 621.576845 61.493698 
L 636.095848 62.236709 
L 650.61485 61.352951 
L 665.133853 72.334464 
L 679.652856 66.696415 
L 694.171859 73.12821 
L 708.690861 72.694514 
L 723.209864 76.538862 
L 737.728867 81.852867 
L 752.24787 86.171826 
L 766.766872 93.575755 
L 781.285875 74.68297 
L 795.804878 92.273012 
L 810.323881 114.605337 
L 824.842883 152.651978 
L 839.361886 154.03516 
L 853.880889 162.619334 
L 868.399891 144.446155 
L 882.918894 166.590743 
L 897.437897 173.461764 
L 911.9569 177.650364 
L 926.475902 171.640435 
L 940.994905 181.028826 
L 949.706307 219.023588 
" style="fill:none;stroke:#d9534f;stroke-linecap:square;"/>
   </g>
   <g id="line2d_15">
    <path clip-path="url(#p81d8a516b8)" d="M 81.469943 51.224101 
L 84.373744 47.656336 
L 87.277544 46.878956 
L 90.181345 52.22242 
L 93.085145 56.256612 
L 95.988946 50.217598 
L 98.892746 49.636609 
L 101.796547 48.147313 
L 104.700348 55.831099 
L 113.411749 48.224233 
L 127.930752 45.424029 
L 142.449755 49.153815 
L 156.968757 48.757761 
L 171.48776 46.469809 
L 186.006763 47.353567 
L 200.525766 46.428894 
L 215.044768 54.508735 
L 229.563771 48.739758 
L 244.082774 54.466184 
L 258.601777 54.33362 
L 273.120779 55.142095 
L 287.639782 49.589148 
L 302.158785 51.585787 
L 316.677788 59.681993 
L 331.19679 54.093041 
L 345.715793 58.361266 
L 360.234796 61.007631 
L 374.753798 58.956984 
L 389.272801 57.871926 
L 403.791804 58.430003 
L 418.310807 60.961806 
L 432.829809 55.984938 
L 447.348812 62.606578 
L 461.867815 56.453003 
L 476.386818 66.408375 
L 490.90582 54.865511 
L 505.424823 62.992813 
L 519.943826 56.0995 
L 534.462829 56.649394 
L 548.981831 55.204285 
L 563.500834 59.451234 
L 578.019837 57.991397 
L 592.53884 65.979588 
L 607.057842 59.060089 
L 621.576845 59.305578 
L 636.095848 59.598813 
L 650.61485 60.266239 
L 665.133853 72.876831 
L 679.652856 65.843433 
L 694.171859 71.794518 
L 708.690861 70.820436 
L 723.209864 70.781079 
L 737.728867 79.482223 
L 752.24787 83.637651 
L 766.766872 89.057418 
L 781.285875 74.534739 
L 795.804878 86.940988 
L 810.323881 112.103672 
L 824.842883 143.368393 
L 839.361886 147.351362 
L 853.880889 153.23957 
L 868.399891 137.289648 
L 882.918894 150.127529 
L 897.437897 167.284137 
L 911.9569 170.031988 
L 926.475902 150.286843 
L 940.994905 171.573199 
L 949.706307 209.220098 
" style="fill:none;stroke:#d9534f;stroke-linecap:square;"/>
   </g>
   <g id="line2d_16">
    <path clip-path="url(#p81d8a516b8)" d="M 81.469943 48.00002 
L 84.373744 45.422392 
L 87.277544 44.47317 
L 90.181345 49.104718 
L 93.085145 54.579108 
L 95.988946 48.090032 
L 98.892746 47.959105 
L 101.796547 46.093393 
L 104.700348 52.320615 
L 113.411749 47.533592 
L 127.930752 44.663015 
L 142.449755 47.71198 
L 156.968757 47.01643 
L 171.48776 45.46658 
L 186.006763 46.510724 
L 200.525766 45.363475 
L 215.044768 50.271606 
L 229.563771 46.461626 
L 244.082774 52.091493 
L 258.601777 51.351754 
L 273.120779 52.458089 
L 287.639782 47.911644 
L 302.158785 48.348613 
L 316.677788 54.75586 
L 331.19679 46.186679 
L 345.715793 52.888512 
L 360.234796 55.38431 
L 374.753798 50.579284 
L 389.272801 51.404125 
L 403.791804 51.616882 
L 418.310807 54.083577 
L 432.829809 49.082069 
L 447.348812 56.503239 
L 461.867815 50.35661 
L 476.386818 59.342287 
L 490.90582 47.77804 
L 505.424823 56.79812 
L 519.943826 48.952649 
L 534.462829 49.58009 
L 548.981831 48.161385 
L 563.500834 51.745827 
L 578.019837 49.555517 
L 592.53884 60.79048 
L 607.057842 50.970945 
L 621.576845 52.237295 
L 636.095848 52.835089 
L 650.61485 51.222362 
L 665.133853 65.053017 
L 679.652856 58.544377 
L 694.171859 67.214364 
L 708.690861 62.157008 
L 723.209864 65.153049 
L 737.728867 69.188766 
L 752.24787 71.89619 
L 766.766872 84.928228 
L 781.285875 63.685366 
L 795.804878 79.89219 
L 810.323881 97.644376 
L 824.842883 123.711752 
L 839.361886 114.126016 
L 853.880889 129.275988 
L 868.399891 104.107664 
L 882.918894 123.587977 
L 897.437897 123.839562 
L 911.9569 125.669814 
L 926.475902 128.158794 
L 940.994905 127.948021 
L 949.706307 184.171678 
" style="fill:none;stroke:#5cb85c;stroke-linecap:square;"/>
   </g>
   <g id="line2d_17">
    <path clip-path="url(#p81d8a516b8)" d="M 81.469943 49.325657 
L 84.373744 46.846224 
L 87.277544 45.618783 
L 90.181345 50.233964 
L 93.085145 54.767316 
L 95.988946 48.433716 
L 98.892746 49.399304 
L 101.796547 47.738166 
L 104.700348 53.539874 
L 113.411749 48.651382 
L 127.930752 45.072162 
L 142.449755 47.319199 
L 156.968757 47.072074 
L 171.48776 45.723524 
L 186.006763 46.828222 
L 200.525766 45.689156 
L 215.044768 49.628426 
L 229.563771 46.381433 
L 244.082774 53.006346 
L 258.601777 51.129178 
L 273.120779 51.363211 
L 287.639782 47.996747 
L 302.158785 48.348613 
L 316.677788 53.877012 
L 331.19679 47.368296 
L 345.715793 52.456452 
L 360.234796 54.840963 
L 374.753798 52.255152 
L 389.272801 51.955656 
L 403.791804 53.006346 
L 418.310807 53.274747 
L 432.829809 49.931195 
L 447.348812 58.202517 
L 461.867815 50.911512 
L 476.386818 57.78355 
L 490.90582 49.595694 
L 505.424823 57.101092 
L 519.943826 50.697256 
L 534.462829 50.006029 
L 548.981831 48.61026 
L 563.500834 51.95552 
L 578.019837 50.738317 
L 592.53884 59.466793 
L 607.057842 52.368353 
L 621.576845 52.868013 
L 636.095848 53.174361 
L 650.61485 52.758251 
L 665.133853 61.498195 
L 679.652856 57.931773 
L 694.171859 64.96796 
L 708.690861 61.498195 
L 723.209864 61.196761 
L 737.728867 63.029937 
L 752.24787 67.913493 
L 766.766872 76.984358 
L 781.285875 65.167824 
L 795.804878 74.076504 
L 810.323881 90.087747 
L 824.842883 101.624889 
L 839.361886 103.480393 
L 853.880889 116.818594 
L 868.399891 92.856168 
L 882.918894 117.476188 
L 897.437897 123.107386 
L 911.9569 119.632269 
L 926.475902 114.428755 
L 940.994905 126.192738 
L 949.706307 175.675509 
" style="fill:none;stroke:#5cb85c;stroke-linecap:square;"/>
   </g>
   <g id="line2d_18">
    <path clip-path="url(#p81d8a516b8)" d="M 81.469943 48.425533 
L 84.373744 45.741527 
L 87.277544 45.929735 
L 90.181345 49.75117 
L 93.085145 54.145412 
L 95.988946 48.073666 
L 98.892746 48.319155 
L 101.796547 47.230823 
L 104.700348 51.878736 
L 113.411749 48.382982 
L 127.930752 45.469853 
L 142.449755 47.391209 
L 156.968757 47.054071 
L 171.48776 45.469853 
L 186.006763 46.150674 
L 200.525766 45.867544 
L 215.044768 49.145632 
L 229.563771 46.93951 
L 244.082774 52.165139 
L 258.601777 51.629975 
L 273.120779 53.016166 
L 287.639782 47.553231 
L 302.158785 48.168589 
L 316.677788 52.814865 
L 331.19679 46.973878 
L 345.715793 52.093129 
L 360.234796 53.050534 
L 374.753798 50.301064 
L 389.272801 50.994978 
L 403.791804 51.896739 
L 418.310807 52.801772 
L 432.829809 49.026161 
L 447.348812 56.130595 
L 461.867815 49.739714 
L 476.386818 57.664079 
L 490.90582 47.664519 
L 505.424823 54.335257 
L 519.943826 49.18491 
L 534.462829 48.7103 
L 548.981831 48.371526 
L 563.500834 51.31575 
L 578.019837 49.409123 
L 592.53884 56.744316 
L 607.057842 50.608743 
L 621.576845 51.173366 
L 636.095848 50.337069 
L 650.61485 50.085034 
L 665.133853 60.076411 
L 679.652856 55.291025 
L 694.171859 62.506746 
L 708.690861 59.865291 
L 723.209864 59.046997 
L 737.728867 61.424961 
L 752.24787 66.154704 
L 766.766872 75.039746 
L 781.285875 61.791557 
L 795.804878 71.383606 
L 810.323881 85.596823 
L 824.842883 97.116079 
L 839.361886 104.480531 
L 853.880889 115.991208 
L 868.399891 91.320984 
L 882.918894 107.693016 
L 897.437897 114.27085 
L 911.9569 122.576922 
L 926.475902 120.671305 
L 940.994905 126.209437 
L 949.706307 171.355047 
" style="fill:none;stroke:#5cb85c;stroke-linecap:square;"/>
   </g>
   <g id="line2d_19">
    <path clip-path="url(#p81d8a516b8)" d="M 81.469943 50.143952 
L 84.373744 46.911688 
L 87.277544 46.297967 
L 90.181345 49.800268 
L 93.085145 54.685487 
L 95.988946 49.276559 
L 98.892746 49.702073 
L 101.796547 46.641651 
L 104.700348 53.678984 
L 113.411749 47.51068 
L 127.930752 45.584414 
L 142.449755 47.063891 
L 156.968757 47.148993 
L 171.48776 46.203045 
L 186.006763 46.271782 
L 200.525766 45.32747 
L 215.044768 50.582558 
L 229.563771 46.955876 
L 244.082774 51.600516 
L 258.601777 50.577648 
L 273.120779 50.340342 
L 287.639782 48.163679 
L 302.158785 48.703753 
L 316.677788 52.767404 
L 331.19679 47.410848 
L 345.715793 51.143908 
L 360.234796 53.405674 
L 374.753798 51.463043 
L 389.272801 51.065351 
L 403.791804 52.191325 
L 418.310807 53.84428 
L 432.829809 50.037573 
L 447.348812 57.205834 
L 461.867815 51.292837 
L 476.386818 58.91607 
L 490.90582 49.319111 
L 505.424823 56.508647 
L 519.943826 50.184866 
L 534.462829 51.73308 
L 548.981831 49.882097 
L 563.500834 52.492457 
L 578.019837 51.040803 
L 592.53884 59.848925 
L 607.057842 52.58247 
L 621.576845 54.209239 
L 636.095848 52.490883 
L 650.61485 54.103612 
L 665.133853 63.739482 
L 679.652856 58.024538 
L 694.171859 64.946425 
L 708.690861 63.058936 
L 723.209864 66.650078 
L 737.728867 72.062149 
L 752.24787 74.60157 
L 766.766872 84.902069 
L 781.285875 69.711501 
L 795.804878 80.323887 
L 810.323881 99.347113 
L 824.842883 114.955675 
L 839.361886 114.215353 
L 853.880889 126.647476 
L 868.399891 100.500867 
L 882.918894 110.05473 
L 897.437897 125.574194 
L 911.9569 134.069732 
L 926.475902 130.286448 
L 940.994905 140.165438 
L 949.706307 181.547908 
" style="fill:none;stroke:#5cb85c;stroke-linecap:square;"/>
   </g>
   <g id="line2d_20">
    <path clip-path="url(#p81d8a516b8)" d="M 81.469943 48.851046 
L 84.373744 45.406026 
L 87.277544 45.086891 
L 90.181345 48.949242 
L 93.085145 54.562742 
L 95.988946 47.157176 
L 98.892746 48.130947 
L 101.796547 46.977152 
L 104.700348 51.142271 
L 113.411749 48.941059 
L 127.930752 44.888864 
L 142.449755 47.311016 
L 156.968757 46.703841 
L 171.48776 46.09994 
L 186.006763 46.695658 
L 200.525766 45.540226 
L 215.044768 48.954151 
L 229.563771 46.203045 
L 244.082774 52.00148 
L 258.601777 51.160274 
L 273.120779 51.549782 
L 287.639782 47.29956 
L 302.158785 48.220959 
L 316.677788 53.284566 
L 331.19679 46.973878 
L 345.715793 52.415537 
L 360.234796 53.791909 
L 374.753798 51.242103 
L 389.272801 51.237193 
L 403.791804 50.571101 
L 418.310807 53.094722 
L 432.829809 50.301064 
L 447.348812 56.737769 
L 461.867815 51.140634 
L 476.386818 57.99958 
L 490.90582 48.333884 
L 505.424823 55.259929 
L 519.943826 50.199596 
L 534.462829 50.721668 
L 548.981831 49.664431 
L 563.500834 53.209283 
L 578.019837 50.024481 
L 592.53884 58.780233 
L 607.057842 52.201144 
L 621.576845 52.408991 
L 636.095848 52.232239 
L 650.61485 52.718306 
L 665.133853 63.971494 
L 679.652856 59.145192 
L 694.171859 65.133472 
L 708.690861 63.380685 
L 723.209864 67.308499 
L 737.728867 70.079244 
L 752.24787 74.363356 
L 766.766872 88.234066 
L 781.285875 66.378474 
L 795.804878 80.244431 
L 810.323881 102.382777 
L 824.842883 124.140762 
L 839.361886 121.350554 
L 853.880889 134.164699 
L 868.399891 114.578062 
L 882.918894 127.65827 
L 897.437897 134.597408 
L 911.9569 142.059665 
L 926.475902 125.516845 
L 940.994905 157.832583 
L 949.706307 191.178522 
" style="fill:none;stroke:#5cb85c;stroke-linecap:square;"/>
   </g>
   <g id="line2d_21">
    <path clip-path="url(#p81d8a516b8)" d="M 81.469943 51.412308 
L 84.373744 46.289784 
L 87.277544 45.406026 
L 90.181345 49.505682 
L 93.085145 54.202693 
L 95.988946 47.934556 
L 98.892746 46.772578 
L 101.796547 46.38798 
L 104.700348 53.269837 
L 113.411749 48.590829 
L 127.930752 44.425709 
L 142.449755 47.579416 
L 156.968757 46.936237 
L 171.48776 45.409299 
L 186.006763 46.194862 
L 200.525766 45.38475 
L 215.044768 50.742943 
L 229.563771 46.320879 
L 244.082774 52.29934 
L 258.601777 52.135681 
L 273.120779 52.348437 
L 287.639782 48.890324 
L 302.158785 49.107991 
L 316.677788 54.129046 
L 331.19679 47.566324 
L 345.715793 53.548057 
L 360.234796 54.620023 
L 374.753798 51.610336 
L 389.272801 51.823092 
L 403.791804 52.873782 
L 418.310807 54.593838 
L 432.829809 49.188184 
L 447.348812 56.894882 
L 461.867815 50.965519 
L 476.386818 58.439822 
L 490.90582 48.274967 
L 505.424823 57.544608 
L 519.943826 50.788768 
L 534.462829 50.328886 
L 548.981831 47.960742 
L 563.500834 52.065307 
L 578.019837 51.207735 
L 592.53884 60.879977 
L 607.057842 52.842687 
L 621.576845 53.62334 
L 636.095848 53.674075 
L 650.61485 53.322208 
L 665.133853 66.907535 
L 679.652856 59.325217 
L 694.171859 67.915673 
L 708.690861 63.572166 
L 723.209864 66.781517 
L 737.728867 73.584818 
L 752.24787 74.519311 
L 766.766872 84.24556 
L 781.285875 70.193806 
L 795.804878 81.415898 
L 810.323881 101.067169 
L 824.842883 107.523549 
L 839.361886 110.789632 
L 853.880889 118.625051 
L 868.399891 110.066519 
L 882.918894 124.646946 
L 897.437897 124.284037 
L 911.9569 131.466068 
L 926.475902 128.192889 
L 940.994905 139.924861 
L 949.706307 185.193272 
" style="fill:none;stroke:#5cb85c;stroke-linecap:square;"/>
   </g>
   <g id="line2d_22">
    <path clip-path="url(#p81d8a516b8)" d="M 81.469943 49.211096 
L 84.373744 46.060662 
L 87.277544 45.700612 
L 90.181345 50.004842 
L 93.085145 54.178144 
L 95.988946 47.901825 
L 98.892746 47.975471 
L 101.796547 46.960786 
L 104.700348 51.224101 
L 113.411749 47.79381 
L 127.930752 45.365111 
L 142.449755 47.029522 
L 156.968757 47.333928 
L 171.48776 45.96574 
L 186.006763 46.160494 
L 200.525766 45.860998 
L 215.044768 49.718438 
L 229.563771 46.698931 
L 244.082774 51.828002 
L 258.601777 51.636521 
L 273.120779 51.963839 
L 287.639782 47.764351 
L 302.158785 48.307699 
L 316.677788 52.610292 
L 331.19679 47.183362 
L 345.715793 51.706894 
L 360.234796 54.747677 
L 374.753798 50.80677 
L 389.272801 51.066988 
L 403.791804 52.585743 
L 418.310807 53.083266 
L 432.829809 49.785539 
L 447.348812 55.477596 
L 461.867815 50.104674 
L 476.386818 58.56093 
L 490.90582 48.656292 
L 505.424823 54.312344 
L 519.943826 50.882053 
L 534.462829 52.104586 
L 548.981831 50.502365 
L 563.500834 54.385991 
L 578.019837 52.210964 
L 592.53884 57.919387 
L 607.057842 52.00639 
L 621.576845 53.387671 
L 636.095848 54.079949 
L 650.61485 54.372898 
L 665.133853 63.961674 
L 679.652856 56.806506 
L 694.171859 64.367548 
L 708.690861 64.833976 
L 723.209864 70.080881 
L 737.728867 73.926865 
L 752.24787 76.761438 
L 766.766872 85.859237 
L 781.285875 67.498343 
L 795.804878 84.666164 
L 810.323881 104.254753 
L 824.842883 118.466288 
L 839.361886 117.004284 
L 853.880889 137.115447 
L 868.399891 107.208139 
L 882.918894 115.394762 
L 897.437897 129.885526 
L 911.9569 130.849544 
L 926.475902 114.214624 
L 940.994905 132.823718 
L 949.706307 188.421777 
" style="fill:none;stroke:#5cb85c;stroke-linecap:square;"/>
   </g>
   <g id="line2d_23">
    <path clip-path="url(#p81d8a516b8)" d="M 81.469943 49.775719 
L 84.373744 46.175223 
L 87.277544 45.446941 
L 90.181345 48.196411 
L 93.085145 53.007983 
L 95.988946 48.785583 
L 98.892746 47.329018 
L 101.796547 46.126125 
L 104.700348 51.436857 
L 113.411749 47.919827 
L 127.930752 44.879044 
L 142.449755 46.993518 
L 156.968757 47.080257 
L 171.48776 45.304558 
L 186.006763 45.993562 
L 200.525766 44.937962 
L 215.044768 48.954151 
L 229.563771 46.397799 
L 244.082774 52.071854 
L 258.601777 50.415625 
L 273.120779 49.738078 
L 287.639782 47.877276 
L 302.158785 48.530275 
L 316.677788 53.711716 
L 331.19679 46.874047 
L 345.715793 52.030939 
L 360.234796 53.654435 
L 374.753798 50.562919 
L 389.272801 51.047349 
L 403.791804 51.463043 
L 418.310807 53.913017 
L 432.829809 50.440174 
L 447.348812 57.768821 
L 461.867815 50.711848 
L 476.386818 57.740999 
L 490.90582 48.445172 
L 505.424823 55.507054 
L 519.943826 50.962246 
L 534.462829 50.517094 
L 548.981831 49.253647 
L 563.500834 52.764131 
L 578.019837 51.539962 
L 592.53884 58.613301 
L 607.057842 52.548101 
L 621.576845 53.386035 
L 636.095848 53.466228 
L 650.61485 52.904878 
L 665.133853 63.956764 
L 679.652856 58.425093 
L 694.171859 65.778288 
L 708.690861 63.714549 
L 723.209864 68.6996 
L 737.728867 72.308279 
L 752.24787 74.234544 
L 766.766872 83.60729 
L 781.285875 67.380509 
L 795.804878 82.658069 
L 810.323881 102.662488 
L 824.842883 112.055944 
L 839.361886 112.879091 
L 853.880889 126.688786 
L 868.399891 107.231533 
L 882.918894 122.486361 
L 897.437897 127.82681 
L 911.9569 142.823996 
L 926.475902 124.625125 
L 940.994905 139.652232 
L 949.706307 180.984255 
" style="fill:none;stroke:#5cb85c;stroke-linecap:square;"/>
   </g>
   <g id="line2d_24">
    <path clip-path="url(#p81d8a516b8)" d="M 81.469943 48.335521 
L 84.373744 45.684246 
L 87.277544 45.201452 
L 90.181345 50.004842 
L 93.085145 53.572606 
L 95.988946 48.376435 
L 98.892746 48.00002 
L 101.796547 47.484494 
L 104.700348 51.796907 
L 113.411749 48.790492 
L 127.930752 44.664651 
L 142.449755 47.317562 
L 156.968757 46.721844 
L 171.48776 45.60569 
L 186.006763 46.09994 
L 200.525766 45.635149 
L 215.044768 50.129222 
L 229.563771 46.811856 
L 244.082774 52.690484 
L 258.601777 53.449862 
L 273.120779 52.263335 
L 287.639782 47.949286 
L 302.158785 48.301152 
L 316.677788 54.603657 
L 331.19679 46.772578 
L 345.715793 53.543147 
L 360.234796 56.58884 
L 374.753798 50.428718 
L 389.272801 51.107903 
L 403.791804 53.05708 
L 418.310807 54.027578 
L 432.829809 50.215962 
L 447.348812 56.523376 
L 461.867815 50.477816 
L 476.386818 60.115689 
L 490.90582 47.993474 
L 505.424823 55.228834 
L 519.943826 49.464767 
L 534.462829 49.643155 
L 548.981831 50.569465 
L 563.500834 54.26161 
L 578.019837 50.882053 
L 592.53884 59.523244 
L 607.057842 52.323888 
L 621.576845 53.662618 
L 636.095848 53.636433 
L 650.61485 52.772314 
L 665.133853 67.35596 
L 679.652856 58.880065 
L 694.171859 65.755376 
L 708.690861 64.851979 
L 723.209864 68.269177 
L 737.728867 71.396699 
L 752.24787 76.630511 
L 766.766872 85.761042 
L 781.285875 67.108835 
L 795.804878 84.356848 
L 810.323881 105.553939 
L 824.842883 124.436621 
L 839.361886 116.490291 
L 853.880889 133.211105 
L 868.399891 109.467428 
L 882.918894 124.178131 
L 897.437897 128.469986 
L 911.9569 131.345336 
L 926.475902 137.473155 
L 940.994905 154.489885 
L 949.706307 182.889422 
" style="fill:none;stroke:#5cb85c;stroke-linecap:square;"/>
   </g>
   <g id="line2d_25">
    <path clip-path="url(#p81d8a516b8)" d="M 38.058125 353.2239 
L 993.118125 353.2239 
" style="fill:none;stroke:#dedede;stroke-linecap:square;stroke-width:2;"/>
   </g>
   <g id="text_18">
    <!-- FastQC: Mean Quality Scores -->
    <defs>
     <path d="M 9.8125 72.90625 
L 51.703125 72.90625 
L 51.703125 64.59375 
L 19.671875 64.59375 
L 19.671875 43.109375 
L 48.578125 43.109375 
L 48.578125 34.8125 
L 19.671875 34.8125 
L 19.671875 0 
L 9.8125 0 
z
" id="DejaVuSans-70"/>
     <path d="M 34.28125 27.484375 
Q 23.390625 27.484375 19.1875 25 
Q 14.984375 22.515625 14.984375 16.5 
Q 14.984375 11.71875 18.140625 8.90625 
Q 21.296875 6.109375 26.703125 6.109375 
Q 34.1875 6.109375 38.703125 11.40625 
Q 43.21875 16.703125 43.21875 25.484375 
L 43.21875 27.484375 
z
M 52.203125 31.203125 
L 52.203125 0 
L 43.21875 0 
L 43.21875 8.296875 
Q 40.140625 3.328125 35.546875 0.953125 
Q 30.953125 -1.421875 24.3125 -1.421875 
Q 15.921875 -1.421875 10.953125 3.296875 
Q 6 8.015625 6 15.921875 
Q 6 25.140625 12.171875 29.828125 
Q 18.359375 34.515625 30.609375 34.515625 
L 43.21875 34.515625 
L 43.21875 35.40625 
Q 43.21875 41.609375 39.140625 45 
Q 35.0625 48.390625 27.6875 48.390625 
Q 23 48.390625 18.546875 47.265625 
Q 14.109375 46.140625 10.015625 43.890625 
L 10.015625 52.203125 
Q 14.9375 54.109375 19.578125 55.046875 
Q 24.21875 56 28.609375 56 
Q 40.484375 56 46.34375 49.84375 
Q 52.203125 43.703125 52.203125 31.203125 
z
" id="DejaVuSans-97"/>
     <path d="M 39.40625 66.21875 
Q 28.65625 66.21875 22.328125 58.203125 
Q 16.015625 50.203125 16.015625 36.375 
Q 16.015625 22.609375 22.328125 14.59375 
Q 28.65625 6.59375 39.40625 6.59375 
Q 50.140625 6.59375 56.421875 14.59375 
Q 62.703125 22.609375 62.703125 36.375 
Q 62.703125 50.203125 56.421875 58.203125 
Q 50.140625 66.21875 39.40625 66.21875 
z
M 53.21875 1.3125 
L 66.21875 -12.890625 
L 54.296875 -12.890625 
L 43.5 -1.21875 
Q 41.890625 -1.3125 41.03125 -1.359375 
Q 40.1875 -1.421875 39.40625 -1.421875 
Q 24.03125 -1.421875 14.8125 8.859375 
Q 5.609375 19.140625 5.609375 36.375 
Q 5.609375 53.65625 14.8125 63.9375 
Q 24.03125 74.21875 39.40625 74.21875 
Q 54.734375 74.21875 63.90625 63.9375 
Q 73.09375 53.65625 73.09375 36.375 
Q 73.09375 23.6875 67.984375 14.640625 
Q 62.890625 5.609375 53.21875 1.3125 
z
" id="DejaVuSans-81"/>
     <path d="M 64.40625 67.28125 
L 64.40625 56.890625 
Q 59.421875 61.53125 53.78125 63.8125 
Q 48.140625 66.109375 41.796875 66.109375 
Q 29.296875 66.109375 22.65625 58.46875 
Q 16.015625 50.828125 16.015625 36.375 
Q 16.015625 21.96875 22.65625 14.328125 
Q 29.296875 6.6875 41.796875 6.6875 
Q 48.140625 6.6875 53.78125 8.984375 
Q 59.421875 11.28125 64.40625 15.921875 
L 64.40625 5.609375 
Q 59.234375 2.09375 53.4375 0.328125 
Q 47.65625 -1.421875 41.21875 -1.421875 
Q 24.65625 -1.421875 15.125 8.703125 
Q 5.609375 18.84375 5.609375 36.375 
Q 5.609375 53.953125 15.125 64.078125 
Q 24.65625 74.21875 41.21875 74.21875 
Q 47.75 74.21875 53.53125 72.484375 
Q 59.328125 70.75 64.40625 67.28125 
z
" id="DejaVuSans-67"/>
     <path d="M 11.71875 12.40625 
L 22.015625 12.40625 
L 22.015625 0 
L 11.71875 0 
z
M 11.71875 51.703125 
L 22.015625 51.703125 
L 22.015625 39.3125 
L 11.71875 39.3125 
z
" id="DejaVuSans-58"/>
     <path d="M 9.8125 72.90625 
L 24.515625 72.90625 
L 43.109375 23.296875 
L 61.8125 72.90625 
L 76.515625 72.90625 
L 76.515625 0 
L 66.890625 0 
L 66.890625 64.015625 
L 48.09375 14.015625 
L 38.1875 14.015625 
L 19.390625 64.015625 
L 19.390625 0 
L 9.8125 0 
z
" id="DejaVuSans-77"/>
     <path d="M 8.5 21.578125 
L 8.5 54.6875 
L 17.484375 54.6875 
L 17.484375 21.921875 
Q 17.484375 14.15625 20.5 10.265625 
Q 23.53125 6.390625 29.59375 6.390625 
Q 36.859375 6.390625 41.078125 11.03125 
Q 45.3125 15.671875 45.3125 23.6875 
L 45.3125 54.6875 
L 54.296875 54.6875 
L 54.296875 0 
L 45.3125 0 
L 45.3125 8.40625 
Q 42.046875 3.421875 37.71875 1 
Q 33.40625 -1.421875 27.6875 -1.421875 
Q 18.265625 -1.421875 13.375 4.4375 
Q 8.5 10.296875 8.5 21.578125 
z
M 31.109375 56 
z
" id="DejaVuSans-117"/>
     <path d="M 9.421875 75.984375 
L 18.40625 75.984375 
L 18.40625 0 
L 9.421875 0 
z
" id="DejaVuSans-108"/>
     <path d="M 32.171875 -5.078125 
Q 28.375 -14.84375 24.75 -17.8125 
Q 21.140625 -20.796875 15.09375 -20.796875 
L 7.90625 -20.796875 
L 7.90625 -13.28125 
L 13.1875 -13.28125 
Q 16.890625 -13.28125 18.9375 -11.515625 
Q 21 -9.765625 23.484375 -3.21875 
L 25.09375 0.875 
L 2.984375 54.6875 
L 12.5 54.6875 
L 29.59375 11.921875 
L 46.6875 54.6875 
L 56.203125 54.6875 
z
" id="DejaVuSans-121"/>
    </defs>
    <g transform="translate(400.349375 19.3575)scale(0.16 -0.16)">
     <use xlink:href="#DejaVuSans-70"/>
     <use x="48.394531" xlink:href="#DejaVuSans-97"/>
     <use x="109.673828" xlink:href="#DejaVuSans-115"/>
     <use x="161.773438" xlink:href="#DejaVuSans-116"/>
     <use x="200.982422" xlink:href="#DejaVuSans-81"/>
     <use x="279.693359" xlink:href="#DejaVuSans-67"/>
     <use x="349.517578" xlink:href="#DejaVuSans-58"/>
     <use x="383.208984" xlink:href="#DejaVuSans-32"/>
     <use x="414.996094" xlink:href="#DejaVuSans-77"/>
     <use x="501.275391" xlink:href="#DejaVuSans-101"/>
     <use x="562.798828" xlink:href="#DejaVuSans-97"/>
     <use x="624.078125" xlink:href="#DejaVuSans-110"/>
     <use x="687.457031" xlink:href="#DejaVuSans-32"/>
     <use x="719.244141" xlink:href="#DejaVuSans-81"/>
     <use x="797.955078" xlink:href="#DejaVuSans-117"/>
     <use x="861.333984" xlink:href="#DejaVuSans-97"/>
     <use x="922.613281" xlink:href="#DejaVuSans-108"/>
     <use x="950.396484" xlink:href="#DejaVuSans-105"/>
     <use x="978.179688" xlink:href="#DejaVuSans-116"/>
     <use x="1017.388672" xlink:href="#DejaVuSans-121"/>
     <use x="1076.568359" xlink:href="#DejaVuSans-32"/>
     <use x="1108.355469" xlink:href="#DejaVuSans-83"/>
     <use x="1171.832031" xlink:href="#DejaVuSans-99"/>
     <use x="1226.8125" xlink:href="#DejaVuSans-111"/>
     <use x="1287.994141" xlink:href="#DejaVuSans-114"/>
     <use x="1326.857422" xlink:href="#DejaVuSans-101"/>
     <use x="1388.380859" xlink:href="#DejaVuSans-115"/>
    </g>
   </g>
  </g>
 </g>
 <defs>
  <clipPath id="p81d8a516b8">
   <rect height="317.968" width="955.06" x="38.058125" y="35.2559"/>
  </clipPath>
 </defs>
</svg>
