<?xml version="1.0" encoding="utf-8" standalone="no"?>
<!DOCTYPE svg PUBLIC "-//W3C//DTD SVG 1.1//EN"
  "http://www.w3.org/Graphics/SVG/1.1/DTD/svg11.dtd">
<!-- Created with matplotlib (https://matplotlib.org/) -->
<svg height="388.844525pt" version="1.1" viewBox="0 0 1000.258125 388.844525" width="1000.258125pt" xmlns="http://www.w3.org/2000/svg" xmlns:xlink="http://www.w3.org/1999/xlink">
 <defs>
  <style type="text/css">
*{stroke-linecap:butt;stroke-linejoin:round;}
  </style>
 </defs>
 <g id="figure_1">
  <g id="axes_1">
   <g id="patch_1">
    <path d="M 38.058125 353.2239 
L 985.423125 353.2239 
L 985.423125 35.2559 
L 38.058125 35.2559 
z
" style="fill:#ffffff;"/>
   </g>
   <g id="matplotlib.axis_1">
    <g id="xtick_1">
     <g id="text_1">
      <!-- 0 -->
      <defs>
       <path d="M 31.78125 66.40625 
Q 24.171875 66.40625 20.328125 58.90625 
Q 16.5 51.421875 16.5 36.375 
Q 16.5 21.390625 20.328125 13.890625 
Q 24.171875 6.390625 31.78125 6.390625 
Q 39.453125 6.390625 43.28125 13.890625 
Q 47.125 21.390625 47.125 36.375 
Q 47.125 51.421875 43.28125 58.90625 
Q 39.453125 66.40625 31.78125 66.40625 
z
M 31.78125 74.21875 
Q 44.046875 74.21875 50.515625 64.515625 
Q 56.984375 54.828125 56.984375 36.375 
Q 56.984375 17.96875 50.515625 8.265625 
Q 44.046875 -1.421875 31.78125 -1.421875 
Q 19.53125 -1.421875 13.0625 8.265625 
Q 6.59375 17.96875 6.59375 36.375 
Q 6.59375 54.828125 13.0625 64.515625 
Q 19.53125 74.21875 31.78125 74.21875 
z
" id="DejaVuSans-48"/>
      </defs>
      <g transform="translate(35.513125 366.30265)scale(0.08 -0.08)">
       <use xlink:href="#DejaVuSans-48"/>
      </g>
     </g>
    </g>
    <g id="xtick_2">
     <g id="text_2">
      <!-- 20 -->
      <defs>
       <path d="M 19.1875 8.296875 
L 53.609375 8.296875 
L 53.609375 0 
L 7.328125 0 
L 7.328125 8.296875 
Q 12.9375 14.109375 22.625 23.890625 
Q 32.328125 33.6875 34.8125 36.53125 
Q 39.546875 41.84375 41.421875 45.53125 
Q 43.3125 49.21875 43.3125 52.78125 
Q 43.3125 58.59375 39.234375 62.25 
Q 35.15625 65.921875 28.609375 65.921875 
Q 23.96875 65.921875 18.8125 64.3125 
Q 13.671875 62.703125 7.8125 59.421875 
L 7.8125 69.390625 
Q 13.765625 71.78125 18.9375 73 
Q 24.125 74.21875 28.421875 74.21875 
Q 39.75 74.21875 46.484375 68.546875 
Q 53.21875 62.890625 53.21875 53.421875 
Q 53.21875 48.921875 51.53125 44.890625 
Q 49.859375 40.875 45.40625 35.40625 
Q 44.1875 33.984375 37.640625 27.21875 
Q 31.109375 20.453125 19.1875 8.296875 
z
" id="DejaVuSans-50"/>
      </defs>
      <g transform="translate(222.441125 366.30265)scale(0.08 -0.08)">
       <use xlink:href="#DejaVuSans-50"/>
       <use x="63.623047" xlink:href="#DejaVuSans-48"/>
      </g>
     </g>
    </g>
    <g id="xtick_3">
     <g id="text_3">
      <!-- 40 -->
      <defs>
       <path d="M 37.796875 64.3125 
L 12.890625 25.390625 
L 37.796875 25.390625 
z
M 35.203125 72.90625 
L 47.609375 72.90625 
L 47.609375 25.390625 
L 58.015625 25.390625 
L 58.015625 17.1875 
L 47.609375 17.1875 
L 47.609375 0 
L 37.796875 0 
L 37.796875 17.1875 
L 4.890625 17.1875 
L 4.890625 26.703125 
z
" id="DejaVuSans-52"/>
      </defs>
      <g transform="translate(411.914125 366.30265)scale(0.08 -0.08)">
       <use xlink:href="#DejaVuSans-52"/>
       <use x="63.623047" xlink:href="#DejaVuSans-48"/>
      </g>
     </g>
    </g>
    <g id="xtick_4">
     <g id="text_4">
      <!-- 60 -->
      <defs>
       <path d="M 33.015625 40.375 
Q 26.375 40.375 22.484375 35.828125 
Q 18.609375 31.296875 18.609375 23.390625 
Q 18.609375 15.53125 22.484375 10.953125 
Q 26.375 6.390625 33.015625 6.390625 
Q 39.65625 6.390625 43.53125 10.953125 
Q 47.40625 15.53125 47.40625 23.390625 
Q 47.40625 31.296875 43.53125 35.828125 
Q 39.65625 40.375 33.015625 40.375 
z
M 52.59375 71.296875 
L 52.59375 62.3125 
Q 48.875 64.0625 45.09375 64.984375 
Q 41.3125 65.921875 37.59375 65.921875 
Q 27.828125 65.921875 22.671875 59.328125 
Q 17.53125 52.734375 16.796875 39.40625 
Q 19.671875 43.65625 24.015625 45.921875 
Q 28.375 48.1875 33.59375 48.1875 
Q 44.578125 48.1875 50.953125 41.515625 
Q 57.328125 34.859375 57.328125 23.390625 
Q 57.328125 12.15625 50.6875 5.359375 
Q 44.046875 -1.421875 33.015625 -1.421875 
Q 20.359375 -1.421875 13.671875 8.265625 
Q 6.984375 17.96875 6.984375 36.375 
Q 6.984375 53.65625 15.1875 63.9375 
Q 23.390625 74.21875 37.203125 74.21875 
Q 40.921875 74.21875 44.703125 73.484375 
Q 48.484375 72.75 52.59375 71.296875 
z
" id="DejaVuSans-54"/>
      </defs>
      <g transform="translate(601.387125 366.30265)scale(0.08 -0.08)">
       <use xlink:href="#DejaVuSans-54"/>
       <use x="63.623047" xlink:href="#DejaVuSans-48"/>
      </g>
     </g>
    </g>
    <g id="xtick_5">
     <g id="text_5">
      <!-- 80 -->
      <defs>
       <path d="M 31.78125 34.625 
Q 24.75 34.625 20.71875 30.859375 
Q 16.703125 27.09375 16.703125 20.515625 
Q 16.703125 13.921875 20.71875 10.15625 
Q 24.75 6.390625 31.78125 6.390625 
Q 38.8125 6.390625 42.859375 10.171875 
Q 46.921875 13.96875 46.921875 20.515625 
Q 46.921875 27.09375 42.890625 30.859375 
Q 38.875 34.625 31.78125 34.625 
z
M 21.921875 38.8125 
Q 15.578125 40.375 12.03125 44.71875 
Q 8.5 49.078125 8.5 55.328125 
Q 8.5 64.0625 14.71875 69.140625 
Q 20.953125 74.21875 31.78125 74.21875 
Q 42.671875 74.21875 48.875 69.140625 
Q 55.078125 64.0625 55.078125 55.328125 
Q 55.078125 49.078125 51.53125 44.71875 
Q 48 40.375 41.703125 38.8125 
Q 48.828125 37.15625 52.796875 32.3125 
Q 56.78125 27.484375 56.78125 20.515625 
Q 56.78125 9.90625 50.3125 4.234375 
Q 43.84375 -1.421875 31.78125 -1.421875 
Q 19.734375 -1.421875 13.25 4.234375 
Q 6.78125 9.90625 6.78125 20.515625 
Q 6.78125 27.484375 10.78125 32.3125 
Q 14.796875 37.15625 21.921875 38.8125 
z
M 18.3125 54.390625 
Q 18.3125 48.734375 21.84375 45.5625 
Q 25.390625 42.390625 31.78125 42.390625 
Q 38.140625 42.390625 41.71875 45.5625 
Q 45.3125 48.734375 45.3125 54.390625 
Q 45.3125 60.0625 41.71875 63.234375 
Q 38.140625 66.40625 31.78125 66.40625 
Q 25.390625 66.40625 21.84375 63.234375 
Q 18.3125 60.0625 18.3125 54.390625 
z
" id="DejaVuSans-56"/>
      </defs>
      <g transform="translate(790.860125 366.30265)scale(0.08 -0.08)">
       <use xlink:href="#DejaVuSans-56"/>
       <use x="63.623047" xlink:href="#DejaVuSans-48"/>
      </g>
     </g>
    </g>
    <g id="xtick_6">
     <g id="text_6">
      <!-- 100 -->
      <defs>
       <path d="M 12.40625 8.296875 
L 28.515625 8.296875 
L 28.515625 63.921875 
L 10.984375 60.40625 
L 10.984375 69.390625 
L 28.421875 72.90625 
L 38.28125 72.90625 
L 38.28125 8.296875 
L 54.390625 8.296875 
L 54.390625 0 
L 12.40625 0 
z
" id="DejaVuSans-49"/>
      </defs>
      <g transform="translate(977.788125 366.30265)scale(0.08 -0.08)">
       <use xlink:href="#DejaVuSans-49"/>
       <use x="63.623047" xlink:href="#DejaVuSans-48"/>
       <use x="127.246094" xlink:href="#DejaVuSans-48"/>
      </g>
     </g>
    </g>
    <g id="text_7">
     <!-- % GC -->
     <defs>
      <path d="M 72.703125 32.078125 
Q 68.453125 32.078125 66.03125 28.46875 
Q 63.625 24.859375 63.625 18.40625 
Q 63.625 12.0625 66.03125 8.421875 
Q 68.453125 4.78125 72.703125 4.78125 
Q 76.859375 4.78125 79.265625 8.421875 
Q 81.6875 12.0625 81.6875 18.40625 
Q 81.6875 24.8125 79.265625 28.4375 
Q 76.859375 32.078125 72.703125 32.078125 
z
M 72.703125 38.28125 
Q 80.421875 38.28125 84.953125 32.90625 
Q 89.5 27.546875 89.5 18.40625 
Q 89.5 9.28125 84.9375 3.921875 
Q 80.375 -1.421875 72.703125 -1.421875 
Q 64.890625 -1.421875 60.34375 3.921875 
Q 55.8125 9.28125 55.8125 18.40625 
Q 55.8125 27.59375 60.375 32.9375 
Q 64.9375 38.28125 72.703125 38.28125 
z
M 22.3125 68.015625 
Q 18.109375 68.015625 15.6875 64.375 
Q 13.28125 60.75 13.28125 54.390625 
Q 13.28125 47.953125 15.671875 44.328125 
Q 18.0625 40.71875 22.3125 40.71875 
Q 26.5625 40.71875 28.96875 44.328125 
Q 31.390625 47.953125 31.390625 54.390625 
Q 31.390625 60.6875 28.953125 64.34375 
Q 26.515625 68.015625 22.3125 68.015625 
z
M 66.40625 74.21875 
L 74.21875 74.21875 
L 28.609375 -1.421875 
L 20.796875 -1.421875 
z
M 22.3125 74.21875 
Q 30.03125 74.21875 34.609375 68.875 
Q 39.203125 63.53125 39.203125 54.390625 
Q 39.203125 45.171875 34.640625 39.84375 
Q 30.078125 34.515625 22.3125 34.515625 
Q 14.546875 34.515625 10.03125 39.859375 
Q 5.515625 45.21875 5.515625 54.390625 
Q 5.515625 63.484375 10.046875 68.84375 
Q 14.59375 74.21875 22.3125 74.21875 
z
" id="DejaVuSans-37"/>
      <path id="DejaVuSans-32"/>
      <path d="M 59.515625 10.40625 
L 59.515625 29.984375 
L 43.40625 29.984375 
L 43.40625 38.09375 
L 69.28125 38.09375 
L 69.28125 6.78125 
Q 63.578125 2.734375 56.6875 0.65625 
Q 49.8125 -1.421875 42 -1.421875 
Q 24.90625 -1.421875 15.25 8.5625 
Q 5.609375 18.5625 5.609375 36.375 
Q 5.609375 54.25 15.25 64.234375 
Q 24.90625 74.21875 42 74.21875 
Q 49.125 74.21875 55.546875 72.453125 
Q 61.96875 70.703125 67.390625 67.28125 
L 67.390625 56.78125 
Q 61.921875 61.421875 55.765625 63.765625 
Q 49.609375 66.109375 42.828125 66.109375 
Q 29.4375 66.109375 22.71875 58.640625 
Q 16.015625 51.171875 16.015625 36.375 
Q 16.015625 21.625 22.71875 14.15625 
Q 29.4375 6.6875 42.828125 6.6875 
Q 48.046875 6.6875 52.140625 7.59375 
Q 56.25 8.5 59.515625 10.40625 
z
" id="DejaVuSans-71"/>
      <path d="M 64.40625 67.28125 
L 64.40625 56.890625 
Q 59.421875 61.53125 53.78125 63.8125 
Q 48.140625 66.109375 41.796875 66.109375 
Q 29.296875 66.109375 22.65625 58.46875 
Q 16.015625 50.828125 16.015625 36.375 
Q 16.015625 21.96875 22.65625 14.328125 
Q 29.296875 6.6875 41.796875 6.6875 
Q 48.140625 6.6875 53.78125 8.984375 
Q 59.421875 11.28125 64.40625 15.921875 
L 64.40625 5.609375 
Q 59.234375 2.09375 53.4375 0.328125 
Q 47.65625 -1.421875 41.21875 -1.421875 
Q 24.65625 -1.421875 15.125 8.703125 
Q 5.609375 18.84375 5.609375 36.375 
Q 5.609375 53.953125 15.125 64.078125 
Q 24.65625 74.21875 41.21875 74.21875 
Q 47.75 74.21875 53.53125 72.484375 
Q 59.328125 70.75 64.40625 67.28125 
z
" id="DejaVuSans-67"/>
     </defs>
     <g transform="translate(498.035156 379.564837)scale(0.1 -0.1)">
      <use xlink:href="#DejaVuSans-37"/>
      <use x="95.019531" xlink:href="#DejaVuSans-32"/>
      <use x="126.806641" xlink:href="#DejaVuSans-71"/>
      <use x="204.296875" xlink:href="#DejaVuSans-67"/>
     </g>
    </g>
   </g>
   <g id="matplotlib.axis_2">
    <g id="ytick_1">
     <g id="line2d_1">
      <path clip-path="url(#p924e4843d4)" d="M 38.058125 353.2239 
L 985.423125 353.2239 
" style="fill:none;stroke:#dedede;stroke-linecap:square;"/>
     </g>
     <g id="text_8">
      <!-- 0 -->
      <g transform="translate(25.968125 356.263275)scale(0.08 -0.08)">
       <use xlink:href="#DejaVuSans-48"/>
      </g>
     </g>
    </g>
    <g id="ytick_2">
     <g id="line2d_2">
      <path clip-path="url(#p924e4843d4)" d="M 38.058125 282.918258 
L 985.423125 282.918258 
" style="fill:none;stroke:#dedede;stroke-linecap:square;"/>
     </g>
     <g id="text_9">
      <!-- 5 -->
      <defs>
       <path d="M 10.796875 72.90625 
L 49.515625 72.90625 
L 49.515625 64.59375 
L 19.828125 64.59375 
L 19.828125 46.734375 
Q 21.96875 47.46875 24.109375 47.828125 
Q 26.265625 48.1875 28.421875 48.1875 
Q 40.625 48.1875 47.75 41.5 
Q 54.890625 34.8125 54.890625 23.390625 
Q 54.890625 11.625 47.5625 5.09375 
Q 40.234375 -1.421875 26.90625 -1.421875 
Q 22.3125 -1.421875 17.546875 -0.640625 
Q 12.796875 0.140625 7.71875 1.703125 
L 7.71875 11.625 
Q 12.109375 9.234375 16.796875 8.0625 
Q 21.484375 6.890625 26.703125 6.890625 
Q 35.15625 6.890625 40.078125 11.328125 
Q 45.015625 15.765625 45.015625 23.390625 
Q 45.015625 31 40.078125 35.4375 
Q 35.15625 39.890625 26.703125 39.890625 
Q 22.75 39.890625 18.8125 39.015625 
Q 14.890625 38.140625 10.796875 36.28125 
z
" id="DejaVuSans-53"/>
      </defs>
      <g transform="translate(25.968125 285.957633)scale(0.08 -0.08)">
       <use xlink:href="#DejaVuSans-53"/>
      </g>
     </g>
    </g>
    <g id="ytick_3">
     <g id="line2d_3">
      <path clip-path="url(#p924e4843d4)" d="M 38.058125 212.612615 
L 985.423125 212.612615 
" style="fill:none;stroke:#dedede;stroke-linecap:square;"/>
     </g>
     <g id="text_10">
      <!-- 10 -->
      <g transform="translate(20.878125 215.65199)scale(0.08 -0.08)">
       <use xlink:href="#DejaVuSans-49"/>
       <use x="63.623047" xlink:href="#DejaVuSans-48"/>
      </g>
     </g>
    </g>
    <g id="ytick_4">
     <g id="line2d_4">
      <path clip-path="url(#p924e4843d4)" d="M 38.058125 142.306973 
L 985.423125 142.306973 
" style="fill:none;stroke:#dedede;stroke-linecap:square;"/>
     </g>
     <g id="text_11">
      <!-- 15 -->
      <g transform="translate(20.878125 145.346348)scale(0.08 -0.08)">
       <use xlink:href="#DejaVuSans-49"/>
       <use x="63.623047" xlink:href="#DejaVuSans-53"/>
      </g>
     </g>
    </g>
    <g id="ytick_5">
     <g id="line2d_5">
      <path clip-path="url(#p924e4843d4)" d="M 38.058125 72.001331 
L 985.423125 72.001331 
" style="fill:none;stroke:#dedede;stroke-linecap:square;"/>
     </g>
     <g id="text_12">
      <!-- 20 -->
      <g transform="translate(20.878125 75.040706)scale(0.08 -0.08)">
       <use xlink:href="#DejaVuSans-50"/>
       <use x="63.623047" xlink:href="#DejaVuSans-48"/>
      </g>
     </g>
    </g>
    <g id="text_13">
     <!-- Percentage -->
     <defs>
      <path d="M 19.671875 64.796875 
L 19.671875 37.40625 
L 32.078125 37.40625 
Q 38.96875 37.40625 42.71875 40.96875 
Q 46.484375 44.53125 46.484375 51.125 
Q 46.484375 57.671875 42.71875 61.234375 
Q 38.96875 64.796875 32.078125 64.796875 
z
M 9.8125 72.90625 
L 32.078125 72.90625 
Q 44.34375 72.90625 50.609375 67.359375 
Q 56.890625 61.8125 56.890625 51.125 
Q 56.890625 40.328125 50.609375 34.8125 
Q 44.34375 29.296875 32.078125 29.296875 
L 19.671875 29.296875 
L 19.671875 0 
L 9.8125 0 
z
" id="DejaVuSans-80"/>
      <path d="M 56.203125 29.59375 
L 56.203125 25.203125 
L 14.890625 25.203125 
Q 15.484375 15.921875 20.484375 11.0625 
Q 25.484375 6.203125 34.421875 6.203125 
Q 39.59375 6.203125 44.453125 7.46875 
Q 49.3125 8.734375 54.109375 11.28125 
L 54.109375 2.78125 
Q 49.265625 0.734375 44.1875 -0.34375 
Q 39.109375 -1.421875 33.890625 -1.421875 
Q 20.796875 -1.421875 13.15625 6.1875 
Q 5.515625 13.8125 5.515625 26.8125 
Q 5.515625 40.234375 12.765625 48.109375 
Q 20.015625 56 32.328125 56 
Q 43.359375 56 49.78125 48.890625 
Q 56.203125 41.796875 56.203125 29.59375 
z
M 47.21875 32.234375 
Q 47.125 39.59375 43.09375 43.984375 
Q 39.0625 48.390625 32.421875 48.390625 
Q 24.90625 48.390625 20.390625 44.140625 
Q 15.875 39.890625 15.1875 32.171875 
z
" id="DejaVuSans-101"/>
      <path d="M 41.109375 46.296875 
Q 39.59375 47.171875 37.8125 47.578125 
Q 36.03125 48 33.890625 48 
Q 26.265625 48 22.1875 43.046875 
Q 18.109375 38.09375 18.109375 28.8125 
L 18.109375 0 
L 9.078125 0 
L 9.078125 54.6875 
L 18.109375 54.6875 
L 18.109375 46.1875 
Q 20.953125 51.171875 25.484375 53.578125 
Q 30.03125 56 36.53125 56 
Q 37.453125 56 38.578125 55.875 
Q 39.703125 55.765625 41.0625 55.515625 
z
" id="DejaVuSans-114"/>
      <path d="M 48.78125 52.59375 
L 48.78125 44.1875 
Q 44.96875 46.296875 41.140625 47.34375 
Q 37.3125 48.390625 33.40625 48.390625 
Q 24.65625 48.390625 19.8125 42.84375 
Q 14.984375 37.3125 14.984375 27.296875 
Q 14.984375 17.28125 19.8125 11.734375 
Q 24.65625 6.203125 33.40625 6.203125 
Q 37.3125 6.203125 41.140625 7.25 
Q 44.96875 8.296875 48.78125 10.40625 
L 48.78125 2.09375 
Q 45.015625 0.34375 40.984375 -0.53125 
Q 36.96875 -1.421875 32.421875 -1.421875 
Q 20.0625 -1.421875 12.78125 6.34375 
Q 5.515625 14.109375 5.515625 27.296875 
Q 5.515625 40.671875 12.859375 48.328125 
Q 20.21875 56 33.015625 56 
Q 37.15625 56 41.109375 55.140625 
Q 45.0625 54.296875 48.78125 52.59375 
z
" id="DejaVuSans-99"/>
      <path d="M 54.890625 33.015625 
L 54.890625 0 
L 45.90625 0 
L 45.90625 32.71875 
Q 45.90625 40.484375 42.875 44.328125 
Q 39.84375 48.1875 33.796875 48.1875 
Q 26.515625 48.1875 22.3125 43.546875 
Q 18.109375 38.921875 18.109375 30.90625 
L 18.109375 0 
L 9.078125 0 
L 9.078125 54.6875 
L 18.109375 54.6875 
L 18.109375 46.1875 
Q 21.34375 51.125 25.703125 53.5625 
Q 30.078125 56 35.796875 56 
Q 45.21875 56 50.046875 50.171875 
Q 54.890625 44.34375 54.890625 33.015625 
z
" id="DejaVuSans-110"/>
      <path d="M 18.3125 70.21875 
L 18.3125 54.6875 
L 36.8125 54.6875 
L 36.8125 47.703125 
L 18.3125 47.703125 
L 18.3125 18.015625 
Q 18.3125 11.328125 20.140625 9.421875 
Q 21.96875 7.515625 27.59375 7.515625 
L 36.8125 7.515625 
L 36.8125 0 
L 27.59375 0 
Q 17.1875 0 13.234375 3.875 
Q 9.28125 7.765625 9.28125 18.015625 
L 9.28125 47.703125 
L 2.6875 47.703125 
L 2.6875 54.6875 
L 9.28125 54.6875 
L 9.28125 70.21875 
z
" id="DejaVuSans-116"/>
      <path d="M 34.28125 27.484375 
Q 23.390625 27.484375 19.1875 25 
Q 14.984375 22.515625 14.984375 16.5 
Q 14.984375 11.71875 18.140625 8.90625 
Q 21.296875 6.109375 26.703125 6.109375 
Q 34.1875 6.109375 38.703125 11.40625 
Q 43.21875 16.703125 43.21875 25.484375 
L 43.21875 27.484375 
z
M 52.203125 31.203125 
L 52.203125 0 
L 43.21875 0 
L 43.21875 8.296875 
Q 40.140625 3.328125 35.546875 0.953125 
Q 30.953125 -1.421875 24.3125 -1.421875 
Q 15.921875 -1.421875 10.953125 3.296875 
Q 6 8.015625 6 15.921875 
Q 6 25.140625 12.171875 29.828125 
Q 18.359375 34.515625 30.609375 34.515625 
L 43.21875 34.515625 
L 43.21875 35.40625 
Q 43.21875 41.609375 39.140625 45 
Q 35.0625 48.390625 27.6875 48.390625 
Q 23 48.390625 18.546875 47.265625 
Q 14.109375 46.140625 10.015625 43.890625 
L 10.015625 52.203125 
Q 14.9375 54.109375 19.578125 55.046875 
Q 24.21875 56 28.609375 56 
Q 40.484375 56 46.34375 49.84375 
Q 52.203125 43.703125 52.203125 31.203125 
z
" id="DejaVuSans-97"/>
      <path d="M 45.40625 27.984375 
Q 45.40625 37.75 41.375 43.109375 
Q 37.359375 48.484375 30.078125 48.484375 
Q 22.859375 48.484375 18.828125 43.109375 
Q 14.796875 37.75 14.796875 27.984375 
Q 14.796875 18.265625 18.828125 12.890625 
Q 22.859375 7.515625 30.078125 7.515625 
Q 37.359375 7.515625 41.375 12.890625 
Q 45.40625 18.265625 45.40625 27.984375 
z
M 54.390625 6.78125 
Q 54.390625 -7.171875 48.1875 -13.984375 
Q 42 -20.796875 29.203125 -20.796875 
Q 24.46875 -20.796875 20.265625 -20.09375 
Q 16.0625 -19.390625 12.109375 -17.921875 
L 12.109375 -9.1875 
Q 16.0625 -11.328125 19.921875 -12.34375 
Q 23.78125 -13.375 27.78125 -13.375 
Q 36.625 -13.375 41.015625 -8.765625 
Q 45.40625 -4.15625 45.40625 5.171875 
L 45.40625 9.625 
Q 42.625 4.78125 38.28125 2.390625 
Q 33.9375 0 27.875 0 
Q 17.828125 0 11.671875 7.65625 
Q 5.515625 15.328125 5.515625 27.984375 
Q 5.515625 40.671875 11.671875 48.328125 
Q 17.828125 56 27.875 56 
Q 33.9375 56 38.28125 53.609375 
Q 42.625 51.21875 45.40625 46.390625 
L 45.40625 54.6875 
L 54.390625 54.6875 
z
" id="DejaVuSans-103"/>
     </defs>
     <g transform="translate(14.798438 222.362556)rotate(-90)scale(0.1 -0.1)">
      <use xlink:href="#DejaVuSans-80"/>
      <use x="56.677734" xlink:href="#DejaVuSans-101"/>
      <use x="118.201172" xlink:href="#DejaVuSans-114"/>
      <use x="157.064453" xlink:href="#DejaVuSans-99"/>
      <use x="212.044922" xlink:href="#DejaVuSans-101"/>
      <use x="273.568359" xlink:href="#DejaVuSans-110"/>
      <use x="336.947266" xlink:href="#DejaVuSans-116"/>
      <use x="376.15625" xlink:href="#DejaVuSans-97"/>
      <use x="437.435547" xlink:href="#DejaVuSans-103"/>
      <use x="500.912109" xlink:href="#DejaVuSans-101"/>
     </g>
    </g>
   </g>
   <g id="line2d_6">
    <path clip-path="url(#p924e4843d4)" d="M 38.058125 353.2239 
L 47.531775 353.2239 
L 57.005425 353.2239 
L 66.479075 353.2239 
L 75.952725 353.2239 
L 85.426375 353.2239 
L 94.900025 353.2239 
L 104.373675 353.2239 
L 113.847325 353.2239 
L 123.320975 353.2239 
L 132.794625 353.2239 
L 142.268275 353.2239 
L 151.741925 353.2239 
L 161.215575 353.2239 
L 170.689225 353.2239 
L 180.162875 353.2239 
L 189.636525 353.2239 
L 199.110175 353.2239 
L 208.583825 353.2239 
L 218.057475 353.2239 
L 227.531125 353.2239 
L 237.004775 353.2239 
L 246.478425 353.2239 
L 255.952075 353.2239 
L 265.425725 353.2239 
L 274.899375 353.2239 
L 284.373025 353.2239 
L 293.846675 353.2239 
L 303.320325 351.293089 
L 312.793975 352.258495 
L 322.267625 352.258495 
L 331.741275 347.431468 
L 341.214925 351.293089 
L 350.688575 352.258495 
L 360.162225 348.396873 
L 369.635875 346.466063 
L 379.109525 349.362279 
L 388.583175 350.327684 
L 398.056825 350.569035 
L 407.530475 352.499846 
L 417.004125 350.327684 
L 426.477775 344.052549 
L 435.951425 333.19174 
L 445.425075 264.406611 
L 454.898725 247.512018 
L 464.372375 298.195797 
L 473.846025 268.750935 
L 483.319675 253.545801 
L 492.793325 260.544989 
L 502.266975 256.683368 
L 511.740625 307.84985 
L 521.214275 284.438771 
L 530.687925 236.651208 
L 540.161575 188.139591 
L 549.635225 218.067155 
L 559.108875 279.853096 
L 568.582525 291.43796 
L 578.056175 329.57147 
L 587.529825 345.500657 
L 597.003475 346.707414 
L 606.477125 351.293089 
L 615.950775 346.707414 
L 625.424425 351.534441 
L 634.898075 351.534441 
L 644.371725 352.258495 
L 653.845375 353.2239 
L 663.319025 353.2239 
L 672.792675 353.2239 
L 682.266325 353.2239 
L 691.739975 353.2239 
L 701.213625 353.2239 
L 710.687275 353.2239 
L 720.160925 353.2239 
L 729.634575 353.2239 
L 739.108225 353.2239 
L 748.581875 353.2239 
L 758.055525 353.2239 
L 767.529175 353.2239 
L 777.002825 353.2239 
L 786.476475 353.2239 
L 795.950125 353.2239 
L 805.423775 353.2239 
L 814.897425 353.2239 
L 824.371075 353.2239 
L 833.844725 353.2239 
L 843.318375 353.2239 
L 852.792025 353.2239 
L 862.265675 353.2239 
L 871.739325 353.2239 
L 881.212975 353.2239 
L 890.686625 353.2239 
L 900.160275 353.2239 
L 909.633925 353.2239 
L 919.107575 353.2239 
L 928.581225 353.2239 
L 938.054875 353.2239 
L 947.528525 353.2239 
L 957.002175 353.2239 
L 966.475825 353.2239 
L 975.949475 353.2239 
L 985.423125 353.2239 
" style="fill:none;stroke:#d9534f;stroke-linecap:square;"/>
   </g>
   <g id="line2d_7">
    <path clip-path="url(#p924e4843d4)" d="M 38.058125 353.2239 
L 47.531775 353.2239 
L 57.005425 353.2239 
L 66.479075 353.2239 
L 75.952725 353.2239 
L 85.426375 353.2239 
L 94.900025 353.2239 
L 104.373675 353.2239 
L 113.847325 353.2239 
L 123.320975 353.2239 
L 132.794625 353.2239 
L 142.268275 353.2239 
L 151.741925 353.2239 
L 161.215575 353.2239 
L 170.689225 353.2239 
L 180.162875 353.2239 
L 189.636525 353.2239 
L 199.110175 353.2239 
L 208.583825 353.2239 
L 218.057475 353.2239 
L 227.531125 353.2239 
L 237.004775 353.2239 
L 246.478425 353.2239 
L 255.952075 353.2239 
L 265.425725 353.2239 
L 274.899375 353.2239 
L 284.373025 353.2239 
L 293.846675 353.2239 
L 303.320325 352.332262 
L 312.793975 353.2239 
L 322.267625 353.2239 
L 331.741275 353.2239 
L 341.214925 353.2239 
L 350.688575 353.2239 
L 360.162225 353.2239 
L 369.635875 353.2239 
L 379.109525 352.332262 
L 388.583175 352.332262 
L 398.056825 353.2239 
L 407.530475 352.332262 
L 417.004125 350.994805 
L 426.477775 349.657349 
L 435.951425 346.982435 
L 445.425075 215.465856 
L 454.898725 203.651655 
L 464.372375 332.270411 
L 473.846025 315.552202 
L 483.319675 313.546017 
L 492.793325 326.920584 
L 502.266975 314.883474 
L 511.740625 321.347848 
L 521.214275 218.586589 
L 530.687925 168.654871 
L 540.161575 103.56531 
L 549.635225 131.206082 
L 559.108875 283.67615 
L 568.582525 329.149679 
L 578.056175 343.415884 
L 587.529825 343.415884 
L 597.003475 349.880258 
L 606.477125 352.332262 
L 615.950775 353.2239 
L 625.424425 353.2239 
L 634.898075 353.2239 
L 644.371725 353.2239 
L 653.845375 353.2239 
L 663.319025 353.2239 
L 672.792675 353.2239 
L 682.266325 353.2239 
L 691.739975 353.2239 
L 701.213625 353.2239 
L 710.687275 353.2239 
L 720.160925 353.2239 
L 729.634575 353.2239 
L 739.108225 353.2239 
L 748.581875 353.2239 
L 758.055525 353.2239 
L 767.529175 353.2239 
L 777.002825 353.2239 
L 786.476475 353.2239 
L 795.950125 353.2239 
L 805.423775 353.2239 
L 814.897425 353.2239 
L 824.371075 353.2239 
L 833.844725 353.2239 
L 843.318375 353.2239 
L 852.792025 353.2239 
L 862.265675 353.2239 
L 871.739325 353.2239 
L 881.212975 353.2239 
L 890.686625 353.2239 
L 900.160275 353.2239 
L 909.633925 353.2239 
L 919.107575 353.2239 
L 928.581225 353.2239 
L 938.054875 353.2239 
L 947.528525 353.2239 
L 957.002175 353.2239 
L 966.475825 353.2239 
L 975.949475 353.2239 
L 985.423125 353.2239 
" style="fill:none;stroke:#d9534f;stroke-linecap:square;"/>
   </g>
   <g id="line2d_8">
    <path clip-path="url(#p924e4843d4)" d="M 38.058125 353.2239 
L 47.531775 353.2239 
L 57.005425 353.2239 
L 66.479075 353.2239 
L 75.952725 353.2239 
L 85.426375 353.2239 
L 94.900025 353.2239 
L 104.373675 353.2239 
L 113.847325 353.2239 
L 123.320975 353.2239 
L 132.794625 353.2239 
L 142.268275 353.2239 
L 151.741925 353.2239 
L 161.215575 353.2239 
L 170.689225 353.2239 
L 180.162875 353.2239 
L 189.636525 353.2239 
L 199.110175 353.2239 
L 208.583825 353.2239 
L 218.057475 353.2239 
L 227.531125 353.2239 
L 237.004775 353.2239 
L 246.478425 353.2239 
L 255.952075 353.2239 
L 265.425725 353.2239 
L 274.899375 353.2239 
L 284.373025 353.2239 
L 293.846675 353.2239 
L 303.320325 353.2239 
L 312.793975 352.267686 
L 322.267625 347.486615 
L 331.741275 342.705545 
L 341.214925 348.442829 
L 350.688575 349.877151 
L 360.162225 347.964722 
L 369.635875 347.486615 
L 379.109525 349.399044 
L 388.583175 351.311472 
L 398.056825 351.311472 
L 407.530475 353.2239 
L 417.004125 350.833365 
L 426.477775 346.769455 
L 435.951425 343.183652 
L 445.425075 307.564676 
L 454.898725 244.693599 
L 464.372375 286.527966 
L 473.846025 289.635662 
L 483.319675 267.642737 
L 492.793325 279.35636 
L 502.266975 262.144506 
L 511.740625 317.126817 
L 521.214275 289.874715 
L 530.687925 223.656888 
L 540.161575 161.024864 
L 549.635225 185.886431 
L 559.108875 241.346849 
L 568.582525 291.069983 
L 578.056175 335.055832 
L 587.529825 335.294885 
L 597.003475 344.617973 
L 606.477125 352.267686 
L 615.950775 353.2239 
L 625.424425 353.2239 
L 634.898075 353.2239 
L 644.371725 353.2239 
L 653.845375 353.2239 
L 663.319025 353.2239 
L 672.792675 353.2239 
L 682.266325 353.2239 
L 691.739975 353.2239 
L 701.213625 353.2239 
L 710.687275 353.2239 
L 720.160925 353.2239 
L 729.634575 353.2239 
L 739.108225 353.2239 
L 748.581875 353.2239 
L 758.055525 353.2239 
L 767.529175 353.2239 
L 777.002825 353.2239 
L 786.476475 353.2239 
L 795.950125 353.2239 
L 805.423775 353.2239 
L 814.897425 353.2239 
L 824.371075 353.2239 
L 833.844725 353.2239 
L 843.318375 353.2239 
L 852.792025 353.2239 
L 862.265675 353.2239 
L 871.739325 353.2239 
L 881.212975 353.2239 
L 890.686625 353.2239 
L 900.160275 353.2239 
L 909.633925 353.2239 
L 919.107575 353.2239 
L 928.581225 353.2239 
L 938.054875 353.2239 
L 947.528525 353.2239 
L 957.002175 353.2239 
L 966.475825 353.2239 
L 975.949475 353.2239 
L 985.423125 353.2239 
" style="fill:none;stroke:#d9534f;stroke-linecap:square;"/>
   </g>
   <g id="line2d_9">
    <path clip-path="url(#p924e4843d4)" d="M 38.058125 353.2239 
L 47.531775 353.2239 
L 57.005425 353.2239 
L 66.479075 353.2239 
L 75.952725 353.2239 
L 85.426375 353.2239 
L 94.900025 353.2239 
L 104.373675 353.2239 
L 113.847325 353.2239 
L 123.320975 353.2239 
L 132.794625 353.2239 
L 142.268275 353.2239 
L 151.741925 353.2239 
L 161.215575 353.2239 
L 170.689225 353.2239 
L 180.162875 353.2239 
L 189.636525 353.2239 
L 199.110175 353.2239 
L 208.583825 353.2239 
L 218.057475 353.2239 
L 227.531125 353.2239 
L 237.004775 353.2239 
L 246.478425 353.2239 
L 255.952075 353.2239 
L 265.425725 353.2239 
L 274.899375 353.2239 
L 284.373025 353.2239 
L 293.846675 353.2239 
L 303.320325 353.2239 
L 312.793975 353.2239 
L 322.267625 353.2239 
L 331.741275 352.300648 
L 341.214925 351.377396 
L 350.688575 350.91577 
L 360.162225 351.839022 
L 369.635875 353.2239 
L 379.109525 353.2239 
L 388.583175 353.2239 
L 398.056825 353.2239 
L 407.530475 352.531461 
L 417.004125 352.531461 
L 426.477775 349.530892 
L 435.951425 349.530892 
L 445.425075 290.211949 
L 454.898725 286.288128 
L 464.372375 334.297233 
L 473.846025 303.137477 
L 483.319675 304.522355 
L 492.793325 325.064713 
L 502.266975 320.679266 
L 511.740625 330.835038 
L 521.214275 218.890729 
L 530.687925 151.954957 
L 540.161575 50.397233 
L 549.635225 100.483656 
L 559.108875 247.049916 
L 568.582525 312.600811 
L 578.056175 342.144876 
L 587.529825 343.99138 
L 597.003475 351.377396 
L 606.477125 353.2239 
L 615.950775 353.2239 
L 625.424425 353.2239 
L 634.898075 353.2239 
L 644.371725 353.2239 
L 653.845375 353.2239 
L 663.319025 353.2239 
L 672.792675 353.2239 
L 682.266325 353.2239 
L 691.739975 353.2239 
L 701.213625 353.2239 
L 710.687275 353.2239 
L 720.160925 353.2239 
L 729.634575 353.2239 
L 739.108225 353.2239 
L 748.581875 353.2239 
L 758.055525 353.2239 
L 767.529175 353.2239 
L 777.002825 353.2239 
L 786.476475 353.2239 
L 795.950125 353.2239 
L 805.423775 353.2239 
L 814.897425 353.2239 
L 824.371075 353.2239 
L 833.844725 353.2239 
L 843.318375 353.2239 
L 852.792025 353.2239 
L 862.265675 353.2239 
L 871.739325 353.2239 
L 881.212975 353.2239 
L 890.686625 353.2239 
L 900.160275 353.2239 
L 909.633925 353.2239 
L 919.107575 353.2239 
L 928.581225 353.2239 
L 938.054875 353.2239 
L 947.528525 353.2239 
L 957.002175 353.2239 
L 966.475825 353.2239 
L 975.949475 353.2239 
L 985.423125 353.2239 
" style="fill:none;stroke:#d9534f;stroke-linecap:square;"/>
   </g>
   <g id="line2d_10">
    <path clip-path="url(#p924e4843d4)" d="M 38.058125 353.2239 
L 47.531775 353.2239 
L 57.005425 353.2239 
L 66.479075 353.2239 
L 75.952725 353.2239 
L 85.426375 353.2239 
L 94.900025 353.2239 
L 104.373675 353.2239 
L 113.847325 353.2239 
L 123.320975 353.2239 
L 132.794625 353.2239 
L 142.268275 353.2239 
L 151.741925 353.2239 
L 161.215575 353.2239 
L 170.689225 353.2239 
L 180.162875 353.2239 
L 189.636525 353.2239 
L 199.110175 353.2239 
L 208.583825 353.2239 
L 218.057475 353.2239 
L 227.531125 353.2239 
L 237.004775 353.2239 
L 246.478425 353.2239 
L 255.952075 353.2239 
L 265.425725 348.493495 
L 274.899375 353.2239 
L 284.373025 353.2239 
L 293.846675 353.2239 
L 303.320325 353.2239 
L 312.793975 353.2239 
L 322.267625 349.439576 
L 331.741275 348.493495 
L 341.214925 348.493495 
L 350.688575 350.385657 
L 360.162225 353.2239 
L 369.635875 349.439576 
L 379.109525 351.331738 
L 388.583175 353.2239 
L 398.056825 352.277819 
L 407.530475 350.385657 
L 417.004125 349.439576 
L 426.477775 345.655252 
L 435.951425 342.343969 
L 445.425075 289.363434 
L 454.898725 265.71141 
L 464.372375 286.052151 
L 473.846025 276.591341 
L 483.319675 202.087465 
L 492.793325 145.322606 
L 502.266975 61.1214 
L 511.740625 311.832857 
L 521.214275 308.758094 
L 530.687925 267.367052 
L 540.161575 271.860936 
L 549.635225 286.052151 
L 559.108875 309.704175 
L 568.582525 335.248362 
L 578.056175 340.924847 
L 587.529825 346.601333 
L 597.003475 350.385657 
L 606.477125 352.277819 
L 615.950775 352.277819 
L 625.424425 353.2239 
L 634.898075 352.277819 
L 644.371725 352.277819 
L 653.845375 353.2239 
L 663.319025 353.2239 
L 672.792675 353.2239 
L 682.266325 353.2239 
L 691.739975 353.2239 
L 701.213625 353.2239 
L 710.687275 353.2239 
L 720.160925 353.2239 
L 729.634575 353.2239 
L 739.108225 353.2239 
L 748.581875 353.2239 
L 758.055525 353.2239 
L 767.529175 353.2239 
L 777.002825 353.2239 
L 786.476475 353.2239 
L 795.950125 353.2239 
L 805.423775 353.2239 
L 814.897425 353.2239 
L 824.371075 353.2239 
L 833.844725 353.2239 
L 843.318375 353.2239 
L 852.792025 353.2239 
L 862.265675 353.2239 
L 871.739325 353.2239 
L 881.212975 353.2239 
L 890.686625 353.2239 
L 900.160275 353.2239 
L 909.633925 353.2239 
L 919.107575 353.2239 
L 928.581225 353.2239 
L 938.054875 353.2239 
L 947.528525 353.2239 
L 957.002175 353.2239 
L 966.475825 353.2239 
L 975.949475 353.2239 
L 985.423125 353.2239 
" style="fill:none;stroke:#d9534f;stroke-linecap:square;"/>
   </g>
   <g id="line2d_11">
    <path clip-path="url(#p924e4843d4)" d="M 38.058125 353.2239 
L 47.531775 353.2239 
L 57.005425 353.2239 
L 66.479075 353.2239 
L 75.952725 353.2239 
L 85.426375 353.2239 
L 94.900025 353.2239 
L 104.373675 353.2239 
L 113.847325 353.2239 
L 123.320975 353.2239 
L 132.794625 353.2239 
L 142.268275 353.2239 
L 151.741925 353.2239 
L 161.215575 353.2239 
L 170.689225 353.2239 
L 180.162875 353.2239 
L 189.636525 353.2239 
L 199.110175 353.2239 
L 208.583825 353.2239 
L 218.057475 353.2239 
L 227.531125 353.2239 
L 237.004775 353.2239 
L 246.478425 353.2239 
L 255.952075 353.2239 
L 265.425725 353.2239 
L 274.899375 353.2239 
L 284.373025 353.2239 
L 293.846675 353.2239 
L 303.320325 353.2239 
L 312.793975 353.2239 
L 322.267625 352.274626 
L 331.741275 352.274626 
L 341.214925 351.325351 
L 350.688575 352.274626 
L 360.162225 352.274626 
L 369.635875 352.274626 
L 379.109525 353.2239 
L 388.583175 351.56267 
L 398.056825 349.189483 
L 407.530475 349.426802 
L 417.004125 347.053616 
L 426.477775 344.917748 
L 435.951425 345.867023 
L 445.425075 271.348975 
L 454.898725 265.178691 
L 464.372375 304.573582 
L 473.846025 290.097146 
L 483.319675 277.993896 
L 492.793325 279.655127 
L 502.266975 269.687744 
L 511.740625 313.829008 
L 521.214275 249.278343 
L 530.687925 174.997614 
L 540.161575 138.687864 
L 549.635225 185.676952 
L 559.108875 267.789195 
L 568.582525 319.050018 
L 578.056175 340.171376 
L 587.529825 341.832606 
L 597.003475 347.528253 
L 606.477125 352.511944 
L 615.950775 353.2239 
L 625.424425 353.2239 
L 634.898075 353.2239 
L 644.371725 353.2239 
L 653.845375 353.2239 
L 663.319025 353.2239 
L 672.792675 353.2239 
L 682.266325 353.2239 
L 691.739975 353.2239 
L 701.213625 353.2239 
L 710.687275 353.2239 
L 720.160925 353.2239 
L 729.634575 353.2239 
L 739.108225 353.2239 
L 748.581875 353.2239 
L 758.055525 353.2239 
L 767.529175 353.2239 
L 777.002825 353.2239 
L 786.476475 353.2239 
L 795.950125 353.2239 
L 805.423775 353.2239 
L 814.897425 353.2239 
L 824.371075 353.2239 
L 833.844725 353.2239 
L 843.318375 353.2239 
L 852.792025 353.2239 
L 862.265675 353.2239 
L 871.739325 353.2239 
L 881.212975 353.2239 
L 890.686625 353.2239 
L 900.160275 353.2239 
L 909.633925 353.2239 
L 919.107575 353.2239 
L 928.581225 353.2239 
L 938.054875 353.2239 
L 947.528525 353.2239 
L 957.002175 353.2239 
L 966.475825 353.2239 
L 975.949475 353.2239 
L 985.423125 353.2239 
" style="fill:none;stroke:#d9534f;stroke-linecap:square;"/>
   </g>
   <g id="line2d_12">
    <path clip-path="url(#p924e4843d4)" d="M 38.058125 353.2239 
L 47.531775 353.2239 
L 57.005425 353.2239 
L 66.479075 353.2239 
L 75.952725 353.2239 
L 85.426375 353.2239 
L 94.900025 353.2239 
L 104.373675 353.2239 
L 113.847325 353.2239 
L 123.320975 353.2239 
L 132.794625 353.2239 
L 142.268275 353.2239 
L 151.741925 353.2239 
L 161.215575 353.2239 
L 170.689225 353.2239 
L 180.162875 353.2239 
L 189.636525 353.2239 
L 199.110175 353.2239 
L 208.583825 353.2239 
L 218.057475 353.2239 
L 227.531125 353.2239 
L 237.004775 353.2239 
L 246.478425 353.2239 
L 255.952075 353.2239 
L 265.425725 350.332647 
L 274.899375 352.260149 
L 284.373025 352.260149 
L 293.846675 353.2239 
L 303.320325 353.2239 
L 312.793975 352.260149 
L 322.267625 350.332647 
L 331.741275 352.260149 
L 341.214925 352.260149 
L 350.688575 351.296398 
L 360.162225 351.296398 
L 369.635875 352.260149 
L 379.109525 353.2239 
L 388.583175 353.2239 
L 398.056825 353.2239 
L 407.530475 350.573584 
L 417.004125 349.609833 
L 426.477775 346.236705 
L 435.951425 338.526696 
L 445.425075 291.061954 
L 454.898725 268.654742 
L 464.372375 289.616328 
L 473.846025 273.955373 
L 483.319675 186.494961 
L 492.793325 148.908668 
L 502.266975 111.081438 
L 511.740625 304.55447 
L 521.214275 307.927599 
L 530.687925 269.618493 
L 540.161575 257.089728 
L 549.635225 271.786933 
L 559.108875 307.204785 
L 568.582525 329.130123 
L 578.056175 338.767634 
L 587.529825 340.695136 
L 597.003475 346.477642 
L 606.477125 352.260149 
L 615.950775 353.2239 
L 625.424425 353.2239 
L 634.898075 353.2239 
L 644.371725 353.2239 
L 653.845375 353.2239 
L 663.319025 353.2239 
L 672.792675 353.2239 
L 682.266325 353.2239 
L 691.739975 353.2239 
L 701.213625 353.2239 
L 710.687275 353.2239 
L 720.160925 353.2239 
L 729.634575 353.2239 
L 739.108225 353.2239 
L 748.581875 353.2239 
L 758.055525 353.2239 
L 767.529175 353.2239 
L 777.002825 353.2239 
L 786.476475 353.2239 
L 795.950125 353.2239 
L 805.423775 353.2239 
L 814.897425 353.2239 
L 824.371075 353.2239 
L 833.844725 353.2239 
L 843.318375 353.2239 
L 852.792025 353.2239 
L 862.265675 353.2239 
L 871.739325 353.2239 
L 881.212975 353.2239 
L 890.686625 353.2239 
L 900.160275 353.2239 
L 909.633925 353.2239 
L 919.107575 353.2239 
L 928.581225 353.2239 
L 938.054875 353.2239 
L 947.528525 353.2239 
L 957.002175 353.2239 
L 966.475825 353.2239 
L 975.949475 353.2239 
L 985.423125 353.2239 
" style="fill:none;stroke:#d9534f;stroke-linecap:square;"/>
   </g>
   <g id="line2d_13">
    <path clip-path="url(#p924e4843d4)" d="M 38.058125 353.2239 
L 47.531775 353.2239 
L 57.005425 353.2239 
L 66.479075 353.2239 
L 75.952725 353.2239 
L 85.426375 353.2239 
L 94.900025 353.2239 
L 104.373675 353.2239 
L 113.847325 353.2239 
L 123.320975 353.2239 
L 132.794625 353.2239 
L 142.268275 353.2239 
L 151.741925 353.2239 
L 161.215575 353.2239 
L 170.689225 353.2239 
L 180.162875 353.2239 
L 189.636525 353.2239 
L 199.110175 353.2239 
L 208.583825 353.2239 
L 218.057475 353.2239 
L 227.531125 353.2239 
L 237.004775 353.2239 
L 246.478425 353.2239 
L 255.952075 353.2239 
L 265.425725 353.2239 
L 274.899375 353.2239 
L 284.373025 353.2239 
L 293.846675 353.2239 
L 303.320325 353.2239 
L 312.793975 353.2239 
L 322.267625 353.2239 
L 331.741275 351.388842 
L 341.214925 352.306371 
L 350.688575 353.2239 
L 360.162225 353.2239 
L 369.635875 351.847607 
L 379.109525 351.847607 
L 388.583175 353.2239 
L 398.056825 353.2239 
L 407.530475 352.535753 
L 417.004125 353.2239 
L 426.477775 349.324403 
L 435.951425 350.700696 
L 445.425075 252.983881 
L 454.898725 238.074039 
L 464.372375 320.651629 
L 473.846025 283.032949 
L 483.319675 262.617934 
L 492.793325 290.602561 
L 502.266975 278.674687 
L 511.740625 322.027922 
L 521.214275 247.708091 
L 530.687925 163.295444 
L 540.161575 156.872742 
L 549.635225 177.058375 
L 559.108875 270.64631 
L 568.582525 315.60522 
L 578.056175 344.966141 
L 587.529825 348.865638 
L 597.003475 343.589848 
L 606.477125 349.095021 
L 615.950775 352.306371 
L 625.424425 352.306371 
L 634.898075 353.2239 
L 644.371725 353.2239 
L 653.845375 353.2239 
L 663.319025 353.2239 
L 672.792675 353.2239 
L 682.266325 353.2239 
L 691.739975 353.2239 
L 701.213625 353.2239 
L 710.687275 353.2239 
L 720.160925 353.2239 
L 729.634575 353.2239 
L 739.108225 353.2239 
L 748.581875 353.2239 
L 758.055525 353.2239 
L 767.529175 353.2239 
L 777.002825 353.2239 
L 786.476475 353.2239 
L 795.950125 353.2239 
L 805.423775 353.2239 
L 814.897425 353.2239 
L 824.371075 353.2239 
L 833.844725 353.2239 
L 843.318375 353.2239 
L 852.792025 353.2239 
L 862.265675 353.2239 
L 871.739325 353.2239 
L 881.212975 353.2239 
L 890.686625 353.2239 
L 900.160275 353.2239 
L 909.633925 353.2239 
L 919.107575 353.2239 
L 928.581225 353.2239 
L 938.054875 353.2239 
L 947.528525 353.2239 
L 957.002175 353.2239 
L 966.475825 353.2239 
L 975.949475 353.2239 
L 985.423125 353.2239 
" style="fill:none;stroke:#d9534f;stroke-linecap:square;"/>
   </g>
   <g id="line2d_14">
    <path clip-path="url(#p924e4843d4)" d="M 38.058125 353.2239 
L 47.531775 353.2239 
L 57.005425 353.2239 
L 66.479075 353.2239 
L 75.952725 353.2239 
L 85.426375 353.2239 
L 94.900025 353.2239 
L 104.373675 353.2239 
L 113.847325 353.2239 
L 123.320975 353.2239 
L 132.794625 353.2239 
L 142.268275 353.2239 
L 151.741925 353.2239 
L 161.215575 353.2239 
L 170.689225 353.2239 
L 180.162875 353.2239 
L 189.636525 353.2239 
L 199.110175 353.2239 
L 208.583825 353.2239 
L 218.057475 353.2239 
L 227.531125 353.2239 
L 237.004775 353.2239 
L 246.478425 353.2239 
L 255.952075 353.2239 
L 265.425725 353.2239 
L 274.899375 353.2239 
L 284.373025 353.2239 
L 293.846675 353.2239 
L 303.320325 353.2239 
L 312.793975 351.221247 
L 322.267625 352.222573 
L 331.741275 350.21992 
L 341.214925 351.221247 
L 350.688575 352.222573 
L 360.162225 352.222573 
L 369.635875 353.2239 
L 379.109525 353.2239 
L 388.583175 352.222573 
L 398.056825 350.21992 
L 407.530475 350.470252 
L 417.004125 351.471578 
L 426.477775 338.954996 
L 435.951425 331.445047 
L 445.425075 256.095222 
L 454.898725 293.144305 
L 464.372375 306.662214 
L 473.846025 298.901933 
L 483.319675 273.117774 
L 492.793325 259.850197 
L 502.266975 258.84887 
L 511.740625 276.121754 
L 521.214275 283.631703 
L 530.687925 262.353513 
L 540.161575 186.002362 
L 549.635225 172.484453 
L 559.108875 269.362799 
L 568.582525 280.12706 
L 578.056175 326.188082 
L 587.529825 322.683439 
L 597.003475 338.704665 
L 606.477125 351.221247 
L 615.950775 349.218594 
L 625.424425 351.221247 
L 634.898075 351.221247 
L 644.371725 352.222573 
L 653.845375 353.2239 
L 663.319025 353.2239 
L 672.792675 353.2239 
L 682.266325 353.2239 
L 691.739975 353.2239 
L 701.213625 353.2239 
L 710.687275 353.2239 
L 720.160925 353.2239 
L 729.634575 353.2239 
L 739.108225 353.2239 
L 748.581875 353.2239 
L 758.055525 353.2239 
L 767.529175 353.2239 
L 777.002825 353.2239 
L 786.476475 353.2239 
L 795.950125 353.2239 
L 805.423775 353.2239 
L 814.897425 353.2239 
L 824.371075 353.2239 
L 833.844725 353.2239 
L 843.318375 353.2239 
L 852.792025 353.2239 
L 862.265675 353.2239 
L 871.739325 353.2239 
L 881.212975 353.2239 
L 890.686625 353.2239 
L 900.160275 353.2239 
L 909.633925 353.2239 
L 919.107575 353.2239 
L 928.581225 353.2239 
L 938.054875 353.2239 
L 947.528525 353.2239 
L 957.002175 353.2239 
L 966.475825 353.2239 
L 975.949475 353.2239 
L 985.423125 353.2239 
" style="fill:none;stroke:#d9534f;stroke-linecap:square;"/>
   </g>
   <g id="line2d_15">
    <path clip-path="url(#p924e4843d4)" d="M 38.058125 353.2239 
L 47.531775 353.2239 
L 57.005425 353.2239 
L 66.479075 353.2239 
L 75.952725 353.2239 
L 85.426375 353.2239 
L 94.900025 353.2239 
L 104.373675 353.2239 
L 113.847325 353.2239 
L 123.320975 353.2239 
L 132.794625 353.2239 
L 142.268275 353.2239 
L 151.741925 353.2239 
L 161.215575 353.2239 
L 170.689225 353.2239 
L 180.162875 353.2239 
L 189.636525 353.2239 
L 199.110175 353.2239 
L 208.583825 353.2239 
L 218.057475 353.2239 
L 227.531125 353.2239 
L 237.004775 353.2239 
L 246.478425 353.2239 
L 255.952075 353.2239 
L 265.425725 353.2239 
L 274.899375 353.2239 
L 284.373025 353.2239 
L 293.846675 353.2239 
L 303.320325 353.2239 
L 312.793975 353.2239 
L 322.267625 353.2239 
L 331.741275 353.2239 
L 341.214925 350.416354 
L 350.688575 351.352202 
L 360.162225 353.2239 
L 369.635875 353.2239 
L 379.109525 353.2239 
L 388.583175 351.352202 
L 398.056825 349.714467 
L 407.530475 351.820127 
L 417.004125 349.948429 
L 426.477775 350.884278 
L 435.951425 349.01258 
L 445.425075 219.631482 
L 454.898725 199.744694 
L 464.372375 317.427683 
L 473.846025 316.491834 
L 483.319675 283.503163 
L 492.793325 293.563538 
L 502.266975 281.865428 
L 511.740625 271.103166 
L 521.214275 241.857891 
L 530.687925 135.405088 
L 540.161575 199.978656 
L 549.635225 230.627705 
L 559.108875 289.586181 
L 568.582525 316.725796 
L 578.056175 333.805037 
L 587.529825 341.291828 
L 597.003475 351.352202 
L 606.477125 353.2239 
L 615.950775 353.2239 
L 625.424425 351.820127 
L 634.898075 351.586165 
L 644.371725 352.288051 
L 653.845375 353.2239 
L 663.319025 353.2239 
L 672.792675 353.2239 
L 682.266325 353.2239 
L 691.739975 353.2239 
L 701.213625 353.2239 
L 710.687275 353.2239 
L 720.160925 353.2239 
L 729.634575 353.2239 
L 739.108225 353.2239 
L 748.581875 353.2239 
L 758.055525 353.2239 
L 767.529175 353.2239 
L 777.002825 353.2239 
L 786.476475 353.2239 
L 795.950125 353.2239 
L 805.423775 353.2239 
L 814.897425 353.2239 
L 824.371075 353.2239 
L 833.844725 353.2239 
L 843.318375 353.2239 
L 852.792025 353.2239 
L 862.265675 353.2239 
L 871.739325 353.2239 
L 881.212975 353.2239 
L 890.686625 353.2239 
L 900.160275 353.2239 
L 909.633925 353.2239 
L 919.107575 353.2239 
L 928.581225 353.2239 
L 938.054875 353.2239 
L 947.528525 353.2239 
L 957.002175 353.2239 
L 966.475825 353.2239 
L 975.949475 353.2239 
L 985.423125 353.2239 
" style="fill:none;stroke:#d9534f;stroke-linecap:square;"/>
   </g>
   <g id="line2d_16">
    <path clip-path="url(#p924e4843d4)" d="M 38.058125 353.2239 
L 47.531775 353.2239 
L 57.005425 353.2239 
L 66.479075 353.2239 
L 75.952725 353.2239 
L 85.426375 353.2239 
L 94.900025 353.2239 
L 104.373675 353.2239 
L 113.847325 353.2239 
L 123.320975 353.2239 
L 132.794625 353.2239 
L 142.268275 353.2239 
L 151.741925 353.2239 
L 161.215575 353.2239 
L 170.689225 353.2239 
L 180.162875 353.2239 
L 189.636525 353.2239 
L 199.110175 353.2239 
L 208.583825 353.2239 
L 218.057475 353.2239 
L 227.531125 353.2239 
L 237.004775 353.2239 
L 246.478425 353.2239 
L 255.952075 353.2239 
L 265.425725 353.2239 
L 274.899375 353.2239 
L 284.373025 349.100402 
L 293.846675 353.2239 
L 303.320325 353.2239 
L 312.793975 348.069527 
L 322.267625 348.069527 
L 331.741275 347.038653 
L 341.214925 351.162151 
L 350.688575 344.976904 
L 360.162225 344.976904 
L 369.635875 351.162151 
L 379.109525 349.100402 
L 388.583175 351.162151 
L 398.056825 351.162151 
L 407.530475 347.55409 
L 417.004125 349.873558 
L 426.477775 346.780934 
L 435.951425 333.379565 
L 445.425075 258.383444 
L 454.898725 290.855992 
L 464.372375 292.402303 
L 473.846025 201.169908 
L 483.319675 200.654471 
L 492.793325 243.693482 
L 502.266975 269.207627 
L 511.740625 284.928463 
L 521.214275 280.289528 
L 530.687925 277.97006 
L 540.161575 229.518958 
L 549.635225 229.518958 
L 559.108875 301.680174 
L 568.582525 307.865421 
L 578.056175 328.482912 
L 587.529825 346.007778 
L 597.003475 351.162151 
L 606.477125 353.2239 
L 615.950775 350.131276 
L 625.424425 348.069527 
L 634.898075 351.162151 
L 644.371725 353.2239 
L 653.845375 353.2239 
L 663.319025 353.2239 
L 672.792675 353.2239 
L 682.266325 353.2239 
L 691.739975 353.2239 
L 701.213625 353.2239 
L 710.687275 353.2239 
L 720.160925 353.2239 
L 729.634575 353.2239 
L 739.108225 353.2239 
L 748.581875 353.2239 
L 758.055525 353.2239 
L 767.529175 353.2239 
L 777.002825 353.2239 
L 786.476475 353.2239 
L 795.950125 353.2239 
L 805.423775 353.2239 
L 814.897425 353.2239 
L 824.371075 353.2239 
L 833.844725 353.2239 
L 843.318375 353.2239 
L 852.792025 353.2239 
L 862.265675 353.2239 
L 871.739325 353.2239 
L 881.212975 353.2239 
L 890.686625 353.2239 
L 900.160275 353.2239 
L 909.633925 353.2239 
L 919.107575 353.2239 
L 928.581225 353.2239 
L 938.054875 353.2239 
L 947.528525 353.2239 
L 957.002175 353.2239 
L 966.475825 353.2239 
L 975.949475 353.2239 
L 985.423125 353.2239 
" style="fill:none;stroke:#d9534f;stroke-linecap:square;"/>
   </g>
   <g id="line2d_17">
    <path clip-path="url(#p924e4843d4)" d="M 38.058125 353.2239 
L 47.531775 353.2239 
L 57.005425 353.2239 
L 66.479075 353.2239 
L 75.952725 353.2239 
L 85.426375 353.2239 
L 94.900025 353.2239 
L 104.373675 353.2239 
L 113.847325 353.2239 
L 123.320975 353.2239 
L 132.794625 353.2239 
L 142.268275 353.2239 
L 151.741925 353.2239 
L 161.215575 353.2239 
L 170.689225 353.2239 
L 180.162875 353.2239 
L 189.636525 353.2239 
L 199.110175 353.2239 
L 208.583825 353.2239 
L 218.057475 353.2239 
L 227.531125 353.2239 
L 237.004775 353.2239 
L 246.478425 353.2239 
L 255.952075 353.2239 
L 265.425725 353.2239 
L 274.899375 353.2239 
L 284.373025 353.2239 
L 293.846675 353.2239 
L 303.320325 353.2239 
L 312.793975 353.2239 
L 322.267625 353.2239 
L 331.741275 352.302312 
L 341.214925 353.2239 
L 350.688575 351.380724 
L 360.162225 352.302312 
L 369.635875 353.2239 
L 379.109525 353.2239 
L 388.583175 353.2239 
L 398.056825 353.2239 
L 407.530475 352.302312 
L 417.004125 350.91993 
L 426.477775 348.385563 
L 435.951425 345.851196 
L 445.425075 218.211262 
L 454.898725 203.696252 
L 464.372375 310.139662 
L 473.846025 309.678868 
L 483.319675 283.183214 
L 492.793325 278.344877 
L 502.266975 270.280983 
L 511.740625 285.487184 
L 521.214275 240.098977 
L 530.687925 167.06313 
L 540.161575 206.691413 
L 549.635225 223.279996 
L 559.108875 292.399094 
L 568.582525 310.830853 
L 578.056175 328.341025 
L 587.529825 342.395241 
L 597.003475 352.302312 
L 606.477125 352.302312 
L 615.950775 353.2239 
L 625.424425 352.302312 
L 634.898075 352.302312 
L 644.371725 352.302312 
L 653.845375 352.302312 
L 663.319025 353.2239 
L 672.792675 353.2239 
L 682.266325 353.2239 
L 691.739975 353.2239 
L 701.213625 353.2239 
L 710.687275 353.2239 
L 720.160925 353.2239 
L 729.634575 353.2239 
L 739.108225 353.2239 
L 748.581875 353.2239 
L 758.055525 353.2239 
L 767.529175 353.2239 
L 777.002825 353.2239 
L 786.476475 353.2239 
L 795.950125 353.2239 
L 805.423775 353.2239 
L 814.897425 353.2239 
L 824.371075 353.2239 
L 833.844725 353.2239 
L 843.318375 353.2239 
L 852.792025 353.2239 
L 862.265675 353.2239 
L 871.739325 353.2239 
L 881.212975 353.2239 
L 890.686625 353.2239 
L 900.160275 353.2239 
L 909.633925 353.2239 
L 919.107575 353.2239 
L 928.581225 353.2239 
L 938.054875 353.2239 
L 947.528525 353.2239 
L 957.002175 353.2239 
L 966.475825 353.2239 
L 975.949475 353.2239 
L 985.423125 353.2239 
" style="fill:none;stroke:#d9534f;stroke-linecap:square;"/>
   </g>
   <g id="line2d_18">
    <path clip-path="url(#p924e4843d4)" d="M 38.058125 353.2239 
L 47.531775 353.2239 
L 57.005425 353.2239 
L 66.479075 353.2239 
L 75.952725 353.2239 
L 85.426375 353.2239 
L 94.900025 353.2239 
L 104.373675 353.2239 
L 113.847325 353.2239 
L 123.320975 353.2239 
L 132.794625 353.2239 
L 142.268275 353.2239 
L 151.741925 353.2239 
L 161.215575 353.2239 
L 170.689225 353.2239 
L 180.162875 353.2239 
L 189.636525 353.2239 
L 199.110175 353.2239 
L 208.583825 353.2239 
L 218.057475 353.2239 
L 227.531125 353.2239 
L 237.004775 353.2239 
L 246.478425 353.2239 
L 255.952075 353.2239 
L 265.425725 353.2239 
L 274.899375 353.2239 
L 284.373025 346.936084 
L 293.846675 350.079992 
L 303.320325 352.175931 
L 312.793975 349.032023 
L 322.267625 350.079992 
L 331.741275 351.127961 
L 341.214925 353.2239 
L 350.688575 338.552329 
L 360.162225 337.50436 
L 369.635875 351.389954 
L 379.109525 353.2239 
L 388.583175 353.2239 
L 398.056825 353.2239 
L 407.530475 352.175931 
L 417.004125 350.603977 
L 426.477775 345.888115 
L 435.951425 338.552329 
L 445.425075 297.419533 
L 454.898725 290.607733 
L 464.372375 284.581909 
L 473.846025 169.305283 
L 483.319675 230.611489 
L 492.793325 246.331029 
L 502.266975 231.135473 
L 511.740625 306.06528 
L 521.214275 299.777464 
L 530.687925 271.482292 
L 540.161575 253.666814 
L 549.635225 215.939918 
L 559.108875 284.057924 
L 568.582525 288.249802 
L 578.056175 327.024667 
L 587.529825 342.744207 
L 597.003475 347.984053 
L 606.477125 353.2239 
L 615.950775 350.079992 
L 625.424425 347.984053 
L 634.898075 352.175931 
L 644.371725 352.175931 
L 653.845375 353.2239 
L 663.319025 353.2239 
L 672.792675 353.2239 
L 682.266325 353.2239 
L 691.739975 353.2239 
L 701.213625 353.2239 
L 710.687275 353.2239 
L 720.160925 353.2239 
L 729.634575 353.2239 
L 739.108225 353.2239 
L 748.581875 353.2239 
L 758.055525 353.2239 
L 767.529175 353.2239 
L 777.002825 353.2239 
L 786.476475 353.2239 
L 795.950125 353.2239 
L 805.423775 353.2239 
L 814.897425 353.2239 
L 824.371075 353.2239 
L 833.844725 353.2239 
L 843.318375 353.2239 
L 852.792025 353.2239 
L 862.265675 353.2239 
L 871.739325 353.2239 
L 881.212975 353.2239 
L 890.686625 353.2239 
L 900.160275 353.2239 
L 909.633925 353.2239 
L 919.107575 353.2239 
L 928.581225 353.2239 
L 938.054875 353.2239 
L 947.528525 353.2239 
L 957.002175 353.2239 
L 966.475825 353.2239 
L 975.949475 353.2239 
L 985.423125 353.2239 
" style="fill:none;stroke:#d9534f;stroke-linecap:square;"/>
   </g>
   <g id="line2d_19">
    <path clip-path="url(#p924e4843d4)" d="M 38.058125 353.2239 
L 47.531775 353.2239 
L 57.005425 353.2239 
L 66.479075 353.2239 
L 75.952725 353.2239 
L 85.426375 353.2239 
L 94.900025 353.2239 
L 104.373675 353.2239 
L 113.847325 353.2239 
L 123.320975 353.2239 
L 132.794625 353.2239 
L 142.268275 353.2239 
L 151.741925 353.2239 
L 161.215575 353.2239 
L 170.689225 353.2239 
L 180.162875 353.2239 
L 189.636525 353.2239 
L 199.110175 353.2239 
L 208.583825 353.2239 
L 218.057475 353.2239 
L 227.531125 353.2239 
L 237.004775 353.2239 
L 246.478425 353.2239 
L 255.952075 353.2239 
L 265.425725 353.2239 
L 274.899375 353.2239 
L 284.373025 353.2239 
L 293.846675 353.2239 
L 303.320325 353.2239 
L 312.793975 353.2239 
L 322.267625 352.292082 
L 331.741275 353.2239 
L 341.214925 353.2239 
L 350.688575 353.2239 
L 360.162225 353.2239 
L 369.635875 351.360265 
L 379.109525 351.360265 
L 388.583175 352.292082 
L 398.056825 350.661401 
L 407.530475 350.428447 
L 417.004125 351.593219 
L 426.477775 349.729584 
L 435.951425 350.661401 
L 445.425075 234.883057 
L 454.898725 225.797835 
L 464.372375 317.814829 
L 473.846025 315.25233 
L 483.319675 274.951217 
L 492.793325 292.888707 
L 502.266975 289.627345 
L 511.740625 292.189843 
L 521.214275 236.04783 
L 530.687925 127.956981 
L 540.161575 219.042157 
L 549.635225 229.292152 
L 559.108875 258.178499 
L 568.582525 286.133029 
L 578.056175 328.996641 
L 587.529825 339.246635 
L 597.003475 350.428447 
L 606.477125 352.525037 
L 615.950775 352.525037 
L 625.424425 353.2239 
L 634.898075 353.2239 
L 644.371725 353.2239 
L 653.845375 353.2239 
L 663.319025 353.2239 
L 672.792675 353.2239 
L 682.266325 353.2239 
L 691.739975 353.2239 
L 701.213625 353.2239 
L 710.687275 353.2239 
L 720.160925 353.2239 
L 729.634575 353.2239 
L 739.108225 353.2239 
L 748.581875 353.2239 
L 758.055525 353.2239 
L 767.529175 353.2239 
L 777.002825 353.2239 
L 786.476475 353.2239 
L 795.950125 353.2239 
L 805.423775 353.2239 
L 814.897425 353.2239 
L 824.371075 353.2239 
L 833.844725 353.2239 
L 843.318375 353.2239 
L 852.792025 353.2239 
L 862.265675 353.2239 
L 871.739325 353.2239 
L 881.212975 353.2239 
L 890.686625 353.2239 
L 900.160275 353.2239 
L 909.633925 353.2239 
L 919.107575 353.2239 
L 928.581225 353.2239 
L 938.054875 353.2239 
L 947.528525 353.2239 
L 957.002175 353.2239 
L 966.475825 353.2239 
L 975.949475 353.2239 
L 985.423125 353.2239 
" style="fill:none;stroke:#d9534f;stroke-linecap:square;"/>
   </g>
   <g id="line2d_20">
    <path clip-path="url(#p924e4843d4)" d="M 38.058125 353.2239 
L 47.531775 353.2239 
L 57.005425 353.2239 
L 66.479075 353.2239 
L 75.952725 353.2239 
L 85.426375 353.2239 
L 94.900025 353.2239 
L 104.373675 353.2239 
L 113.847325 353.2239 
L 123.320975 353.2239 
L 132.794625 353.2239 
L 142.268275 353.2239 
L 151.741925 353.2239 
L 161.215575 353.2239 
L 170.689225 353.2239 
L 180.162875 353.2239 
L 189.636525 353.2239 
L 199.110175 353.2239 
L 208.583825 353.2239 
L 218.057475 353.2239 
L 227.531125 353.2239 
L 237.004775 353.2239 
L 246.478425 353.2239 
L 255.952075 353.2239 
L 265.425725 352.233505 
L 274.899375 352.233505 
L 284.373025 351.243111 
L 293.846675 351.243111 
L 303.320325 353.2239 
L 312.793975 348.271927 
L 322.267625 351.243111 
L 331.741275 352.233505 
L 341.214925 352.233505 
L 350.688575 353.2239 
L 360.162225 351.243111 
L 369.635875 351.243111 
L 379.109525 352.233505 
L 388.583175 352.233505 
L 398.056825 350.252716 
L 407.530475 351.243111 
L 417.004125 351.243111 
L 426.477775 347.281532 
L 435.951425 332.178013 
L 445.425075 263.097984 
L 454.898725 267.059563 
L 464.372375 285.877062 
L 473.846025 289.095845 
L 483.319675 263.593182 
L 492.793325 253.936833 
L 502.266975 264.088379 
L 511.740625 282.41068 
L 521.214275 261.364794 
L 530.687925 270.030747 
L 540.161575 234.376539 
L 549.635225 146.231412 
L 559.108875 270.030747 
L 568.582525 287.857851 
L 578.056175 319.550481 
L 587.529825 345.300743 
L 597.003475 351.243111 
L 606.477125 352.233505 
L 615.950775 353.2239 
L 625.424425 353.2239 
L 634.898075 353.2239 
L 644.371725 353.2239 
L 653.845375 353.2239 
L 663.319025 352.481104 
L 672.792675 353.2239 
L 682.266325 353.2239 
L 691.739975 353.2239 
L 701.213625 353.2239 
L 710.687275 353.2239 
L 720.160925 353.2239 
L 729.634575 353.2239 
L 739.108225 353.2239 
L 748.581875 353.2239 
L 758.055525 353.2239 
L 767.529175 353.2239 
L 777.002825 353.2239 
L 786.476475 353.2239 
L 795.950125 353.2239 
L 805.423775 353.2239 
L 814.897425 353.2239 
L 824.371075 353.2239 
L 833.844725 353.2239 
L 843.318375 353.2239 
L 852.792025 353.2239 
L 862.265675 353.2239 
L 871.739325 353.2239 
L 881.212975 353.2239 
L 890.686625 353.2239 
L 900.160275 353.2239 
L 909.633925 353.2239 
L 919.107575 353.2239 
L 928.581225 353.2239 
L 938.054875 353.2239 
L 947.528525 353.2239 
L 957.002175 353.2239 
L 966.475825 353.2239 
L 975.949475 353.2239 
L 985.423125 353.2239 
" style="fill:none;stroke:#d9534f;stroke-linecap:square;"/>
   </g>
   <g id="line2d_21">
    <path clip-path="url(#p924e4843d4)" d="M 38.058125 353.2239 
L 47.531775 353.2239 
L 57.005425 353.2239 
L 66.479075 353.2239 
L 75.952725 353.2239 
L 85.426375 353.2239 
L 94.900025 353.2239 
L 104.373675 353.2239 
L 113.847325 353.2239 
L 123.320975 353.2239 
L 132.794625 353.2239 
L 142.268275 353.2239 
L 151.741925 353.2239 
L 161.215575 353.2239 
L 170.689225 353.2239 
L 180.162875 353.2239 
L 189.636525 353.2239 
L 199.110175 353.2239 
L 208.583825 353.2239 
L 218.057475 353.2239 
L 227.531125 353.2239 
L 237.004775 353.2239 
L 246.478425 353.2239 
L 255.952075 353.2239 
L 265.425725 353.2239 
L 274.899375 353.2239 
L 284.373025 353.2239 
L 293.846675 353.2239 
L 303.320325 353.2239 
L 312.793975 353.2239 
L 322.267625 353.2239 
L 331.741275 353.2239 
L 341.214925 352.271894 
L 350.688575 353.2239 
L 360.162225 353.2239 
L 369.635875 353.2239 
L 379.109525 353.2239 
L 388.583175 352.271894 
L 398.056825 353.2239 
L 407.530475 352.271894 
L 417.004125 352.271894 
L 426.477775 348.939873 
L 435.951425 345.607852 
L 445.425075 255.167283 
L 454.898725 245.885225 
L 464.372375 326.567732 
L 473.846025 332.51777 
L 483.319675 316.809671 
L 492.793325 304.195592 
L 502.266975 282.775457 
L 511.740625 289.915502 
L 521.214275 224.227089 
L 530.687925 78.094169 
L 540.161575 200.188937 
L 549.635225 166.630726 
L 559.108875 255.405285 
L 568.582525 299.911565 
L 578.056175 337.039798 
L 587.529825 351.319888 
L 597.003475 350.605884 
L 606.477125 351.319888 
L 615.950775 353.2239 
L 625.424425 353.2239 
L 634.898075 353.2239 
L 644.371725 352.271894 
L 653.845375 353.2239 
L 663.319025 353.2239 
L 672.792675 353.2239 
L 682.266325 353.2239 
L 691.739975 353.2239 
L 701.213625 353.2239 
L 710.687275 353.2239 
L 720.160925 353.2239 
L 729.634575 353.2239 
L 739.108225 353.2239 
L 748.581875 353.2239 
L 758.055525 353.2239 
L 767.529175 353.2239 
L 777.002825 353.2239 
L 786.476475 353.2239 
L 795.950125 353.2239 
L 805.423775 353.2239 
L 814.897425 353.2239 
L 824.371075 353.2239 
L 833.844725 353.2239 
L 843.318375 353.2239 
L 852.792025 353.2239 
L 862.265675 353.2239 
L 871.739325 353.2239 
L 881.212975 353.2239 
L 890.686625 353.2239 
L 900.160275 353.2239 
L 909.633925 353.2239 
L 919.107575 353.2239 
L 928.581225 353.2239 
L 938.054875 353.2239 
L 947.528525 353.2239 
L 957.002175 353.2239 
L 966.475825 353.2239 
L 975.949475 353.2239 
L 985.423125 353.2239 
" style="fill:none;stroke:#d9534f;stroke-linecap:square;"/>
   </g>
   <g id="line2d_22">
    <path clip-path="url(#p924e4843d4)" d="M 38.058125 353.2239 
L 985.423125 353.2239 
" style="fill:none;stroke:#dedede;stroke-linecap:square;stroke-width:2;"/>
   </g>
   <g id="text_14">
    <!-- FastQC: Per Sequence GC Content -->
    <defs>
     <path d="M 9.8125 72.90625 
L 51.703125 72.90625 
L 51.703125 64.59375 
L 19.671875 64.59375 
L 19.671875 43.109375 
L 48.578125 43.109375 
L 48.578125 34.8125 
L 19.671875 34.8125 
L 19.671875 0 
L 9.8125 0 
z
" id="DejaVuSans-70"/>
     <path d="M 44.28125 53.078125 
L 44.28125 44.578125 
Q 40.484375 46.53125 36.375 47.5 
Q 32.28125 48.484375 27.875 48.484375 
Q 21.1875 48.484375 17.84375 46.4375 
Q 14.5 44.390625 14.5 40.28125 
Q 14.5 37.15625 16.890625 35.375 
Q 19.28125 33.59375 26.515625 31.984375 
L 29.59375 31.296875 
Q 39.15625 29.25 43.1875 25.515625 
Q 47.21875 21.78125 47.21875 15.09375 
Q 47.21875 7.46875 41.1875 3.015625 
Q 35.15625 -1.421875 24.609375 -1.421875 
Q 20.21875 -1.421875 15.453125 -0.5625 
Q 10.6875 0.296875 5.421875 2 
L 5.421875 11.28125 
Q 10.40625 8.6875 15.234375 7.390625 
Q 20.0625 6.109375 24.8125 6.109375 
Q 31.15625 6.109375 34.5625 8.28125 
Q 37.984375 10.453125 37.984375 14.40625 
Q 37.984375 18.0625 35.515625 20.015625 
Q 33.0625 21.96875 24.703125 23.78125 
L 21.578125 24.515625 
Q 13.234375 26.265625 9.515625 29.90625 
Q 5.8125 33.546875 5.8125 39.890625 
Q 5.8125 47.609375 11.28125 51.796875 
Q 16.75 56 26.8125 56 
Q 31.78125 56 36.171875 55.265625 
Q 40.578125 54.546875 44.28125 53.078125 
z
" id="DejaVuSans-115"/>
     <path d="M 39.40625 66.21875 
Q 28.65625 66.21875 22.328125 58.203125 
Q 16.015625 50.203125 16.015625 36.375 
Q 16.015625 22.609375 22.328125 14.59375 
Q 28.65625 6.59375 39.40625 6.59375 
Q 50.140625 6.59375 56.421875 14.59375 
Q 62.703125 22.609375 62.703125 36.375 
Q 62.703125 50.203125 56.421875 58.203125 
Q 50.140625 66.21875 39.40625 66.21875 
z
M 53.21875 1.3125 
L 66.21875 -12.890625 
L 54.296875 -12.890625 
L 43.5 -1.21875 
Q 41.890625 -1.3125 41.03125 -1.359375 
Q 40.1875 -1.421875 39.40625 -1.421875 
Q 24.03125 -1.421875 14.8125 8.859375 
Q 5.609375 19.140625 5.609375 36.375 
Q 5.609375 53.65625 14.8125 63.9375 
Q 24.03125 74.21875 39.40625 74.21875 
Q 54.734375 74.21875 63.90625 63.9375 
Q 73.09375 53.65625 73.09375 36.375 
Q 73.09375 23.6875 67.984375 14.640625 
Q 62.890625 5.609375 53.21875 1.3125 
z
" id="DejaVuSans-81"/>
     <path d="M 11.71875 12.40625 
L 22.015625 12.40625 
L 22.015625 0 
L 11.71875 0 
z
M 11.71875 51.703125 
L 22.015625 51.703125 
L 22.015625 39.3125 
L 11.71875 39.3125 
z
" id="DejaVuSans-58"/>
     <path d="M 53.515625 70.515625 
L 53.515625 60.890625 
Q 47.90625 63.578125 42.921875 64.890625 
Q 37.9375 66.21875 33.296875 66.21875 
Q 25.25 66.21875 20.875 63.09375 
Q 16.5 59.96875 16.5 54.203125 
Q 16.5 49.359375 19.40625 46.890625 
Q 22.3125 44.4375 30.421875 42.921875 
L 36.375 41.703125 
Q 47.40625 39.59375 52.65625 34.296875 
Q 57.90625 29 57.90625 20.125 
Q 57.90625 9.515625 50.796875 4.046875 
Q 43.703125 -1.421875 29.984375 -1.421875 
Q 24.8125 -1.421875 18.96875 -0.25 
Q 13.140625 0.921875 6.890625 3.21875 
L 6.890625 13.375 
Q 12.890625 10.015625 18.65625 8.296875 
Q 24.421875 6.59375 29.984375 6.59375 
Q 38.421875 6.59375 43.015625 9.90625 
Q 47.609375 13.234375 47.609375 19.390625 
Q 47.609375 24.75 44.3125 27.78125 
Q 41.015625 30.8125 33.5 32.328125 
L 27.484375 33.5 
Q 16.453125 35.6875 11.515625 40.375 
Q 6.59375 45.0625 6.59375 53.421875 
Q 6.59375 63.09375 13.40625 68.65625 
Q 20.21875 74.21875 32.171875 74.21875 
Q 37.3125 74.21875 42.625 73.28125 
Q 47.953125 72.359375 53.515625 70.515625 
z
" id="DejaVuSans-83"/>
     <path d="M 14.796875 27.296875 
Q 14.796875 17.390625 18.875 11.75 
Q 22.953125 6.109375 30.078125 6.109375 
Q 37.203125 6.109375 41.296875 11.75 
Q 45.40625 17.390625 45.40625 27.296875 
Q 45.40625 37.203125 41.296875 42.84375 
Q 37.203125 48.484375 30.078125 48.484375 
Q 22.953125 48.484375 18.875 42.84375 
Q 14.796875 37.203125 14.796875 27.296875 
z
M 45.40625 8.203125 
Q 42.578125 3.328125 38.25 0.953125 
Q 33.9375 -1.421875 27.875 -1.421875 
Q 17.96875 -1.421875 11.734375 6.484375 
Q 5.515625 14.40625 5.515625 27.296875 
Q 5.515625 40.1875 11.734375 48.09375 
Q 17.96875 56 27.875 56 
Q 33.9375 56 38.25 53.625 
Q 42.578125 51.265625 45.40625 46.390625 
L 45.40625 54.6875 
L 54.390625 54.6875 
L 54.390625 -20.796875 
L 45.40625 -20.796875 
z
" id="DejaVuSans-113"/>
     <path d="M 8.5 21.578125 
L 8.5 54.6875 
L 17.484375 54.6875 
L 17.484375 21.921875 
Q 17.484375 14.15625 20.5 10.265625 
Q 23.53125 6.390625 29.59375 6.390625 
Q 36.859375 6.390625 41.078125 11.03125 
Q 45.3125 15.671875 45.3125 23.6875 
L 45.3125 54.6875 
L 54.296875 54.6875 
L 54.296875 0 
L 45.3125 0 
L 45.3125 8.40625 
Q 42.046875 3.421875 37.71875 1 
Q 33.40625 -1.421875 27.6875 -1.421875 
Q 18.265625 -1.421875 13.375 4.4375 
Q 8.5 10.296875 8.5 21.578125 
z
M 31.109375 56 
z
" id="DejaVuSans-117"/>
     <path d="M 30.609375 48.390625 
Q 23.390625 48.390625 19.1875 42.75 
Q 14.984375 37.109375 14.984375 27.296875 
Q 14.984375 17.484375 19.15625 11.84375 
Q 23.34375 6.203125 30.609375 6.203125 
Q 37.796875 6.203125 41.984375 11.859375 
Q 46.1875 17.53125 46.1875 27.296875 
Q 46.1875 37.015625 41.984375 42.703125 
Q 37.796875 48.390625 30.609375 48.390625 
z
M 30.609375 56 
Q 42.328125 56 49.015625 48.375 
Q 55.71875 40.765625 55.71875 27.296875 
Q 55.71875 13.875 49.015625 6.21875 
Q 42.328125 -1.421875 30.609375 -1.421875 
Q 18.84375 -1.421875 12.171875 6.21875 
Q 5.515625 13.875 5.515625 27.296875 
Q 5.515625 40.765625 12.171875 48.375 
Q 18.84375 56 30.609375 56 
z
" id="DejaVuSans-111"/>
    </defs>
    <g transform="translate(375.104375 19.3575)scale(0.16 -0.16)">
     <use xlink:href="#DejaVuSans-70"/>
     <use x="48.394531" xlink:href="#DejaVuSans-97"/>
     <use x="109.673828" xlink:href="#DejaVuSans-115"/>
     <use x="161.773438" xlink:href="#DejaVuSans-116"/>
     <use x="200.982422" xlink:href="#DejaVuSans-81"/>
     <use x="279.693359" xlink:href="#DejaVuSans-67"/>
     <use x="349.517578" xlink:href="#DejaVuSans-58"/>
     <use x="383.208984" xlink:href="#DejaVuSans-32"/>
     <use x="414.996094" xlink:href="#DejaVuSans-80"/>
     <use x="471.673828" xlink:href="#DejaVuSans-101"/>
     <use x="533.197266" xlink:href="#DejaVuSans-114"/>
     <use x="574.310547" xlink:href="#DejaVuSans-32"/>
     <use x="606.097656" xlink:href="#DejaVuSans-83"/>
     <use x="669.574219" xlink:href="#DejaVuSans-101"/>
     <use x="731.097656" xlink:href="#DejaVuSans-113"/>
     <use x="794.574219" xlink:href="#DejaVuSans-117"/>
     <use x="857.953125" xlink:href="#DejaVuSans-101"/>
     <use x="919.476562" xlink:href="#DejaVuSans-110"/>
     <use x="982.855469" xlink:href="#DejaVuSans-99"/>
     <use x="1037.835938" xlink:href="#DejaVuSans-101"/>
     <use x="1099.359375" xlink:href="#DejaVuSans-32"/>
     <use x="1131.146484" xlink:href="#DejaVuSans-71"/>
     <use x="1208.636719" xlink:href="#DejaVuSans-67"/>
     <use x="1278.460938" xlink:href="#DejaVuSans-32"/>
     <use x="1310.248047" xlink:href="#DejaVuSans-67"/>
     <use x="1380.072266" xlink:href="#DejaVuSans-111"/>
     <use x="1441.253906" xlink:href="#DejaVuSans-110"/>
     <use x="1504.632812" xlink:href="#DejaVuSans-116"/>
     <use x="1543.841797" xlink:href="#DejaVuSans-101"/>
     <use x="1605.365234" xlink:href="#DejaVuSans-110"/>
     <use x="1668.744141" xlink:href="#DejaVuSans-116"/>
    </g>
   </g>
  </g>
 </g>
 <defs>
  <clipPath id="p924e4843d4">
   <rect height="317.968" width="947.365" x="38.058125" y="35.2559"/>
  </clipPath>
 </defs>
</svg>
